<svg width="35" height="35" viewBox="0 0 35 35" fill="none" xmlns="http://www.w3.org/2000/svg">
<g id="Frame 28589">
<path id="Vector (Stroke)" fill-rule="evenodd" clip-rule="evenodd" d="M17.4727 2.38264C16.8368 2.38264 16.2269 2.63521 15.7771 3.08483L14.8862 3.97401C14.4205 4.4388 13.6662 4.43806 13.2014 3.97236C12.7367 3.50667 12.7374 2.75236 13.2031 2.28758L14.0926 1.39985C14.9891 0.503534 16.2049 0 17.4727 0C18.7404 0 19.9562 0.503534 20.8527 1.39985L33.5432 14.0892C33.543 14.0891 33.5433 14.0893 33.5432 14.0892C33.9875 14.5331 34.3404 15.0607 34.5809 15.6409C34.8215 16.2213 34.9453 16.8435 34.9453 17.4718C34.9453 18.1001 34.8215 18.7222 34.5809 19.3026C34.3403 19.883 33.9877 20.4103 33.5432 20.8543L20.8551 33.5431C20.855 33.5432 20.8553 33.5429 20.8551 33.5431C20.4112 33.9874 19.8836 34.3403 19.3035 34.5809C18.7231 34.8215 18.1009 34.9453 17.4727 34.9453C16.8444 34.9453 16.2222 34.8215 15.6419 34.5809C15.0617 34.3403 14.5346 33.9879 14.0907 33.5435M14.0907 33.5435L1.40214 20.8543C1.40198 20.8542 1.40229 20.8545 1.40214 20.8543C0.957853 20.4104 0.604923 19.8828 0.36442 19.3026C0.123833 18.7222 0 18.1001 0 17.4718C0 16.8435 0.123833 16.2213 0.36442 15.6409C0.604923 15.0607 0.957384 14.5336 1.40167 14.0897C1.40151 14.0898 1.40182 14.0895 1.40167 14.0897L5.71259 9.7785H1.43105C0.773104 9.7785 0.239733 9.24513 0.239733 8.58718C0.239733 7.92924 0.773104 7.39587 1.43105 7.39587H8.58857C8.59757 7.39587 8.60656 7.39597 8.61552 7.39617C9.26225 7.40911 9.78253 7.93742 9.78253 8.58724V15.7452C9.78253 16.4031 9.24916 16.9365 8.59122 16.9365C7.93327 16.9365 7.3999 16.4031 7.3999 15.7452V11.4607L3.08649 15.7744C2.86351 15.9971 2.68615 16.2621 2.56545 16.5533C2.44476 16.8445 2.38263 17.1566 2.38263 17.4718C2.38263 17.787 2.44476 18.0991 2.56545 18.3902C2.68615 18.6814 2.86304 18.9459 3.08602 19.1687L15.7755 31.8588C15.9982 32.0818 16.2632 32.2592 16.5543 32.3799C16.8454 32.5006 17.1575 32.5627 17.4727 32.5627C17.7878 32.5627 18.0999 32.5006 18.391 32.3799C18.6821 32.2592 18.9466 32.0823 19.1694 31.8593L31.8588 19.1691C32.0818 18.9464 32.2592 18.6814 32.3799 18.3902C32.5006 18.0991 32.5627 17.787 32.5627 17.4718C32.5627 17.1566 32.5006 16.8445 32.3799 16.5533C32.2592 16.2621 32.0823 15.9976 31.8593 15.7749L19.1682 3.08483C18.7184 2.63521 18.1086 2.38264 17.4727 2.38264" fill="black"/>
<path id="Ellipse 17714" d="M23.4796 17.3297C23.4796 20.2872 21.0821 22.6847 18.1246 22.6847C15.1671 22.6847 12.7695 20.2872 12.7695 17.3297C12.7695 14.3721 15.1671 11.9746 18.1246 11.9746C21.0821 11.9746 23.4796 14.3721 23.4796 17.3297Z" fill="#FDC736"/>
</g>
</svg>
