<svg width="39" height="35" viewBox="0 0 39 35" fill="none" xmlns="http://www.w3.org/2000/svg">
<g id="Frame 28587">
<g id="Group 28456">
<path id="Vector" d="M35.6475 15.8604C35.1621 12.369 33.5423 9.1341 31.0377 6.65382C28.533 4.17354 25.2824 2.5855 21.7865 2.1343C18.6644 1.72803 15.4918 2.24829 12.6631 3.6304C9.8343 5.0125 7.47411 7.19551 5.87588 9.90805M3.90146 19.8289C4.36047 23.1327 5.83605 26.2118 8.12359 28.6393C10.4111 31.0667 13.3973 32.7223 16.668 33.3765C19.9387 34.0306 23.332 33.6509 26.3772 32.29C29.4224 30.929 31.9687 28.6543 33.6631 25.7812M2 19.8289C2 20.3551 2.20904 20.8598 2.58113 21.2319C2.95322 21.604 3.45789 21.813 3.98411 21.813C4.51033 21.813 5.015 21.604 5.38709 21.2319C5.75919 20.8598 5.96822 20.3551 5.96822 19.8289C5.96822 19.3027 5.75919 18.798 5.38709 18.4259C5.015 18.0538 4.51033 17.8448 3.98411 17.8448C3.45789 17.8448 2.95322 18.0538 2.58113 18.4259C2.20904 18.798 2 19.3027 2 19.8289ZM33.6631 15.8604C33.6631 16.3866 33.8722 16.8913 34.2443 17.2634C34.6164 17.6355 35.121 17.8445 35.6472 17.8445C36.1735 17.8445 36.6781 17.6355 37.0502 17.2634C37.4223 16.8913 37.6314 16.3866 37.6314 15.8604C37.6314 15.3342 37.4223 14.8295 37.0502 14.4574C36.6781 14.0853 36.1735 13.8763 35.6472 13.8763C35.121 13.8763 34.6164 14.0853 34.2443 14.4574C33.8722 14.8295 33.6631 15.3342 33.6631 15.8604Z" stroke="black" stroke-width="2.04672" stroke-linecap="round" stroke-linejoin="round"/>
</g>
<path id="Vector_2" d="M27.239 20.3928C27.239 24.5043 24.0937 27.0638 19.8158 27.239C15.3619 27.239 12.3926 24.5043 12.3926 20.3928C12.3926 14.9116 16.1042 9.41642 19.8158 9.42335C23.5274 9.43027 27.239 14.9116 27.239 20.3928Z" fill="black"/>
<path id="Vector 109" d="M21.2996 22.0226L18.1819 27.9811L22.6358 22.0226L19.5181 16.4898L23 10.9997C23 10 19 8.49989 18.5 9.99965L16.8457 17.341L21.2996 22.0226Z" fill="#FDC736"/>
<path id="Vector_3" d="M2 19.9841C2 20.5103 2.20904 21.015 2.58113 21.3871C2.95322 21.7592 3.45789 21.9682 3.98411 21.9682C4.51033 21.9682 5.015 21.7592 5.38709 21.3871C5.75919 21.015 5.96822 20.5103 5.96822 19.9841C5.96822 19.4579 5.75919 18.9532 5.38709 18.5811C5.015 18.209 4.51033 18 3.98411 18C3.45789 18 2.95322 18.209 2.58113 18.5811C2.20904 18.9532 2 19.4579 2 19.9841Z" stroke="#FDC736" stroke-width="2.04672" stroke-linecap="round" stroke-linejoin="round"/>
<path id="Vector_4" d="M34 15.9841C34 16.5103 34.209 17.015 34.5811 17.3871C34.9532 17.7592 35.4579 17.9682 35.9841 17.9682C36.5103 17.9682 37.015 17.7592 37.3871 17.3871C37.7592 17.015 37.9682 16.5103 37.9682 15.9841C37.9682 15.4579 37.7592 14.9532 37.3871 14.5811C37.015 14.209 36.5103 14 35.9841 14C35.4579 14 34.9532 14.209 34.5811 14.5811C34.209 14.9532 34 15.4579 34 15.9841Z" stroke="#FDC736" stroke-width="2.04672" stroke-linecap="round" stroke-linejoin="round"/>
</g>
</svg>
