<svg width="35" height="36" viewBox="0 0 35 36" fill="none" xmlns="http://www.w3.org/2000/svg">
<g id="Group 6963">
<g id="Group 14305">
<g id="Ellipse 4000">
<path id="Vector" d="M27.8213 11.1548C27.8213 16.487 23.4987 20.8095 18.1665 20.8095C12.8343 20.8095 8.51172 16.487 8.51172 11.1548C8.51172 5.82259 12.8343 1.5 18.1665 1.5C23.4987 1.5 27.8213 5.82259 27.8213 11.1548Z" stroke="#FAB737"/>
<path id="Vector_2" d="M18.1651 20.6637C23.4167 20.6637 27.6739 16.4064 27.6739 11.1548C27.6739 5.90325 23.4167 1.646 18.1651 1.646C12.9135 1.646 8.65625 5.90325 8.65625 11.1548C8.65625 16.4064 12.9135 20.6637 18.1651 20.6637Z" stroke="#FAB737" stroke-width="1.5"/>
</g>
<g id="Ellipse 3999">
<path id="Vector_3" d="M23.9122 11.1549C23.9122 14.33 21.3383 16.9039 18.1632 16.9039C14.988 16.9039 12.4141 14.33 12.4141 11.1549C12.4141 7.97972 14.988 5.40576 18.1632 5.40576C21.3383 5.40576 23.9122 7.97972 23.9122 11.1549Z" stroke="#FAB737"/>
<path id="Vector_4" d="M18.1618 16.7581C21.2563 16.7581 23.7649 14.2495 23.7649 11.1549C23.7649 8.06038 21.2563 5.55176 18.1618 5.55176C15.0672 5.55176 12.5586 8.06038 12.5586 11.1549C12.5586 14.2495 15.0672 16.7581 18.1618 16.7581Z" stroke="#FAB737" stroke-width="1.5"/>
</g>
<g id="hand-point-up">
<path id="Path 51187" d="M17.0288 11.8166L18.3534 10.8521L19.9217 11.8166V19.5505L27.4833 21.4917L27.69 30.098L25.4939 34.0906H18.9304L7.60352 21.2523L8.53881 20.1525L10.7823 20.5995L13.875 23.3683H17.0288V11.8166Z" fill="white"/>
<path id="Path 51186" d="M26.1497 35.45H18.3874L6.36292 22.138C6.24794 22.0108 6.15943 21.8621 6.10253 21.7003C6.04563 21.5386 6.02149 21.3672 6.03151 21.1961C6.04153 21.0249 6.08551 20.8575 6.16089 20.7035C6.23627 20.5496 6.34154 20.4121 6.47057 20.2993C6.96195 19.8689 7.53491 19.5419 8.15533 19.3376C8.77575 19.1333 9.43094 19.056 10.0819 19.1102C10.7328 19.1645 11.3661 19.3492 11.9442 19.6533C12.5222 19.9575 13.0332 20.3749 13.4465 20.8806L14.4421 22.0975H15.7572V12.4052C15.7753 11.6749 16.0782 10.9806 16.6011 10.4705C17.1241 9.96034 17.8257 9.6748 18.5562 9.6748C19.2868 9.6748 19.9884 9.96034 20.5113 10.4705C21.0343 10.9806 21.3371 11.6749 21.3552 12.4052V18.4261L28.1589 20.3208C28.4313 20.3962 28.6715 20.5588 28.8426 20.7837C29.0137 21.0087 29.1064 21.2835 29.1063 21.5661V30.1647C29.1063 30.3989 29.0426 30.6287 28.922 30.8295L26.1497 35.45ZM19.1531 33.7276H25.1774L27.3881 30.0432V21.8908L19.6371 19.7377V12.4052C19.6371 12.1197 19.5236 11.8459 19.3218 11.644C19.1199 11.4421 18.846 11.3287 18.5605 11.3287C18.275 11.3287 18.0012 11.4421 17.7993 11.644C17.5974 11.8459 17.484 12.1197 17.484 12.4052V23.82H13.6231L12.1099 21.9709C11.6182 21.3699 10.9216 20.972 10.1542 20.8537C9.38669 20.7354 8.6026 20.9051 7.95275 21.3302L19.1531 33.7276Z" fill="#464646"/>
</g>
</g>
</g>
</svg>
