<svg width="17" height="17" viewBox="0 0 17 17" fill="none" xmlns="http://www.w3.org/2000/svg">
<path fill-rule="evenodd" clip-rule="evenodd" d="M16.2071 0.468174C16.5976 0.858692 16.5976 1.49186 16.2071 1.88239L13.0451 5.04456L11.6308 3.63035L14.7929 0.468198C15.1834 0.0776673 15.8166 0.0776565 16.2071 0.468174ZM11.6308 13.0446L13.045 11.6303L15.7071 14.2924C16.0976 14.6829 16.0976 15.3161 15.7071 15.7066C15.3166 16.0971 14.6834 16.0971 14.2929 15.7066L11.6308 13.0446ZM3.63093 11.6305L5.04514 13.0447L1.8829 16.2071C1.49238 16.5976 0.859217 16.5976 0.468687 16.2071C0.0781555 15.8166 0.0781448 15.1834 0.468662 14.7929L3.63093 11.6305ZM0.792893 2.20662L3.63078 5.04451L5.045 3.6303L2.20711 0.792405C1.81658 0.401881 1.18342 0.401881 0.792893 0.792405C0.402369 1.18293 0.402369 1.81609 0.792893 2.20662ZM3.22938 7.49582L4.65611 6.0691L6.92172 8.33472L4.65359 10.6029L3.22938 9.17865C2.76468 8.71395 2.76468 7.96052 3.22938 7.49582ZM7.49631 13.4456L6.0678 12.0171L8.33594 9.74893L10.6059 12.0189L9.17914 13.4456C8.71444 13.9103 7.96101 13.9103 7.49631 13.4456ZM13.4461 9.17865L12.0201 10.6046L9.75015 8.33472L12.0176 6.06731L13.4461 7.49582C13.9108 7.96052 13.9108 8.71395 13.4461 9.17865ZM9.17914 3.2289L10.6033 4.6531L8.33594 6.9205L6.07032 4.65489L7.49631 3.2289C7.96101 2.7642 8.71444 2.7642 9.17914 3.2289Z" fill="#FD2525"/>
</svg>
