<svg width="43" height="43" viewBox="0 0 43 43" fill="none" xmlns="http://www.w3.org/2000/svg">
<g clip-path="url(#clip0_1309_11839)">
<path d="M23.6972 9.20875C24.0118 8.41581 24.1779 7.57178 24.1872 6.71877C24.1872 4.93684 23.4793 3.2279 22.2193 1.96788C20.9593 0.707869 19.2503 0 17.4684 0C15.6865 0 13.9775 0.707869 12.7175 1.96788C11.4575 3.2279 10.7496 4.93684 10.7496 6.71877C10.759 7.57178 10.925 8.41581 11.2396 9.20875C8.22667 10.3673 5.58985 12.3312 3.61691 14.8861C1.26002 17.9331 -0.0129507 21.6792 -0.000396303 25.5313C-0.000396303 35.1636 7.83613 43.0002 17.4684 43.0002C27.1007 43.0002 34.9372 35.1636 34.9372 25.5313C34.9499 21.6791 33.6769 17.9328 31.3199 14.8857C29.3469 12.3309 26.7101 10.3672 23.6972 9.20875ZM17.4684 40.3126C15.8739 40.3126 14.2339 38.862 12.9693 36.3325C12.3332 35.0303 11.8451 33.661 11.5139 32.2501H23.4229C23.0919 33.661 22.6039 35.0303 21.968 36.3325C20.7029 38.862 19.0629 40.3126 17.4684 40.3126ZM11.0133 29.5626C10.8361 28.2262 10.7481 26.8795 10.7496 25.5313C10.7491 24.1831 10.8393 22.8363 11.0197 21.5001H23.9172C24.0975 22.8363 24.1877 24.1831 24.1872 25.5313C24.1888 26.8795 24.1007 28.2262 23.9236 29.5626H11.0133ZM2.68711 25.5313C2.6872 24.1679 2.87718 22.8111 3.25157 21.5001H8.30745C7.98078 24.1776 7.98002 26.8849 8.30518 29.5626H3.24595C2.87419 28.2511 2.68612 26.8945 2.68711 25.5313ZM13.8462 13.2321C14.7057 14.1882 15.648 15.0663 16.6622 15.8563C16.8948 16.0308 17.1777 16.1251 17.4684 16.1251C17.7592 16.1251 18.0421 16.0308 18.2747 15.8563C19.2888 15.0663 20.2312 14.1882 21.0906 13.2321C22.0816 14.6659 22.8775 16.5972 23.4143 18.8126H11.5223C12.0593 16.5972 12.8554 14.6659 13.8462 13.2321ZM26.6291 21.5001H31.685C32.4357 24.1349 32.4377 26.9267 31.6906 29.5626H26.6311C26.7942 28.225 26.8755 26.8788 26.8747 25.5313C26.8754 24.1838 26.7934 22.8375 26.6291 21.5001ZM30.6253 18.8126H26.1733C25.6004 16.1849 24.6951 13.8559 23.5256 12.0445C26.5908 13.4307 29.0942 15.8171 30.6253 18.8126ZM17.4684 2.68751C18.5372 2.68871 19.5619 3.11382 20.3176 3.86957C21.0734 4.62531 21.4985 5.64998 21.4997 6.71877C21.4997 9.01433 19.0548 11.651 17.4684 13.0442C15.8811 11.6501 13.4372 9.01399 13.4372 6.71877C13.4384 5.64998 13.8635 4.62531 14.6192 3.86957C15.375 3.11382 16.3996 2.68871 17.4684 2.68751ZM11.4112 12.0445C10.2419 13.8559 9.33677 16.1849 8.76357 18.8126H4.31154C5.84268 15.8171 8.34601 13.4307 11.4112 12.0445ZM4.30424 32.2501H8.75921C9.18182 34.1922 9.78953 35.983 10.5649 37.5344C10.8171 38.0411 11.0966 38.5337 11.4021 39.01C8.3405 37.6232 5.8387 35.2405 4.30424 32.2501ZM23.5341 39.01C23.8397 38.5337 24.1192 38.0411 24.3714 37.5344C25.1471 35.983 25.7548 34.1918 26.177 32.2501H30.6322C29.0977 35.2405 26.5958 37.6232 23.5341 39.01Z" fill="#595858"/>
<path d="M17.4688 8.06251C18.2109 8.06251 18.8125 7.46089 18.8125 6.71875C18.8125 5.97662 18.2109 5.375 17.4688 5.375C16.7266 5.375 16.125 5.97662 16.125 6.71875C16.125 7.46089 16.7266 8.06251 17.4688 8.06251Z" fill="#F4AC04"/>
<path d="M30.9063 5.375H29.5625V8.06251H30.9063C31.9754 8.06251 33.0008 8.48723 33.7568 9.24324C34.5128 9.99925 34.9375 11.0246 34.9375 12.0938V13.4375H37.625V12.0938C37.625 10.3118 36.9172 8.6029 35.6571 7.34288C34.3971 6.08287 32.6882 5.375 30.9063 5.375Z" fill="#F4AC04"/>
<path d="M39.4578 3.54218C38.3374 2.41567 37.0047 1.52257 35.5368 0.914558C34.069 0.30655 32.4951 -0.00428475 30.9063 4.46096e-05H29.5625V2.68755H30.9063C33.401 2.68755 35.7935 3.67857 37.5575 5.44259C39.3215 7.20661 40.3125 9.59914 40.3125 12.0938V13.4376H43V12.0938C43.0044 10.505 42.6935 8.9311 42.0855 7.46321C41.4775 5.99532 40.5844 4.6626 39.4578 3.54218Z" fill="#F4AC04"/>
</g>
<defs>
<clipPath id="clip0_1309_11839">
<rect width="43" height="43" fill="white"/>
</clipPath>
</defs>
</svg>
