<svg width="45" height="45" viewBox="0 0 45 45" fill="none" xmlns="http://www.w3.org/2000/svg">
<path d="M22.5 34.4531C23.2767 34.4531 23.9062 33.8235 23.9062 33.0469C23.9062 32.2702 23.2767 31.6406 22.5 31.6406C21.7233 31.6406 21.0938 32.2702 21.0938 33.0469C21.0938 33.8235 21.7233 34.4531 22.5 34.4531Z" fill="#F4AC04"/>
<path d="M32.3438 24.6094C33.1204 24.6094 33.75 23.9798 33.75 23.2031C33.75 22.4265 33.1204 21.7969 32.3438 21.7969C31.5671 21.7969 30.9375 22.4265 30.9375 23.2031C30.9375 23.9798 31.5671 24.6094 32.3438 24.6094Z" fill="#F4AC04"/>
<path d="M11.9531 24.6094C12.7298 24.6094 13.3594 23.9798 13.3594 23.2031C13.3594 22.4265 12.7298 21.7969 11.9531 21.7969C11.1765 21.7969 10.5469 22.4265 10.5469 23.2031C10.5469 23.9798 11.1765 24.6094 11.9531 24.6094Z" fill="#F4AC04"/>
<path d="M15.4688 29.5312C16.2454 29.5312 16.875 28.9017 16.875 28.125C16.875 27.3483 16.2454 26.7188 15.4688 26.7188C14.6921 26.7188 14.0625 27.3483 14.0625 28.125C14.0625 28.9017 14.6921 29.5312 15.4688 29.5312Z" fill="#F4AC04"/>
<path d="M29.5312 29.5312C30.3079 29.5312 30.9375 28.9017 30.9375 28.125C30.9375 27.3483 30.3079 26.7188 29.5312 26.7188C28.7546 26.7188 28.125 27.3483 28.125 28.125C28.125 28.9017 28.7546 29.5312 29.5312 29.5312Z" fill="#F4AC04"/>
<path d="M22.5 18.9844H29.5313C30.054 18.9839 30.57 18.867 31.0418 18.642C31.5136 18.417 31.9292 18.0896 32.2586 17.6837C32.5879 17.2778 32.8225 16.8035 32.9454 16.2955C33.0683 15.7875 33.0764 15.2584 32.9691 14.7468C32.8618 14.2353 32.6417 13.7541 32.325 13.3383C32.0082 12.9225 31.6028 12.5826 31.1381 12.3433C30.6734 12.104 30.1612 11.9713 29.6388 11.9549C29.1163 11.9385 28.5968 12.0387 28.118 12.2484C28.125 12.15 28.125 12.0516 28.125 11.9531C28.125 10.4613 27.5324 9.03054 26.4775 7.97565C25.4226 6.92076 23.9919 6.32813 22.5 6.32812C21.0082 6.32813 19.5775 6.92076 18.5226 7.97565C17.4677 9.03054 16.875 10.4613 16.875 11.9531C16.875 12.0516 16.875 12.15 16.8821 12.2484C16.4033 12.0387 15.8838 11.9385 15.3613 11.9549C14.8389 11.9713 14.3267 12.104 13.862 12.3433C13.3973 12.5826 12.9918 12.9225 12.6751 13.3383C12.3583 13.7541 12.1383 14.2353 12.031 14.7468C11.9236 15.2584 11.9317 15.7875 12.0546 16.2955C12.1776 16.8035 12.4122 17.2778 12.7415 17.6837C13.0708 18.0896 13.4865 18.417 13.9583 18.642C14.4301 18.867 14.9461 18.9839 15.4688 18.9844H22.5Z" fill="#F4AC04"/>
<path d="M39.2416 16.1499C38.7552 12.4072 37.0327 8.93418 34.3475 6.28206C31.6623 3.62993 28.1681 1.95069 24.4197 1.51085C22.0795 1.23604 19.7077 1.45783 17.459 2.16175C15.2104 2.86566 13.1354 4.03588 11.3697 5.596C9.60792 7.14587 8.18753 9.04499 7.19863 11.1729C6.20973 13.3008 5.6739 15.611 5.62514 17.9569C5.62507 18.111 5.60618 18.2645 5.56889 18.414L2.83374 29.3616C2.80854 29.4655 2.80682 29.5737 2.82872 29.6783C2.85061 29.7829 2.89556 29.8813 2.9603 29.9663C3.02651 30.0501 3.11095 30.1177 3.20719 30.164C3.30344 30.2103 3.40897 30.2341 3.51577 30.2335H7.03139V35.1554C7.03306 35.7143 7.25583 36.2499 7.65106 36.6451C8.04628 37.0403 8.58184 37.2631 9.14077 37.2648H14.0626C14.2491 37.2648 14.428 37.3388 14.5598 37.4707C14.6917 37.6026 14.7658 37.7814 14.7658 37.9679V42.8898C14.7658 43.0762 14.8398 43.2551 14.9717 43.3869C15.1036 43.5188 15.2824 43.5929 15.4689 43.5929H29.5314C29.7179 43.5929 29.8967 43.5188 30.0286 43.3869C30.1604 43.2551 30.2345 43.0762 30.2345 42.8898V37.4124C30.2426 36.2461 30.5106 35.0963 31.019 34.0466C31.5274 32.9969 32.2635 32.0738 33.1736 31.3444C35.3937 29.5368 37.1161 27.1928 38.1778 24.534C39.2396 21.8752 39.6057 18.9896 39.2416 16.1499ZM32.2876 30.2546C31.215 31.1153 30.3478 32.2045 29.7494 33.4427C29.1509 34.681 28.8363 36.0371 28.8283 37.4124V42.1866H16.172V37.9679C16.1703 37.409 15.9476 36.8734 15.5524 36.4782C15.1571 36.0829 14.6216 35.8602 14.0626 35.8585H9.14077C8.95429 35.8585 8.77544 35.7844 8.64358 35.6526C8.51172 35.5207 8.43764 35.3419 8.43764 35.1554V29.5304C8.43764 29.3439 8.36356 29.1651 8.2317 29.0332C8.09984 28.9013 7.921 28.8273 7.73452 28.8273H4.41577L6.93295 18.7515C6.9981 18.4988 7.03117 18.239 7.03139 17.978C7.08181 15.3819 7.78496 12.8402 9.07603 10.5872C10.3671 8.33429 12.2045 6.44261 14.419 5.08656C16.6334 3.73051 19.1536 2.95373 21.7472 2.82782C24.3408 2.70191 26.9243 3.23093 29.2597 4.36611C31.5951 5.50129 33.6071 7.2061 35.1103 9.32339C36.6136 11.4407 37.5596 13.9023 37.8612 16.4814C38.1629 19.0605 37.8104 21.674 36.8364 24.081C35.8623 26.488 34.298 28.6111 32.2876 30.2546Z" fill="#2E2E2E"/>
<path d="M32.3438 21.0929C31.9089 21.0951 31.4852 21.2313 31.1304 21.4829C30.7756 21.7346 30.5069 22.0894 30.361 22.4991H29.5313C29.3448 22.4991 29.166 22.425 29.0341 22.2932C28.9023 22.1613 28.8282 21.9825 28.8282 21.796V19.6866H29.5313C30.6502 19.6866 31.7233 19.2421 32.5144 18.451C33.3056 17.6598 33.7501 16.5868 33.7501 15.4679C33.7501 14.349 33.3056 13.2759 32.5144 12.4848C31.7233 11.6936 30.6502 11.2491 29.5313 11.2491C29.2839 11.2492 29.0369 11.2704 28.793 11.3124C28.6285 9.75809 27.8946 8.31966 26.7327 7.27424C25.5708 6.22882 24.0631 5.65039 22.5001 5.65039C20.9371 5.65039 19.4294 6.22882 18.2675 7.27424C17.1055 8.31966 16.3716 9.75809 16.2071 11.3124C15.9632 11.2704 15.7163 11.2492 15.4688 11.2491C14.3499 11.2491 13.2769 11.6936 12.4857 12.4848C11.6945 13.2759 11.2501 14.349 11.2501 15.4679C11.2501 16.5868 11.6945 17.6598 12.4857 18.451C13.2769 19.2421 14.3499 19.6866 15.4688 19.6866V21.796C15.4688 21.9825 15.3947 22.1613 15.2629 22.2932C15.131 22.425 14.9522 22.4991 14.7657 22.4991H13.936C13.7701 22.03 13.4438 21.6346 13.0146 21.3828C12.5854 21.131 12.081 21.0391 11.5906 21.1232C11.1001 21.2074 10.6552 21.4622 10.3345 21.8426C10.0138 22.2231 9.83789 22.7047 9.83789 23.2022C9.83789 23.6998 10.0138 24.1814 10.3345 24.5618C10.6552 24.9423 11.1001 25.1971 11.5906 25.2812C12.081 25.3654 12.5854 25.2734 13.0146 25.0217C13.4438 24.7699 13.7701 24.3745 13.936 23.9054H14.7657C15.3246 23.9037 15.8602 23.6809 16.2554 23.2857C16.6506 22.8905 16.8734 22.3549 16.8751 21.796V19.6866H18.9844V26.7179C18.9844 26.9043 18.9104 27.0832 18.7785 27.2151C18.6466 27.3469 18.4678 27.421 18.2813 27.421H17.4516C17.2858 26.9519 16.9594 26.5565 16.5302 26.3047C16.101 26.0529 15.5966 25.961 15.1062 26.0451C14.6158 26.1293 14.1709 26.3841 13.8501 26.7645C13.5294 27.145 13.3535 27.6265 13.3535 28.1241C13.3535 28.6217 13.5294 29.1033 13.8501 29.4837C14.1709 29.8642 14.6158 30.119 15.1062 30.2031C15.5966 30.2873 16.101 30.1953 16.5302 29.9435C16.9594 29.6918 17.2858 29.2964 17.4516 28.8272H18.2813C18.8402 28.8256 19.3758 28.6028 19.771 28.2076C20.1662 27.8124 20.389 27.2768 20.3907 26.7179V19.6866H21.7969V31.0632C21.3278 31.229 20.9324 31.5554 20.6806 31.9846C20.4289 32.4138 20.3369 32.9182 20.4211 33.4086C20.5052 33.899 20.76 34.3439 21.1405 34.6647C21.5209 34.9854 22.0025 35.1613 22.5001 35.1613C22.9977 35.1613 23.4792 34.9854 23.8597 34.6647C24.2401 34.3439 24.4949 33.899 24.5791 33.4086C24.6632 32.9182 24.5713 32.4138 24.3195 31.9846C24.0677 31.5554 23.6723 31.229 23.2032 31.0632V19.6866H24.6094V26.7179C24.6111 27.2768 24.8339 27.8124 25.2291 28.2076C25.6243 28.6028 26.1599 28.8256 26.7188 28.8272H27.5485C27.7144 29.2964 28.0407 29.6918 28.4699 29.9435C28.8991 30.1953 29.4035 30.2873 29.8939 30.2031C30.3844 30.119 30.8293 29.8642 31.15 29.4837C31.4707 29.1033 31.6466 28.6217 31.6466 28.1241C31.6466 27.6265 31.4707 27.145 31.15 26.7645C30.8293 26.3841 30.3844 26.1293 29.8939 26.0451C29.4035 25.961 28.8991 26.0529 28.4699 26.3047C28.0407 26.5565 27.7144 26.9519 27.5485 27.421H26.7188C26.5323 27.421 26.3535 27.3469 26.2216 27.2151C26.0898 27.0832 26.0157 26.9043 26.0157 26.7179V19.6866H27.4219V21.796C27.4236 22.3549 27.6464 22.8905 28.0416 23.2857C28.4368 23.6809 28.9724 23.9037 29.5313 23.9054H30.361C30.49 24.2702 30.7169 24.5925 31.0168 24.8371C31.3167 25.0816 31.6781 25.2389 32.0614 25.2918C32.4447 25.3447 32.8352 25.2911 33.1902 25.137C33.5451 24.9828 33.8508 24.7339 34.0737 24.4177C34.2967 24.1014 34.4284 23.7299 34.4544 23.3438C34.4803 22.9577 34.3996 22.5719 34.221 22.2286C34.0424 21.8853 33.7728 21.5978 33.4417 21.3975C33.1106 21.1972 32.7308 21.0918 32.3438 21.0929ZM11.9532 23.9054C11.8141 23.9054 11.6782 23.8641 11.5626 23.7869C11.4469 23.7096 11.3568 23.5998 11.3036 23.4713C11.2504 23.3428 11.2364 23.2015 11.2636 23.0651C11.2907 22.9287 11.3577 22.8034 11.456 22.7051C11.5543 22.6067 11.6796 22.5398 11.816 22.5126C11.9524 22.4855 12.0938 22.4994 12.2223 22.5526C12.3507 22.6059 12.4606 22.696 12.5378 22.8116C12.6151 22.9272 12.6563 23.0632 12.6563 23.2022C12.6563 23.3887 12.5822 23.5676 12.4504 23.6994C12.3185 23.8313 12.1397 23.9054 11.9532 23.9054ZM15.4688 28.8272C15.3298 28.8272 15.1938 28.786 15.0782 28.7087C14.9626 28.6315 14.8724 28.5217 14.8192 28.3932C14.766 28.2647 14.7521 28.1233 14.7792 27.9869C14.8063 27.8506 14.8733 27.7253 14.9716 27.6269C15.07 27.5286 15.1952 27.4616 15.3316 27.4345C15.468 27.4074 15.6094 27.4213 15.7379 27.4745C15.8664 27.5277 15.9762 27.6179 16.0534 27.7335C16.1307 27.8491 16.1719 27.9851 16.1719 28.1241C16.1719 28.3106 16.0979 28.4894 15.966 28.6213C15.8341 28.7532 15.6553 28.8272 15.4688 28.8272ZM29.5313 27.421C29.6704 27.421 29.8063 27.4622 29.9219 27.5395C30.0376 27.6168 30.1277 27.7266 30.1809 27.855C30.2341 27.9835 30.2481 28.1249 30.2209 28.2613C30.1938 28.3977 30.1268 28.523 30.0285 28.6213C29.9302 28.7196 29.8049 28.7866 29.6685 28.8137C29.5321 28.8409 29.3907 28.8269 29.2622 28.7737C29.1338 28.7205 29.0239 28.6304 28.9467 28.5148C28.8694 28.3991 28.8282 28.2632 28.8282 28.1241C28.8282 27.9376 28.9023 27.7588 29.0341 27.6269C29.166 27.4951 29.3448 27.421 29.5313 27.421ZM22.5001 33.7491C22.361 33.7491 22.2251 33.7079 22.1094 33.6306C21.9938 33.5534 21.9037 33.4435 21.8505 33.3151C21.7972 33.1866 21.7833 33.0452 21.8105 32.9088C21.8376 32.7724 21.9045 32.6471 22.0029 32.5488C22.1012 32.4505 22.2265 32.3835 22.3629 32.3564C22.4993 32.3292 22.6407 32.3432 22.7691 32.3964C22.8976 32.4496 23.0074 32.5397 23.0847 32.6554C23.162 32.771 23.2032 32.9069 23.2032 33.046C23.2032 33.2325 23.1291 33.4113 22.9973 33.5432C22.8654 33.675 22.6865 33.7491 22.5001 33.7491ZM15.4688 18.2804C14.7229 18.2804 14.0075 17.9841 13.4801 17.4566C12.9526 16.9292 12.6563 16.2138 12.6563 15.4679C12.6563 14.7219 12.9526 14.0066 13.4801 13.4791C14.0075 12.9517 14.7229 12.6554 15.4688 12.6554C15.8589 12.6532 16.2449 12.7347 16.6008 12.8944C16.7125 12.9407 16.834 12.9585 16.9542 12.9462C17.0745 12.934 17.1899 12.892 17.2899 12.8241C17.3876 12.7529 17.4659 12.6583 17.5175 12.5489C17.5691 12.4396 17.5924 12.319 17.5852 12.1983C17.5782 12.114 17.5782 12.0366 17.5782 11.9522C17.5782 10.6469 18.0967 9.39498 19.0198 8.47195C19.9428 7.54892 21.1947 7.03037 22.5001 7.03037C23.8054 7.03037 25.0573 7.54892 25.9804 8.47195C26.9034 9.39498 27.4219 10.6469 27.4219 11.9522C27.4219 12.0366 27.4219 12.114 27.4149 12.1983C27.4077 12.319 27.431 12.4396 27.4826 12.5489C27.5342 12.6583 27.6125 12.7529 27.7102 12.8241C27.8096 12.8936 27.925 12.9365 28.0456 12.9488C28.1662 12.9611 28.2879 12.9424 28.3993 12.8944C28.7552 12.7347 29.1412 12.6532 29.5313 12.6554C30.2772 12.6554 30.9926 12.9517 31.5201 13.4791C32.0475 14.0066 32.3438 14.7219 32.3438 15.4679C32.3438 16.2138 32.0475 16.9292 31.5201 17.4566C30.9926 17.9841 30.2772 18.2804 29.5313 18.2804H15.4688ZM32.3438 23.9054C32.2048 23.9054 32.0688 23.8641 31.9532 23.7869C31.8376 23.7096 31.7474 23.5998 31.6942 23.4713C31.641 23.3428 31.6271 23.2015 31.6542 23.0651C31.6813 22.9287 31.7483 22.8034 31.8466 22.7051C31.945 22.6067 32.0702 22.5398 32.2066 22.5126C32.343 22.4855 32.4844 22.4994 32.6129 22.5526C32.7414 22.6059 32.8512 22.696 32.9284 22.8116C33.0057 22.9272 33.0469 23.0632 33.0469 23.2022C33.0469 23.3887 32.9729 23.5676 32.841 23.6994C32.7091 23.8313 32.5303 23.9054 32.3438 23.9054Z" fill="#2E2E2E"/>
</svg>
