<svg width="45" height="45" viewBox="0 0 45 45" fill="none" xmlns="http://www.w3.org/2000/svg">
<path d="M25.8495 23.2754C25.5581 23.9195 25.0871 24.466 24.4931 24.8493C23.899 25.2326 23.207 25.4364 22.5 25.4364C21.793 25.4364 21.101 25.2326 20.5069 24.8493C19.9129 24.466 19.4419 23.9195 19.1505 23.2754C18.4512 23.3724 17.8104 23.7189 17.3464 24.251C16.8823 24.7831 16.6261 25.465 16.625 26.171V29.1085H28.375V26.171C28.3739 25.465 28.1177 24.7831 27.6536 24.251C27.1896 23.7189 26.5488 23.3724 25.8495 23.2754Z" fill="#F4AC04"/>
<path d="M19.5625 18.0938H25.4375C25.6323 18.0938 25.8191 18.0164 25.9568 17.8787C26.0945 17.7409 26.1719 17.5541 26.1719 17.3594V15.8906C26.1719 15.5011 26.0171 15.1275 25.7417 14.8521C25.4662 14.5766 25.0927 14.4219 24.7031 14.4219H17.3594V15.8906C17.3594 16.4749 17.5915 17.0353 18.0047 17.4485C18.4178 17.8616 18.9782 18.0938 19.5625 18.0938Z" fill="#F4AC04"/>
<path d="M22.5 5.60938C23.7168 5.60938 24.7031 4.623 24.7031 3.40625C24.7031 2.1895 23.7168 1.20312 22.5 1.20312C21.2832 1.20312 20.2969 2.1895 20.2969 3.40625C20.2969 4.623 21.2832 5.60938 22.5 5.60938Z" fill="#F4AC04"/>
<path d="M10.5567 7.44007C10.2486 7.132 9.85605 6.92221 9.42869 6.83723C9.00134 6.75225 8.55838 6.7959 8.15584 6.96266C7.75329 7.12942 7.40923 7.4118 7.16717 7.7741C6.9251 8.13639 6.7959 8.56233 6.7959 8.99805C6.7959 9.43377 6.9251 9.85971 7.16717 10.222C7.40923 10.5843 7.75329 10.8667 8.15584 11.0334C8.55838 11.2002 9.00134 11.2438 9.42869 11.1589C9.85605 11.0739 10.2486 10.8641 10.5567 10.556C10.7614 10.3514 10.9237 10.1086 11.0344 9.84123C11.1452 9.57391 11.2021 9.2874 11.2021 8.99805C11.2021 8.7087 11.1452 8.42218 11.0344 8.15486C10.9237 7.88754 10.7614 7.64466 10.5567 7.44007Z" fill="#F4AC04"/>
<path d="M3.40625 24.7031C4.623 24.7031 5.60938 23.7168 5.60938 22.5C5.60938 21.2832 4.623 20.2969 3.40625 20.2969C2.1895 20.2969 1.20312 21.2832 1.20312 22.5C1.20312 23.7168 2.1895 24.7031 3.40625 24.7031Z" fill="#F4AC04"/>
<path d="M7.44105 34.4423C7.13297 34.7504 6.92318 35.143 6.8382 35.5703C6.75323 35.9977 6.79688 36.4406 6.96364 36.8432C7.1304 37.2457 7.41278 37.5898 7.77507 37.8319C8.13737 38.0739 8.5633 38.2031 8.99902 38.2031C9.43475 38.2031 9.86068 38.0739 10.223 37.8319C10.5853 37.5898 10.8677 37.2457 11.0344 36.8432C11.2012 36.4406 11.2448 35.9977 11.1598 35.5703C11.0749 35.143 10.8651 34.7504 10.557 34.4423C10.3524 34.2377 10.1095 34.0754 9.84221 33.9646C9.57489 33.8539 9.28837 33.7969 8.99902 33.7969C8.70967 33.7969 8.42316 33.8539 8.15584 33.9646C7.88852 34.0754 7.64563 34.2377 7.44105 34.4423Z" fill="#F4AC04"/>
<path d="M22.5 43.7969C23.7168 43.7969 24.7031 42.8105 24.7031 41.5938C24.7031 40.377 23.7168 39.3906 22.5 39.3906C21.2832 39.3906 20.2969 40.377 20.2969 41.5938C20.2969 42.8105 21.2832 43.7969 22.5 43.7969Z" fill="#F4AC04"/>
<path d="M34.4433 37.5599C34.7514 37.868 35.144 38.0778 35.5713 38.1628C35.9987 38.2478 36.4416 38.2041 36.8442 38.0373C37.2467 37.8706 37.5908 37.5882 37.8328 37.2259C38.0749 36.8636 38.2041 36.4377 38.2041 36.002C38.2041 35.5662 38.0749 35.1403 37.8328 34.778C37.5908 34.4157 37.2467 34.1333 36.8442 33.9666C36.4416 33.7998 35.9987 33.7562 35.5713 33.8411C35.144 33.9261 34.7514 34.1359 34.4433 34.444C34.2386 34.6486 34.0763 34.8914 33.9656 35.1588C33.8548 35.4261 33.7979 35.7126 33.7979 36.002C33.7979 36.2913 33.8548 36.5778 33.9656 36.8451C34.0763 37.1125 34.2386 37.3553 34.4433 37.5599Z" fill="#F4AC04"/>
<path d="M41.5938 24.7031C42.8105 24.7031 43.7969 23.7168 43.7969 22.5C43.7969 21.2832 42.8105 20.2969 41.5938 20.2969C40.377 20.2969 39.3906 21.2832 39.3906 22.5C39.3906 23.7168 40.377 24.7031 41.5938 24.7031Z" fill="#F4AC04"/>
<path d="M37.559 10.5577C37.867 10.2496 38.0768 9.85702 38.1618 9.42967C38.2468 9.00232 38.2031 8.55936 38.0364 8.15681C37.8696 7.75427 37.5872 7.41021 37.2249 7.16814C36.8626 6.92608 36.4367 6.79688 36.001 6.79688C35.5653 6.79688 35.1393 6.92608 34.777 7.16814C34.4147 7.41021 34.1324 7.75427 33.9656 8.15681C33.7988 8.55936 33.7552 9.00232 33.8402 9.42967C33.9251 9.85702 34.1349 10.2496 34.443 10.5577C34.6476 10.7623 34.8905 10.9246 35.1578 11.0354C35.4251 11.1461 35.7116 11.2031 36.001 11.2031C36.2903 11.2031 36.5768 11.1461 36.8442 11.0354C37.1115 10.9246 37.3544 10.7623 37.559 10.5577Z" fill="#F4AC04"/>
<path d="M41.5935 19.5623C40.9439 19.5644 40.3133 19.7818 39.8004 20.1804C39.2875 20.579 38.9212 21.1364 38.7588 21.7654H34.9474C34.7839 18.9708 33.6816 16.3132 31.819 14.2234L34.5141 11.5209C35.1377 11.892 35.8754 12.0227 36.5885 11.8882C37.3017 11.7538 37.9411 11.3635 38.3867 10.7907C38.8323 10.2179 39.0534 9.50209 39.0083 8.77779C38.9633 8.0535 38.6552 7.3706 38.1421 6.85745C37.6289 6.34431 36.946 6.03626 36.2217 5.9912C35.4974 5.94615 34.7816 6.1672 34.2089 6.6128C33.6361 7.0584 33.2458 7.69786 33.1113 8.41099C32.9769 9.12412 33.1075 9.86181 33.4787 10.4854L30.7762 13.1805C28.6863 11.318 26.0288 10.2156 23.2341 10.0521V6.24071C23.9264 6.06196 24.5297 5.63688 24.931 5.04514C25.3323 4.45339 25.5039 3.73562 25.4139 3.02635C25.3238 2.31708 24.9781 1.66501 24.4416 1.19238C23.9052 0.719741 23.2147 0.458984 22.4998 0.458984C21.7848 0.458984 21.0944 0.719741 20.5579 1.19238C20.0214 1.66501 19.6758 2.31708 19.5857 3.02635C19.4956 3.73562 19.6673 4.45339 20.0685 5.04514C20.4698 5.63688 21.0731 6.06196 21.7654 6.24071V10.0521C18.9708 10.2156 16.3132 11.318 14.2234 13.1805L11.5209 10.4854C11.892 9.86181 12.0227 9.12412 11.8882 8.41099C11.7538 7.69786 11.3635 7.0584 10.7907 6.6128C10.2179 6.1672 9.50209 5.94615 8.77779 5.9912C8.0535 6.03626 7.3706 6.34431 6.85745 6.85745C6.34431 7.3706 6.03626 8.0535 5.9912 8.77779C5.94615 9.50209 6.1672 10.2179 6.6128 10.7907C7.0584 11.3635 7.69786 11.7538 8.41099 11.8882C9.12412 12.0227 9.86181 11.892 10.4854 11.5209L13.1805 14.2234C11.318 16.3132 10.2156 18.9708 10.0521 21.7654H6.24071C6.06196 21.0731 5.63688 20.4698 5.04514 20.0685C4.45339 19.6673 3.73562 19.4956 3.02635 19.5857C2.31708 19.6758 1.66501 20.0214 1.19238 20.5579C0.719741 21.0944 0.458984 21.7848 0.458984 22.4998C0.458984 23.2147 0.719741 23.9052 1.19238 24.4416C1.66501 24.9781 2.31708 25.3238 3.02635 25.4139C3.73562 25.5039 4.45339 25.3323 5.04514 24.931C5.63688 24.5297 6.06196 23.9264 6.24071 23.2341H10.0521C10.2156 26.0288 11.318 28.6863 13.1805 30.7762L10.4854 33.4787C9.86181 33.1075 9.12412 32.9769 8.41099 33.1113C7.69786 33.2458 7.0584 33.6361 6.6128 34.2089C6.1672 34.7816 5.94615 35.4974 5.9912 36.2217C6.03626 36.946 6.34431 37.6289 6.85745 38.1421C7.3706 38.6552 8.0535 38.9633 8.77779 39.0083C9.50209 39.0534 10.2179 38.8323 10.7907 38.3867C11.3635 37.9411 11.7538 37.3017 11.8882 36.5885C12.0227 35.8754 11.892 35.1377 11.5209 34.5141L14.2234 31.819C16.3132 33.6816 18.9708 34.7839 21.7654 34.9474V38.7588C21.0731 38.9376 20.4698 39.3627 20.0685 39.9544C19.6673 40.5461 19.4956 41.2639 19.5857 41.9732C19.6758 42.6825 20.0214 43.3345 20.5579 43.8072C21.0944 44.2798 21.7848 44.5406 22.4998 44.5406C23.2147 44.5406 23.9052 44.2798 24.4416 43.8072C24.9781 43.3345 25.3238 42.6825 25.4139 41.9732C25.5039 41.2639 25.3323 40.5461 24.931 39.9544C24.5297 39.3627 23.9264 38.9376 23.2341 38.7588V34.9474C26.0288 34.7839 28.6863 33.6816 30.7762 31.819L33.4787 34.5141C33.1075 35.1377 32.9769 35.8754 33.1113 36.5885C33.2458 37.3017 33.6361 37.9411 34.2089 38.3867C34.7816 38.8323 35.4974 39.0534 36.2217 39.0083C36.946 38.9633 37.6289 38.6552 38.1421 38.1421C38.6552 37.6289 38.9633 36.946 39.0083 36.2217C39.0534 35.4974 38.8323 34.7816 38.3867 34.2089C37.9411 33.6361 37.3017 33.2458 36.5885 33.1113C35.8754 32.9769 35.1377 33.1075 34.5141 33.4787L31.819 30.7762C33.6816 28.6863 34.7839 26.0288 34.9474 23.2341H38.7588C38.897 23.765 39.1812 24.2464 39.5793 24.6238C39.9773 25.0012 40.4732 25.2594 41.0106 25.3692C41.548 25.4789 42.1054 25.4357 42.6196 25.2446C43.1337 25.0534 43.5839 24.7219 43.9191 24.2877C44.2543 23.8536 44.461 23.3341 44.5158 22.7883C44.5706 22.2426 44.4712 21.6924 44.229 21.2002C43.9868 20.7081 43.6115 20.2937 43.1456 20.0042C42.6797 19.7147 42.142 19.5616 41.5935 19.5623ZM34.9621 7.95914C35.0986 7.82268 35.2606 7.71443 35.4389 7.64058C35.6172 7.56673 35.8083 7.52872 36.0013 7.52872C36.1942 7.52872 36.3853 7.56673 36.5636 7.64058C36.7419 7.71443 36.9039 7.82268 37.0404 7.95914C37.1769 8.09561 37.2851 8.25761 37.359 8.43591C37.4328 8.6142 37.4708 8.8053 37.4708 8.99828C37.4708 9.19127 37.4328 9.38237 37.359 9.56066C37.2851 9.73896 37.1769 9.90096 37.0404 10.0374C36.7612 10.3061 36.3887 10.4561 36.0013 10.4561C35.6138 10.4561 35.2414 10.3061 34.9621 10.0374C34.8249 9.90141 34.7159 9.73956 34.6415 9.5612C34.5672 9.38284 34.5289 9.19152 34.5289 8.99828C34.5289 8.80505 34.5672 8.61373 34.6415 8.43537C34.7159 8.25701 34.8249 8.09515 34.9621 7.95914ZM10.0374 10.0374C9.75818 10.3061 9.38576 10.4561 8.99828 10.4561C8.61081 10.4561 8.23838 10.3061 7.95914 10.0374C7.75265 9.83173 7.61185 9.56938 7.55457 9.2836C7.4973 8.99783 7.52612 8.70148 7.6374 8.4321C7.74867 8.16272 7.9374 7.93242 8.17966 7.77037C8.42192 7.60833 8.70682 7.52183 8.99828 7.52183C9.28975 7.52183 9.57465 7.60833 9.81691 7.77037C10.0592 7.93242 10.2479 8.16272 10.3592 8.4321C10.4704 8.70148 10.4993 8.99783 10.442 9.2836C10.3847 9.56938 10.2439 9.83173 10.0374 10.0374ZM3.40602 23.9685C3.11553 23.9685 2.83156 23.8824 2.59003 23.721C2.34849 23.5596 2.16024 23.3302 2.04907 23.0618C1.9379 22.7935 1.90882 22.4981 1.96549 22.2132C2.02216 21.9283 2.16205 21.6666 2.36746 21.4612C2.57286 21.2558 2.83457 21.1159 3.11948 21.0592C3.40439 21.0026 3.69971 21.0317 3.96809 21.1428C4.23646 21.254 4.46585 21.4422 4.62724 21.6838C4.78863 21.9253 4.87477 22.2093 4.87477 22.4998C4.87361 22.8889 4.71849 23.2619 4.4433 23.537C4.16811 23.8122 3.7952 23.9674 3.40602 23.9685ZM10.0374 37.0404C9.75648 37.3057 9.3847 37.4535 8.99828 37.4535C8.61187 37.4535 8.24009 37.3057 7.95914 37.0404C7.75265 36.8347 7.61185 36.5724 7.55457 36.2866C7.4973 36.0008 7.52612 35.7044 7.6374 35.4351C7.74867 35.1657 7.9374 34.9354 8.17966 34.7733C8.42192 34.6113 8.70682 34.5248 8.99828 34.5248C9.28975 34.5248 9.57465 34.6113 9.81691 34.7733C10.0592 34.9354 10.2479 35.1657 10.3592 35.4351C10.4704 35.7044 10.4993 36.0008 10.442 36.2866C10.3847 36.5724 10.2439 36.8347 10.0374 37.0404ZM34.9621 34.9621C35.2377 34.6865 35.6115 34.5317 36.0013 34.5317C36.391 34.5317 36.7648 34.6865 37.0404 34.9621C37.316 35.2377 37.4708 35.6115 37.4708 36.0013C37.4708 36.391 37.316 36.7648 37.0404 37.0404C36.7594 37.3057 36.3877 37.4535 36.0013 37.4535C35.6148 37.4535 35.2431 37.3057 34.9621 37.0404C34.8249 36.9044 34.7159 36.7425 34.6415 36.5642C34.5672 36.3858 34.5289 36.1945 34.5289 36.0013C34.5289 35.808 34.5672 35.6167 34.6415 35.4383C34.7159 35.26 34.8249 35.0981 34.9621 34.9621ZM21.031 3.40602C21.031 3.11553 21.1172 2.83156 21.2785 2.59003C21.4399 2.34849 21.6693 2.16024 21.9377 2.04907C22.2061 1.9379 22.5014 1.90882 22.7863 1.96549C23.0712 2.02216 23.3329 2.16205 23.5383 2.36746C23.7437 2.57286 23.8836 2.83457 23.9403 3.11948C23.997 3.40439 23.9679 3.69971 23.8567 3.96809C23.7456 4.23646 23.5573 4.46585 23.3158 4.62724C23.0742 4.78863 22.7903 4.87477 22.4998 4.87477C22.1106 4.87361 21.7377 4.71849 21.4625 4.4433C21.1873 4.16811 21.0322 3.7952 21.031 3.40602ZM23.9685 41.5935C23.9685 41.884 23.8824 42.168 23.721 42.4095C23.5596 42.651 23.3302 42.8393 23.0618 42.9505C22.7935 43.0616 22.4981 43.0907 22.2132 43.034C21.9283 42.9774 21.6666 42.8375 21.4612 42.6321C21.2558 42.4267 21.1159 42.165 21.0592 41.8801C21.0026 41.5951 21.0317 41.2998 21.1428 41.0315C21.254 40.7631 21.4422 40.5337 21.6838 40.3723C21.9253 40.2109 22.2093 40.1248 22.4998 40.1248C22.8889 40.1259 23.2619 40.281 23.537 40.5562C23.8122 40.8314 23.9674 41.2043 23.9685 41.5935ZM22.4998 33.5154C20.3211 33.5154 18.1913 32.8693 16.3798 31.6589C14.5683 30.4485 13.1564 28.7281 12.3227 26.7153C11.4889 24.7024 11.2708 22.4875 11.6958 20.3507C12.1208 18.2139 13.17 16.2511 14.7105 14.7105C16.2511 13.17 18.2139 12.1208 20.3507 11.6958C22.4875 11.2708 24.7024 11.4889 26.7153 12.3227C28.7281 13.1564 30.4485 14.5683 31.6589 16.3798C32.8693 18.1913 33.5154 20.3211 33.5154 22.4998C33.5119 25.4202 32.3502 28.2201 30.2851 30.2851C28.2201 32.3502 25.4202 33.5119 22.4998 33.5154ZM41.5935 23.9685C41.303 23.9685 41.0191 23.8824 40.7775 23.721C40.536 23.5596 40.3477 23.3302 40.2366 23.0618C40.1254 22.7935 40.0963 22.4981 40.153 22.2132C40.2097 21.9283 40.3495 21.6666 40.555 21.4612C40.7604 21.2558 41.0221 21.1159 41.307 21.0592C41.5919 21.0026 41.8872 21.0317 42.1556 21.1428C42.424 21.254 42.6534 21.4422 42.8147 21.6838C42.9761 21.9253 43.0623 22.2093 43.0623 22.4998C43.0611 22.8889 42.906 23.2619 42.6308 23.537C42.3556 23.8122 41.9827 23.9674 41.5935 23.9685Z" fill="#2E2E2E"/>
<path d="M25.4375 22.5H24.7031V21.7436C25.1582 21.4057 25.528 20.9661 25.783 20.4599C26.038 19.9537 26.1712 19.3949 26.1719 18.8281V18.6225C26.3939 18.4943 26.5784 18.3103 26.7073 18.0887C26.8361 17.8671 26.9047 17.6157 26.9062 17.3594V15.8906C26.9045 15.3069 26.6718 14.7475 26.259 14.3347C25.8463 13.9219 25.2869 13.6892 24.7031 13.6875H17.3594C17.1646 13.6875 16.9778 13.7649 16.8401 13.9026C16.7024 14.0403 16.625 14.2271 16.625 14.4219V15.8906C16.6271 16.5402 16.8445 17.1708 17.2431 17.6837C17.6417 18.1966 18.1992 18.5629 18.8281 18.7253V18.8281C18.8288 19.3949 18.962 19.9537 19.217 20.4599C19.472 20.9661 19.8418 21.4057 20.2969 21.7436V22.5H19.5625C18.5887 22.5 17.6547 22.8869 16.9661 23.5755C16.2775 24.2641 15.8906 25.198 15.8906 26.1719V29.1094C15.8906 29.3041 15.968 29.4909 16.1057 29.6287C16.2434 29.7664 16.4302 29.8438 16.625 29.8438H28.375C28.5698 29.8438 28.7566 29.7664 28.8943 29.6287C29.032 29.4909 29.1094 29.3041 29.1094 29.1094V26.1719C29.1094 25.6897 29.0144 25.2122 28.8299 24.7667C28.6453 24.3212 28.3749 23.9164 28.0339 23.5755C27.6929 23.2345 27.2882 22.964 26.8427 22.7795C26.3972 22.595 25.9197 22.5 25.4375 22.5ZM22.5 21.0312C21.9162 21.0295 21.3569 20.7968 20.9441 20.384C20.5313 19.9713 20.2986 19.4119 20.2969 18.8281H24.7031C24.7014 19.4119 24.4687 19.9713 24.0559 20.384C23.6431 20.7968 23.0838 21.0295 22.5 21.0312ZM24.4608 23.9467C23.9237 24.4335 23.2248 24.703 22.5 24.703C21.7752 24.703 21.0763 24.4335 20.5392 23.9467C20.8811 23.8883 21.1916 23.7113 21.4159 23.4467C21.6402 23.1821 21.764 22.8469 21.7656 22.5V22.4266C22.2503 22.5245 22.7497 22.5245 23.2344 22.4266V22.5C23.236 22.8469 23.3598 23.1821 23.5841 23.4467C23.8084 23.7113 24.1188 23.8883 24.4608 23.9467ZM19.5625 17.3594C19.1733 17.3582 18.8004 17.2031 18.5252 16.9279C18.25 16.6527 18.0949 16.2798 18.0938 15.8906V15.1562H24.7031C24.8979 15.1562 25.0847 15.2336 25.2224 15.3713C25.3601 15.5091 25.4375 15.6959 25.4375 15.8906V17.3594H19.5625ZM27.6406 28.375H26.1719V26.9062C26.1719 26.7115 26.0945 26.5247 25.9568 26.387C25.8191 26.2492 25.6323 26.1719 25.4375 26.1719C25.2427 26.1719 25.0559 26.2492 24.9182 26.387C24.7805 26.5247 24.7031 26.7115 24.7031 26.9062V28.375H20.2969V26.9062C20.2969 26.7115 20.2195 26.5247 20.0818 26.387C19.9441 26.2492 19.7573 26.1719 19.5625 26.1719C19.3677 26.1719 19.1809 26.2492 19.0432 26.387C18.9055 26.5247 18.8281 26.7115 18.8281 26.9062V28.375H17.3594V26.1719C17.3592 25.7267 17.4948 25.2921 17.748 24.9261C18.0013 24.56 18.3601 24.2798 18.7767 24.123C19.1741 24.7509 19.7239 25.2681 20.3748 25.6265C21.0258 25.985 21.7569 26.1729 22.5 26.1729C23.2431 26.1729 23.9742 25.985 24.6252 25.6265C25.2761 25.2681 25.8259 24.7509 26.2233 24.123C26.6399 24.2798 26.9987 24.56 27.252 24.9261C27.5052 25.2921 27.6408 25.7267 27.6406 26.1719V28.375Z" fill="#2E2E2E"/>
</svg>
