<svg width="45" height="45" viewBox="0 0 45 45" fill="none" xmlns="http://www.w3.org/2000/svg">
<path d="M18.0359 37.2656C17.8261 36.6736 17.4867 36.1359 17.0426 35.6918C16.5985 35.2477 16.0608 34.9083 15.4688 34.6985C14.5598 34.3713 13.5652 34.3713 12.6563 34.6985C11.9834 34.9352 11.3816 35.3386 10.907 35.871C10.4324 36.4034 10.1005 37.0474 9.94241 37.7429C9.78427 38.4383 9.80504 39.1625 10.0028 39.8478C10.2005 40.5331 10.5687 41.157 11.073 41.6613C11.5774 42.1657 12.2013 42.5339 12.8866 42.7316C13.5719 42.9294 14.2961 42.9501 14.9915 42.792C15.687 42.6338 16.331 42.302 16.8634 41.8274C17.3958 41.3528 17.7992 40.7509 18.0359 40.0781C18.3631 39.1692 18.3631 38.1746 18.0359 37.2656ZM14.0625 40.0781C13.7844 40.0781 13.5125 39.9957 13.2812 39.8411C13.05 39.6866 12.8697 39.467 12.7633 39.21C12.6569 38.9531 12.629 38.6703 12.6833 38.3975C12.7375 38.1247 12.8715 37.8742 13.0681 37.6775C13.2648 37.4808 13.5154 37.3469 13.7882 37.2927C14.061 37.2384 14.3437 37.2662 14.6007 37.3727C14.8576 37.4791 15.0772 37.6594 15.2318 37.8906C15.3863 38.1219 15.4688 38.3938 15.4688 38.6719C15.4688 39.0448 15.3206 39.4025 15.0569 39.6663C14.7932 39.93 14.4355 40.0781 14.0625 40.0781Z" fill="#F4AC04"/>
<path d="M35.1562 20.3906H30.2344V26.0156L28.125 24.6094L26.0156 26.0156V20.3906H18.2812V37.2656H37.9688V20.3906H35.1562ZM26.0156 28.8281C26.1547 28.8281 26.2906 28.8694 26.4063 28.9466C26.5219 29.0239 26.612 29.1337 26.6652 29.2622C26.7184 29.3907 26.7324 29.532 26.7052 29.6684C26.6781 29.8048 26.6111 29.9301 26.5128 30.0284C26.4145 30.1268 26.2892 30.1937 26.1528 30.2209C26.0164 30.248 25.875 30.2341 25.7466 30.1809C25.6181 30.1276 25.5083 30.0375 25.431 29.9219C25.3537 29.8063 25.3125 29.6703 25.3125 29.5312C25.3125 29.3448 25.3866 29.1659 25.5184 29.0341C25.6503 28.9022 25.8291 28.8281 26.0156 28.8281ZM30.2344 34.4531C30.0953 34.4531 29.9594 34.4119 29.8437 34.3346C29.7281 34.2574 29.638 34.1476 29.5848 34.0191C29.5316 33.8906 29.5176 33.7492 29.5448 33.6128C29.5719 33.4764 29.6389 33.3511 29.7372 33.2528C29.8355 33.1545 29.9608 33.0875 30.0972 33.0604C30.2336 33.0333 30.375 33.0472 30.5034 33.1004C30.6319 33.1536 30.7417 33.2437 30.819 33.3594C30.8963 33.475 30.9375 33.6109 30.9375 33.75C30.9375 33.9365 30.8634 34.1153 30.7316 34.2472C30.5997 34.379 30.4209 34.4531 30.2344 34.4531Z" fill="#F4AC04"/>
<path d="M30.2344 20.3906H35.1562V9.14062H32.3438H29.5312V13.3594L28.125 12.6562L26.7188 13.3594V9.14062H23.9062H21.0938V20.3906H26.0156H30.2344Z" fill="#F4AC04"/>
<path d="M29.5312 9.14062H32.3438V2.10938H29.5312V4.92188L28.125 4.21875L26.7188 4.92188V2.10938H23.9062V9.14062H26.7188H29.5312Z" fill="#F4AC04"/>
<path d="M26.0156 30.2344C26.404 30.2344 26.7188 29.9196 26.7188 29.5312C26.7188 29.1429 26.404 28.8281 26.0156 28.8281C25.6273 28.8281 25.3125 29.1429 25.3125 29.5312C25.3125 29.9196 25.6273 30.2344 26.0156 30.2344Z" fill="#F4AC04"/>
<path d="M30.2344 34.4531C30.6227 34.4531 30.9375 34.1383 30.9375 33.75C30.9375 33.3617 30.6227 33.0469 30.2344 33.0469C29.846 33.0469 29.5312 33.3617 29.5312 33.75C29.5312 34.1383 29.846 34.4531 30.2344 34.4531Z" fill="#F4AC04"/>
<path d="M39.375 36.5625H38.6719V20.3906C38.6719 20.2041 38.5978 20.0253 38.4659 19.8934C38.3341 19.7616 38.1552 19.6875 37.9688 19.6875H35.8594V9.14062C35.8594 8.95414 35.7853 8.7753 35.6534 8.64344C35.5216 8.51158 35.3427 8.4375 35.1562 8.4375H33.0469V2.10937C33.0469 1.92289 32.9728 1.74405 32.8409 1.61219C32.7091 1.48033 32.5302 1.40625 32.3438 1.40625H23.9062C23.7198 1.40625 23.5409 1.48033 23.4091 1.61219C23.2772 1.74405 23.2031 1.92289 23.2031 2.10937V8.4375H21.0938C20.9073 8.4375 20.7284 8.51158 20.5966 8.64344C20.4647 8.7753 20.3906 8.95414 20.3906 9.14062V19.6875H18.2812C18.0948 19.6875 17.9159 19.7616 17.7841 19.8934C17.6522 20.0253 17.5781 20.2041 17.5781 20.3906V35.2336C17.1744 34.8176 16.6977 34.4792 16.1719 34.2352V4.92187C16.1719 4.4602 16.0809 4.00304 15.9043 3.5765C15.7276 3.14997 15.4686 2.76241 15.1422 2.43595C14.8157 2.1095 14.4282 1.85054 14.0016 1.67386C13.5751 1.49718 13.1179 1.40625 12.6562 1.40625H5.625C5.06556 1.40625 4.52903 1.62849 4.13345 2.02407C3.73786 2.41966 3.51562 2.95618 3.51562 3.51562C3.51729 4.07455 3.74007 4.61011 4.13529 5.00533C4.53051 5.40056 5.06607 5.62333 5.625 5.625H11.9531V34.2352C11.2411 34.5722 10.6205 35.0755 10.1436 35.7026C9.66673 36.3297 9.34758 37.0623 9.21303 37.8385C9.07848 38.6147 9.13248 39.4119 9.37047 40.163C9.60846 40.914 10.0235 41.5968 10.5805 42.1538C11.1376 42.7109 11.8204 43.1259 12.5714 43.3639C13.3224 43.6019 14.1196 43.6559 14.8959 43.5213C15.6721 43.3868 16.4046 43.0676 17.0317 42.5908C17.6588 42.1139 18.1621 41.4933 18.4992 40.7812H39.375C39.9344 40.7812 40.471 40.559 40.8666 40.1634C41.2621 39.7678 41.4844 39.2313 41.4844 38.6719C41.4844 38.1124 41.2621 37.5759 40.8666 37.1803C40.471 36.7847 39.9344 36.5625 39.375 36.5625ZM5.625 4.21875C5.43852 4.21875 5.25968 4.14467 5.12782 4.01281C4.99595 3.88095 4.92188 3.70211 4.92188 3.51562C4.92105 3.42176 4.94004 3.32878 4.9776 3.24276C5.01516 3.15674 5.07044 3.07961 5.13984 3.01641C5.20212 2.9506 5.27742 2.89848 5.36095 2.86337C5.44448 2.82827 5.53441 2.81094 5.625 2.8125H12.6562C13.2152 2.81417 13.7507 3.03694 14.146 3.43217C14.5412 3.82739 14.764 4.36295 14.7656 4.92187V33.8062C14.2999 33.7312 13.8251 33.7312 13.3594 33.8062V5.625C13.3583 5.25238 13.2097 4.89534 12.9463 4.63186C12.6828 4.36838 12.3257 4.21986 11.9531 4.21875H5.625ZM14.0625 42.1875C13.3672 42.1875 12.6875 41.9813 12.1093 41.595C11.5312 41.2087 11.0806 40.6596 10.8145 40.0172C10.5484 39.3748 10.4788 38.668 10.6144 37.986C10.7501 37.304 11.0849 36.6776 11.5766 36.186C12.0682 35.6943 12.6947 35.3595 13.3766 35.2238C14.0586 35.0881 14.7655 35.1578 15.4079 35.4239C16.0503 35.6899 16.5993 36.1406 16.9856 36.7187C17.3719 37.2968 17.5781 37.9765 17.5781 38.6719C17.5781 39.6043 17.2077 40.4985 16.5484 41.1578C15.8891 41.8171 14.9949 42.1875 14.0625 42.1875ZM27.4219 2.8125H28.8281V3.78281L28.4414 3.59297C28.3437 3.54213 28.2352 3.51558 28.125 3.51558C28.0148 3.51558 27.9063 3.54213 27.8086 3.59297L27.4219 3.78281V2.8125ZM24.6094 2.8125H26.0156V4.92187C26.016 5.04173 26.047 5.15951 26.1057 5.26402C26.1644 5.36852 26.2488 5.4563 26.3509 5.51899C26.4531 5.58169 26.5696 5.61724 26.6893 5.62226C26.8091 5.62727 26.9281 5.60159 27.0352 5.54766L28.125 5.00625L29.2148 5.54766C29.3131 5.59713 29.4213 5.62358 29.5312 5.625C29.6628 5.6249 29.7918 5.5884 29.9039 5.51953C30.0052 5.4562 30.0888 5.36809 30.1466 5.26352C30.2044 5.15895 30.2346 5.04137 30.2344 4.92187V2.8125H31.6406V8.4375H24.6094V2.8125ZM28.8281 9.84375V12.2203L28.4414 12.0305C28.3437 11.9796 28.2352 11.9531 28.125 11.9531C28.0148 11.9531 27.9063 11.9796 27.8086 12.0305L27.4219 12.2203V9.84375H28.8281ZM21.7969 9.84375H26.0156V13.3594C26.016 13.4792 26.047 13.597 26.1057 13.7015C26.1644 13.806 26.2488 13.8938 26.3509 13.9565C26.4531 14.0192 26.5696 14.0547 26.6893 14.0598C26.8091 14.0648 26.9281 14.0391 27.0352 13.9852L28.125 13.4437L29.2148 13.9852C29.3131 14.0346 29.4213 14.0611 29.5312 14.0625C29.6628 14.0624 29.7918 14.0259 29.9039 13.957C30.0052 13.8937 30.0888 13.8056 30.1466 13.701C30.2044 13.5964 30.2346 13.4789 30.2344 13.3594V9.84375H34.4531V19.6875H21.7969V9.84375ZM29.5312 21.0937V24.7008L28.5117 24.0258C28.3978 23.9479 28.263 23.9063 28.125 23.9063C27.987 23.9063 27.8522 23.9479 27.7383 24.0258L26.7188 24.7008V21.0937H29.5312ZM18.9844 21.0937H25.3125V26.0156C25.3116 26.1431 25.3459 26.2683 25.4117 26.3775C25.4774 26.4867 25.5721 26.5756 25.6852 26.6344C25.796 26.6963 25.922 26.7259 26.0488 26.7197C26.1756 26.7135 26.2981 26.6717 26.4023 26.5992L28.125 25.4531L29.8477 26.5992C29.9534 26.6689 30.076 26.7087 30.2025 26.7144C30.329 26.7201 30.4547 26.6916 30.5663 26.6318C30.6779 26.5721 30.7713 26.4833 30.8367 26.3748C30.902 26.2663 30.9368 26.1422 30.9375 26.0156V21.0937H37.2656V36.5625H18.9844V21.0937ZM39.375 39.375H18.9281C19.0031 38.9092 19.0031 38.4345 18.9281 37.9687H39.375C39.5615 37.9687 39.7403 38.0428 39.8722 38.1747C40.004 38.3065 40.0781 38.4854 40.0781 38.6719C40.0781 38.8584 40.004 39.0372 39.8722 39.1691C39.7403 39.3009 39.5615 39.375 39.375 39.375Z" fill="#2E2E2E"/>
<path d="M14.0625 36.5625C13.6453 36.5625 13.2375 36.6862 12.8906 36.918C12.5437 37.1498 12.2733 37.4792 12.1137 37.8647C11.954 38.2501 11.9123 38.6742 11.9937 39.0834C12.075 39.4926 12.2759 39.8684 12.5709 40.1634C12.8659 40.4584 13.2418 40.6593 13.651 40.7407C14.0602 40.8221 14.4843 40.7803 14.8697 40.6207C15.2552 40.461 15.5846 40.1907 15.8164 39.8438C16.0482 39.4969 16.1719 39.0891 16.1719 38.6719C16.1719 38.1124 15.9496 37.5759 15.5541 37.1803C15.1585 36.7847 14.6219 36.5625 14.0625 36.5625ZM14.0625 39.375C13.9234 39.375 13.7875 39.3338 13.6719 39.2565C13.5562 39.1792 13.4661 39.0694 13.4129 38.9409C13.3597 38.8125 13.3458 38.6711 13.3729 38.5347C13.4 38.3983 13.467 38.273 13.5653 38.1747C13.6637 38.0764 13.7889 38.0094 13.9253 37.9823C14.0617 37.9551 14.2031 37.9691 14.3316 38.0223C14.4601 38.0755 14.5699 38.1656 14.6471 38.2812C14.7244 38.3969 14.7656 38.5328 14.7656 38.6719C14.7656 38.8584 14.6915 39.0372 14.5597 39.1691C14.4278 39.3009 14.249 39.375 14.0625 39.375Z" fill="#2E2E2E"/>
<path d="M26.0156 30.9375C26.7923 30.9375 27.4219 30.3079 27.4219 29.5312C27.4219 28.7546 26.7923 28.125 26.0156 28.125C25.239 28.125 24.6094 28.7546 24.6094 29.5312C24.6094 30.3079 25.239 30.9375 26.0156 30.9375Z" fill="#2E2E2E"/>
<path d="M30.2344 35.1562C31.011 35.1562 31.6406 34.5267 31.6406 33.75C31.6406 32.9733 31.011 32.3438 30.2344 32.3438C29.4577 32.3438 28.8281 32.9733 28.8281 33.75C28.8281 34.5267 29.4577 35.1562 30.2344 35.1562Z" fill="#2E2E2E"/>
<path d="M30.4402 28.3302L24.8152 33.9552C24.7481 34.02 24.6945 34.0976 24.6577 34.1834C24.6208 34.2692 24.6014 34.3615 24.6006 34.4548C24.5998 34.5482 24.6176 34.6408 24.6529 34.7272C24.6883 34.8136 24.7405 34.8921 24.8065 34.9581C24.8725 35.0241 24.951 35.0763 25.0375 35.1117C25.1239 35.1471 25.2165 35.1648 25.3098 35.164C25.4032 35.1632 25.4954 35.1438 25.5812 35.107C25.667 35.0701 25.7446 35.0166 25.8095 34.9494L31.4345 29.3244C31.5625 29.1918 31.6334 29.0142 31.6318 28.8298C31.6302 28.6455 31.5563 28.4691 31.4259 28.3388C31.2955 28.2084 31.1192 28.1344 30.9348 28.1328C30.7505 28.1312 30.5729 28.2021 30.4402 28.3302Z" fill="#2E2E2E"/>
</svg>
