<svg width="50" height="50" viewBox="0 0 50 50" fill="none" xmlns="http://www.w3.org/2000/svg">
<g clip-path="url(#clip0_1309_11774)">
<path d="M45.3125 44.5312H39.0625V46.0938H45.3125V44.5312Z" fill="#F0BC5E"/>
<path d="M42.1875 32.0312H39.0625V33.5938H42.1875V32.0312Z" fill="#F0BC5E"/>
<path d="M45.3125 38.2812H42.1875V39.8438H45.3125V38.2812Z" fill="#F0BC5E"/>
<path d="M28.125 44.5312H21.875V46.0938H28.125V44.5312Z" fill="#F0BC5E"/>
<path d="M25 32.0312H21.875V33.5938H25V32.0312Z" fill="#F0BC5E"/>
<path d="M28.125 38.2812H25V39.8438H28.125V38.2812Z" fill="#F0BC5E"/>
<path d="M10.9375 44.5312H4.6875V46.0938H10.9375V44.5312Z" fill="#F0BC5E"/>
<path d="M7.8125 32.0312H4.6875V33.5938H7.8125V32.0312Z" fill="#F0BC5E"/>
<path d="M10.9375 38.2812H7.8125V39.8438H10.9375V38.2812Z" fill="#F0BC5E"/>
<path d="M38.2812 21.0938H11.7188C8.27266 21.0938 5.46875 18.2898 5.46875 14.8438C5.46875 11.507 8.09687 8.77266 11.3922 8.60234C12.3352 6.27031 14.6391 4.6875 17.1875 4.6875C17.8477 4.6875 18.4945 4.79063 19.118 4.99531C21.0297 2.34453 24.0586 0.78125 27.3438 0.78125C32.0875 0.78125 36.1984 4.12188 37.2367 8.68203C37.5812 8.62344 37.9313 8.59375 38.2812 8.59375C41.7273 8.59375 44.5312 11.3977 44.5312 14.8438C44.5312 18.2898 41.7273 21.0938 38.2812 21.0938Z" fill="#F0BC5E"/>
<path d="M5.46875 32.0312H3.90625V33.5938H5.46875V32.0312Z" fill="black"/>
<path d="M8.59375 32.0312H7.03125V33.5938H8.59375V32.0312Z" fill="black"/>
<path d="M11.7188 38.2812H10.1562V39.8438H11.7188V38.2812Z" fill="black"/>
<path d="M8.59375 38.2812H7.03125V39.8438H8.59375V38.2812Z" fill="black"/>
<path d="M8.59375 44.5312H7.03125V46.0938H8.59375V44.5312Z" fill="black"/>
<path d="M11.7188 44.5312H10.1562V46.0938H11.7188V44.5312Z" fill="black"/>
<path d="M5.46875 44.5312H3.90625V46.0938H5.46875V44.5312Z" fill="black"/>
<path d="M22.6562 32.0312H21.0938V33.5938H22.6562V32.0312Z" fill="black"/>
<path d="M25.7812 32.0312H24.2188V33.5938H25.7812V32.0312Z" fill="black"/>
<path d="M28.9062 38.2812H27.3438V39.8438H28.9062V38.2812Z" fill="black"/>
<path d="M25.7812 38.2812H24.2188V39.8438H25.7812V38.2812Z" fill="black"/>
<path d="M25.7812 44.5312H24.2188V46.0938H25.7812V44.5312Z" fill="black"/>
<path d="M28.9062 44.5312H27.3438V46.0938H28.9062V44.5312Z" fill="black"/>
<path d="M22.6562 44.5312H21.0938V46.0938H22.6562V44.5312Z" fill="black"/>
<path d="M46.875 28.9062H42.9688V24.2188H25.7812V21.0938H24.2188V24.2188H7.03125V28.9062H3.125C1.83281 28.9062 0.78125 29.9578 0.78125 31.25V46.875C0.78125 48.1672 1.83281 49.2188 3.125 49.2188H12.5C13.7922 49.2188 14.8438 48.1672 14.8438 46.875V31.25C14.8438 29.9578 13.7922 28.9062 12.5 28.9062H8.59375V25.7812H24.2188V28.9062H20.3125C19.0203 28.9062 17.9688 29.9578 17.9688 31.25V46.875C17.9688 48.1672 19.0203 49.2188 20.3125 49.2188H29.6875C30.9797 49.2188 32.0312 48.1672 32.0312 46.875V31.25C32.0312 29.9578 30.9797 28.9062 29.6875 28.9062H25.7812V25.7812H41.4062V28.9062H37.5C36.2078 28.9062 35.1562 29.9578 35.1562 31.25V46.875C35.1562 48.1672 36.2078 49.2188 37.5 49.2188H46.875C48.1672 49.2188 49.2188 48.1672 49.2188 46.875V31.25C49.2188 29.9578 48.1672 28.9062 46.875 28.9062ZM2.34375 36.7188H13.2812V41.4062H2.34375V36.7188ZM12.5 47.6562H3.125C2.69375 47.6562 2.34375 47.3062 2.34375 46.875V42.9688H13.2812V46.875C13.2812 47.3062 12.9312 47.6562 12.5 47.6562ZM13.2812 31.25V35.1562H2.34375V31.25C2.34375 30.8188 2.69375 30.4688 3.125 30.4688H12.5C12.9312 30.4688 13.2812 30.8188 13.2812 31.25ZM19.5312 36.7188H30.4688V41.4062H19.5312V36.7188ZM29.6875 47.6562H20.3125C19.8813 47.6562 19.5312 47.3062 19.5312 46.875V42.9688H30.4688V46.875C30.4688 47.3062 30.1187 47.6562 29.6875 47.6562ZM30.4688 31.25V35.1562H19.5312V31.25C19.5312 30.8188 19.8813 30.4688 20.3125 30.4688H29.6875C30.1187 30.4688 30.4688 30.8188 30.4688 31.25ZM37.5 30.4688H46.875C47.3063 30.4688 47.6562 30.8188 47.6562 31.25V35.1562H36.7188V31.25C36.7188 30.8188 37.0687 30.4688 37.5 30.4688ZM47.6562 36.7188V41.4062H36.7188V36.7188H47.6562ZM46.875 47.6562H37.5C37.0687 47.6562 36.7188 47.3062 36.7188 46.875V42.9688H47.6562V46.875C47.6562 47.3062 47.3063 47.6562 46.875 47.6562Z" fill="black"/>
<path d="M39.8438 32.0312H38.2812V33.5938H39.8438V32.0312Z" fill="black"/>
<path d="M42.9688 32.0312H41.4062V33.5938H42.9688V32.0312Z" fill="black"/>
<path d="M46.0938 38.2812H44.5312V39.8438H46.0938V38.2812Z" fill="black"/>
<path d="M42.9688 38.2812H41.4062V39.8438H42.9688V38.2812Z" fill="black"/>
<path d="M42.9688 44.5312H41.4062V46.0938H42.9688V44.5312Z" fill="black"/>
<path d="M46.0938 44.5312H44.5312V46.0938H46.0938V44.5312Z" fill="black"/>
<path d="M39.8438 44.5312H38.2812V46.0938H39.8438V44.5312Z" fill="black"/>
<path d="M31.2109 7.0709L32.3156 5.96621C29.5734 3.2248 25.1133 3.2248 22.3711 5.96621L23.4766 7.0709C25.6094 4.93965 29.0781 4.93965 31.2109 7.0709Z" fill="black"/>
<path d="M41.4062 14.8438C41.4062 13.1203 40.0047 11.7188 38.2812 11.7188V13.2812C39.143 13.2812 39.8438 13.982 39.8438 14.8438C39.8438 15.7055 39.143 16.4062 38.2812 16.4062V17.9688C40.0047 17.9688 41.4062 16.5672 41.4062 14.8438Z" fill="black"/>
</g>
<defs>
<clipPath id="clip0_1309_11774">
<rect width="50" height="50" fill="white"/>
</clipPath>
</defs>
</svg>
