<svg width="45" height="45" viewBox="0 0 45 45" fill="none" xmlns="http://www.w3.org/2000/svg">
<g clip-path="url(#clip0_1320_12181)">
<path d="M26.25 21.75C26.25 23.8209 24.5713 25.5 22.5 25.5C20.4291 25.5 18.75 23.8209 18.75 21.75C18.75 19.6791 20.4291 18 22.5 18C24.5713 18 26.25 19.6791 26.25 21.75Z" fill="#F4AC04"/>
<path d="M39 24.75C39 26.8209 37.3213 28.5 35.25 28.5C33.1791 28.5 31.5 26.8209 31.5 24.75C31.5 22.6791 33.1791 21 35.25 21C37.3213 21 39 22.6791 39 24.75Z" fill="#F4AC04"/>
<path d="M13.5 24.75C13.5 26.8209 11.8213 28.5 9.74999 28.5C7.67907 28.5 6 26.8209 6 24.75C6 22.6791 7.67907 21 9.74999 21C11.8213 21 13.5 22.6791 13.5 24.75Z" fill="#F4AC04"/>
<path d="M19.5 27.75H25.5C28.8138 27.75 31.5 30.4362 31.5 33.75V41.25C31.5 42.9067 30.1567 44.25 28.5 44.25H16.5C14.8433 44.25 13.5 42.9067 13.5 41.25V33.75C13.5 30.4362 16.1865 27.75 19.5 27.75Z" fill="#F4AC04"/>
<path d="M32.25 30.75H38.25C41.5638 30.75 44.25 33.4362 44.25 36.75V39.75C44.25 42.2351 42.2354 44.25 39.75 44.25H26.25V36.75C26.25 33.4362 28.9365 30.75 32.25 30.75Z" fill="#F4AC04"/>
<path d="M18.75 44.25H5.24999C2.76489 44.25 0.75 42.2351 0.75 39.75V36.75C0.75 33.4362 3.43652 30.75 6.74998 30.75H12.75C16.0638 30.75 18.75 33.4362 18.75 36.75V44.25Z" fill="#F4AC04"/>
<path d="M40.4999 24.7499V23.2499C40.9141 23.2499 41.2499 22.9141 41.2499 22.4999V18C41.2499 17.5858 40.9141 17.25 40.4999 17.25H36.45L36.3046 16.6867C35.9732 15.398 35.4579 14.1639 34.7746 13.0221L34.4747 12.5204L37.3501 9.63974C37.6394 9.34971 37.6394 8.87986 37.3501 8.58982L34.1648 5.40013C33.8708 5.11962 33.4086 5.11962 33.1146 5.40013L30.2339 8.28074L29.7322 7.98081C28.5889 7.2971 27.3533 6.78184 26.0632 6.45006L25.4999 6.30357V2.24999C25.4999 1.83581 25.1641 1.5 24.75 1.5H20.25C19.8358 1.5 19.5 1.83581 19.5 2.24999V6.29991L18.9367 6.44566C17.648 6.77708 16.4139 7.29197 15.2717 7.97459L14.7696 8.27488L11.8897 5.40013C11.5953 5.11742 11.1306 5.11742 10.8362 5.40013L7.65013 8.58506C7.50988 8.72495 7.43114 8.91465 7.43114 9.1124C7.43114 9.31052 7.50988 9.50022 7.65013 9.63974L10.5307 12.5204L10.2308 13.0221C9.54747 14.1639 9.03221 15.398 8.70079 16.6867L8.55394 17.25H4.49999C4.08581 17.25 3.75 17.5858 3.75 18V22.4999C3.75 22.9141 4.08581 23.2499 4.49999 23.2499V24.7499C3.25744 24.7499 2.25 23.7425 2.25 22.4999V18C2.25 16.7574 3.25744 15.75 4.49999 15.75H7.40184C7.71129 14.7129 8.1295 13.7116 8.64989 12.7628L6.58739 10.7003C6.16552 10.2795 5.92858 9.70823 5.92858 9.1124C5.92858 8.51695 6.16552 7.94566 6.58739 7.52488L9.77489 4.33739C10.6629 3.48742 12.063 3.48742 12.951 4.33739L15.0128 6.39915C15.9616 5.87914 16.9632 5.46166 18 5.15257V2.24999C18 1.00744 19.0074 0 20.25 0H24.75C25.9925 0 26.9999 1.00744 26.9999 2.24999V5.15257C28.0371 5.46166 29.0383 5.87987 29.9871 6.39989L32.0496 4.33739C32.938 3.48742 34.3377 3.48742 35.2261 4.33739L38.4129 7.52415C38.8344 7.94493 39.0713 8.51585 39.0713 9.11167C39.0713 9.70749 38.8344 10.2788 38.4129 10.6996L36.3504 12.7621C36.8704 13.7113 37.2886 14.7129 37.5981 15.75H40.4999C41.7425 15.75 42.7499 16.7574 42.7499 18V22.4999C42.7499 23.7425 41.7425 24.7499 40.4999 24.7499Z" fill="#464646"/>
<path d="M33 20.25H31.5C31.5 15.2794 27.4705 11.25 22.5 11.25C17.5294 11.25 13.5 15.2794 13.5 20.25H12C12 14.451 16.701 9.75 22.5 9.75C28.2989 9.75 33 14.451 33 20.25Z" fill="#464646"/>
<path d="M22.5 26.25C20.0149 26.25 18 24.2351 18 21.75C18 19.2649 20.0149 17.25 22.5 17.25C24.9855 17.25 27 19.2649 27 21.75C26.9974 24.2344 24.9844 26.2474 22.5 26.25ZM22.5 18.75C20.8433 18.75 19.5 20.0933 19.5 21.75C19.5 23.4067 20.8433 24.75 22.5 24.75C24.1567 24.75 25.5 23.4067 25.5 21.75C25.5 20.0933 24.1567 18.75 22.5 18.75Z" fill="#464646"/>
<path d="M35.25 29.25C32.7649 29.25 30.75 27.2351 30.75 24.75C30.75 22.2649 32.7649 20.25 35.25 20.25C37.7355 20.25 39.75 22.2649 39.75 24.75C39.7474 27.2344 37.7344 29.2474 35.25 29.25ZM35.25 21.75C33.5933 21.75 32.25 23.0933 32.25 24.75C32.25 26.4067 33.5933 27.75 35.25 27.75C36.9067 27.75 38.25 26.4067 38.25 24.75C38.25 23.0933 36.9067 21.75 35.25 21.75Z" fill="#464646"/>
<path d="M9.74999 29.25C7.26489 29.25 5.25 27.2351 5.25 24.75C5.25 22.2649 7.26489 20.25 9.74999 20.25C12.2355 20.25 14.25 22.2649 14.25 24.75C14.2474 27.2344 12.2344 29.2474 9.74999 29.25ZM9.74999 21.75C8.09325 21.75 6.75 23.0933 6.75 24.75C6.75 26.4067 8.09325 27.75 9.74999 27.75C11.4067 27.75 12.75 26.4067 12.75 24.75C12.75 23.0933 11.4067 21.75 9.74999 21.75Z" fill="#464646"/>
<path d="M42.0493 31.1745C40.9317 30.4062 39.6064 29.9964 38.2499 30H32.2499C31.8852 30.0033 31.5212 30.0363 31.1616 30.0989C30.6818 29.3482 30.0574 28.7007 29.325 28.1932C29.2151 28.11 29.0998 28.035 28.9793 27.9683C27.9301 27.3329 26.7264 26.9982 25.4999 27H19.5C17.2064 26.992 15.0692 28.1624 13.8405 30.0989C13.4802 30.0363 13.1155 30.0033 12.75 30H6.74999C5.39464 29.9964 4.07006 30.4054 2.95275 31.173C1.10669 32.4291 0.00109864 34.5172 0 36.75V39.75C0.00256348 41.7979 1.19421 43.6578 3.05419 44.5155C3.74084 44.8389 4.4912 45.0044 5.24999 45H12.75V43.5H5.99999V35.25H4.49999V43.4249C4.21764 43.3682 3.94335 43.277 3.68334 43.1536C2.35473 42.5409 1.50293 41.213 1.5 39.75V36.75C1.50183 35.0124 2.36279 33.3878 3.79943 32.4104C4.66771 31.8146 5.69676 31.4971 6.74999 31.5H12.75C12.8822 31.5 13.0096 31.5143 13.1385 31.5231C12.8847 32.2383 12.7533 32.9912 12.75 33.75V41.25C12.7525 43.3202 14.4301 44.9974 16.5 45H18.75V33H17.25V43.5H16.5C15.2574 43.5 14.25 42.4926 14.25 41.25V33.75C14.25 30.8504 16.6007 28.5 19.5 28.5H25.4999C26.4649 28.5008 27.4108 28.7677 28.2337 29.2716C28.3099 29.3134 28.3831 29.3603 28.4527 29.4119C29.1555 29.8931 29.7322 30.5362 30.1343 31.2869C30.5383 32.045 30.7499 32.8909 30.7499 33.75V41.25C30.7499 42.4926 29.7425 43.5 28.4999 43.5H27.7499V33H26.2499V45H28.4999C30.5701 44.9974 32.2474 43.3202 32.2499 41.25V33.75C32.2466 32.9912 32.1155 32.2387 31.8621 31.5231C31.9914 31.5143 32.1188 31.5 32.2499 31.5H38.2499C39.3039 31.4971 40.334 31.8153 41.2027 32.4119C42.6382 33.3897 43.4981 35.0131 43.4999 36.75V39.75C43.4973 41.2182 42.6393 42.5501 41.3041 43.1594C41.0478 43.2806 40.7779 43.3696 40.4999 43.4249V35.25H38.9999V43.5H32.2499V45H39.7499C40.5043 45.0048 41.2503 44.8414 41.9333 44.5214C43.7995 43.6663 44.997 41.803 44.9999 39.75V36.75C44.9988 34.518 43.8943 32.4309 42.0493 31.1745Z" fill="#464646"/>
<path d="M19.5 43.5H25.5V45H19.5V43.5Z" fill="#464646"/>
</g>
<defs>
<clipPath id="clip0_1320_12181">
<rect width="45" height="45" fill="white"/>
</clipPath>
</defs>
</svg>
