<svg width="48" height="48" viewBox="0 0 48 48" fill="none" xmlns="http://www.w3.org/2000/svg">
<path d="M19.4998 28.9357C19.8976 28.9357 20.2791 28.7776 20.5604 28.4963C20.8418 28.215 20.9998 27.8335 20.9998 27.4357V21.0007L22.1848 22.2007C22.3242 22.3412 22.4901 22.4528 22.6729 22.529C22.8557 22.6051 23.0518 22.6443 23.2498 22.6443C23.4478 22.6443 23.6439 22.6051 23.8267 22.529C24.0094 22.4528 24.1753 22.3412 24.3148 22.2007C24.4554 22.0612 24.567 21.8953 24.6431 21.7125C24.7193 21.5297 24.7585 21.3337 24.7585 21.1357C24.7585 20.9376 24.7193 20.7416 24.6431 20.5588C24.567 20.376 24.4554 20.2101 24.3148 20.0707L20.5648 16.3207C20.4253 16.1801 20.2594 16.0685 20.0767 15.9923C19.8939 15.9162 19.6978 15.877 19.4998 15.877C19.3018 15.877 19.1057 15.9162 18.9229 15.9923C18.7401 16.0685 18.5742 16.1801 18.4348 16.3207L14.6848 20.0707C14.5449 20.2105 14.434 20.3765 14.3583 20.5593C14.2826 20.742 14.2437 20.9379 14.2437 21.1357C14.2437 21.3334 14.2826 21.5293 14.3583 21.712C14.434 21.8948 14.5449 22.0608 14.6848 22.2007C14.8246 22.3405 14.9907 22.4515 15.1734 22.5271C15.3561 22.6028 15.552 22.6418 15.7498 22.6418C15.9476 22.6418 16.1434 22.6028 16.3262 22.5271C16.5089 22.4515 16.6749 22.3405 16.8148 22.2007L17.9998 21.0007V27.3907C17.9938 27.5914 18.0281 27.7913 18.1008 27.9785C18.1735 28.1657 18.283 28.3364 18.4229 28.4805C18.5628 28.6246 18.7302 28.7391 18.9152 28.8173C19.1002 28.8955 19.299 28.9357 19.4998 28.9357Z" fill="#454646"/>
<path d="M34.5 6.87034L20.01 1.59034C19.6804 1.47119 19.3196 1.47119 18.99 1.59034L4.5 6.87034C3.62468 7.17981 2.8665 7.75244 2.32941 8.50974C1.79232 9.26704 1.50261 10.1719 1.5 11.1003V21.4503C1.51428 26.8998 3.19848 32.2139 6.32568 36.6767C9.45288 41.1395 13.8728 44.5366 18.99 46.4103C19.3196 46.5295 19.6804 46.5295 20.01 46.4103C21.6482 45.8186 23.2255 45.0701 24.72 44.1753C24.9113 44.0889 25.0823 43.9633 25.2219 43.8066C25.3616 43.65 25.4668 43.4657 25.5308 43.2658C25.5948 43.0659 25.6161 42.8548 25.5934 42.6462C25.5707 42.4375 25.5045 42.236 25.399 42.0545C25.2935 41.8731 25.1511 41.7158 24.981 41.5928C24.8109 41.4699 24.6169 41.384 24.4115 41.3407C24.2062 41.2974 23.994 41.2977 23.7888 41.3416C23.5835 41.3854 23.3897 41.4719 23.22 41.5953C22.0382 42.3088 20.7929 42.9114 19.5 43.3953C15.0866 41.6647 11.296 38.6463 8.62085 34.7326C5.94574 30.8189 4.5099 26.1909 4.5 21.4503V11.1003C4.50013 10.7921 4.59524 10.4913 4.77238 10.239C4.94952 9.98674 5.20009 9.79515 5.49 9.69034L19.5 4.59034L33.51 9.69034C33.7999 9.79515 34.0505 9.98674 34.2276 10.239C34.4048 10.4913 34.4999 10.7921 34.5 11.1003V21.0903C34.5 21.4882 34.658 21.8697 34.9393 22.151C35.2206 22.4323 35.6022 22.5903 36 22.5903C36.3978 22.5903 36.7794 22.4323 37.0607 22.151C37.342 21.8697 37.5 21.4882 37.5 21.0903V11.1003C37.4974 10.1719 37.2077 9.26704 36.6706 8.50974C36.1335 7.75244 35.3753 7.17981 34.5 6.87034Z" fill="#454646"/>
<path d="M30.51 11.79L20.01 7.97999C19.6804 7.86084 19.3196 7.86084 18.99 7.97999L8.49 11.79C8.20009 11.8948 7.94952 12.0864 7.77238 12.3387C7.59524 12.591 7.50013 12.8917 7.5 13.2V21.435C7.51816 25.2425 8.58459 28.9714 10.5823 32.2127C12.58 35.4541 15.4319 38.0826 18.825 39.81C19.034 39.9171 19.2652 39.9736 19.5 39.975C19.7336 39.9782 19.9648 39.9269 20.175 39.825C20.8661 39.4757 21.5326 39.0798 22.17 38.64C22.4738 38.4045 22.6755 38.0614 22.7337 37.6815C22.7919 37.3016 22.702 36.9139 22.4827 36.5983C22.2633 36.2827 21.9312 36.0634 21.5548 35.9856C21.1784 35.9077 20.7866 35.9773 20.46 36.18C20.16 36.39 19.845 36.585 19.5 36.78C16.783 35.2395 14.5203 33.0097 12.9402 30.3156C11.3601 27.6214 10.5184 24.5583 10.5 21.435V14.25L19.5 10.98L28.5 14.25V21.6C28.4523 21.9978 28.5645 22.3983 28.8121 22.7134C29.0596 23.0284 29.4222 23.2322 29.82 23.28C30.2178 23.3277 30.6183 23.2155 30.9334 22.9679C31.2484 22.7204 31.4523 22.3578 31.5 21.96C31.5149 21.7853 31.5149 21.6097 31.5 21.435V13.2C31.4999 12.8917 31.4048 12.591 31.2276 12.3387C31.0505 12.0864 30.7999 11.8948 30.51 11.79Z" fill="#454646"/>
<path d="M36 24C33.9233 24 31.8932 24.6158 30.1665 25.7696C28.4398 26.9233 27.094 28.5632 26.2993 30.4818C25.5045 32.4004 25.2966 34.5116 25.7018 36.5484C26.1069 38.5852 27.1069 40.4562 28.5754 41.9246C30.0438 43.3931 31.9148 44.3931 33.9516 44.7982C35.9884 45.2034 38.0996 44.9955 40.0182 44.2007C41.9368 43.406 43.5767 42.0602 44.7304 40.3335C45.8842 38.6068 46.5 36.5767 46.5 34.5C46.5 31.7152 45.3938 29.0445 43.4246 27.0754C41.4555 25.1062 38.7848 24 36 24ZM36 37.875C35.8606 38.0156 35.6947 38.1272 35.5119 38.2033C35.3291 38.2795 35.133 38.3187 34.935 38.3187C34.737 38.3187 34.5409 38.2795 34.3581 38.2033C34.1754 38.1272 34.0094 38.0156 33.87 37.875L31.38 35.385C31.2394 35.2456 31.1278 35.0797 31.0517 34.8969C30.9755 34.7141 30.9363 34.518 30.9363 34.32C30.9363 34.122 30.9755 33.9259 31.0517 33.7431C31.1278 33.5603 31.2394 33.3944 31.38 33.255C31.5195 33.1144 31.6854 33.0028 31.8681 32.9267C32.0509 32.8505 32.247 32.8113 32.445 32.8113C32.643 32.8113 32.8391 32.8505 33.0219 32.9267C33.2047 33.0028 33.3706 33.1144 33.51 33.255L34.935 34.755L38.49 31.185C38.6294 31.0444 38.7954 30.9328 38.9781 30.8567C39.1609 30.7805 39.357 30.7413 39.555 30.7413C39.753 30.7413 39.9491 30.7805 40.1319 30.8567C40.3147 30.9328 40.4806 31.0444 40.62 31.185C40.7606 31.3244 40.8722 31.4903 40.9483 31.6731C41.0245 31.8559 41.0637 32.052 41.0637 32.25C41.0637 32.448 41.0245 32.6441 40.9483 32.8269C40.8722 33.0097 40.7606 33.1756 40.62 33.315L36 37.875Z" fill="#F4AC04"/>
</svg>
