<svg width="45" height="45" viewBox="0 0 45 45" fill="none" xmlns="http://www.w3.org/2000/svg">
<path d="M9.14062 7.73438V2.10938L2.10938 9.14062H7.73438L9.14062 7.73438Z" fill="#F4AC04"/>
<path d="M7.73438 9.14062L4.92188 11.9531H11.9531V4.92188L9.14062 7.73438L7.73438 9.14062Z" fill="#F4AC04"/>
<path d="M2.10938 9.14062V37.2656H4.92188V11.9531L7.73438 9.14062H2.10938Z" fill="#F4AC04"/>
<path d="M9.14062 2.10938V7.73438L11.9531 4.92188H33.0469V2.10938H9.14062Z" fill="#F4AC04"/>
<path d="M16.1719 9.14062H31.6406V12.6562H16.1719V9.14062Z" fill="#F4AC04"/>
<path d="M9.14062 16.875H17.5781V25.3125H9.14062V16.875Z" fill="#F4AC04"/>
<path d="M39.6352 32.2594V32.2523L41.9133 29.9812L38.925 26.993L36.6539 29.2711H36.6469L36.5625 29.3625V26.0156H32.3438V29.3625L32.2594 29.2711H32.2523L29.9812 26.993L26.993 29.9812L29.2711 32.2523V32.2594L29.3625 32.3438H26.0156V36.5625H29.3625L29.2711 36.6469V36.6539L26.993 38.925L29.9812 41.9133L32.2523 39.6352H32.2594L32.3438 39.5438V42.8906H36.5625V39.5438L36.6469 39.6352H36.6539L38.925 41.9133L41.9133 38.925L39.6352 36.6539V36.6469L39.5438 36.5625H42.8906V32.3438H39.5438L39.6352 32.2594ZM34.4531 37.2656C33.8969 37.2656 33.3531 37.1007 32.8906 36.7916C32.4281 36.4826 32.0676 36.0433 31.8547 35.5294C31.6418 35.0155 31.5861 34.45 31.6947 33.9044C31.8032 33.3589 32.0711 32.8577 32.4644 32.4644C32.8577 32.0711 33.3589 31.8032 33.9044 31.6947C34.45 31.5861 35.0155 31.6418 35.5294 31.8547C36.0433 32.0676 36.4826 32.4281 36.7916 32.8906C37.1007 33.3531 37.2656 33.8969 37.2656 34.4531C37.2656 35.199 36.9693 35.9144 36.4419 36.4419C35.9144 36.9693 35.199 37.2656 34.4531 37.2656Z" fill="#F4AC04"/>
<path d="M16.1719 13.3594H31.6406C31.8271 13.3594 32.0059 13.2853 32.1378 13.1534C32.2697 13.0216 32.3438 12.8427 32.3438 12.6562V9.14062C32.3438 8.95414 32.2697 8.7753 32.1378 8.64344C32.0059 8.51158 31.8271 8.4375 31.6406 8.4375H16.1719C15.9854 8.4375 15.8066 8.51158 15.6747 8.64344C15.5428 8.7753 15.4688 8.95414 15.4688 9.14062V12.6562C15.4688 12.8427 15.5428 13.0216 15.6747 13.1534C15.8066 13.2853 15.9854 13.3594 16.1719 13.3594ZM16.875 9.84375H30.9375V11.9531H16.875V9.84375Z" fill="#464646"/>
<path d="M9.14062 26.0156H17.5781C17.7646 26.0156 17.9434 25.9415 18.0753 25.8097C18.2072 25.6778 18.2812 25.499 18.2812 25.3125V16.875C18.2812 16.6885 18.2072 16.5097 18.0753 16.3778C17.9434 16.246 17.7646 16.1719 17.5781 16.1719H9.14062C8.95414 16.1719 8.7753 16.246 8.64344 16.3778C8.51158 16.5097 8.4375 16.6885 8.4375 16.875V25.3125C8.4375 25.499 8.51158 25.6778 8.64344 25.8097C8.7753 25.9415 8.95414 26.0156 9.14062 26.0156ZM9.84375 17.5781H16.875V24.6094H9.84375V17.5781Z" fill="#464646"/>
<path d="M31.6406 16.1719H21.7969C21.6104 16.1719 21.4316 16.246 21.2997 16.3778C21.1678 16.5097 21.0938 16.6885 21.0938 16.875C21.0938 17.0615 21.1678 17.2403 21.2997 17.3722C21.4316 17.504 21.6104 17.5781 21.7969 17.5781H31.6406C31.8271 17.5781 32.0059 17.504 32.1378 17.3722C32.2697 17.2403 32.3438 17.0615 32.3438 16.875C32.3438 16.6885 32.2697 16.5097 32.1378 16.3778C32.0059 16.246 31.8271 16.1719 31.6406 16.1719Z" fill="#464646"/>
<path d="M31.6406 18.9844H21.7969C21.6104 18.9844 21.4316 19.0585 21.2997 19.1903C21.1678 19.3222 21.0938 19.501 21.0938 19.6875C21.0938 19.874 21.1678 20.0528 21.2997 20.1847C21.4316 20.3165 21.6104 20.3906 21.7969 20.3906H31.6406C31.8271 20.3906 32.0059 20.3165 32.1378 20.1847C32.2697 20.0528 32.3438 19.874 32.3438 19.6875C32.3438 19.501 32.2697 19.3222 32.1378 19.1903C32.0059 19.0585 31.8271 18.9844 31.6406 18.9844Z" fill="#464646"/>
<path d="M31.6406 21.7969H21.7969C21.6104 21.7969 21.4316 21.871 21.2997 22.0028C21.1678 22.1347 21.0938 22.3135 21.0938 22.5C21.0938 22.6865 21.1678 22.8653 21.2997 22.9972C21.4316 23.129 21.6104 23.2031 21.7969 23.2031H31.6406C31.8271 23.2031 32.0059 23.129 32.1378 22.9972C32.2697 22.8653 32.3438 22.6865 32.3438 22.5C32.3438 22.3135 32.2697 22.1347 32.1378 22.0028C32.0059 21.871 31.8271 21.7969 31.6406 21.7969Z" fill="#464646"/>
<path d="M27.4219 24.6094H21.7969C21.6104 24.6094 21.4316 24.6835 21.2997 24.8153C21.1678 24.9472 21.0938 25.126 21.0938 25.3125C21.0938 25.499 21.1678 25.6778 21.2997 25.8097C21.4316 25.9415 21.6104 26.0156 21.7969 26.0156H27.4219C27.6084 26.0156 27.7872 25.9415 27.9191 25.8097C28.0509 25.6778 28.125 25.499 28.125 25.3125C28.125 25.126 28.0509 24.9472 27.9191 24.8153C27.7872 24.6835 27.6084 24.6094 27.4219 24.6094Z" fill="#464646"/>
<path d="M23.2031 28.8281H9.14062C8.95414 28.8281 8.7753 28.9022 8.64344 29.0341C8.51158 29.1659 8.4375 29.3448 8.4375 29.5312C8.4375 29.7177 8.51158 29.8966 8.64344 30.0284C8.7753 30.1603 8.95414 30.2344 9.14062 30.2344H23.2031C23.3896 30.2344 23.5684 30.1603 23.7003 30.0284C23.8322 29.8966 23.9062 29.7177 23.9062 29.5312C23.9062 29.3448 23.8322 29.1659 23.7003 29.0341C23.5684 28.9022 23.3896 28.8281 23.2031 28.8281Z" fill="#464646"/>
<path d="M23.2031 31.6406H9.14062C8.95414 31.6406 8.7753 31.7147 8.64344 31.8466C8.51158 31.9784 8.4375 32.1573 8.4375 32.3438C8.4375 32.5302 8.51158 32.7091 8.64344 32.8409C8.7753 32.9728 8.95414 33.0469 9.14062 33.0469H23.2031C23.3896 33.0469 23.5684 32.9728 23.7003 32.8409C23.8322 32.7091 23.9062 32.5302 23.9062 32.3438C23.9062 32.1573 23.8322 31.9784 23.7003 31.8466C23.5684 31.7147 23.3896 31.6406 23.2031 31.6406Z" fill="#464646"/>
<path d="M23.2031 34.4531H9.14062C8.95414 34.4531 8.7753 34.5272 8.64344 34.6591C8.51158 34.7909 8.4375 34.9698 8.4375 35.1562C8.4375 35.3427 8.51158 35.5216 8.64344 35.6534C8.7753 35.7853 8.95414 35.8594 9.14062 35.8594H23.2031C23.3896 35.8594 23.5684 35.7853 23.7003 35.6534C23.8322 35.5216 23.9062 35.3427 23.9062 35.1562C23.9062 34.9698 23.8322 34.7909 23.7003 34.6591C23.5684 34.5272 23.3896 34.4531 23.2031 34.4531Z" fill="#464646"/>
<path d="M42.8906 31.6406H41.2446L42.4097 30.4791C42.4751 30.4138 42.5269 30.3362 42.5623 30.2509C42.5977 30.1655 42.6159 30.074 42.6159 29.9816C42.6159 29.8892 42.5977 29.7977 42.5623 29.7123C42.5269 29.627 42.4751 29.5494 42.4097 29.4841L39.4214 26.4959C39.2896 26.364 39.1108 26.2899 38.9243 26.2898C38.8319 26.29 38.7405 26.3083 38.6552 26.3437C38.5699 26.3792 38.4924 26.4311 38.4272 26.4966L37.2656 27.6616V26.0156C37.2656 25.8291 37.1915 25.6503 37.0597 25.5184C36.9278 25.3866 36.749 25.3125 36.5625 25.3125V4.92188C36.5625 4.73539 36.4884 4.55655 36.3566 4.42469C36.2247 4.29283 36.0459 4.21875 35.8594 4.21875H33.75V2.10938C33.75 1.92289 33.6759 1.74405 33.5441 1.61219C33.4122 1.48033 33.2334 1.40625 33.0469 1.40625H9.14062C8.95416 1.40629 8.77535 1.48039 8.64352 1.61227L1.61227 8.64352C1.48039 8.77535 1.40629 8.95416 1.40625 9.14062V37.2656C1.40625 37.4521 1.48033 37.6309 1.61219 37.7628C1.74405 37.8947 1.92289 37.9688 2.10938 37.9688H4.21875V40.0781C4.21875 40.2646 4.29283 40.4434 4.42469 40.5753C4.55655 40.7072 4.73539 40.7812 4.92188 40.7812H27.855L29.4841 42.4104C29.616 42.5423 29.7948 42.6164 29.9812 42.6164C30.0736 42.6163 30.1651 42.598 30.2504 42.5625C30.3357 42.527 30.4131 42.4751 30.4784 42.4097L31.6406 41.2446V42.8906C31.6406 43.0771 31.7147 43.2559 31.8466 43.3878C31.9784 43.5197 32.1573 43.5938 32.3438 43.5938H36.5625C36.749 43.5938 36.9278 43.5197 37.0597 43.3878C37.1915 43.2559 37.2656 43.0771 37.2656 42.8906V41.2446L38.4272 42.4097C38.4924 42.4751 38.5699 42.527 38.6552 42.5625C38.7405 42.598 38.8319 42.6163 38.9243 42.6164C39.1108 42.6164 39.2896 42.5423 39.4214 42.4104L42.4097 39.4221C42.4751 39.3568 42.5269 39.2793 42.5623 39.1939C42.5977 39.1085 42.6159 39.0171 42.6159 38.9246C42.6159 38.8322 42.5977 38.7407 42.5623 38.6554C42.5269 38.57 42.4751 38.4925 42.4097 38.4272L41.2446 37.2656H42.8906C43.0771 37.2656 43.2559 37.1915 43.3878 37.0597C43.5197 36.9278 43.5938 36.749 43.5938 36.5625V32.3438C43.5938 32.1573 43.5197 31.9784 43.3878 31.8466C43.2559 31.7147 43.0771 31.6406 42.8906 31.6406ZM9.84375 2.8125H32.3438V4.21875H11.9531C11.7667 4.21879 11.5878 4.2929 11.456 4.42477L9.84375 6.03703V2.8125ZM11.25 6.61922V11.25H6.61922L11.25 6.61922ZM8.4375 3.80672V7.44328L7.44328 8.4375H3.80672L8.4375 3.80672ZM4.42477 11.456C4.2929 11.5878 4.21879 11.7667 4.21875 11.9531V36.5625H2.8125V9.84375H6.03703L4.42477 11.456ZM5.625 12.6562H11.9531C12.1396 12.6562 12.3184 12.5822 12.4503 12.4503C12.5822 12.3184 12.6562 12.1396 12.6562 11.9531V5.625H35.1562V25.3125H32.3438C32.1573 25.3125 31.9784 25.3866 31.8466 25.5184C31.7147 25.6503 31.6406 25.8291 31.6406 26.0156V27.6616L30.4791 26.4966C30.4138 26.4311 30.3364 26.3792 30.2511 26.3437C30.1658 26.3083 30.0743 26.29 29.982 26.2898C29.7955 26.2899 29.6167 26.364 29.4848 26.4959L26.4966 29.4841C26.4312 29.5494 26.3793 29.627 26.3439 29.7123C26.3086 29.7977 26.2903 29.8892 26.2903 29.9816C26.2903 30.074 26.3086 30.1655 26.3439 30.2509C26.3793 30.3362 26.4312 30.4138 26.4966 30.4791L27.6616 31.6406H26.0156C25.8291 31.6406 25.6503 31.7147 25.5184 31.8466C25.3866 31.9784 25.3125 32.1573 25.3125 32.3438V36.5625C25.3125 36.749 25.3866 36.9278 25.5184 37.0597C25.6503 37.1915 25.8291 37.2656 26.0156 37.2656H27.6616L26.4966 38.4272C26.3702 38.5506 26.2964 38.7181 26.2903 38.8946C26.2843 39.0712 26.3466 39.2432 26.4642 39.375H5.625V12.6562ZM42.1875 35.8594H39.5438C39.4024 35.8594 39.2643 35.902 39.1475 35.9817C39.0307 36.0614 38.9407 36.1745 38.8891 36.3061C38.8376 36.4378 38.8269 36.5819 38.8585 36.7197C38.8901 36.8575 38.9626 36.9826 39.0663 37.0786L39.0994 37.1095C39.112 37.1236 39.1254 37.1384 39.1388 37.1517L40.9219 38.9257L38.9257 40.9219L37.1517 39.1423C37.1384 39.1289 37.1243 39.1162 37.1102 39.1036L37.0786 39.0698C36.9828 38.9663 36.858 38.894 36.7206 38.8622C36.5831 38.8305 36.4393 38.8409 36.3078 38.892C36.1763 38.9431 36.0632 39.0326 35.9832 39.1488C35.9032 39.2651 35.8601 39.4027 35.8594 39.5438V42.1875H33.0469V39.5438C33.0469 39.4024 33.0042 39.2643 32.9245 39.1475C32.8448 39.0307 32.7318 38.9407 32.6001 38.8891C32.4685 38.8376 32.3244 38.8269 32.1865 38.8585C32.0487 38.8901 31.9237 38.9626 31.8277 39.0663L31.7967 39.0994C31.7827 39.112 31.7679 39.1254 31.7545 39.1388L29.9805 40.9219L27.9879 38.9292L29.7675 37.1552C29.7809 37.1419 29.7935 37.1278 29.8062 37.1138L29.8399 37.0821C29.945 36.9863 30.0185 36.861 30.0509 36.7226C30.0833 36.5841 30.0729 36.4392 30.0212 36.3068C29.9695 36.1743 29.8789 36.0607 29.7613 35.9808C29.6437 35.901 29.5046 35.8586 29.3625 35.8594H26.7188V33.0469H29.3625C29.5039 33.0469 29.642 33.0042 29.7587 32.9245C29.8755 32.8448 29.9656 32.7318 30.0171 32.6001C30.0687 32.4685 30.0793 32.3244 30.0477 32.1865C30.0161 32.0487 29.9437 31.9237 29.8399 31.8277L29.8069 31.7967C29.7942 31.7827 29.7809 31.7679 29.7675 31.7545L27.9879 29.9805L29.9805 27.9879L31.7545 29.7675C31.7679 29.7809 31.782 29.7935 31.796 29.8062L31.8277 29.8399C31.9237 29.9437 32.0487 30.0161 32.1865 30.0477C32.3244 30.0793 32.4685 30.0687 32.6001 30.0171C32.7318 29.9656 32.8448 29.8755 32.9245 29.7587C33.0042 29.642 33.0469 29.5039 33.0469 29.3625V26.7188H35.8594V29.3625C35.8594 29.5039 35.902 29.642 35.9817 29.7587C36.0614 29.8755 36.1745 29.9656 36.3061 30.0171C36.4378 30.0687 36.5819 30.0793 36.7197 30.0477C36.8575 30.0161 36.9826 29.9437 37.0786 29.8399L37.1095 29.8069C37.1236 29.7942 37.1384 29.7809 37.1517 29.7675L38.9257 27.9879L40.9219 29.9805L39.1423 31.7545C39.1289 31.7679 39.1162 31.782 39.1036 31.796L39.0698 31.8277C38.9663 31.9235 38.894 32.0482 38.8622 32.1857C38.8305 32.3232 38.8409 32.467 38.892 32.5985C38.9431 32.73 39.0326 32.8431 39.1488 32.923C39.2651 33.003 39.4027 33.0462 39.5438 33.0469H42.1875V35.8594Z" fill="#464646"/>
<path d="M34.4531 30.9375C33.7578 30.9375 33.0781 31.1437 32.4999 31.53C31.9218 31.9163 31.4712 32.4654 31.2051 33.1078C30.939 33.7501 30.8694 34.457 31.0051 35.139C31.1407 35.821 31.4755 36.4474 31.9672 36.939C32.4589 37.4307 33.0853 37.7655 33.7673 37.9012C34.4492 38.0368 35.1561 37.9672 35.7985 37.7011C36.4409 37.435 36.99 36.9844 37.3763 36.4063C37.7626 35.8282 37.9688 35.1484 37.9688 34.4531C37.9676 33.5211 37.5969 32.6275 36.9378 31.9684C36.2787 31.3094 35.3852 30.9386 34.4531 30.9375ZM34.4531 36.5625C34.0359 36.5625 33.6281 36.4388 33.2812 36.207C32.9343 35.9752 32.664 35.6458 32.5043 35.2603C32.3447 34.8749 32.3029 34.4508 32.3843 34.0416C32.4657 33.6324 32.6666 33.2566 32.9616 32.9616C33.2566 32.6666 33.6324 32.4657 34.0416 32.3843C34.4508 32.3029 34.8749 32.3447 35.2603 32.5043C35.6458 32.664 35.9752 32.9343 36.207 33.2812C36.4388 33.6281 36.5625 34.0359 36.5625 34.4531C36.5625 35.0126 36.3403 35.5491 35.9447 35.9447C35.5491 36.3403 35.0126 36.5625 34.4531 36.5625Z" fill="#464646"/>
</svg>
