<svg width="53" height="53" viewBox="0 0 53 53" fill="none" xmlns="http://www.w3.org/2000/svg">
<g clip-path="url(#clip0_1309_12149)">
<path d="M49.0045 21.371C48.4275 18.8227 47.4324 16.4197 46.0408 14.2125L48.8651 11.3882L41.6118 4.13485L38.7875 6.95924C36.5803 5.56756 34.1773 4.57253 31.629 3.99552V0H21.371V3.99552C18.8227 4.57253 16.4197 5.56756 14.2125 6.95924L11.3882 4.13485L4.13485 11.3882L6.9601 14.2125C5.56671 16.4215 4.57253 18.8235 3.99552 21.371H0V31.629H3.99552C4.57253 34.1765 5.56671 36.5785 6.9601 38.7875L4.13485 41.6118L11.3882 48.8651L14.2125 46.0399C16.4215 47.4333 18.8235 48.4275 21.371 49.0045V53H31.629V49.0045C34.1765 48.4275 36.5785 47.4333 38.7875 46.0399L41.6118 48.8651L48.8651 41.6118L46.0408 38.7875C47.4324 36.5803 48.4275 34.1773 49.0045 31.629H53V21.371H49.0045ZM26.5 44.4516C16.5856 44.4516 8.54839 36.4144 8.54839 26.5C8.54839 16.5856 16.5856 8.54839 26.5 8.54839C36.4144 8.54839 44.4516 16.5856 44.4516 26.5C44.4516 36.4144 36.4144 44.4516 26.5 44.4516Z" fill="#FFA64D"/>
<path d="M26.4998 7.69336C16.1298 7.69336 7.69336 16.1298 7.69336 26.4998C7.69336 36.8699 16.1298 45.3063 26.4998 45.3063C31.1356 45.3063 35.5876 43.6051 39.0377 40.5166L37.8974 39.2429C34.7618 42.0502 30.7142 43.5966 26.4998 43.5966C20.545 43.5966 15.2989 40.5328 12.236 35.903H15.0604L16.77 32.4837H18.8063V34.1934H34.1934V32.4837H36.2296L37.9393 35.903H40.7594C40.3012 36.5972 39.8045 37.2699 39.2429 37.8974L40.5166 39.0377C43.606 35.5867 45.3063 31.1339 45.3063 26.4998C45.3063 16.1298 36.8699 7.69336 26.4998 7.69336ZM34.1934 22.2256H37.2862L38.9958 18.8063H41.7467C42.5503 20.3911 43.1076 22.1162 43.3829 23.9353H34.1934V22.2256ZM26.4998 9.40304C32.4546 9.40304 37.7008 12.4668 40.7637 17.0966H37.9393L36.2296 20.5159H34.1934V18.8063H18.8063V20.5159H16.77L15.0604 17.0966H12.236C15.2989 12.4668 20.545 9.40304 26.4998 9.40304ZM18.8063 22.2256V23.9353H14.2055L12.4958 20.5159H10.5049C10.7246 19.9304 10.9725 19.3593 11.2529 18.8063H14.0038L15.7135 22.2256H18.8063ZM9.96552 22.2256H11.4393L13.1489 25.645H18.8063V27.3547H9.44663C9.4321 27.07 9.40304 26.7887 9.40304 26.4998C9.40304 25.0218 9.61162 23.5942 9.96552 22.2256ZM15.7135 30.774L14.0038 34.1934H11.2529C10.4494 32.6085 9.892 30.8834 9.61675 29.0643H18.8063V30.774H15.7135ZM32.4837 32.4837H20.5159V20.5159H32.4837V32.4837ZM38.9958 34.1934L37.2862 30.774H34.1934V29.0643H38.7941L40.5038 32.4837H42.5118C42.2938 33.0667 42.0416 33.6369 41.7612 34.1934H38.9958ZM43.0427 30.774H41.5612L39.8515 27.3547H34.1934V25.645H43.553C43.5675 25.9296 43.5966 26.2109 43.5966 26.4998C43.5966 27.9556 43.4 29.3883 43.0427 30.774Z" fill="#333333"/>
<path d="M23.9353 22.2266H22.2256V23.9362H23.9353V22.2266Z" fill="#333333"/>
</g>
<defs>
<clipPath id="clip0_1309_12149">
<rect width="53" height="53" fill="white"/>
</clipPath>
</defs>
</svg>
