<svg width="758" height="758" viewBox="0 0 758 758" fill="none" xmlns="http://www.w3.org/2000/svg">
<g clip-path="url(#clip0_2305_560)">
<rect width="758" height="758" fill="white"/>
<rect width="758" height="758" fill="#106384"/>
<g filter="url(#filter0_d_2305_560)">
<path d="M94.7042 587.836C-10.6192 587.836 -96 505.574 -96 404.088C-96 302.643 -10.6192 220.381 94.7042 220.381C110.798 148.16 168.168 89.22 245.195 65.7341C322.181 42.2891 407.194 57.8234 468.127 106.722C529.061 155.497 556.661 229.972 540.609 302.192H581.149C659.487 302.192 723 366.133 723 445.076C723 524.059 659.487 588 581.108 588H94.7042" fill="#266E8E"/>
</g>
<path d="M94.621 164V127.288H108.388C111.208 127.288 113.575 127.814 115.487 128.865C117.411 129.917 118.863 131.363 119.843 133.203C120.835 135.032 121.331 137.111 121.331 139.442C121.331 141.796 120.835 143.887 119.843 145.716C118.851 147.544 117.387 148.984 115.451 150.036C113.515 151.075 111.131 151.595 108.298 151.595H99.1742V146.128H107.402C109.051 146.128 110.402 145.841 111.453 145.267C112.505 144.694 113.282 143.905 113.784 142.901C114.298 141.897 114.555 140.744 114.555 139.442C114.555 138.139 114.298 136.992 113.784 136C113.282 135.008 112.499 134.237 111.436 133.687C110.384 133.126 109.027 132.845 107.366 132.845H101.272V164H94.621ZM133.31 127.288V164H126.82V127.288H133.31ZM147.906 164.556C146.161 164.556 144.589 164.245 143.191 163.624C141.805 162.99 140.706 162.058 139.893 160.827C139.092 159.596 138.692 158.078 138.692 156.274C138.692 154.72 138.979 153.436 139.552 152.42C140.126 151.404 140.909 150.591 141.901 149.982C142.892 149.372 144.01 148.912 145.253 148.602C146.508 148.279 147.804 148.046 149.143 147.903C150.756 147.735 152.065 147.586 153.068 147.454C154.072 147.311 154.801 147.096 155.255 146.809C155.721 146.51 155.955 146.05 155.955 145.429V145.321C155.955 143.971 155.554 142.925 154.753 142.184C153.953 141.443 152.8 141.073 151.294 141.073C149.704 141.073 148.444 141.419 147.511 142.112C146.591 142.806 145.97 143.624 145.647 144.568L139.588 143.708C140.066 142.035 140.855 140.637 141.954 139.513C143.054 138.378 144.398 137.529 145.988 136.968C147.577 136.394 149.334 136.107 151.258 136.107C152.584 136.107 153.905 136.263 155.22 136.573C156.534 136.884 157.735 137.398 158.823 138.115C159.91 138.82 160.783 139.782 161.44 141.001C162.109 142.22 162.444 143.744 162.444 145.572V164H156.205V160.218H155.99C155.596 160.982 155.04 161.7 154.323 162.369C153.618 163.026 152.728 163.558 151.652 163.964C150.589 164.359 149.34 164.556 147.906 164.556ZM149.591 159.787C150.893 159.787 152.023 159.53 152.979 159.017C153.935 158.491 154.67 157.798 155.184 156.937C155.71 156.077 155.972 155.139 155.972 154.123V150.878C155.769 151.046 155.423 151.201 154.933 151.344C154.455 151.488 153.917 151.613 153.319 151.721C152.722 151.828 152.13 151.924 151.545 152.008C150.959 152.091 150.451 152.163 150.021 152.223C149.053 152.354 148.187 152.569 147.422 152.868C146.657 153.167 146.053 153.585 145.611 154.123C145.169 154.649 144.948 155.33 144.948 156.166C144.948 157.361 145.384 158.264 146.257 158.873C147.129 159.483 148.24 159.787 149.591 159.787ZM175.458 147.867V164H168.969V136.466H175.171V141.144H175.494C176.127 139.603 177.137 138.378 178.523 137.47C179.921 136.561 181.648 136.107 183.704 136.107C185.604 136.107 187.259 136.514 188.669 137.326C190.091 138.139 191.191 139.316 191.968 140.858C192.756 142.399 193.145 144.27 193.133 146.468V164H186.644V147.472C186.644 145.632 186.166 144.192 185.21 143.152C184.265 142.112 182.957 141.593 181.284 141.593C180.148 141.593 179.139 141.844 178.254 142.346C177.382 142.835 176.695 143.547 176.193 144.479C175.703 145.411 175.458 146.54 175.458 147.867ZM206.219 147.867V164H199.73V136.466H205.932V141.144H206.255C206.888 139.603 207.898 138.378 209.284 137.47C210.682 136.561 212.409 136.107 214.465 136.107C216.365 136.107 218.02 136.514 219.43 137.326C220.852 138.139 221.952 139.316 222.728 140.858C223.517 142.399 223.906 144.27 223.894 146.468V164H217.404V147.472C217.404 145.632 216.926 144.192 215.97 143.152C215.026 142.112 213.718 141.593 212.045 141.593C210.909 141.593 209.9 141.844 209.015 142.346C208.143 142.835 207.456 143.547 206.954 144.479C206.464 145.411 206.219 146.54 206.219 147.867ZM230.49 164V136.466H236.98V164H230.49ZM233.753 132.558C232.725 132.558 231.841 132.217 231.1 131.536C230.359 130.843 229.988 130.012 229.988 129.044C229.988 128.065 230.359 127.234 231.1 126.553C231.841 125.86 232.725 125.513 233.753 125.513C234.793 125.513 235.677 125.86 236.406 126.553C237.147 127.234 237.517 128.065 237.517 129.044C237.517 130.012 237.147 130.843 236.406 131.536C235.677 132.217 234.793 132.558 233.753 132.558ZM250.142 147.867V164H243.652V136.466H249.855V141.144H250.178C250.811 139.603 251.821 138.378 253.207 137.47C254.605 136.561 256.332 136.107 258.388 136.107C260.288 136.107 261.943 136.514 263.353 137.326C264.775 138.139 265.875 139.316 266.651 140.858C267.44 142.399 267.829 144.27 267.817 146.468V164H261.327V147.472C261.327 145.632 260.849 144.192 259.893 143.152C258.949 142.112 257.641 141.593 255.968 141.593C254.832 141.593 253.822 141.844 252.938 142.346C252.066 142.835 251.379 143.547 250.877 144.479C250.387 145.411 250.142 146.54 250.142 147.867ZM286.388 174.899C284.057 174.899 282.056 174.582 280.383 173.949C278.71 173.327 277.365 172.491 276.349 171.439C275.334 170.388 274.628 169.222 274.234 167.944L280.078 166.528C280.341 167.065 280.723 167.597 281.225 168.123C281.727 168.661 282.402 169.103 283.251 169.449C284.111 169.808 285.193 169.987 286.495 169.987C288.336 169.987 289.859 169.539 291.066 168.643C292.274 167.758 292.877 166.3 292.877 164.269V159.052H292.554C292.22 159.722 291.73 160.409 291.084 161.114C290.451 161.819 289.609 162.411 288.557 162.889C287.517 163.367 286.209 163.606 284.631 163.606C282.516 163.606 280.598 163.11 278.877 162.118C277.168 161.114 275.806 159.62 274.79 157.636C273.786 155.641 273.284 153.143 273.284 150.143C273.284 147.12 273.786 144.568 274.79 142.489C275.806 140.398 277.174 138.814 278.895 137.739C280.616 136.651 282.534 136.107 284.649 136.107C286.262 136.107 287.589 136.382 288.629 136.932C289.68 137.47 290.517 138.121 291.138 138.886C291.76 139.639 292.232 140.35 292.554 141.019H292.913V136.466H299.312V164.448C299.312 166.802 298.751 168.75 297.627 170.292C296.504 171.834 294.968 172.987 293.02 173.752C291.072 174.517 288.862 174.899 286.388 174.899ZM286.442 158.515C287.816 158.515 288.987 158.18 289.955 157.511C290.923 156.842 291.658 155.88 292.16 154.625C292.662 153.37 292.913 151.864 292.913 150.107C292.913 148.375 292.662 146.857 292.16 145.554C291.67 144.252 290.941 143.242 289.973 142.525C289.017 141.796 287.84 141.431 286.442 141.431C284.996 141.431 283.789 141.808 282.821 142.561C281.853 143.314 281.124 144.347 280.634 145.662C280.144 146.964 279.899 148.446 279.899 150.107C279.899 151.792 280.144 153.268 280.634 154.535C281.136 155.79 281.871 156.77 282.839 157.475C283.818 158.168 285.019 158.515 286.442 158.515ZM332.233 136.466V141.485H316.405V136.466H332.233ZM320.313 129.869H326.802V155.718C326.802 156.591 326.933 157.26 327.196 157.726C327.471 158.18 327.83 158.491 328.272 158.658C328.714 158.825 329.204 158.909 329.742 158.909C330.148 158.909 330.518 158.879 330.853 158.819C331.2 158.76 331.463 158.706 331.642 158.658L332.735 163.731C332.389 163.851 331.893 163.982 331.247 164.125C330.614 164.269 329.837 164.353 328.917 164.376C327.292 164.424 325.828 164.179 324.525 163.641C323.223 163.092 322.189 162.243 321.424 161.096C320.671 159.949 320.301 158.515 320.313 156.794V129.869ZM349.375 164.538C346.686 164.538 344.356 163.946 342.384 162.763C340.412 161.58 338.882 159.925 337.795 157.798C336.719 155.67 336.182 153.185 336.182 150.34C336.182 147.496 336.719 145.005 337.795 142.865C338.882 140.726 340.412 139.065 342.384 137.882C344.356 136.699 346.686 136.107 349.375 136.107C352.064 136.107 354.394 136.699 356.366 137.882C358.338 139.065 359.862 140.726 360.937 142.865C362.025 145.005 362.568 147.496 362.568 150.34C362.568 153.185 362.025 155.67 360.937 157.798C359.862 159.925 358.338 161.58 356.366 162.763C354.394 163.946 352.064 164.538 349.375 164.538ZM349.411 159.339C350.869 159.339 352.088 158.939 353.068 158.138C354.048 157.326 354.777 156.238 355.255 154.876C355.745 153.513 355.99 151.996 355.99 150.323C355.99 148.638 355.745 147.114 355.255 145.751C354.777 144.377 354.048 143.284 353.068 142.471C352.088 141.658 350.869 141.252 349.411 141.252C347.917 141.252 346.674 141.658 345.682 142.471C344.702 143.284 343.967 144.377 343.477 145.751C342.999 147.114 342.76 148.638 342.76 150.323C342.76 151.996 342.999 153.513 343.477 154.876C343.967 156.238 344.702 157.326 345.682 158.138C346.674 158.939 347.917 159.339 349.411 159.339ZM94.621 197.288H102.759L113.658 223.89H114.089L124.988 197.288H133.126V234H126.744V208.778H126.404L116.258 233.892H111.489L101.343 208.724H101.003V234H94.621V197.288ZM152.091 234.538C149.403 234.538 147.072 233.946 145.1 232.763C143.129 231.58 141.599 229.925 140.511 227.798C139.436 225.67 138.898 223.185 138.898 220.34C138.898 217.496 139.436 215.005 140.511 212.865C141.599 210.726 143.129 209.065 145.1 207.882C147.072 206.699 149.403 206.107 152.091 206.107C154.78 206.107 157.111 206.699 159.083 207.882C161.054 209.065 162.578 210.726 163.654 212.865C164.741 215.005 165.285 217.496 165.285 220.34C165.285 223.185 164.741 225.67 163.654 227.798C162.578 229.925 161.054 231.58 159.083 232.763C157.111 233.946 154.78 234.538 152.091 234.538ZM152.127 229.339C153.585 229.339 154.804 228.939 155.784 228.138C156.764 227.326 157.493 226.238 157.971 224.876C158.461 223.513 158.706 221.996 158.706 220.323C158.706 218.638 158.461 217.114 157.971 215.751C157.493 214.377 156.764 213.284 155.784 212.471C154.804 211.658 153.585 211.252 152.127 211.252C150.633 211.252 149.391 211.658 148.399 212.471C147.419 213.284 146.684 214.377 146.194 215.751C145.716 217.114 145.477 218.638 145.477 220.323C145.477 221.996 145.716 223.513 146.194 224.876C146.684 226.238 147.419 227.326 148.399 228.138C149.391 228.939 150.633 229.339 152.127 229.339ZM194.45 206.466L184.645 234H177.475L167.669 206.466H174.588L180.916 226.919H181.203L187.549 206.466H194.45ZM210.194 234.538C207.433 234.538 205.049 233.964 203.041 232.817C201.046 231.658 199.51 230.02 198.434 227.905C197.359 225.778 196.821 223.274 196.821 220.394C196.821 217.562 197.359 215.076 198.434 212.937C199.522 210.786 201.04 209.113 202.988 207.918C204.936 206.711 207.224 206.107 209.853 206.107C211.55 206.107 213.152 206.382 214.657 206.932C216.175 207.47 217.514 208.306 218.673 209.442C219.844 210.577 220.764 212.023 221.433 213.78C222.103 215.524 222.437 217.604 222.437 220.018V222.008H199.868V217.634H216.217C216.205 216.391 215.936 215.285 215.41 214.317C214.884 213.337 214.149 212.567 213.205 212.005C212.273 211.443 211.186 211.162 209.943 211.162C208.616 211.162 207.451 211.485 206.447 212.13C205.443 212.764 204.661 213.6 204.099 214.64C203.549 215.668 203.268 216.797 203.256 218.028V221.846C203.256 223.448 203.549 224.822 204.135 225.969C204.72 227.105 205.539 227.977 206.591 228.586C207.642 229.184 208.873 229.483 210.283 229.483C211.228 229.483 212.082 229.351 212.847 229.088C213.612 228.813 214.275 228.413 214.837 227.887C215.398 227.361 215.823 226.71 216.109 225.933L222.168 226.615C221.786 228.216 221.057 229.614 219.981 230.809C218.918 231.992 217.555 232.912 215.894 233.57C214.233 234.215 212.333 234.538 210.194 234.538ZM238.225 197.288H245.736L254.717 213.529H255.076L264.057 197.288H271.568L258.213 220.305V234H251.58V220.305L238.225 197.288ZM282.874 234.538C280.185 234.538 277.855 233.946 275.883 232.763C273.911 231.58 272.382 229.925 271.294 227.798C270.219 225.67 269.681 223.185 269.681 220.34C269.681 217.496 270.219 215.005 271.294 212.865C272.382 210.726 273.911 209.065 275.883 207.882C277.855 206.699 280.185 206.107 282.874 206.107C285.563 206.107 287.894 206.699 289.865 207.882C291.837 209.065 293.361 210.726 294.437 212.865C295.524 215.005 296.068 217.496 296.068 220.34C296.068 223.185 295.524 225.67 294.437 227.798C293.361 229.925 291.837 231.58 289.865 232.763C287.894 233.946 285.563 234.538 282.874 234.538ZM282.91 229.339C284.368 229.339 285.587 228.939 286.567 228.138C287.547 227.326 288.276 226.238 288.754 224.876C289.244 223.513 289.489 221.996 289.489 220.323C289.489 218.638 289.244 217.114 288.754 215.751C288.276 214.377 287.547 213.284 286.567 212.471C285.587 211.658 284.368 211.252 282.91 211.252C281.416 211.252 280.174 211.658 279.182 212.471C278.202 213.284 277.467 214.377 276.977 215.751C276.499 217.114 276.26 218.638 276.26 220.323C276.26 221.996 276.499 223.513 276.977 224.876C277.467 226.238 278.202 227.326 279.182 228.138C280.174 228.939 281.416 229.339 282.91 229.339ZM319.125 222.42V206.466H325.614V234H319.322V229.106H319.035C318.414 230.648 317.392 231.909 315.97 232.889C314.56 233.869 312.821 234.359 310.754 234.359C308.949 234.359 307.354 233.958 305.967 233.157C304.593 232.345 303.518 231.168 302.741 229.626C301.964 228.073 301.576 226.196 301.576 223.997V206.466H308.065V222.993C308.065 224.738 308.543 226.125 309.499 227.152C310.455 228.18 311.71 228.694 313.263 228.694C314.219 228.694 315.145 228.461 316.042 227.995C316.938 227.529 317.673 226.836 318.247 225.915C318.832 224.983 319.125 223.818 319.125 222.42ZM332.287 234V206.466H338.579V211.055H338.866C339.368 209.465 340.228 208.24 341.447 207.38C342.678 206.508 344.082 206.071 345.66 206.071C346.018 206.071 346.419 206.089 346.861 206.125C347.315 206.149 347.691 206.191 347.99 206.251V212.22C347.715 212.124 347.279 212.041 346.682 211.969C346.096 211.885 345.528 211.844 344.979 211.844C343.796 211.844 342.732 212.101 341.788 212.614C340.856 213.116 340.121 213.815 339.583 214.712C339.045 215.608 338.776 216.642 338.776 217.813V234H332.287ZM363.496 202.863V197.288H392.787V202.863H381.44V234H374.843V202.863H363.496ZM402.324 234.556C400.579 234.556 399.007 234.245 397.609 233.624C396.223 232.99 395.123 232.058 394.311 230.827C393.51 229.596 393.11 228.078 393.11 226.274C393.11 224.72 393.396 223.436 393.97 222.42C394.544 221.404 395.327 220.591 396.318 219.982C397.31 219.372 398.428 218.912 399.671 218.602C400.925 218.279 402.222 218.046 403.56 217.903C405.174 217.735 406.482 217.586 407.486 217.454C408.49 217.311 409.219 217.096 409.673 216.809C410.139 216.51 410.372 216.05 410.372 215.429V215.321C410.372 213.971 409.972 212.925 409.171 212.184C408.371 211.443 407.217 211.073 405.712 211.073C404.122 211.073 402.861 211.419 401.929 212.112C401.009 212.806 400.388 213.624 400.065 214.568L394.006 213.708C394.484 212.035 395.273 210.637 396.372 209.513C397.472 208.378 398.816 207.529 400.406 206.968C401.995 206.394 403.752 206.107 405.676 206.107C407.002 206.107 408.323 206.263 409.637 206.573C410.952 206.884 412.153 207.398 413.24 208.115C414.328 208.82 415.2 209.782 415.858 211.001C416.527 212.22 416.862 213.744 416.862 215.572V234H410.623V230.218H410.408C410.014 230.982 409.458 231.7 408.741 232.369C408.036 233.026 407.146 233.558 406.07 233.964C405.007 234.359 403.758 234.556 402.324 234.556ZM404.009 229.787C405.311 229.787 406.441 229.53 407.397 229.017C408.353 228.491 409.088 227.798 409.602 226.937C410.127 226.077 410.39 225.139 410.39 224.123V220.878C410.187 221.046 409.841 221.201 409.351 221.344C408.873 221.488 408.335 221.613 407.737 221.721C407.14 221.828 406.548 221.924 405.963 222.008C405.377 222.091 404.869 222.163 404.439 222.223C403.471 222.354 402.604 222.569 401.84 222.868C401.075 223.167 400.471 223.585 400.029 224.123C399.587 224.649 399.366 225.33 399.366 226.166C399.366 227.361 399.802 228.264 400.674 228.873C401.547 229.483 402.658 229.787 404.009 229.787ZM428.693 206.466L434.25 216.63L439.896 206.466H446.762L438.462 220.233L446.905 234H440.076L434.25 224.087L428.477 234H421.594L429.983 220.233L421.809 206.466H428.693ZM94.621 304V267.288H108.388C111.208 267.288 113.575 267.814 115.487 268.865C117.411 269.917 118.863 271.363 119.843 273.203C120.835 275.032 121.331 277.111 121.331 279.442C121.331 281.796 120.835 283.887 119.843 285.716C118.851 287.544 117.387 288.984 115.451 290.036C113.515 291.075 111.131 291.595 108.298 291.595H99.1742V286.128H107.402C109.051 286.128 110.402 285.841 111.453 285.267C112.505 284.694 113.282 283.905 113.784 282.901C114.298 281.897 114.555 280.744 114.555 279.442C114.555 278.139 114.298 276.992 113.784 276C113.282 275.008 112.499 274.237 111.436 273.687C110.384 273.126 109.027 272.845 107.366 272.845H101.272V304H94.621ZM126.82 304V276.466H133.112V281.055H133.399C133.901 279.465 134.762 278.24 135.981 277.38C137.211 276.508 138.616 276.071 140.193 276.071C140.552 276.071 140.952 276.089 141.394 276.125C141.848 276.149 142.225 276.191 142.524 276.251V282.22C142.249 282.124 141.812 282.041 141.215 281.969C140.629 281.885 140.062 281.844 139.512 281.844C138.329 281.844 137.265 282.101 136.321 282.614C135.389 283.116 134.654 283.815 134.116 284.712C133.578 285.608 133.31 286.642 133.31 287.813V304H126.82ZM154.265 304.556C152.52 304.556 150.949 304.245 149.55 303.624C148.164 302.99 147.065 302.058 146.252 300.827C145.451 299.596 145.051 298.078 145.051 296.274C145.051 294.72 145.338 293.436 145.912 292.42C146.485 291.404 147.268 290.591 148.26 289.982C149.252 289.372 150.369 288.912 151.612 288.602C152.867 288.279 154.163 288.046 155.502 287.903C157.115 287.735 158.424 287.586 159.428 287.454C160.431 287.311 161.16 287.096 161.615 286.809C162.081 286.51 162.314 286.05 162.314 285.429V285.321C162.314 283.971 161.913 282.925 161.113 282.184C160.312 281.443 159.159 281.073 157.653 281.073C156.064 281.073 154.803 281.419 153.871 282.112C152.95 282.806 152.329 283.624 152.006 284.568L145.947 283.708C146.425 282.035 147.214 280.637 148.314 279.513C149.413 278.378 150.757 277.529 152.347 276.968C153.936 276.394 155.693 276.107 157.617 276.107C158.944 276.107 160.264 276.263 161.579 276.573C162.893 276.884 164.094 277.398 165.182 278.115C166.269 278.82 167.142 279.782 167.799 281.001C168.468 282.22 168.803 283.744 168.803 285.572V304H162.565V300.218H162.35C161.955 300.982 161.399 301.7 160.682 302.369C159.977 303.026 159.087 303.558 158.011 303.964C156.948 304.359 155.699 304.556 154.265 304.556ZM155.95 299.787C157.253 299.787 158.382 299.53 159.338 299.017C160.294 298.491 161.029 297.798 161.543 296.937C162.069 296.077 162.332 295.139 162.332 294.123V290.878C162.128 291.046 161.782 291.201 161.292 291.344C160.814 291.488 160.276 291.613 159.679 291.721C159.081 291.828 158.49 291.924 157.904 292.008C157.318 292.091 156.81 292.163 156.38 292.223C155.412 292.354 154.546 292.569 153.781 292.868C153.016 293.167 152.413 293.585 151.97 294.123C151.528 294.649 151.307 295.33 151.307 296.166C151.307 297.361 151.743 298.264 152.616 298.873C153.488 299.483 154.6 299.787 155.95 299.787ZM187.338 304.538C184.59 304.538 182.229 303.934 180.258 302.727C178.298 301.52 176.786 299.853 175.722 297.726C174.671 295.587 174.145 293.125 174.145 290.34C174.145 287.544 174.683 285.076 175.758 282.937C176.834 280.786 178.351 279.113 180.311 277.918C182.283 276.711 184.614 276.107 187.302 276.107C189.537 276.107 191.515 276.52 193.236 277.344C194.969 278.157 196.349 279.31 197.377 280.804C198.405 282.286 198.99 284.019 199.134 286.002H192.931C192.68 284.676 192.083 283.57 191.139 282.686C190.206 281.79 188.958 281.342 187.392 281.342C186.066 281.342 184.9 281.7 183.896 282.417C182.893 283.122 182.11 284.138 181.548 285.465C180.998 286.791 180.724 288.381 180.724 290.233C180.724 292.109 180.998 293.722 181.548 295.073C182.098 296.411 182.869 297.445 183.861 298.174C184.864 298.891 186.042 299.25 187.392 299.25C188.348 299.25 189.203 299.07 189.955 298.712C190.72 298.341 191.36 297.81 191.874 297.116C192.387 296.423 192.74 295.581 192.931 294.589H199.134C198.978 296.537 198.405 298.264 197.413 299.769C196.421 301.263 195.07 302.434 193.361 303.283C191.652 304.12 189.645 304.538 187.338 304.538ZM218.211 276.466V281.485H202.383V276.466H218.211ZM206.29 269.869H212.78V295.718C212.78 296.591 212.911 297.26 213.174 297.726C213.449 298.18 213.807 298.491 214.25 298.658C214.692 298.825 215.182 298.909 215.719 298.909C216.126 298.909 216.496 298.879 216.831 298.819C217.177 298.76 217.44 298.706 217.62 298.658L218.713 303.731C218.367 303.851 217.871 303.982 217.225 304.125C216.592 304.269 215.815 304.353 214.895 304.376C213.27 304.424 211.806 304.179 210.503 303.641C209.2 303.092 208.167 302.243 207.402 301.096C206.649 299.949 206.278 298.515 206.29 296.794V269.869ZM223.638 304V276.466H230.127V304H223.638ZM226.901 272.558C225.873 272.558 224.989 272.217 224.248 271.536C223.507 270.843 223.136 270.012 223.136 269.044C223.136 268.065 223.507 267.234 224.248 266.553C224.989 265.86 225.873 265.513 226.901 265.513C227.94 265.513 228.825 265.86 229.554 266.553C230.295 267.234 230.665 268.065 230.665 269.044C230.665 270.012 230.295 270.843 229.554 271.536C228.825 272.217 227.94 272.558 226.901 272.558ZM248.811 304.538C246.062 304.538 243.702 303.934 241.73 302.727C239.77 301.52 238.258 299.853 237.195 297.726C236.143 295.587 235.617 293.125 235.617 290.34C235.617 287.544 236.155 285.076 237.231 282.937C238.306 280.786 239.824 279.113 241.784 277.918C243.756 276.711 246.086 276.107 248.775 276.107C251.01 276.107 252.987 276.52 254.708 277.344C256.441 278.157 257.821 279.31 258.849 280.804C259.877 282.286 260.463 284.019 260.606 286.002H254.404C254.153 284.676 253.555 283.57 252.611 282.686C251.679 281.79 250.43 281.342 248.864 281.342C247.538 281.342 246.373 281.7 245.369 282.417C244.365 283.122 243.582 284.138 243.021 285.465C242.471 286.791 242.196 288.381 242.196 290.233C242.196 292.109 242.471 293.722 243.021 295.073C243.57 296.411 244.341 297.445 245.333 298.174C246.337 298.891 247.514 299.25 248.864 299.25C249.82 299.25 250.675 299.07 251.428 298.712C252.193 298.341 252.832 297.81 253.346 297.116C253.86 296.423 254.212 295.581 254.404 294.589H260.606C260.451 296.537 259.877 298.264 258.885 299.769C257.893 301.263 256.543 302.434 254.834 303.283C253.125 304.12 251.117 304.538 248.811 304.538ZM278.124 304.538C275.363 304.538 272.979 303.964 270.972 302.817C268.976 301.658 267.44 300.02 266.365 297.905C265.289 295.778 264.751 293.274 264.751 290.394C264.751 287.562 265.289 285.076 266.365 282.937C267.452 280.786 268.97 279.113 270.918 277.918C272.866 276.711 275.154 276.107 277.783 276.107C279.48 276.107 281.082 276.382 282.588 276.932C284.105 277.47 285.444 278.306 286.603 279.442C287.774 280.577 288.694 282.023 289.364 283.78C290.033 285.524 290.367 287.604 290.367 290.018V292.008H267.799V287.634H284.147C284.135 286.391 283.866 285.285 283.34 284.317C282.815 283.337 282.08 282.567 281.136 282.005C280.203 281.443 279.116 281.162 277.873 281.162C276.547 281.162 275.381 281.485 274.377 282.13C273.374 282.764 272.591 283.6 272.029 284.64C271.479 285.668 271.199 286.797 271.187 288.028V291.846C271.187 293.448 271.479 294.822 272.065 295.969C272.651 297.105 273.469 297.977 274.521 298.586C275.573 299.184 276.803 299.483 278.214 299.483C279.158 299.483 280.012 299.351 280.777 299.088C281.542 298.813 282.205 298.413 282.767 297.887C283.328 297.361 283.753 296.71 284.04 295.933L290.098 296.615C289.716 298.216 288.987 299.614 287.912 300.809C286.848 301.992 285.486 302.912 283.824 303.57C282.163 304.215 280.263 304.538 278.124 304.538ZM322.128 276.466V281.485H306.299V276.466H322.128ZM310.207 269.869H316.696V295.718C316.696 296.591 316.828 297.26 317.09 297.726C317.365 298.18 317.724 298.491 318.166 298.658C318.608 298.825 319.098 298.909 319.636 298.909C320.042 298.909 320.413 298.879 320.747 298.819C321.094 298.76 321.357 298.706 321.536 298.658L322.63 303.731C322.283 303.851 321.787 303.982 321.142 304.125C320.508 304.269 319.732 304.353 318.811 304.376C317.186 304.424 315.722 304.179 314.419 303.641C313.117 303.092 312.083 302.243 311.318 301.096C310.565 299.949 310.195 298.515 310.207 296.794V269.869ZM339.269 304.538C336.58 304.538 334.25 303.946 332.278 302.763C330.306 301.58 328.777 299.925 327.689 297.798C326.614 295.67 326.076 293.185 326.076 290.34C326.076 287.496 326.614 285.005 327.689 282.865C328.777 280.726 330.306 279.065 332.278 277.882C334.25 276.699 336.58 276.107 339.269 276.107C341.958 276.107 344.288 276.699 346.26 277.882C348.232 279.065 349.756 280.726 350.831 282.865C351.919 285.005 352.463 287.496 352.463 290.34C352.463 293.185 351.919 295.67 350.831 297.798C349.756 299.925 348.232 301.58 346.26 302.763C344.288 303.946 341.958 304.538 339.269 304.538ZM339.305 299.339C340.763 299.339 341.982 298.939 342.962 298.138C343.942 297.326 344.671 296.238 345.149 294.876C345.639 293.513 345.884 291.996 345.884 290.323C345.884 288.638 345.639 287.114 345.149 285.751C344.671 284.377 343.942 283.284 342.962 282.471C341.982 281.658 340.763 281.252 339.305 281.252C337.811 281.252 336.568 281.658 335.577 282.471C334.597 283.284 333.862 284.377 333.372 285.751C332.894 287.114 332.655 288.638 332.655 290.323C332.655 291.996 332.894 293.513 333.372 294.876C333.862 296.238 334.597 297.326 335.577 298.138C336.568 298.939 337.811 299.339 339.305 299.339ZM369.165 272.863V267.288H398.456V272.863H387.109V304H380.512V272.863H369.165ZM410.305 287.867V304H403.816V267.288H410.162V281.144H410.484C411.13 279.591 412.128 278.366 413.478 277.47C414.84 276.561 416.573 276.107 418.677 276.107C420.589 276.107 422.256 276.508 423.678 277.308C425.1 278.109 426.199 279.28 426.976 280.822C427.765 282.363 428.159 284.246 428.159 286.468V304H421.67V287.472C421.67 285.62 421.192 284.18 420.236 283.152C419.292 282.112 417.965 281.593 416.257 281.593C415.109 281.593 414.082 281.844 413.173 282.346C412.277 282.835 411.572 283.547 411.058 284.479C410.556 285.411 410.305 286.54 410.305 287.867ZM446.964 304.538C444.203 304.538 441.819 303.964 439.811 302.817C437.815 301.658 436.28 300.02 435.204 297.905C434.129 295.778 433.591 293.274 433.591 290.394C433.591 287.562 434.129 285.076 435.204 282.937C436.292 280.786 437.809 279.113 439.757 277.918C441.705 276.711 443.994 276.107 446.623 276.107C448.32 276.107 449.921 276.382 451.427 276.932C452.945 277.47 454.283 278.306 455.443 279.442C456.614 280.577 457.534 282.023 458.203 283.78C458.872 285.524 459.207 287.604 459.207 290.018V292.008H436.638V287.634H452.987C452.975 286.391 452.706 285.285 452.18 284.317C451.654 283.337 450.919 282.567 449.975 282.005C449.043 281.443 447.955 281.162 446.713 281.162C445.386 281.162 444.221 281.485 443.217 282.13C442.213 282.764 441.43 283.6 440.869 284.64C440.319 285.668 440.038 286.797 440.026 288.028V291.846C440.026 293.448 440.319 294.822 440.905 295.969C441.49 297.105 442.309 297.977 443.36 298.586C444.412 299.184 445.643 299.483 447.053 299.483C447.997 299.483 448.852 299.351 449.617 299.088C450.381 298.813 451.045 298.413 451.606 297.887C452.168 297.361 452.592 296.71 452.879 295.933L458.938 296.615C458.556 298.216 457.827 299.614 456.751 300.809C455.687 301.992 454.325 302.912 452.664 303.57C451.003 304.215 449.103 304.538 446.964 304.538Z" fill="white"/>
<path d="M181.626 433.328H151.929C151.718 430.871 151.156 428.642 150.244 426.641C149.366 424.64 148.138 422.92 146.558 421.481C145.013 420.006 143.135 418.883 140.924 418.111C138.712 417.303 136.203 416.9 133.394 416.9C128.48 416.9 124.32 418.093 120.915 420.48C117.545 422.867 114.983 426.29 113.228 430.748C111.508 435.206 110.648 440.559 110.648 446.807C110.648 453.407 111.525 458.935 113.28 463.394C115.071 467.817 117.651 471.151 121.021 473.398C124.39 475.609 128.445 476.715 133.184 476.715C135.887 476.715 138.309 476.382 140.45 475.715C142.591 475.013 144.452 474.012 146.031 472.713C147.611 471.415 148.892 469.852 149.875 468.027C150.893 466.167 151.578 464.078 151.929 461.761L181.626 461.972C181.275 466.535 179.994 471.186 177.782 475.925C175.571 480.629 172.429 484.982 168.357 488.984C164.32 492.95 159.318 496.145 153.35 498.567C147.383 500.989 140.45 502.2 132.552 502.2C122.653 502.2 113.772 500.076 105.909 495.829C98.0807 491.581 91.885 485.333 87.3216 477.084C82.7933 468.834 80.5292 458.742 80.5292 446.807C80.5292 434.802 82.846 424.692 87.4796 416.478C92.1132 408.229 98.3615 401.998 106.225 397.786C114.088 393.539 122.863 391.415 132.552 391.415C139.362 391.415 145.628 392.345 151.35 394.205C157.071 396.066 162.091 398.786 166.409 402.367C170.726 405.912 174.202 410.283 176.834 415.478C179.467 420.673 181.064 426.623 181.626 433.328ZM194.908 500.726V392.889H224.184V477.136H267.782V500.726H194.908ZM379.883 446.807C379.883 458.813 377.549 468.94 372.88 477.189C368.212 485.403 361.911 491.634 353.977 495.881C346.044 500.094 337.198 502.2 327.439 502.2C317.611 502.2 308.73 500.076 300.796 495.829C292.898 491.546 286.615 485.298 281.946 477.084C277.312 468.834 274.996 458.742 274.996 446.807C274.996 434.802 277.312 424.692 281.946 416.478C286.615 408.229 292.898 401.998 300.796 397.786C308.73 393.539 317.611 391.415 327.439 391.415C337.198 391.415 346.044 393.539 353.977 397.786C361.911 401.998 368.212 408.229 372.88 416.478C377.549 424.692 379.883 434.802 379.883 446.807ZM349.765 446.807C349.765 440.348 348.905 434.907 347.185 430.484C345.5 426.026 342.99 422.656 339.655 420.375C336.356 418.058 332.284 416.9 327.439 416.9C322.595 416.9 318.506 418.058 315.171 420.375C311.871 422.656 309.361 426.026 307.641 430.484C305.956 434.907 305.114 440.348 305.114 446.807C305.114 453.266 305.956 458.725 307.641 463.183C309.361 467.606 311.871 470.976 315.171 473.293C318.506 475.574 322.595 476.715 327.439 476.715C332.284 476.715 336.356 475.574 339.655 473.293C342.99 470.976 345.5 467.606 347.185 463.183C348.905 458.725 349.765 453.266 349.765 446.807ZM457.246 392.889H486.522V461.972C486.522 470.186 484.556 477.294 480.625 483.297C476.728 489.264 471.287 493.88 464.302 497.145C457.316 500.375 449.207 501.989 439.975 501.989C430.673 501.989 422.529 500.375 415.544 497.145C408.558 493.88 403.117 489.264 399.221 483.297C395.359 477.294 393.429 470.186 393.429 461.972V392.889H422.705V459.444C422.705 462.779 423.442 465.763 424.916 468.396C426.39 470.993 428.426 473.029 431.024 474.504C433.657 475.978 436.641 476.715 439.975 476.715C443.345 476.715 446.329 475.978 448.927 474.504C451.524 473.029 453.56 470.993 455.035 468.396C456.509 465.763 457.246 462.779 457.246 459.444V392.889ZM541.928 500.726H500.436V392.889H541.506C552.599 392.889 562.182 395.048 570.256 399.366C578.365 403.648 584.613 409.826 589.001 417.9C593.424 425.939 595.635 435.574 595.635 446.807C595.635 458.04 593.441 467.694 589.053 475.767C584.666 483.806 578.452 489.984 570.414 494.302C562.375 498.584 552.88 500.726 541.928 500.726ZM529.712 475.873H540.875C546.21 475.873 550.756 475.013 554.512 473.293C558.303 471.573 561.182 468.606 563.147 464.394C565.148 460.182 566.149 454.319 566.149 446.807C566.149 439.295 565.131 433.433 563.095 429.221C561.094 425.008 558.145 422.042 554.249 420.322C550.388 418.602 545.649 417.742 540.032 417.742H529.712V475.873ZM643.301 392.889L640.563 467.027H616.552L613.814 392.889H643.301ZM628.558 502.411C624.486 502.411 620.993 500.989 618.079 498.146C615.201 495.267 613.779 491.774 613.814 487.667C613.779 483.666 615.201 480.243 618.079 477.4C620.993 474.556 624.486 473.135 628.558 473.135C632.419 473.135 635.824 474.556 638.773 477.4C641.756 480.243 643.266 483.666 643.301 487.667C643.266 490.405 642.546 492.898 641.142 495.144C639.773 497.356 637.983 499.128 635.771 500.462C633.56 501.761 631.155 502.411 628.558 502.411Z" fill="white"/>
<rect x="-74" y="619" width="904" height="109" rx="54.5" fill="#EBCD34"/>
<path fill-rule="evenodd" clip-rule="evenodd" d="M589 35C585.134 35 582 38.134 582 42C582 45.866 585.134 49 589 49H639C642.866 49 646 45.866 646 42C646 38.134 642.866 35 639 35H589ZM604 63C600.134 63 597 66.134 597 70C597 73.866 600.134 77 604 77H718C721.866 77 725 73.866 725 70C725 66.134 721.866 63 718 63H604ZM544 68C544 64.134 547.134 61 551 61H565C568.866 61 572 64.134 572 68C572 71.866 568.866 75 565 75H551C547.134 75 544 71.866 544 68ZM569 87C565.134 87 562 90.134 562 94C562 97.866 565.134 101 569 101H683C686.866 101 690 97.866 690 94C690 90.134 686.866 87 683 87H569Z" fill="#2D7899"/>
<path d="M136.736 667.329C136.515 666.559 136.203 665.878 135.802 665.286C135.401 664.685 134.91 664.178 134.329 663.766C133.759 663.344 133.104 663.022 132.365 662.8C131.637 662.578 130.829 662.468 129.943 662.468C128.285 662.468 126.828 662.879 125.572 663.703C124.326 664.526 123.355 665.725 122.658 667.298C121.961 668.86 121.613 670.771 121.613 673.03C121.613 675.29 121.956 677.211 122.642 678.795C123.328 680.378 124.3 681.587 125.556 682.421C126.812 683.245 128.296 683.656 130.006 683.656C131.558 683.656 132.883 683.382 133.981 682.833C135.089 682.273 135.934 681.487 136.515 680.473C137.106 679.46 137.401 678.262 137.401 676.879L138.795 677.084H130.433V671.922H144.005V676.008C144.005 678.858 143.403 681.307 142.2 683.356C140.996 685.393 139.339 686.966 137.227 688.075C135.116 689.173 132.698 689.722 129.974 689.722C126.934 689.722 124.263 689.051 121.961 687.711C119.66 686.359 117.865 684.443 116.577 681.962C115.299 679.47 114.661 676.514 114.661 673.094C114.661 670.465 115.041 668.121 115.801 666.062C116.571 663.993 117.648 662.241 119.031 660.805C120.414 659.369 122.024 658.276 123.861 657.527C125.698 656.777 127.688 656.402 129.832 656.402C131.669 656.402 133.379 656.672 134.963 657.21C136.546 657.738 137.95 658.487 139.175 659.459C140.41 660.43 141.418 661.586 142.2 662.927C142.981 664.257 143.482 665.725 143.704 667.329H136.736ZM160.114 689.753C157.612 689.753 155.459 689.247 153.653 688.233C151.859 687.209 150.475 685.763 149.504 683.894C148.533 682.015 148.047 679.792 148.047 677.227C148.047 674.725 148.533 672.529 149.504 670.639C150.475 668.749 151.843 667.277 153.606 666.221C155.379 665.165 157.459 664.637 159.845 664.637C161.45 664.637 162.944 664.896 164.327 665.413C165.721 665.92 166.935 666.685 167.969 667.709C169.014 668.733 169.827 670.021 170.408 671.573C170.989 673.115 171.279 674.92 171.279 676.989V678.842H150.739V674.661H164.929C164.929 673.69 164.718 672.83 164.295 672.08C163.873 671.331 163.287 670.745 162.537 670.322C161.798 669.889 160.938 669.673 159.956 669.673C158.932 669.673 158.024 669.911 157.232 670.386C156.451 670.85 155.839 671.478 155.395 672.27C154.952 673.051 154.725 673.922 154.714 674.883V678.858C154.714 680.062 154.936 681.102 155.379 681.978C155.833 682.854 156.472 683.53 157.296 684.005C158.119 684.48 159.096 684.717 160.225 684.717C160.975 684.717 161.661 684.612 162.284 684.401C162.907 684.19 163.44 683.873 163.883 683.451C164.327 683.028 164.665 682.511 164.897 681.899L171.136 682.31C170.82 683.81 170.17 685.119 169.189 686.238C168.217 687.346 166.961 688.212 165.42 688.835C163.889 689.447 162.12 689.753 160.114 689.753ZM188.62 664.954V670.021H173.971V664.954H188.62ZM177.297 659.126H184.043V681.804C184.043 682.427 184.138 682.912 184.328 683.261C184.518 683.598 184.782 683.836 185.12 683.973C185.468 684.11 185.869 684.179 186.323 684.179C186.64 684.179 186.957 684.153 187.274 684.1C187.59 684.037 187.833 683.989 188.002 683.957L189.063 688.977C188.725 689.083 188.25 689.204 187.638 689.342C187.026 689.489 186.281 689.579 185.405 689.611C183.779 689.674 182.354 689.458 181.129 688.962C179.915 688.465 178.97 687.695 178.294 686.65C177.619 685.604 177.286 684.285 177.297 682.69V659.126ZM215.26 689.722C212.895 689.722 210.789 689.315 208.942 688.502C207.105 687.679 205.653 686.549 204.587 685.113C203.531 683.667 202.987 681.999 202.955 680.109H209.86C209.902 680.901 210.161 681.598 210.636 682.2C211.122 682.791 211.766 683.25 212.568 683.577C213.37 683.905 214.273 684.068 215.276 684.068C216.321 684.068 217.245 683.883 218.047 683.514C218.85 683.144 219.478 682.632 219.932 681.978C220.386 681.323 220.613 680.568 220.613 679.713C220.613 678.848 220.37 678.082 219.884 677.417C219.409 676.741 218.723 676.213 217.826 675.833C216.939 675.453 215.883 675.263 214.658 675.263H211.634V670.227H214.658C215.693 670.227 216.606 670.048 217.398 669.689C218.2 669.33 218.823 668.834 219.267 668.2C219.71 667.556 219.932 666.807 219.932 665.952C219.932 665.139 219.737 664.426 219.346 663.814C218.966 663.191 218.427 662.705 217.731 662.357C217.044 662.008 216.242 661.834 215.324 661.834C214.394 661.834 213.545 662.003 212.774 662.341C212.003 662.668 211.386 663.138 210.921 663.75C210.457 664.363 210.208 665.081 210.177 665.904H203.605C203.636 664.035 204.17 662.388 205.204 660.963C206.239 659.538 207.632 658.424 209.385 657.622C211.148 656.809 213.138 656.402 215.355 656.402C217.593 656.402 219.552 656.809 221.23 657.622C222.909 658.435 224.213 659.533 225.142 660.916C226.082 662.288 226.546 663.83 226.536 665.54C226.546 667.356 225.981 668.871 224.841 670.085C223.711 671.299 222.239 672.07 220.423 672.397V672.65C222.809 672.956 224.625 673.785 225.87 675.137C227.127 676.477 227.75 678.156 227.739 680.172C227.75 682.02 227.217 683.662 226.14 685.098C225.073 686.533 223.601 687.663 221.721 688.487C219.842 689.31 217.688 689.722 215.26 689.722ZM243.179 656.846H251.636L260.568 678.636H260.948L269.879 656.846H278.336V689.278H271.685V668.169H271.415L263.022 689.12H258.493L250.1 668.089H249.831V689.278H243.179V656.846ZM294.849 689.753C292.389 689.753 290.262 689.231 288.467 688.186C286.683 687.13 285.305 685.662 284.334 683.783C283.363 681.893 282.877 679.703 282.877 677.211C282.877 674.698 283.363 672.502 284.334 670.623C285.305 668.733 286.683 667.266 288.467 666.221C290.262 665.165 292.389 664.637 294.849 664.637C297.309 664.637 299.431 665.165 301.215 666.221C303.01 667.266 304.393 668.733 305.364 670.623C306.336 672.502 306.821 674.698 306.821 677.211C306.821 679.703 306.336 681.893 305.364 683.783C304.393 685.662 303.01 687.13 301.215 688.186C299.431 689.231 297.309 689.753 294.849 689.753ZM294.881 684.527C296 684.527 296.934 684.211 297.684 683.577C298.433 682.933 298.998 682.057 299.378 680.948C299.769 679.84 299.964 678.578 299.964 677.164C299.964 675.749 299.769 674.487 299.378 673.379C298.998 672.27 298.433 671.394 297.684 670.75C296.934 670.106 296 669.784 294.881 669.784C293.751 669.784 292.801 670.106 292.03 670.75C291.27 671.394 290.695 672.27 290.304 673.379C289.924 674.487 289.734 675.749 289.734 677.164C289.734 678.578 289.924 679.84 290.304 680.948C290.695 682.057 291.27 682.933 292.03 683.577C292.801 684.211 293.751 684.527 294.881 684.527ZM317.954 675.216V689.278H311.208V664.954H317.637V669.245H317.922C318.461 667.831 319.364 666.712 320.63 665.888C321.897 665.054 323.433 664.637 325.239 664.637C326.928 664.637 328.401 665.007 329.657 665.746C330.913 666.485 331.89 667.54 332.587 668.913C333.284 670.275 333.632 671.901 333.632 673.79V689.278H326.886V674.994C326.896 673.505 326.516 672.344 325.746 671.51C324.975 670.665 323.914 670.243 322.562 670.243C321.655 670.243 320.852 670.438 320.155 670.829C319.469 671.22 318.931 671.79 318.54 672.539C318.16 673.278 317.965 674.171 317.954 675.216ZM351.887 664.954V670.021H337.239V664.954H351.887ZM340.564 659.126H347.311V681.804C347.311 682.427 347.406 682.912 347.596 683.261C347.786 683.598 348.05 683.836 348.387 683.973C348.736 684.11 349.137 684.179 349.591 684.179C349.908 684.179 350.224 684.153 350.541 684.1C350.858 684.037 351.101 683.989 351.27 683.957L352.331 688.977C351.993 689.083 351.518 689.204 350.905 689.342C350.293 689.489 349.549 689.579 348.672 689.611C347.047 689.674 345.621 689.458 344.397 688.962C343.183 688.465 342.238 687.695 341.562 686.65C340.886 685.604 340.554 684.285 340.564 682.69V659.126ZM363.551 675.216V689.278H356.804V656.846H363.361V669.245H363.646C364.195 667.81 365.081 666.685 366.306 665.872C367.531 665.049 369.067 664.637 370.914 664.637C372.604 664.637 374.076 665.007 375.333 665.746C376.6 666.474 377.582 667.525 378.278 668.897C378.986 670.259 379.334 671.89 379.323 673.79V689.278H372.577V674.994C372.588 673.495 372.208 672.328 371.437 671.494C370.677 670.66 369.611 670.243 368.238 670.243C367.32 670.243 366.507 670.438 365.799 670.829C365.103 671.22 364.554 671.79 364.152 672.539C363.762 673.278 363.561 674.171 363.551 675.216ZM404.871 671.89L398.695 672.27C398.59 671.742 398.363 671.267 398.014 670.845C397.666 670.412 397.207 670.069 396.636 669.816C396.077 669.552 395.407 669.42 394.625 669.42C393.58 669.42 392.699 669.641 391.981 670.085C391.263 670.518 390.904 671.098 390.904 671.827C390.904 672.407 391.136 672.898 391.601 673.3C392.065 673.701 392.862 674.023 393.992 674.266L398.394 675.152C400.759 675.638 402.522 676.419 403.684 677.496C404.845 678.573 405.426 679.988 405.426 681.74C405.426 683.334 404.956 684.733 404.016 685.937C403.087 687.14 401.81 688.08 400.184 688.756C398.568 689.421 396.705 689.753 394.594 689.753C391.374 689.753 388.808 689.083 386.897 687.742C384.997 686.391 383.883 684.554 383.556 682.231L390.191 681.883C390.392 682.865 390.877 683.614 391.648 684.132C392.419 684.638 393.406 684.892 394.609 684.892C395.792 684.892 396.742 684.665 397.46 684.211C398.188 683.746 398.558 683.15 398.568 682.421C398.558 681.809 398.299 681.307 397.792 680.917C397.286 680.516 396.504 680.209 395.449 679.998L391.236 679.159C388.861 678.684 387.092 677.86 385.931 676.689C384.78 675.517 384.205 674.023 384.205 672.207C384.205 670.644 384.627 669.298 385.472 668.169C386.327 667.039 387.525 666.168 389.067 665.556C390.619 664.943 392.435 664.637 394.514 664.637C397.587 664.637 400.004 665.286 401.767 666.585C403.541 667.884 404.576 669.652 404.871 671.89ZM420.122 689.278V656.846H441.595V662.499H426.979V670.227H440.17V675.881H426.979V689.278H420.122ZM445.689 689.278V664.954H452.229V669.198H452.483C452.926 667.688 453.671 666.548 454.716 665.777C455.761 664.996 456.965 664.605 458.326 664.605C458.664 664.605 459.029 664.627 459.419 664.669C459.81 664.711 460.153 664.769 460.449 664.843V670.829C460.132 670.734 459.694 670.65 459.134 670.576C458.575 670.502 458.063 670.465 457.598 670.465C456.606 670.465 455.719 670.681 454.937 671.114C454.167 671.536 453.554 672.128 453.1 672.888C452.657 673.648 452.435 674.524 452.435 675.517V689.278H445.689ZM473.89 689.753C471.387 689.753 469.234 689.247 467.428 688.233C465.634 687.209 464.251 685.763 463.279 683.894C462.308 682.015 461.822 679.792 461.822 677.227C461.822 674.725 462.308 672.529 463.279 670.639C464.251 668.749 465.618 667.277 467.381 666.221C469.154 665.165 471.234 664.637 473.62 664.637C475.225 664.637 476.719 664.896 478.102 665.413C479.496 665.92 480.71 666.685 481.744 667.709C482.789 668.733 483.602 670.021 484.183 671.573C484.764 673.115 485.054 674.92 485.054 676.989V678.842H464.514V674.661H478.704C478.704 673.69 478.493 672.83 478.07 672.08C477.648 671.331 477.062 670.745 476.312 670.322C475.573 669.889 474.713 669.673 473.731 669.673C472.707 669.673 471.799 669.911 471.007 670.386C470.226 670.85 469.614 671.478 469.17 672.27C468.727 673.051 468.5 673.922 468.489 674.883V678.858C468.489 680.062 468.711 681.102 469.154 681.978C469.608 682.854 470.247 683.53 471.071 684.005C471.894 684.48 472.871 684.717 474 684.717C474.75 684.717 475.436 684.612 476.059 684.401C476.682 684.19 477.215 683.873 477.659 683.451C478.102 683.028 478.44 682.511 478.672 681.899L484.912 682.31C484.595 683.81 483.946 685.119 482.964 686.238C481.992 687.346 480.736 688.212 479.195 688.835C477.664 689.447 475.895 689.753 473.89 689.753ZM500.542 689.753C498.04 689.753 495.886 689.247 494.081 688.233C492.286 687.209 490.903 685.763 489.932 683.894C488.96 682.015 488.475 679.792 488.475 677.227C488.475 674.725 488.96 672.529 489.932 670.639C490.903 668.749 492.27 667.277 494.033 666.221C495.807 665.165 497.887 664.637 500.273 664.637C501.877 664.637 503.371 664.896 504.754 665.413C506.148 665.92 507.362 666.685 508.397 667.709C509.442 668.733 510.255 670.021 510.835 671.573C511.416 673.115 511.706 674.92 511.706 676.989V678.842H491.167V674.661H505.356C505.356 673.69 505.145 672.83 504.723 672.08C504.3 671.331 503.714 670.745 502.965 670.322C502.226 669.889 501.365 669.673 500.384 669.673C499.359 669.673 498.452 669.911 497.66 670.386C496.878 670.85 496.266 671.478 495.823 672.27C495.379 673.051 495.152 673.922 495.142 674.883V678.858C495.142 680.062 495.363 681.102 495.807 681.978C496.261 682.854 496.9 683.53 497.723 684.005C498.547 684.48 499.523 684.717 500.653 684.717C501.402 684.717 502.089 684.612 502.711 684.401C503.334 684.19 503.867 683.873 504.311 683.451C504.754 683.028 505.092 682.511 505.324 681.899L511.564 682.31C511.247 683.81 510.598 685.119 509.616 686.238C508.645 687.346 507.388 688.212 505.847 688.835C504.316 689.447 502.548 689.753 500.542 689.753ZM525.322 662.499V656.846H551.958V662.499H542.029V689.278H535.251V662.499H525.322ZM553.692 689.278V664.954H560.233V669.198H560.486C560.929 667.688 561.674 666.548 562.719 665.777C563.764 664.996 564.968 664.605 566.33 664.605C566.667 664.605 567.032 664.627 567.422 664.669C567.813 664.711 568.156 664.769 568.452 664.843V670.829C568.135 670.734 567.697 670.65 567.137 670.576C566.578 670.502 566.066 670.465 565.601 670.465C564.609 670.465 563.722 670.681 562.941 671.114C562.17 671.536 561.558 672.128 561.104 672.888C560.66 673.648 560.438 674.524 560.438 675.517V689.278H553.692ZM571.94 689.278V664.954H578.686V689.278H571.94ZM575.328 661.818C574.325 661.818 573.465 661.486 572.747 660.821C572.04 660.145 571.686 659.337 571.686 658.398C571.686 657.469 572.04 656.672 572.747 656.006C573.465 655.331 574.325 654.993 575.328 654.993C576.331 654.993 577.187 655.331 577.894 656.006C578.612 656.672 578.971 657.469 578.971 658.398C578.971 659.337 578.612 660.145 577.894 660.821C577.187 661.486 576.331 661.818 575.328 661.818ZM591.026 689.738C589.474 689.738 588.091 689.468 586.877 688.93C585.663 688.381 584.702 687.573 583.995 686.507C583.298 685.43 582.95 684.089 582.95 682.485C582.95 681.133 583.198 679.998 583.694 679.08C584.19 678.161 584.866 677.422 585.721 676.863C586.576 676.303 587.547 675.881 588.635 675.596C589.733 675.311 590.884 675.11 592.087 674.994C593.502 674.846 594.642 674.709 595.508 674.582C596.373 674.445 597.002 674.244 597.392 673.981C597.783 673.717 597.978 673.326 597.978 672.809V672.714C597.978 671.711 597.662 670.935 597.028 670.386C596.405 669.837 595.518 669.562 594.368 669.562C593.153 669.562 592.187 669.831 591.47 670.37C590.752 670.898 590.277 671.563 590.044 672.365L583.805 671.858C584.122 670.38 584.744 669.103 585.673 668.026C586.603 666.939 587.801 666.105 589.268 665.524C590.746 664.933 592.457 664.637 594.399 664.637C595.751 664.637 597.044 664.796 598.279 665.112C599.525 665.429 600.628 665.92 601.589 666.585C602.56 667.25 603.326 668.105 603.885 669.15C604.445 670.185 604.724 671.426 604.724 672.872V689.278H598.327V685.905H598.137C597.746 686.665 597.223 687.336 596.569 687.916C595.914 688.487 595.128 688.935 594.209 689.262C593.291 689.579 592.23 689.738 591.026 689.738ZM592.958 685.082C593.951 685.082 594.827 684.886 595.587 684.496C596.347 684.095 596.944 683.556 597.376 682.88C597.809 682.205 598.026 681.439 598.026 680.584V678.003C597.815 678.14 597.524 678.267 597.155 678.383C596.796 678.489 596.389 678.589 595.935 678.684C595.481 678.768 595.027 678.848 594.573 678.921C594.119 678.985 593.708 679.043 593.338 679.096C592.546 679.212 591.855 679.397 591.264 679.65C590.672 679.903 590.213 680.246 589.886 680.679C589.559 681.102 589.395 681.629 589.395 682.263C589.395 683.181 589.728 683.883 590.393 684.369C591.068 684.844 591.924 685.082 592.958 685.082ZM616.705 656.846V689.278H609.958V656.846H616.705ZM629.884 675.089L630.28 668.96L625.149 672.397L623.027 668.66L628.554 665.967L623.027 663.275L625.149 659.538L630.28 662.974L629.884 656.846H634.144L633.732 662.974L638.863 659.538L640.985 663.275L635.474 665.967L640.985 668.66L638.863 672.397L633.732 668.96L634.144 675.089H629.884Z" fill="black"/>
</g>
<defs>
<filter id="filter0_d_2305_560" x="-346" y="-191" width="1319" height="1033" filterUnits="userSpaceOnUse" color-interpolation-filters="sRGB">
<feFlood flood-opacity="0" result="BackgroundImageFix"/>
<feColorMatrix in="SourceAlpha" type="matrix" values="0 0 0 0 0 0 0 0 0 0 0 0 0 0 0 0 0 0 127 0" result="hardAlpha"/>
<feOffset dy="4"/>
<feGaussianBlur stdDeviation="125"/>
<feComposite in2="hardAlpha" operator="out"/>
<feColorMatrix type="matrix" values="0 0 0 0 0.228278 0 0 0 0 0.416427 0 0 0 0 0.500049 0 0 0 1 0"/>
<feBlend mode="normal" in2="BackgroundImageFix" result="effect1_dropShadow_2305_560"/>
<feBlend mode="normal" in="SourceGraphic" in2="effect1_dropShadow_2305_560" result="shape"/>
</filter>
<clipPath id="clip0_2305_560">
<rect width="758" height="758" fill="white"/>
</clipPath>
</defs>
</svg>
