<svg xmlns="http://www.w3.org/2000/svg" xmlns:xlink="http://www.w3.org/1999/xlink" width="60" height="60" viewBox="0 0 60 60">
  <defs>
    <clipPath id="clip-path">
      <rect id="Rectangle_2384" data-name="Rectangle 2384" width="60" height="60" transform="translate(-5.783 -8.371)"/>
    </clipPath>
  </defs>
  <g id="Group_7402" data-name="Group 7402" transform="translate(5.783 8.371)">
    <g id="Group_6611" data-name="Group 6611" clip-path="url(#clip-path)">
      <rect id="Rectangle_2959" data-name="Rectangle 2959" width="60" height="60" transform="translate(-5.783 -8.571)" fill="none"/>
      <path id="Path_14663" data-name="Path 14663" d="M26.206,34.959s-6.583,5.911-13.369,5.758S-.824,34.959-.824,34.959s6.9-5.772,13.662-5.772S26.206,34.959,26.206,34.959Z" transform="translate(11.461 -16.375)" fill="#c7ddeb"/>
      <path id="Path_10817" data-name="Path 10817" d="M90.718,57.709a5.95,5.95,0,1,1,5.951-5.951,5.958,5.958,0,0,1-5.951,5.951m0-11.115a5.165,5.165,0,1,0,5.165,5.165,5.171,5.171,0,0,0-5.165-5.165" transform="translate(-66.468 -33.244)" stroke="#000" stroke-width="1"/>
      <path id="Path_10811" data-name="Path 10811" d="M50.926,37.03H31.337a.824.824,0,0,1,0-1.648H50.926a1.8,1.8,0,0,0,1.8-1.8V3.446a1.8,1.8,0,0,0-1.8-1.8H3.446a1.8,1.8,0,0,0-1.8,1.8V33.584a1.8,1.8,0,0,0,1.8,1.8H23.035a.824.824,0,1,1,0,1.648H3.446A3.45,3.45,0,0,1,0,33.584V3.446A3.45,3.45,0,0,1,3.446,0h47.48a3.45,3.45,0,0,1,3.446,3.446V33.584a3.45,3.45,0,0,1-3.446,3.446" transform="translate(-2.936)"/>
      <path id="Path_10812" data-name="Path 10812" d="M109.887,160.087h-8.3a.549.549,0,0,1,0-1.1h8.3a.549.549,0,1,1,0,1.1" transform="translate(-81.487 -123.605)"/>
      <path id="Path_10813" data-name="Path 10813" d="M57.664,44.123H16.2a1.147,1.147,0,0,1-1.146-1.145v-24.7A1.147,1.147,0,0,1,16.2,17.134H57.664a1.147,1.147,0,0,1,1.145,1.145v24.7a1.147,1.147,0,0,1-1.145,1.145M16.2,18.142a.137.137,0,0,0-.137.137v24.7a.137.137,0,0,0,.137.137H57.664a.137.137,0,0,0,.137-.137v-24.7a.137.137,0,0,0-.137-.137Z" transform="translate(-12.681 -12.114)" stroke="#000" stroke-width="1"/>
      <path id="Path_10814" data-name="Path 10814" d="M102.6,168.932H89.228a.823.823,0,0,1-.788-1.064l2.537-8.3a.824.824,0,0,1,1.576.481l-2.211,7.237H101.49l-2.211-7.237a.824.824,0,0,1,1.576-.481l2.537,8.3a.823.823,0,0,1-.788,1.064" transform="translate(-71.666 -123.601)"/>
      <path id="Path_10815" data-name="Path 10815" d="M91.2,197.933H68.678a.824.824,0,0,1,0-1.648H91.2a.824.824,0,1,1,0,1.648" transform="translate(-55.689 -152.601)"/>
      <path id="Path_10816" data-name="Path 10816" d="M61.683,61.764A22.144,22.144,0,0,1,44.561,53.7a.82.82,0,0,1-.189-.525.852.852,0,0,1,.189-.536,22.209,22.209,0,0,1,34.244,0,.82.82,0,0,1,.189.525v.012a.82.82,0,0,1-.189.525,22.144,22.144,0,0,1-17.122,8.064m-15.408-8.6a20.56,20.56,0,0,0,30.817,0,20.562,20.562,0,0,0-30.817,0" transform="translate(-37.433 -34.654)"/>
      <path id="Path_10818" data-name="Path 10818" d="M97.972,61.5a.252.252,0,0,1-.252-.252,2.5,2.5,0,0,1,2.492-2.492.252.252,0,0,1,0,.5,1.991,1.991,0,0,0-1.988,1.988.252.252,0,0,1-.252.252" transform="translate(-76.214 -42.988)" stroke="#000" stroke-width="1"/>
    </g>
  </g>
</svg>
