<svg xmlns="http://www.w3.org/2000/svg" xmlns:xlink="http://www.w3.org/1999/xlink" width="60" height="60" viewBox="0 0 60 60">
  <defs>
    <clipPath id="clip-path">
      <rect id="Rectangle_2382" data-name="Rectangle 2382" width="60" height="60"/>
    </clipPath>
  </defs>
  <g id="Group_6608" data-name="Group 6608" clip-path="url(#clip-path)">
    <rect id="Rectangle_2956" data-name="Rectangle 2956" width="60" height="60" fill="none"/>
    <path id="Path_14657" data-name="Path 14657" d="M-.5,4.276A82.694,82.694,0,0,1,15.4,2.16a104.305,104.305,0,0,1,18.77,1.495s2.02,16.4-3.076,27.609A17.722,17.722,0,0,1,17.834,41.54S6.72,38.993,2.2,31.264-.5,4.276-.5,4.276Z" transform="translate(11.498 9.705)" fill="#c7ddeb"/>
    <path id="Path_10783" data-name="Path 10783" d="M33.66,68.816a1.162,1.162,0,0,1-.167-.012A28.649,28.649,0,0,1,9.249,40.475V22.37a8.128,8.128,0,0,1,7.017-8.062,118.59,118.59,0,0,1,34.788,0A8.218,8.218,0,0,1,58,21.32a1.162,1.162,0,0,1-2.305.3,5.884,5.884,0,0,0-4.984-5.011,116.266,116.266,0,0,0-34.107,0,5.818,5.818,0,0,0-5.033,5.762V40.475a26.316,26.316,0,0,0,22.086,26A25.982,25.982,0,0,0,51.386,55.066a1.162,1.162,0,1,1,1.94,1.281A28.3,28.3,0,0,1,33.827,68.8,1.162,1.162,0,0,1,33.66,68.816Z" transform="translate(-7.099 -9.998)"/>
    <path id="Path_10784" data-name="Path 10784" d="M49.012,79.437a1.169,1.169,0,0,1-.2-.018A24.13,24.13,0,0,1,29.25,55.806V37.7A3.51,3.51,0,0,1,32.3,34.238,114.492,114.492,0,0,1,49.011,33a1.162,1.162,0,0,1,0,2.325,112.156,112.156,0,0,0-16.372,1.213A1.2,1.2,0,0,0,31.575,37.7v18.1A21.779,21.779,0,0,0,49.214,77.13a1.163,1.163,0,0,1-.2,2.307Z" transform="translate(-22.45 -25.328)"/>
    <path id="Path_10793" data-name="Path 10793" d="M134.443,138.887a.872.872,0,0,1,.893.892.819.819,0,0,1-.255.614.879.879,0,0,1-.637.247h-5.419a.851.851,0,0,1-.653-.255.917.917,0,0,1-.239-.654.991.991,0,0,1,.287-.7l3.475-3.713a5.887,5.887,0,0,0,.932-1.307,2.64,2.64,0,0,0,.343-1.164,1.784,1.784,0,0,0-.462-1.283,1.616,1.616,0,0,0-1.227-.486,1.507,1.507,0,0,0-.622.143,2.531,2.531,0,0,0-.613.4,3.9,3.9,0,0,0-.55.59.848.848,0,0,1-.382.319,1.117,1.117,0,0,1-.351.064.948.948,0,0,1-.645-.263.8.8,0,0,1-.3-.614.89.89,0,0,1,.183-.526,4.343,4.343,0,0,1,.454-.526,4.835,4.835,0,0,1,.893-.7,4.634,4.634,0,0,1,1.02-.47,3.351,3.351,0,0,1,1.02-.168,3.88,3.88,0,0,1,1.857.423,2.968,2.968,0,0,1,1.219,1.2,3.694,3.694,0,0,1,.431,1.825,4.57,4.57,0,0,1-.518,1.952,8.117,8.117,0,0,1-1.394,2.016l-2.152,2.3-.176-.143Z" transform="translate(-98.258 -99.258)"/>
    <path id="Path_10794" data-name="Path 10794" d="M177.376,141.589a4.8,4.8,0,0,1-1.259-.183,2.948,2.948,0,0,1-1.1-.534,1.2,1.2,0,0,1-.327-.454,1.353,1.353,0,0,1-.119-.534.726.726,0,0,1,.231-.51.877.877,0,0,1,.661-.239,1.353,1.353,0,0,1,.717.3,3.919,3.919,0,0,0,.558.287,1.584,1.584,0,0,0,.622.127,2.924,2.924,0,0,0,1.323-.279,2.064,2.064,0,0,0,.861-.773,2.184,2.184,0,0,0,.3-1.163,1.866,1.866,0,0,0-.279-1.036,1.934,1.934,0,0,0-.733-.669,2.074,2.074,0,0,0-.98-.239,2.146,2.146,0,0,0-.861.159q-.366.159-.669.327a1.247,1.247,0,0,1-.606.167,1.132,1.132,0,0,1-.781-.231.986.986,0,0,1-.319-.55,1.79,1.79,0,0,1-.032-.574l.494-3.873a.908.908,0,0,1,.327-.55.962.962,0,0,1,.63-.215h4.606a.872.872,0,0,1,.893.893.821.821,0,0,1-.255.614.881.881,0,0,1-.637.247h-4.112l.176-.143-.43,3.235-.207-.606a.9.9,0,0,1,.414-.3,4.369,4.369,0,0,1,.733-.247,3.346,3.346,0,0,1,.813-.1,3.766,3.766,0,0,1,1.913.486,3.578,3.578,0,0,1,1.331,1.323,3.693,3.693,0,0,1,.486,1.889,3.944,3.944,0,0,1-.542,2.088A3.612,3.612,0,0,1,179.7,141.1a5.163,5.163,0,0,1-2.319.486" transform="translate(-133.986 -100.048)"/>
    <path id="Path_10795" data-name="Path 10795" d="M223.632,141.168a3.331,3.331,0,0,1-1.554-.359,3.556,3.556,0,0,1-1.179-.98,4.673,4.673,0,0,1-.749-1.4,5,5,0,0,1-.263-1.61,8.687,8.687,0,0,1,.12-1.307,8.819,8.819,0,0,1,.422-1.61,7.288,7.288,0,0,1,.845-1.642,6.153,6.153,0,0,1,1.379-1.434,5.961,5.961,0,0,1,2.048-.972,1.521,1.521,0,0,1,.366-.048,1.194,1.194,0,0,1,.662.191.774.774,0,0,1,.295.7.9.9,0,0,1-.231.614,1.265,1.265,0,0,1-.614.375,4.878,4.878,0,0,0-1.076.47,5,5,0,0,0-.988.757,4.74,4.74,0,0,0-.781,1.012,4.255,4.255,0,0,0-.47,1.219l-.43-.016a6.653,6.653,0,0,1,.55-.582,3.182,3.182,0,0,1,.8-.542,2.49,2.49,0,0,1,1.108-.231,2.894,2.894,0,0,1,1.235.287,3.94,3.94,0,0,1,1.921,1.968,3.5,3.5,0,0,1,.3,1.443,3.581,3.581,0,0,1-.5,1.865,3.756,3.756,0,0,1-1.339,1.339,3.614,3.614,0,0,1-1.873.494m0-1.753a1.686,1.686,0,0,0,.916-.255,1.828,1.828,0,0,0,.646-.7,2.179,2.179,0,0,0,0-1.984,1.848,1.848,0,0,0-.646-.693,1.774,1.774,0,0,0-1.833,0,1.848,1.848,0,0,0-.646.693,2.179,2.179,0,0,0,0,1.984,1.828,1.828,0,0,0,.646.7,1.685,1.685,0,0,0,.916.255" transform="translate(-168.767 -99.627)"/>
    <path id="Path_10796" data-name="Path 10796" d="M131.248,79.545a3.7,3.7,0,0,1-2.319-.725,4.475,4.475,0,0,1-1.443-2.024,9.311,9.311,0,0,1,0-5.985,4.48,4.48,0,0,1,1.443-2.016,4.07,4.07,0,0,1,4.638,0,4.484,4.484,0,0,1,1.443,2.016,9.311,9.311,0,0,1,0,5.985,4.478,4.478,0,0,1-1.443,2.024,3.705,3.705,0,0,1-2.319.725m0-1.913a1.7,1.7,0,0,0,1.155-.422,2.749,2.749,0,0,0,.757-1.275,8.526,8.526,0,0,0,0-4.264A2.752,2.752,0,0,0,132.4,70.4a1.782,1.782,0,0,0-2.3,0,2.712,2.712,0,0,0-.765,1.267,8.525,8.525,0,0,0,0,4.264,2.709,2.709,0,0,0,.765,1.275,1.711,1.711,0,0,0,1.148.422" transform="translate(-97.469 -52.244)"/>
    <path id="Path_10797" data-name="Path 10797" d="M182.159,79.912a1.007,1.007,0,0,1-.733-.279.927.927,0,0,1-.287-.693V70.907l.223.35-1.164.861a.873.873,0,0,1-.558.175.918.918,0,0,1-.669-.287.935.935,0,0,1-.287-.685.955.955,0,0,1,.494-.829l2.3-1.53a1.043,1.043,0,0,1,.358-.159,1.609,1.609,0,0,1,.375-.048.976.976,0,0,1,.733.279.955.955,0,0,1,.271.693V78.94a.914.914,0,0,1-.295.693,1.057,1.057,0,0,1-.757.279" transform="translate(-137.144 -52.771)"/>
    <path id="Path_10798" data-name="Path 10798" d="M221.95,79.545a3.7,3.7,0,0,1-2.319-.725,4.475,4.475,0,0,1-1.443-2.024,9.311,9.311,0,0,1,0-5.985,4.48,4.48,0,0,1,1.443-2.016,4.07,4.07,0,0,1,4.638,0,4.484,4.484,0,0,1,1.443,2.016,9.311,9.311,0,0,1,0,5.985,4.478,4.478,0,0,1-1.443,2.024,3.7,3.7,0,0,1-2.319.725m0-1.913a1.7,1.7,0,0,0,1.155-.422,2.749,2.749,0,0,0,.757-1.275,8.525,8.525,0,0,0,0-4.264,2.752,2.752,0,0,0-.757-1.267,1.782,1.782,0,0,0-2.3,0,2.712,2.712,0,0,0-.765,1.267,8.526,8.526,0,0,0,0,4.264,2.709,2.709,0,0,0,.765,1.275,1.711,1.711,0,0,0,1.148.422" transform="translate(-167.084 -52.244)"/>
  </g>
</svg>
