<svg xmlns="http://www.w3.org/2000/svg" xmlns:xlink="http://www.w3.org/1999/xlink" width="1540" height="497" viewBox="0 0 1540 497">
  <defs>
    <clipPath id="clip-path">
      <rect id="Rectangle_2730" data-name="Rectangle 2730" width="1540" height="497" transform="translate(0 1502)" fill="#ff8989"/>
    </clipPath>
    <clipPath id="clip-path-2">
      <rect id="Rectangle_2715" data-name="Rectangle 2715" width="254" height="482" transform="translate(1286 1489)" fill="#f0f0f0"/>
    </clipPath>
  </defs>
  <g id="Mask_Group_50" data-name="Mask Group 50" transform="translate(0 -1502)" clip-path="url(#clip-path)">
    <g id="Mask_Group_38" data-name="Mask Group 38" transform="translate(0 28)" clip-path="url(#clip-path-2)">
      <g id="New_Symbol" data-name="New Symbol" transform="translate(-727.005 2091.385) rotate(180)" opacity="0.21">
        <g id="Group_6831" data-name="Group 6831" transform="translate(-2194.032 129.62)">
          <path id="Path_10865" data-name="Path 10865" d="M-1373.9,144.83a63.026,63.026,0,0,1,63.026,63.026,63.026,63.026,0,0,1-63.026,63.026,63.026,63.026,0,0,1-63.026-63.026" transform="translate(1436.93 -144.83)" fill="none" stroke="#37a044" stroke-linecap="round" stroke-width="1.112"/>
          <line id="Line_113" data-name="Line 113" y2="81.193" transform="translate(63.02 111.266)" fill="none" stroke="#3089bb" stroke-linecap="round" stroke-width="1.559"/>
          <g id="Group_6841" data-name="Group 6841" transform="translate(124.004 359.902)">
            <g id="Group_6836" data-name="Group 6836" transform="translate(32.454 0)">
              <line id="Line_113-2" data-name="Line 113" y2="34.046" transform="translate(0)" fill="none" stroke="#47a850" stroke-linecap="round" stroke-width="1.559"/>
            </g>
            <path id="Path_10876" data-name="Path 10876" d="M10.444,0A10.444,10.444,0,1,0,20.888,10.444" transform="translate(43.685 39.555) rotate(-135)" fill="none" stroke="#37a044" stroke-width="1.559"/>
            <path id="Path_10877" data-name="Path 10877" d="M10.444,0A10.444,10.444,0,1,0,20.888,10.444" transform="translate(14.77 2.554) rotate(45)" fill="none" stroke="#37a044" stroke-width="1.559"/>
            <line id="Line_128" data-name="Line 128" y2="34.046" transform="translate(24.992 8.395)" fill="none" stroke="#47a850" stroke-linecap="round" stroke-width="1.559"/>
          </g>
        </g>
        <g id="Group_6833" data-name="Group 6833" transform="translate(-2374.238 220.445)">
          <path id="Path_10866" data-name="Path 10866" d="M-1971.279,2299.975h0a27.337,27.337,0,0,1-27.337,27.337h-257.75a27.337,27.337,0,0,1-27.337-27.337h0a27.337,27.337,0,0,1,27.337-27.337" transform="translate(2301.109 -1954.372)" fill="none" stroke="#37a044" stroke-width="1.559"/>
          <g id="Group_6832" data-name="Group 6832" transform="translate(117.54 45.77)">
            <path id="Path_10867" data-name="Path 10867" d="M-1575.359,874.851A19.549,19.549,0,0,1-1555.81,855.3h31.469a19.549,19.549,0,0,1,19.549,19.549v18.6A19.549,19.549,0,0,1-1524.34,913h-31.469" transform="translate(1611.411 -855.302)" fill="none" stroke="#37a044" stroke-width="1.559"/>
            <path id="Path_10868" data-name="Path 10868" d="M-1499.995,1942.794h34.59a21.488,21.488,0,0,1,21.488,21.488v20.44a21.488,21.488,0,0,1-21.488,21.488" transform="translate(1550.536 -1733.713)" fill="none" stroke="#37a044" stroke-width="1.559"/>
            <path id="Path_10869" data-name="Path 10869" d="M-634.6,1198.351h34.59a21.488,21.488,0,0,1,21.488,21.488v20.44a21.488,21.488,0,0,1-21.488,21.488" transform="translate(851.521 -1132.396)" fill="none" stroke="#37a044" stroke-width="1.559"/>
            <path id="Path_10870" data-name="Path 10870" d="M-1706.8,1155.386h-34.591a21.488,21.488,0,0,0-21.488,21.488v20.44" transform="translate(1762.877 -1097.692)" fill="none" stroke="#37a044" stroke-width="1.559"/>
            <line id="Line_114" data-name="Line 114" y2="30.516" transform="translate(0 104.421)" fill="none" stroke="#37a044" stroke-width="1.559"/>
            <line id="Line_115" data-name="Line 115" y2="6.914" transform="translate(0 143.758)" fill="none" stroke="#37a044" stroke-width="1.559"/>
            <line id="Line_116" data-name="Line 116" y2="35.284" transform="translate(0 157.347)" fill="none" stroke="#37a044" stroke-width="1.559"/>
          </g>
          <circle id="Ellipse_12" data-name="Ellipse 12" cx="22.494" cy="22.494" r="22.494" transform="translate(85.729 238.401) rotate(-45)" fill="none" stroke="#37a044" stroke-width="1.559"/>
          <circle id="Ellipse_13" data-name="Ellipse 13" cx="40.767" cy="40.767" r="40.767" transform="translate(185.579 175.14) rotate(-45)" fill="none" stroke="#37a044" stroke-width="1.559"/>
          <path id="Path_10871" data-name="Path 10871" d="M-928.865,938.236a15.973,15.973,0,0,1-15.973,15.973,15.973,15.973,0,0,1-15.973-15.973,15.973,15.973,0,0,1,15.973-15.973A15.973,15.973,0,0,1-928.865,938.236Z" transform="translate(1232.556 -863.619)" fill="none" stroke="#37a044" stroke-width="1.559"/>
          <path id="Path_10872" data-name="Path 10872" d="M-1186.387,1432.528a18.393,18.393,0,0,1,18.393,18.393,18.393,18.393,0,0,1-18.393,18.393,18.393,18.393,0,0,1-18.393-18.393" transform="translate(1429.619 -1275.781)" fill="none" stroke="#37a044" stroke-width="1.559"/>
          <path id="Path_10873" data-name="Path 10873" d="M-1748.3,858.955a18.393,18.393,0,0,0-18.393,18.393,18.393,18.393,0,0,0,18.393,18.393,18.393,18.393,0,0,0,18.393-18.393" transform="translate(1883.499 -812.483)" fill="none" stroke="#37a044" stroke-width="1.559"/>
          <path id="Path_10874" data-name="Path 10874" d="M-1392.582,2057.284a12,12,0,0,1-12,12,12,12,0,0,1-12-12,12,12,0,0,1,12-12A12,12,0,0,1-1392.582,2057.284Z" transform="translate(1600.707 -1770.726)" fill="none" stroke="#37a044" stroke-width="1.559"/>
          <line id="Line_117" data-name="Line 117" x1="91.23" transform="translate(152.003 175.14)" fill="none" stroke="#37a044" stroke-width="1.559"/>
          <line id="Line_118" data-name="Line 118" x1="12.397" transform="translate(129.752 175.14)" fill="none" stroke="#37a044" stroke-width="1.559"/>
          <line id="Line_119" data-name="Line 119" x1="75.336" transform="translate(27.715 175.14)" fill="none" stroke="#37a044" stroke-width="1.559"/>
          <line id="Line_120" data-name="Line 120" x1="23.999" transform="translate(173.618 318.266)" fill="none" stroke="#37a044" stroke-width="1.559"/>
          <line id="Line_121" data-name="Line 121" x1="97.269" transform="translate(67.29 318.266)" fill="none" stroke="#37a044" stroke-width="1.559"/>
          <line id="Line_122" data-name="Line 122" x1="162.773" transform="translate(98.852 345.603)" fill="none" stroke="#3089bb" stroke-width="1.559"/>
          <line id="Line_123" data-name="Line 123" x1="98.842" transform="translate(188.876 74.617)" fill="none" stroke="#3089bb" stroke-width="1.559"/>
          <line id="Line_124" data-name="Line 124" x2="69.233" transform="translate(271.745 175.14)" fill="none" stroke="#3089bb" stroke-width="0.78"/>
          <line id="Line_125" data-name="Line 125" x2="11.92" transform="translate(351.468 175.14)" fill="none" stroke="#3089bb" stroke-width="0.78"/>
          <line id="Line_126" data-name="Line 126" x2="57.601" transform="translate(196.121 286.558)" fill="none" stroke="#3089bb" stroke-width="0.78"/>
          <line id="Line_127" data-name="Line 127" y1="56.123" transform="translate(135.199 8.742)" fill="none" stroke="#3089bb" stroke-width="0.78"/>
          <circle id="Ellipse_14" data-name="Ellipse 14" cx="2.702" cy="2.702" r="2.702" transform="translate(322.86 109.022)" fill="none" stroke="#37a044" stroke-width="0.78"/>
          <circle id="Ellipse_15" data-name="Ellipse 15" cx="2.702" cy="2.702" r="2.702" transform="translate(314.277 109.022)" fill="none" stroke="#37a044" stroke-width="0.78"/>
          <circle id="Ellipse_16" data-name="Ellipse 16" cx="2.702" cy="2.702" r="2.702" transform="translate(305.694 109.022)" fill="none" stroke="#37a044" stroke-width="0.78"/>
          <circle id="Ellipse_17" data-name="Ellipse 17" cx="2.702" cy="2.702" r="2.702" transform="translate(297.112 109.022)" fill="none" stroke="#37a044" stroke-width="0.78"/>
          <circle id="Ellipse_18" data-name="Ellipse 18" cx="2.702" cy="2.702" r="2.702" transform="translate(132.497 0)" fill="none" stroke="#37a044" stroke-width="0.78"/>
          <circle id="Ellipse_19" data-name="Ellipse 19" cx="9.119" cy="9.119" r="9.119" transform="translate(0 166.021)" fill="none" stroke="#3089bb" stroke-width="1.559"/>
          <circle id="Ellipse_20" data-name="Ellipse 20" cx="6.199" cy="6.199" r="6.199" transform="translate(327.15 68.418)" fill="none" stroke="#37a044" stroke-width="0.78"/>
          <path id="Path_10875" data-name="Path 10875" d="M-2171.4,2354.06a14.464,14.464,0,0,1-14.464,14.463,14.464,14.464,0,0,1-14.464-14.463,14.464,14.464,0,0,1,14.464-14.464A14.464,14.464,0,0,1-2171.4,2354.06Z" transform="translate(2233.767 -2008.457)" fill="none" stroke="#37a044" stroke-width="1.559"/>
        </g>
      </g>
    </g>
  </g>
</svg>
