<svg width="100" height="101" viewBox="0 0 100 101" fill="none" xmlns="http://www.w3.org/2000/svg">
<mask id="mask0_328_138742" style="mask-type:luminance" maskUnits="userSpaceOnUse" x="10" y="30" width="80" height="41">
<path d="M89.9881 30.5H10.9961V70.988H89.9881V30.5Z" fill="white"/>
</mask>
<g mask="url(#mask0_328_138742)">
<path d="M89.0621 66.9L77.4851 55.985C79.0051 53.639 80.6601 49.65 80.6601 46.647C80.6588 42.8114 79.1876 39.1221 76.5492 36.3381C73.9108 33.5541 70.3058 31.8871 66.4758 31.68C62.6458 31.4728 58.882 32.7414 55.9588 35.2246C53.0355 37.7078 51.175 41.2169 50.7601 45.03H48.7251C46.8911 45.03 46.2691 46.691 45.8981 47.682L45.8891 47.71C45.8287 47.4626 45.7829 47.2118 45.7521 46.959C45.5431 45.536 45.3701 43.714 45.2361 42.308C44.6061 35.71 44.1091 30.5 40.9221 30.5C38.1131 30.5 37.6101 34.49 36.6461 44.322C36.2731 48.115 35.6331 54.651 34.6961 57.279C34.5501 57.689 34.1771 57.704 33.9961 57.307C33.5671 56.2955 33.2356 55.2455 33.0061 54.171C32.4271 51.725 31.9841 48.729 31.5541 45.831C30.4741 38.555 29.9821 35.231 27.5271 35.231C24.8741 35.231 24.3411 39.258 23.4581 45.931C23.2281 47.671 22.9241 49.957 22.5881 51.651C22.5041 52.078 22.3221 52.084 22.2121 51.662C22.0681 51.095 21.9411 50.519 21.8451 50.086C21.2701 47.486 20.7271 45.029 18.6201 45.029H11.7851C11.6814 45.029 11.5787 45.0494 11.4829 45.0892C11.3871 45.1289 11.3001 45.1871 11.2268 45.2604C11.1536 45.3338 11.0955 45.4209 11.0559 45.5168C11.0163 45.6126 10.996 45.7153 10.9961 45.819V47.4C10.996 47.5036 11.0163 47.6063 11.0559 47.7021C11.0955 47.7979 11.1536 47.8849 11.2269 47.9582C11.3002 48.0315 11.3872 48.0896 11.483 48.1292C11.5788 48.1688 11.6814 48.1891 11.7851 48.189H17.2961C17.5239 48.1952 17.7444 48.2703 17.9287 48.4043C18.1129 48.5384 18.2522 48.7252 18.3281 48.94C18.4881 49.522 18.6441 50.224 18.7641 50.772C19.3841 53.572 20.0851 56.745 22.6411 56.745C25.2121 56.745 25.7021 53.051 26.5901 46.345C26.7901 44.821 27.0461 42.895 27.3341 41.277C27.4101 40.847 27.5501 40.848 27.6281 41.277C27.9191 42.847 28.1971 44.716 28.4281 46.295C29.8201 55.68 30.9201 61.379 34.4331 61.379C37.9701 61.379 38.7331 55.327 39.7841 44.629C40.0561 41.844 40.4251 38.086 40.8841 35.667C40.9651 35.24 41.1291 35.237 41.2151 35.667C41.6241 37.722 41.9091 40.705 42.0891 42.608C42.6601 48.586 42.9731 51.88 45.4091 51.88C47.6951 51.88 48.4471 49.868 48.8521 48.788C48.8861 48.699 48.9261 48.588 48.9671 48.488C49.0321 48.321 49.4451 48.188 49.8801 48.188H50.7461C51.1283 51.8792 52.8652 55.2976 55.6211 57.7827C58.377 60.2678 61.9562 61.6432 65.6671 61.643C68.6591 61.643 72.5621 59.943 74.9021 58.436L86.4081 69.364C86.5563 69.5115 86.757 69.5944 86.9661 69.5944C87.1752 69.5944 87.3759 69.5115 87.5241 69.364L89.3131 67.726C89.6201 67.419 89.6201 67.549 89.3131 67.242M65.6671 57.251C63.5706 57.251 61.5212 56.6293 59.778 55.4646C58.0349 54.2998 56.6763 52.6443 55.874 50.7074C55.0717 48.7705 54.8618 46.6392 55.2708 44.583C55.6798 42.5268 56.6893 40.6381 58.1718 39.1557C59.6542 37.6732 61.5429 36.6637 63.5991 36.2547C65.6553 35.8457 67.7866 36.0556 69.7235 36.8579C71.6604 37.6602 73.3159 39.0188 74.4807 40.762C75.6454 42.5051 76.2671 44.5545 76.2671 46.651C76.2629 49.461 75.1447 52.1547 73.1578 54.1417C71.1708 56.1286 68.4771 57.2468 65.6671 57.251Z" fill="#464646"/>
<path d="M62.1872 44.3262H62.1702C62.0402 44.3262 61.9032 44.3382 61.7792 44.3502C61.6676 44.3589 61.5569 44.3766 61.4482 44.4032C61.4302 44.4032 61.4122 44.4092 61.3942 44.4092C61.3319 44.4211 61.2705 44.4368 61.2102 44.4562C61.1177 44.4775 61.0268 44.5053 60.9382 44.5392C60.8081 44.5817 60.6811 44.6331 60.5582 44.6932C59.8947 44.9993 59.3329 45.4891 58.939 46.1046C58.5452 46.7201 58.3359 47.4355 58.3359 48.1662C58.3359 48.8969 58.5452 49.6123 58.939 50.2277C59.3329 50.8432 59.8947 51.333 60.5582 51.6392C60.5987 51.6611 60.6405 51.6808 60.6832 51.6982C61.1535 51.9058 61.662 52.0128 62.1762 52.0122H62.1882C63.2074 52.0122 64.1849 51.6073 64.9056 50.8866C65.6263 50.1659 66.0312 49.1884 66.0312 48.1692C66.0312 47.1499 65.6263 46.1725 64.9056 45.4518C64.1849 44.7311 63.2064 44.3262 62.1872 44.3262ZM63.3522 48.1722C63.122 48.1722 62.897 48.1039 62.7056 47.9761C62.5142 47.8482 62.365 47.6665 62.2769 47.4538C62.1887 47.2412 62.1656 47.0072 62.2105 46.7815C62.2553 46.5557 62.366 46.3483 62.5287 46.1855C62.6914 46.0226 62.8987 45.9117 63.1245 45.8667C63.3502 45.8216 63.5842 45.8445 63.7969 45.9325C64.0096 46.0204 64.1915 46.1695 64.3195 46.3608C64.4475 46.552 64.516 46.777 64.5162 47.0072C64.5154 47.3157 64.3925 47.6114 64.1744 47.8297C63.9563 48.048 63.6607 48.1711 63.3522 48.1722Z" fill="#464646"/>
<path d="M50.7611 45.03H48.7251C46.8911 45.03 46.2691 46.691 45.8981 47.682L45.8891 47.71C45.8287 47.4626 45.7829 47.2118 45.7521 46.959C45.5431 45.536 45.3701 43.714 45.2361 42.308C44.6061 35.71 44.1091 30.5 40.9221 30.5C38.1131 30.5 37.6101 34.49 36.6461 44.322C36.2731 48.115 35.6331 54.651 34.6961 57.279C34.5501 57.689 34.1771 57.704 33.9961 57.307C33.5671 56.2955 33.2356 55.2455 33.0061 54.171C32.4271 51.725 31.9841 48.729 31.5541 45.831C30.4741 38.555 29.9821 35.231 27.5271 35.231C24.8741 35.231 24.3411 39.258 23.4581 45.931C23.2281 47.671 22.9241 49.957 22.5881 51.651C22.5041 52.078 22.3221 52.084 22.2121 51.662C22.0681 51.095 21.9411 50.519 21.8451 50.086C21.2701 47.486 20.7271 45.029 18.6201 45.029H11.7851C11.6814 45.029 11.5787 45.0494 11.4829 45.0892C11.3871 45.1289 11.3001 45.1871 11.2268 45.2604C11.1536 45.3338 11.0955 45.4209 11.0559 45.5168C11.0163 45.6126 10.996 45.7153 10.9961 45.819V47.4C10.996 47.5036 11.0163 47.6063 11.0559 47.7021C11.0955 47.7979 11.1536 47.8849 11.2269 47.9582C11.3002 48.0315 11.3872 48.0896 11.483 48.1292C11.5788 48.1688 11.6814 48.1891 11.7851 48.189H17.2961C17.5239 48.1952 17.7444 48.2703 17.9287 48.4043C18.1129 48.5384 18.2522 48.7252 18.3281 48.94C18.4881 49.522 18.6441 50.224 18.7641 50.772C19.3841 53.572 20.0851 56.745 22.6411 56.745C25.2121 56.745 25.7021 53.051 26.5901 46.345C26.7901 44.821 27.0461 42.895 27.3341 41.277C27.4101 40.847 27.5501 40.848 27.6281 41.277C27.9191 42.847 28.1971 44.716 28.4281 46.295C29.8201 55.68 30.9201 61.379 34.4331 61.379C37.9701 61.379 38.7331 55.327 39.7841 44.629C40.0561 41.844 40.4251 38.086 40.8841 35.667C40.9651 35.24 41.1291 35.237 41.2151 35.667C41.6241 37.722 41.9091 40.705 42.0891 42.608C42.6601 48.586 42.9731 51.88 45.4091 51.88C47.6951 51.88 48.4471 49.868 48.8521 48.788C48.8861 48.699 48.9261 48.588 48.9671 48.488C49.0321 48.321 49.4451 48.188 49.8801 48.188H50.7461" fill="#FDC736"/>
</g>
</svg>
