<svg xmlns="http://www.w3.org/2000/svg" xmlns:xlink="http://www.w3.org/1999/xlink" width="100" height="100" viewBox="0 0 100 100">
  <defs>
    <clipPath id="clip-path">
      <rect id="Rectangle_50662" data-name="Rectangle 50662" width="42.666" height="58.013"/>
    </clipPath>
  </defs>
  <g id="carousel6" transform="translate(2344 22886)">
    <rect id="Rectangle_50663" data-name="Rectangle 50663" width="100" height="100" transform="translate(-2344 -22886)" fill="#fff" opacity="0"/>
    <g id="Group_34512" data-name="Group 34512" transform="translate(-2315 -22865)">
      <g id="Group_34511" data-name="Group 34511" clip-path="url(#clip-path)">
        <path id="Path_54605" data-name="Path 54605" d="M20.267,0H22.4A15.462,15.462,0,0,1,37.783,15.384v3.734l4.459,1.771a50.411,50.411,0,0,1,.424,5.735c0,13.353-7.657,26.422-20.346,31.389H20.343C7.655,53.045,0,39.976,0,26.624a50.423,50.423,0,0,1,.424-5.735l4.458-1.77V15.384A15.462,15.462,0,0,1,20.267,0M33.482,17.554V15.679c0-6.5-4.954-11.846-10.974-11.846H20.157c-6.019,0-10.974,5.345-10.974,11.846v1.877l11.048-4.734h2.2Zm5.25,6.09-17.4-6.906-17.4,6.906q-.058,1.053-.058,2.108c0,11.831,6.419,23.565,17.456,28.469,11.039-4.9,17.458-16.637,17.458-28.47q0-1.054-.058-2.107" transform="translate(0 0.001)"/>
        <path id="Path_54606" data-name="Path 54606" d="M28.552,44.787a6.771,6.771,0,0,0-3.13,12.406l-2.828,1.633a9.8,9.8,0,0,1,5.958-17.074V39.888l5.822,3.361L28.552,46.61ZM23.9,59.816l5.822,3.361V61.314A9.8,9.8,0,0,0,35.679,44.24l-2.827,1.632a6.771,6.771,0,0,1-3.13,12.406V56.455Z" transform="translate(-7.789 -16.043)" fill="#fdc736"/>
      </g>
    </g>
  </g>
</svg>
