<svg xmlns="http://www.w3.org/2000/svg" xmlns:xlink="http://www.w3.org/1999/xlink" width="100" height="100" viewBox="0 0 100 100">
  <defs>
    <clipPath id="clip-path">
      <rect id="Rectangle_50654" data-name="Rectangle 50654" width="66.338" height="50.658" transform="translate(-1)" stroke="#000" stroke-width="1.5"/>
    </clipPath>
  </defs>
  <g id="carousel4" transform="translate(2974 22889)">
    <rect id="Rectangle_50666" data-name="Rectangle 50666" width="100" height="100" transform="translate(-2974 -22889)" fill="#fff" opacity="0"/>
    <g id="Group_34500" data-name="Group 34500" transform="translate(-2956 -22864)" clip-path="url(#clip-path)">
      <path id="Path_54576" data-name="Path 54576" d="M22.382,50.658H16.347A15.646,15.646,0,0,1,8.34,48.565C1.661,44.6.122,39.411.007,35.76c-.221-7,4.461-13.456,8.9-16.49,8-5.46,5.111-17.924,5.081-18.049A.99.99,0,0,1,15.572.215c.4.317,9.73,7.972,5.728,24.9-1.056,4.464-.487,7.676,1.56,8.814a4.7,4.7,0,0,0,5.357-1.119c.743-.746,2.282-2.817.542-5.908a.99.99,0,0,1,1.462-1.274c.28.214,6.863,5.3,7.18,11.9.156,3.273-1.247,6.306-4.173,9.014a15.851,15.851,0,0,1-10.846,4.111M16.417,4.06c.4,4.492.047,12.45-6.389,16.844C6.016,23.643,1.789,29.441,1.986,35.7c.142,4.526,2.689,8.388,7.366,11.166a13.683,13.683,0,0,0,6.995,1.815h6.036a13.884,13.884,0,0,0,9.5-3.582c2.475-2.292,3.666-4.8,3.541-7.461-.151-3.207-2.157-6.106-3.885-8.029a6.309,6.309,0,0,1-1.918,4.6A6.639,6.639,0,0,1,21.9,35.659c-1.692-.94-4.269-3.62-2.525-11,2.54-10.745-.614-17.394-2.956-20.6" transform="translate(0 0)" fill="#fdc736" stroke="#fdc736" stroke-width="1.2"/>
      <path id="Path_54577" data-name="Path 54577" d="M131.357,82.131H106.071a.99.99,0,0,1,0-1.98h25.286a1.651,1.651,0,0,0,1.65-1.65V46.593a1.651,1.651,0,0,0-1.65-1.65H96.066a.99.99,0,1,1,0-1.98h35.291a3.634,3.634,0,0,1,3.63,3.63V78.5a3.634,3.634,0,0,1-3.63,3.63" transform="translate(-69.649 -31.473)"/>
      <path id="Path_54578" data-name="Path 54578" d="M134.9,74.869H96.97a.66.66,0,0,1,0-1.32H134.9a.66.66,0,0,1,0,1.32" transform="translate(-70.553 -53.879)"/>
      <path id="Path_54579" data-name="Path 54579" d="M165.783,113.515H139.127a.66.66,0,0,1,0-1.32h26.656a.66.66,0,1,1,0,1.32" transform="translate(-101.436 -82.19)"/>
      <path id="Path_54580" data-name="Path 54580" d="M175.159,152.161H151.926a.66.66,0,0,1,0-1.32h23.233a.66.66,0,1,1,0,1.32" transform="translate(-110.812 -110.5)"/>
      <path id="Path_54581" data-name="Path 54581" d="M188.964,53.367a.66.66,0,0,1-.66-.66v-7.85a.66.66,0,0,1,1.32,0v7.85a.659.659,0,0,1-.66.66" transform="translate(-137.944 -32.377)"/>
      <path id="Path_54582" data-name="Path 54582" d="M188.964,123.851a.66.66,0,0,1-.66-.66V112.856a.66.66,0,0,1,1.32,0v10.335a.66.66,0,0,1-.66.66" transform="translate(-137.944 -82.19)"/>
      <path id="Path_54583" data-name="Path 54583" d="M139.127,53.367a.659.659,0,0,1-.66-.66v-7.85a.66.66,0,1,1,1.32,0v7.85a.659.659,0,0,1-.66.66" transform="translate(-101.436 -32.377)"/>
      <path id="Path_54584" data-name="Path 54584" d="M213.881,85.205a.66.66,0,0,1-.66-.66V74.21a.66.66,0,0,1,1.32,0V84.545a.66.66,0,0,1-.66.66" transform="translate(-156.197 -53.88)"/>
      <path id="Path_54585" data-name="Path 54585" d="M164.045,85.205a.66.66,0,0,1-.66-.66V74.21a.66.66,0,0,1,1.32,0V84.545a.66.66,0,0,1-.66.66" transform="translate(-119.69 -53.88)"/>
      <path id="Path_54586" data-name="Path 54586" d="M213.881,160.828a.66.66,0,0,1-.66-.66V151.5a.66.66,0,0,1,1.32,0v8.667a.66.66,0,0,1-.66.66" transform="translate(-156.197 -110.5)"/>
      <path id="Path_54587" data-name="Path 54587" d="M164.045,160.828a.66.66,0,0,1-.66-.66V151.5a.66.66,0,0,1,1.32,0v8.667a.66.66,0,0,1-.66.66" transform="translate(-119.69 -110.5)"/>
    </g>
  </g>
</svg>
