<svg xmlns="http://www.w3.org/2000/svg" xmlns:xlink="http://www.w3.org/1999/xlink" width="100" height="100" viewBox="0 0 100 100">
  <defs>
    <clipPath id="clip-path">
      <rect id="Rectangle_50651" data-name="Rectangle 50651" width="78.992" height="40.488"/>
    </clipPath>
  </defs>
  <g id="carousel5" transform="translate(2554 22890)">
    <rect id="Rectangle_50664" data-name="Rectangle 50664" width="100" height="100" transform="translate(-2554 -22890)" fill="#fff" opacity="0"/>
    <g id="Group_34497" data-name="Group 34497" transform="translate(-2556.371 -22883.891)">
      <g id="Group_34496" data-name="Group 34496" transform="translate(13.371 23.89)">
        <g id="Group_34495" data-name="Group 34495" transform="translate(0 0)" clip-path="url(#clip-path)">
          <path id="Path_54573" data-name="Path 54573" d="M78.066,36.4,66.489,25.485c1.52-2.346,3.175-6.335,3.175-9.338a14.994,14.994,0,0,0-29.9-1.617c-3.87,0-1.313,3.157-.013,3.157A15,15,0,0,0,54.671,31.143c2.992,0,6.895-1.7,9.235-3.207L75.412,38.864a.791.791,0,0,0,1.116,0l1.789-1.638c.307-.307.307-.177,0-.484M54.671,26.751a10.6,10.6,0,1,1,10.6-10.6,10.616,10.616,0,0,1-10.6,10.6" transform="translate(0 0)"/>
          <path id="Path_54574" data-name="Path 54574" d="M63.835,17.519h-.017c-.13,0-.267.012-.391.024a2.073,2.073,0,0,0-.331.053c-.018,0-.036.006-.054.006a1.563,1.563,0,0,0-.184.047,2.053,2.053,0,0,0-.272.083,2.963,2.963,0,0,0-.38.154,3.825,3.825,0,0,0,0,6.946,1.272,1.272,0,0,0,.125.059,3.685,3.685,0,0,0,1.493.314h.012a3.843,3.843,0,1,0,0-7.686M65,21.365A1.164,1.164,0,1,1,66.164,20.2,1.168,1.168,0,0,1,65,21.365" transform="translate(-12.643 -3.693)"/>
          <path id="Path_54575" data-name="Path 54575" d="M39.765,14.53H37.729c-1.834,0-2.456,1.661-2.827,2.652l-.009.028a6.465,6.465,0,0,1-.137-.751c-.209-1.423-.382-3.245-.516-4.651C33.61,5.21,33.113,0,29.926,0c-2.809,0-3.312,3.99-4.276,13.822-.373,3.793-1.013,10.329-1.95,12.957-.146.41-.519.425-.7.028a17.266,17.266,0,0,1-.99-3.136c-.579-2.446-1.022-5.442-1.452-8.34-1.08-7.276-1.572-10.6-4.027-10.6-2.653,0-3.186,4.027-4.069,10.7-.23,1.74-.534,4.026-.87,5.72-.084.427-.266.433-.376.011-.144-.567-.271-1.143-.367-1.576-.575-2.6-1.118-5.057-3.225-5.057H.789A.789.789,0,0,0,0,15.319V16.9a.788.788,0,0,0,.789.789H6.3a1.127,1.127,0,0,1,1.032.751c.16.582.316,1.284.436,1.832.62,2.8,1.321,5.973,3.877,5.973,2.571,0,3.061-3.694,3.949-10.4.2-1.524.456-3.45.744-5.068.076-.43.216-.429.294,0,.291,1.57.569,3.439.8,5.018,1.392,9.385,2.492,15.084,6.005,15.084,3.537,0,4.3-6.052,5.351-16.75.272-2.785.641-6.543,1.1-8.962.081-.427.245-.43.331,0,.409,2.055.694,5.038.874,6.941.571,5.978.884,9.272,3.32,9.272,2.286,0,3.038-2.012,3.443-3.092.034-.089.074-.2.115-.3.065-.167.478-.3.913-.3h.866" transform="translate(0)" fill="#fdc736"/>
        </g>
      </g>
    </g>
  </g>
</svg>
