<svg width="101" height="101" viewBox="0 0 101 101" fill="none" xmlns="http://www.w3.org/2000/svg">
<g id="Icon4">
<g id="Clip path group">
<mask id="mask0_328_138760" style="mask-type:luminance" maskUnits="userSpaceOnUse" x="17" y="25" width="67" height="52">
<g id="clip-path-5">
<path id="Rectangle 44332" d="M83.338 25.498H17V76.156H83.338V25.498Z" fill="white"/>
</g>
</mask>
<g mask="url(#mask0_328_138760)">
<g id="Group 27878">
<g id="Path 54274">
<path d="M40.3825 76.1555H34.3475C31.539 76.1891 28.7733 75.4662 26.3405 74.0625C19.6615 70.0975 18.1225 64.9085 18.0075 61.2575C17.7865 54.2575 22.4685 47.8015 26.9075 44.7675C34.9075 39.3075 32.0185 26.8435 31.9885 26.7185C31.9391 26.5172 31.954 26.3055 32.0313 26.1132C32.1085 25.9208 32.2442 25.7576 32.4192 25.6465C32.5941 25.5354 32.7995 25.482 33.0065 25.4938C33.2134 25.5056 33.4114 25.5821 33.5725 25.7125C33.9725 26.0295 43.3025 33.6845 39.3005 50.6125C38.2445 55.0765 38.8135 58.2885 40.8605 59.4265C41.7585 59.8226 42.758 59.9278 43.7187 59.7271C44.6794 59.5264 45.5532 59.03 46.2175 58.3075C46.9605 57.5615 48.4995 55.4905 46.7595 52.3995C46.6476 52.201 46.6076 51.97 46.6462 51.7454C46.6848 51.5209 46.7997 51.3165 46.9715 51.1668C47.1433 51.0171 47.3614 50.9313 47.5891 50.9237C47.8169 50.9162 48.0402 50.9875 48.2215 51.1255C48.5015 51.3395 55.0845 56.4255 55.4015 63.0255C55.5575 66.2985 54.1545 69.3315 51.2285 72.0395C48.2624 74.7309 44.3874 76.1996 40.3825 76.1505M34.4175 29.5575C34.8175 34.0495 34.4645 42.0075 28.0285 46.4015C24.0165 49.1405 19.7895 54.9385 19.9865 61.1975C20.1285 65.7235 22.6755 69.5855 27.3525 72.3635C29.4794 73.5844 31.8953 74.2113 34.3475 74.1785H40.3835C43.8889 74.2267 47.2826 72.947 49.8835 70.5965C52.3585 68.3045 53.5495 65.7965 53.4245 63.1355C53.2735 59.9285 51.2675 57.0295 49.5395 55.1065C49.549 55.9633 49.3838 56.813 49.054 57.6039C48.7242 58.3948 48.2368 59.1102 47.6215 59.7065C46.6563 60.7383 45.3871 61.4353 43.9985 61.6961C42.6099 61.9568 41.1743 61.7678 39.9005 61.1565C38.2085 60.2165 35.6315 57.5365 37.3755 50.1565C39.9155 39.4115 36.7615 32.7625 34.4195 29.5565" fill="#FDC736"/>
<path d="M40.3825 76.1555H34.3475C31.539 76.1891 28.7733 75.4662 26.3405 74.0625C19.6615 70.0975 18.1225 64.9085 18.0075 61.2575C17.7865 54.2575 22.4685 47.8015 26.9075 44.7675C34.9075 39.3075 32.0185 26.8435 31.9885 26.7185C31.9391 26.5172 31.954 26.3055 32.0313 26.1132C32.1085 25.9208 32.2442 25.7576 32.4192 25.6465C32.5941 25.5354 32.7995 25.482 33.0065 25.4938C33.2134 25.5056 33.4114 25.5821 33.5725 25.7125C33.9725 26.0295 43.3025 33.6845 39.3005 50.6125C38.2445 55.0765 38.8135 58.2885 40.8605 59.4265C41.7585 59.8226 42.758 59.9278 43.7187 59.7271C44.6794 59.5264 45.5532 59.03 46.2175 58.3075C46.9605 57.5615 48.4995 55.4905 46.7595 52.3995C46.6476 52.201 46.6076 51.97 46.6462 51.7454C46.6848 51.5209 46.7997 51.3165 46.9715 51.1668C47.1433 51.0171 47.3614 50.9313 47.5891 50.9237C47.8169 50.9162 48.0402 50.9875 48.2215 51.1255C48.5015 51.3395 55.0845 56.4255 55.4015 63.0255C55.5575 66.2985 54.1545 69.3315 51.2285 72.0395C48.2624 74.7309 44.3874 76.1996 40.3825 76.1505M34.4175 29.5575C34.8175 34.0495 34.4645 42.0075 28.0285 46.4015C24.0165 49.1405 19.7895 54.9385 19.9865 61.1975C20.1285 65.7235 22.6755 69.5855 27.3525 72.3635C29.4794 73.5844 31.8953 74.2113 34.3475 74.1785H40.3835C43.8889 74.2267 47.2826 72.947 49.8835 70.5965C52.3585 68.3045 53.5495 65.7965 53.4245 63.1355C53.2735 59.9285 51.2675 57.0295 49.5395 55.1065C49.549 55.9633 49.3838 56.813 49.054 57.6039C48.7242 58.3948 48.2368 59.1102 47.6215 59.7065C46.6563 60.7383 45.3871 61.4353 43.9985 61.6961C42.6099 61.9568 41.1743 61.7678 39.9005 61.1565C38.2085 60.2165 35.6315 57.5365 37.3755 50.1565C39.9155 39.4115 36.7615 32.7625 34.4195 29.5565" stroke="#FDC736" stroke-width="1.2"/>
</g>
<path id="Path 54275" d="M79.7068 76.1563H54.4208C54.1582 76.1563 53.9064 76.052 53.7207 75.8663C53.5351 75.6807 53.4308 75.4288 53.4308 75.1663C53.4308 74.9037 53.5351 74.6519 53.7207 74.4662C53.9064 74.2806 54.1582 74.1763 54.4208 74.1763H79.7068C80.1443 74.176 80.5638 74.0021 80.8732 73.6927C81.1826 73.3833 81.3565 72.9638 81.3568 72.5263V40.6183C81.3565 40.1808 81.1826 39.7612 80.8732 39.4518C80.5638 39.1425 80.1443 38.9685 79.7068 38.9683H44.4158C44.1532 38.9683 43.9014 38.864 43.7158 38.6783C43.5301 38.4927 43.4258 38.2408 43.4258 37.9783C43.4258 37.7157 43.5301 37.4639 43.7158 37.2782C43.9014 37.0926 44.1532 36.9883 44.4158 36.9883H79.7068C80.6692 36.9893 81.5919 37.3721 82.2724 38.0527C82.9529 38.7332 83.3357 39.6559 83.3368 40.6183V72.5253C83.3357 73.4877 82.9529 74.4104 82.2724 75.0909C81.5919 75.7714 80.6692 76.1552 79.7068 76.1563Z" fill="#464646"/>
<path id="Path 54276" d="M82.3478 46.488H44.4178C44.2428 46.488 44.0749 46.4184 43.9511 46.2947C43.8274 46.1709 43.7578 46.003 43.7578 45.828C43.7578 45.6529 43.8274 45.485 43.9511 45.3613C44.0749 45.2375 44.2428 45.168 44.4178 45.168H82.3478C82.5229 45.168 82.6907 45.2375 82.8145 45.3613C82.9383 45.485 83.0078 45.6529 83.0078 45.828C83.0078 46.003 82.9383 46.1709 82.8145 46.2947C82.6907 46.4184 82.5229 46.488 82.3478 46.488Z" fill="#464646"/>
<path id="Path 54277" d="M82.3473 56.8239H55.6913C55.5162 56.8239 55.3483 56.7544 55.2246 56.6306C55.1008 56.5068 55.0312 56.339 55.0312 56.1639C55.0312 55.9889 55.1008 55.821 55.2246 55.6972C55.3483 55.5734 55.5162 55.5039 55.6913 55.5039H82.3473C82.5223 55.5039 82.6902 55.5734 82.8139 55.6972C82.9377 55.821 83.0072 55.9889 83.0072 56.1639C83.0072 56.339 82.9377 56.5068 82.8139 56.6306C82.6902 56.7544 82.5223 56.8239 82.3473 56.8239Z" fill="#464646"/>
<path id="Path 54278" d="M82.3461 67.1598H59.1131C58.9381 67.1598 58.7702 67.0903 58.6464 66.9665C58.5226 66.8428 58.4531 66.6749 58.4531 66.4998C58.4531 66.3248 58.5226 66.1569 58.6464 66.0332C58.7702 65.9094 58.9381 65.8398 59.1131 65.8398H82.3461C82.5212 65.8398 82.689 65.9094 82.8128 66.0332C82.9366 66.1569 83.0061 66.3248 83.0061 66.4998C83.0061 66.6749 82.9366 66.8428 82.8128 66.9665C82.689 67.0903 82.5212 67.1598 82.3461 67.1598Z" fill="#464646"/>
<path id="Path 54279" d="M69.0194 46.4864C68.8443 46.4864 68.6765 46.4169 68.5527 46.2931C68.4289 46.1693 68.3594 46.0015 68.3594 45.8264V37.9764C68.3594 37.8014 68.4289 37.6335 68.5527 37.5097C68.6765 37.3859 68.8443 37.3164 69.0194 37.3164C69.1944 37.3164 69.3623 37.3859 69.4861 37.5097C69.6098 37.6335 69.6794 37.8014 69.6794 37.9764V45.8264C69.6795 45.9131 69.6625 45.999 69.6294 46.0791C69.5963 46.1593 69.5477 46.2321 69.4864 46.2934C69.425 46.3547 69.3522 46.4033 69.2721 46.4364C69.192 46.4696 69.1061 46.4865 69.0194 46.4864Z" fill="#464646"/>
<path id="Path 54280" d="M69.0194 67.1589C68.8443 67.1589 68.6765 67.0894 68.5527 66.9656C68.4289 66.8418 68.3594 66.674 68.3594 66.4989V56.1639C68.3594 55.9889 68.4289 55.821 68.5527 55.6972C68.6765 55.5734 68.8443 55.5039 69.0194 55.5039C69.1944 55.5039 69.3623 55.5734 69.4861 55.6972C69.6098 55.821 69.6794 55.9889 69.6794 56.1639V66.4989C69.6794 66.674 69.6098 66.8418 69.4861 66.9656C69.3623 67.0894 69.1944 67.1589 69.0194 67.1589Z" fill="#464646"/>
<path id="Path 54281" d="M55.6913 46.4864C55.6045 46.4865 55.5187 46.4696 55.4385 46.4364C55.3584 46.4033 55.2856 46.3547 55.2243 46.2934C55.163 46.2321 55.1143 46.1593 55.0812 46.0791C55.0481 45.999 55.0311 45.9131 55.0313 45.8264V37.9764C55.0313 37.8014 55.1008 37.6335 55.2246 37.5097C55.3483 37.3859 55.5162 37.3164 55.6913 37.3164C55.8663 37.3164 56.0342 37.3859 56.1579 37.5097C56.2817 37.6335 56.3513 37.8014 56.3513 37.9764V45.8264C56.3514 45.9131 56.3344 45.999 56.3013 46.0791C56.2682 46.1593 56.2195 46.2321 56.1582 46.2934C56.0969 46.3547 56.0241 46.4033 55.944 46.4364C55.8639 46.4696 55.778 46.4865 55.6913 46.4864Z" fill="#464646"/>
<path id="Path 54282" d="M75.6834 56.823C75.5084 56.823 75.3405 56.7534 75.2168 56.6297C75.093 56.5059 75.0234 56.338 75.0234 56.163V45.828C75.0234 45.6529 75.093 45.485 75.2168 45.3613C75.3405 45.2375 75.5084 45.168 75.6834 45.168C75.8585 45.168 76.0264 45.2375 76.1501 45.3613C76.2739 45.485 76.3434 45.6529 76.3434 45.828V56.163C76.3434 56.338 76.2739 56.5059 76.1501 56.6297C76.0264 56.7534 75.8585 56.823 75.6834 56.823Z" fill="#464646"/>
<path id="Path 54283" d="M62.3553 56.823C62.1803 56.823 62.0124 56.7534 61.8886 56.6297C61.7649 56.5059 61.6953 56.338 61.6953 56.163V45.828C61.6953 45.6529 61.7649 45.485 61.8886 45.3613C62.0124 45.2375 62.1803 45.168 62.3553 45.168C62.5304 45.168 62.6982 45.2375 62.822 45.3613C62.9458 45.485 63.0153 45.6529 63.0153 45.828V56.163C63.0153 56.338 62.9458 56.5059 62.822 56.6297C62.6982 56.7534 62.5304 56.823 62.3553 56.823Z" fill="#464646"/>
<path id="Path 54284" d="M75.6834 75.8259C75.5084 75.8259 75.3405 75.7564 75.2168 75.6326C75.093 75.5088 75.0234 75.3409 75.0234 75.1659V66.4979C75.0234 66.3229 75.093 66.155 75.2168 66.0312C75.3405 65.9074 75.5084 65.8379 75.6834 65.8379C75.8585 65.8379 76.0264 65.9074 76.1501 66.0312C76.2739 66.155 76.3434 66.3229 76.3434 66.4979V75.1649C76.3434 75.3399 76.2739 75.5078 76.1501 75.6316C76.0264 75.7554 75.8585 75.8249 75.6834 75.8249" fill="#464646"/>
<path id="Path 54285" d="M62.3553 75.8259C62.1803 75.8259 62.0124 75.7564 61.8886 75.6326C61.7649 75.5088 61.6953 75.3409 61.6953 75.1659V66.4979C61.6953 66.3229 61.7649 66.155 61.8886 66.0312C62.0124 65.9074 62.1803 65.8379 62.3553 65.8379C62.5304 65.8379 62.6982 65.9074 62.822 66.0312C62.9458 66.155 63.0153 66.3229 63.0153 66.4979V75.1649C63.0153 75.3399 62.9458 75.5078 62.822 75.6316C62.6982 75.7554 62.5304 75.8249 62.3553 75.8249" fill="#464646"/>
</g>
</g>
</g>
</g>
</svg>
