<svg width="101" height="101" viewBox="0 0 101 101" fill="none" xmlns="http://www.w3.org/2000/svg">
<mask id="mask0_328_138805" style="mask-type:luminance" maskUnits="userSpaceOnUse" x="24" y="17" width="53" height="68">
<path d="M76.181 17.5H24V84.029H76.181V17.5Z" fill="white"/>
</mask>
<g mask="url(#mask0_328_138805)">
<path d="M50.6355 81.8396C50.4526 81.8408 50.2733 81.7887 50.1195 81.6896L36.1875 72.5596C33.1113 70.5509 30.5855 67.8057 28.8392 64.5733C27.0929 61.3409 26.1814 57.7236 26.1875 54.0496V27.9286C26.1873 27.7274 26.2516 27.5315 26.3709 27.3695C26.4902 27.2075 26.6583 27.0881 26.8505 27.0286L50.3565 19.7316C50.5383 19.6754 50.7328 19.6754 50.9145 19.7316L74.4205 27.0316C74.6127 27.0911 74.7808 27.2105 74.9002 27.3725C75.0195 27.5345 75.0837 27.7304 75.0835 27.9316V54.0496C75.0897 57.7236 74.1782 61.3409 72.4319 64.5733C70.6856 67.8057 68.1597 70.5509 65.0835 72.5596L51.1515 81.6896C50.9982 81.7901 50.8189 81.8437 50.6355 81.8436M28.0705 28.6226V54.0496C28.0643 57.412 28.8981 60.7226 30.4962 63.681C32.0943 66.6393 34.406 69.1515 37.2215 70.9896L50.6355 79.7776L64.0495 70.9896C66.865 69.1515 69.1766 66.6392 70.7747 63.6809C72.3728 60.7226 73.2066 57.412 73.2005 54.0496V28.6226L50.6355 21.6166L28.0705 28.6226Z" fill="#464646"/>
<path d="M50.6355 81.8396C50.4526 81.8408 50.2733 81.7887 50.1195 81.6896L36.1875 72.5596C33.1113 70.5509 30.5855 67.8057 28.8392 64.5733C27.0929 61.3409 26.1814 57.7236 26.1875 54.0496V27.9286C26.1873 27.7274 26.2516 27.5315 26.3709 27.3695C26.4902 27.2075 26.6583 27.0881 26.8505 27.0286L50.3565 19.7316C50.5383 19.6754 50.7328 19.6754 50.9145 19.7316L74.4205 27.0316C74.6127 27.0911 74.7808 27.2105 74.9002 27.3725C75.0195 27.5345 75.0837 27.7304 75.0835 27.9316V54.0496C75.0897 57.7236 74.1782 61.3409 72.4319 64.5733C70.6856 67.8057 68.1597 70.5509 65.0835 72.5596L51.1515 81.6896C50.9982 81.7901 50.8189 81.8437 50.6355 81.8436M28.0705 28.6226V54.0496C28.0643 57.412 28.8981 60.7226 30.4962 63.681C32.0943 66.6393 34.406 69.1515 37.2215 70.9896L50.6355 79.7776L64.0495 70.9896C66.865 69.1515 69.1766 66.6392 70.7747 63.6809C72.3728 60.7226 73.2066 57.412 73.2005 54.0496V28.6226L50.6355 21.6166L28.0705 28.6226Z" stroke="#464646"/>
<path d="M50.6343 63.4224C49.4423 63.4237 48.2788 63.0578 47.3023 62.3744C45.7138 61.2588 44.4171 59.7776 43.5214 58.0556C42.6258 56.3336 42.1576 54.4214 42.1562 52.4804V45.8154C42.1576 44.822 42.5528 43.8697 43.2552 43.1673C43.9576 42.4649 44.9099 42.0697 45.9033 42.0684H55.3633C56.3566 42.0697 57.3089 42.4649 58.0113 43.1673C58.7137 43.8697 59.1089 44.822 59.1103 45.8154V52.4794C59.1089 54.4204 58.6407 56.3326 57.7451 58.0546C56.8494 59.7766 55.5527 61.2578 53.9642 62.3734C52.9879 63.0566 51.8249 63.4225 50.6333 63.4214M45.9033 43.3214C45.243 43.3235 44.6104 43.5867 44.1435 44.0536C43.6766 44.5205 43.4134 45.1531 43.4113 45.8134V52.4794C43.4121 54.2187 43.8315 55.9323 44.634 57.4755C45.4366 59.0186 46.5987 60.3459 48.0223 61.3454C48.788 61.8795 49.6991 62.1659 50.6328 62.1659C51.5664 62.1659 52.4775 61.8795 53.2432 61.3454C54.6672 60.3462 55.8297 59.0189 56.6326 57.4758C57.4355 55.9326 57.8552 54.2189 57.8563 52.4794V45.8154C57.8541 45.1551 57.5909 44.5225 57.124 44.0556C56.6571 43.5887 56.0245 43.3255 55.3643 43.3234L45.9033 43.3214Z" fill="#FDC736"/>
<path d="M50.6343 63.4224C49.4423 63.4237 48.2788 63.0578 47.3023 62.3744C45.7138 61.2588 44.4171 59.7776 43.5214 58.0556C42.6258 56.3336 42.1576 54.4214 42.1562 52.4804V45.8154C42.1576 44.822 42.5528 43.8697 43.2552 43.1673C43.9576 42.4649 44.9099 42.0697 45.9033 42.0684H55.3633C56.3566 42.0697 57.3089 42.4649 58.0113 43.1673C58.7137 43.8697 59.1089 44.822 59.1103 45.8154V52.4794C59.109 54.4204 58.6407 56.3326 57.7451 58.0546C56.8494 59.7766 55.5527 61.2578 53.9642 62.3734C52.9879 63.0566 51.8249 63.4225 50.6333 63.4214M53.2432 61.3454C52.4775 61.8795 51.5664 62.1659 50.6328 62.1659C49.6991 62.1659 48.788 61.8795 48.0223 61.3454C46.5987 60.3459 45.4366 59.0186 44.634 57.4755C43.8315 55.9323 43.4121 54.2187 43.4113 52.4794V45.8134C43.4134 45.1531 43.6766 44.5205 44.1435 44.0536C44.6104 43.5867 45.243 43.3235 45.9033 43.3214L55.3643 43.3234C56.0245 43.3255 56.6571 43.5887 57.124 44.0556C57.5909 44.5225 57.8541 45.1551 57.8563 45.8154V52.4794C57.8552 54.2189 57.4355 55.9326 56.6326 57.4758C55.8297 59.0189 54.6672 60.3462 53.2432 61.3454ZM53.2432 61.3454L53.6032 61.8594" stroke="#FDC736"/>
<path d="M53.7621 43.3257H47.3311C47.1646 43.3257 47.0048 43.2596 46.8871 43.1418C46.7693 43.024 46.7031 42.8643 46.7031 42.6977V38.6427C46.7037 38.044 46.9419 37.4701 47.3655 37.047C47.7892 36.624 48.3634 36.3865 48.9621 36.3867H52.1401C52.7383 36.3872 53.3118 36.6251 53.7348 37.0481C54.1577 37.471 54.3956 38.0446 54.3961 38.6427V42.6977C54.3961 42.8643 54.33 43.024 54.2122 43.1418C54.0944 43.2596 53.9347 43.3257 53.7681 43.3257M47.9621 42.0697H53.1411V38.6427C53.1411 38.3775 53.0358 38.1232 52.8482 37.9356C52.6607 37.7481 52.4063 37.6427 52.1411 37.6427H48.9621C48.6969 37.6427 48.4426 37.7481 48.255 37.9356C48.0675 38.1232 47.9621 38.3775 47.9621 38.6427V42.0697Z" fill="#FDC736"/>
<path d="M53.7621 43.3257H47.3311C47.1646 43.3257 47.0048 43.2596 46.8871 43.1418C46.7693 43.024 46.7031 42.8643 46.7031 42.6977V38.6427C46.7037 38.044 46.9419 37.4701 47.3655 37.047C47.7892 36.624 48.3634 36.3865 48.9621 36.3867H52.1401C52.7383 36.3872 53.3118 36.6251 53.7348 37.0481C54.1577 37.471 54.3956 38.0446 54.3961 38.6427V42.6977C54.3961 42.8643 54.33 43.024 54.2122 43.1418C54.0944 43.2596 53.9347 43.3257 53.7681 43.3257M47.9621 42.0697H53.1411V38.6427C53.1411 38.3775 53.0358 38.1232 52.8482 37.9356C52.6607 37.7481 52.4063 37.6427 52.1411 37.6427H48.9621C48.6969 37.6427 48.4426 37.7481 48.255 37.9356C48.0675 38.1232 47.9621 38.3775 47.9621 38.6427V42.0697Z" stroke="#FDC736"/>
<path d="M60.2646 46.4455H58.4796C58.313 46.4455 58.1533 46.3794 58.0355 46.2616C57.9177 46.1438 57.8516 45.9841 57.8516 45.8175C57.8516 45.651 57.9177 45.4912 58.0355 45.3735C58.1533 45.2557 58.313 45.1895 58.4796 45.1895H60.2646C61.0502 45.1887 61.8035 44.8763 62.3592 44.3209C62.9148 43.7654 63.2275 43.0122 63.2286 42.2265V36.3835C63.2252 36.299 63.2389 36.2147 63.2689 36.1356C63.299 36.0565 63.3446 35.9843 63.4032 35.9234C63.4618 35.8624 63.5321 35.8138 63.61 35.7807C63.6878 35.7476 63.7715 35.7305 63.8561 35.7305C63.9406 35.7305 64.0243 35.7476 64.1022 35.7807C64.18 35.8138 64.2503 35.8624 64.3089 35.9234C64.3675 35.9843 64.4132 36.0565 64.4432 36.1356C64.4732 36.2147 64.4869 36.299 64.4836 36.3835V42.2265C64.4822 43.3451 64.0373 44.4174 63.2464 45.2083C62.4555 45.9993 61.3831 46.4442 60.2646 46.4455Z" fill="#FDC736" stroke="#FDC736"/>
<path d="M42.7853 46.4439H41.0003C39.8817 46.4426 38.8094 45.9977 38.0184 45.2067C37.2275 44.4158 36.7826 43.3434 36.7812 42.2249V36.3819C36.7812 36.2154 36.8474 36.0556 36.9652 35.9378C37.083 35.8201 37.2427 35.7539 37.4092 35.7539C37.5758 35.7539 37.7355 35.8201 37.8533 35.9378C37.9711 36.0556 38.0373 36.2154 38.0373 36.3819V42.2249C38.0383 43.0106 38.351 43.7638 38.9066 44.3192C39.4623 44.8747 40.2156 45.1871 41.0013 45.1879H42.7853C42.9518 45.1879 43.1115 45.2541 43.2293 45.3718C43.3471 45.4896 43.4132 45.6494 43.4132 45.8159C43.4132 45.9825 43.3471 46.1422 43.2293 46.26C43.1115 46.3777 42.9518 46.4439 42.7853 46.4439Z" fill="#FDC736" stroke="#FDC736"/>
<path d="M37.4092 58.0918C37.2427 58.0918 37.083 58.0257 36.9652 57.9079C36.8474 57.7901 36.7812 57.6304 36.7812 57.4638V51.6218C36.7826 50.5033 37.2275 49.431 38.0184 48.64C38.8094 47.8491 39.8817 47.4042 41.0003 47.4028H42.7853C42.8698 47.3995 42.9541 47.4132 43.0332 47.4432C43.1122 47.4732 43.1844 47.5189 43.2454 47.5775C43.3064 47.6361 43.3549 47.7064 43.3881 47.7842C43.4212 47.8621 43.4383 47.9458 43.4383 48.0303C43.4383 48.1149 43.4212 48.1986 43.3881 48.2764C43.3549 48.3543 43.3064 48.4246 43.2454 48.4832C43.1844 48.5418 43.1122 48.5875 43.0332 48.6175C42.9541 48.6475 42.8698 48.6612 42.7853 48.6578H41.0003C40.2144 48.6586 39.4609 48.9712 38.9053 49.5269C38.3496 50.0825 38.037 50.836 38.0363 51.6218V57.4668C38.0363 57.6334 37.9701 57.7931 37.8523 57.9109C37.7345 58.0287 37.5748 58.0948 37.4082 58.0948" fill="#FDC736"/>
<path d="M37.4092 58.0918C37.2427 58.0918 37.083 58.0257 36.9652 57.9079C36.8474 57.7901 36.7812 57.6304 36.7812 57.4638V51.6218C36.7826 50.5033 37.2275 49.431 38.0184 48.64C38.8094 47.8491 39.8817 47.4042 41.0003 47.4028H42.7853C42.8698 47.3995 42.9541 47.4132 43.0332 47.4432C43.1122 47.4732 43.1844 47.5189 43.2454 47.5775C43.3064 47.6361 43.3549 47.7064 43.3881 47.7842C43.4212 47.8621 43.4383 47.9458 43.4383 48.0303C43.4383 48.1149 43.4212 48.1986 43.3881 48.2764C43.3549 48.3543 43.3064 48.4246 43.2454 48.4832C43.1844 48.5418 43.1122 48.5875 43.0332 48.6175C42.9541 48.6475 42.8698 48.6612 42.7853 48.6578H41.0003C40.2144 48.6586 39.4609 48.9712 38.9053 49.5269C38.3496 50.0825 38.037 50.836 38.0363 51.6218V57.4668C38.0363 57.6334 37.9701 57.7931 37.8523 57.9109C37.7345 58.0287 37.5748 58.0948 37.4082 58.0948" stroke="#FDC736"/>
<path d="M63.8582 58.0918C63.6916 58.0918 63.5319 58.0257 63.4141 57.9079C63.2964 57.7901 63.2302 57.6304 63.2302 57.4638V51.6218C63.2294 50.836 62.9169 50.0825 62.3612 49.5269C61.8055 48.9712 61.052 48.6586 60.2662 48.6578H58.4812C58.3967 48.6612 58.3123 48.6475 58.2333 48.6175C58.1542 48.5875 58.082 48.5418 58.021 48.4832C57.96 48.4246 57.9115 48.3543 57.8784 48.2764C57.8452 48.1986 57.8281 48.1149 57.8281 48.0303C57.8281 47.9458 57.8452 47.8621 57.8784 47.7842C57.9115 47.7064 57.96 47.6361 58.021 47.5775C58.082 47.5189 58.1542 47.4732 58.2333 47.4432C58.3123 47.4132 58.3967 47.3995 58.4812 47.4028H60.2642C61.3827 47.4042 62.4551 47.8491 63.246 48.64C64.0369 49.431 64.4819 50.5033 64.4832 51.6218V57.4668C64.4832 57.6334 64.417 57.7931 64.2992 57.9109C64.1815 58.0287 64.0217 58.0948 63.8552 58.0948" fill="#FDC736"/>
<path d="M63.8582 58.0918C63.6916 58.0918 63.5319 58.0257 63.4141 57.9079C63.2964 57.7901 63.2302 57.6304 63.2302 57.4638V51.6218C63.2294 50.836 62.9169 50.0825 62.3612 49.5269C61.8055 48.9712 61.052 48.6586 60.2662 48.6578H58.4812C58.3967 48.6612 58.3123 48.6475 58.2333 48.6175C58.1542 48.5875 58.082 48.5418 58.021 48.4832C57.96 48.4246 57.9115 48.3543 57.8784 48.2764C57.8452 48.1986 57.8281 48.1149 57.8281 48.0303C57.8281 47.9458 57.8452 47.8621 57.8784 47.7842C57.9115 47.7064 57.96 47.6361 58.021 47.5775C58.082 47.5189 58.1542 47.4732 58.2333 47.4432C58.3123 47.4132 58.3967 47.3995 58.4812 47.4028H60.2642C61.3827 47.4042 62.4551 47.8491 63.246 48.64C64.0369 49.431 64.4819 50.5033 64.4832 51.6218V57.4668C64.4832 57.6334 64.417 57.7931 64.2992 57.9109C64.1815 58.0287 64.0217 58.0948 63.8552 58.0948" stroke="#FDC736"/>
<path d="M60.5459 65.7749C60.3793 65.7749 60.2196 65.7088 60.1018 65.591C59.984 65.4732 59.9179 65.3135 59.9179 65.1469V60.3669C59.9165 59.8723 59.7199 59.3983 59.3709 59.0479L57.3009 56.9779C57.2409 56.92 57.1931 56.8507 57.1603 56.7741C57.1274 56.6975 57.1101 56.6151 57.1094 56.5317C57.1087 56.4484 57.1246 56.3657 57.1562 56.2886C57.1877 56.2114 57.2344 56.1413 57.2933 56.0824C57.3523 56.0234 57.4223 55.9768 57.4995 55.9452C57.5766 55.9137 57.6593 55.8978 57.7427 55.8985C57.826 55.8992 57.9084 55.9165 57.985 55.9493C58.0616 55.9822 58.1309 56.03 58.1889 56.0899L60.2589 58.1599C60.8428 58.7462 61.1717 59.5394 61.1739 60.3669V65.1469C61.1739 65.3135 61.1077 65.4732 60.9899 65.591C60.8721 65.7088 60.7124 65.7749 60.5459 65.7749Z" fill="#FDC736" stroke="#FDC736"/>
<path d="M40.7374 65.7749C40.5708 65.7749 40.4111 65.7088 40.2933 65.591C40.1755 65.4732 40.1094 65.3135 40.1094 65.1469V60.3669C40.1118 59.5397 40.4402 58.7467 41.0234 58.1599L43.0944 56.0899C43.1523 56.03 43.2216 55.9822 43.2982 55.9493C43.3748 55.9165 43.4572 55.8992 43.5406 55.8985C43.6239 55.8978 43.7066 55.9137 43.7837 55.9452C43.8609 55.9768 43.931 56.0234 43.9899 56.0824C44.0489 56.1413 44.0955 56.2114 44.1271 56.2886C44.1586 56.3657 44.1745 56.4484 44.1738 56.5317C44.1731 56.6151 44.1558 56.6975 44.123 56.7741C44.0901 56.8507 44.0423 56.92 43.9824 56.9779L41.9124 59.0479C41.5639 59.3986 41.3677 59.8725 41.3664 60.3669V65.1469C41.3664 65.3135 41.3002 65.4732 41.1824 65.591C41.0647 65.7088 40.9039 65.7749 40.7374 65.7749Z" fill="#FDC736" stroke="#FDC736"/>
<path d="M52.5264 37.6405C52.3599 37.6405 52.2001 37.5743 52.0824 37.4565C51.9646 37.3388 51.8984 37.179 51.8984 37.0125V34.7025C51.8995 33.9311 52.2065 33.1917 52.752 32.6463C53.2975 32.101 54.0371 31.7943 54.8084 31.7935C54.8929 31.7901 54.9773 31.8038 55.0563 31.8338C55.1354 31.8639 55.2076 31.9095 55.2686 31.9681C55.3296 32.0267 55.3781 32.0971 55.4113 32.1749C55.4444 32.2527 55.4615 32.3364 55.4615 32.421C55.4615 32.5055 55.4444 32.5893 55.4113 32.6671C55.3781 32.7449 55.3296 32.8152 55.2686 32.8738C55.2076 32.9324 55.1354 32.9781 55.0563 33.0081C54.9773 33.0381 54.8929 33.0518 54.8084 33.0485C54.3699 33.049 53.9495 33.2234 53.6395 33.5335C53.3294 33.8436 53.155 34.264 53.1544 34.7025V37.0125C53.1544 37.179 53.0883 37.3388 52.9705 37.4565C52.8527 37.5743 52.693 37.6405 52.5264 37.6405Z" fill="#FDC736" stroke="#FDC736"/>
<path d="M48.7437 37.6424C48.5771 37.6424 48.4174 37.5763 48.2996 37.4585C48.1818 37.3407 48.1156 37.181 48.1156 37.0144V34.7044C48.1151 34.2659 47.9407 33.8455 47.6306 33.5355C47.3205 33.2254 46.9002 33.051 46.4616 33.0504C46.3771 33.0538 46.2928 33.0401 46.2137 33.0101C46.1347 32.98 46.0625 32.9344 46.0015 32.8758C45.9405 32.8172 45.892 32.7468 45.8588 32.669C45.8257 32.5912 45.8086 32.5075 45.8086 32.4229C45.8086 32.3383 45.8257 32.2546 45.8588 32.1768C45.892 32.099 45.9405 32.0287 46.0015 31.9701C46.0625 31.9115 46.1347 31.8658 46.2137 31.8358C46.2928 31.8058 46.3771 31.792 46.4616 31.7954C47.233 31.7962 47.9726 32.1029 48.5181 32.6483C49.0636 33.1936 49.3706 33.9331 49.3717 34.7044V37.0144C49.3717 37.181 49.3055 37.3407 49.1877 37.4585C49.0699 37.5763 48.9102 37.6424 48.7437 37.6424Z" fill="#FDC736" stroke="#FDC736"/>
<path d="M50.6358 29.8279C50.4693 29.8279 50.3095 29.7617 50.1917 29.644C50.074 29.5262 50.0078 29.3665 50.0078 29.1999V20.6319C50.0078 20.4654 50.074 20.3056 50.1917 20.1878C50.3095 20.0701 50.4693 20.0039 50.6358 20.0039C50.8024 20.0039 50.9621 20.0701 51.0799 20.1878C51.1976 20.3056 51.2638 20.4654 51.2638 20.6319V29.1999C51.2638 29.3665 51.1976 29.5262 51.0799 29.644C50.9621 29.7617 50.8024 29.8279 50.6358 29.8279Z" fill="#464646" stroke="#464646"/>
<path d="M50.6358 81.5263C50.4693 81.5263 50.3095 81.4601 50.1917 81.3424C50.074 81.2246 50.0078 81.0649 50.0078 80.8983V67.1983C50.0078 67.0318 50.074 66.872 50.1917 66.7543C50.3095 66.6365 50.4693 66.5703 50.6358 66.5703C50.8024 66.5703 50.9621 66.6365 51.0799 66.7543C51.1976 66.872 51.2638 67.0318 51.2638 67.1983V80.8983C51.2638 81.0649 51.1976 81.2246 51.0799 81.3424C50.9621 81.4601 50.8024 81.5263 50.6358 81.5263Z" fill="#464646" stroke="#464646"/>
</g>
</svg>
