<svg width="100" height="101" viewBox="0 0 100 101" fill="none" xmlns="http://www.w3.org/2000/svg">
<g id="Icon">
<g id="Clip path group">
<mask id="mask0_328_138692" style="mask-type:luminance" maskUnits="userSpaceOnUse" x="23" y="23" width="54" height="56">
<g id="clip-path-2">
<path id="Rectangle 44331" d="M76.994 23.498H23V78.342H76.994V23.498Z" fill="white"/>
</g>
</mask>
<g mask="url(#mask0_328_138692)">
<g id="Group 27875">
<path id="Path 10783" d="M46.8237 76.2531C46.7735 76.253 46.7234 76.2493 46.6737 76.2421C40.614 75.298 35.0917 72.2182 31.1041 67.5589C27.1165 62.8995 24.9265 56.9678 24.9297 50.8351V34.5961C24.9274 32.8337 25.5636 31.1302 26.7206 29.8008C27.8775 28.4714 29.4769 27.6061 31.2227 27.3651C41.5662 25.8314 52.0792 25.8314 62.4227 27.3651C64.0023 27.5969 65.464 28.3353 66.5879 29.4692C67.7117 30.6032 68.437 32.0714 68.6547 33.6531C68.6835 33.9239 68.6051 34.1953 68.4365 34.4091C68.2678 34.623 68.0222 34.7624 67.7521 34.7975C67.482 34.8326 67.2089 34.7607 66.9911 34.5971C66.7733 34.4335 66.6282 34.1913 66.5867 33.9221C66.4289 32.7898 65.9078 31.7394 65.1017 30.9287C64.2956 30.1181 63.2481 29.5911 62.1167 29.4271C51.9751 27.9233 41.6673 27.9233 31.5257 29.4271C30.2758 29.5975 29.1298 30.2148 28.3 31.1649C27.4701 32.115 27.0125 33.3336 27.0117 34.5951V50.8351C27.005 56.4424 28.9951 61.8688 32.6255 66.1423C36.2558 70.4158 41.2891 73.257 46.8237 74.1571C50.0422 73.657 53.1201 72.4877 55.8588 70.7246C58.5975 68.9615 60.9361 66.6438 62.7237 63.9211C62.7972 63.8025 62.8937 63.6999 63.0076 63.6193C63.1214 63.5387 63.2503 63.4817 63.3865 63.4518C63.5228 63.4219 63.6636 63.4196 63.8008 63.4451C63.9379 63.4706 64.0686 63.5233 64.185 63.6002C64.3014 63.6771 64.4012 63.7765 64.4785 63.8926C64.5557 64.0087 64.609 64.1392 64.635 64.2762C64.6609 64.4133 64.6592 64.5541 64.6298 64.6905C64.6003 64.8268 64.5439 64.9559 64.4637 65.0701C62.4999 68.0593 59.9267 70.5998 56.9126 72.5251C53.8984 74.4504 50.5115 75.7171 46.9737 76.2421C46.924 76.2493 46.8739 76.253 46.8237 76.2531Z" fill="#464646"/>
<path id="Path 10784" d="M46.8266 72.0309C46.7652 72.0309 46.704 72.0255 46.6436 72.0149C41.7181 71.0646 37.2756 68.4327 34.0759 64.5694C30.8761 60.7061 29.1178 55.8512 29.1016 50.8349V34.5969C29.1051 33.8362 29.384 33.1025 29.8866 32.5316C30.3892 31.9606 31.0815 31.5909 31.8356 31.4909C36.7984 30.7552 41.8085 30.3842 46.8256 30.3809C47.0965 30.3893 47.3535 30.5028 47.5421 30.6974C47.7308 30.8919 47.8363 31.1523 47.8363 31.4234C47.8363 31.6944 47.7308 31.9548 47.5421 32.1494C47.3535 32.344 47.0965 32.4575 46.8256 32.4659C41.9109 32.4693 37.0031 32.833 32.1416 33.5539C31.8835 33.5834 31.6448 33.7053 31.4695 33.897C31.2942 34.0886 31.1941 34.3372 31.1876 34.5969V50.8349C31.1995 55.3622 32.7838 59.7449 35.6694 63.2335C38.555 66.7221 42.5628 69.1001 47.0076 69.9609C47.2631 70.0075 47.492 70.1479 47.6495 70.3545C47.8071 70.5611 47.8818 70.819 47.8592 71.0778C47.8365 71.3366 47.7181 71.5776 47.5271 71.7537C47.3362 71.9298 47.0863 72.0293 46.8266 72.0309Z" fill="#464646"/>
<path id="Path 54268" d="M55.4583 59.0419C55.564 59.0395 55.6692 59.0585 55.7673 59.0978C55.8655 59.1371 55.9547 59.196 56.0295 59.2708C56.1043 59.3456 56.1631 59.4347 56.2024 59.5329C56.2418 59.6311 56.2608 59.7362 56.2583 59.8419C56.2607 59.9445 56.2416 60.0465 56.2021 60.1412C56.1627 60.236 56.1038 60.3214 56.0293 60.3919C55.9535 60.4651 55.8639 60.5223 55.7657 60.5603C55.6674 60.5982 55.5626 60.6161 55.4573 60.6129H50.5963C50.488 60.6186 50.3797 60.6011 50.2786 60.5616C50.1776 60.5222 50.0861 60.4616 50.0103 60.3839C49.8648 60.2243 49.788 60.0138 49.7963 59.7979C49.7953 59.5625 49.8877 59.3363 50.0533 59.1689L53.1693 55.8379C53.5002 55.4873 53.7815 55.0929 54.0053 54.6659C54.1873 54.3465 54.2924 53.989 54.3123 53.6219C54.3319 53.1984 54.1827 52.7845 53.8973 52.4709C53.755 52.325 53.5834 52.2107 53.3938 52.1355C53.2043 52.0604 53.001 52.0261 52.7973 52.0349C52.6042 52.0376 52.414 52.0816 52.2393 52.1639C52.0397 52.2557 51.8544 52.376 51.6893 52.5209C51.5071 52.6798 51.3419 52.8571 51.1963 53.0499C51.1132 53.1775 50.9937 53.2771 50.8533 53.3359C50.7524 53.3716 50.6463 53.3909 50.5393 53.3929C50.3233 53.3907 50.1163 53.3063 49.9603 53.1569C49.8784 53.0904 49.8122 53.0066 49.7663 52.9115C49.7205 52.8165 49.6963 52.7125 49.6953 52.6069C49.6982 52.4361 49.7557 52.2707 49.8593 52.1349C49.9822 51.967 50.1183 51.8092 50.2663 51.6629C50.5074 51.4226 50.7759 51.2115 51.0663 51.0339C51.3531 50.8567 51.6603 50.715 51.9813 50.6119C52.2767 50.5148 52.5854 50.4642 52.8963 50.4619C53.4742 50.448 54.0464 50.5783 54.5613 50.8409C55.0228 51.0835 55.4028 51.4563 55.6543 51.9129C55.9217 52.4163 56.0546 52.9802 56.0403 53.5499C56.0178 54.161 55.8589 54.7592 55.5753 55.3009C55.2522 55.9635 54.8304 56.5731 54.3243 57.1089L52.3943 59.1669L52.2363 59.0389L55.4583 59.0419Z" fill="#FDC736"/>
<path id="Path 54269" d="M61.9173 60.7559C61.5354 60.7516 61.1557 60.6965 60.7883 60.5919C60.4298 60.5029 60.0939 60.3397 59.8023 60.1129C59.6741 60.0021 59.5737 59.8627 59.5093 59.7059C59.4414 59.5552 59.405 59.3922 59.4023 59.2269C59.4049 59.1409 59.4245 59.0561 59.4601 58.9777C59.4956 58.8993 59.5463 58.8286 59.6093 58.7699C59.688 58.6951 59.7813 58.6373 59.8833 58.6003C59.9854 58.5633 60.094 58.5479 60.2023 58.5549C60.4387 58.5807 60.6623 58.6753 60.8453 58.8269C61.0049 58.9258 61.1721 59.0117 61.3453 59.0839C61.5217 59.1592 61.7115 59.198 61.9033 59.1979C62.3128 59.2083 62.7189 59.1227 63.0893 58.9479C63.4074 58.7952 63.6753 58.5548 63.8613 58.2549C64.0478 57.9395 64.142 57.5782 64.1333 57.2119C64.1428 56.8845 64.0558 56.5614 63.8833 56.2829C63.7199 56.0291 63.4931 55.8223 63.2253 55.6829C62.9544 55.5404 62.6525 55.4669 62.3463 55.4689C62.0819 55.463 61.8191 55.5117 61.5743 55.6119C61.355 55.7073 61.155 55.8049 60.9743 55.9049C60.8091 56.0004 60.6222 56.0521 60.4313 56.0549C60.1804 56.075 59.931 56.0013 59.7313 55.8479C59.5842 55.7197 59.4836 55.5463 59.4453 55.3549C59.408 55.186 59.3982 55.012 59.4163 54.8399L59.8593 51.3659C59.8941 51.1715 59.9982 50.9963 60.1523 50.8729C60.3117 50.7434 60.512 50.675 60.7173 50.6799H64.8493C64.9551 50.6775 65.0602 50.6965 65.1584 50.7358C65.2565 50.7751 65.3457 50.834 65.4205 50.9088C65.4953 50.9835 65.5541 51.0727 65.5935 51.1709C65.6328 51.2691 65.6518 51.3742 65.6493 51.4799C65.6518 51.5827 65.6326 51.6848 65.5932 51.7797C65.5537 51.8746 65.4949 51.9602 65.4203 52.0309C65.3445 52.104 65.2549 52.1612 65.1567 52.1992C65.0584 52.2371 64.9536 52.2551 64.8483 52.2519H61.1603L61.3173 52.1229L60.9313 55.0229L60.7453 54.4799C60.8405 54.3555 60.9697 54.2614 61.1173 54.2089C61.3294 54.1157 61.5492 54.0414 61.7743 53.9869C62.0126 53.9262 62.2574 53.8949 62.5033 53.8939C63.1036 53.8843 63.6956 54.0348 64.2183 54.3299C64.7148 54.612 65.1269 55.0214 65.4123 55.5159C65.7068 56.0313 65.8574 56.6164 65.8483 57.2099C65.8636 57.8673 65.6953 58.5159 65.3623 59.0829C65.0365 59.6183 64.5623 60.0476 63.9973 60.3189C63.3472 60.6235 62.6351 60.7738 61.9173 60.7559Z" fill="#FDC736"/>
<path id="Path 54270" d="M72.2116 60.7614C71.7277 60.7686 71.2493 60.6581 70.8176 60.4394C70.4052 60.2269 70.0441 59.9269 69.7596 59.5604C69.4654 59.1826 69.2381 58.7571 69.0876 58.3024C68.9304 57.8372 68.8507 57.3494 68.8516 56.8584C68.8576 56.4656 68.8934 56.0738 68.9586 55.6864C69.0391 55.1942 69.166 54.7107 69.3376 54.2424C69.5268 53.7216 69.7815 53.227 70.0956 52.7704C70.4353 52.2771 70.8531 51.8424 71.3326 51.4834C71.8835 51.0779 72.5071 50.7819 73.1696 50.6114C73.2771 50.5838 73.3876 50.5693 73.4986 50.5684C73.7087 50.566 73.915 50.6255 74.0916 50.7394C74.186 50.8127 74.2599 50.9091 74.3062 51.0193C74.3524 51.1294 74.3694 51.2497 74.3556 51.3684C74.3579 51.5712 74.2841 51.7675 74.1486 51.9184C74.0016 52.0812 73.8105 52.1979 73.5986 52.2544C73.2611 52.3557 72.9371 52.4974 72.6336 52.6764C72.3111 52.8649 72.0134 53.093 71.7476 53.3554C71.4743 53.6251 71.2388 53.9305 71.0476 54.2634C70.8514 54.6042 70.709 54.9732 70.6256 55.3574L70.2396 55.3434C70.3933 55.1597 70.5579 54.9854 70.7326 54.8214C70.9448 54.6241 71.1859 54.4602 71.4476 54.3354C71.7586 54.1911 72.0987 54.1202 72.4416 54.1284C72.8253 54.1313 73.2037 54.219 73.5496 54.3854C74.3172 54.7477 74.9289 55.3743 75.2726 56.1504C75.4538 56.5576 75.5462 56.9987 75.5436 57.4444C75.5496 58.0328 75.394 58.6115 75.0936 59.1174C74.8025 59.6133 74.3894 60.0264 73.8936 60.3174C73.3843 60.6152 72.8034 60.7684 72.2136 60.7604M72.2136 59.1884C72.5039 59.1926 72.7892 59.1131 73.0356 58.9594C73.2808 58.8046 73.4806 58.5876 73.6146 58.3304C73.7555 58.0549 73.829 57.7499 73.829 57.4404C73.829 57.131 73.7555 56.8259 73.6146 56.5504C73.4789 56.2963 73.2793 56.0819 73.0356 55.9284C72.7875 55.7787 72.5033 55.6996 72.2136 55.6996C71.9238 55.6996 71.6396 55.7787 71.3916 55.9284C71.1478 56.0819 70.9482 56.2963 70.8126 56.5504C70.6716 56.8259 70.5981 57.131 70.5981 57.4404C70.5981 57.7499 70.6716 58.0549 70.8126 58.3304C70.9466 58.5876 71.1463 58.8046 71.3916 58.9594C71.6379 59.1131 71.9233 59.1926 72.2136 59.1884Z" fill="#FDC736"/>
<path id="Path 54271" d="M53.2975 47.9848C52.5507 48.0079 51.8179 47.7786 51.2175 47.3338C50.6233 46.8629 50.1747 46.2333 49.9235 45.5178C49.3328 43.7773 49.3328 41.8904 49.9235 40.1498C50.1763 39.4375 50.6248 38.8108 51.2175 38.3418C51.8285 37.9183 52.5542 37.6914 53.2975 37.6914C54.0409 37.6914 54.7666 37.9183 55.3775 38.3418C55.9702 38.8109 56.4187 39.4376 56.6715 40.1498C57.2623 41.8904 57.2623 43.7773 56.6715 45.5178C56.4203 46.2332 55.9717 46.8628 55.3775 47.3338C54.7771 47.7785 54.0444 48.0078 53.2975 47.9848ZM53.2975 46.2698C53.678 46.2769 54.0475 46.1418 54.3335 45.8908C54.6604 45.5789 54.8953 45.1832 55.0125 44.7468C55.3364 43.4927 55.3364 42.1769 55.0125 40.9228C54.8939 40.4894 54.6591 40.0966 54.3335 39.7868C54.0447 39.5427 53.6787 39.4087 53.3005 39.4087C52.9223 39.4087 52.5564 39.5427 52.2675 39.7868C51.938 40.0946 51.7005 40.4879 51.5815 40.9228C51.2576 42.1769 51.2576 43.4928 51.5815 44.7468C51.699 45.1847 51.9366 45.581 52.2675 45.8908C52.5522 46.1396 52.9186 46.2745 53.2965 46.2698" fill="#FDC736"/>
<path id="Path 54272" d="M63.3739 47.8429C63.2532 47.8475 63.1328 47.8277 63.02 47.7847C62.9071 47.7418 62.804 47.6765 62.7169 47.5929C62.6329 47.513 62.5666 47.4163 62.5221 47.3092C62.4777 47.2021 62.4562 47.0869 62.4589 46.9709V39.7709L62.6589 40.0849L61.6149 40.8569C61.4712 40.9651 61.2946 41.0206 61.1149 41.0139C61.0026 41.0143 60.8915 40.9916 60.7883 40.9474C60.6851 40.9033 60.5921 40.8384 60.5149 40.7569C60.4322 40.6774 60.3668 40.5819 60.3226 40.4761C60.2784 40.3703 60.2564 40.2566 60.2579 40.1419C60.2591 39.9899 60.3008 39.8409 60.3786 39.7103C60.4565 39.5798 60.5677 39.4723 60.7009 39.3989L62.7599 38.0269C62.8572 37.9593 62.9664 37.9108 63.0819 37.8839C63.1918 37.8565 63.3046 37.842 63.4179 37.8409C63.5387 37.8349 63.6595 37.854 63.7726 37.897C63.8857 37.9401 63.9886 38.0061 64.0749 38.0909C64.155 38.1731 64.2177 38.2704 64.2595 38.3773C64.3012 38.4841 64.3211 38.5983 64.3179 38.7129V46.9709C64.3206 47.0874 64.2984 47.2031 64.2529 47.3104C64.2074 47.4176 64.1395 47.514 64.0539 47.5929C63.8695 47.7628 63.6244 47.8526 63.3739 47.8429Z" fill="#FDC736"/>
<path id="Path 54273" d="M72.2078 47.9851C71.4609 48.0081 70.7282 47.7788 70.1278 47.3341C69.5335 46.8631 69.0849 46.2335 68.8338 45.5181C68.2429 43.7775 68.2429 41.8906 68.8338 40.1501C69.0864 39.4377 69.5349 38.811 70.1278 38.3421C70.7387 37.9184 71.4643 37.6914 72.2078 37.6914C72.9512 37.6914 73.6769 37.9184 74.2878 38.3421C74.8804 38.8112 75.3289 39.4378 75.5818 40.1501C76.1725 41.8906 76.1725 43.7775 75.5818 45.5181C75.3304 46.2334 74.8818 46.863 74.2878 47.3341C73.6873 47.7787 72.9546 48.0081 72.2078 47.9851ZM72.2078 46.2701C72.5882 46.2771 72.9577 46.142 73.2438 45.8911C73.5706 45.5791 73.8055 45.1834 73.9228 44.7471C74.2467 43.493 74.2467 42.1771 73.9228 40.9231C73.8041 40.4896 73.5693 40.0968 73.2438 39.7871C72.9549 39.5429 72.589 39.4089 72.2108 39.4089C71.8326 39.4089 71.4666 39.5429 71.1778 39.7871C70.85 40.0954 70.6143 40.4887 70.4968 40.9231C70.1729 42.1772 70.1729 43.493 70.4968 44.7471C70.6142 45.1849 70.8518 45.5812 71.1828 45.8911C71.4674 46.1398 71.8338 46.2747 72.2118 46.2701" fill="#FDC736"/>
</g>
</g>
</g>
</g>
</svg>
