<svg xmlns="http://www.w3.org/2000/svg" xmlns:xlink="http://www.w3.org/1999/xlink" width="100" height="100" viewBox="0 0 100 100">
  <defs>
    <clipPath id="clip-path">
      <rect id="Rectangle_50646" data-name="Rectangle 50646" width="53.994" height="54.844"/>
    </clipPath>
  </defs>
  <g id="carousel1" transform="translate(3604 22886)">
    <rect id="Rectangle_50669" data-name="Rectangle 50669" width="100" height="100" transform="translate(-3604 -22886)" fill="#fff" opacity="0"/>
    <g id="Group_34489" data-name="Group 34489" transform="translate(-3581 -22863)" clip-path="url(#clip-path)">
      <path id="Path_10783" data-name="Path 10783" d="M31.143,63.064a1.042,1.042,0,0,1-.15-.011A25.7,25.7,0,0,1,9.249,37.646V21.407a7.29,7.29,0,0,1,6.293-7.231,106.364,106.364,0,0,1,31.2,0,7.371,7.371,0,0,1,6.232,6.288,1.043,1.043,0,0,1-2.068.269,5.278,5.278,0,0,0-4.47-4.495,104.28,104.28,0,0,0-30.591,0,5.219,5.219,0,0,0-4.514,5.168V37.646A23.6,23.6,0,0,0,31.143,60.968a23.3,23.3,0,0,0,15.9-10.236,1.043,1.043,0,1,1,1.74,1.149A25.385,25.385,0,0,1,31.293,63.053,1.042,1.042,0,0,1,31.143,63.064Z" transform="translate(-7.32 -10.31)"/>
      <path id="Path_10784" data-name="Path 10784" d="M46.975,74.65a1.048,1.048,0,0,1-.183-.016A21.642,21.642,0,0,1,29.25,53.454V37.216a3.148,3.148,0,0,1,2.734-3.106A102.688,102.688,0,0,1,46.974,33a1.043,1.043,0,0,1,0,2.085A100.594,100.594,0,0,0,32.29,36.173a1.077,1.077,0,0,0-.954,1.043V53.454A19.534,19.534,0,0,0,47.156,72.58a1.043,1.043,0,0,1-.181,2.069Z" transform="translate(-23.151 -26.119)"/>
      <path id="Path_54563" data-name="Path 54563" d="M133.781,137.9a.782.782,0,0,1,.8.8.734.734,0,0,1-.229.55.789.789,0,0,1-.572.221h-4.861a.763.763,0,0,1-.586-.229.823.823,0,0,1-.214-.586.889.889,0,0,1,.257-.629l3.116-3.331a5.28,5.28,0,0,0,.836-1.172,2.368,2.368,0,0,0,.307-1.044,1.6,1.6,0,0,0-.415-1.151,1.449,1.449,0,0,0-1.1-.436,1.352,1.352,0,0,0-.558.129,2.272,2.272,0,0,0-.55.357,3.5,3.5,0,0,0-.493.529.76.76,0,0,1-.343.286,1,1,0,0,1-.314.057.85.85,0,0,1-.579-.236.717.717,0,0,1-.265-.55.8.8,0,0,1,.164-.472,3.9,3.9,0,0,1,.407-.472,4.334,4.334,0,0,1,.8-.629,4.154,4.154,0,0,1,.915-.422,3,3,0,0,1,.915-.15,3.48,3.48,0,0,1,1.665.379,2.662,2.662,0,0,1,1.093,1.072,3.313,3.313,0,0,1,.386,1.637,4.1,4.1,0,0,1-.465,1.751,7.28,7.28,0,0,1-1.251,1.808l-1.93,2.058-.158-.128Z" transform="translate(-101.326 -102.358)" fill="#fdc736"/>
      <path id="Path_54564" data-name="Path 54564" d="M177.087,140.43a4.3,4.3,0,0,1-1.129-.164,2.644,2.644,0,0,1-.986-.479,1.08,1.08,0,0,1-.293-.407,1.214,1.214,0,0,1-.107-.479.651.651,0,0,1,.207-.457.786.786,0,0,1,.593-.215,1.214,1.214,0,0,1,.643.272,3.518,3.518,0,0,0,.5.257,1.421,1.421,0,0,0,.558.114,2.623,2.623,0,0,0,1.186-.25,1.852,1.852,0,0,0,.772-.693,1.959,1.959,0,0,0,.272-1.043,1.673,1.673,0,0,0-.25-.929,1.735,1.735,0,0,0-.658-.6,1.861,1.861,0,0,0-.879-.214,1.924,1.924,0,0,0-.772.143q-.329.143-.6.293a1.119,1.119,0,0,1-.543.15,1.016,1.016,0,0,1-.7-.207.884.884,0,0,1-.286-.493,1.605,1.605,0,0,1-.029-.515l.443-3.474a.815.815,0,0,1,.293-.493.863.863,0,0,1,.565-.193h4.132a.782.782,0,0,1,.8.8.736.736,0,0,1-.229.551.79.79,0,0,1-.572.221h-3.688l.157-.129-.386,2.9-.186-.543a.81.81,0,0,1,.372-.271,3.921,3.921,0,0,1,.657-.222,3,3,0,0,1,.729-.093,3.378,3.378,0,0,1,1.715.436,3.209,3.209,0,0,1,1.194,1.186,3.313,3.313,0,0,1,.436,1.694,3.537,3.537,0,0,1-.486,1.873,3.24,3.24,0,0,1-1.365,1.236,4.631,4.631,0,0,1-2.08.436" transform="translate(-138.17 -103.172)" fill="#fdc736"/>
      <path id="Path_54565" data-name="Path 54565" d="M223.246,140a2.988,2.988,0,0,1-1.394-.322,3.189,3.189,0,0,1-1.058-.879,4.192,4.192,0,0,1-.672-1.258,4.488,4.488,0,0,1-.236-1.444,7.789,7.789,0,0,1,.107-1.172,7.907,7.907,0,0,1,.379-1.444,6.535,6.535,0,0,1,.758-1.472,5.518,5.518,0,0,1,1.237-1.287,5.346,5.346,0,0,1,1.837-.872,1.365,1.365,0,0,1,.329-.043,1.071,1.071,0,0,1,.593.171.694.694,0,0,1,.264.629.809.809,0,0,1-.207.55,1.135,1.135,0,0,1-.55.336,4.376,4.376,0,0,0-.965.422,4.48,4.48,0,0,0-.886.679,4.251,4.251,0,0,0-.7.908,3.816,3.816,0,0,0-.422,1.094l-.386-.014a5.96,5.96,0,0,1,.493-.522,2.854,2.854,0,0,1,.715-.486,2.234,2.234,0,0,1,.994-.207,2.6,2.6,0,0,1,1.108.257,3.534,3.534,0,0,1,1.723,1.765,3.138,3.138,0,0,1,.271,1.294,3.212,3.212,0,0,1-.45,1.673,3.369,3.369,0,0,1-1.2,1.2,3.242,3.242,0,0,1-1.68.443m0-1.572a1.512,1.512,0,0,0,.822-.229,1.64,1.64,0,0,0,.579-.629,1.954,1.954,0,0,0,0-1.78,1.658,1.658,0,0,0-.579-.622,1.591,1.591,0,0,0-1.644,0,1.657,1.657,0,0,0-.579.622,1.954,1.954,0,0,0,0,1.78,1.64,1.64,0,0,0,.579.629,1.512,1.512,0,0,0,.822.229" transform="translate(-174.037 -102.738)" fill="#fdc736"/>
      <path id="Path_54566" data-name="Path 54566" d="M130.809,78.362a3.322,3.322,0,0,1-2.08-.651,4.013,4.013,0,0,1-1.294-1.816,8.351,8.351,0,0,1,0-5.368,4.019,4.019,0,0,1,1.294-1.808,3.651,3.651,0,0,1,4.16,0,4.022,4.022,0,0,1,1.294,1.808,8.351,8.351,0,0,1,0,5.368,4.016,4.016,0,0,1-1.294,1.816,3.323,3.323,0,0,1-2.08.651m0-1.715a1.528,1.528,0,0,0,1.036-.379,2.466,2.466,0,0,0,.679-1.144,7.648,7.648,0,0,0,0-3.824,2.468,2.468,0,0,0-.679-1.136,1.6,1.6,0,0,0-2.066,0,2.432,2.432,0,0,0-.686,1.136,7.646,7.646,0,0,0,0,3.824,2.43,2.43,0,0,0,.686,1.144,1.535,1.535,0,0,0,1.029.379" transform="translate(-100.512 -53.876)" fill="#fdc736"/>
      <path id="Path_54567" data-name="Path 54567" d="M181.8,78.762a.9.9,0,0,1-.657-.25.832.832,0,0,1-.258-.622v-7.2l.2.314-1.044.772a.783.783,0,0,1-.5.157.823.823,0,0,1-.6-.257.838.838,0,0,1-.257-.615.856.856,0,0,1,.443-.743l2.059-1.372a.935.935,0,0,1,.322-.143,1.443,1.443,0,0,1,.336-.043.875.875,0,0,1,.657.25.857.857,0,0,1,.243.622V77.89a.82.82,0,0,1-.264.622.948.948,0,0,1-.679.25" transform="translate(-141.427 -54.419)" fill="#fdc736"/>
      <path id="Path_54568" data-name="Path 54568" d="M221.511,78.362a3.322,3.322,0,0,1-2.08-.651,4.013,4.013,0,0,1-1.294-1.816,8.35,8.35,0,0,1,0-5.368,4.018,4.018,0,0,1,1.294-1.808,3.65,3.65,0,0,1,4.16,0,4.022,4.022,0,0,1,1.294,1.808,8.351,8.351,0,0,1,0,5.368,4.017,4.017,0,0,1-1.294,1.816,3.323,3.323,0,0,1-2.08.651m0-1.715a1.528,1.528,0,0,0,1.036-.379,2.466,2.466,0,0,0,.679-1.144,7.646,7.646,0,0,0,0-3.824,2.468,2.468,0,0,0-.679-1.136,1.6,1.6,0,0,0-2.066,0A2.432,2.432,0,0,0,219.8,71.3a7.647,7.647,0,0,0,0,3.824,2.43,2.43,0,0,0,.686,1.144,1.535,1.535,0,0,0,1.029.379" transform="translate(-172.302 -53.876)" fill="#fdc736"/>
    </g>
  </g>
</svg>
