<svg xmlns="http://www.w3.org/2000/svg" xmlns:xlink="http://www.w3.org/1999/xlink" width="100" height="100" viewBox="0 0 100 100">
  <defs>
    <clipPath id="clip-path">
      <rect id="Rectangle_50657" data-name="Rectangle 50657" width="59.302" height="55.457" fill="#434343"/>
    </clipPath>
  </defs>
  <g id="carousel7" transform="translate(2134 22886)">
    <rect id="Rectangle_50656" data-name="Rectangle 50656" width="100" height="100" transform="translate(-2134 -22886)" fill="#fff" opacity="0"/>
    <g id="Group_34504" data-name="Group 34504" transform="translate(-2114 -22864)">
      <g id="Group_34503" data-name="Group 34503" transform="translate(0 0)" clip-path="url(#clip-path)">
        <path id="Path_54588" data-name="Path 54588" d="M50.795,42.737a2.47,2.47,0,0,1-1.266-4.593,9.883,9.883,0,0,0-5.048-18.379H41.368a2.471,2.471,0,0,1-2.391-1.853A17.293,17.293,0,1,0,12.794,36.724a2.47,2.47,0,1,1-2.7,4.137A22.233,22.233,0,1,1,43.2,14.825h1.285a14.825,14.825,0,0,1,7.577,27.565,2.465,2.465,0,0,1-1.263.347" transform="translate(0 0)"/>
        <path id="Path_54589" data-name="Path 54589" d="M13.66,39.12l7.776,4.489V41.121a13.087,13.087,0,0,0,7.956-22.805L25.616,20.5a9.045,9.045,0,0,1-4.18,16.57V34.631Z" transform="translate(8.836 11.848)" fill="#fdc736"/>
        <path id="Path_54590" data-name="Path 54590" d="M30.237,19.252,22.46,14.763v2.488A13.087,13.087,0,0,0,14.5,40.057l3.776-2.18a9.044,9.044,0,0,1,4.18-16.57v2.436Z" transform="translate(6.57 9.549)" fill="#fdc736"/>
      </g>
    </g>
  </g>
</svg>
