<svg width="100" height="101" viewBox="0 0 100 101" fill="none" xmlns="http://www.w3.org/2000/svg">
<mask id="mask0_328_138725" style="mask-type:luminance" maskUnits="userSpaceOnUse" x="16" y="19" width="68" height="62">
<path d="M70.6899 19.5H29.0039C21.8242 19.5 16.0039 25.3203 16.0039 32.5V67.746C16.0039 74.9257 21.8242 80.746 29.0039 80.746H70.6899C77.8696 80.746 83.6899 74.9257 83.6899 67.746V32.5C83.6899 25.3203 77.8696 19.5 70.6899 19.5Z" fill="white"/>
</mask>
<g mask="url(#mask0_328_138725)">
<path d="M18.3402 66.7238C18.3026 66.7399 18.2668 66.7597 18.2332 66.7828C18.1973 66.8054 18.1638 66.8316 18.1332 66.8608C18.1072 66.888 18.0837 66.9174 18.0632 66.9488C18.0373 66.9857 18.0156 67.0253 17.9982 67.0668C17.9912 67.0828 17.9782 67.0948 17.9732 67.1118C17.9697 67.1327 17.9674 67.1537 17.9662 67.1748C17.9576 67.2166 17.9532 67.2592 17.9532 67.3018C17.9533 67.3452 17.9579 67.3884 17.9672 67.4308C17.9684 67.4519 17.9707 67.473 17.9742 67.4938C17.9742 67.5058 17.9902 67.5098 17.9942 67.5218C18.0329 67.6328 18.1022 67.7306 18.1942 67.8038C18.2092 67.8158 18.2292 67.8218 18.2452 67.8328C18.2885 67.8649 18.3359 67.8911 18.3862 67.9108L49.6532 77.7928C49.7784 77.8327 49.9129 77.8327 50.0382 77.7928L81.3042 67.9098C81.3544 67.8901 81.4018 67.8639 81.4452 67.8318C81.4622 67.8218 81.4812 67.8148 81.4962 67.8028C81.5881 67.7296 81.6574 67.6318 81.6962 67.5208C81.6962 67.5098 81.7122 67.5048 81.7162 67.4928C81.7196 67.472 81.7219 67.4509 81.7232 67.4298C81.7324 67.3874 81.737 67.3442 81.7372 67.3008C81.7369 67.2575 81.7322 67.2142 81.7232 67.1718C81.7219 67.1507 81.7196 67.1297 81.7162 67.1088C81.7112 67.0908 81.6972 67.0798 81.6912 67.0628C81.6742 67.0224 81.6531 66.9839 81.6282 66.9478C81.6065 66.9145 81.5817 66.8834 81.5542 66.8548C81.5262 66.8277 81.4957 66.8033 81.4632 66.7818C81.4285 66.7588 81.3917 66.7394 81.3532 66.7238C81.3362 66.7168 81.3242 66.7028 81.3062 66.6978L72.5882 63.9418L81.3062 61.1858C81.3564 61.1661 81.4038 61.1399 81.4472 61.1078C81.4641 61.0978 81.4832 61.0908 81.4981 61.0788C81.5901 61.0056 81.6594 60.9078 81.6982 60.7968C81.6982 60.7858 81.7141 60.7808 81.7182 60.7688C81.7216 60.748 81.7239 60.7269 81.7252 60.7058C81.7344 60.6634 81.739 60.6202 81.7392 60.5768C81.7389 60.5335 81.7342 60.4902 81.7252 60.4478C81.7239 60.4267 81.7216 60.4057 81.7182 60.3848C81.7132 60.3668 81.6992 60.3558 81.6932 60.3388C81.6762 60.2984 81.6551 60.2599 81.6301 60.2238C81.5884 60.1567 81.532 60.1 81.4652 60.0578C81.4295 60.0328 81.3913 60.0117 81.3512 59.9948C81.3342 59.9878 81.3222 59.9738 81.3042 59.9688L72.5842 57.2128L81.3042 54.4568C81.3544 54.4371 81.4018 54.4109 81.4452 54.3788C81.4622 54.3688 81.4812 54.3618 81.4962 54.3508C81.5881 54.2776 81.6574 54.1798 81.6962 54.0688C81.6962 54.0578 81.7122 54.0528 81.7162 54.0408C81.7196 54.02 81.7219 53.9989 81.7232 53.9778C81.7324 53.9354 81.7371 53.8922 81.7372 53.8488C81.7369 53.8055 81.7322 53.7622 81.7232 53.7198C81.7219 53.6987 81.7196 53.6777 81.7162 53.6568C81.7112 53.6388 81.6972 53.6278 81.6912 53.6108C81.6742 53.5704 81.6531 53.5319 81.6282 53.4958C81.5864 53.4287 81.53 53.372 81.4632 53.3298C81.4275 53.3048 81.3893 53.2837 81.3492 53.2668C81.3322 53.2598 81.3202 53.2458 81.3022 53.2408L59.3892 46.3098C60.9512 44.1191 61.9502 41.5778 62.2982 38.9098L63.8232 27.0098C63.8232 23.6238 56.2952 22.4238 49.8482 22.4238C43.4012 22.4238 35.8722 23.6238 35.8722 27.0168C35.8706 27.0438 35.8706 27.0709 35.8722 27.0978L37.3922 38.9148C37.7401 41.5828 38.7392 44.1241 40.3012 46.3148L18.3892 53.2368C18.3702 53.2428 18.3572 53.2568 18.3392 53.2648C18.302 53.281 18.2665 53.3008 18.2332 53.3238C18.1973 53.3464 18.1638 53.3726 18.1332 53.4018C18.1072 53.429 18.0837 53.4584 18.0632 53.4898C18.0373 53.5267 18.0155 53.5663 17.9982 53.6078C17.9912 53.6238 17.9782 53.6358 17.9732 53.6528C17.9697 53.6737 17.9674 53.6947 17.9662 53.7158C17.9574 53.7586 17.953 53.8022 17.9532 53.8458C17.9532 53.8892 17.9579 53.9324 17.9672 53.9748C17.9684 53.9959 17.9707 54.017 17.9742 54.0378C17.9742 54.0498 17.9902 54.0538 17.9942 54.0658C18.0329 54.1768 18.1022 54.2746 18.1942 54.3478C18.2092 54.3598 18.2292 54.3658 18.2452 54.3758C18.2885 54.4079 18.3359 54.4341 18.3862 54.4538L27.1062 57.2098L18.3892 59.9658C18.3702 59.9718 18.3572 59.9858 18.3392 59.9938C18.3017 60.01 18.2658 60.0297 18.2322 60.0528C18.1963 60.0754 18.1628 60.1015 18.1322 60.1308C18.1062 60.158 18.0827 60.1874 18.0622 60.2188C18.0363 60.2557 18.0145 60.2953 17.9972 60.3368C17.9902 60.3528 17.9772 60.3648 17.9722 60.3818C17.9687 60.4027 17.9664 60.4237 17.9652 60.4448C17.9568 60.4873 17.9528 60.5305 17.9532 60.5738C17.9533 60.6172 17.9579 60.6604 17.9672 60.7028C17.9684 60.7239 17.9707 60.745 17.9742 60.7658C17.9742 60.7778 17.9902 60.7818 17.9942 60.7938C18.0329 60.9048 18.1022 61.0026 18.1942 61.0758C18.2092 61.0878 18.2292 61.0938 18.2452 61.1048C18.2885 61.1369 18.3359 61.1631 18.3862 61.1828L27.1042 63.9388L18.3892 66.6938C18.372 66.7023 18.3553 66.7116 18.3392 66.7218M38.6632 38.7518L37.1532 26.9798C37.2242 25.1368 42.7772 23.6988 49.8532 23.6988C56.9752 23.6988 62.5532 25.1558 62.5532 26.9348L61.0332 38.7518C60.7729 40.747 60.117 42.6702 59.1039 44.4087C58.0908 46.1471 56.7408 47.6659 55.1332 48.8758L49.8432 52.8378L44.5532 48.8768C42.9455 47.6669 41.5955 46.1481 40.5824 44.4097C39.5693 42.6712 38.9134 40.748 38.6532 38.7528M20.6982 53.8458L41.1532 47.3818C41.9366 48.3183 42.824 49.1627 43.7982 49.8988L49.4702 54.1468C49.5806 54.2294 49.7148 54.274 49.8527 54.274C49.9905 54.274 50.1247 54.2294 50.2352 54.1468L55.9072 49.8988C56.8813 49.1627 57.7687 48.3183 58.5522 47.3818L79.0022 53.8458L49.8482 63.0588L20.6982 53.8458ZM20.6982 60.5748L29.2252 57.8748L43.5992 62.4238L49.6532 64.3358C49.7784 64.3757 49.9129 64.3757 50.0382 64.3358L70.4672 57.8788L78.9942 60.5788L49.8482 69.7878L20.6982 60.5748ZM29.2232 64.6078L49.6532 71.0648C49.7784 71.1046 49.9129 71.1046 50.0382 71.0648L70.4692 64.6068L78.9952 67.3068L49.8482 76.5158L20.6982 67.3018L29.2232 64.6078Z" fill="#464646"/>
<path d="M18.3402 66.7238C18.3026 66.7399 18.2668 66.7597 18.2332 66.7828C18.1973 66.8054 18.1638 66.8316 18.1332 66.8608C18.1072 66.888 18.0837 66.9174 18.0632 66.9488C18.0373 66.9857 18.0156 67.0253 17.9982 67.0668C17.9912 67.0828 17.9782 67.0948 17.9732 67.1118C17.9697 67.1327 17.9674 67.1537 17.9662 67.1748C17.9576 67.2166 17.9532 67.2592 17.9532 67.3018C17.9533 67.3452 17.9579 67.3884 17.9672 67.4308C17.9684 67.4519 17.9707 67.473 17.9742 67.4938C17.9742 67.5058 17.9902 67.5098 17.9942 67.5218C18.0329 67.6328 18.1022 67.7306 18.1942 67.8038C18.2092 67.8158 18.2292 67.8218 18.2452 67.8328C18.2885 67.8649 18.3359 67.8911 18.3862 67.9108L49.6532 77.7928C49.7784 77.8327 49.9129 77.8327 50.0382 77.7928L81.3042 67.9098C81.3544 67.8901 81.4018 67.8639 81.4452 67.8318C81.4622 67.8218 81.4812 67.8148 81.4962 67.8028C81.5881 67.7296 81.6574 67.6318 81.6962 67.5208C81.6962 67.5098 81.7122 67.5048 81.7162 67.4928C81.7196 67.472 81.7219 67.4509 81.7232 67.4298C81.7324 67.3874 81.737 67.3442 81.7372 67.3008C81.7369 67.2575 81.7322 67.2142 81.7232 67.1718C81.7219 67.1507 81.7196 67.1297 81.7162 67.1088C81.7112 67.0908 81.6972 67.0798 81.6912 67.0628C81.6742 67.0224 81.6531 66.9839 81.6282 66.9478C81.6065 66.9145 81.5817 66.8834 81.5542 66.8548C81.5262 66.8277 81.4957 66.8033 81.4632 66.7818C81.4285 66.7588 81.3917 66.7394 81.3532 66.7238C81.3362 66.7168 81.3242 66.7028 81.3062 66.6978L72.5882 63.9418L81.3062 61.1858C81.3564 61.1661 81.4038 61.1399 81.4472 61.1078C81.4642 61.0978 81.4831 61.0908 81.4981 61.0788C81.5901 61.0056 81.6594 60.9078 81.6982 60.7968C81.6982 60.7858 81.7142 60.7808 81.7182 60.7688C81.7216 60.748 81.7239 60.7269 81.7252 60.7058C81.7344 60.6634 81.739 60.6202 81.7392 60.5768C81.7389 60.5335 81.7342 60.4902 81.7252 60.4478C81.7239 60.4267 81.7216 60.4057 81.7182 60.3848C81.7132 60.3668 81.6992 60.3558 81.6932 60.3388C81.6762 60.2984 81.6551 60.2599 81.6301 60.2238C81.5884 60.1567 81.532 60.1 81.4652 60.0578C81.4295 60.0328 81.3913 60.0117 81.3512 59.9948C81.3342 59.9878 81.3222 59.9738 81.3042 59.9688L72.5842 57.2128L81.3042 54.4568C81.3544 54.4371 81.4018 54.4109 81.4452 54.3788C81.4622 54.3688 81.4812 54.3618 81.4962 54.3508C81.5881 54.2776 81.6574 54.1798 81.6962 54.0688C81.6962 54.0578 81.7122 54.0528 81.7162 54.0408C81.7196 54.02 81.7219 53.9989 81.7232 53.9778C81.7324 53.9354 81.7371 53.8922 81.7372 53.8488C81.7369 53.8055 81.7322 53.7622 81.7232 53.7198C81.7219 53.6987 81.7196 53.6777 81.7162 53.6568C81.7112 53.6388 81.6972 53.6278 81.6912 53.6108C81.6742 53.5704 81.6531 53.5319 81.6282 53.4958C81.5864 53.4287 81.53 53.372 81.4632 53.3298C81.4275 53.3048 81.3893 53.2837 81.3492 53.2668C81.3322 53.2598 81.3202 53.2458 81.3022 53.2408L59.3892 46.3098C60.9512 44.1191 61.9502 41.5778 62.2982 38.9098L63.8232 27.0098C63.8232 23.6238 56.2952 22.4238 49.8482 22.4238C43.4012 22.4238 35.8722 23.6238 35.8722 27.0168C35.8706 27.0438 35.8706 27.0709 35.8722 27.0978L37.3922 38.9148C37.7401 41.5828 38.7392 44.1241 40.3012 46.3148L18.3892 53.2368C18.3702 53.2428 18.3572 53.2568 18.3392 53.2648C18.302 53.281 18.2665 53.3008 18.2332 53.3238C18.1973 53.3464 18.1638 53.3726 18.1332 53.4018C18.1072 53.429 18.0837 53.4584 18.0632 53.4898C18.0373 53.5267 18.0155 53.5663 17.9982 53.6078C17.9912 53.6238 17.9782 53.6358 17.9732 53.6528C17.9697 53.6737 17.9674 53.6947 17.9662 53.7158C17.9574 53.7586 17.953 53.8022 17.9532 53.8458C17.9532 53.8892 17.9579 53.9324 17.9672 53.9748C17.9684 53.9959 17.9707 54.017 17.9742 54.0378C17.9742 54.0498 17.9902 54.0538 17.9942 54.0658C18.0329 54.1768 18.1022 54.2746 18.1942 54.3478C18.2092 54.3598 18.2292 54.3658 18.2452 54.3758C18.2885 54.4079 18.3359 54.4341 18.3862 54.4538L27.1062 57.2098L18.3892 59.9658C18.3702 59.9718 18.3572 59.9858 18.3392 59.9938C18.3017 60.01 18.2658 60.0297 18.2322 60.0528C18.1963 60.0754 18.1628 60.1015 18.1322 60.1308C18.1062 60.158 18.0827 60.1874 18.0622 60.2188C18.0363 60.2557 18.0145 60.2953 17.9972 60.3368C17.9902 60.3528 17.9772 60.3648 17.9722 60.3818C17.9687 60.4027 17.9664 60.4237 17.9652 60.4448C17.9568 60.4873 17.9528 60.5305 17.9532 60.5738C17.9533 60.6172 17.9579 60.6604 17.9672 60.7028C17.9684 60.7239 17.9707 60.745 17.9742 60.7658C17.9742 60.7778 17.9902 60.7818 17.9942 60.7938C18.0329 60.9048 18.1022 61.0026 18.1942 61.0758C18.2092 61.0878 18.2292 61.0938 18.2452 61.1048C18.2885 61.1369 18.3359 61.1631 18.3862 61.1828L27.1042 63.9388L18.3892 66.6938C18.372 66.7023 18.3553 66.7116 18.3392 66.7218M38.6632 38.7518L37.1532 26.9798C37.2242 25.1368 42.7772 23.6988 49.8532 23.6988C56.9752 23.6988 62.5532 25.1558 62.5532 26.9348L61.0332 38.7518C60.7729 40.747 60.117 42.6702 59.1039 44.4087C58.0908 46.1471 56.7408 47.6659 55.1332 48.8758L49.8432 52.8378L44.5532 48.8768C42.9455 47.6669 41.5955 46.1481 40.5824 44.4097C39.5693 42.6712 38.9134 40.748 38.6532 38.7528M20.6982 53.8458L41.1532 47.3818C41.9366 48.3183 42.824 49.1627 43.7982 49.8988L49.4702 54.1468C49.5806 54.2294 49.7148 54.274 49.8527 54.274C49.9905 54.274 50.1247 54.2294 50.2352 54.1468L55.9072 49.8988C56.8813 49.1627 57.7687 48.3183 58.5522 47.3818L79.0022 53.8458L49.8482 63.0588L20.6982 53.8458ZM20.6982 60.5748L29.2252 57.8748L43.5992 62.4238L49.6532 64.3358C49.7784 64.3757 49.9129 64.3757 50.0382 64.3358L70.4672 57.8788L78.9942 60.5788L49.8482 69.7878L20.6982 60.5748ZM29.2232 64.6078L49.6532 71.0648C49.7784 71.1046 49.9129 71.1046 50.0382 71.0648L70.4692 64.6068L78.9952 67.3068L49.8482 76.5158L20.6982 67.3018L29.2232 64.6078Z" stroke="#464646"/>
<path d="M45.4611 43.6405H54.2331C54.334 43.6407 54.4335 43.6169 54.5234 43.5711C54.6133 43.5253 54.6911 43.4588 54.7502 43.3771C54.8094 43.2953 54.8483 43.2007 54.8638 43.101C54.8792 43.0013 54.8707 42.8993 54.839 42.8035L52.4791 35.6485C53.1036 35.1112 53.5487 34.3957 53.7545 33.598C53.9604 32.8003 53.9172 31.9587 53.6306 31.1863C53.3441 30.4139 52.828 29.7478 52.1518 29.2773C51.4755 28.8069 50.6714 28.5547 49.8476 28.5547C49.0237 28.5547 48.2196 28.8069 47.5434 29.2773C46.8671 29.7478 46.351 30.4139 46.0644 31.1863C45.7779 31.9587 45.7347 32.8003 45.9406 33.598C46.1464 34.3957 46.5915 35.1112 47.2161 35.6485L44.856 42.8035C44.8246 42.8993 44.8163 43.0012 44.8318 43.1008C44.8474 43.2005 44.8863 43.295 44.9455 43.3767C45.0046 43.4583 45.0822 43.5248 45.172 43.5707C45.2618 43.6166 45.3612 43.6405 45.4621 43.6405M48.571 35.6155C48.6149 35.483 48.6141 35.3398 48.5685 35.2079C48.523 35.076 48.4353 34.9627 48.3191 34.8855C47.8263 34.5571 47.4522 34.0789 47.2522 33.5215C47.0522 32.9641 47.0368 32.3571 47.2084 31.7903C47.3799 31.2235 47.7293 30.727 48.2048 30.3741C48.6804 30.0212 49.2569 29.8306 49.8491 29.8306C50.4412 29.8306 51.0177 30.0212 51.4933 30.3741C51.9688 30.727 52.3182 31.2235 52.4897 31.7903C52.6613 32.3571 52.6459 32.9641 52.4459 33.5215C52.2459 34.0789 51.8718 34.5571 51.3791 34.8855C51.2628 34.9627 51.1751 35.076 51.1296 35.2079C51.084 35.3398 51.0831 35.483 51.127 35.6155L53.3531 42.3635H46.3451L48.571 35.6155Z" fill="#FDC736"/>
<path d="M45.4611 43.6405H54.2331C54.334 43.6407 54.4335 43.6169 54.5234 43.5711C54.6133 43.5253 54.6911 43.4588 54.7502 43.3771C54.8094 43.2953 54.8483 43.2007 54.8638 43.101C54.8792 43.0013 54.8707 42.8993 54.839 42.8035L52.4791 35.6485C53.1036 35.1112 53.5487 34.3957 53.7545 33.598C53.9604 32.8003 53.9172 31.9587 53.6306 31.1863C53.3441 30.4139 52.828 29.7478 52.1518 29.2773C51.4755 28.8069 50.6714 28.5547 49.8476 28.5547C49.0237 28.5547 48.2196 28.8069 47.5434 29.2773C46.8671 29.7478 46.351 30.4139 46.0644 31.1863C45.7779 31.9587 45.7347 32.8003 45.9406 33.598C46.1464 34.3957 46.5915 35.1112 47.2161 35.6485L44.856 42.8035C44.8246 42.8993 44.8163 43.0012 44.8318 43.1008C44.8474 43.2005 44.8863 43.295 44.9455 43.3767C45.0046 43.4583 45.0822 43.5248 45.172 43.5707C45.2618 43.6166 45.3612 43.6405 45.4621 43.6405M48.571 35.6155C48.6149 35.483 48.6141 35.3398 48.5685 35.2079C48.523 35.076 48.4353 34.9627 48.3191 34.8855C47.8263 34.5571 47.4522 34.0789 47.2522 33.5215C47.0522 32.9641 47.0368 32.3571 47.2084 31.7903C47.3799 31.2235 47.7293 30.727 48.2048 30.3741C48.6804 30.0212 49.2569 29.8306 49.8491 29.8306C50.4412 29.8306 51.0177 30.0212 51.4933 30.3741C51.9688 30.727 52.3182 31.2235 52.4897 31.7903C52.6613 32.3571 52.6459 32.9641 52.4459 33.5215C52.2459 34.0789 51.8718 34.5571 51.3791 34.8855C51.2628 34.9627 51.1751 35.076 51.1296 35.2079C51.084 35.3398 51.0831 35.483 51.127 35.6155L53.3531 42.3635H46.3451L48.571 35.6155Z" stroke="#FDC736"/>
</g>
</svg>
