<svg xmlns="http://www.w3.org/2000/svg" xmlns:xlink="http://www.w3.org/1999/xlink" width="100" height="100" viewBox="0 0 100 100">
  <defs>
    <clipPath id="clip-path">
      <rect id="Rectangle_2375" data-name="Rectangle 2375" width="67.686" height="61.246" rx="13" fill="#434343" stroke="#434343" stroke-width="1"/>
    </clipPath>
  </defs>
  <g id="carousel2" transform="translate(3394 22887)">
    <rect id="Rectangle_50668" data-name="Rectangle 50668" width="100" height="100" transform="translate(-3394 -22887)" fill="#fff" opacity="0"/>
    <g id="Group_27876" data-name="Group 27876" transform="translate(-3378 -22867)">
      <g id="Group_6606" data-name="Group 6606" clip-path="url(#clip-path)">
        <path id="Path_10791" data-name="Path 10791" d="M.387,44.3a.622.622,0,0,0-.107.059.634.634,0,0,0-.1.078.612.612,0,0,0-.07.088.633.633,0,0,0-.065.118c-.007.016-.02.028-.025.045a.6.6,0,0,0-.007.063A.636.636,0,0,0,0,44.878a.615.615,0,0,0,.014.129.6.6,0,0,0,.007.063c0,.012.016.016.02.028a.623.623,0,0,0,.2.282c.015.012.035.018.051.029a.616.616,0,0,0,.141.078L31.7,55.369a.634.634,0,0,0,.385,0l31.266-9.883a.616.616,0,0,0,.141-.078c.017-.01.036-.017.051-.029a.623.623,0,0,0,.2-.282c0-.011.016-.016.02-.028a.606.606,0,0,0,.007-.063.615.615,0,0,0,.014-.129.635.635,0,0,0-.014-.129.6.6,0,0,0-.007-.063c-.005-.018-.019-.029-.025-.046a.632.632,0,0,0-.063-.115.62.62,0,0,0-.074-.093.627.627,0,0,0-.091-.073A.612.612,0,0,0,63.4,44.3c-.017-.007-.029-.021-.047-.026l-8.718-2.756,8.718-2.756a.615.615,0,0,0,.141-.078c.017-.01.036-.017.051-.029a.623.623,0,0,0,.2-.282c0-.011.016-.016.02-.028a.608.608,0,0,0,.007-.063.615.615,0,0,0,.014-.129.636.636,0,0,0-.014-.129.6.6,0,0,0-.007-.063c-.005-.018-.019-.029-.025-.046a.632.632,0,0,0-.063-.115.523.523,0,0,0-.165-.166.608.608,0,0,0-.114-.063c-.017-.007-.029-.021-.047-.026l-8.72-2.756,8.72-2.756a.614.614,0,0,0,.141-.078c.017-.01.036-.017.051-.028a.623.623,0,0,0,.2-.282c0-.011.016-.016.02-.028a.6.6,0,0,0,.007-.063.614.614,0,0,0,.014-.129.636.636,0,0,0-.014-.129.6.6,0,0,0-.007-.063c-.005-.018-.019-.029-.025-.046a.63.63,0,0,0-.063-.115.523.523,0,0,0-.165-.166.609.609,0,0,0-.114-.063c-.017-.007-.029-.021-.047-.026L41.436,23.886a16.4,16.4,0,0,0,2.909-7.4l1.525-11.9C45.87,1.2,38.342,0,31.895,0S17.919,1.2,17.919,4.593a.687.687,0,0,0,0,.081l1.52,11.817a16.4,16.4,0,0,0,2.909,7.4L.436,30.813c-.019.006-.032.02-.05.028A.623.623,0,0,0,.28,30.9a.637.637,0,0,0-.1.078.612.612,0,0,0-.07.088.631.631,0,0,0-.065.118c-.007.016-.02.028-.025.045a.6.6,0,0,0-.007.063A.636.636,0,0,0,0,31.422a.614.614,0,0,0,.014.129.6.6,0,0,0,.007.063c0,.012.016.016.02.028a.623.623,0,0,0,.2.282c.015.012.035.018.051.028a.614.614,0,0,0,.141.078l8.72,2.756L.436,37.542c-.019.006-.032.02-.05.028a.628.628,0,0,0-.107.059.633.633,0,0,0-.1.078.612.612,0,0,0-.07.088.631.631,0,0,0-.065.118c-.007.016-.02.028-.025.045a.6.6,0,0,0-.007.063A.637.637,0,0,0,0,38.15a.615.615,0,0,0,.014.129.606.606,0,0,0,.007.063c0,.012.016.016.02.028a.623.623,0,0,0,.2.282c.015.012.035.018.051.029a.616.616,0,0,0,.141.078l8.718,2.756L.436,44.27a.544.544,0,0,0-.05.028M20.71,16.328,19.2,4.556c.071-1.843,5.624-3.281,12.7-3.281,7.122,0,12.7,1.457,12.7,3.236l-1.52,11.817a15.118,15.118,0,0,1-5.9,10.124l-5.29,3.962L26.6,26.453a15.118,15.118,0,0,1-5.9-10.124M2.745,31.422,23.2,24.958a16.114,16.114,0,0,0,2.645,2.517l5.672,4.248a.639.639,0,0,0,.765,0l5.672-4.248a16.117,16.117,0,0,0,2.645-2.517l20.45,6.464L31.895,40.635Zm0,6.729,8.527-2.7L25.646,40,31.7,41.912a.634.634,0,0,0,.385,0l20.429-6.457,8.527,2.7L31.895,47.364Zm8.525,4.033L31.7,48.641a.636.636,0,0,0,.385,0l20.431-6.458,8.526,2.7L31.895,54.092,2.745,44.878Z" transform="translate(1.949 2.924)" stroke="#000" stroke-width="1"/>
        <path id="Path_10792" data-name="Path 10792" d="M421.759,111.4h8.772a.637.637,0,0,0,.606-.837l-2.36-7.155a4.035,4.035,0,1,0-5.263,0l-2.36,7.155a.638.638,0,0,0,.606.837m3.109-8.025a.636.636,0,0,0-.252-.73,2.759,2.759,0,1,1,3.06,0,.636.636,0,0,0-.252.73l2.226,6.748h-7.008Z" transform="translate(-392.302 -87.259)" fill="#fdc736" stroke="#fdc736" stroke-width="1"/>
      </g>
    </g>
  </g>
</svg>
