<svg xmlns="http://www.w3.org/2000/svg" xmlns:xlink="http://www.w3.org/1999/xlink" width="100" height="100" viewBox="0 0 100 100">
  <defs>
    <clipPath id="clip-path">
      <rect id="Rectangle_50660" data-name="Rectangle 50660" width="52.181" height="66.529" stroke="#000" stroke-width="1"/>
    </clipPath>
  </defs>
  <g id="carousel3" transform="translate(3184 22883)">
    <rect id="Rectangle_50665" data-name="Rectangle 50665" width="100" height="100" transform="translate(-3184 -22883)" fill="#fff" opacity="0"/>
    <g id="Group_34508" data-name="Group 34508" transform="translate(-3158 -22864)">
      <g id="Group_34507" data-name="Group 34507" transform="translate(-2 -2)" clip-path="url(#clip-path)">
        <path id="Path_54591" data-name="Path 54591" d="M24.448,62.15A.941.941,0,0,1,23.932,62L10,52.87A22.063,22.063,0,0,1,0,34.36V8.239a.941.941,0,0,1,.663-.9L24.169.042a.944.944,0,0,1,.558,0l23.506,7.3a.941.941,0,0,1,.663.9V34.36a22.063,22.063,0,0,1-10,18.51L24.964,62a.941.941,0,0,1-.516.154M1.883,8.933V34.36A20.186,20.186,0,0,0,11.034,51.3l13.414,8.788L37.862,51.3A20.187,20.187,0,0,0,47.013,34.36V8.933L24.448,1.927Z" transform="translate(2.19 2.189)" stroke="#000" stroke-width="1"/>
        <path id="Path_54592" data-name="Path 54592" d="M71.258,109.323a5.8,5.8,0,0,1-3.332-1.048,12.1,12.1,0,0,1-5.146-9.894V91.716a3.752,3.752,0,0,1,3.747-3.747h9.46a3.752,3.752,0,0,1,3.747,3.747V98.38a12.1,12.1,0,0,1-5.146,9.894,5.8,5.8,0,0,1-3.331,1.048m-4.73-20.1a2.5,2.5,0,0,0-2.492,2.492V98.38a10.839,10.839,0,0,0,4.611,8.866,4.563,4.563,0,0,0,5.221,0l.36.514-.36-.514A10.839,10.839,0,0,0,78.48,98.38V91.716a2.5,2.5,0,0,0-2.492-2.492Z" transform="translate(-44.62 -63.401)" fill="#fdc736" stroke="#fdc736" stroke-width="1"/>
        <path id="Path_54593" data-name="Path 54593" d="M87.7,72.568H81.269a.628.628,0,0,1-.628-.628V67.885A2.258,2.258,0,0,1,82.9,65.629h3.178a2.258,2.258,0,0,1,2.256,2.256V71.94a.628.628,0,0,1-.628.628M81.9,71.312h5.179V67.885a1,1,0,0,0-1-1H82.9a1,1,0,0,0-1,1Z" transform="translate(-57.937 -46.744)" fill="#fdc736" stroke="#fdc736" stroke-width="1"/>
        <path id="Path_54594" data-name="Path 54594" d="M126.9,73.837h-1.785a.628.628,0,1,1,0-1.256H126.9a2.967,2.967,0,0,0,2.964-2.963V63.775a.628.628,0,1,1,1.255,0v5.843a4.224,4.224,0,0,1-4.219,4.219" transform="translate(-90.632 -44.893)" fill="#fdc736" stroke="#fdc736" stroke-width="1"/>
        <path id="Path_54595" data-name="Path 54595" d="M47.65,73.837H45.865a4.224,4.224,0,0,1-4.219-4.219V63.775a.628.628,0,0,1,1.256,0v5.843a2.967,2.967,0,0,0,2.964,2.963H47.65a.628.628,0,1,1,0,1.256" transform="translate(-28.862 -44.893)" fill="#fdc736" stroke="#fdc736" stroke-width="1"/>
        <path id="Path_54596" data-name="Path 54596" d="M42.274,119.625a.628.628,0,0,1-.628-.628v-5.842a4.224,4.224,0,0,1,4.219-4.219H47.65a.628.628,0,1,1,0,1.255H45.865a2.967,2.967,0,0,0-2.964,2.964V119a.628.628,0,0,1-.628.628" transform="translate(-28.862 -79.034)" fill="#fdc736" stroke="#fdc736" stroke-width="1"/>
        <path id="Path_54597" data-name="Path 54597" d="M130.494,119.625a.628.628,0,0,1-.628-.628v-5.842a2.967,2.967,0,0,0-2.964-2.964h-1.785a.628.628,0,1,1,0-1.255H126.9a4.224,4.224,0,0,1,4.219,4.219V119a.628.628,0,0,1-.628.628" transform="translate(-90.631 -79.034)" fill="#fdc736" stroke="#fdc736" stroke-width="1"/>
        <path id="Path_54598" data-name="Path 54598" d="M125.005,152.235a.628.628,0,0,1-.628-.628v-4.78a1.876,1.876,0,0,0-.547-1.319l-2.07-2.07a.628.628,0,1,1,.888-.888l2.07,2.07a3.139,3.139,0,0,1,.915,2.207v4.78a.628.628,0,0,1-.628.628" transform="translate(-88.459 -103.96)" fill="#fdc736" stroke="#fdc736" stroke-width="1"/>
        <path id="Path_54599" data-name="Path 54599" d="M55.353,152.235a.628.628,0,0,1-.628-.628v-4.78a3.144,3.144,0,0,1,.914-2.207l2.071-2.07a.628.628,0,1,1,.888.888l-2.07,2.07a1.878,1.878,0,0,0-.546,1.319v4.78a.628.628,0,0,1-.628.628" transform="translate(-38.614 -103.96)" fill="#fdc736" stroke="#fdc736" stroke-width="1"/>
        <path id="Path_54600" data-name="Path 54600" d="M101.694,53.438a.628.628,0,0,1-.628-.628V50.5a2.913,2.913,0,0,1,2.91-2.909.628.628,0,1,1,0,1.255,1.656,1.656,0,0,0-1.654,1.654V52.81a.628.628,0,0,1-.628.628" transform="translate(-73.166 -33.297)" fill="#fdc736" stroke="#fdc736" stroke-width="1"/>
        <path id="Path_54601" data-name="Path 54601" d="M80.146,53.438a.628.628,0,0,1-.628-.628V50.5a1.656,1.656,0,0,0-1.654-1.654.628.628,0,1,1,0-1.255,2.913,2.913,0,0,1,2.91,2.909V52.81a.628.628,0,0,1-.628.628" transform="translate(-55.398 -33.297)" fill="#fdc736" stroke="#fdc736" stroke-width="1"/>
        <path id="Path_54602" data-name="Path 54602" d="M94.264,11.055a.628.628,0,0,1-.628-.628V1.859a.628.628,0,0,1,1.256,0v8.568a.628.628,0,0,1-.628.628" transform="translate(-67.626 1.272)" stroke="#000" stroke-width="1"/>
        <path id="Path_54603" data-name="Path 54603" d="M94.264,199.244a.628.628,0,0,1-.628-.628v-13.7a.628.628,0,0,1,1.256,0v13.7a.628.628,0,0,1-.628.628" transform="translate(-67.626 -135.218)" stroke="#000" stroke-width="1"/>
      </g>
    </g>
  </g>
</svg>
