<svg width="20" height="20" viewBox="0 0 20 20" fill="none" xmlns="http://www.w3.org/2000/svg">
<g id="check-verified" clip-path="url(#clip0_118_41)">
<g id="check-verified_2">
<g id="Group 8074">
<g id="Group 8073">
<g id="Group 8072">
<path id="Path 16195" fill-rule="evenodd" clip-rule="evenodd" d="M2.97184 11.813H2.74333C2.26232 11.813 1.80102 11.622 1.46089 11.2818C1.12077 10.9417 0.929688 10.4804 0.929688 9.9994C0.929688 9.51839 1.12077 9.05708 1.46089 8.71696C1.80102 8.37684 2.26232 8.18576 2.74333 8.18576H2.97184C3.14129 7.52842 3.40253 6.89824 3.74786 6.31382L3.58463 6.15153C3.24462 5.8109 3.05386 5.34915 3.05429 4.86787C3.05473 4.38659 3.24634 3.9252 3.58696 3.58519C3.92759 3.24518 4.38934 3.05441 4.87062 3.05485C5.3519 3.05528 5.81329 3.24689 6.1533 3.58752L6.31466 3.74981C6.899 3.40431 7.5292 3.14306 8.1866 2.9738V2.74529C8.1866 2.26428 8.37768 1.80297 8.7178 1.46284C9.05793 1.12272 9.51924 0.931641 10.0002 0.931641C10.4813 0.931641 10.9426 1.12272 11.2827 1.46284C11.6228 1.80297 11.8139 2.26428 11.8139 2.74529V2.9738C12.4709 3.14332 13.1008 3.40456 13.6849 3.74981L13.8472 3.58659C14.1878 3.24633 14.6497 3.05532 15.1311 3.05559C15.3695 3.05572 15.6055 3.1028 15.8257 3.19415C16.0459 3.2855 16.246 3.41932 16.4145 3.58798C16.5829 3.75665 16.7165 3.95684 16.8077 4.17714C16.8988 4.39743 16.9456 4.63352 16.9455 4.87191C16.9453 5.1103 16.8982 5.34634 16.8069 5.56653C16.7155 5.78673 16.5817 5.98678 16.4131 6.15525L16.2508 6.31661C16.5965 6.90085 16.8577 7.53108 17.0268 8.18855H17.2525C17.7335 8.18855 18.1948 8.37963 18.5349 8.71976C18.8751 9.05988 19.0661 9.52119 19.0661 10.0022C19.0661 10.4832 18.8751 10.9445 18.5349 11.2846C18.1948 11.6248 17.7335 11.8158 17.2525 11.8158H17.024C16.8546 12.4729 16.5934 13.1028 16.248 13.6869L16.4112 13.8491C16.7515 14.1896 16.9425 14.6514 16.9423 15.1327C16.9422 15.6141 16.7508 16.0757 16.4103 16.4159C16.0698 16.7562 15.608 16.9473 15.1267 16.9471C14.6453 16.9469 14.1837 16.7555 13.8435 16.415L13.6821 16.2527C13.0978 16.5982 12.4676 16.8595 11.8102 17.0287V17.2544C11.8102 17.4926 11.7632 17.7285 11.6721 17.9485C11.581 18.1685 11.4474 18.3685 11.279 18.5369C11.1105 18.7053 10.9106 18.8389 10.6906 18.93C10.4705 19.0212 10.2347 19.0681 9.99652 19.0681C9.75834 19.0681 9.5225 19.0212 9.30246 18.93C9.08242 18.8389 8.88249 18.7053 8.71408 18.5369C8.54566 18.3685 8.41207 18.1685 8.32092 17.9485C8.22978 17.7285 8.18287 17.4926 8.18287 17.2544V17.0259C7.52547 16.8567 6.89527 16.5954 6.31093 16.2499L6.1533 16.415C5.8106 16.7429 5.35309 16.9236 4.87879 16.9183C4.40449 16.913 3.95113 16.7221 3.61585 16.3866C3.28058 16.0511 3.09005 15.5976 3.08508 15.1233C3.08012 14.649 3.26112 14.1916 3.5893 13.8491L3.75159 13.6878C3.40455 13.1028 3.14203 12.4716 2.97184 11.813Z" stroke="white" stroke-width="2"/>
</g>
</g>
</g>
</g>
<path id="Path 16196" d="M6 8.66638L9.20016 12L14 7" stroke="#FDC736" stroke-width="2"/>
</g>
<defs>
<clipPath id="clip0_118_41">
<rect width="20" height="20" fill="white"/>
</clipPath>
</defs>
</svg>
