<svg width="32" height="32" viewBox="0 0 32 32" fill="none" xmlns="http://www.w3.org/2000/svg">
<g clip-path="url(#clip0_2390_2697)">
<path fill-rule="evenodd" clip-rule="evenodd" d="M14.4692 11.6367V17.7022C13.4983 18.0453 12.68 18.7206 12.1588 19.6088C11.6377 20.4969 11.4474 21.5408 11.6214 22.5557C11.7955 23.5706 12.3228 24.4914 13.1101 25.1551C13.8973 25.8189 14.8939 26.1829 15.9237 26.1829C16.9535 26.1829 17.9501 25.8189 18.7374 25.1551C19.5247 24.4914 20.0519 23.5706 20.226 22.5557C20.4001 21.5408 20.2097 20.4969 19.6886 19.6088C19.1675 18.7206 18.3491 18.0453 17.3782 17.7022V11.6367H14.4692ZM14.4692 21.8186C14.4692 21.5309 14.5545 21.2497 14.7143 21.0105C14.8742 20.7713 15.1013 20.5849 15.3671 20.4748C15.6329 20.3647 15.9253 20.3359 16.2075 20.392C16.4896 20.4481 16.7488 20.5867 16.9522 20.7901C17.1556 20.9935 17.2941 21.2527 17.3503 21.5348C17.4064 21.8169 17.3776 22.1094 17.2675 22.3752C17.1574 22.6409 16.971 22.8681 16.7318 23.0279C16.4926 23.1877 16.2114 23.273 15.9237 23.273C15.538 23.273 15.168 23.1198 14.8952 22.847C14.6225 22.5743 14.4692 22.2043 14.4692 21.8186Z" fill="#FAB737"/>
<path d="M15.924 5.81836C18.6244 5.81836 21.2142 6.89106 23.1237 8.80056C25.0331 10.71 26.1059 13.2998 26.1059 16.0002V17.4547H23.1969V16.0002C23.1969 14.0714 22.4307 12.2215 21.0668 10.8577C19.7029 9.49376 17.8531 8.72746 15.9242 8.72746C13.9954 8.72746 12.1456 9.49376 10.7817 10.8577C9.41779 12.2215 8.65159 14.0714 8.65159 16.0002V17.4547H5.74219V16.0002C5.74219 13.2998 6.81489 10.71 8.72439 8.80056C10.6338 6.89106 13.2236 5.81836 15.924 5.81836Z" fill="#464646"/>
<path fill-rule="evenodd" clip-rule="evenodd" d="M15.9219 32C19.0864 32 22.1798 31.0616 24.811 29.3035C27.4422 27.5454 29.493 25.0465 30.704 22.1229C31.915 19.1993 32.2318 15.9822 31.6144 12.8785C30.997 9.77479 29.4732 6.92389 27.2355 4.68619C24.9978 2.44859 22.1469 0.924786 19.0432 0.307386C15.9395 -0.309914 12.7224 0.00698662 9.79877 1.21799C6.87517 2.42899 4.37628 4.47979 2.61828 7.11099C0.860176 9.74219 -0.078225 12.8357 -0.078125 16.0002C-0.078025 20.2436 1.60767 24.3132 4.60827 27.3137C7.60887 30.3142 11.6785 31.9999 15.9219 32ZM15.9219 29.091C18.511 29.091 21.0419 28.3232 23.1947 26.8847C25.3474 25.4463 27.0253 23.4017 28.0161 21.0097C29.0068 18.6177 29.2661 15.9855 28.7609 13.4462C28.2558 10.9068 27.009 8.57429 25.1782 6.74349C23.3474 4.91279 21.0148 3.66599 18.4755 3.16089C15.9361 2.65579 13.304 2.91509 10.912 3.90589C8.51998 4.89669 6.47548 6.57459 5.03698 8.72739C3.59858 10.8801 2.83088 13.4111 2.83088 16.0002C2.83108 19.472 4.21048 22.8014 6.66548 25.2562C9.12048 27.711 12.4501 29.0911 15.9219 29.091Z" fill="#464646"/>
</g>
<defs>
<clipPath id="clip0_2390_2697">
<rect width="32" height="32" fill="white"/>
</clipPath>
</defs>
</svg>
