<svg xmlns="http://www.w3.org/2000/svg" width="38" height="38" viewBox="0 0 38 38">
  <g id="Group_8065" data-name="Group 8065" transform="translate(-16.208 -15.988)">
    <rect id="Rectangle_2886" data-name="Rectangle 2886" width="38" height="38" transform="translate(16.208 15.988)" fill="none"/>
    <g id="bx-customize" transform="translate(21.209 20.988)">
      <path id="Path_14674" data-name="Path 14674" d="M7.6,18.771h9.578a1.6,1.6,0,0,0,1.6-1.6V7.6a1.6,1.6,0,0,0-1.6-1.6H7.6A1.6,1.6,0,0,0,6,7.6v9.578A1.6,1.6,0,0,0,7.6,18.771Zm1.6-9.578h6.385v6.385H9.193ZM33.138,6H23.56a1.6,1.6,0,0,0-1.6,1.6v9.578a1.6,1.6,0,0,0,1.6,1.6h9.578a1.6,1.6,0,0,0,1.6-1.6V7.6A1.6,1.6,0,0,0,33.138,6Zm-1.6,9.578H25.156V9.193h6.385ZM17.174,34.734a1.6,1.6,0,0,0,1.6-1.6V23.56a1.6,1.6,0,0,0-1.6-1.6H7.6A1.6,1.6,0,0,0,6,23.56v9.578a1.6,1.6,0,0,0,1.6,1.6ZM9.193,25.156h6.385v6.385H9.193Zm20.752-1.6H26.752v3.193H23.56v3.193h3.193v3.193h3.193V29.945h3.193V26.752H29.945Z" transform="translate(-6 -6)" fill="#434343"/>
    </g>
  </g>
</svg>
