<svg xmlns="http://www.w3.org/2000/svg" width="38" height="38" viewBox="0 0 38 38">
  <g id="Group_8066" data-name="Group 8066" transform="translate(0.181 -0.39)">
    <rect id="Rectangle_2886" data-name="Rectangle 2886" width="38" height="38" transform="translate(-0.181 0.39)" fill="none"/>
    <g id="shield-security" transform="translate(6.819 3.89)">
      <path id="Path_16192" data-name="Path 16192" d="M12.433.5,24.866,6.069v8.289A17.159,17.159,0,0,1,21.3,24.88a15.466,15.466,0,0,1-8.871,6.055A15.466,15.466,0,0,1,3.562,24.88,17.159,17.159,0,0,1,0,14.357V6.069Zm0,15.217V3.543L2.784,7.817v7.9h9.648V28.085a13.2,13.2,0,0,0,6.475-4.662,15.407,15.407,0,0,0,3.173-7.706Z" transform="translate(0)" fill="#434343"/>
    </g>
  </g>
</svg>
