<svg width="60" height="60" viewBox="0 0 60 60" fill="none" xmlns="http://www.w3.org/2000/svg">
<g id="Group 27633">
<g id="Group 27632">
<g id="Clip path group">
<mask id="mask0_443_2396" style="mask-type:luminance" maskUnits="userSpaceOnUse" x="22" y="13" width="25" height="35">
<g id="clip-path">
<path id="Path 51933" d="M26.1478 18.72C31.1591 17.902 36.4714 19.5259 40.1641 21.3906C40.5047 22.0246 40.5093 32.1283 40.6419 38.0677C40.6661 39.3018 40.7809 40.5314 40.9857 41.7487L40.319 42.1041V46.5547C40.319 46.5547 40.8732 47.9333 42.4486 46.5547C44.0239 45.176 46.0951 45.4463 46.6204 41.0403C47.1458 36.6343 47.1024 23.2607 46.6204 20.8047C46.1384 18.3487 44.5414 17.0664 40.4154 15.5664C37.0621 14.2132 33.468 13.5556 29.8529 13.6354C28.0381 13.6766 26.2388 13.9769 24.5091 14.5273C21.1824 15.9607 21.8571 19.2754 26.1478 18.72Z" fill="white"/>
</g>
</mask>
<g mask="url(#mask0_443_2396)">
<g id="Mask Group 246">
<path id="Path 16191" d="M45.7485 40.6515V21.7682C45.7485 17.6742 38.8318 14.2148 30.6418 14.2148C22.4518 14.2148 15.5352 17.6742 15.5352 21.7682V40.6515C15.5352 44.7455 22.4518 48.2048 30.6418 48.2048C38.8318 48.2048 45.7485 44.7482 45.7485 40.6515ZM30.6418 17.9915C37.6118 17.9915 41.8418 20.8375 41.9752 21.7568C41.8418 22.6988 37.6152 25.5448 30.6418 25.5448C23.6685 25.5448 19.4418 22.6988 19.3085 21.7795C19.4418 20.8375 23.6718 17.9915 30.6418 17.9915ZM19.3085 26.6908C22.1012 28.2908 26.1752 29.3215 30.6418 29.3215C35.1085 29.3215 39.1792 28.2902 41.9752 26.6908V31.1982C41.8418 32.1402 37.6152 34.9862 30.6418 34.9862C23.6685 34.9862 19.4418 32.1402 19.3085 31.2095V26.6908ZM19.3085 40.6515V36.1328C22.1012 37.7328 26.1752 38.7635 30.6418 38.7635C35.1085 38.7635 39.1792 37.7322 41.9752 36.1328V40.6402C41.8418 41.5822 37.6152 44.4282 30.6418 44.4282C23.6685 44.4282 19.4418 41.5828 19.3118 40.6515H19.3085Z" fill="#FAB737"/>
</g>
</g>
</g>
<g id="bx-data">
<path id="Path 16191_2" d="M39.18 42.114V26.3767C39.18 22.9654 33.4153 20.082 26.59 20.082C19.7647 20.082 14 22.9654 14 26.3767V42.114C14 45.526 19.7647 48.4087 26.59 48.4087C33.4153 48.4087 39.18 45.526 39.18 42.114ZM26.59 23.2294C32.3987 23.2294 35.9233 25.6007 36.0327 26.3674C35.924 27.1527 32.3987 29.524 26.59 29.524C20.7813 29.524 17.2567 27.1527 17.1473 26.386C17.256 25.6014 20.7813 23.2294 26.59 23.2294ZM17.1473 30.482C20.0616 31.992 23.3085 32.7457 26.59 32.674C29.8712 32.7456 33.1179 31.9919 36.032 30.482V34.2387C35.9233 35.024 32.398 37.3954 26.5893 37.3954C20.7807 37.3954 17.256 35.024 17.1467 34.248L17.1473 30.482ZM17.1473 42.1167V38.3487C20.0616 39.8587 23.3085 40.6124 26.59 40.5407C29.8712 40.6123 33.1179 39.8586 36.032 38.3487V42.1054C35.9233 42.8907 32.398 45.262 26.5893 45.262C20.7807 45.262 17.256 42.89 17.1473 42.114V42.1167Z" fill="#434343"/>
</g>
</g>
</g>
</svg>
