<svg width="35" height="41" viewBox="0 0 35 41" fill="none" xmlns="http://www.w3.org/2000/svg">
<g clip-path="url(#clip0_2390_2706)">
<g clip-path="url(#clip1_2390_2706)">
<path d="M17.5 5.8755C15.5244 5.8755 13.6095 6.2617 11.8084 7.0236C10.0672 7.76 8.5029 8.8149 7.1589 10.1589C5.8149 11.5029 4.76 13.0672 4.0236 14.8084C3.2617 16.6095 2.8755 18.5244 2.8755 20.5C2.8755 22.4756 3.2617 24.3905 4.0236 26.1917C4.76 27.9328 5.8149 29.4971 7.1589 30.8411C8.5029 32.1851 10.0672 33.24 11.8084 33.9765C13.6095 34.7383 15.5244 35.1245 17.5 35.1245C19.4756 35.1245 21.3905 34.7383 23.1917 33.9765C24.9328 33.24 26.4971 32.1851 27.8411 30.8411C29.1851 29.4971 30.24 27.9328 30.9765 26.1917C31.7383 24.3905 32.1245 22.4756 32.1245 20.5C32.1245 18.5244 31.7383 16.6095 30.9765 14.8084C30.24 13.0672 29.1851 11.5029 27.8411 10.1589C26.4971 8.8149 24.9328 7.76 23.1917 7.0236C21.3905 6.2617 19.4756 5.8755 17.5 5.8755ZM17.5 3C27.165 3 35 10.835 35 20.5C35 30.165 27.165 38 17.5 38C7.835 38 0 30.165 0 20.5C0 10.835 7.835 3 17.5 3Z" fill="#464646"/>
<path d="M17.0143 31.1772H18.6326V28.3625C22.1832 28.1391 24.2846 26.0616 24.2846 23.448C24.2846 20.4322 22.2074 19.3153 18.6326 18.7792V14.1997C20.106 14.4231 20.8547 15.205 21.1204 16.5676H23.9706C23.683 13.7976 21.7484 12.3009 18.6326 12.0328V10H17.0143V12.0105C13.7294 12.2115 11.5797 14.0657 11.5797 16.5453C11.5797 19.3823 13.4395 20.5875 17.0143 21.1471V26.1733C14.7197 25.9074 14.1883 24.6766 13.9951 23.2246H11C11.2415 25.9276 12.884 28.0945 17.0143 28.3625V31.1772ZM21.3137 23.7161C21.3137 25.034 20.2509 25.9723 18.6326 26.1733V21.3928C20.734 21.8172 21.3137 22.4427 21.3137 23.7161ZM14.4298 16.3006C14.4298 15.1837 15.35 14.3125 17.0143 14.1337V18.5345C14.8888 18.1313 14.4298 17.4612 14.4298 16.3006Z" fill="#FAB737"/>
<path d="M13.043 33.8203H22.5236L17.7833 40.5958L13.043 33.8203Z" fill="#FAB737"/>
<path d="M17.783 39.1262L20.9377 34.6171H14.6283L17.783 39.1262ZM17.783 42.0634L11.457 33.0215H24.109L17.783 42.0634Z" fill="#F3F8FF"/>
</g>
</g>
<defs>
<clipPath id="clip0_2390_2706">
<rect width="35" height="41" fill="white"/>
</clipPath>
<clipPath id="clip1_2390_2706">
<rect width="60" height="60" fill="white" transform="translate(-12 -8)"/>
</clipPath>
</defs>
</svg>
