<svg id="external-link" xmlns="http://www.w3.org/2000/svg" width="17.96" height="15.39" viewBox="0 0 17.96 15.39">
  <path id="Path_14752" data-name="Path 14752" d="M14.111,9.3V12.5a2.891,2.891,0,0,1-2.886,2.886H2.886a2.78,2.78,0,0,1-2.04-.847A2.779,2.779,0,0,1,0,12.5V4.168A2.779,2.779,0,0,1,.847,2.129a2.78,2.78,0,0,1,2.04-.847H9.942a.309.309,0,0,1,.321.321v.641a.309.309,0,0,1-.321.321H2.886a1.544,1.544,0,0,0-1.133.471,1.543,1.543,0,0,0-.471,1.132V12.5a1.543,1.543,0,0,0,.471,1.132,1.544,1.544,0,0,0,1.133.471h8.339a1.608,1.608,0,0,0,1.6-1.6V9.3a.309.309,0,0,1,.321-.321h.641a.309.309,0,0,1,.321.321ZM17.96.641v5.13a.638.638,0,0,1-1.092.451L15.1,4.459,8.569,10.991a.315.315,0,0,1-.461,0L6.966,9.849a.315.315,0,0,1,0-.461L13.5,2.856,11.736,1.092a.616.616,0,0,1-.19-.451.616.616,0,0,1,.19-.451A.617.617,0,0,1,12.187,0h5.131a.617.617,0,0,1,.451.19A.616.616,0,0,1,17.96.641Z" transform="translate(0 0)" fill="#fff"/>
</svg>
