<svg width="74" height="30" viewBox="0 0 74 30" fill="none" xmlns="http://www.w3.org/2000/svg">
<path d="M6.73757 24.3885L13.2953 6.99017H3.80078V3.89453H18.0568V4.35311L10.6437 24.3885H6.73757Z" fill="#FAB737"/>
<path d="M65.9062 24.3899V16.6816H67.7188V24.3899H65.9062Z" fill="black"/>
<path d="M61.4664 24.5125C60.5093 24.5125 59.6641 24.0417 59.6641 22.9054C59.6641 21.6462 60.7231 21.1549 62.4949 21.1549H63.0041V21.0321C63.0041 20.5202 62.8819 20.1824 62.3014 20.1824C61.8025 20.1824 61.6191 20.4792 61.5785 20.8171H59.8678C59.9492 19.5273 60.9574 18.8926 62.4135 18.8926C63.8798 18.8926 64.8166 19.4965 64.8166 20.9195V24.3897H63.0447V23.7653C62.7903 24.1542 62.3218 24.5125 61.4664 24.5125ZM62.0978 23.2738C62.6171 23.2738 63.0041 22.977 63.0041 22.5164V22.1888H62.5255C61.7923 22.1888 61.4664 22.3321 61.4664 22.7722C61.4664 23.0794 61.6702 23.2738 62.0978 23.2738Z" fill="black"/>
<path d="M57.9198 18.5266C57.3496 18.5266 56.9219 18.1273 56.9219 17.5848C56.9219 17.0423 57.3496 16.6328 57.9198 16.6328C58.49 16.6328 58.9278 17.0423 58.9278 17.5848C58.9278 18.1273 58.49 18.5266 57.9198 18.5266ZM57.0134 24.3923V19.0385H58.8362V24.3923H57.0134Z" fill="black"/>
<path d="M52.6094 24.3905V19.0367H54.4321V20.1014C54.7682 19.3029 55.3283 18.9548 56.1531 18.9651V20.6747C55.0432 20.6439 54.4321 20.992 54.4321 21.8518V24.3905H52.6094Z" fill="black"/>
<path d="M48.1807 24.3895V18.6878H46.2969V17.0703H52.1622V18.6878H50.2783V24.3895H48.1807Z" fill="black"/>
<path d="M41.1381 24.5125C39.4681 24.5125 38.2461 23.5298 38.2461 21.7794V21.6974C38.2461 19.9776 39.519 18.8926 41.1279 18.8926C42.584 18.8926 43.8366 19.732 43.8366 21.6565V22.1376H40.0893C40.1401 22.8439 40.5474 23.2535 41.1992 23.2535C41.8 23.2535 42.0546 22.977 42.1259 22.6187H43.8366C43.6736 23.8267 42.747 24.5125 41.1381 24.5125ZM40.1096 21.1038H42.0647C42.0342 20.4589 41.7184 20.1006 41.1279 20.1006C40.5779 20.1006 40.2013 20.4589 40.1096 21.1038Z" fill="black"/>
<path d="M35.0521 24.5125C33.3822 24.5125 32.1602 23.5298 32.1602 21.7794V21.6974C32.1602 19.9776 33.4331 18.8926 35.0419 18.8926C36.4981 18.8926 37.7505 19.732 37.7505 21.6565V22.1376H34.0033C34.0542 22.8439 34.4615 23.2535 35.1131 23.2535C35.714 23.2535 35.9685 22.977 36.0398 22.6187H37.7505C37.5877 23.8267 36.6611 24.5125 35.0521 24.5125ZM34.0237 21.1038H35.9788C35.9483 20.4589 35.6325 20.1006 35.0419 20.1006C34.492 20.1006 34.1152 20.4589 34.0237 21.1038Z" fill="black"/>
<path d="M28.1367 24.3905V19.0367H29.9595V20.1014C30.2955 19.3029 30.8556 18.9548 31.6805 18.9651V20.6747C30.5705 20.6439 29.9595 20.992 29.9595 21.8518V24.3905H28.1367Z" fill="black"/>
<path d="M22.5742 24.3895V17.0703H27.4927V18.6979H24.672V20.2539H26.9224V21.7997H24.672V24.3895H22.5742Z" fill="black"/>
<path d="M43.7095 10.9402C42.1923 10.9402 41.3064 10.3056 41.2656 9.11814H42.9458C43.0069 9.5071 43.1801 9.72207 43.6993 9.72207C44.1473 9.72207 44.351 9.54808 44.351 9.28195C44.351 9.02599 44.0964 8.90317 43.3633 8.80084C41.9377 8.61654 41.3369 8.19678 41.3369 7.08107C41.3369 5.89357 42.3857 5.32031 43.6179 5.32031C44.9314 5.32031 45.8479 5.77075 45.9701 7.05026H44.3205C44.2493 6.69198 44.0557 6.51799 43.6382 6.51799C43.2411 6.51799 43.0375 6.69198 43.0375 6.93775C43.0375 7.19358 43.2819 7.29604 43.9335 7.37788C45.41 7.56218 46.1228 7.95113 46.1228 9.09765C46.1228 10.367 45.186 10.9402 43.7095 10.9402Z" fill="black"/>
<path d="M36.4376 12.6101L37.3236 10.276L35.1953 5.46484H37.1708L38.2706 8.32082L39.2888 5.46484H41.0301L38.1789 12.6101H36.4376Z" fill="black"/>
<path d="M31.4469 10.9402C30.4898 10.9402 29.6445 10.4694 29.6445 9.33311C29.6445 8.07395 30.7036 7.58267 32.4753 7.58267H32.9846V7.45985C32.9846 6.94793 32.8624 6.61014 32.2819 6.61014C31.7829 6.61014 31.5997 6.90695 31.559 7.24487H29.8482C29.9297 5.95505 30.9378 5.32031 32.3939 5.32031C33.8603 5.32031 34.7971 5.92424 34.7971 7.3472V10.8174H33.0253V10.193C32.7707 10.582 32.3023 10.9402 31.4469 10.9402ZM32.0783 9.70158C32.5977 9.70158 32.9846 9.40477 32.9846 8.94415V8.61654H32.506C31.7728 8.61654 31.4469 8.75986 31.4469 9.19998C31.4469 9.5071 31.6506 9.70158 32.0783 9.70158Z" fill="black"/>
<path d="M22.5742 10.8192V3.5H25.2218C27.8083 3.5 29.1219 4.80001 29.1219 7.07268V7.15451C29.1219 9.43737 27.7778 10.8192 25.2117 10.8192H22.5742ZM24.672 9.2019H25.1506C26.3928 9.2019 26.9427 8.54667 26.9427 7.18519V7.10335C26.9427 5.71119 26.3928 5.11744 25.1302 5.11744H24.672V9.2019Z" fill="black"/>
</svg>
