<svg xmlns="http://www.w3.org/2000/svg" width="17.958" height="17.951" viewBox="0 0 17.958 17.951">
  <path id="Union_6" data-name="Union 6" d="M-4614.587-276.217a8.955,8.955,0,0,1,.615-12.657,8.978,8.978,0,0,1,11-.847.868.868,0,0,1,.1,1.37l-.447.4a.868.868,0,0,1-1.049.083,6.657,6.657,0,0,0-8.019.679,6.656,6.656,0,0,0-.492,9.4,6.656,6.656,0,0,0,9.4.493,6.659,6.659,0,0,0,1.514-7.9.869.869,0,0,1,.191-1.034l.449-.4a.867.867,0,0,1,1.348.236,8.979,8.979,0,0,1-1.952,10.826,8.94,8.94,0,0,1-6,2.306A8.953,8.953,0,0,1-4614.587-276.217Zm5.694-3.579h0Zm.008,0h0s0,0,0,0Zm-.567-.571h-.013l-1.726-1.726a.409.409,0,0,1-.118-.286.407.407,0,0,1,.118-.286.406.406,0,0,1,.571,0l1.726,1.726,3.464-3.451a.406.406,0,0,1,.571,0,.408.408,0,0,1,0,.573l-3.463,3.451a4.437,4.437,0,0,1-.561.57C-4608.9-279.827-4609.529-280.291-4609.452-280.367Z" transform="translate(4616.914 291.212)" fill="#00ce77"/>
</svg>
