<svg width="20" height="20" viewBox="0 0 20 20" fill="none" xmlns="http://www.w3.org/2000/svg">
<g id="Group 8075" clip-path="url(#clip0_118_47)">
<g id="Group 8075_2">
<path id="Path 16189" d="M6.18359 7.32812V9.30273H8.95583V15.9752H11.0428V9.30667H13.8184V7.33231L6.18359 7.32812Z" fill="#FDC736"/>
<path id="Rectangle 3134" d="M11.0384 5.13443C11.0384 4.49388 10.5191 3.97461 9.87857 3.97461C9.23802 3.97461 8.71875 4.49388 8.71875 5.13443C8.71875 5.77498 9.23802 6.29425 9.87857 6.29425C10.5191 6.29425 11.0384 5.77498 11.0384 5.13443Z" fill="#FDC736"/>
<g id="Rectangle 3136">
<path id="Vector" d="M18.9899 10.0008C18.9899 5.03518 14.9644 1.00977 9.99883 1.00977C5.03323 1.00977 1.00781 5.03518 1.00781 10.0008C1.00781 14.9664 5.03323 18.9918 9.99883 18.9918C14.9644 18.9918 18.9899 14.9664 18.9899 10.0008Z" stroke="white" stroke-width="2"/>
</g>
</g>
</g>
<defs>
<clipPath id="clip0_118_47">
<rect width="20" height="20" fill="white"/>
</clipPath>
</defs>
</svg>
