<svg width="60" height="60" viewBox="0 0 60 60" fill="none" xmlns="http://www.w3.org/2000/svg">
<g id="Group 7356">
<g id="Group 8061">
<path id="Path 16189" d="M22.3828 24.7969V28.5768H27.6901V41.3529H31.6901V28.5768H37.0046V24.7969H22.3828Z" fill="#FAB737"/>
<path id="Rectangle 3134" d="M31.6803 20.5999C31.6803 19.3733 30.6859 18.3789 29.4593 18.3789C28.2327 18.3789 27.2383 19.3733 27.2383 20.5999C27.2383 21.8265 28.2327 22.8209 29.4593 22.8209C30.6859 22.8209 31.6803 21.8265 31.6803 20.5999Z" fill="#FAB737"/>
</g>
<g id="Path 16211">
<path id="Vector" d="M29.9971 13.8446C27.8146 13.8446 25.6991 14.2714 23.7093 15.113C21.7858 15.9265 20.0576 17.0919 18.5728 18.5767C17.088 20.0615 15.9226 21.7897 15.1091 23.7132C14.2675 25.703 13.8407 27.8185 13.8407 30.001C13.8407 32.1836 14.2675 34.2991 15.1091 36.2889C15.9226 38.2124 17.088 39.9406 18.5728 41.4254C20.0576 42.9102 21.7858 44.0755 23.7093 44.8891C25.6991 45.7307 27.8146 46.1575 29.9971 46.1575C32.1796 46.1575 34.2952 45.7307 36.285 44.8891C38.2085 44.0755 39.9367 42.9102 41.4215 41.4254C42.9063 39.9406 44.0716 38.2124 44.8852 36.2889C45.7268 34.2991 46.1536 32.1836 46.1536 30.001C46.1536 27.8185 45.7268 25.703 44.8852 23.7132C44.0716 21.7897 42.9063 20.0615 41.4215 18.5767C39.9366 17.0919 38.2085 15.9265 36.285 15.113C34.2952 14.2714 32.1796 13.8446 29.9971 13.8446ZM29.9971 10.668C40.6745 10.668 49.3302 19.3237 49.3302 30.001C49.3302 40.6784 40.6745 49.3341 29.9971 49.3341C19.3198 49.3341 10.6641 40.6784 10.6641 30.001C10.6641 19.3237 19.3198 10.668 29.9971 10.668Z" fill="#434343"/>
</g>
</g>
</svg>
