<svg xmlns="http://www.w3.org/2000/svg" xmlns:xlink="http://www.w3.org/1999/xlink" width="60" height="60" viewBox="0 0 60 60">
  <defs>
    <clipPath id="clip-path">
      <rect id="Rectangle_2518" data-name="Rectangle 2518" width="60" height="60" transform="translate(-4.744 -6.571)"/>
    </clipPath>
  </defs>
  <g id="Group_7404" data-name="Group 7404" transform="translate(4.744 6.571)">
    <g id="Group_6696" data-name="Group 6696" clip-path="url(#clip-path)">
      <rect id="Rectangle_2961" data-name="Rectangle 2961" width="60" height="60" transform="translate(-4.744 -6.571)" fill="none"/>
      <rect id="Rectangle_2880" data-name="Rectangle 2880" width="23" height="23" rx="11.5" transform="translate(13.256 16.429)" fill="#c7ddeb"/>
      <path id="Path_10866" data-name="Path 10866" d="M41.459,97.252a1.4,1.4,0,0,1-.77-.232,15.383,15.383,0,0,1-.14-25.6,1.4,1.4,0,1,1,1.568,2.322,12.581,12.581,0,0,0,.115,20.937,1.4,1.4,0,0,1-.773,2.571" transform="translate(-27.24 -55.845)"/>
      <path id="Path_10867" data-name="Path 10867" d="M11.569,85.361a1.394,1.394,0,0,1-.749-.218,23.271,23.271,0,0,1-1.8-38.054A1.4,1.4,0,0,1,10.735,49.3a20.469,20.469,0,0,0,1.586,33.474,1.4,1.4,0,0,1-.752,2.584" transform="translate(-1.357 -37.153)"/>
      <path id="Path_10868" data-name="Path 10868" d="M152.335,97.252a1.4,1.4,0,0,1-.773-2.571,12.581,12.581,0,0,0,.115-20.937,1.4,1.4,0,0,1,1.569-2.322,15.383,15.383,0,0,1-.14,25.6,1.4,1.4,0,0,1-.77.232" transform="translate(-117.042 -55.845)"/>
      <path id="Path_10869" data-name="Path 10869" d="M169.5,85.361a1.4,1.4,0,0,1-.752-2.584A20.468,20.468,0,0,0,170.332,49.3a1.4,1.4,0,0,1,1.718-2.214,23.271,23.271,0,0,1-1.8,38.054,1.393,1.393,0,0,1-.749.218" transform="translate(-130.197 -37.153)"/>
      <path id="Path_10870" data-name="Path 10870" d="M103.167,29.165a2.738,2.738,0,0,1-.933,2.08,3.094,3.094,0,0,1-2.17.866,2.828,2.828,0,0,1-2.058-.854,2.852,2.852,0,0,1,.034-4.126,3.148,3.148,0,0,1,2.2-.821,2.866,2.866,0,0,1,2.08.821,2.725,2.725,0,0,1,.844,2.035m-.158-25.14q0,.922-.427,5.532l-1.259,13.4q-.112,1.147-1.079,1.147-.99,0-1.1-1.147l-1.417-13.4Q97.3,5.375,97.3,4.183,97.3,0,100.289,0a2.334,2.334,0,0,1,2.2,1.484,5.435,5.435,0,0,1,.517,2.541" transform="translate(-75.813 -1.286)"/>
    </g>
  </g>
</svg>
