<svg xmlns="http://www.w3.org/2000/svg" width="30" height="30" viewBox="0 0 30 30">
  <g id="linkto" transform="translate(-574 907)">
    <rect id="Rectangle_2930" data-name="Rectangle 2930" width="30" height="30" transform="translate(574 -907)" fill="none"/>
    <g id="external-link" transform="translate(578.943 -900.906)">
      <path id="Path_14752" data-name="Path 14752" d="M15.773,10.393v3.584A3.231,3.231,0,0,1,12.546,17.2H3.226a3.108,3.108,0,0,1-2.28-.946A3.106,3.106,0,0,1,0,13.976V4.659A3.106,3.106,0,0,1,.947,2.38a3.108,3.108,0,0,1,2.28-.946h7.886a.345.345,0,0,1,.358.358v.717a.345.345,0,0,1-.358.358H3.226a1.726,1.726,0,0,0-1.266.526,1.725,1.725,0,0,0-.526,1.265v9.318a1.725,1.725,0,0,0,.526,1.265,1.726,1.726,0,0,0,1.266.526h9.32a1.8,1.8,0,0,0,1.792-1.792V10.393a.345.345,0,0,1,.358-.358h.717a.345.345,0,0,1,.358.358Zm4.3-9.676V6.451a.713.713,0,0,1-1.221.5L16.882,4.984l-7.3,7.3a.352.352,0,0,1-.515,0L7.785,11.009a.352.352,0,0,1,0-.515l7.3-7.3L13.118,1.221a.689.689,0,0,1-.213-.5.689.689,0,0,1,.213-.5.689.689,0,0,1,.5-.213h5.735a.689.689,0,0,1,.5.213A.689.689,0,0,1,20.074.717Z" transform="translate(0 0)" fill="#fff"/>
    </g>
  </g>
</svg>
