<svg xmlns="http://www.w3.org/2000/svg" xmlns:xlink="http://www.w3.org/1999/xlink" width="60" height="60" viewBox="0 0 60 60">
  <defs>
    <clipPath id="clip-path">
      <rect id="Rectangle_2900" data-name="Rectangle 2900" width="60" height="60" transform="translate(3.078 -1.744)"/>
    </clipPath>
  </defs>
  <g id="Group_7400" data-name="Group 7400" transform="translate(-3.078 1.744)" clip-path="url(#clip-path)">
    <rect id="Rectangle_2957" data-name="Rectangle 2957" width="60" height="60" transform="translate(3.234 -1.571)" fill="none"/>
    <path id="Path_14713" data-name="Path 14713" d="M-.691,2.868a33.781,33.781,0,0,1,7.9-1.553,54.909,54.909,0,0,1,9.471,1.031s.468,8.565-1.605,13.128C13.388,19.239,8.161,21.9,8.161,21.9s-4.952-2.986-6.793-6.131S-.691,2.868-.691,2.868Z" transform="translate(25.061 6.361)" fill="#c7ddeb"/>
    <path id="Path_14714" data-name="Path 14714" d="M-.691,2.494,9.69-1l8.527,5.667V8.221Z" transform="translate(15.006 29.358)" fill="#c7ddeb"/>
    <path id="Path_14715" data-name="Path 14715" d="M-2.5.758.41-.177,17.924,5.26V7.6Z" transform="translate(15.298 36.766)" fill="#c7ddeb"/>
    <path id="Path_14716" data-name="Path 14716" d="M-2.5.758.41-.177,17.924,5.036V7.172Z" transform="translate(15.298 42.632)" fill="#c7ddeb"/>
    <path id="Path_14717" data-name="Path 14717" d="M.333,38.1a.535.535,0,0,0-.092.051.545.545,0,0,0-.085.067.526.526,0,0,0-.06.076.544.544,0,0,0-.056.1c-.006.014-.017.024-.022.039a.518.518,0,0,0-.006.054A.547.547,0,0,0,0,38.6a.529.529,0,0,0,.012.111.519.519,0,0,0,.006.054c0,.01.013.014.017.024a.536.536,0,0,0,.175.243c.013.01.03.016.044.025a.53.53,0,0,0,.121.067l26.888,8.5a.545.545,0,0,0,.331,0l26.888-8.5a.529.529,0,0,0,.121-.067c.014-.009.031-.014.044-.025a.536.536,0,0,0,.175-.243c0-.01.014-.014.017-.024a.52.52,0,0,0,.006-.054.529.529,0,0,0,.012-.111.547.547,0,0,0-.012-.111.518.518,0,0,0-.006-.054c0-.015-.016-.025-.022-.04a.544.544,0,0,0-.054-.1.533.533,0,0,0-.064-.08.539.539,0,0,0-.078-.063.527.527,0,0,0-.1-.054c-.015-.006-.025-.018-.041-.023l-7.5-2.37,7.5-2.37a.53.53,0,0,0,.121-.067c.014-.009.031-.014.044-.025A.536.536,0,0,0,54.823,33c0-.01.014-.014.017-.024a.521.521,0,0,0,.006-.054.529.529,0,0,0,.012-.111.547.547,0,0,0-.012-.111.518.518,0,0,0-.006-.054c0-.015-.016-.025-.022-.04a.544.544,0,0,0-.054-.1.45.45,0,0,0-.142-.143.524.524,0,0,0-.1-.054c-.015-.006-.025-.018-.041-.023l-7.5-2.37,7.5-2.37a.528.528,0,0,0,.121-.067c.014-.009.031-.014.044-.024a.536.536,0,0,0,.175-.243c0-.01.014-.014.017-.024a.518.518,0,0,0,.006-.054.528.528,0,0,0,.012-.111.547.547,0,0,0-.012-.111.516.516,0,0,0-.006-.054c0-.015-.016-.025-.022-.04a.542.542,0,0,0-.054-.1.45.45,0,0,0-.142-.143.524.524,0,0,0-.1-.054c-.015-.006-.025-.018-.041-.023L35.635,20.542a14.1,14.1,0,0,0,2.5-6.36L39.448,3.95C39.448,1.033,32.974,0,27.429,0S15.41,1.033,15.41,3.95a.591.591,0,0,0,0,.07l1.307,10.162a14.106,14.106,0,0,0,2.5,6.36L.375,26.5c-.016.005-.027.017-.043.024a.536.536,0,0,0-.092.051.548.548,0,0,0-.085.067.527.527,0,0,0-.06.076.542.542,0,0,0-.056.1c-.006.014-.017.024-.022.039a.516.516,0,0,0-.006.054A.547.547,0,0,0,0,27.022a.528.528,0,0,0,.012.111.518.518,0,0,0,.006.054c0,.01.013.014.017.024a.536.536,0,0,0,.175.243c.013.01.03.016.044.024a.528.528,0,0,0,.121.067l7.5,2.37-7.5,2.37c-.016.005-.027.017-.043.024a.54.54,0,0,0-.092.051.545.545,0,0,0-.085.067A.526.526,0,0,0,.1,32.5a.543.543,0,0,0-.056.1c-.006.014-.017.024-.022.039a.517.517,0,0,0-.006.054A.548.548,0,0,0,0,32.809a.529.529,0,0,0,.012.111.521.521,0,0,0,.006.054c0,.01.013.014.017.024a.536.536,0,0,0,.175.243c.013.01.03.016.044.025a.53.53,0,0,0,.121.067l7.5,2.37-7.5,2.37a.467.467,0,0,0-.043.024M17.81,14.042l-1.3-10.124C16.569,2.333,21.344,1.1,27.429,1.1c6.125,0,10.922,1.253,10.926,2.783L37.048,14.042a13,13,0,0,1-5.07,8.707l-4.549,3.407L22.88,22.749a13,13,0,0,1-5.07-8.707M2.361,27.022l17.587-5.559a13.859,13.859,0,0,0,2.274,2.165L27.1,27.282a.55.55,0,0,0,.658,0l4.878-3.654a13.861,13.861,0,0,0,2.274-2.165L52.5,27.022,27.429,34.946Zm0,5.787,7.333-2.318L22.055,34.4l5.208,1.646a.546.546,0,0,0,.331,0l17.569-5.553L52.5,32.809,27.429,40.732Zm7.332,3.468,17.571,5.554a.547.547,0,0,0,.331,0l17.57-5.554L52.5,38.6,27.429,46.519,2.361,38.6Z" transform="translate(5.805 4.608)" stroke="#000" stroke-width="1"/>
    <path id="Path_14718" data-name="Path 14718" d="M421.669,109.287h7.544a.548.548,0,0,0,.521-.72l-2.03-6.153a3.47,3.47,0,1,0-4.526,0l-2.03,6.153a.548.548,0,0,0,.521.72m2.674-6.9a.547.547,0,0,0-.217-.628,2.373,2.373,0,1,1,2.631,0,.547.547,0,0,0-.217.628l1.915,5.8h-6.027Z" transform="translate(-392.207 -86.434)" stroke="#000" stroke-width="1"/>
  </g>
</svg>
