<svg xmlns="http://www.w3.org/2000/svg" xmlns:xlink="http://www.w3.org/1999/xlink" width="60" height="60" viewBox="0 0 60 60">
  <defs>
    <clipPath id="clip-path">
      <rect id="Rectangle_2906" data-name="Rectangle 2906" width="60" height="60" transform="translate(-1.92 -6.571)"/>
    </clipPath>
  </defs>
  <g id="Group_7401" data-name="Group 7401" transform="translate(1.92 6.571)" clip-path="url(#clip-path)">
    <rect id="Rectangle_2958" data-name="Rectangle 2958" width="60" height="60" transform="translate(-1.92 -6.571)" fill="none"/>
    <path id="Path_14719" data-name="Path 14719" d="M6.017,13.664c2.735-2.257,3.693-2.784,5.869-9.8.354.244,1.814,5.5,0,9.252-2.128,8.3-.129,12.844,3.382,14,5.986,2.358,8.708-3.564,8.708-3.564s1.859,4.58,0,7.437-7.326,4.147-7.326,4.147S5.467,36.7,1.183,29.383,3.281,15.922,6.017,13.664Z" transform="translate(3.401 5.412)" fill="#c7ddeb"/>
    <path id="Path_14720" data-name="Path 14720" d="M19.188,43.429H14.013A13.413,13.413,0,0,1,7.15,41.634C1.424,38.233.1,33.787.006,30.656c-.19-6,3.824-11.536,7.633-14.137C14.494,11.838,12.021,1.154,12,1.046A.849.849,0,0,1,13.349.184c.343.272,8.341,6.834,4.911,21.347-.9,3.827-.418,6.581,1.337,7.556a4.032,4.032,0,0,0,4.592-.959,3.967,3.967,0,0,0,.464-5.065.849.849,0,0,1,1.254-1.092c.24.183,5.884,4.547,6.155,10.205.134,2.806-1.069,5.406-3.577,7.728a13.588,13.588,0,0,1-9.3,3.524M14.074,3.481c.34,3.851.04,10.673-5.477,14.44C5.157,20.269,1.533,25.239,1.7,30.6c.122,3.88,2.306,7.191,6.314,9.572a11.73,11.73,0,0,0,6,1.556h5.174a11.9,11.9,0,0,0,8.144-3.071c2.122-1.965,3.143-4.116,3.036-6.4-.129-2.749-1.849-5.234-3.33-6.883a5.409,5.409,0,0,1-1.644,3.945,5.692,5.692,0,0,1-6.621,1.244c-1.45-.806-3.66-3.1-2.164-9.431,2.178-9.212-.526-14.912-2.534-17.659" transform="translate(0 0)"/>
    <path id="Path_14721" data-name="Path 14721" d="M126.179,76.541H104.5a.849.849,0,0,1,0-1.7h21.677a1.416,1.416,0,0,0,1.414-1.415V46.075a1.416,1.416,0,0,0-1.414-1.415H95.925a.849.849,0,1,1,0-1.7h30.254a3.115,3.115,0,0,1,3.112,3.112V73.429a3.115,3.115,0,0,1-3.112,3.112" transform="translate(-73.278 -33.113)"/>
    <path id="Path_14722" data-name="Path 14722" d="M129.393,74.681H96.876a.566.566,0,0,1,0-1.132h32.517a.566.566,0,0,1,0,1.132" transform="translate(-74.229 -56.686)"/>
    <path id="Path_14723" data-name="Path 14723" d="M161.885,113.327H139.033a.566.566,0,0,1,0-1.132h22.852a.566.566,0,1,1,0,1.132" transform="translate(-106.721 -86.472)"/>
    <path id="Path_14724" data-name="Path 14724" d="M171.749,151.973H151.832a.566.566,0,0,1,0-1.132h19.918a.566.566,0,0,1,0,1.132" transform="translate(-116.585 -116.258)"/>
    <path id="Path_14725" data-name="Path 14725" d="M188.87,52.058a.565.565,0,0,1-.566-.566v-6.73a.566.566,0,0,1,1.132,0v6.73a.565.565,0,0,1-.566.566" transform="translate(-145.132 -34.064)"/>
    <path id="Path_14726" data-name="Path 14726" d="M188.87,122.188a.566.566,0,0,1-.566-.566v-8.86a.566.566,0,0,1,1.132,0v8.86a.566.566,0,0,1-.566.566" transform="translate(-145.132 -86.473)"/>
    <path id="Path_14727" data-name="Path 14727" d="M139.033,52.058a.565.565,0,0,1-.566-.566v-6.73a.566.566,0,1,1,1.132,0v6.73a.565.565,0,0,1-.566.566" transform="translate(-106.721 -34.064)"/>
    <path id="Path_14728" data-name="Path 14728" d="M213.787,83.542a.566.566,0,0,1-.566-.566v-8.86a.566.566,0,0,1,1.132,0v8.86a.566.566,0,0,1-.566.566" transform="translate(-164.336 -56.687)"/>
    <path id="Path_14729" data-name="Path 14729" d="M163.951,83.542a.566.566,0,0,1-.566-.566v-8.86a.566.566,0,0,1,1.132,0v8.86a.566.566,0,0,1-.566.566" transform="translate(-125.926 -56.687)"/>
    <path id="Path_14730" data-name="Path 14730" d="M213.787,159.4a.566.566,0,0,1-.566-.566v-7.43a.566.566,0,0,1,1.132,0v7.43a.566.566,0,0,1-.566.566" transform="translate(-164.336 -116.258)"/>
    <path id="Path_14731" data-name="Path 14731" d="M163.951,159.4a.566.566,0,0,1-.566-.566v-7.43a.566.566,0,0,1,1.132,0v7.43a.566.566,0,0,1-.566.566" transform="translate(-125.926 -116.258)"/>
    <rect id="Rectangle_2901" data-name="Rectangle 2901" width="7" height="4" transform="translate(23.08 12.429)" fill="#c7ddeb"/>
    <rect id="Rectangle_2902" data-name="Rectangle 2902" width="8" height="4" transform="translate(34.08 12.429)" fill="#c7ddeb"/>
    <rect id="Rectangle_2903" data-name="Rectangle 2903" width="8" height="4" transform="translate(45.08 12.429)" fill="#c7ddeb"/>
    <rect id="Rectangle_2904" data-name="Rectangle 2904" width="7" height="7" transform="translate(40.08 18.429)" fill="#c7ddeb"/>
    <rect id="Rectangle_2905" data-name="Rectangle 2905" width="8" height="6" transform="translate(45.08 27.429)" fill="#c7ddeb"/>
  </g>
</svg>
