<svg xmlns="http://www.w3.org/2000/svg" width="17.951" height="17.698" viewBox="0 0 17.951 17.698">
  <path id="Union_6" data-name="Union 6" d="M-4617-282.231a8.979,8.979,0,0,1,6.73-8.74.87.87,0,0,1,1.088.841v.6a.87.87,0,0,1-.641.835,6.656,6.656,0,0,0-4.861,6.414,6.656,6.656,0,0,0,6.659,6.659,6.655,6.655,0,0,0,6.659-6.659,6.656,6.656,0,0,0-4.861-6.414.87.87,0,0,1-.641-.835v-.6a.868.868,0,0,1,1.079-.844,8.98,8.98,0,0,1,6.739,8.7A8.976,8.976,0,0,1-4608-273.3h-.02A8.958,8.958,0,0,1-4617-282.231Zm10.7,2.377-1.726-1.725-1.725,1.725a.406.406,0,0,1-.571,0,.4.4,0,0,1-.119-.286.406.406,0,0,1,.119-.286l1.726-1.725-1.726-1.725a.4.4,0,0,1-.119-.286.4.4,0,0,1,.119-.285.4.4,0,0,1,.571,0l1.725,1.725,1.726-1.725a.405.405,0,0,1,.572,0,.406.406,0,0,1,0,.571l-1.725,1.725,1.725,1.725a.407.407,0,0,1,0,.572.4.4,0,0,1-.286.117A.405.405,0,0,1-4606.3-279.854Z" transform="translate(4617 291)" fill="#ff6565"/>
</svg>
