<svg width="60" height="60" viewBox="0 0 60 60" fill="none" xmlns="http://www.w3.org/2000/svg">
<g id="Group 7356">
<g id="bx-customize">
<path id="Path 14674" d="M15.4484 28.189H26.2484C26.7258 28.189 27.1837 27.9993 27.5212 27.6618C27.8588 27.3242 28.0484 26.8664 28.0484 26.389V15.593C28.0484 15.1156 27.8588 14.6577 27.5212 14.3202C27.1837 13.9826 26.7258 13.793 26.2484 13.793H15.4484C14.971 13.793 14.5132 13.9826 14.1756 14.3202C13.8381 14.6577 13.6484 15.1156 13.6484 15.593V26.393C13.6495 26.8697 13.8396 27.3265 14.1771 27.6632C14.5145 27.9999 14.9717 28.189 15.4484 28.189ZM17.2484 17.389H24.4484V24.593H17.2484V17.389ZM44.2398 13.793H33.4398C32.9624 13.793 32.5045 13.9826 32.167 14.3202C31.8294 14.6577 31.6398 15.1156 31.6398 15.593V26.393C31.6398 26.8704 31.8294 27.3282 32.167 27.6658C32.5045 28.0033 32.9624 28.193 33.4398 28.193H44.2398C44.7172 28.193 45.175 28.0033 45.5126 27.6658C45.8501 27.3282 46.0398 26.8704 46.0398 26.393V15.593C46.0398 15.1156 45.8501 14.6577 45.5126 14.3202C45.175 13.9826 44.7172 13.793 44.2398 13.793ZM42.4398 24.593H35.2398V17.393H42.4398V24.593ZM26.2451 46.1836C26.7225 46.1836 27.1803 45.994 27.5179 45.6564C27.8555 45.3189 28.0451 44.861 28.0451 44.3836V33.5836C28.0451 33.1062 27.8555 32.6484 27.5179 32.3108C27.1803 31.9733 26.7225 31.7836 26.2451 31.7836H15.4484C14.971 31.7836 14.5132 31.9733 14.1756 32.3108C13.8381 32.6484 13.6484 33.1062 13.6484 33.5836V44.3836C13.6484 44.861 13.8381 45.3189 14.1756 45.6564C14.5132 45.994 14.971 46.1836 15.4484 46.1836H26.2451ZM17.2451 35.3836H24.4484V42.5836H17.2484L17.2451 35.3836Z" fill="#434343"/>
<path id="Union 93" d="M36.7943 45.002V40.8835H32.6758V37.4525H36.7943V33.334H40.224V37.4525H44.3424V40.8835H40.224V45.002H36.7943Z" fill="#FAB737"/>
</g>
</g>
</svg>
