<svg width="18" height="18" viewBox="0 0 18 18" fill="none" xmlns="http://www.w3.org/2000/svg">
<g id="Union 6 1" clip-path="url(#clip0_443_2358)">
<path id="Union 6" d="M2.32695 14.994C1.5356 14.1229 0.923584 13.1043 0.526171 11.9966C0.128757 10.8888 -0.0465721 9.71355 0.0105457 8.53804C0.0676634 7.36253 0.356238 6.20979 0.859178 5.14577C1.36212 4.08175 2.06962 3.12732 2.9417 2.33702C4.41945 0.991762 6.30372 0.177974 8.29619 0.024554C10.2887 -0.128866 12.2754 0.386836 13.9417 1.49001C14.0523 1.56326 14.1447 1.66089 14.2117 1.77538C14.2787 1.88987 14.3188 2.01818 14.3284 2.15047C14.3381 2.28276 14.317 2.4155 14.2674 2.5385C14.2177 2.6615 14.1406 2.77147 14.0418 2.86L13.595 3.26003C13.4534 3.38682 13.2738 3.4636 13.0843 3.47859C12.8948 3.49359 12.7055 3.44595 12.5457 3.343C11.3181 2.56548 9.87007 2.21098 8.42217 2.33358C6.97426 2.45617 5.60601 3.04916 4.52666 4.02202C3.21492 5.20331 2.42654 6.8573 2.33428 8.62014C2.24201 10.383 2.85371 12.1102 4.03496 13.422C5.21611 14.7339 6.86978 15.5228 8.63262 15.6153C10.3955 15.7077 12.123 15.0962 13.4349 13.915C14.5141 12.9434 15.246 11.6456 15.5193 10.2194C15.7927 8.79324 15.5926 7.31677 14.949 6.015C14.8635 5.84545 14.8359 5.65257 14.8704 5.46584C14.9049 5.27911 14.9995 5.10882 15.1399 4.98101L15.5887 4.58101C15.6865 4.49238 15.8037 4.42724 15.9305 4.39058C16.0573 4.35392 16.1906 4.3467 16.3206 4.36946C16.4506 4.39223 16.5737 4.44437 16.6805 4.52193C16.7873 4.59949 16.8749 4.70041 16.9368 4.817C17.858 6.5825 18.1662 8.60417 17.8128 10.564C17.4594 12.5237 16.4645 14.3104 14.9847 15.643C13.3397 17.129 11.2014 17.9508 8.98467 17.949C7.72977 17.9506 6.4886 17.6883 5.3416 17.1792C4.1946 16.6702 3.16766 15.9257 2.32695 14.994ZM7.46172 10.844H7.44902L5.72295 9.11803C5.64768 9.04182 5.60515 8.93913 5.60478 8.83202C5.60494 8.72487 5.6475 8.62209 5.72295 8.54601C5.79896 8.47083 5.90169 8.42867 6.00859 8.42867C6.1155 8.42867 6.21774 8.47083 6.29375 8.54601L8.01982 10.272L11.4837 6.821C11.5597 6.74583 11.6624 6.70369 11.7693 6.70369C11.8762 6.70369 11.979 6.74583 12.055 6.821C12.1303 6.89735 12.1722 7.0003 12.1722 7.10753C12.1722 7.21476 12.1303 7.31768 12.055 7.39403L8.59209 10.845C8.42263 11.0515 8.23483 11.2423 8.03105 11.415C8.01405 11.384 7.38472 10.92 7.46172 10.844Z" fill="#00CE77"/>
</g>
<defs>
<clipPath id="clip0_443_2358">
<rect width="17.958" height="17.951" fill="white"/>
</clipPath>
</defs>
</svg>
