<svg xmlns="http://www.w3.org/2000/svg" width="39.719" height="41.482" viewBox="0 0 39.719 41.482">
  <path id="Path_10838" data-name="Path 10838" d="M1.624,10.049q0,3.073-3.976,3.073V2.1A5.636,5.636,0,0,0-1.4,1.1L-1.539.876a10.326,10.326,0,0,1-3.276,2.3,9.389,9.389,0,0,1-3.954.9A9.336,9.336,0,0,1-15.163,1.96,7.2,7.2,0,0,1-17.58-3.733V-11.46a7.454,7.454,0,0,1,1.152-4.135,7.622,7.622,0,0,1,3.163-2.756,10.1,10.1,0,0,1,4.451-.972A9.018,9.018,0,0,1-1.4-15.437l.181-.181-.9-1.13a2.244,2.244,0,0,1,.881-1.92,4.886,4.886,0,0,1,2.869-.655Zm-9.58-25.892a6.644,6.644,0,0,0-4.2,1.175,4.059,4.059,0,0,0-1.491,3.389v7.365A4.023,4.023,0,0,0-12.158-.593,6.4,6.4,0,0,0-8.046.6,6.544,6.544,0,0,0-3.979-.66,3.714,3.714,0,0,0-2.307-3.688v-7.817a3.78,3.78,0,0,0-1.627-3.073A6.352,6.352,0,0,0-7.955-15.843ZM2.98-25.287q0-3.073,3.976-3.073v11.026a5.473,5.473,0,0,0-.949.994l.136.226a10.216,10.216,0,0,1,3.321-2.327,9.4,9.4,0,0,1,3.863-.881A9.318,9.318,0,0,1,19.744-17.2a7.23,7.23,0,0,1,2.395,5.694v7.727A7.63,7.63,0,0,1,21.032.288a7.445,7.445,0,0,1-3.1,2.8,9.968,9.968,0,0,1-4.519.994A9.138,9.138,0,0,1,5.962.2L5.827.379a12.038,12.038,0,0,0,.9,1.13,2.21,2.21,0,0,1-.9,1.943,5.04,5.04,0,0,1-2.847.633ZM12.56.6A6.626,6.626,0,0,0,16.785-.57a4.085,4.085,0,0,0,1.469-3.389v-7.365a4.023,4.023,0,0,0-1.491-3.321,6.474,6.474,0,0,0-4.157-1.2,6.472,6.472,0,0,0-4.022,1.265A3.714,3.714,0,0,0,6.911-11.55v7.817a3.759,3.759,0,0,0,1.627,3.1A6.43,6.43,0,0,0,12.56.6Z" transform="translate(17.58 28.36)" fill="#c7c7c7"/>
</svg>
