<svg xmlns="http://www.w3.org/2000/svg" width="45.528" height="34.923" viewBox="0 0 45.528 34.923">
  <g id="Group_6786" data-name="Group 6786" transform="translate(-1164.121 -2550)">
    <path id="Icon_feather-cloud" data-name="Icon feather-cloud" d="M16.964,4.5h0A16.95,16.95,0,0,1,33.042,16.1h1.315a11.163,11.163,0,0,1,0,22.326h-17.4A16.961,16.961,0,0,1,16.964,4.5ZM34.356,35.421a8.163,8.163,0,0,0,0-16.326H31.921a1.5,1.5,0,0,1-1.452-1.125A13.96,13.96,0,1,0,16.951,35.421Z" transform="translate(1164.13 2546.501)" fill="#c7c7c7"/>
    <text id="qb" transform="translate(1182 2574)" fill="#c7c7c7" font-size="22" font-family="SegoeUI-Bold, Segoe UI" font-weight="700" letter-spacing="-0.066em"><tspan x="-12" y="0">qb</tspan></text>
  </g>
</svg>
