<svg xmlns="http://www.w3.org/2000/svg" width="38" height="38" viewBox="0 0 38 38">
  <g id="Group_8069" data-name="Group 8069" transform="translate(-20.43 -18.988)">
    <rect id="Rectangle_2886" data-name="Rectangle 2886" width="38" height="38" transform="translate(20.43 18.988)" fill="none"/>
    <g id="Group_8062" data-name="Group 8062" transform="translate(10.148 7.79)">
      <g id="Path_16190" data-name="Path 16190" transform="translate(14.282 14.198)" fill="none">
        <path d="M15.142,0A15.142,15.142,0,1,1,0,15.142,15.142,15.142,0,0,1,15.142,0Z" stroke="none"/>
        <path d="M 15.14157676696777 2.999996185302734 C 11.89844703674316 2.999996185302734 8.84942626953125 4.262947082519531 6.556186676025391 6.556186676025391 C 4.262947082519531 8.84942626953125 2.999996185302734 11.89844703674316 2.999996185302734 15.14157676696777 C 2.999996185302734 18.38470649719238 4.262947082519531 21.4337272644043 6.556186676025391 23.72696685791016 C 8.84942626953125 26.02020645141602 11.89844703674316 27.28315734863281 15.14157676696777 27.28315734863281 C 18.38470649719238 27.28315734863281 21.4337272644043 26.02020645141602 23.72696685791016 23.72696685791016 C 26.02020645141602 21.4337272644043 27.28315734863281 18.38470649719238 27.28315734863281 15.14157676696777 C 27.28315734863281 11.89844703674316 26.02020645141602 8.84942626953125 23.72696685791016 6.556186676025391 C 21.4337272644043 4.262947082519531 18.38470649719238 2.999996185302734 15.14157676696777 2.999996185302734 M 15.14157676696777 -3.814697265625e-06 C 23.50403594970703 -3.814697265625e-06 30.28315734863281 6.779117584228516 30.28315734863281 15.14157676696777 C 30.28315734863281 23.50403594970703 23.50403594970703 30.28315734863281 15.14157676696777 30.28315734863281 C 6.779117584228516 30.28315734863281 -3.814697265625e-06 23.50403594970703 -3.814697265625e-06 15.14157676696777 C -3.814697265625e-06 6.779117584228516 6.779117584228516 -3.814697265625e-06 15.14157676696777 -3.814697265625e-06 Z" stroke="none" fill="#434343"/>
      </g>
      <path id="Path_16194" data-name="Path 16194" d="M-.561,2.3H.646V.17C3.332-.017,4.76-1.649,4.76-3.689,4.76-6.052,3.2-6.9.646-7.293v-3.043a1.722,1.722,0,0,1,1.479,1.6H4.556c-.2-2.193-1.6-3.349-3.91-3.553v-1.53H-.561v1.513c-2.431.17-4,1.615-4,3.57,0,2.244,1.292,3.23,4,3.655V-1.8A1.955,1.955,0,0,1-2.38-3.791H-4.9C-4.76-1.649-3.5-.034-.561.17ZM2.244-3.4c0,.833-.612,1.428-1.6,1.6V-4.9C1.9-4.624,2.244-4.216,2.244-3.4ZM-2.108-8.959c0-.714.544-1.275,1.547-1.411V-7.5C-1.819-7.752-2.108-8.177-2.108-8.959Z" transform="translate(29.282 35.198)" fill="#434343"/>
      <g id="Polygon_5" data-name="Polygon 5" transform="translate(34.897 45.481) rotate(180)" fill="#434343">
        <path d="M 9.568329811096191 7.709000587463379 L 1.378613352775574 7.709000587463379 L 5.473471641540527 1.380582690238953 L 9.568329811096191 7.709000587463379 Z" stroke="none"/>
        <path d="M 5.473471641540527 2.761164665222168 L 2.757225036621094 6.959000587463379 L 8.189718246459961 6.959000587463379 L 5.473471641540527 2.761164665222168 M 5.473471641540527 9.5367431640625e-07 L 10.94694137573242 8.459000587463379 L 1.9073486328125e-06 8.459000587463379 L 5.473471641540527 9.5367431640625e-07 Z" stroke="none" fill="#f8f8f8"/>
      </g>
    </g>
  </g>
</svg>
