<svg width="60" height="60" viewBox="0 0 60 60" fill="none" xmlns="http://www.w3.org/2000/svg">
<g id="Group 27635">
<g id="shield-security">
<path id="Path 16192" d="M29.8987 13.332L43.8001 19.4311V28.5089C43.8142 32.6771 42.4136 36.7317 39.8185 40.0346C37.4274 43.3345 33.9095 45.6867 29.9015 46.6654C25.8923 45.687 22.3732 43.3342 19.9817 40.0333C17.3869 36.7306 15.9863 32.6767 16.0001 28.5089V19.4311L29.8987 13.332ZM29.8987 29.9984V16.6656L19.1148 21.3465V29.9984H29.8987V43.5438C32.7913 42.6139 35.3196 40.8303 37.1372 38.4375C39.088 35.9972 40.3151 33.0776 40.684 29.999L29.8987 29.9984Z" fill="#434343"/>
<path id="Path 51934" d="M29.8906 16.6621L40.6829 20.5726V29.9921L29.9109 29.9709L29.8906 16.6621Z" fill="#FAB737"/>
</g>
</g>
</svg>
