<svg width="33" height="33" viewBox="0 0 33 33" fill="none" xmlns="http://www.w3.org/2000/svg">
<path d="M15.9354 12.0985H17.0349C17.6396 12.0985 18.1343 11.6035 18.1343 10.9985C18.1343 10.3934 17.6396 9.89844 17.0349 9.89844H15.9354C15.3307 9.89844 14.8359 10.3934 14.8359 10.9985C14.8359 11.6035 15.3307 12.0985 15.9354 12.0985Z" fill="#464646"/>
<path d="M10.4688 10.4501V13.2002C10.4688 15.0152 11.953 16.5002 13.7671 16.5002H19.2644C21.0785 16.5002 22.5628 15.0152 22.5628 13.2002V10.4501C22.5628 8.45912 21.5623 6.61109 19.9461 5.50008C20.0231 5.20307 20.089 4.89507 20.089 4.56507V3.08004C20.089 1.38602 18.7037 0 17.0105 0H16.021C14.3279 0 12.9425 1.38602 12.9425 3.08004V4.56507C12.9425 4.88407 12.9975 5.20307 13.0855 5.50008C11.4803 6.62209 10.4688 8.45912 10.4688 10.4501ZM15.1415 3.08004C15.1415 2.59604 15.5373 2.20003 16.021 2.20003H17.0105C17.4943 2.20003 17.8901 2.59604 17.8901 3.08004V4.56507C17.8901 5.32408 17.2744 5.94009 16.5158 5.94009C15.7572 5.94009 15.1415 5.32408 15.1415 4.56507V3.08004ZM12.6677 10.4501C12.6677 9.20713 13.2834 8.05212 14.2839 7.33711C14.8996 7.83211 15.6692 8.14012 16.5158 8.14012C17.3624 8.14012 18.132 7.83211 18.7477 7.33711C19.7482 8.05212 20.3639 9.20713 20.3639 10.4501V13.2002C20.3639 13.8052 19.8691 14.3002 19.2644 14.3002H13.7671C13.1624 14.3002 12.6677 13.8052 12.6677 13.2002V10.4501Z" fill="#464646"/>
<path d="M9.47735 24.2008C9.55431 23.9038 9.62028 23.5958 9.62028 23.2657V21.7807C9.62028 20.0867 8.23496 18.7007 6.54179 18.7007H5.55228C3.85911 18.7007 2.47379 20.0867 2.47379 21.7807V23.2657C2.47379 23.5848 2.52876 23.8928 2.61672 24.2008C1.0115 25.3228 0 27.1598 0 29.1508V29.7008C0 31.5159 1.48427 33.0009 3.29838 33.0009H8.79568C10.6098 33.0009 12.0941 31.5159 12.0941 29.7008V29.1508C12.0941 27.1598 11.0936 25.3118 9.47735 24.2008ZM4.67271 21.7807C4.67271 21.2967 5.06851 20.9007 5.55228 20.9007H6.54179C7.02555 20.9007 7.42136 21.2967 7.42136 21.7807V23.2657C7.42136 24.0248 6.80566 24.6408 6.04703 24.6408C5.2884 24.6408 4.67271 24.0248 4.67271 23.2657V21.7807ZM9.89514 29.7008C9.89514 30.3058 9.40039 30.8009 8.79568 30.8009H3.29838C2.69368 30.8009 2.19892 30.3058 2.19892 29.7008V29.1508C2.19892 27.9078 2.81462 26.7528 3.81513 26.0378C4.43083 26.5328 5.20045 26.8408 6.04703 26.8408C6.89362 26.8408 7.66324 26.5328 8.27894 26.0378C9.27945 26.7528 9.89514 27.9078 9.89514 29.1508V29.7008Z" fill="#464646"/>
<path d="M30.3836 24.2008C30.4606 23.9038 30.5265 23.5958 30.5265 23.2657V21.7807C30.5265 20.0867 29.1412 18.7007 27.448 18.7007H26.4585C24.7654 18.7007 23.38 20.0867 23.38 21.7807V23.2657C23.38 23.5848 23.435 23.8928 23.523 24.2008C21.9178 25.3228 20.9062 27.1598 20.9062 29.1508V29.7008C20.9062 31.5159 22.3905 33.0009 24.2046 33.0009H29.7019C31.516 33.0009 33.0003 31.5159 33.0003 29.7008V29.1508C33.0003 27.1598 31.9998 25.3118 30.3836 24.2008ZM25.579 21.7807C25.579 21.2967 25.9748 20.9007 26.4585 20.9007H27.448C27.9318 20.9007 28.3276 21.2967 28.3276 21.7807V23.2657C28.3276 24.0248 27.7119 24.6408 26.9533 24.6408C26.1947 24.6408 25.579 24.0248 25.579 23.2657V21.7807ZM30.8014 29.7008C30.8014 30.3058 30.3066 30.8009 29.7019 30.8009H24.2046C23.5999 30.8009 23.1052 30.3058 23.1052 29.7008V29.1508C23.1052 27.9078 23.7209 26.7528 24.7214 26.0378C25.3371 26.5328 26.1067 26.8408 26.9533 26.8408C27.7999 26.8408 28.5695 26.5328 29.1852 26.0378C30.1857 26.7528 30.8014 27.9078 30.8014 29.1508V29.7008Z" fill="#464646"/>
<path d="M18.4939 28.4156C17.0316 28.6576 15.9212 28.6576 14.4589 28.4156C13.8432 28.3056 13.2935 28.7236 13.1945 29.3176C13.0956 29.9116 13.5024 30.4836 14.0961 30.5826C14.9537 30.7256 15.7233 30.7916 16.4819 30.7916C17.2405 30.7916 18.0102 30.7256 18.8677 30.5826C19.4614 30.4836 19.8682 29.9116 19.7693 29.3176C19.6703 28.7236 19.1096 28.3166 18.5049 28.4156H18.4939Z" fill="#F6A039"/>
<path d="M3.28696 17.6049C3.89166 17.6049 4.38642 17.1099 4.38642 16.5049C4.38642 12.1818 6.72827 8.15579 10.4884 6.01076C11.0162 5.71375 11.2031 5.04274 10.8952 4.51474C10.5874 3.98673 9.9277 3.79973 9.39996 4.10773C4.94715 6.64877 2.1875 11.4118 2.1875 16.5159C2.1875 17.1209 2.68226 17.6159 3.28696 17.6159V17.6049Z" fill="#F6A039"/>
<path d="M22.4725 6.0032C26.2436 8.15923 28.5745 12.1853 28.5745 16.4973C28.5745 17.1024 29.0692 17.5974 29.6739 17.5974C30.2786 17.5974 30.7734 17.1024 30.7734 16.4973C30.7734 11.3823 28.0137 6.63021 23.5609 4.08917C23.0332 3.79217 22.3625 3.96817 22.0657 4.49618C21.7688 5.02418 21.9447 5.69519 22.4725 5.9922V6.0032Z" fill="#F6A039"/>
</svg>
