<svg width="17" height="20" viewBox="0 0 17 20" fill="none" xmlns="http://www.w3.org/2000/svg">
<g id="shield-check-line" clip-path="url(#clip0_154_78)">
<g id="shield-check-line_2">
<g id="shield">
<g id="Group 8085">
<path id="Path 16199" fill-rule="evenodd" clip-rule="evenodd" d="M2.425 4.849V10.91C2.425 12.5176 3.06362 14.0594 4.20037 15.1961C5.33712 16.3329 6.87889 16.9715 8.4865 16.9715C10.0941 16.9715 11.6359 16.3329 12.7726 15.1961C13.9094 14.0594 14.548 12.5176 14.548 10.91V4.849H2.425ZM0 0H16.972V10.91C16.972 13.1606 16.0779 15.3191 14.4865 16.9105C12.8951 18.5019 10.7366 19.396 8.486 19.396C6.23537 19.396 4.07693 18.5019 2.48549 16.9105C0.894058 15.3191 0 13.1606 0 10.91V0Z" fill="white"/>
</g>
</g>
<path id="Path 16200" d="M5.29889 9.89555C5.11689 9.73955 4.67389 9.85755 4.50489 10.0265C4.42546 10.1388 4.38281 10.273 4.38281 10.4105C4.38281 10.5481 4.42546 10.6823 4.50489 10.7945L7.37189 13.7445L12.5129 8.66555C12.6173 8.55593 12.6747 8.40984 12.6728 8.25848C12.671 8.10711 12.61 7.96246 12.503 7.85542C12.396 7.74838 12.2513 7.68744 12.1 7.68559C11.9486 7.68374 11.8025 7.74115 11.6929 7.84555L7.37089 11.1455L5.29889 9.89555Z" fill="#FDC736"/>
</g>
</g>
<defs>
<clipPath id="clip0_154_78">
<rect width="16.972" height="19.396" fill="white"/>
</clipPath>
</defs>
</svg>
