<svg width="206" height="206" viewBox="0 0 206 206" fill="none" xmlns="http://www.w3.org/2000/svg">
<g id="Group 27574">
<path id="Ellipse 4046" d="M103 176C143.317 176 176 143.317 176 103C176 62.6832 143.317 30 103 30C62.6832 30 30 62.6832 30 103C30 143.317 62.6832 176 103 176Z" fill="#0151C1"/>
<g id="Ellipse 4047" filter="url(#filter0_d_348_197)">
<path d="M103 166C137.794 166 166 137.794 166 103C166 68.2061 137.794 40 103 40C68.2061 40 40 68.2061 40 103C40 137.794 68.2061 166 103 166Z" fill="white"/>
</g>
<g id="cloud-services">
<path id="Path 51884" d="M120.799 94.4795C120.007 90.4061 117.797 86.7316 114.548 84.0888C111.299 81.4459 107.216 80 103 80C98.7844 80 94.7006 81.4459 91.4518 84.0888C88.2031 86.7316 85.9926 90.4061 85.2009 94.4795C81.8566 95.0659 78.857 96.8636 76.7935 99.5182C74.73 102.173 73.7524 105.492 74.0535 108.82C74.3545 112.149 75.9124 115.246 78.4199 117.501C80.9274 119.755 84.2025 121.004 87.5995 121H88.5083L88.4338 116.382H87.6024C82.2241 116.396 79.5074 113.337 79.3237 108.055C79.14 102.772 81.4971 99.0533 86.8647 98.7043H89.301V96.2733C90.1015 89.0382 95.6094 84.5224 103.006 84.5224C110.403 84.5224 115.617 89.0382 116.418 96.2733V98.6995H118.972C124.326 99.0628 127.213 103.543 127.028 108.819C126.844 114.096 123.777 116.381 118.41 116.382H117.504V121H118.41C121.806 121.001 125.08 119.751 127.585 117.496C130.091 115.241 131.647 112.144 131.947 108.816C132.247 105.488 131.268 102.17 129.205 99.5164C127.142 96.8627 124.143 95.0657 120.799 94.4795Z" fill="#464646"/>
<path id="Path 51885" d="M115 116.292V112.716H111.245C111.014 111.598 110.571 110.535 109.938 109.585L112.598 106.924L110.074 104.399L107.416 107.059C106.468 106.427 105.406 105.983 104.29 105.752V102H100.715V105.752C99.5968 105.982 98.5339 106.426 97.5842 107.059L94.9234 104.398L92.3988 106.923L95.0596 109.584C94.4266 110.534 93.9828 111.597 93.7526 112.715H90V116.292H93.7516C93.9819 117.41 94.4257 118.473 95.0587 119.423L92.3979 122.084L94.9225 124.609L97.5833 121.948C98.5338 122.579 99.5971 123.02 100.715 123.248V127H104.29V123.248C105.408 123.018 106.471 122.574 107.421 121.941L110.081 124.602L112.606 122.077L109.945 119.416C110.575 118.467 111.016 117.407 111.245 116.292H115ZM102.5 119.86C101.441 119.86 100.405 119.545 99.5239 118.957C98.6429 118.368 97.9563 117.531 97.5509 116.552C97.1454 115.573 97.0394 114.496 97.2461 113.457C97.4528 112.417 97.9629 111.463 98.7121 110.713C99.4613 109.964 100.416 109.454 101.455 109.247C102.494 109.04 103.571 109.147 104.55 109.552C105.529 109.958 106.365 110.644 106.954 111.525C107.543 112.406 107.857 113.442 107.857 114.502C107.857 115.923 107.292 117.286 106.288 118.29C105.283 119.295 103.921 119.86 102.5 119.86Z" fill="#FAB737"/>
</g>
</g>
<defs>
<filter id="filter0_d_348_197" x="0" y="0" width="206" height="206" filterUnits="userSpaceOnUse" color-interpolation-filters="sRGB">
<feFlood flood-opacity="0" result="BackgroundImageFix"/>
<feColorMatrix in="SourceAlpha" type="matrix" values="0 0 0 0 0 0 0 0 0 0 0 0 0 0 0 0 0 0 127 0" result="hardAlpha"/>
<feOffset/>
<feGaussianBlur stdDeviation="20"/>
<feComposite in2="hardAlpha" operator="out"/>
<feColorMatrix type="matrix" values="0 0 0 0 0 0 0 0 0 0 0 0 0 0 0 0 0 0 0.09 0"/>
<feBlend mode="normal" in2="BackgroundImageFix" result="effect1_dropShadow_348_197"/>
<feBlend mode="normal" in="SourceGraphic" in2="effect1_dropShadow_348_197" result="shape"/>
</filter>
</defs>
</svg>
