<svg width="206" height="206" viewBox="0 0 206 206" fill="none" xmlns="http://www.w3.org/2000/svg">
<g id="Group 27573">
<path id="Ellipse 4046" d="M103 176C143.317 176 176 143.317 176 103C176 62.6832 143.317 30 103 30C62.6832 30 30 62.6832 30 103C30 143.317 62.6832 176 103 176Z" fill="#86B8FF"/>
<g id="Ellipse 4047" filter="url(#filter0_d_348_182)">
<path d="M103 166C137.794 166 166 137.794 166 103C166 68.2061 137.794 40 103 40C68.2061 40 40 68.2061 40 103C40 137.794 68.2061 166 103 166Z" fill="white"/>
</g>
<g id="Group 28339">
<g id="license-solid">
<g id="Group 27568">
<path id="Path 51882" d="M103.814 117.292H78.6317C77.741 117.292 76.8869 116.938 76.2571 116.308C75.6273 115.678 75.2734 114.824 75.2734 113.933V80.3535C75.2737 79.4629 75.6276 78.609 76.2574 77.9794C76.8872 77.3498 77.7412 76.9961 78.6317 76.9961H125.642C126.533 76.9961 127.387 77.3499 128.017 77.9797C128.647 78.6095 129 79.4637 129 80.3544V97.7654C126.764 94.9154 123.51 93.043 119.922 92.5416C116.334 92.0403 112.692 92.9489 109.76 95.0767C106.828 97.2044 104.834 100.386 104.199 103.952C103.563 107.519 104.334 111.193 106.35 114.203L104.789 116.117L103.814 117.292ZM83.6664 87.07V89.7561H112.21V87.07H83.6664ZM83.6664 96.4754H102.136V93.7856H83.6664V96.4754ZM83.6664 108.228H100.457V105.539H83.6664V108.228Z" fill="#464646"/>
<path id="Subtract" fill-rule="evenodd" clip-rule="evenodd" d="M127.451 101.454C128.287 103.015 128.722 104.759 128.717 106.53C128.714 107.973 128.418 109.4 127.846 110.725C127.275 112.05 126.44 113.245 125.393 114.237L128.65 118.216L127.138 124.277L120.993 116.788C119.048 117.363 116.978 117.363 115.033 116.788L108.888 124.277L107.377 118.216L110.634 114.237C109.353 113.014 108.396 111.492 107.848 109.809C107.301 108.125 107.18 106.331 107.497 104.589C107.813 102.847 108.557 101.21 109.662 99.8268C110.767 98.4431 112.198 97.3553 113.827 96.6611C115.456 95.9668 117.232 95.6879 118.995 95.8492C120.758 96.0105 122.454 96.607 123.93 97.5852C125.406 98.5635 126.616 99.8928 127.451 101.454ZM118.146 114.802C122.475 114.802 125.984 111.293 125.984 106.964C125.984 102.635 122.475 99.1262 118.146 99.1262C113.817 99.1262 110.308 102.635 110.308 106.964C110.308 111.293 113.817 114.802 118.146 114.802Z" fill="#FAB737"/>
</g>
</g>
</g>
</g>
<defs>
<filter id="filter0_d_348_182" x="0" y="0" width="206" height="206" filterUnits="userSpaceOnUse" color-interpolation-filters="sRGB">
<feFlood flood-opacity="0" result="BackgroundImageFix"/>
<feColorMatrix in="SourceAlpha" type="matrix" values="0 0 0 0 0 0 0 0 0 0 0 0 0 0 0 0 0 0 127 0" result="hardAlpha"/>
<feOffset/>
<feGaussianBlur stdDeviation="20"/>
<feComposite in2="hardAlpha" operator="out"/>
<feColorMatrix type="matrix" values="0 0 0 0 0 0 0 0 0 0 0 0 0 0 0 0 0 0 0.09 0"/>
<feBlend mode="normal" in2="BackgroundImageFix" result="effect1_dropShadow_348_182"/>
<feBlend mode="normal" in="SourceGraphic" in2="effect1_dropShadow_348_182" result="shape"/>
</filter>
</defs>
</svg>
