<svg width="206" height="206" viewBox="0 0 206 206" fill="none" xmlns="http://www.w3.org/2000/svg">
<g id="Group 27572">
<path id="Ellipse 4046" d="M103 176C143.317 176 176 143.317 176 103C176 62.6832 143.317 30 103 30C62.6832 30 30 62.6832 30 103C30 143.317 62.6832 176 103 176Z" fill="#CEE2FF"/>
<g id="Ellipse 4047" filter="url(#filter0_d_348_167)">
<path d="M103 166C137.794 166 166 137.794 166 103C166 68.2061 137.794 40 103 40C68.2061 40 40 68.2061 40 103C40 137.794 68.2061 166 103 166Z" fill="white"/>
</g>
<g id="Group 28338">
<g id="headphonesalt">
<g id="Group 27567">
<path id="Path 51881" d="M122.638 119.723H117.561C117.114 119.717 116.687 119.537 116.371 119.221C116.054 118.905 115.874 118.478 115.868 118.03V101.106C115.875 100.66 116.056 100.234 116.372 99.919C116.688 99.6039 117.115 99.4243 117.561 99.4183H119.254C119.254 94.1997 117.8 90.0743 114.891 87.0423C111.983 84.0103 107.795 82.4923 102.328 82.4883C96.8615 82.4883 92.6742 84.0047 89.7662 87.0373C86.8582 90.07 85.4039 94.197 85.4032 99.4183H87.0962C87.5434 99.4243 87.9705 99.6046 88.2867 99.9208C88.603 100.237 88.7832 100.664 88.7892 101.111V118.031C88.7832 118.479 88.603 118.906 88.2867 119.222C87.9705 119.538 87.5434 119.718 87.0962 119.724H85.4032C85.4037 121.52 86.1172 123.241 87.3867 124.511C88.6562 125.78 90.3778 126.494 92.1732 126.494H95.5582C95.5523 126.048 95.6359 125.604 95.8042 125.191C95.9726 124.777 96.2221 124.401 96.5381 124.085C96.8542 123.77 97.2303 123.521 97.6442 123.353C98.0582 123.185 98.5016 123.102 98.9482 123.108H102.328C102.772 123.102 103.213 123.185 103.624 123.352C104.036 123.518 104.41 123.765 104.726 124.078C105.041 124.39 105.29 124.763 105.46 125.173C105.63 125.583 105.716 126.023 105.713 126.467C105.72 126.914 105.637 127.357 105.469 127.77C105.301 128.184 105.051 128.559 104.735 128.874C104.426 129.199 104.052 129.456 103.637 129.628C103.223 129.8 102.777 129.884 102.328 129.874H92.1732C90.8359 129.899 89.5078 129.649 88.2707 129.141C87.0336 128.633 85.9137 127.876 84.9802 126.918C84.0211 125.985 83.2634 124.865 82.7539 123.628C82.2445 122.39 81.9941 121.061 82.0182 119.723C80.1515 119.723 78.5559 118.736 77.2312 116.761C75.8609 114.618 75.1698 112.111 75.2482 109.568C75.2303 107.832 75.5446 106.108 76.1742 104.49C76.6863 103.093 77.5301 101.841 78.6332 100.841V99.4183C78.6245 96.2556 79.2637 93.1246 80.5112 90.2183C81.6804 87.3883 83.3964 84.8168 85.5609 82.6509C87.7254 80.485 90.2959 78.7674 93.1252 77.5963C96.0352 76.3574 99.1654 75.7188 102.328 75.7188C105.491 75.7188 108.621 76.3574 111.531 77.5963C114.36 78.7661 116.931 80.4824 119.096 82.6468C121.261 84.8113 122.978 87.3815 124.148 90.2103C125.396 93.1166 126.035 96.2476 126.026 99.4103V100.838C127.129 101.838 127.973 103.09 128.485 104.487C129.115 106.105 129.429 107.829 129.411 109.565C129.49 112.108 128.798 114.615 127.428 116.758C126.104 118.735 124.507 119.723 122.638 119.723Z" fill="#464646"/>
<path id="Rectangle 44104" d="M102.5 123H98.5C96.567 123 95 124.567 95 126.5C95 128.433 96.567 130 98.5 130H102.5C104.433 130 106 128.433 106 126.5C106 124.567 104.433 123 102.5 123Z" fill="#FAB737"/>
</g>
</g>
</g>
</g>
<defs>
<filter id="filter0_d_348_167" x="0" y="0" width="206" height="206" filterUnits="userSpaceOnUse" color-interpolation-filters="sRGB">
<feFlood flood-opacity="0" result="BackgroundImageFix"/>
<feColorMatrix in="SourceAlpha" type="matrix" values="0 0 0 0 0 0 0 0 0 0 0 0 0 0 0 0 0 0 127 0" result="hardAlpha"/>
<feOffset/>
<feGaussianBlur stdDeviation="20"/>
<feComposite in2="hardAlpha" operator="out"/>
<feColorMatrix type="matrix" values="0 0 0 0 0 0 0 0 0 0 0 0 0 0 0 0 0 0 0.09 0"/>
<feBlend mode="normal" in2="BackgroundImageFix" result="effect1_dropShadow_348_167"/>
<feBlend mode="normal" in="SourceGraphic" in2="effect1_dropShadow_348_167" result="shape"/>
</filter>
</defs>
</svg>
