<svg width="60" height="60" viewBox="0 0 60 60" fill="none" xmlns="http://www.w3.org/2000/svg">
<g id="Group 7357">
<g id="24-support_linear">
<path id="Path 14675" fill-rule="evenodd" clip-rule="evenodd" d="M20.2834 14.3625C19.7957 14.3588 19.3122 14.4513 18.8603 14.6347C18.4085 14.8181 17.9972 15.0887 17.6501 15.4312C17.303 15.7737 17.0268 16.1813 16.8373 16.6306C16.6479 17.0799 16.5489 17.5622 16.546 18.0498V36.1725C16.5492 36.66 16.6484 37.142 16.8379 37.5911C17.0275 38.0402 17.3037 38.4475 17.6508 38.7898C17.9979 39.1321 18.4091 39.4026 18.8608 39.5858C19.3125 39.7691 19.7959 39.8615 20.2834 39.8578H21.5294C23.1772 39.8554 24.759 40.5052 25.9294 41.6652L28.764 44.4652C29.1588 44.8496 29.688 45.0648 30.239 45.0648C30.79 45.0648 31.3193 44.8496 31.714 44.4652M31.714 44.4652L34.5494 41.6652C35.1279 41.0894 35.8144 40.6335 36.5694 40.3234C37.3244 40.0132 38.1331 39.855 38.9494 39.8578H40.212C41.1959 39.8623 42.1416 39.4768 42.842 38.7858C43.5424 38.0947 43.9405 37.1544 43.9494 36.1705V18.0505C43.9465 17.5629 43.8475 17.0806 43.658 16.6313C43.4686 16.1819 43.1924 15.7744 42.8453 15.4319C42.4981 15.0894 42.0869 14.8187 41.635 14.6353C41.1832 14.452 40.6996 14.3595 40.212 14.3632H20.2787M14.0547 18.0505C14.0574 17.2356 14.2207 16.4293 14.5353 15.6776C14.8499 14.9259 15.3096 14.2435 15.8881 13.6696C16.4665 13.0957 17.1525 12.6415 17.9067 12.3329C18.6609 12.0243 19.4685 11.8674 20.2834 11.8712H40.2167C41.0316 11.8674 41.8392 12.0243 42.5934 12.3329C43.3475 12.6415 44.0335 13.0957 44.612 13.6696C45.1905 14.2435 45.6502 14.9259 45.9647 15.6776C46.2793 16.4293 46.4426 17.2356 46.4454 18.0505V36.1725C46.4367 37.8172 45.7761 39.3914 44.6085 40.5498C43.4408 41.7082 41.8615 42.3563 40.2167 42.3518H38.954C38.4644 42.349 37.9791 42.443 37.5259 42.6284C37.0728 42.8137 36.6607 43.0867 36.3134 43.4318L36.308 43.4372L33.468 46.2445C32.6069 47.0897 31.4486 47.5632 30.242 47.5632C29.0355 47.5632 27.8771 47.0897 27.016 46.2445L24.1754 43.4365L24.17 43.4312C23.4668 42.7369 22.5176 42.3487 21.5294 42.3512H20.2834C19.4685 42.3549 18.661 42.1981 17.9068 41.8895C17.1527 41.5809 16.4668 41.1268 15.8883 40.5529C15.3098 39.9791 14.8501 39.2968 14.5355 38.5452C14.2209 37.7936 14.0575 36.9873 14.0547 36.1725V18.0505Z" fill="#434343"/>
<path id="Path 14676" fill-rule="evenodd" clip-rule="evenodd" d="M24.7519 23.4311C24.3384 23.433 23.9424 23.5982 23.65 23.8906C23.3576 24.1829 23.1925 24.579 23.1906 24.9925C23.183 25.3178 23.0485 25.6274 22.8157 25.8548C22.5829 26.0823 22.2704 26.2096 21.9449 26.2096C21.6194 26.2096 21.3069 26.0823 21.0741 25.8548C20.8413 25.6274 20.7067 25.3178 20.6992 24.9925C20.6992 24.4602 20.8041 23.9332 21.0077 23.4414C21.2114 22.9497 21.51 22.5029 21.8863 22.1265C22.2627 21.7502 22.7095 21.4517 23.2012 21.248C23.6929 21.0443 24.22 20.9395 24.7522 20.9395C25.2845 20.9395 25.8115 21.0443 26.3032 21.248C26.795 21.4517 27.2418 21.7502 27.6181 22.1265C27.9945 22.5029 28.293 22.9497 28.4967 23.4414C28.7004 23.9332 28.8052 24.4602 28.8052 24.9925C28.8052 27.2785 27.1059 28.4791 25.9246 29.2898L25.7572 29.4045C24.6752 30.1458 23.9052 30.6711 23.5046 31.4045H27.5592C27.7252 31.4006 27.8903 31.43 28.0448 31.4909C28.1993 31.5517 28.3401 31.6429 28.4588 31.7589C28.5776 31.875 28.672 32.0136 28.7364 32.1666C28.8008 32.3197 28.834 32.4841 28.834 32.6501C28.834 32.8162 28.8008 32.9806 28.7364 33.1336C28.672 33.2866 28.5776 33.4253 28.4588 33.5413C28.3401 33.6574 28.1993 33.7485 28.0448 33.8094C27.8903 33.8702 27.7252 33.8996 27.5592 33.8958H23.1079C22.7596 33.8998 22.4153 33.8217 22.1028 33.6679C21.7904 33.5141 21.5185 33.2888 21.3093 33.0104C21.1 32.732 20.9593 32.4082 20.8985 32.0652C20.8377 31.7223 20.8585 31.3699 20.9592 31.0365V31.0305C21.5526 29.2305 23.1079 28.1825 24.2086 27.4411C24.3146 27.3698 24.4159 27.3011 24.5126 27.2351C25.7939 26.3558 26.3126 25.8291 26.3126 24.9918C26.3105 24.5785 26.1453 24.1828 25.8531 23.8906C25.5609 23.5983 25.1652 23.4332 24.7519 23.4311Z" fill="#FAB737"/>
<path id="Path 14677" fill-rule="evenodd" clip-rule="evenodd" d="M34.1173 21.9647C34.3751 21.5616 34.7556 21.2521 35.2028 21.0817C35.6499 20.9114 36.14 20.8893 36.6006 21.0187C37.0642 21.1498 37.4722 21.4289 37.7624 21.8134C38.0526 22.198 38.2091 22.6669 38.2079 23.1487V28.9954H38.5566C38.7226 28.9915 38.8877 29.0209 39.0422 29.0818C39.1967 29.1427 39.3375 29.2338 39.4562 29.3499C39.575 29.4659 39.6694 29.6045 39.7338 29.7576C39.7982 29.9106 39.8314 30.075 39.8314 30.2411C39.8314 30.4071 39.7982 30.5715 39.7338 30.7245C39.6694 30.8776 39.575 31.0162 39.4562 31.1322C39.3375 31.2483 39.1967 31.3394 39.0422 31.4003C38.8877 31.4612 38.7226 31.4906 38.5566 31.4867H38.2079V32.6327C38.2118 32.7987 38.1824 32.9638 38.1215 33.1183C38.0607 33.2728 37.9695 33.4136 37.8535 33.5323C37.7374 33.6511 37.5988 33.7455 37.4458 33.8099C37.2927 33.8743 37.1283 33.9075 36.9623 33.9075C36.7962 33.9075 36.6319 33.8743 36.4788 33.8099C36.3258 33.7455 36.1871 33.6511 36.0711 33.5323C35.955 33.4136 35.8639 33.2728 35.803 33.1183C35.7422 32.9638 35.7128 32.7987 35.7166 32.6327V31.4867H32.4613C32.0584 31.4897 31.6619 31.3861 31.3119 31.1864C30.962 30.9867 30.6712 30.6979 30.4689 30.3495C30.2666 30.001 30.1601 29.6053 30.1602 29.2024C30.1602 28.7995 30.2669 28.4038 30.4693 28.0554L30.4726 28.0494C31.6059 26.1214 32.9053 23.9161 34.1099 21.9761L34.1173 21.9641V21.9647ZM35.7173 28.9954V24.1187C34.7439 25.7094 33.7286 27.4254 32.8073 28.9954H35.7173Z" fill="#FAB737"/>
</g>
</g>
</svg>
