<svg width="20" height="20" viewBox="0 0 20 20" fill="none" xmlns="http://www.w3.org/2000/svg">
<g id="UpTime,Qbooks" clip-path="url(#clip0_118_39)">
<path id="Union 2" d="M2.7448e-05 11.7121C-0.0051443 9.72093 0.720687 7.79448 2.04468 6.28536C3.36868 4.77625 5.20229 3.78539 7.20993 3.49414L9.95569 3.70414C9.98729 3.72914 8.40547 5.87314 8.41159 5.81514C6.81107 5.81514 5.27611 6.43896 4.14437 7.54936C3.01263 8.65977 2.37683 10.1658 2.37683 11.7361C2.37683 13.3065 3.01263 14.8125 4.14437 15.9229C5.27611 17.0333 6.81107 17.6571 8.41159 17.6571C9.63947 17.669 10.8408 17.3064 11.8496 16.6194C12.8583 15.9324 13.6247 14.955 14.0427 13.8221C14.0825 13.8221 16.5612 13.8941 16.5245 13.9061C16.0316 15.6494 14.9729 17.1876 13.5089 18.2874C12.0449 19.3873 10.2554 19.9889 8.41159 20.0011C6.17659 19.994 4.03575 19.1172 2.4588 17.5633C0.881849 16.0093 -0.00241379 13.905 2.7448e-05 11.7121Z" fill="white"/>
<path id="Union 3" d="M8.4516 12.6363C8.36217 12.6361 8.27481 12.61 8.20053 12.5611C8.12625 12.5122 8.06839 12.4429 8.03426 12.3618C8.00013 12.2807 7.99125 12.1915 8.00875 12.1054C8.02625 12.0194 8.06934 11.9403 8.13259 11.8783L10.2362 9.80431C10.2781 9.76306 10.3278 9.73035 10.3825 9.70804C10.4373 9.68573 10.496 9.67426 10.5553 9.67431H13.7087V5.92431H11.3054C11.1295 5.92347 10.9577 5.87244 10.8109 5.77743C10.6641 5.68243 10.5486 5.54755 10.4786 5.38926C10.4086 5.23098 10.387 5.05612 10.4166 4.88601C10.4461 4.71591 10.5255 4.55792 10.6449 4.43131L14.5495 0.286305C14.6337 0.196086 14.736 0.124039 14.8501 0.0747471C14.9641 0.0254555 15.0874 0 15.212 0C15.3367 0 15.4599 0.0254555 15.574 0.0747471C15.688 0.124039 15.7904 0.196086 15.8745 0.286305L19.7791 4.43131C19.8986 4.55792 19.978 4.71591 20.0075 4.88601C20.037 5.05612 20.0155 5.23098 19.9455 5.38926C19.8754 5.54755 19.76 5.68243 19.6132 5.77743C19.4664 5.87244 19.2945 5.92347 19.1187 5.92431H16.7123V11.7473C16.7126 11.8637 16.6895 11.9789 16.6444 12.0865C16.5992 12.1941 16.5329 12.2919 16.4493 12.3744C16.3656 12.4568 16.2662 12.5223 16.1568 12.5671C16.0473 12.6119 15.9299 12.635 15.8113 12.6353L8.4516 12.6363Z" fill="#FDC736"/>
</g>
<defs>
<clipPath id="clip0_118_39">
<rect width="20" height="20" fill="white"/>
</clipPath>
</defs>
</svg>
