<svg width="31" height="37" viewBox="0 0 31 37" fill="none" xmlns="http://www.w3.org/2000/svg">
<g id="shield-check-line" clip-path="url(#clip0_2467_653)">
<path id="Vector" d="M25.6243 17.3379C24.8953 17.3371 24.1777 17.5202 23.5373 17.8705C23.3459 17.275 23.0303 16.7273 22.6117 16.2642C22.193 15.8011 21.6809 15.4332 21.1096 15.185C20.5382 14.9369 19.9208 14.8142 19.2985 14.8251C18.6762 14.8361 18.0634 14.9805 17.501 15.2486V10.4259C17.501 9.25934 17.0402 8.14055 16.2199 7.31566C15.3996 6.49076 14.287 6.02734 13.1269 6.02734C11.9669 6.02734 10.8543 6.49076 10.034 7.31566C9.21369 8.14055 8.75285 9.25934 8.75285 10.4259V22.9933L8.1561 22.0303C7.57254 21.0218 6.6145 20.2878 5.49273 19.9896C4.37097 19.6915 3.17738 19.8537 2.17453 20.4405C1.17168 21.0273 0.441726 21.9907 0.145245 23.1188C-0.151235 24.2468 0.0100459 25.4471 0.593608 26.4556L5.17391 34.3101C5.25072 34.4631 5.35784 34.5987 5.48868 34.7085C5.61952 34.8183 5.77131 34.9001 5.93472 34.9487C6.09814 34.9974 6.26972 35.0119 6.43892 34.9914C6.60812 34.9709 6.77136 34.9158 6.91861 34.8296C7.06587 34.7433 7.19402 34.6276 7.29519 34.4897C7.39636 34.3518 7.46841 34.1946 7.50692 34.0276C7.54542 33.8607 7.54956 33.6876 7.51909 33.519C7.48861 33.3503 7.42417 33.1898 7.32971 33.0471L2.7541 25.1925C2.62564 24.978 2.54098 24.7398 2.50507 24.492C2.46917 24.2442 2.48273 23.9916 2.54497 23.7491C2.60721 23.5066 2.71688 23.279 2.86757 23.0796C3.01827 22.8802 3.20696 22.713 3.42264 22.5878C3.63831 22.4625 3.87665 22.3817 4.12371 22.3502C4.37078 22.3186 4.62163 22.3368 4.8616 22.4038C5.10158 22.4708 5.32587 22.5852 5.52139 22.7404C5.7169 22.8955 5.8797 23.0883 6.0003 23.3074L6.02217 23.3436L8.94031 28.0563C9.08359 28.2888 9.29837 28.4679 9.55207 28.5665C9.80576 28.6651 10.0845 28.6778 10.346 28.6026C10.6075 28.5275 10.8375 28.3686 11.0011 28.1501C11.1647 27.9315 11.2529 27.6653 11.2523 27.3918V10.4259C11.2523 9.92595 11.4498 9.44647 11.8014 9.09294C12.153 8.73942 12.6298 8.54081 13.1269 8.54081C13.6241 8.54081 14.1009 8.73942 14.4525 9.09294C14.8041 9.44647 15.0016 9.92595 15.0016 10.4259V21.1082C15.0016 21.4415 15.1332 21.7611 15.3676 21.9968C15.602 22.2325 15.9198 22.3649 16.2513 22.3649C16.5827 22.3649 16.9006 22.2325 17.135 21.9968C17.3694 21.7611 17.501 21.4415 17.501 21.1082V19.2231C17.501 18.7231 17.6985 18.2436 18.0501 17.8901C18.4017 17.5366 18.8785 17.3379 19.3756 17.3379C19.8728 17.3379 20.3496 17.5366 20.7012 17.8901C21.0527 18.2436 21.2503 18.7231 21.2503 19.2231V22.3649C21.2503 22.6982 21.3819 23.0178 21.6163 23.2535C21.8507 23.4892 22.1685 23.6216 22.5 23.6216C22.8314 23.6216 23.1493 23.4892 23.3837 23.2535C23.6181 23.0178 23.7497 22.6982 23.7497 22.3649V21.7365C23.7497 21.2366 23.9472 20.7571 24.2988 20.4036C24.6504 20.05 25.1272 19.8514 25.6243 19.8514C26.1215 19.8514 26.5983 20.05 26.9499 20.4036C27.3015 20.7571 27.499 21.2366 27.499 21.7365V27.3918C27.499 30.7866 26.3898 33.0943 26.3804 33.1131C26.2324 33.4112 26.2081 33.7563 26.313 34.0723C26.4179 34.3884 26.6433 34.6497 26.9397 34.7987C27.1131 34.8869 27.3047 34.9326 27.499 34.9322C27.7311 34.9324 27.9588 34.8675 28.1563 34.7449C28.3539 34.6222 28.5136 34.4467 28.6175 34.2379C28.6753 34.1232 30 31.4102 30 27.3918V21.7365C30 21.1588 29.8868 20.5867 29.6669 20.0529C29.447 19.5191 29.1246 19.0342 28.7183 18.6257C28.312 18.2172 27.8296 17.8933 27.2987 17.6723C26.7678 17.4514 26.1989 17.3377 25.6243 17.3379Z" fill="#464646"/>
<path id="Vector_2" d="M3.75391 10.4255C3.75391 7.9257 4.74142 5.52829 6.49921 3.76067C8.257 1.99304 10.6411 1 13.127 1C15.6128 1 17.9969 1.99304 19.7547 3.76067C21.5125 5.52829 22.5 7.9257 22.5 10.4255C22.5 10.7588 22.3683 11.0785 22.134 11.3141C21.8996 11.5498 21.5817 11.6822 21.2503 11.6822C20.9188 11.6822 20.6009 11.5498 20.3666 11.3141C20.1322 11.0785 20.0005 10.7588 20.0005 10.4255C20.0005 8.59232 19.2764 6.83422 17.9873 5.53796C16.6983 4.2417 14.9499 3.51347 13.127 3.51347C11.304 3.51347 9.55566 4.2417 8.26661 5.53796C6.97757 6.83422 6.25339 8.59232 6.25339 10.4255C6.25339 10.7588 6.12172 11.0785 5.88735 11.3141C5.65297 11.5498 5.3351 11.6822 5.00365 11.6822C4.67219 11.6822 4.35432 11.5498 4.11995 11.3141C3.88558 11.0785 3.75391 10.7588 3.75391 10.4255Z" fill="#FAB737"/>
</g>
<defs>
<clipPath id="clip0_2467_653">
<rect width="31" height="37" fill="white"/>
</clipPath>
</defs>
</svg>
