<svg width="60" height="60" viewBox="0 0 60 60" fill="none" xmlns="http://www.w3.org/2000/svg">
<g clip-path="url(#clip0_2340_670)">
<path fill-rule="evenodd" clip-rule="evenodd" d="M19.4294 15.5V33.812C19.4294 36.8787 20.5958 38.8198 22.6721 40.9883C24.7485 43.1568 27.5646 44.375 30.5009 44.375C33.4373 44.375 36.2534 43.1568 38.3297 40.9883C40.406 38.8198 41.5725 36.8787 41.5725 33.812V15.5H19.4294ZM15 12H46V33.812C46 38.1053 44.367 41.2228 41.4602 44.2586C38.5533 47.2945 34.6109 49 30.5 49C26.3891 49 22.4467 47.2945 19.5398 44.2586C16.633 41.2228 15 38.1053 15 33.812V12Z" fill="#464646"/>
<path d="M24.6771 27.876C24.3447 27.5784 23.5356 27.8035 23.2269 28.1259C23.0818 28.3401 23.0039 28.596 23.0039 28.8584C23.0039 29.1208 23.0818 29.3767 23.2269 29.5909L28.4636 35.2184L37.8538 25.5296C38.0445 25.3205 38.1493 25.0418 38.146 24.7531C38.1426 24.4643 38.0313 24.1884 37.8358 23.9842C37.6402 23.78 37.376 23.6638 37.0996 23.6602C36.8231 23.6567 36.5563 23.7662 36.356 23.9654L28.4617 30.2605L24.6771 27.876Z" fill="#FAB737"/>
</g>
<defs>
<clipPath id="clip0_2340_670">
<rect width="31" height="37" fill="white" transform="translate(15 12)"/>
</clipPath>
</defs>
</svg>
