<svg width="30" height="30" viewBox="0 0 30 30" fill="none" xmlns="http://www.w3.org/2000/svg">
<g id="Group 13781" clip-path="url(#clip0_2467_661)">
<g id="Group 13781_2">
<g id="collaborate">
<path id="Path 50609" d="M4.28803 20.3562V19.2852H2.14453V20.3562C2.14453 22.3453 2.93471 24.2529 4.34123 25.6595C5.74775 27.066 7.65541 27.8562 9.64453 27.8562H12.859V25.7142H9.64453C8.2239 25.7142 6.86145 25.1498 5.85691 24.1453C4.85237 23.1407 4.28803 21.7768 4.28803 20.3562Z" fill="#FAB737"/>
<path id="Path 50610" d="M23.571 9.64453V10.7155H25.7145V9.64453C25.7145 7.65541 24.9243 5.74775 23.5178 4.34123C22.1113 2.93471 20.2036 2.14453 18.2145 2.14453H15V4.28803H18.2145C19.6351 4.28803 20.9976 4.85237 22.0021 5.85691C23.0067 6.86145 23.571 8.2239 23.571 9.64453Z" fill="#FAB737"/>
<path id="Path 50611" d="M9.6435 9.64453H3.2145C2.36196 9.64453 1.54434 9.9832 0.941505 10.586C0.338669 11.1889 0 12.0065 0 12.859V15.0025H2.1435V12.859C2.1435 12.7184 2.1712 12.5791 2.22502 12.4492C2.27885 12.3192 2.35774 12.2012 2.45719 12.1017C2.55664 12.0023 2.67471 11.9234 2.80465 11.8696C2.93459 11.8157 3.07385 11.788 3.2145 11.788H9.6435C9.92755 11.788 10.2 11.9009 10.4008 12.1017C10.6017 12.3026 10.7145 12.575 10.7145 12.859V15.0025H12.858V12.859C12.858 12.0065 12.5193 11.1889 11.9165 10.586C11.3137 9.9832 10.496 9.64453 9.6435 9.64453Z" fill="#464646"/>
<path id="Path 50612" d="M6.43003 8.571C7.27762 8.571 8.10618 8.31966 8.81093 7.84877C9.51567 7.37787 10.065 6.70856 10.3893 5.92549C10.7137 5.14242 10.7985 4.28075 10.6332 3.44944C10.4678 2.61814 10.0597 1.85453 9.46034 1.2552C8.861 0.655858 8.0974 0.247704 7.26609 0.0823466C6.43479 -0.0830104 5.57311 0.00185689 4.79004 0.326216C4.00697 0.650576 3.33766 1.19986 2.86677 1.90461C2.39587 2.60935 2.14453 3.43791 2.14453 4.2855C2.14453 5.42209 2.59604 6.51212 3.39972 7.31581C4.20341 8.1195 5.29345 8.571 6.43003 8.571ZM6.43003 2.142C6.85404 2.14171 7.26861 2.26717 7.6213 2.50252C7.974 2.73787 8.24897 3.07253 8.41144 3.46418C8.5739 3.85583 8.61656 4.28686 8.53403 4.70276C8.45149 5.11865 8.24746 5.50073 7.94774 5.80065C7.64803 6.10058 7.2661 6.30488 6.85026 6.38771C6.43442 6.47053 6.00336 6.42817 5.6116 6.26598C5.21984 6.10379 4.88498 5.82905 4.64938 5.47652C4.41378 5.12399 4.28803 4.70951 4.28803 4.2855C4.28843 3.71753 4.51423 3.17294 4.91585 2.77132C5.31746 2.3697 5.86206 2.1424 6.43003 2.142Z" fill="#464646"/>
<path id="Path 50613" d="M26.788 24.6445H20.359C19.9369 24.6445 19.5189 24.7277 19.1289 24.8892C18.7389 25.0508 18.3845 25.2875 18.086 25.586C17.7875 25.8845 17.5508 26.2389 17.3892 26.6289C17.2277 27.0189 17.1445 27.4369 17.1445 27.859V30.0025H19.288V27.859C19.288 27.575 19.4009 27.3026 19.6017 27.1017C19.8026 26.9009 20.075 26.788 20.359 26.788H26.788C27.0721 26.788 27.3445 26.9009 27.5453 27.1017C27.7462 27.3026 27.859 27.575 27.859 27.859V30.0025H30.0025V27.859C30.0025 27.4369 29.9194 27.0189 29.7578 26.6289C29.5963 26.2389 29.3595 25.8845 29.061 25.586C28.7625 25.2875 28.4082 25.0508 28.0182 24.8892C27.6282 24.7277 27.2102 24.6445 26.788 24.6445Z" fill="#464646"/>
<path id="Path 50614" d="M19.2832 19.2855C19.2832 20.1331 19.5345 20.9616 20.0054 21.6664C20.4763 22.3711 21.1456 22.9204 21.9287 23.2448C22.7118 23.5691 23.5735 23.654 24.4048 23.4887C25.2361 23.3233 25.9997 22.9151 26.599 22.3158C27.1983 21.7165 27.6065 20.9529 27.7719 20.1216C27.9372 19.2903 27.8524 18.4286 27.528 17.6455C27.2036 16.8624 26.6543 16.1931 25.9496 15.7222C25.2449 15.2513 24.4163 15 23.5687 15C22.4321 15 21.3421 15.4515 20.5384 16.2552C19.7347 17.0589 19.2832 18.1489 19.2832 19.2855ZM25.7122 19.2855C25.7122 19.7094 25.5865 20.1239 25.351 20.4764C25.1154 20.8289 24.7807 21.1036 24.389 21.2658C23.9973 21.4281 23.5663 21.4705 23.1505 21.3878C22.7347 21.3051 22.3528 21.101 22.053 20.8012C21.7532 20.5014 21.5491 20.1195 21.4664 19.7037C21.3837 19.2879 21.4261 18.8569 21.5884 18.4652C21.7506 18.0735 22.0253 17.7388 22.3778 17.5032C22.7303 17.2677 23.1448 17.142 23.5687 17.142C24.1372 17.142 24.6824 17.3678 25.0844 17.7698C25.4864 18.1718 25.7122 18.717 25.7122 19.2855Z" fill="#464646"/>
</g>
</g>
</g>
<defs>
<clipPath id="clip0_2467_661">
<rect width="30" height="30" fill="white"/>
</clipPath>
</defs>
</svg>
