<svg width="31" height="34" viewBox="0 0 31 34" fill="none" xmlns="http://www.w3.org/2000/svg">
<g id="24-support_linear">
<path id="Path 14675" fill-rule="evenodd" clip-rule="evenodd" d="M5.874 2.34906C5.41412 2.34577 4.9581 2.43314 4.532 2.60618C4.10591 2.77922 3.71809 3.03454 3.39072 3.35755C3.06335 3.68055 2.80285 4.0649 2.62411 4.48864C2.44536 4.91237 2.35188 5.36718 2.349 5.82706V22.9151C2.35201 23.3748 2.44556 23.8294 2.6243 24.2529C2.80304 24.6765 3.06347 25.0607 3.39072 25.3836C3.71797 25.7065 4.10562 25.9617 4.53154 26.1348C4.95745 26.3078 5.41329 26.3952 5.873 26.3921H7.048C8.60121 26.3887 10.0927 26.9998 11.197 28.0921L13.87 30.7341C14.2422 31.0968 14.7413 31.2998 15.261 31.2998C15.7807 31.2998 16.2798 31.0968 16.652 30.7341M16.652 30.7341L19.326 28.0921C19.8719 27.55 20.5194 27.1208 21.2313 26.8291C21.9432 26.5374 22.7056 26.3889 23.475 26.3921H24.665C25.5928 26.3963 26.4845 26.0329 27.145 25.3812C27.8054 24.7296 28.1808 23.8428 28.189 22.9151V5.82706C28.186 5.36735 28.0924 4.91273 27.9137 4.48918C27.735 4.06562 27.4745 3.68143 27.1473 3.35855C26.82 3.03566 26.4324 2.78041 26.0065 2.60737C25.5805 2.43434 25.1247 2.3469 24.665 2.35006H5.865M0 5.82706C0.00262027 5.05863 0.156686 4.29825 0.453388 3.58941C0.75009 2.88056 1.18361 2.23715 1.72915 1.69597C2.2747 1.15479 2.92157 0.726458 3.63277 0.43546C4.34398 0.144462 5.10557 -0.00349041 5.874 6.25024e-05H24.674C25.4424 -0.00349041 26.204 0.144462 26.9152 0.43546C27.6264 0.726458 28.2733 1.15479 28.8188 1.69597C29.3644 2.23715 29.7979 2.88056 30.0946 3.58941C30.3913 4.29825 30.5454 5.05863 30.548 5.82706V22.9151C30.5398 24.4661 29.9168 25.9506 28.8156 27.0429C27.7145 28.1353 26.2251 28.7463 24.674 28.7421H23.484C23.0223 28.7393 22.5645 28.8279 22.1372 29.0028C21.7098 29.1776 21.3213 29.4354 20.994 29.7611L18.316 32.4081C17.504 33.205 16.4117 33.6514 15.274 33.6514C14.1363 33.6514 13.044 33.205 12.232 32.4081L9.553 29.7601C8.88994 29.1052 7.99493 28.7389 7.063 28.7411H5.874C5.10566 28.7446 4.34415 28.5967 3.633 28.3058C2.92186 28.0148 2.27504 27.5866 1.72951 27.0455C1.18397 26.5044 0.750435 25.8611 0.453675 25.1524C0.156914 24.4437 0.00275139 23.6834 0 22.9151V5.82706Z" fill="#434343"/>
<path id="Path 14676" fill-rule="evenodd" clip-rule="evenodd" d="M10.0866 10.9008C9.69679 10.9026 9.32345 11.0583 9.0478 11.334C8.77214 11.6096 8.61647 11.9829 8.61462 12.3728C8.60571 12.6783 8.47806 12.9684 8.25877 13.1814C8.03948 13.3944 7.74582 13.5135 7.44012 13.5135C7.13443 13.5135 6.84077 13.3944 6.62148 13.1814C6.40219 12.9684 6.27454 12.6783 6.26563 12.3728C6.26562 11.8709 6.36448 11.3739 6.55656 10.9102C6.74863 10.4465 7.03016 10.0251 7.38506 9.67022C7.73997 9.31531 8.1613 9.03379 8.62501 8.84171C9.08872 8.64964 9.58571 8.55078 10.0876 8.55078C10.5895 8.55078 11.0865 8.64964 11.5502 8.84171C12.0139 9.03379 12.4353 9.31531 12.7902 9.67022C13.1451 10.0251 13.4266 10.4465 13.6187 10.9102C13.8108 11.3739 13.9096 11.8709 13.9096 12.3728C13.9096 14.5278 12.3096 15.6608 11.1926 16.4248L11.0346 16.5328C10.1943 16.9944 9.46842 17.639 8.91062 18.4188H12.7346C13.0402 18.4277 13.3302 18.5553 13.5432 18.7746C13.7562 18.9939 13.8753 19.2876 13.8753 19.5933C13.8753 19.899 13.7562 20.1926 13.5432 20.4119C13.3302 20.6312 13.0402 20.7589 12.7346 20.7678H8.53463C8.20585 20.7716 7.88079 20.6979 7.58584 20.5526C7.29088 20.4073 7.03432 20.1945 6.83698 19.9315C6.63963 19.6685 6.50706 19.3627 6.45001 19.0389C6.39296 18.7151 6.41304 18.3824 6.50863 18.0678V18.0628C7.11894 16.6212 8.19874 15.4282 9.57262 14.6778L9.85862 14.4838C11.0666 13.6548 11.5586 13.1578 11.5586 12.3688C11.5557 11.9796 11.3996 11.6073 11.1241 11.3325C10.8485 11.0577 10.4758 10.9026 10.0866 10.9008Z" fill="#FDC736"/>
<path id="Path 14677" fill-rule="evenodd" clip-rule="evenodd" d="M18.9161 9.51781C19.1587 9.13736 19.5174 8.84516 19.939 8.6845C20.3607 8.52384 20.8228 8.50326 21.2571 8.62581C21.6943 8.7493 22.079 9.01237 22.3527 9.37491C22.6264 9.73745 22.7741 10.1796 22.7731 10.6338V16.1468H23.1021C23.2592 16.1422 23.4157 16.1692 23.5622 16.2262C23.7087 16.2831 23.8423 16.3689 23.955 16.4784C24.0678 16.5879 24.1574 16.719 24.2186 16.8638C24.2798 17.0085 24.3114 17.1641 24.3114 17.3213C24.3114 17.4785 24.2798 17.6341 24.2186 17.7789C24.1574 17.9236 24.0678 18.0547 23.955 18.1642C23.8423 18.2737 23.7087 18.3595 23.5622 18.4164C23.4157 18.4734 23.2592 18.5004 23.1021 18.4958H22.7731V19.5768C22.7777 19.7339 22.7507 19.8904 22.6937 20.0369C22.6368 20.1834 22.551 20.317 22.4415 20.4297C22.332 20.5425 22.2009 20.6321 22.0562 20.6933C21.9114 20.7545 21.7558 20.7861 21.5986 20.7861C21.4414 20.7861 21.2858 20.7545 21.141 20.6933C20.9963 20.6321 20.8652 20.5425 20.7557 20.4297C20.6462 20.317 20.5604 20.1834 20.5035 20.0369C20.4465 19.8904 20.4195 19.7339 20.4241 19.5768V18.4968H17.3531C16.9732 18.4995 16.5993 18.4018 16.2694 18.2134C15.9395 18.0249 15.6653 17.7526 15.4746 17.424C15.2839 17.0955 15.1835 16.7223 15.1836 16.3424C15.1837 15.9624 15.2843 15.5893 15.4751 15.2608V15.2558C16.5411 13.4378 17.7691 11.3558 18.9051 9.52881L18.9121 9.51781H18.9161ZM20.4241 16.1478V11.5478C19.5061 13.0478 18.5491 14.6658 17.6801 16.1478H20.4241Z" fill="#FDC736"/>
</g>
</svg>
