<svg width="33" height="32" viewBox="0 0 33 32" fill="none" xmlns="http://www.w3.org/2000/svg">
<g id="Group 28457">
<path id="Vector (Stroke)" fill-rule="evenodd" clip-rule="evenodd" d="M4.44444 2.97119C3.09328 2.97119 2 4.06774 2 5.38296V22.4418C2 23.0783 2.2552 23.6907 2.71258 24.1438C3.17029 24.5972 3.79308 24.8535 4.44444 24.8535H13.0556C13.6078 24.8535 14.0556 25.3013 14.0556 25.8535C14.0556 26.4058 13.6078 26.8535 13.0556 26.8535H4.44444C3.26876 26.8535 2.13934 26.391 1.30513 25.5647C0.470591 24.7381 0 23.6149 0 22.4418V5.38296C0 2.94524 2.00672 0.971191 4.44444 0.971191H28.5556C29.7312 0.971191 30.8607 1.43371 31.6949 2.26C32.5294 3.08662 33 4.20979 33 5.38296V22.4428C32.9992 23.2183 32.7925 23.9794 32.4013 24.6497C32.0102 25.3199 31.4488 25.8753 30.7742 26.261C30.2948 26.5352 29.6839 26.3688 29.4097 25.8894C29.1355 25.41 29.3019 24.799 29.7813 24.5249C30.153 24.3123 30.4605 24.0074 30.674 23.6417C30.8874 23.2759 30.9996 22.8618 31 22.4407V5.38296C31 4.74641 30.7448 4.13399 30.2874 3.68094C29.8297 3.22758 29.2069 2.97119 28.5556 2.97119H4.44444ZM5.16667 8.79472C5.16667 8.24244 5.61438 7.79472 6.16667 7.79472H26.8333C27.3856 7.79472 27.8333 8.24244 27.8333 8.79472C27.8333 9.34701 27.3856 9.79472 26.8333 9.79472H6.16667C5.61438 9.79472 5.16667 9.34701 5.16667 8.79472ZM5.16667 13.9124C5.16667 13.3601 5.61438 12.9124 6.16667 12.9124H11.3333C11.8856 12.9124 12.3333 13.3601 12.3333 13.9124C12.3333 14.4647 11.8856 14.9124 11.3333 14.9124H6.16667C5.61438 14.9124 5.16667 14.4647 5.16667 13.9124ZM5.16667 19.03C5.16667 18.4777 5.61438 18.03 6.16667 18.03H9.61111C10.1634 18.03 10.6111 18.4777 10.6111 19.03C10.6111 19.5823 10.1634 20.03 9.61111 20.03H6.16667C5.61438 20.03 5.16667 19.5823 5.16667 19.03Z" fill="#434343"/>
<path id="Vector (Stroke)_2" fill-rule="evenodd" clip-rule="evenodd" d="M16.8096 14.7011C17.9667 13.5548 19.5342 12.9126 21.1667 12.9126C22.7991 12.9126 24.3666 13.5548 25.5238 14.7011C26.6813 15.8476 27.3333 17.4047 27.3333 19.0302C27.3333 20.6146 26.7139 22.1339 25.6108 23.2715C25.611 23.2793 25.6111 23.2871 25.6111 23.295V30.9714C25.6111 31.3494 25.398 31.695 25.0604 31.8648C24.7227 32.0346 24.3182 31.9995 24.0148 31.7742L21.1667 29.6583L18.3186 31.7742C18.0152 31.9995 17.6106 32.0346 17.273 31.8648C16.9353 31.695 16.7222 31.3494 16.7222 30.9714V23.295C16.7222 23.2871 16.7223 23.2793 16.7225 23.2715C15.6194 22.1339 15 20.6146 15 19.0302C15 17.4047 15.652 15.8476 16.8096 14.7011ZM18.7222 24.6467V28.9828L20.5703 27.6099C20.9244 27.3468 21.409 27.3468 21.763 27.6099L23.6111 28.9828V24.6467C22.8462 24.9744 22.0152 25.1479 21.1667 25.1479C20.3181 25.1479 19.4872 24.9744 18.7222 24.6467Z" fill="#FAB737"/>
</g>
</svg>
