<svg width="36" height="36" viewBox="0 0 36 36" fill="none" xmlns="http://www.w3.org/2000/svg">
<g id="tabler-icon-table-options">
<path id="Vector (Stroke)" fill-rule="evenodd" clip-rule="evenodd" d="M7.5 5.75C7.03587 5.75 6.59075 5.93437 6.26256 6.26256C5.93437 6.59075 5.75 7.03587 5.75 7.5V13.75H13.75V5.75H7.5ZM7.5 3.25C6.37283 3.25 5.29183 3.69777 4.4948 4.4948C3.69777 5.29183 3.25 6.37283 3.25 7.5V28.5C3.25 29.6272 3.69777 30.7082 4.4948 31.5052C5.29183 32.3022 6.37283 32.75 7.5 32.75H18C18.6904 32.75 19.25 32.1904 19.25 31.5C19.25 30.8096 18.6904 30.25 18 30.25H16.25V16.25H30.25V18C30.25 18.6904 30.8096 19.25 31.5 19.25C32.1904 19.25 32.75 18.6904 32.75 18V7.5C32.75 6.37283 32.3022 5.29183 31.5052 4.4948C30.7082 3.69777 29.6272 3.25 28.5 3.25H7.5ZM16.25 5.75V13.75H30.25V7.5C30.25 7.03587 30.0656 6.59075 29.7374 6.26256C29.4092 5.93437 28.9641 5.75 28.5 5.75H16.25ZM13.75 16.25H5.75V28.5C5.75 28.9641 5.93437 29.4092 6.26256 29.7374C6.59075 30.0656 7.03587 30.25 7.5 30.25H13.75V16.25Z" fill="black"/>
<path id="Vector (Stroke)_2" fill-rule="evenodd" clip-rule="evenodd" d="M27 19.5C27.8284 19.5 28.5 20.1716 28.5 21H30C30.8284 21 31.5 21.6716 31.5 22.5C31.5 23.3284 30.8284 24 30 24H26.25C26.0511 24 25.8603 24.079 25.7197 24.2197C25.579 24.3603 25.5 24.5511 25.5 24.75C25.5 24.9489 25.579 25.1397 25.7197 25.2803C25.8603 25.421 26.0511 25.5 26.25 25.5H27.75C28.7446 25.5 29.6984 25.8951 30.4017 26.5983C31.1049 27.3016 31.5 28.2554 31.5 29.25C31.5 30.2446 31.1049 31.1984 30.4017 31.9016C29.8779 32.4254 29.2151 32.7783 28.5 32.9242V33C28.5 33.8284 27.8284 34.5 27 34.5C26.1716 34.5 25.5 33.8284 25.5 33L24 33C23.1716 33 22.5 32.3284 22.5 31.5C22.5 30.6716 23.1716 30 24 30H27.75C27.9489 30 28.1397 29.921 28.2803 29.7803C28.421 29.6397 28.5 29.4489 28.5 29.25C28.5 29.0511 28.421 28.8603 28.2803 28.7197C28.1397 28.579 27.9489 28.5 27.75 28.5H26.25C25.2554 28.5 24.3016 28.1049 23.5983 27.4017C22.8951 26.6984 22.5 25.7446 22.5 24.75C22.5 23.7554 22.8951 22.8016 23.5983 22.0983C24.1221 21.5746 24.7849 21.2217 25.5 21.0757V21C25.5 20.1716 26.1716 19.5 27 19.5Z" fill="#FAB737"/>
</g>
</svg>
