<svg width="38" height="36" viewBox="0 0 38 36" fill="none" xmlns="http://www.w3.org/2000/svg">
<g id="Group 28514">
<path id="Vector" d="M33.7964 31.5364C35.1569 30.7886 35.9998 29.3691 35.9998 27.8298V13.97C36.0093 12.4383 35.1911 11.0207 33.8592 10.2634H33.922L21.0783 2.69043C20.4227 2.32897 19.6863 2.1394 18.9377 2.1394C18.1891 2.1394 17.4526 2.32897 16.7971 2.69043L3.9534 10.2634C2.59293 11.0112 1.75 12.4288 1.75 13.9681V27.8298C1.75152 28.5883 1.95683 29.3326 2.34445 29.9846C2.73206 30.6367 3.28775 31.1726 3.9534 31.5364" stroke="#FAB737" stroke-width="3" stroke-linecap="round" stroke-linejoin="round"/>
<path id="Vector_2" d="M7.8418 33.9984C8.34448 32.4785 9.31364 31.1558 10.6114 30.2184C11.9092 29.281 13.4695 28.7767 15.0704 28.7772H22.6815C24.2813 28.7767 25.8407 29.2804 27.138 30.2166C28.4353 31.1529 29.4046 32.4742 29.9082 33.9927M18.8756 23.0689C20.3895 23.0689 21.8415 22.4675 22.912 21.397C23.9825 20.3265 24.5839 18.8746 24.5839 17.3606C24.5839 15.8467 23.9825 14.3948 22.912 13.3243C21.8415 12.2538 20.3895 11.6523 18.8756 11.6523C17.3617 11.6523 15.9097 12.2538 14.8392 13.3243C13.7687 14.3948 13.1673 15.8467 13.1673 17.3606C13.1673 18.8746 13.7687 20.3265 14.8392 21.397C15.9097 22.4675 17.3617 23.0689 18.8756 23.0689Z" stroke="black" stroke-width="3" stroke-linecap="round" stroke-linejoin="round"/>
</g>
</svg>
