<svg width="36" height="36" viewBox="0 0 36 36" fill="none" xmlns="http://www.w3.org/2000/svg">
<g id="Group 28513">
<path id="Path 16193" d="M17.7685 30.4126H19.534V27.0924C23.4077 26.8288 25.7002 24.3782 25.7002 21.2951C25.7002 17.7377 23.434 16.4201 19.534 15.7877V10.3857C21.1415 10.6492 21.9583 11.5715 22.2482 13.1789H25.3576C25.0439 9.91135 22.9333 8.14582 19.534 7.8296V5.43164H17.7685V7.80325C14.1847 8.04041 11.8395 10.2276 11.8395 13.1526C11.8395 16.4992 13.8685 17.9209 17.7685 18.5809V24.5099C15.2651 24.1962 14.6854 22.7444 14.4746 21.0316H11.207C11.4705 24.2201 13.2624 26.7761 17.7685 27.0924V30.4126ZM22.459 21.6113C22.459 23.166 21.2996 24.2728 19.534 24.5099V18.8708C21.8266 19.3714 22.459 20.1093 22.459 21.6113ZM14.9489 12.8639C14.9489 11.5464 15.9528 10.5187 17.7685 10.3079V15.4991C15.4496 15.0235 14.9489 14.233 14.9489 12.8639Z" fill="#FAB737"/>
<g id="Ellipse 17709">
<mask id="path-2-inside-1_1606_757" fill="white">
<path d="M3.50016 28.6656C5.33421 31.159 7.78023 33.1373 10.602 34.4094C13.4237 35.6816 16.5259 36.2046 19.6087 35.928C22.6916 35.6513 25.6511 34.5844 28.2013 32.8302C30.7515 31.076 32.8062 28.6938 34.167 25.9137C35.5279 23.1337 36.1488 20.0496 35.9699 16.9595C35.791 13.8695 34.8183 10.8777 33.1457 8.27328C31.4731 5.66884 29.1571 3.53972 26.4215 2.09157C23.6859 0.643413 20.6231 -0.0748453 17.5289 0.00616378L17.6032 2.84589C20.2091 2.77766 22.7886 3.38257 25.0925 4.60218C27.3963 5.82179 29.3468 7.6149 30.7554 9.80831C32.1641 12.0017 32.9833 14.5213 33.134 17.1237C33.2846 19.7262 32.7617 22.3235 31.6156 24.6648C30.4695 27.0061 28.7391 29.0124 26.5913 30.4897C24.4436 31.9671 21.9512 32.8657 19.3549 33.0986C16.7585 33.3316 14.1459 32.8911 11.7695 31.8198C9.39308 30.7484 7.33308 29.0823 5.78848 26.9824L3.50016 28.6656Z"/>
</mask>
<path d="M3.50016 28.6656C5.33421 31.159 7.78023 33.1373 10.602 34.4094C13.4237 35.6816 16.5259 36.2046 19.6087 35.928C22.6916 35.6513 25.6511 34.5844 28.2013 32.8302C30.7515 31.076 32.8062 28.6938 34.167 25.9137C35.5279 23.1337 36.1488 20.0496 35.9699 16.9595C35.791 13.8695 34.8183 10.8777 33.1457 8.27328C31.4731 5.66884 29.1571 3.53972 26.4215 2.09157C23.6859 0.643413 20.6231 -0.0748453 17.5289 0.00616378L17.6032 2.84589C20.2091 2.77766 22.7886 3.38257 25.0925 4.60218C27.3963 5.82179 29.3468 7.6149 30.7554 9.80831C32.1641 12.0017 32.9833 14.5213 33.134 17.1237C33.2846 19.7262 32.7617 22.3235 31.6156 24.6648C30.4695 27.0061 28.7391 29.0124 26.5913 30.4897C24.4436 31.9671 21.9512 32.8657 19.3549 33.0986C16.7585 33.3316 14.1459 32.8911 11.7695 31.8198C9.39308 30.7484 7.33308 29.0823 5.78848 26.9824L3.50016 28.6656Z" stroke="black" stroke-width="6" mask="url(#path-2-inside-1_1606_757)"/>
</g>
</g>
</svg>
