<svg width="34" height="35" viewBox="0 0 34 35" fill="none" xmlns="http://www.w3.org/2000/svg">
<g id="Group 28454">
<path id="Vector (Stroke)" fill-rule="evenodd" clip-rule="evenodd" d="M11 13.3462C11 12.5868 11.6156 11.9712 12.375 11.9712H20.625C21.3844 11.9712 22 12.5868 22 13.3462V21.5962C22 22.3556 21.3844 22.9712 20.625 22.9712H12.375C11.6156 22.9712 11 22.3556 11 21.5962V13.3462Z" fill="#FDC736"/>
<path id="Vector (Stroke)_2" fill-rule="evenodd" clip-rule="evenodd" d="M13.3333 0.971191C14.2538 0.971191 15 1.71738 15 2.63786V4.30452H18.3333V2.63786C18.3333 1.71738 19.0795 0.971191 20 0.971191C20.9205 0.971191 21.6667 1.71738 21.6667 2.63786V4.30452H26.6667C27.5507 4.30452 28.3986 4.65571 29.0237 5.28084C29.6488 5.90596 30 6.75381 30 7.63786V12.6379H31.6667C32.5871 12.6379 33.3333 13.384 33.3333 14.3045C33.3333 15.225 32.5871 15.9712 31.6667 15.9712H30V19.3045H31.6667C32.5871 19.3045 33.3333 20.0507 33.3333 20.9712C33.3333 21.8917 32.5871 22.6379 31.6667 22.6379H30V27.6379C30 28.5219 29.6488 29.3698 29.0237 29.9949C28.3986 30.62 27.5507 30.9712 26.6667 30.9712H21.6667V32.6379C21.6667 33.5583 20.9205 34.3045 20 34.3045C19.0795 34.3045 18.3333 33.5583 18.3333 32.6379V30.9712H15V32.6379C15 33.5583 14.2538 34.3045 13.3333 34.3045C12.4129 34.3045 11.6667 33.5583 11.6667 32.6379V30.9712H6.66667C5.78262 30.9712 4.93477 30.62 4.30964 29.9949C3.68452 29.3698 3.33333 28.5219 3.33333 27.6379V22.6379H1.66667C0.746192 22.6379 0 21.8917 0 20.9712C0 20.0507 0.746192 19.3045 1.66667 19.3045H3.33333V15.9712H1.66667C0.746192 15.9712 0 15.225 0 14.3045C0 13.384 0.746192 12.6379 1.66667 12.6379H3.33333V7.63786C3.33333 6.7538 3.68452 5.90596 4.30964 5.28084C4.93476 4.65571 5.78261 4.30452 6.66667 4.30452H11.6667V2.63786C11.6667 1.71738 12.4129 0.971191 13.3333 0.971191ZM6.66667 7.63786V27.6379H26.6667V7.63786H6.66667Z" fill="#434343"/>
</g>
</svg>
