<svg width="52" height="49" viewBox="0 0 52 49" fill="none" xmlns="http://www.w3.org/2000/svg">
<g id="Frame 28567">
<g id="shield-security">
<path id="Path 16192" d="M25.2933 5.11499L41.3365 12.2985V22.9932C41.3525 27.9036 39.7357 32.6801 36.7403 36.5713C33.9807 40.4597 29.9199 43.2316 25.2933 44.385C20.6667 43.2316 16.606 40.4597 13.8463 36.5713C10.8515 32.6808 9.23469 27.9053 9.25011 22.9957V12.2985L25.2933 5.11499ZM37.7435 14.5569L25.2933 9.04199L12.8431 14.5569V24.7512C12.8431 24.7512 14.0059 31.426 16.5556 34.6935C19.1044 37.9597 25.2933 40.71 25.2933 40.71C28.6324 39.6143 31.5509 37.5128 33.6489 34.6935C35.9013 31.8181 37.318 28.3777 37.7435 24.75V14.5569Z" fill="black"/>
<path id="Vector (Stroke)" fill-rule="evenodd" clip-rule="evenodd" d="M47.2859 8.52296C47.7618 8.98376 47.7997 9.73432 47.3727 10.2407L26.0425 35.5365C25.7806 35.8471 25.3851 36.0123 24.9801 35.9805C24.5751 35.9486 24.2104 35.7235 24.0003 35.3758L16.2426 22.5345C15.9287 22.0148 16.0298 21.3453 16.4832 20.9416C16.9366 20.5379 17.6134 20.5148 18.0933 20.8866L25.5 28.5L45.5662 8.49148C46.0587 8.0484 46.81 8.06215 47.2859 8.52296Z" fill="#FDC736"/>
</g>
</g>
</svg>
