<svg width="32" height="33" viewBox="0 0 32 33" fill="none" xmlns="http://www.w3.org/2000/svg">
<g id="Group 28512">
<path id="Path 51881" d="M24.3328 26.2732H27.252C28.3265 26.2732 29.2446 25.7049 30.0062 24.5684C30.7941 23.336 31.1915 21.8945 31.1464 20.4325C31.1567 19.4342 30.976 18.4431 30.614 17.5127C30.3195 16.7092 29.8343 15.9892 29.2001 15.4146V14.5935C29.2051 12.775 28.8376 10.9747 28.1203 9.30365C27.4473 7.67712 26.4601 6.19929 25.2153 4.95475C23.9704 3.71021 22.4924 2.72339 20.8657 2.05078C19.1925 1.33839 17.3926 0.971191 15.5741 0.971191C13.7555 0.971191 11.9557 1.33839 10.2825 2.05078C8.65568 2.7241 7.17769 3.71172 5.93313 4.95707C4.68857 6.20241 3.70189 7.68103 3.0296 9.30825C2.31229 10.9793 1.9448 12.7796 1.94978 14.5981V15.4163C1.31553 15.9909 0.83033 16.7109 0.535889 17.5144C0.173881 18.4449 -0.00684399 19.4359 0.00345199 20.4342C-0.0416319 21.8962 0.355777 23.3377 1.14365 24.5701C1.90531 25.7055 2.8228 26.2732 3.89611 26.2732L5.84243 26.2738H6.81588C7.07299 26.2704 7.31861 26.1667 7.50043 25.9849C7.68225 25.8031 7.78591 25.5574 7.78934 25.3003V15.5716C7.78591 15.3145 7.68225 15.0688 7.50043 14.887C7.31861 14.7052 7.07299 14.6015 6.81588 14.5981H5.84243C5.84282 11.5959 6.67904 9.22296 8.3511 7.47922C10.0232 5.73548 12.4308 4.86361 15.5741 4.86361C18.7173 4.86591 21.1252 5.73874 22.7976 7.4821C24.4701 9.22545 25.3063 11.5975 25.3063 14.5981H24.3328C24.0762 14.6015 23.831 14.7048 23.6493 14.886C23.4675 15.0672 23.3635 15.3121 23.3594 15.5687V25.2998C23.3628 25.5569 23.4665 25.8025 23.6483 25.9843C23.8301 26.1661 24.0757 26.2698 24.3328 26.2732Z" fill="#464646"/>
<path id="Path 51882" d="M6.56733 29.0259C5.83738 28.2959 5.45422 26.7333 5.42686 26.2737C5.3995 25.8141 3.77905 25.2284 3.65234 26.2741C3.54338 27.1732 4 29.0002 5.18364 30.4101C5.72042 30.9609 6.36431 31.3958 7.07563 31.6881C7.78695 31.9804 8.55061 32.1239 9.31952 32.1098H15.1585C15.4165 32.1155 15.6728 32.0673 15.9111 31.9683C16.1494 31.8693 16.3645 31.7216 16.5425 31.5348C16.7242 31.3536 16.8677 31.1377 16.9643 30.9C17.0609 30.6622 17.1087 30.4074 17.1048 30.1508C17.1062 29.8955 17.0567 29.6425 16.9592 29.4066C16.8617 29.1707 16.7182 28.9565 16.5369 28.7767C16.3557 28.5969 16.1405 28.455 15.9038 28.3593C15.6671 28.2636 15.4138 28.2161 15.1585 28.2194H13.215C12.9582 28.2157 12.7033 28.2635 12.4653 28.36C12.2273 28.4565 12.011 28.5998 11.8293 28.7813C11.6476 28.9628 11.5041 29.1789 11.4073 29.4168C11.3105 29.6547 11.2624 29.9095 11.2658 30.1664H9.31952C8.28721 30.166 7.29728 29.7558 6.56733 29.0259Z" fill="#FDC736"/>
</g>
</svg>
