<svg width="33" height="33" viewBox="0 0 33 33" fill="none" xmlns="http://www.w3.org/2000/svg">
<path d="M12 18H3C2.20435 18 1.44129 18.3161 0.878679 18.8787C0.31607 19.4413 0 20.2044 0 21V30C0 30.7956 0.31607 31.5587 0.878679 32.1213C1.44129 32.6839 2.20435 33 3 33H12C12.7956 33 13.5587 32.6839 14.1213 32.1213C14.6839 31.5587 15 30.7956 15 30V21C15 20.2044 14.6839 19.4413 14.1213 18.8787C13.5587 18.3161 12.7956 18 12 18ZM3 30V21H12V30H3Z" fill="#FAB737"/>
<path d="M21 24V27H30C30.7956 27 31.5587 26.6839 32.1213 26.1213C32.6839 25.5587 33 24.7956 33 24V3C33 2.20435 32.6839 1.44129 32.1213 0.878679C31.5587 0.31607 30.7956 0 30 0H9C8.20435 0 7.44129 0.31607 6.87868 0.878679C6.31607 1.44129 6 2.20435 6 3V12H9V3H30V24" fill="#464646"/>
</svg>
