<svg width="35" height="39" viewBox="0 0 35 39" fill="none" xmlns="http://www.w3.org/2000/svg">
<g id="Group 28515">
<path id="Vector" d="M8.32031 6.29133C11.068 3.54364 14.7947 2 18.6805 2C22.5663 2 26.293 3.54364 29.0407 6.29133C31.7884 9.03903 33.332 12.7657 33.332 16.6515V22.1459M33.332 22.1459C33.332 21.1744 32.9461 20.2427 32.2592 19.5558C31.5723 18.8689 30.6406 18.483 29.6692 18.483H27.8377C26.8663 18.483 25.9346 18.8689 25.2477 19.5558C24.5607 20.2427 24.1748 21.1744 24.1748 22.1459V27.6402C24.1748 28.6116 24.5607 29.5433 25.2477 30.2302C25.9346 30.9172 26.8663 31.3031 27.8377 31.3031H29.6692M33.332 22.1459V27.6402C33.332 28.6116 32.9461 29.5433 32.2592 30.2302C31.5723 30.9172 30.6406 31.3031 29.6692 31.3031M29.6692 31.3031C29.6692 34.3378 24.7499 36.7974 18.6805 36.7974" stroke="black" stroke-width="3" stroke-linecap="round" stroke-linejoin="round"/>
<path id="Vector (Stroke)" fill-rule="evenodd" clip-rule="evenodd" d="M0 17.1781C0 16.3816 0.648517 15.7358 1.4485 15.7358H4.34551C5.11385 15.7358 5.85071 16.0397 6.394 16.5807C6.9373 17.1216 7.24252 17.8553 7.24252 18.6204V20.0626C7.24252 20.8276 6.9373 21.5613 6.394 22.1023C5.85071 22.6432 5.11384 22.9471 4.34551 22.9471L2.89701 22.9471L2.89701 24.3894H5.79401C6.594 24.3894 7.24252 25.0351 7.24252 25.8317C7.24252 26.6282 6.594 27.2739 5.79401 27.2739H2.89701C2.12868 27.2739 1.39181 26.97 0.848514 26.4291C0.30522 25.8881 0 25.1544 0 24.3894V22.9471C0 22.1821 0.30522 21.4484 0.848514 20.9075C1.39181 20.3665 2.12868 20.0626 2.89701 20.0626H4.34551V18.6204H1.4485C0.648517 18.6204 0 17.9746 0 17.1781ZM10.1395 15.7358C10.9395 15.7358 11.588 16.3816 11.588 17.1781L11.588 20.0626L13.0365 20.0626V17.1781C13.0365 16.3816 13.685 15.7358 14.485 15.7358C15.285 15.7358 15.9335 16.3816 15.9335 17.1781V25.8317C15.9335 26.6282 15.285 27.2739 14.485 27.2739C13.685 27.2739 13.0365 26.6282 13.0365 25.8317V22.9471H11.588C10.8197 22.9471 10.0828 22.6432 9.53953 22.1023C8.99624 21.5613 8.69102 20.8276 8.69102 20.0626V17.1781C8.69102 16.3816 9.33954 15.7358 10.1395 15.7358Z" fill="#FDC736"/>
</g>
</svg>
