<svg width="41" height="42" viewBox="0 0 41 42" fill="none" xmlns="http://www.w3.org/2000/svg">
<g id="Frame 28568">
<path id="Ellipse 17709 (Stroke)" fill-rule="evenodd" clip-rule="evenodd" d="M2 33.261C2.10746 33.4104 2.21678 33.5583 2.32794 33.7046C2.45218 33.8681 2.57872 34.0297 2.70749 34.1892C2.82306 34.3324 2.94043 34.474 3.05957 34.6139C3.19346 34.7712 3.32959 34.9264 3.4679 35.0794C3.59124 35.2159 3.71632 35.3507 3.8431 35.4838L6.27677 33.6347C6.00219 33.3572 5.73644 33.0704 5.47999 32.7749C5.22532 32.4814 4.97983 32.1793 4.74399 31.8689C4.64919 31.7441 4.55596 31.618 4.46431 31.4906C4.46402 31.4902 4.46372 31.4898 4.46343 31.4894L2 33.261ZM9.08561 35.9498L7.73525 38.6918C8.06375 38.9019 8.39837 39.103 8.73876 39.2948C9.07727 39.4856 9.42149 39.6672 9.77107 39.8393C9.93591 39.9205 10.1019 39.9996 10.2691 40.0765C10.4363 40.1535 10.6044 40.2282 10.7732 40.3006C11.1314 40.4541 11.4932 40.5975 11.8583 40.7305C12.2254 40.8643 12.5958 40.9877 12.969 41.1006L14.1735 38.2915C13.7977 38.1855 13.4251 38.0672 13.0562 37.9367C12.6899 37.8071 12.3273 37.6654 11.969 37.5118C11.8245 37.4499 11.6808 37.386 11.5377 37.3201C11.3947 37.2543 11.2527 37.1867 11.1116 37.1172C10.7619 36.945 10.4185 36.7617 10.0818 36.5677C9.74271 36.3724 9.4105 36.1663 9.08561 35.9498ZM17.7589 38.9193L17.9372 41.9705C18.3266 41.9912 18.7168 42.001 19.1076 41.9999C19.4961 41.9988 19.8851 41.987 20.2741 41.9642C20.4576 41.9535 20.641 41.9404 20.8244 41.9248C21.0078 41.9092 21.1908 41.8913 21.3734 41.871C21.7607 41.8278 22.1461 41.774 22.5293 41.7096C22.9146 41.6448 23.2977 41.5694 23.678 41.4835L23.3397 38.4458C22.9606 38.539 22.5781 38.62 22.1929 38.6885C21.8103 38.7565 21.425 38.8121 21.0376 38.8553C20.8813 38.8727 20.7247 38.888 20.5679 38.9014C20.411 38.9147 20.254 38.9259 20.0971 38.9351C19.708 38.9578 19.3188 38.9679 18.9302 38.9653C18.539 38.9627 18.1483 38.9473 17.7589 38.9193ZM26.7681 37.2229L28.4286 39.7889C28.7775 39.6147 29.1218 39.4307 29.4611 39.237C29.7986 39.0443 30.1311 38.8421 30.4582 38.6304C30.6125 38.5305 30.7655 38.4286 30.9174 38.3246C31.0692 38.2206 31.2195 38.1146 31.3683 38.0069C31.6839 37.7783 31.9926 37.5413 32.2941 37.2962C32.5974 37.0498 32.8933 36.7952 33.1817 36.5327L31.3887 34.0575C31.1049 34.3256 30.8122 34.5848 30.5109 34.8344C30.2117 35.0823 29.904 35.3208 29.5883 35.5495C29.461 35.6417 29.3324 35.7323 29.2025 35.8213C29.0726 35.9103 28.9416 35.9975 28.8097 36.0829C28.4824 36.2947 28.1488 36.4955 27.8096 36.6849C27.468 36.8757 27.1206 37.0551 26.7681 37.2229ZM33.7673 31.3022L36.4777 32.7149C36.6953 32.3913 36.904 32.0613 37.1035 31.7254C37.302 31.3913 37.4914 31.0514 37.6715 30.7058C37.7564 30.5429 37.8393 30.3787 37.92 30.2133C38.0007 30.0479 38.0792 29.8816 38.1555 29.7144C38.3172 29.3599 38.4688 29.0014 38.6101 28.6395C38.7523 28.2755 38.8841 27.9081 39.0055 27.5375L36.2246 26.2692C36.1101 26.6424 35.9833 27.0123 35.8444 27.3781C35.7065 27.7413 35.5565 28.1006 35.3948 28.4553C35.3295 28.5983 35.2624 28.7406 35.1933 28.8821C35.1242 29.0235 35.0533 29.164 34.9807 29.3034C34.8005 29.6491 34.6094 29.9883 34.4079 30.3205C34.2049 30.655 33.9912 30.9824 33.7673 31.3022ZM36.9341 22.6991L39.9887 22.5905C40.0182 22.2017 40.0369 21.8117 40.0448 21.4211C40.0526 21.0326 40.0496 20.6434 40.0357 20.254C40.0292 20.0704 40.0203 19.8867 40.0089 19.703C39.9975 19.5193 39.9838 19.3359 39.9676 19.1529C39.9333 18.7647 39.8883 18.3782 39.8327 17.9936C39.7767 17.6069 39.7101 17.2222 39.6328 16.84L36.5882 17.1089C36.6728 17.49 36.745 17.8743 36.8046 18.261C36.8639 18.645 36.9107 19.0315 36.945 19.4198C36.9589 19.5764 36.9706 19.7332 36.9804 19.8904C36.9901 20.0476 36.9977 20.2047 37.0033 20.3618C37.0172 20.7514 37.0183 21.1407 37.0069 21.5291C36.9954 21.9202 36.9711 22.3104 36.9341 22.6991ZM35.4439 13.6535L38.0472 12.0519C37.8811 11.6992 37.705 11.3508 37.519 11.0071C37.3341 10.6654 37.1395 10.3283 36.9353 9.99644C36.8391 9.83994 36.7407 9.68458 36.6401 9.53042C36.5396 9.37625 36.4372 9.22353 36.3328 9.0723C36.1115 8.75159 35.8816 8.43756 35.6435 8.13051C35.404 7.82175 35.1562 7.52006 34.9005 7.22573L32.3849 8.96176C32.6465 9.25157 32.8989 9.55015 33.1416 9.85708C33.3826 10.1619 33.614 10.4749 33.8354 10.7958C33.9247 10.9251 34.0124 11.0558 34.0984 11.1877C34.1844 11.3196 34.2685 11.4525 34.3509 11.5864C34.5552 11.9184 34.7483 12.2564 34.9299 12.5999C35.1129 12.9458 35.2843 13.2972 35.4439 13.6535ZM29.6847 6.5208L31.1589 3.84336C30.8403 3.6185 30.5152 3.40233 30.184 3.19516C29.8545 2.98913 29.519 2.79199 29.1776 2.60405C29.0167 2.51543 28.8544 2.42885 28.6909 2.34435C28.5274 2.25985 28.3629 2.17757 28.1976 2.09752C27.8468 1.92776 27.4919 1.76804 27.1333 1.61845C26.7727 1.46804 26.4083 1.32787 26.0406 1.19805L24.7091 3.94922C25.0796 4.07223 25.4465 4.20741 25.809 4.35464C26.169 4.50085 26.5248 4.65893 26.8757 4.82876C27.0172 4.89724 27.1579 4.96764 27.2977 5.03993C27.4376 5.11222 27.5764 5.18629 27.7141 5.2621C28.0556 5.45013 28.3903 5.6489 28.7178 5.85802C29.0476 6.0686 29.3701 6.28966 29.6847 6.5208ZM21.1561 3.15831L21.1173 0.102096C20.9344 0.0839912 20.7512 0.0682861 20.5677 0.0549766C20.3619 0.0400611 20.1559 0.0281631 19.9495 0.0193054C19.7659 0.0114242 19.5821 0.00595016 19.3981 0.00289459C19.1931 -0.000515736 18.9879 -0.000923899 18.7825 0.00168155C18.5993 0.00401234 18.4159 0.00873875 18.2324 0.0158761C18.232 0.0158951 18.2315 0.0159104 18.2311 0.0159295L18.3493 3.04795C18.5066 3.04182 18.6639 3.03776 18.821 3.03576C19.2108 3.03081 19.6001 3.03856 19.9881 3.05888C20.3788 3.07933 20.7684 3.11251 21.1561 3.15831Z" fill="black"/>
<path id="Vector (Stroke)" fill-rule="evenodd" clip-rule="evenodd" d="M4.41323 15.333C4.89648 15.333 5.28823 15.7248 5.28823 16.208V17.5062H5.57227C5.588 17.5062 5.60372 17.5066 5.61943 17.5075C6.18974 17.5383 6.71309 17.7812 7.12659 18.1641C7.5373 18.5443 7.82538 19.0472 7.97914 19.5926C8.11028 20.0577 7.83954 20.541 7.37443 20.6722C6.90931 20.8033 6.42595 20.5326 6.29481 20.0675C6.21786 19.7946 6.08463 19.5842 5.93763 19.4481C5.80031 19.321 5.66206 19.2668 5.54288 19.2562H3.25419C3.09619 19.2562 2.89287 19.3334 2.7081 19.5643C2.51927 19.8004 2.39062 20.1547 2.39062 20.5544C2.39062 20.9541 2.51927 21.3085 2.7081 21.5445C2.89287 21.7755 3.09619 21.8526 3.25419 21.8526H5.57227C6.33647 21.8526 7.01757 22.2334 7.48488 22.8175C7.94814 23.3966 8.18583 24.1478 8.18583 24.9008C8.18583 25.6538 7.94814 26.405 7.48488 26.9841C7.01757 27.5683 6.33647 27.949 5.57227 27.949H5.28823V29.2472C5.28823 29.7305 4.89648 30.1222 4.41323 30.1222C3.92998 30.1222 3.53823 29.7305 3.53823 29.2472V27.949H3.25419C3.23846 27.949 3.22273 27.9486 3.20703 27.9477C2.63671 27.917 2.11337 27.674 1.69986 27.2912C1.28915 26.9109 1.00107 26.408 0.847317 25.8627C0.716175 25.3976 0.986914 24.9142 1.45203 24.7831C1.91714 24.6519 2.4005 24.9227 2.53165 25.3878C2.60859 25.6607 2.74183 25.871 2.88883 26.0071C3.02614 26.1342 3.1644 26.1884 3.28357 26.199H5.57227C5.73026 26.199 5.93358 26.1219 6.11836 25.8909C6.30719 25.6549 6.43583 25.3005 6.43583 24.9008C6.43583 24.5011 6.30719 24.1468 6.11836 23.9107C5.93358 23.6798 5.73026 23.6026 5.57227 23.6026H3.25419C2.48999 23.6026 1.80889 23.2218 1.34158 22.6377C0.87832 22.0586 0.640625 21.3074 0.640625 20.5544C0.640625 19.8014 0.87832 19.0502 1.34158 18.4711C1.80889 17.887 2.48999 17.5062 3.25419 17.5062H3.53823V16.208C3.53823 15.7248 3.92998 15.333 4.41323 15.333Z" fill="#FDC736"/>
<path id="Vector (Stroke)_2" fill-rule="evenodd" clip-rule="evenodd" d="M14.3223 13.8821C15.8316 12.071 17.9292 11 20.1724 11C22.4156 11 24.5132 12.071 26.0224 13.8821C27.5265 15.687 28.3448 18.0963 28.3448 20.5735C28.3448 23.0508 27.5265 25.46 26.0224 27.265C24.5132 29.0761 22.4156 30.1471 20.1724 30.1471C17.9291 30.1471 15.8316 29.0761 14.3223 27.265C12.8182 25.46 12 23.0508 12 20.5735C12 18.0963 12.8182 15.687 14.3223 13.8821ZM20.1724 13.3333C18.6996 13.3333 17.2332 14.0338 16.1149 15.3759C14.9913 16.7241 14.3333 18.5915 14.3333 20.5735C14.3333 22.5556 14.9913 24.4229 16.1149 25.7712C17.2332 27.1133 18.6996 27.8137 20.1724 27.8137C21.6452 27.8137 23.1115 27.1133 24.2299 25.7712C25.3535 24.4229 26.0114 22.5556 26.0114 20.5735C26.0114 18.5915 25.3535 16.7241 24.2299 15.3759C23.1115 14.0338 21.6452 13.3333 20.1724 13.3333Z" fill="#FDC736"/>
</g>
</svg>
