<svg width="17" height="16" viewBox="0 0 17 16" fill="none" xmlns="http://www.w3.org/2000/svg">
<path id="Union" fill-rule="evenodd" clip-rule="evenodd" d="M6.70711 0.292893C6.31658 -0.0976309 5.68342 -0.0976312 5.29289 0.292893L1.70706 3.87873C1.31654 4.26925 1.31654 4.90241 1.70706 5.29294L5.29289 8.87877C5.68342 9.26929 6.31658 9.2693 6.70711 8.87877L10.2929 5.29294C10.6835 4.90241 10.6835 4.26925 10.2929 3.87873L6.70711 0.292893ZM16.7071 5.29289C17.0976 4.90237 17.0976 4.2692 16.7071 3.87868C16.3166 3.48816 15.6834 3.48816 15.2929 3.87868L6 13.1716L1.70711 8.87868C1.31658 8.48816 0.683417 8.48816 0.292893 8.87868C-0.0976311 9.2692 -0.0976311 9.90237 0.292893 10.2929L5.29289 15.2929C5.68342 15.6834 6.31658 15.6834 6.70711 15.2929L16.7071 5.29289Z" fill="#5AD33C"/>
</svg>
