<svg width="32" height="32" viewBox="0 0 32 32" fill="none" xmlns="http://www.w3.org/2000/svg">
<g id="Group 6962">
<g id="timer-outline">
<path id="Path 51250" d="M6.0255 7.10169C3.94024 9.43464 2.71465 12.41 2.55181 15.5348C2.38897 18.6596 3.29866 21.7463 5.13013 24.2834C6.9616 26.8204 9.60493 28.6556 12.6221 29.4848C15.6393 30.314 18.8492 30.0874 21.72 28.8426C24.5908 27.5978 26.9502 25.4096 28.4071 22.6404C29.8641 19.8712 30.3312 16.6874 29.731 13.6164C29.1308 10.5455 27.4995 7.77175 25.1072 5.75485C22.7149 3.73794 19.7053 2.59892 16.5771 2.52653C16.5352 2.52517 16.4936 2.53226 16.4545 2.54736C16.4155 2.56246 16.3799 2.58527 16.3499 2.61443C16.3199 2.64359 16.296 2.6785 16.2798 2.71707C16.2636 2.75565 16.2553 2.7971 16.2554 2.83895V8.8179" stroke="#464646" stroke-width="3" stroke-linecap="round" stroke-linejoin="round"/>
<path id="Path 51251" d="M14.6379 17.8711L8.98988 9.7928C8.91151 9.6809 8.87507 9.54496 8.88697 9.40886C8.89888 9.27276 8.95835 9.14521 9.05495 9.04861C9.15156 8.952 9.27911 8.89253 9.41521 8.88063C9.5513 8.86873 9.68724 8.90516 9.79915 8.98354L17.8775 14.6315C18.1299 14.8054 18.3455 15.0274 18.5118 15.2849C18.678 15.5425 18.7917 15.8303 18.8462 16.132C18.9007 16.4336 18.895 16.7431 18.8294 17.0425C18.7638 17.3419 18.6396 17.6254 18.4639 17.8766C18.2883 18.1278 18.0646 18.3417 17.8059 18.5061C17.5472 18.6705 17.2585 18.7821 16.9565 18.8344C16.6545 18.8868 16.3451 18.8788 16.0462 18.811C15.7472 18.7433 15.4646 18.617 15.2147 18.4395C14.9914 18.2848 14.7963 18.0928 14.6379 17.872V17.8711Z" fill="#FAB737"/>
</g>
</g>
</svg>
