<svg xmlns="http://www.w3.org/2000/svg" width="194.561" height="191.695" viewBox="0 0 194.561 191.695">
  <g id="certificate-line" transform="translate(45.245) rotate(22)">
    <g id="Group_14152" data-name="Group 14152" transform="translate(0 0)">
      <g id="Group_14151" data-name="Group 14151">
        <path id="Path_51124" data-name="Path 51124" d="M155.717,14.222H14.806A10.065,10.065,0,0,0,4.741,24.287V124.938A10.065,10.065,0,0,0,14.806,135H90.294l2.869-3.523,4.68-5.737-.453-.805H14.806V24.287H155.717V67.366a42.324,42.324,0,0,1,10.065,9.109V24.287A10.065,10.065,0,0,0,155.717,14.222Z" transform="translate(-4.741 -14.222)" fill="#f8f8f8"/>
        <path id="Path_51125" data-name="Path 51125" d="M16.592,28.444h85.554V36.5H16.592Z" transform="translate(8.57 1.751)" fill="#f8f8f8"/>
        <path id="Path_51126" data-name="Path 51126" d="M16.592,37.926H71.951v8.052H16.592Z" transform="translate(8.57 12.4)" fill="#f8f8f8"/>
        <path id="Path_51127" data-name="Path 51127" d="M16.592,54.518H66.918V62.57H16.592Z" transform="translate(8.57 31.035)" fill="#f8f8f8"/>
        <path id="Path_51128" data-name="Path 51128" d="M82.157,40.842A32.007,32.007,0,0,0,60.013,96.2L50.25,108.127l4.529,18.168L73.2,103.849a31.5,31.5,0,0,0,17.866,0l18.419,22.445,4.529-18.168L104.25,96.2A32.007,32.007,0,0,0,82.106,40.842Zm0,53.748A21.69,21.69,0,1,1,104.149,72.9,21.69,21.69,0,0,1,82.157,94.589Z" transform="translate(45.972 15.674)" fill="#f8f8f8"/>
      </g>
    </g>
  </g>
</svg>
