<svg xmlns="http://www.w3.org/2000/svg" xmlns:xlink="http://www.w3.org/1999/xlink" width="1540" height="497" viewBox="0 0 1540 497">
  <defs>
    <clipPath id="clip-path">
      <rect id="Rectangle_2730" data-name="Rectangle 2730" width="1540" height="497" transform="translate(0 1502)" fill="#ff8989"/>
    </clipPath>
    <clipPath id="clip-path-2">
      <rect id="Rectangle_2715" data-name="Rectangle 2715" width="254" height="482" transform="translate(1286 1489)" fill="#f0f0f0"/>
    </clipPath>
    <clipPath id="clip-path-3">
      <rect id="Rectangle_5364" data-name="Rectangle 5364" width="142" height="381" transform="translate(0 2118)" fill="#fff"/>
    </clipPath>
  </defs>
  <g id="Mask_Group_50" data-name="Mask Group 50" transform="translate(0 -1502)" clip-path="url(#clip-path)">
    <g id="Mask_Group_38" data-name="Mask Group 38" transform="translate(0 28)" clip-path="url(#clip-path-2)">
      <g id="New_Symbol" data-name="New Symbol" transform="translate(-727.005 2091.385) rotate(180)" opacity="0.21">
        <g id="Group_6831" data-name="Group 6831" transform="translate(-2194.032 129.62)">
          <path id="Path_10865" data-name="Path 10865" d="M-1373.9,144.83a63.026,63.026,0,0,1,63.026,63.026,63.026,63.026,0,0,1-63.026,63.026,63.026,63.026,0,0,1-63.026-63.026" transform="translate(1436.93 -144.83)" fill="none" stroke="#37a044" stroke-linecap="round" stroke-miterlimit="10" stroke-width="1.112"/>
          <line id="Line_113" data-name="Line 113" y2="81.193" transform="translate(63.02 111.266)" fill="none" stroke="#3089bb" stroke-linecap="round" stroke-miterlimit="10" stroke-width="1.559"/>
          <g id="Group_6841" data-name="Group 6841" transform="translate(124.004 359.902)">
            <g id="Group_6836" data-name="Group 6836" transform="translate(32.454 0)">
              <line id="Line_113-2" data-name="Line 113" y2="34.046" transform="translate(0)" fill="none" stroke="#47a850" stroke-linecap="round" stroke-miterlimit="10" stroke-width="1.559"/>
            </g>
            <path id="Path_10876" data-name="Path 10876" d="M10.444,0A10.444,10.444,0,1,0,20.888,10.444" transform="translate(43.685 39.555) rotate(-135)" fill="none" stroke="#37a044" stroke-miterlimit="10" stroke-width="1.559"/>
            <path id="Path_10877" data-name="Path 10877" d="M10.444,0A10.444,10.444,0,1,0,20.888,10.444" transform="translate(14.77 2.554) rotate(45)" fill="none" stroke="#37a044" stroke-miterlimit="10" stroke-width="1.559"/>
            <line id="Line_128" data-name="Line 128" y2="34.046" transform="translate(24.992 8.395)" fill="none" stroke="#47a850" stroke-linecap="round" stroke-miterlimit="10" stroke-width="1.559"/>
          </g>
        </g>
        <g id="Group_6833" data-name="Group 6833" transform="translate(-2374.238 220.445)">
          <path id="Path_10866" data-name="Path 10866" d="M-1971.279,2299.975h0a27.337,27.337,0,0,1-27.337,27.337h-257.75a27.337,27.337,0,0,1-27.337-27.337h0a27.337,27.337,0,0,1,27.337-27.337" transform="translate(2301.109 -1954.372)" fill="none" stroke="#37a044" stroke-miterlimit="10" stroke-width="1.559"/>
          <g id="Group_6832" data-name="Group 6832" transform="translate(117.54 45.77)">
            <path id="Path_10867" data-name="Path 10867" d="M-1575.359,874.851A19.549,19.549,0,0,1-1555.81,855.3h31.469a19.549,19.549,0,0,1,19.549,19.549v18.6A19.549,19.549,0,0,1-1524.34,913h-31.469" transform="translate(1611.411 -855.302)" fill="none" stroke="#37a044" stroke-miterlimit="10" stroke-width="1.559"/>
            <path id="Path_10868" data-name="Path 10868" d="M-1499.995,1942.794h34.59a21.488,21.488,0,0,1,21.488,21.488v20.44a21.488,21.488,0,0,1-21.488,21.488" transform="translate(1550.536 -1733.713)" fill="none" stroke="#37a044" stroke-miterlimit="10" stroke-width="1.559"/>
            <path id="Path_10869" data-name="Path 10869" d="M-634.6,1198.351h34.59a21.488,21.488,0,0,1,21.488,21.488v20.44a21.488,21.488,0,0,1-21.488,21.488" transform="translate(851.521 -1132.396)" fill="none" stroke="#37a044" stroke-miterlimit="10" stroke-width="1.559"/>
            <path id="Path_10870" data-name="Path 10870" d="M-1706.8,1155.386h-34.591a21.488,21.488,0,0,0-21.488,21.488v20.44" transform="translate(1762.877 -1097.692)" fill="none" stroke="#37a044" stroke-miterlimit="10" stroke-width="1.559"/>
            <line id="Line_114" data-name="Line 114" y2="30.516" transform="translate(0 104.421)" fill="none" stroke="#37a044" stroke-miterlimit="10" stroke-width="1.559"/>
            <line id="Line_115" data-name="Line 115" y2="6.914" transform="translate(0 143.758)" fill="none" stroke="#37a044" stroke-miterlimit="10" stroke-width="1.559"/>
            <line id="Line_116" data-name="Line 116" y2="35.284" transform="translate(0 157.347)" fill="none" stroke="#37a044" stroke-miterlimit="10" stroke-width="1.559"/>
          </g>
          <circle id="Ellipse_12" data-name="Ellipse 12" cx="22.494" cy="22.494" r="22.494" transform="translate(85.729 238.401) rotate(-45)" fill="none" stroke="#37a044" stroke-miterlimit="10" stroke-width="1.559"/>
          <circle id="Ellipse_13" data-name="Ellipse 13" cx="40.767" cy="40.767" r="40.767" transform="translate(185.579 175.14) rotate(-45)" fill="none" stroke="#37a044" stroke-miterlimit="10" stroke-width="1.559"/>
          <path id="Path_10871" data-name="Path 10871" d="M-928.865,938.236a15.973,15.973,0,0,1-15.973,15.973,15.973,15.973,0,0,1-15.973-15.973,15.973,15.973,0,0,1,15.973-15.973A15.973,15.973,0,0,1-928.865,938.236Z" transform="translate(1232.556 -863.619)" fill="none" stroke="#37a044" stroke-miterlimit="10" stroke-width="1.559"/>
          <path id="Path_10872" data-name="Path 10872" d="M-1186.387,1432.528a18.393,18.393,0,0,1,18.393,18.393,18.393,18.393,0,0,1-18.393,18.393,18.393,18.393,0,0,1-18.393-18.393" transform="translate(1429.619 -1275.781)" fill="none" stroke="#37a044" stroke-miterlimit="10" stroke-width="1.559"/>
          <path id="Path_10873" data-name="Path 10873" d="M-1748.3,858.955a18.393,18.393,0,0,0-18.393,18.393,18.393,18.393,0,0,0,18.393,18.393,18.393,18.393,0,0,0,18.393-18.393" transform="translate(1883.499 -812.483)" fill="none" stroke="#37a044" stroke-miterlimit="10" stroke-width="1.559"/>
          <path id="Path_10874" data-name="Path 10874" d="M-1392.582,2057.284a12,12,0,0,1-12,12,12,12,0,0,1-12-12,12,12,0,0,1,12-12A12,12,0,0,1-1392.582,2057.284Z" transform="translate(1600.707 -1770.726)" fill="none" stroke="#37a044" stroke-miterlimit="10" stroke-width="1.559"/>
          <line id="Line_117" data-name="Line 117" x1="91.23" transform="translate(152.003 175.14)" fill="none" stroke="#37a044" stroke-miterlimit="10" stroke-width="1.559"/>
          <line id="Line_118" data-name="Line 118" x1="12.397" transform="translate(129.752 175.14)" fill="none" stroke="#37a044" stroke-miterlimit="10" stroke-width="1.559"/>
          <line id="Line_119" data-name="Line 119" x1="75.336" transform="translate(27.715 175.14)" fill="none" stroke="#37a044" stroke-miterlimit="10" stroke-width="1.559"/>
          <line id="Line_120" data-name="Line 120" x1="23.999" transform="translate(173.618 318.266)" fill="none" stroke="#37a044" stroke-miterlimit="10" stroke-width="1.559"/>
          <line id="Line_121" data-name="Line 121" x1="97.269" transform="translate(67.29 318.266)" fill="none" stroke="#37a044" stroke-miterlimit="10" stroke-width="1.559"/>
          <line id="Line_122" data-name="Line 122" x1="162.773" transform="translate(98.852 345.603)" fill="none" stroke="#3089bb" stroke-miterlimit="10" stroke-width="1.559"/>
          <line id="Line_123" data-name="Line 123" x1="98.842" transform="translate(188.876 74.617)" fill="none" stroke="#3089bb" stroke-miterlimit="10" stroke-width="1.559"/>
          <line id="Line_124" data-name="Line 124" x2="69.233" transform="translate(271.745 175.14)" fill="none" stroke="#3089bb" stroke-miterlimit="10" stroke-width="0.78"/>
          <line id="Line_125" data-name="Line 125" x2="11.92" transform="translate(351.468 175.14)" fill="none" stroke="#3089bb" stroke-miterlimit="10" stroke-width="0.78"/>
          <line id="Line_126" data-name="Line 126" x2="57.601" transform="translate(196.121 286.558)" fill="none" stroke="#3089bb" stroke-miterlimit="10" stroke-width="0.78"/>
          <line id="Line_127" data-name="Line 127" y1="56.123" transform="translate(135.199 8.742)" fill="none" stroke="#3089bb" stroke-miterlimit="10" stroke-width="0.78"/>
          <circle id="Ellipse_14" data-name="Ellipse 14" cx="2.702" cy="2.702" r="2.702" transform="translate(322.86 109.022)" fill="none" stroke="#37a044" stroke-miterlimit="10" stroke-width="0.78"/>
          <circle id="Ellipse_15" data-name="Ellipse 15" cx="2.702" cy="2.702" r="2.702" transform="translate(314.277 109.022)" fill="none" stroke="#37a044" stroke-miterlimit="10" stroke-width="0.78"/>
          <circle id="Ellipse_16" data-name="Ellipse 16" cx="2.702" cy="2.702" r="2.702" transform="translate(305.694 109.022)" fill="none" stroke="#37a044" stroke-miterlimit="10" stroke-width="0.78"/>
          <circle id="Ellipse_17" data-name="Ellipse 17" cx="2.702" cy="2.702" r="2.702" transform="translate(297.112 109.022)" fill="none" stroke="#37a044" stroke-miterlimit="10" stroke-width="0.78"/>
          <circle id="Ellipse_18" data-name="Ellipse 18" cx="2.702" cy="2.702" r="2.702" transform="translate(132.497 0)" fill="none" stroke="#37a044" stroke-miterlimit="10" stroke-width="0.78"/>
          <circle id="Ellipse_19" data-name="Ellipse 19" cx="9.119" cy="9.119" r="9.119" transform="translate(0 166.021)" fill="none" stroke="#3089bb" stroke-miterlimit="10" stroke-width="1.559"/>
          <circle id="Ellipse_20" data-name="Ellipse 20" cx="6.199" cy="6.199" r="6.199" transform="translate(327.15 68.418)" fill="none" stroke="#37a044" stroke-miterlimit="10" stroke-width="0.78"/>
          <path id="Path_10875" data-name="Path 10875" d="M-2171.4,2354.06a14.464,14.464,0,0,1-14.464,14.463,14.464,14.464,0,0,1-14.464-14.463,14.464,14.464,0,0,1,14.464-14.464A14.464,14.464,0,0,1-2171.4,2354.06Z" transform="translate(2233.767 -2008.457)" fill="none" stroke="#37a044" stroke-miterlimit="10" stroke-width="1.559"/>
        </g>
      </g>
    </g>
    <g id="Mask_Group_172" data-name="Mask Group 172" transform="translate(0 -558)" clip-path="url(#clip-path-3)">
      <g id="New_Symbol-2" data-name="New Symbol" transform="translate(130 2124.793) rotate(90)" opacity="0.21">
        <g id="Group_14228" data-name="Group 14228" transform="translate(163.949 251.624)">
          <circle id="Ellipse_3989" data-name="Ellipse 3989" cx="43.584" cy="43.584" r="43.584" transform="translate(61.636 58.406) rotate(45)" fill="none" stroke="#37a044" stroke-linecap="round" stroke-miterlimit="10" stroke-width="1.112"/>
          <path id="Path_51172" data-name="Path 51172" d="M58.453,116.907A58.453,58.453,0,1,0,0,58.453" transform="translate(3.183 61.589)" fill="none" stroke="#37a044" stroke-linecap="round" stroke-miterlimit="10" stroke-width="1.112"/>
          <line id="Line_400" data-name="Line 400" y1="122.06" transform="translate(61.631 0)" fill="none" stroke="#3089bb" stroke-linecap="round" stroke-miterlimit="10" stroke-width="1.559"/>
        </g>
        <g id="Group_14230" data-name="Group 14230" transform="translate(0 0)">
          <path id="Path_51173" data-name="Path 51173" d="M289.758,25.354h0A25.354,25.354,0,0,0,264.4,0H25.354A25.354,25.354,0,0,0,0,25.354H0A25.354,25.354,0,0,0,25.354,50.708" transform="translate(16.143 0)" fill="none" stroke="#37a044" stroke-miterlimit="10" stroke-width="1.559"/>
          <g id="Group_14229" data-name="Group 14229" transform="translate(109.012 50.708)">
            <path id="Path_51174" data-name="Path 51174" d="M0,35.377A18.131,18.131,0,0,0,18.131,53.508H47.317A18.131,18.131,0,0,0,65.448,35.377V18.131A18.131,18.131,0,0,0,47.317,0H18.131" transform="translate(33.437 199.218)" fill="none" stroke="#37a044" stroke-miterlimit="10" stroke-width="1.559"/>
            <path id="Path_51175" data-name="Path 51175" d="M0,58.815H32.081A19.929,19.929,0,0,0,52.01,38.886V19.929A19.929,19.929,0,0,0,32.081,0" transform="translate(46.875)" fill="none" stroke="#37a044" stroke-miterlimit="10" stroke-width="1.559"/>
            <path id="Path_51176" data-name="Path 51176" d="M0,58.815H32.081A19.929,19.929,0,0,0,52.01,38.886V19.929A19.929,19.929,0,0,0,32.081,0" transform="translate(201.185 132.743)" fill="none" stroke="#37a044" stroke-miterlimit="10" stroke-width="1.559"/>
            <path id="Path_51177" data-name="Path 51177" d="M52.01,38.886H19.929A19.929,19.929,0,0,1,0,18.957V0" transform="translate(0 160.333)" fill="none" stroke="#37a044" stroke-miterlimit="10" stroke-width="1.559"/>
            <line id="Line_401" data-name="Line 401" y1="28.302" transform="translate(0 127.579)" fill="none" stroke="#37a044" stroke-miterlimit="10" stroke-width="1.559"/>
            <line id="Line_402" data-name="Line 402" y1="6.412" transform="translate(0 112.986)" fill="none" stroke="#37a044" stroke-miterlimit="10" stroke-width="1.559"/>
            <line id="Line_403" data-name="Line 403" y1="32.724" transform="translate(0 74.071)" fill="none" stroke="#37a044" stroke-miterlimit="10" stroke-width="1.559"/>
          </g>
          <circle id="Ellipse_3990" data-name="Ellipse 3990" cx="20.862" cy="20.862" r="20.862" transform="translate(109.012 95.276) rotate(45)" fill="none" stroke="#37a044" stroke-miterlimit="10" stroke-width="1.559"/>
          <circle id="Ellipse_3991" data-name="Ellipse 3991" cx="37.81" cy="37.81" r="37.81" transform="translate(225.586 129.979) rotate(45)" fill="none" stroke="#37a044" stroke-miterlimit="10" stroke-width="1.559"/>
          <path id="Path_51178" data-name="Path 51178" d="M29.628,14.814A14.814,14.814,0,1,0,14.814,29.628,14.814,14.814,0,0,0,29.628,14.814Z" transform="translate(252.03 261.866)" fill="none" stroke="#37a044" stroke-miterlimit="10" stroke-width="1.559"/>
          <path id="Path_51179" data-name="Path 51179" d="M17.059,34.117A17.058,17.058,0,1,0,0,17.059" transform="translate(208.527 166.392)" fill="none" stroke="#37a044" stroke-miterlimit="10" stroke-width="1.559"/>
          <path id="Path_51180" data-name="Path 51180" d="M17.058,34.117A17.058,17.058,0,1,1,34.117,17.058" transform="translate(108.332 268.666)" fill="none" stroke="#37a044" stroke-miterlimit="10" stroke-width="1.559"/>
          <path id="Path_51181" data-name="Path 51181" d="M22.266,11.133A11.133,11.133,0,1,0,11.133,22.266,11.133,11.133,0,0,0,22.266,11.133Z" transform="translate(170.759 68.982)" fill="none" stroke="#37a044" stroke-miterlimit="10" stroke-width="1.559"/>
          <line id="Line_404" data-name="Line 404" x1="84.611" transform="translate(140.975 183.45)" fill="none" stroke="#37a044" stroke-miterlimit="10" stroke-width="1.559"/>
          <line id="Line_405" data-name="Line 405" x1="11.498" transform="translate(120.338 183.45)" fill="none" stroke="#37a044" stroke-miterlimit="10" stroke-width="1.559"/>
          <line id="Line_406" data-name="Line 406" x1="69.87" transform="translate(25.704 183.45)" fill="none" stroke="#37a044" stroke-miterlimit="10" stroke-width="1.559"/>
          <line id="Line_407" data-name="Line 407" x1="22.258" transform="translate(161.022 50.707)" fill="none" stroke="#37a044" stroke-miterlimit="10" stroke-width="1.559"/>
          <line id="Line_408" data-name="Line 408" x1="90.212" transform="translate(62.408 50.707)" fill="none" stroke="#37a044" stroke-miterlimit="10" stroke-width="1.559"/>
          <line id="Line_409" data-name="Line 409" x1="150.964" transform="translate(91.68 25.354)" fill="none" stroke="#3089bb" stroke-miterlimit="10" stroke-width="1.559"/>
          <line id="Line_410" data-name="Line 410" x1="91.671" transform="translate(175.173 276.68)" fill="none" stroke="#3089bb" stroke-miterlimit="10" stroke-width="1.559"/>
          <line id="Line_411" data-name="Line 411" x2="64.211" transform="translate(252.03 183.45)" fill="none" stroke="#3089bb" stroke-miterlimit="10" stroke-width="0.78"/>
          <line id="Line_412" data-name="Line 412" x2="11.055" transform="translate(325.969 183.45)" fill="none" stroke="#3089bb" stroke-miterlimit="10" stroke-width="0.78"/>
          <line id="Line_413" data-name="Line 413" x2="53.422" transform="translate(181.892 80.115)" fill="none" stroke="#3089bb" stroke-miterlimit="10" stroke-width="0.78"/>
          <line id="Line_414" data-name="Line 414" y2="52.052" transform="translate(125.391 285.724)" fill="none" stroke="#3089bb" stroke-miterlimit="10" stroke-width="0.78"/>
          <ellipse id="Ellipse_3992" data-name="Ellipse 3992" cx="2.506" cy="2.506" rx="2.506" ry="2.506" transform="translate(299.436 239.759)" fill="none" stroke="#37a044" stroke-miterlimit="10" stroke-width="0.78"/>
          <ellipse id="Ellipse_3993" data-name="Ellipse 3993" cx="2.506" cy="2.506" rx="2.506" ry="2.506" transform="translate(291.476 239.759)" fill="none" stroke="#37a044" stroke-miterlimit="10" stroke-width="0.78"/>
          <ellipse id="Ellipse_3994" data-name="Ellipse 3994" cx="2.506" cy="2.506" rx="2.506" ry="2.506" transform="translate(283.516 239.759)" fill="none" stroke="#37a044" stroke-miterlimit="10" stroke-width="0.78"/>
          <ellipse id="Ellipse_3995" data-name="Ellipse 3995" cx="2.506" cy="2.506" rx="2.506" ry="2.506" transform="translate(275.556 239.759)" fill="none" stroke="#37a044" stroke-miterlimit="10" stroke-width="0.78"/>
          <ellipse id="Ellipse_3996" data-name="Ellipse 3996" cx="2.506" cy="2.506" rx="2.506" ry="2.506" transform="translate(122.885 340.872)" fill="none" stroke="#37a044" stroke-miterlimit="10" stroke-width="0.78"/>
          <ellipse id="Ellipse_3997" data-name="Ellipse 3997" cx="8.457" cy="8.457" rx="8.457" ry="8.457" transform="translate(0 174.993)" fill="none" stroke="#3089bb" stroke-miterlimit="10" stroke-width="1.559"/>
          <ellipse id="Ellipse_3998" data-name="Ellipse 3998" cx="5.749" cy="5.749" rx="5.749" ry="5.749" transform="translate(303.415 270.931)" fill="none" stroke="#37a044" stroke-miterlimit="10" stroke-width="0.78"/>
          <path id="Path_51182" data-name="Path 51182" d="M26.829,13.414A13.415,13.415,0,1,0,13.414,26.829,13.415,13.415,0,0,0,26.829,13.414Z" transform="translate(31.009 11.94)" fill="none" stroke="#37a044" stroke-miterlimit="10" stroke-width="1.559"/>
        </g>
      </g>
    </g>
  </g>
</svg>
