<svg xmlns="http://www.w3.org/2000/svg" width="185.885" height="185.885" viewBox="0 0 185.885 185.885">
  <g id="bx-customize" transform="translate(49.603) rotate(20)">
    <path id="Path_14674" data-name="Path 14674" d="M14.057,70.457H62.4A8.057,8.057,0,0,0,70.457,62.4V14.057A8.057,8.057,0,0,0,62.4,6H14.057A8.057,8.057,0,0,0,6,14.057V62.4A8.057,8.057,0,0,0,14.057,70.457Zm8.057-48.343H54.343V54.343H22.114ZM142.971,6H94.628a8.057,8.057,0,0,0-8.057,8.057V62.4a8.057,8.057,0,0,0,8.057,8.057h48.343a8.057,8.057,0,0,0,8.057-8.057V14.057A8.057,8.057,0,0,0,142.971,6Zm-8.057,48.343H102.686V22.114h32.229ZM62.4,151.028a8.057,8.057,0,0,0,8.057-8.057V94.628A8.057,8.057,0,0,0,62.4,86.571H14.057A8.057,8.057,0,0,0,6,94.628v48.343a8.057,8.057,0,0,0,8.057,8.057ZM22.114,102.686H54.343v32.229H22.114Zm104.743-8.057H110.743v16.114H94.628v16.114h16.114v16.114h16.114V126.857h16.114V110.743H126.857Z" transform="translate(-6 -6)" fill="rgba(248,248,248,0.75)"/>
  </g>
</svg>
