<svg xmlns="http://www.w3.org/2000/svg" xmlns:xlink="http://www.w3.org/1999/xlink" width="50" height="50" viewBox="0 0 50 50">
  <defs>
    <clipPath id="clip-path">
      <rect id="Rectangle_5354" data-name="Rectangle 5354" width="49.092" height="49.865" fill="#434343"/>
    </clipPath>
  </defs>
  <g id="Group_14219" data-name="Group 14219" transform="translate(-8350 19198)">
    <rect id="Rectangle_5356" data-name="Rectangle 5356" width="50" height="50" transform="translate(8350 -19198)" fill="none"/>
    <g id="Group_14212" data-name="Group 14212" transform="translate(8350 -19198)" clip-path="url(#clip-path)">
      <path id="Path_10783" data-name="Path 10783" d="M29.155,58.521a.948.948,0,0,1-.136-.01,23.362,23.362,0,0,1-19.77-23.1V20.646a6.628,6.628,0,0,1,5.722-6.574,96.708,96.708,0,0,1,28.369,0,6.7,6.7,0,0,1,5.667,5.718.948.948,0,0,1-1.88.244,4.8,4.8,0,0,0-4.064-4.087,94.813,94.813,0,0,0-27.813,0,4.745,4.745,0,0,0-4.1,4.7V35.411a21.46,21.46,0,0,0,18.011,21.2,21.188,21.188,0,0,0,14.456-9.306.948.948,0,1,1,1.582,1.044,23.081,23.081,0,0,1-15.9,10.158A.947.947,0,0,1,29.155,58.521Z" transform="translate(-7.496 -10.557)" fill="#434343"/>
      <path id="Path_10784" data-name="Path 10784" d="M45.366,70.869a.954.954,0,0,1-.166-.015A19.677,19.677,0,0,1,29.25,51.6V36.833a2.862,2.862,0,0,1,2.485-2.824A93.366,93.366,0,0,1,45.365,33a.948.948,0,0,1,0,1.9,91.461,91.461,0,0,0-13.351.989.979.979,0,0,0-.868.948V51.6A17.76,17.76,0,0,0,45.53,68.987a.948.948,0,0,1-.164,1.882Z" transform="translate(-23.705 -26.744)" fill="#434343"/>
      <path id="Path_51154" data-name="Path 51154" d="M133.258,137.123a.711.711,0,0,1,.728.728.668.668,0,0,1-.208.5.717.717,0,0,1-.52.2h-4.419a.694.694,0,0,1-.533-.208.748.748,0,0,1-.195-.533.808.808,0,0,1,.234-.572l2.834-3.028a4.8,4.8,0,0,0,.76-1.066,2.153,2.153,0,0,0,.279-.949,1.455,1.455,0,0,0-.377-1.046,1.317,1.317,0,0,0-1-.4,1.229,1.229,0,0,0-.507.117,2.064,2.064,0,0,0-.5.325,3.18,3.18,0,0,0-.449.481.691.691,0,0,1-.312.26.91.91,0,0,1-.286.052.773.773,0,0,1-.526-.214.652.652,0,0,1-.241-.5.726.726,0,0,1,.15-.429,3.544,3.544,0,0,1,.37-.429,3.943,3.943,0,0,1,.728-.572,3.78,3.78,0,0,1,.832-.383,2.733,2.733,0,0,1,.832-.137,3.164,3.164,0,0,1,1.514.345,2.42,2.42,0,0,1,.994.975,3.013,3.013,0,0,1,.351,1.488,3.727,3.727,0,0,1-.423,1.592,6.619,6.619,0,0,1-1.137,1.644l-1.755,1.872-.143-.117Z" transform="translate(-103.749 -104.806)" fill="#434343"/>
      <path id="Path_51155" data-name="Path 51155" d="M176.859,139.515a3.909,3.909,0,0,1-1.027-.149,2.4,2.4,0,0,1-.9-.435.981.981,0,0,1-.267-.37,1.1,1.1,0,0,1-.1-.435.592.592,0,0,1,.188-.416.715.715,0,0,1,.539-.2,1.1,1.1,0,0,1,.585.247,3.2,3.2,0,0,0,.455.234,1.292,1.292,0,0,0,.507.1,2.385,2.385,0,0,0,1.079-.227,1.683,1.683,0,0,0,.7-.63,1.781,1.781,0,0,0,.247-.949,1.521,1.521,0,0,0-.227-.845,1.578,1.578,0,0,0-.6-.546,1.692,1.692,0,0,0-.8-.195,1.75,1.75,0,0,0-.7.13q-.3.13-.546.267a1.017,1.017,0,0,1-.494.136.923.923,0,0,1-.637-.188.8.8,0,0,1-.26-.448,1.459,1.459,0,0,1-.026-.468l.4-3.158a.741.741,0,0,1,.266-.448.785.785,0,0,1,.513-.176h3.756a.711.711,0,0,1,.728.728.669.669,0,0,1-.208.5.718.718,0,0,1-.52.2H176.17l.143-.117-.351,2.638-.169-.494a.737.737,0,0,1,.338-.247,3.562,3.562,0,0,1,.6-.2,2.729,2.729,0,0,1,.663-.085,3.071,3.071,0,0,1,1.56.4,2.918,2.918,0,0,1,1.085,1.079,3.012,3.012,0,0,1,.4,1.54,3.216,3.216,0,0,1-.442,1.7,2.946,2.946,0,0,1-1.241,1.124,4.211,4.211,0,0,1-1.891.4" transform="translate(-141.475 -105.639)" fill="#434343"/>
      <path id="Path_51156" data-name="Path 51156" d="M222.941,139.071a2.717,2.717,0,0,1-1.267-.293,2.9,2.9,0,0,1-.962-.8,3.811,3.811,0,0,1-.611-1.144,4.081,4.081,0,0,1-.215-1.313,7.082,7.082,0,0,1,.1-1.066,7.19,7.19,0,0,1,.344-1.313,5.944,5.944,0,0,1,.689-1.339,5.018,5.018,0,0,1,1.124-1.17,4.861,4.861,0,0,1,1.67-.793,1.24,1.24,0,0,1,.3-.039.973.973,0,0,1,.54.156.631.631,0,0,1,.24.572.735.735,0,0,1-.188.5,1.031,1.031,0,0,1-.5.305,3.977,3.977,0,0,0-.877.383,4.074,4.074,0,0,0-.806.617,3.865,3.865,0,0,0-.637.825,3.47,3.47,0,0,0-.383.994l-.351-.013a5.419,5.419,0,0,1,.448-.475,2.594,2.594,0,0,1,.65-.442,2.031,2.031,0,0,1,.9-.188,2.36,2.36,0,0,1,1.007.234,3.213,3.213,0,0,1,1.566,1.605,2.853,2.853,0,0,1,.247,1.176,2.92,2.92,0,0,1-.41,1.521,3.062,3.062,0,0,1-1.092,1.092,2.947,2.947,0,0,1-1.527.4m0-1.43a1.375,1.375,0,0,0,.747-.208,1.491,1.491,0,0,0,.526-.572,1.777,1.777,0,0,0,0-1.618,1.507,1.507,0,0,0-.526-.566,1.447,1.447,0,0,0-1.495,0,1.507,1.507,0,0,0-.526.566,1.777,1.777,0,0,0,0,1.618,1.491,1.491,0,0,0,.526.572,1.374,1.374,0,0,0,.747.208" transform="translate(-178.2 -105.195)" fill="#434343"/>
      <path id="Path_51157" data-name="Path 51157" d="M130.463,77.427a3.021,3.021,0,0,1-1.891-.591,3.649,3.649,0,0,1-1.176-1.651,7.593,7.593,0,0,1,0-4.881,3.654,3.654,0,0,1,1.176-1.644,3.319,3.319,0,0,1,3.782,0A3.656,3.656,0,0,1,133.53,70.3a7.593,7.593,0,0,1,0,4.881,3.652,3.652,0,0,1-1.176,1.651,3.021,3.021,0,0,1-1.891.591m0-1.56a1.389,1.389,0,0,0,.942-.344,2.242,2.242,0,0,0,.617-1.04,6.952,6.952,0,0,0,0-3.477,2.244,2.244,0,0,0-.617-1.033,1.453,1.453,0,0,0-1.878,0,2.211,2.211,0,0,0-.624,1.033,6.952,6.952,0,0,0,0,3.477,2.209,2.209,0,0,0,.624,1.04,1.4,1.4,0,0,0,.936.344" transform="translate(-102.916 -55.164)" fill="#434343"/>
      <path id="Path_51158" data-name="Path 51158" d="M181.518,77.853a.821.821,0,0,1-.6-.228.756.756,0,0,1-.234-.565V70.51l.182.286-.949.7a.712.712,0,0,1-.455.143.748.748,0,0,1-.546-.234.762.762,0,0,1-.234-.559.779.779,0,0,1,.4-.676l1.872-1.248a.851.851,0,0,1,.292-.13,1.312,1.312,0,0,1,.305-.039.8.8,0,0,1,.6.228.779.779,0,0,1,.221.565v7.513a.746.746,0,0,1-.24.565.862.862,0,0,1-.617.228" transform="translate(-144.809 -55.72)" fill="#434343"/>
      <path id="Path_51159" data-name="Path 51159" d="M221.165,77.427a3.021,3.021,0,0,1-1.891-.591,3.649,3.649,0,0,1-1.176-1.651,7.593,7.593,0,0,1,0-4.881,3.654,3.654,0,0,1,1.176-1.644,3.319,3.319,0,0,1,3.782,0,3.657,3.657,0,0,1,1.176,1.644,7.593,7.593,0,0,1,0,4.881,3.652,3.652,0,0,1-1.176,1.651,3.021,3.021,0,0,1-1.891.591m0-1.56a1.389,1.389,0,0,0,.942-.344,2.242,2.242,0,0,0,.617-1.04,6.952,6.952,0,0,0,0-3.477,2.244,2.244,0,0,0-.617-1.033,1.453,1.453,0,0,0-1.878,0,2.211,2.211,0,0,0-.624,1.033,6.952,6.952,0,0,0,0,3.477,2.209,2.209,0,0,0,.624,1.04,1.4,1.4,0,0,0,.936.344" transform="translate(-176.423 -55.164)" fill="#434343"/>
    </g>
  </g>
</svg>
