<svg xmlns="http://www.w3.org/2000/svg" xmlns:xlink="http://www.w3.org/1999/xlink" width="50" height="50" viewBox="0 0 50 50">
  <defs>
    <clipPath id="clip-path">
      <rect id="Rectangle_2375" data-name="Rectangle 2375" width="50" height="45.243" rx="13" fill="#434343" stroke="#434343" stroke-width="1"/>
    </clipPath>
  </defs>
  <g id="Group_14220" data-name="Group 14220" transform="translate(-8531 19196)">
    <rect id="Rectangle_5357" data-name="Rectangle 5357" width="50" height="50" transform="translate(8531 -19196)" fill="none"/>
    <g id="Group_14213" data-name="Group 14213" transform="translate(8533 -19191)">
      <g id="Group_6606" data-name="Group 6606" transform="translate(-2 -3)" clip-path="url(#clip-path)">
        <path id="Path_10791" data-name="Path 10791" d="M.286,32.723a.46.46,0,0,0-.079.044.468.468,0,0,0-.073.058.452.452,0,0,0-.052.065.467.467,0,0,0-.048.087c0,.012-.015.021-.019.034a.445.445,0,0,0-.005.047.47.47,0,0,0-.01.1.454.454,0,0,0,.01.1.446.446,0,0,0,.005.047c0,.009.012.012.015.02a.46.46,0,0,0,.15.209c.011.009.026.013.038.021a.455.455,0,0,0,.1.057l23.1,7.3a.469.469,0,0,0,.284,0l23.1-7.3a.455.455,0,0,0,.1-.057c.012-.008.027-.012.038-.021a.46.46,0,0,0,.15-.209c0-.008.012-.012.015-.02a.446.446,0,0,0,.005-.047.454.454,0,0,0,.01-.1.469.469,0,0,0-.01-.1.445.445,0,0,0-.005-.047c0-.013-.014-.022-.019-.034a.467.467,0,0,0-.047-.085.458.458,0,0,0-.055-.069.463.463,0,0,0-.067-.054.452.452,0,0,0-.085-.047c-.013-.005-.022-.015-.035-.019l-6.44-2.036L46.8,28.63a.454.454,0,0,0,.1-.057c.012-.008.027-.012.038-.021a.46.46,0,0,0,.15-.209c0-.008.012-.012.015-.02a.448.448,0,0,0,.005-.047.454.454,0,0,0,.01-.1.47.47,0,0,0-.01-.1.445.445,0,0,0-.005-.047c0-.013-.014-.022-.019-.034a.467.467,0,0,0-.047-.085.386.386,0,0,0-.122-.123.45.45,0,0,0-.085-.047c-.013-.005-.022-.015-.035-.019L40.357,25.7,46.8,23.66a.453.453,0,0,0,.1-.057c.012-.008.027-.012.038-.021a.46.46,0,0,0,.15-.209c0-.008.012-.012.015-.02a.445.445,0,0,0,.005-.047.453.453,0,0,0,.01-.1.47.47,0,0,0-.01-.1.443.443,0,0,0-.005-.047c0-.013-.014-.022-.019-.034a.465.465,0,0,0-.047-.085.386.386,0,0,0-.122-.123.45.45,0,0,0-.085-.047c-.013-.005-.022-.015-.035-.019l-16.19-5.117a12.116,12.116,0,0,0,2.149-5.463l1.126-8.789C33.885.887,28.323,0,23.561,0S13.236.887,13.236,3.392a.508.508,0,0,0,0,.06l1.123,8.729a12.116,12.116,0,0,0,2.149,5.463L.322,22.762c-.014,0-.024.015-.037.02a.46.46,0,0,0-.079.044.47.47,0,0,0-.073.057.452.452,0,0,0-.052.065.466.466,0,0,0-.048.087c0,.012-.015.021-.019.034a.443.443,0,0,0-.005.047.47.47,0,0,0-.01.1.454.454,0,0,0,.01.1.445.445,0,0,0,.005.047c0,.009.012.012.015.02a.46.46,0,0,0,.15.209c.011.009.026.013.038.021a.454.454,0,0,0,.1.057L6.764,25.7.322,27.732c-.014,0-.024.015-.037.02a.463.463,0,0,0-.079.044.468.468,0,0,0-.073.058.452.452,0,0,0-.052.065.466.466,0,0,0-.048.087c0,.012-.015.021-.019.034a.444.444,0,0,0-.005.047.471.471,0,0,0-.01.1.454.454,0,0,0,.01.1.447.447,0,0,0,.005.047c0,.009.012.012.015.02a.46.46,0,0,0,.15.209c.011.009.026.013.038.021a.455.455,0,0,0,.1.057l6.44,2.036L.322,32.7a.4.4,0,0,0-.037.02M15.3,12.062l-1.118-8.7C14.232,2,18.334.942,23.561.942c5.261,0,9.381,1.076,9.385,2.391l-1.123,8.729a11.167,11.167,0,0,1-4.355,7.479l-3.907,2.927L19.653,19.54A11.167,11.167,0,0,1,15.3,12.062M2.028,23.211l15.106-4.775A11.9,11.9,0,0,0,19.088,20.3l4.19,3.138a.472.472,0,0,0,.565,0l4.19-3.138a11.906,11.906,0,0,0,1.954-1.859l15.106,4.775L23.561,30.017Zm0,4.97,6.3-1.991,10.617,3.356,4.474,1.414a.469.469,0,0,0,.284,0l15.091-4.77,6.3,1.991L23.561,34.987Zm6.3,2.979,15.092,4.77a.47.47,0,0,0,.284,0L38.8,31.16l6.3,1.991L23.561,39.958,2.028,33.151Z" transform="translate(1.439 2.16)" fill="#434343" stroke="#434343" stroke-width="1"/>
        <path id="Path_10792" data-name="Path 10792" d="M421.592,107.459h6.48a.471.471,0,0,0,.447-.619l-1.744-5.285a2.981,2.981,0,1,0-3.888,0l-1.744,5.285a.471.471,0,0,0,.447.619m2.3-5.928a.47.47,0,0,0-.186-.539,2.038,2.038,0,1,1,2.26,0,.47.47,0,0,0-.186.539l1.645,4.985h-5.177Z" transform="translate(-399.832 -89.628)" fill="#434343" stroke="#434343" stroke-width="1"/>
      </g>
    </g>
  </g>
</svg>
