<svg xmlns="http://www.w3.org/2000/svg" xmlns:xlink="http://www.w3.org/1999/xlink" width="50" height="50" viewBox="0 0 50 50">
  <defs>
    <clipPath id="clip-path">
      <rect id="Rectangle_2388" data-name="Rectangle 2388" width="39.216" height="50" fill="#434343" stroke="#434343" stroke-width="1"/>
    </clipPath>
  </defs>
  <g id="Group_14221" data-name="Group 14221" transform="translate(-8710 19199)">
    <rect id="Rectangle_5358" data-name="Rectangle 5358" width="50" height="50" transform="translate(8710 -19199)" fill="none"/>
    <g id="Group_14214" data-name="Group 14214" transform="translate(8717 -19197)">
      <g id="Group_6613" data-name="Group 6613" transform="translate(-2 -2)" clip-path="url(#clip-path)">
        <path id="Path_10821" data-name="Path 10821" d="M18.374,46.709a.707.707,0,0,1-.388-.116L7.517,39.734A16.582,16.582,0,0,1,0,25.823V6.192a.707.707,0,0,1,.5-.675L18.164.032a.709.709,0,0,1,.419,0L36.25,5.517a.707.707,0,0,1,.5.675V25.823a16.582,16.582,0,0,1-7.517,13.911L18.762,46.593a.707.707,0,0,1-.388.116m-16.958-40V25.823A15.171,15.171,0,0,0,8.293,38.551l10.081,6.6,10.081-6.6a15.171,15.171,0,0,0,6.877-12.728V6.714L18.374,1.448Z" transform="translate(1.646 1.645)" fill="#434343" stroke="#434343" stroke-width="1"/>
        <path id="Path_10822" data-name="Path 10822" d="M69.152,104.017a4.357,4.357,0,0,1-2.5-.788,9.091,9.091,0,0,1-3.867-7.436V90.785A2.82,2.82,0,0,1,65.6,87.969h7.11a2.82,2.82,0,0,1,2.816,2.816v5.008a9.091,9.091,0,0,1-3.867,7.436,4.357,4.357,0,0,1-2.5.788M65.6,88.913a1.875,1.875,0,0,0-1.873,1.873v5.008a8.146,8.146,0,0,0,3.465,6.663,3.43,3.43,0,0,0,3.924,0l.271.386-.271-.386a8.146,8.146,0,0,0,3.465-6.663V90.785a1.875,1.875,0,0,0-1.873-1.873Z" transform="translate(-49.132 -69.505)" fill="#434343" stroke="#434343" stroke-width="1"/>
        <path id="Path_10823" data-name="Path 10823" d="M85.949,70.844H81.113a.472.472,0,0,1-.472-.472V67.324a1.7,1.7,0,0,1,1.7-1.7h2.389a1.7,1.7,0,0,1,1.7,1.7v3.048a.472.472,0,0,1-.472.472M81.585,69.9h3.892V67.324a.753.753,0,0,0-.752-.752H82.337a.753.753,0,0,0-.752.752Z" transform="translate(-63.578 -51.436)" fill="#434343" stroke="#434343" stroke-width="1"/>
        <path id="Path_10824" data-name="Path 10824" d="M126.3,71.181h-1.342a.472.472,0,1,1,0-.944H126.3a2.23,2.23,0,0,0,2.227-2.227V63.619a.472.472,0,1,1,.943,0V68.01a3.175,3.175,0,0,1-3.171,3.171" transform="translate(-99.044 -49.428)" fill="#434343" stroke="#434343" stroke-width="1"/>
        <path id="Path_10825" data-name="Path 10825" d="M46.159,71.181H44.817a3.175,3.175,0,0,1-3.171-3.171V63.619a.472.472,0,0,1,.944,0V68.01a2.23,2.23,0,0,0,2.227,2.227h1.342a.472.472,0,1,1,0,.944" transform="translate(-32.038 -49.428)" fill="#434343" stroke="#434343" stroke-width="1"/>
        <path id="Path_10826" data-name="Path 10826" d="M42.118,116.97a.472.472,0,0,1-.472-.472v-4.391a3.175,3.175,0,0,1,3.171-3.171h1.342a.472.472,0,1,1,0,.944H44.817a2.23,2.23,0,0,0-2.227,2.227V116.5a.472.472,0,0,1-.472.472" transform="translate(-32.038 -86.463)" fill="#434343" stroke="#434343" stroke-width="1"/>
        <path id="Path_10827" data-name="Path 10827" d="M129,116.97a.472.472,0,0,1-.472-.472v-4.391a2.23,2.23,0,0,0-2.227-2.227h-1.342a.472.472,0,1,1,0-.944H126.3a3.175,3.175,0,0,1,3.171,3.171V116.5a.472.472,0,0,1-.472.472" transform="translate(-99.043 -86.463)" fill="#434343" stroke="#434343" stroke-width="1"/>
        <path id="Path_10828" data-name="Path 10828" d="M124.153,149.783a.472.472,0,0,1-.472-.472v-3.592a1.41,1.41,0,0,0-.411-.991l-1.556-1.556a.472.472,0,1,1,.667-.667l1.556,1.556a2.359,2.359,0,0,1,.688,1.659v3.592a.472.472,0,0,1-.472.472" transform="translate(-96.687 -113.502)" fill="#434343" stroke="#434343" stroke-width="1"/>
        <path id="Path_10829" data-name="Path 10829" d="M55.2,149.783a.472.472,0,0,1-.472-.472v-3.592a2.363,2.363,0,0,1,.687-1.659l1.556-1.556a.472.472,0,0,1,.667.667l-1.556,1.556a1.411,1.411,0,0,0-.41.991v3.592a.472.472,0,0,1-.472.472" transform="translate(-42.617 -113.502)" fill="#434343" stroke="#434343" stroke-width="1"/>
        <path id="Path_10830" data-name="Path 10830" d="M101.538,51.986a.472.472,0,0,1-.472-.472V49.781a2.189,2.189,0,0,1,2.187-2.187.472.472,0,1,1,0,.944,1.244,1.244,0,0,0-1.243,1.243v1.733a.472.472,0,0,1-.472.472" transform="translate(-80.098 -36.849)" fill="#434343" stroke="#434343" stroke-width="1"/>
        <path id="Path_10831" data-name="Path 10831" d="M79.423,51.986a.472.472,0,0,1-.472-.472V49.781a1.244,1.244,0,0,0-1.243-1.243.472.472,0,1,1,0-.944,2.189,2.189,0,0,1,2.187,2.187v1.733a.472.472,0,0,1-.472.472" transform="translate(-60.824 -36.849)" fill="#434343" stroke="#434343" stroke-width="1"/>
        <path id="Path_10832" data-name="Path 10832" d="M94.108,8.614a.472.472,0,0,1-.472-.472V1.7a.472.472,0,0,1,.944,0V8.142a.472.472,0,0,1-.472.472" transform="translate(-74.088 0.65)" fill="#434343" stroke="#434343" stroke-width="1"/>
        <path id="Path_10833" data-name="Path 10833" d="M94.108,195.529a.472.472,0,0,1-.472-.472v-10.3a.472.472,0,0,1,.944,0v10.3a.472.472,0,0,1-.472.472" transform="translate(-74.088 -147.41)" fill="#434343" stroke="#434343" stroke-width="1"/>
      </g>
    </g>
  </g>
</svg>
