<svg xmlns="http://www.w3.org/2000/svg" xmlns:xlink="http://www.w3.org/1999/xlink" width="50" height="50" viewBox="0 0 50 50">
  <defs>
    <clipPath id="clip-path">
      <rect id="Rectangle_5355" data-name="Rectangle 5355" width="50" height="38.766" fill="#434343"/>
    </clipPath>
  </defs>
  <g id="Group_14222" data-name="Group 14222" transform="translate(-8877 19168)">
    <rect id="Rectangle_5359" data-name="Rectangle 5359" width="50" height="50" transform="translate(8877 -19168)" fill="none"/>
    <g id="Group_14215" data-name="Group 14215" transform="translate(8877 -19162)" clip-path="url(#clip-path)">
      <path id="Path_51160" data-name="Path 51160" d="M17.128,38.767H12.509a11.973,11.973,0,0,1-6.127-1.6c-5.111-3.036-6.289-7-6.377-9.8-.169-5.358,3.414-10.3,6.814-12.619C12.938,10.567,10.731,1.03,10.708.934a.758.758,0,0,1,1.209-.77c.306.243,7.446,6.1,4.384,19.055-.808,3.416-.373,5.874,1.194,6.745a3.6,3.6,0,0,0,4.1-.856,3.541,3.541,0,0,0,.414-4.521.758.758,0,0,1,1.119-.975c.214.164,5.252,4.059,5.494,9.11a8.705,8.705,0,0,1-3.193,6.9,12.13,12.13,0,0,1-8.3,3.146M12.563,3.107c.3,3.438.036,9.527-4.889,12.89-3.07,2.1-6.3,6.533-6.154,11.321.109,3.463,2.058,6.419,5.637,8.545a10.471,10.471,0,0,0,5.353,1.389h4.619A10.625,10.625,0,0,0,24.4,34.51a7.27,7.27,0,0,0,2.71-5.71,10.528,10.528,0,0,0-2.973-6.144,4.828,4.828,0,0,1-1.468,3.522,5.081,5.081,0,0,1-5.91,1.111c-1.295-.719-3.267-2.77-1.932-8.418,1.944-8.223-.47-13.311-2.262-15.763" transform="translate(0 0)" fill="#434343"/>
      <path id="Path_51161" data-name="Path 51161" d="M122.84,72.937H103.49a.758.758,0,0,1,0-1.515h19.35a1.264,1.264,0,0,0,1.263-1.263V45.741a1.264,1.264,0,0,0-1.263-1.263H95.834a.758.758,0,1,1,0-1.515H122.84a2.781,2.781,0,0,1,2.778,2.778V70.159a2.781,2.781,0,0,1-2.778,2.778" transform="translate(-75.618 -34.17)" fill="#434343"/>
      <path id="Path_51162" data-name="Path 51162" d="M125.842,74.559H96.815a.505.505,0,0,1,0-1.01h29.027a.505.505,0,1,1,0,1.01" transform="translate(-76.599 -58.497)" fill="#434343"/>
      <path id="Path_51163" data-name="Path 51163" d="M159.371,113.205h-20.4a.505.505,0,0,1,0-1.01h20.4a.505.505,0,1,1,0,1.01" transform="translate(-110.128 -89.233)" fill="#434343"/>
      <path id="Path_51164" data-name="Path 51164" d="M169.55,151.851h-17.78a.505.505,0,0,1,0-1.01h17.78a.505.505,0,0,1,0,1.01" transform="translate(-120.308 -119.97)" fill="#434343"/>
      <path id="Path_51165" data-name="Path 51165" d="M188.809,51.214a.5.5,0,0,1-.505-.5V44.7a.505.505,0,0,1,1.01,0v6.007a.5.5,0,0,1-.505.5" transform="translate(-149.766 -35.152)" fill="#434343"/>
      <path id="Path_51166" data-name="Path 51166" d="M188.809,121.115a.5.5,0,0,1-.505-.505V112.7a.505.505,0,0,1,1.01,0v7.909a.5.5,0,0,1-.505.505" transform="translate(-149.766 -89.234)" fill="#434343"/>
      <path id="Path_51167" data-name="Path 51167" d="M138.972,51.214a.5.5,0,0,1-.505-.5V44.7a.505.505,0,0,1,1.01,0v6.007a.5.5,0,0,1-.505.5" transform="translate(-110.128 -35.152)" fill="#434343"/>
      <path id="Path_51168" data-name="Path 51168" d="M213.726,82.469a.5.5,0,0,1-.505-.505V74.055a.505.505,0,0,1,1.01,0v7.909a.5.5,0,0,1-.505.505" transform="translate(-169.583 -58.497)" fill="#434343"/>
      <path id="Path_51169" data-name="Path 51169" d="M163.89,82.469a.5.5,0,0,1-.505-.505V74.055a.505.505,0,0,1,1.01,0v7.909a.5.5,0,0,1-.5.505" transform="translate(-129.947 -58.497)" fill="#434343"/>
      <path id="Path_51170" data-name="Path 51170" d="M213.726,158.484a.5.5,0,0,1-.505-.505v-6.633a.505.505,0,0,1,1.01,0v6.633a.5.5,0,0,1-.505.505" transform="translate(-169.583 -119.97)" fill="#434343"/>
      <path id="Path_51171" data-name="Path 51171" d="M163.89,158.484a.5.5,0,0,1-.505-.505v-6.633a.505.505,0,1,1,1.01,0v6.633a.5.5,0,0,1-.5.505" transform="translate(-129.947 -119.97)" fill="#434343"/>
    </g>
  </g>
</svg>
