<svg xmlns="http://www.w3.org/2000/svg" xmlns:xlink="http://www.w3.org/1999/xlink" width="50" height="50" viewBox="0 0 50 50">
  <defs>
    <clipPath id="clip-path">
      <rect id="Rectangle_2518" data-name="Rectangle 2518" width="50" height="47.384" fill="#434343"/>
    </clipPath>
  </defs>
  <g id="Group_14223" data-name="Group 14223" transform="translate(-9044 19164)">
    <rect id="Rectangle_5360" data-name="Rectangle 5360" width="50" height="50" transform="translate(9044 -19164)" fill="none"/>
    <g id="Group_14216" data-name="Group 14216" transform="translate(9044 -19163)">
      <g id="Group_6696" data-name="Group 6696" clip-path="url(#clip-path)">
        <path id="Path_10866" data-name="Path 10866" d="M41.132,96.14a1.337,1.337,0,0,1-.738-.222,14.727,14.727,0,0,1-.134-24.507,1.341,1.341,0,1,1,1.5,2.223,12.044,12.044,0,0,0,.11,20.045,1.342,1.342,0,0,1-.74,2.461" transform="translate(-26.219 -55.267)" fill="#434343"/>
        <path id="Path_10867" data-name="Path 10867" d="M11.075,83.717a1.334,1.334,0,0,1-.717-.209A22.279,22.279,0,0,1,8.632,47.076a1.342,1.342,0,0,1,1.645,2.12A19.6,19.6,0,0,0,11.8,81.243a1.342,1.342,0,0,1-.72,2.474" transform="translate(0 -36.333)" fill="#434343"/>
        <path id="Path_10868" data-name="Path 10868" d="M152.276,96.141a1.342,1.342,0,0,1-.74-2.461,12.044,12.044,0,0,0,.11-20.045,1.341,1.341,0,1,1,1.5-2.223,14.727,14.727,0,0,1-.134,24.507,1.335,1.335,0,0,1-.738.222" transform="translate(-117.188 -55.267)" fill="#434343"/>
        <path id="Path_10869" data-name="Path 10869" d="M169.438,83.717a1.342,1.342,0,0,1-.72-2.474A19.6,19.6,0,0,0,170.236,49.2a1.342,1.342,0,0,1,1.645-2.12,22.279,22.279,0,0,1-1.726,36.432,1.334,1.334,0,0,1-.717.209" transform="translate(-130.514 -36.333)" fill="#434343"/>
        <path id="Path_10870" data-name="Path 10870" d="M102.911,27.922a2.621,2.621,0,0,1-.893,1.991,2.962,2.962,0,0,1-2.077.829,2.708,2.708,0,0,1-1.97-.818A2.73,2.73,0,0,1,98,25.974a3.014,3.014,0,0,1,2.109-.786,2.744,2.744,0,0,1,1.991.786,2.609,2.609,0,0,1,.808,1.948M102.76,3.854q0,.883-.409,5.3L101.145,21.98q-.108,1.1-1.033,1.1-.947,0-1.055-1.1L97.7,9.149q-.409-4-.409-5.145,0-4,2.863-4a2.235,2.235,0,0,1,2.11,1.421,5.2,5.2,0,0,1,.495,2.433" transform="translate(-75.423)" fill="#434343"/>
      </g>
    </g>
  </g>
</svg>
