<svg xmlns="http://www.w3.org/2000/svg" xmlns:xlink="http://www.w3.org/1999/xlink" width="50" height="50" viewBox="0 0 50 50">
  <defs>
    <clipPath id="clip-path">
      <rect id="Rectangle_2375" data-name="Rectangle 2375" width="50" height="45.243" rx="13" fill="#434343" stroke="#bebebe" stroke-width="1"/>
    </clipPath>
  </defs>
  <g id="Group_14224" data-name="Group 14224" transform="translate(-9217 19161)">
    <rect id="Rectangle_5361" data-name="Rectangle 5361" width="50" height="50" transform="translate(9217 -19161)" fill="none"/>
    <g id="Group_14218" data-name="Group 14218" transform="translate(9217 -19159)">
      <g id="Group_6606" data-name="Group 6606" transform="translate(0 0)" clip-path="url(#clip-path)">
        <path id="Path_10791" data-name="Path 10791" d="M.286,35.109a.46.46,0,0,0-.079.044.468.468,0,0,0-.073.058.452.452,0,0,0-.052.065.467.467,0,0,0-.048.087c0,.012-.015.021-.019.034a.445.445,0,0,0-.005.047.47.47,0,0,0-.01.1.454.454,0,0,0,.01.1.446.446,0,0,0,.005.047c0,.009.012.012.015.02a.46.46,0,0,0,.15.209c.011.009.026.013.038.021a.455.455,0,0,0,.1.057l23.1,7.3a.469.469,0,0,0,.284,0l23.1-7.3a.455.455,0,0,0,.1-.057c.012-.008.027-.012.038-.021a.46.46,0,0,0,.15-.209c0-.008.012-.012.015-.02a.444.444,0,0,0,.005-.047.454.454,0,0,0,.01-.1.469.469,0,0,0-.01-.1.443.443,0,0,0-.005-.047c0-.013-.014-.022-.019-.034a.468.468,0,0,0-.047-.085.459.459,0,0,0-.055-.069.464.464,0,0,0-.067-.054.453.453,0,0,0-.085-.047c-.013-.005-.022-.015-.035-.019l-6.44-2.036,6.44-2.036a.455.455,0,0,0,.1-.057c.012-.008.027-.012.038-.021a.461.461,0,0,0,.15-.209c0-.008.012-.012.015-.02a.446.446,0,0,0,.005-.047.454.454,0,0,0,.01-.1.47.47,0,0,0-.01-.1.443.443,0,0,0-.005-.047c0-.013-.014-.022-.019-.034a.467.467,0,0,0-.047-.085.386.386,0,0,0-.122-.123.45.45,0,0,0-.085-.047c-.013-.005-.022-.015-.035-.019l-6.441-2.036L46.8,26.046a.453.453,0,0,0,.1-.057c.012-.008.027-.012.038-.021a.46.46,0,0,0,.15-.209c0-.008.012-.012.015-.02a.443.443,0,0,0,.005-.047.453.453,0,0,0,.01-.1.47.47,0,0,0-.01-.1.441.441,0,0,0-.005-.047c0-.013-.014-.022-.019-.034a.466.466,0,0,0-.047-.085.386.386,0,0,0-.122-.123.45.45,0,0,0-.085-.047c-.013-.005-.022-.015-.035-.019l-13.979-4.5-1-7.054-2.881-2.6-4.3-2.479-8.52,3.838-1.564,8.3L.322,25.148c-.014,0-.024.015-.037.02a.461.461,0,0,0-.079.044.47.47,0,0,0-.073.057.452.452,0,0,0-.052.065.466.466,0,0,0-.048.087c0,.012-.015.021-.019.034A.443.443,0,0,0,.01,25.5a.47.47,0,0,0-.01.1.454.454,0,0,0,.01.1.445.445,0,0,0,.005.047c0,.009.012.012.015.02a.46.46,0,0,0,.15.209c.011.009.026.013.038.021a.454.454,0,0,0,.1.057l6.441,2.036L.322,30.118c-.014,0-.024.015-.037.02a.464.464,0,0,0-.079.044.468.468,0,0,0-.073.058.452.452,0,0,0-.052.065.466.466,0,0,0-.048.087c0,.012-.015.021-.019.034a.444.444,0,0,0-.005.047.47.47,0,0,0-.01.1.454.454,0,0,0,.01.1.447.447,0,0,0,.005.047c0,.009.012.012.015.02a.46.46,0,0,0,.15.209c.011.009.026.013.038.021a.455.455,0,0,0,.1.057l6.44,2.036L.322,35.089a.4.4,0,0,0-.037.02M2.028,25.6,14.9,21.548l.221-1.851.7-5.476,4.619-4.666,5.518-.23,4.323,1.669L31.82,14.74l.158,5.907.491,1.083L45.093,25.6,23.561,32.4Zm0,4.97,6.3-1.991,10.617,3.356,4.474,1.414a.469.469,0,0,0,.284,0l15.091-4.77,6.3,1.991L23.561,37.374Zm6.3,2.979,15.092,4.771a.469.469,0,0,0,.284,0L38.8,33.547l6.3,1.991L23.561,42.344,2.028,35.538Z" transform="translate(1.44 -0.226)" fill="#434343" stroke="#434343" stroke-width="1"/>
        <path id="Icon_material-settings-backup-restore" data-name="Icon material-settings-backup-restore" d="M12.956,4.5a9.717,9.717,0,0,0-9.717,9.717H0l4.319,4.319,4.319-4.319H5.4a7.563,7.563,0,1,1,3.174,6.154L7.039,21.925A9.717,9.717,0,1,0,12.956,4.5Z" transform="translate(12.344 3.057)" fill="#434343"/>
      </g>
    </g>
  </g>
</svg>
