<svg xmlns="http://www.w3.org/2000/svg" width="50" height="50" viewBox="0 0 50 50">
  <g id="Group_14225" data-name="Group 14225" transform="translate(-9377 19165)">
    <rect id="Rectangle_5362" data-name="Rectangle 5362" width="50" height="50" transform="translate(9377 -19165)" fill="none"/>
    <path id="Union_40" data-name="Union 40" d="M3230.577,5476a3.591,3.591,0,0,1-3.577-3.6v-29.029a3.589,3.589,0,0,1,3.577-3.594h14.444a3.59,3.59,0,0,1,3.578,3.594V5472.4a3.592,3.592,0,0,1-3.578,3.6Zm-1.238-32.625V5472.4a1.241,1.241,0,0,0,1.238,1.243h14.444a1.241,1.241,0,0,0,1.238-1.243v-29.029a1.241,1.241,0,0,0-1.238-1.243h-14.444A1.242,1.242,0,0,0,3229.34,5443.375Zm2.475,7.258a5.985,5.985,0,1,1,5.984,6.014A6.006,6.006,0,0,1,3231.815,5450.632Zm3.412-2.586a3.615,3.615,0,1,0,2.573-1.076A3.643,3.643,0,0,0,3235.227,5448.046Zm2.382-14.519a6.254,6.254,0,0,0-4.42,1.832l-1.76-1.77a8.713,8.713,0,0,1,12.361,0l-1.761,1.77A6.253,6.253,0,0,0,3237.609,5433.527Zm0-5.019a11.219,11.219,0,0,0-7.953,3.3l-1.76-1.769a13.668,13.668,0,0,1,19.416.013l-1.76,1.768A11.126,11.126,0,0,0,3237.609,5428.508Z" transform="translate(6164 -24591)" fill="#434343"/>
  </g>
</svg>
