<svg xmlns="http://www.w3.org/2000/svg" xmlns:xlink="http://www.w3.org/1999/xlink" width="50" height="50" viewBox="0 0 50 50">
  <defs>
    <clipPath id="clip-path">
      <rect id="Rectangle_2384" data-name="Rectangle 2384" width="50" height="41.686" fill="#434343"/>
    </clipPath>
  </defs>
  <g id="Group_14226" data-name="Group 14226" transform="translate(-9530 19161)">
    <rect id="Rectangle_5363" data-name="Rectangle 5363" width="50" height="50" transform="translate(9530 -19161)" fill="none"/>
    <g id="Group_14217" data-name="Group 14217" transform="translate(9530 -19157)">
      <g id="Group_6611" data-name="Group 6611" clip-path="url(#clip-path)">
        <path id="Path_10817" data-name="Path 10817" d="M91.007,58.288a6.24,6.24,0,1,1,6.24-6.24,6.248,6.248,0,0,1-6.24,6.24m0-11.656a5.416,5.416,0,1,0,5.417,5.416,5.422,5.422,0,0,0-5.417-5.416" transform="translate(-66.007 -35.022)" fill="#434343"/>
        <path id="Path_10811" data-name="Path 10811" d="M46.831,34.052H28.817a.758.758,0,0,1,0-1.515H46.831a1.656,1.656,0,0,0,1.654-1.654V3.169a1.656,1.656,0,0,0-1.654-1.654H3.169A1.656,1.656,0,0,0,1.515,3.169V30.883a1.656,1.656,0,0,0,1.654,1.654H21.183a.758.758,0,1,1,0,1.515H3.169A3.172,3.172,0,0,1,0,30.883V3.169A3.172,3.172,0,0,1,3.169,0H46.831A3.172,3.172,0,0,1,50,3.169V30.883a3.172,3.172,0,0,1-3.169,3.169" fill="#434343"/>
        <path id="Path_10812" data-name="Path 10812" d="M109.175,160h-7.634a.505.505,0,0,1,0-1.01h7.634a.505.505,0,0,1,0,1.01" transform="translate(-80.358 -126.45)" fill="#434343"/>
        <path id="Path_10813" data-name="Path 10813" d="M57.743,44.173H16.2a1.149,1.149,0,0,1-1.148-1.147V18.281A1.149,1.149,0,0,1,16.2,17.134H57.743a1.149,1.149,0,0,1,1.148,1.147V43.026a1.149,1.149,0,0,1-1.148,1.147M16.2,18.144a.137.137,0,0,0-.138.137V43.026a.137.137,0,0,0,.138.137H57.743a.137.137,0,0,0,.138-.137V18.281a.137.137,0,0,0-.138-.137Z" transform="translate(-11.971 -13.627)" fill="#434343"/>
        <path id="Path_10814" data-name="Path 10814" d="M101.461,168.132h-12.3a.757.757,0,0,1-.725-.978l2.333-7.634a.757.757,0,0,1,1.449.442l-2.033,6.655h10.252L98.4,159.962a.757.757,0,0,1,1.449-.442l2.333,7.634a.757.757,0,0,1-.724.978" transform="translate(-70.311 -126.446)" fill="#434343"/>
        <path id="Path_10815" data-name="Path 10815" d="M89.323,197.8H68.611a.758.758,0,0,1,0-1.515H89.323a.758.758,0,1,1,0,1.515" transform="translate(-53.967 -156.114)" fill="#434343"/>
        <path id="Path_10816" data-name="Path 10816" d="M60.291,60.382a20.363,20.363,0,0,1-15.745-7.416.754.754,0,0,1-.174-.482.783.783,0,0,1,.174-.493,20.423,20.423,0,0,1,31.491,0,.754.754,0,0,1,.174.482v.011a.754.754,0,0,1-.174.482,20.363,20.363,0,0,1-15.745,7.416m-14.169-7.9a18.907,18.907,0,0,0,28.339,0,18.909,18.909,0,0,0-28.339,0" transform="translate(-35.291 -35.452)" fill="#434343"/>
        <path id="Path_10818" data-name="Path 10818" d="M98.157,63.517a.436.436,0,0,1-.437-.437,4.327,4.327,0,0,1,4.322-4.322.437.437,0,0,1,0,.873,3.453,3.453,0,0,0-3.449,3.449.436.436,0,0,1-.437.437" transform="translate(-77.042 -46.055)" fill="#434343"/>
        <path id="Path_10819" data-name="Path 10819" d="M120.124,85.482a.437.437,0,0,1,0-.873,3.453,3.453,0,0,0,3.449-3.449.436.436,0,1,1,.873,0,4.327,4.327,0,0,1-4.322,4.322" transform="translate(-95.124 -64.134)" fill="#434343"/>
        <path id="Path_10820" data-name="Path 10820" d="M113.85,76.673a1.785,1.785,0,1,1,1.785-1.785,1.787,1.787,0,0,1-1.785,1.785m0-2.7a.912.912,0,1,0,.912.911.913.913,0,0,0-.912-.911" transform="translate(-88.85 -57.861)" fill="#434343"/>
      </g>
    </g>
  </g>
</svg>
