<svg xmlns="http://www.w3.org/2000/svg" width="66" height="66" viewBox="0 0 66 66">
  <g id="Group_14171" data-name="Group 14171" transform="translate(-182.177 -115.672)">
    <circle id="Ellipse_3579" data-name="Ellipse 3579" cx="33" cy="33" r="33" transform="translate(182.177 115.673)" fill="#013d8e"/>
    <g id="shield-lock" transform="translate(199.176 132.671)">
      <path id="Path_11387" data-name="Path 11387" d="M0,0H32.408V32.408H0Z" transform="translate(0.001)" fill="none"/>
      <path id="Path_11388" data-name="Path 11388" d="M18.195,34.406a1.337,1.337,0,0,1-.336-.043A21.159,21.159,0,0,1,2.872,7.915a1.337,1.337,0,0,1,1.344-.958,18.4,18.4,0,0,0,7-1.034A18.4,18.4,0,0,0,17.3,2.347a1.336,1.336,0,0,1,1.8,0,18.4,18.4,0,0,0,6.084,3.576,18.4,18.4,0,0,0,7,1.034,1.337,1.337,0,0,1,1.344.958A21.158,21.158,0,0,1,18.53,34.363,1.337,1.337,0,0,1,18.195,34.406ZM5.178,9.65A18.485,18.485,0,0,0,18.195,31.685,18.486,18.486,0,0,0,31.212,9.65a21.047,21.047,0,0,1-6.925-1.206A21.045,21.045,0,0,1,18.195,5.08,21.046,21.046,0,0,1,12.1,8.444,21.05,21.05,0,0,1,5.178,9.65Z" transform="translate(-1.991 -1.998)" fill="#fff"/>
      <path id="Ellipse_18" data-name="Ellipse 18" d="M1.674-1A2.674,2.674,0,1,1-1,1.674,2.677,2.677,0,0,1,1.674-1Z" transform="translate(14.531 13.192)" fill="#fff"/>
      <path id="Line_162" data-name="Line 162" d="M.337,5.8A1.337,1.337,0,0,1-1,4.466V.337a1.337,1.337,0,1,1,2.674,0V4.466A1.337,1.337,0,0,1,.337,5.8Z" transform="translate(15.867 15.868)" fill="#fff"/>
    </g>
  </g>
</svg>
