<svg xmlns="http://www.w3.org/2000/svg" xmlns:xlink="http://www.w3.org/1999/xlink" width="66" height="66" viewBox="0 0 66 66">
  <defs>
    <clipPath id="clip-path">
      <rect id="Rectangle_3215" data-name="Rectangle 3215" width="32.375" height="32.408" fill="#fff"/>
    </clipPath>
  </defs>
  <g id="Group_14172" data-name="Group 14172" transform="translate(-182.177 -115.672)">
    <circle id="Ellipse_3579" data-name="Ellipse 3579" cx="33" cy="33" r="33" transform="translate(182.177 115.673)" fill="#013d8e"/>
    <g id="Group_14174" data-name="Group 14174" transform="translate(198.693 132.671)">
      <g id="Group_7067" data-name="Group 7067" transform="translate(0.483)" clip-path="url(#clip-path)" style="mix-blend-mode: color-dodge;isolation: isolate">
        <path id="Path_11388" data-name="Path 11388" d="M24.822,32.408a.634.634,0,0,1-.428-.166l-4.633-4.211v1.923a.637.637,0,0,1-1.273,0V28.032l-4.632,4.211A.637.637,0,1,1,13,31.3l5.489-4.989V23.654H13.117a.637.637,0,1,1,0-1.273H31.091V3.549H7.158V5.131a.637.637,0,0,1-1.273,0V2.912a.637.637,0,0,1,.637-.637H18.488V.636a.637.637,0,0,1,1.273,0V2.276H31.728a.636.636,0,0,1,.636.637V23.017a.636.636,0,0,1-.636.637H19.761v2.657L25.25,31.3a.637.637,0,0,1-.428,1.107Zm-15.341,0a2.885,2.885,0,0,1-1.418-.367,2.366,2.366,0,0,1-.353-.246,2.267,2.267,0,0,1-1.626.612,2.269,2.269,0,0,1-2.458-2.047l.106-8.308c-.469,1.226-1.163,1.575-1.665,1.656A1.8,1.8,0,0,1,.411,23.03a1.687,1.687,0,0,1-.324-1.669L1.8,15.747c.636-2.436,2.8-1.929,3.955-1.656a5.258,5.258,0,0,0,.788.149.636.636,0,0,1,.114.016,4.568,4.568,0,0,0,1.077.113,4.216,4.216,0,0,0,3.238-1.3,17.95,17.95,0,0,1,2.716-1.887,2.078,2.078,0,0,1,2.9.677,2.133,2.133,0,0,1-.965,2.931L11.5,18l.177,12.352a1.9,1.9,0,0,1-.941,1.74A2.49,2.49,0,0,1,9.481,32.407ZM7.645,29.722a.647.647,0,0,1,.649.637.692.692,0,0,0,.4.576,1.526,1.526,0,0,0,1.4.057.645.645,0,0,0,.313-.626L10.223,17.7a.637.637,0,0,1,.245-.511l4.431-3.45c.728-.441.766-.924.581-1.244a.806.806,0,0,0-1.172-.2,16.622,16.622,0,0,0-2.537,1.766,5.383,5.383,0,0,1-4.046,1.588,5.877,5.877,0,0,1-1.307-.134,6.5,6.5,0,0,1-.957-.178c-1.467-.345-2.142-.377-2.439.763l-1.731,5.68a.466.466,0,0,0,.107.453.544.544,0,0,0,.465.224c.237-.038.488-.351.672-.836l1.28-3.877a.637.637,0,0,1,1.241.208L4.9,30.366c0,.455.613.766,1.185.766.345,0,.925-.1.925-.774A.637.637,0,0,1,7.645,29.722Zm5.456-8.76a.637.637,0,0,1-.4-1.132l4.991-4.019a.636.636,0,0,1,.588-.112l2.87.894,4.16-6.98-1.783.423A.637.637,0,1,1,23.233,8.8l3.247-.771a.636.636,0,0,1,.274,0l.026,0a.636.636,0,0,1,.723.537l.5,3.4a.637.637,0,0,1-1.259.186l-.29-1.963-4.47,7.5a.637.637,0,0,1-.736.282l-3.025-.942L13.5,20.821A.634.634,0,0,1,13.1,20.962ZM7.766,13.639a3.619,3.619,0,1,1,3.618-3.619A3.623,3.623,0,0,1,7.766,13.639Zm0-5.964a2.346,2.346,0,1,0,2.345,2.346A2.348,2.348,0,0,0,7.766,7.675Z" transform="translate(0.011 0)" fill="#fff"/>
      </g>
    </g>
  </g>
</svg>
