<svg xmlns="http://www.w3.org/2000/svg" xmlns:xlink="http://www.w3.org/1999/xlink" width="66" height="66" viewBox="0 0 66 66">
  <defs>
    <clipPath id="clip-path">
      <rect id="Rectangle_5303" data-name="Rectangle 5303" width="35" height="33" transform="translate(0.045 0)" fill="#fff"/>
    </clipPath>
  </defs>
  <g id="Group_14173" data-name="Group 14173" transform="translate(-182.177 -115.672)">
    <circle id="Ellipse_3579" data-name="Ellipse 3579" cx="33" cy="33" r="33" transform="translate(182.177 115.673)" fill="#013d8e"/>
    <g id="Group_14175" data-name="Group 14175" transform="translate(196.649 131.672)" style="mix-blend-mode: color-dodge;isolation: isolate">
      <g id="Group_14101" data-name="Group 14101" transform="translate(1.483 1.001)" clip-path="url(#clip-path)">
        <path id="Path_11388" data-name="Path 11388" d="M225,90.624V79.235l3.73.533a2.188,2.188,0,0,1,1.87,2.156v6.012a2.188,2.188,0,0,1-1.87,2.156Zm1.244-9.954v8.52l2.31-.33a.938.938,0,0,0,.8-.924V81.923a.938.938,0,0,0-.8-.924Z" transform="translate(-196.752 -68.902)" fill="#fff"/>
        <path id="Path_11389" data-name="Path 11389" d="M5.6,79.235V90.624l-3.73-.533A2.188,2.188,0,0,1,0,87.936V81.923a2.188,2.188,0,0,1,1.87-2.156ZM4.355,89.189V80.67L2.046,81a.938.938,0,0,0-.8.924v6.012a.938.938,0,0,0,.8.924Z" transform="translate(0.25 -68.902)" fill="#fff"/>
        <path id="Path_11390" data-name="Path 11390" d="M104,212.59H99.93a2.658,2.658,0,1,1,0-5.317H104a2.658,2.658,0,1,1,0,5.317Zm-4.072-4.072a1.414,1.414,0,1,0,0,2.828H104a1.414,1.414,0,1,0,0-2.828Z" transform="translate(-84.918 -181.008)" fill="#fff"/>
        <path id="Path_11391" data-name="Path 11391" d="M49.31,31.108V29.863a9.343,9.343,0,0,0,9.332-9.332V11.482A10.249,10.249,0,0,0,48.4,1.244H46.482A10.249,10.249,0,0,0,36.244,11.482V20.36H35V11.482A11.5,11.5,0,0,1,46.482,0H48.4A11.5,11.5,0,0,1,59.886,11.482v9.049A10.589,10.589,0,0,1,49.31,31.108Z" transform="translate(-30.395 0.473)" fill="#fff"/>
        <path id="Path_11392" data-name="Path 11392" d="M79.3,70.026H75.361V67.969a.5.5,0,0,0-.31-.465.509.509,0,0,0-.55.109l-1.455,1.455-2.78-2.785,1.452-1.452a.5.5,0,0,0-.356-.859H69.306V60.036h2.058a.5.5,0,0,0,.356-.86l-1.454-1.454,2.78-2.785L74.5,56.394a.508.508,0,0,0,.548.109.5.5,0,0,0,.311-.465V53.981H79.3v2.057a.5.5,0,0,0,.311.465.508.508,0,0,0,.548-.109l1.456-1.456,2.78,2.785-1.454,1.454a.5.5,0,0,0,.356.86h2.058v3.935H83.295a.5.5,0,0,0-.356.859l1.452,1.452-2.78,2.785-1.455-1.455a.509.509,0,0,0-.55-.109.5.5,0,0,0-.31.465Zm-2.691-1.244h1.447v-.813a1.748,1.748,0,0,1,2.985-1.236l.574.574,1.021-1.023-.573-.573a1.747,1.747,0,0,1,1.236-2.983h.812V61.28h-.813A1.748,1.748,0,0,1,82.057,58.3l.575-.575L81.611,56.7l-.576.576a1.747,1.747,0,0,1-2.983-1.236v-.813H76.605v.813a1.747,1.747,0,0,1-2.983,1.236l-.576-.576-1.021,1.023.575.575a1.748,1.748,0,0,1-1.236,2.985H70.55v1.447h.813A1.747,1.747,0,0,1,72.6,65.71l-.573.573,1.021,1.023.574-.574a1.748,1.748,0,0,1,2.985,1.236Z" transform="translate(-60.432 -46.791)" fill="#fff"/>
        <path id="Ellipse_18" data-name="Ellipse 18" d="M-1.889-5A3.114,3.114,0,0,1,1.222-1.889,3.114,3.114,0,0,1-1.889,1.222,3.114,3.114,0,0,1-5-1.889,3.114,3.114,0,0,1-1.889-5Zm0,4.977A1.869,1.869,0,0,0-.023-1.889,1.869,1.869,0,0,0-1.889-3.756,1.869,1.869,0,0,0-3.756-1.889,1.869,1.869,0,0,0-1.889-.023Z" transform="translate(18.786 17.102)" fill="#fff"/>
      </g>
    </g>
  </g>
</svg>
