<svg xmlns="http://www.w3.org/2000/svg" width="199.926" height="186.686" viewBox="0 0 199.926 186.686">
  <g id="certificate" transform="translate(48.845 -6.677) rotate(21)">
    <path id="Path_51130" data-name="Path 51130" d="M61.529,25.5l11,21.31,23.525,3.418L78.793,65.783,83.23,88.8l-21.7-12.948L39.827,88.8l4.437-23.019L27,50.228,51.17,46.81Z" transform="translate(68.076 55.312)" fill="rgba(248,248,248,0.75)"/>
    <path id="Path_51131" data-name="Path 51131" d="M9,24H43.529V35.51H9Z" transform="translate(17.019 51.057)" fill="rgba(248,248,248,0.75)"/>
    <path id="Path_51132" data-name="Path 51132" d="M9,18H66.548V29.51H9Z" transform="translate(17.019 34.038)" fill="rgba(248,248,248,0.75)"/>
    <path id="Path_51133" data-name="Path 51133" d="M9,12H66.548V23.51H9Z" transform="translate(17.019 17.019)" fill="rgba(248,248,248,0.75)"/>
    <path id="Path_51134" data-name="Path 51134" d="M83.567,132.6H14.51V17.51H152.624V75.057h11.51V17.51A11.51,11.51,0,0,0,152.624,6H14.51A11.51,11.51,0,0,0,3,17.51V132.6a11.51,11.51,0,0,0,11.51,11.51H83.567Z" transform="translate(0 0)" fill="rgba(248,248,248,0.75)"/>
  </g>
</svg>
