<svg xmlns="http://www.w3.org/2000/svg" width="216.854" height="268.646" viewBox="0 0 216.854 268.646">
  <path id="Path_51113" data-name="Path 51113" d="M68.289,114.839H87.437V84.153c42.715-2.7,62.109-27.74,62.109-57.69C149.546-9.133,125-21.9,87.437-27.3V-61.177c10.065,2.7,13.747,9.083,15.22,18.412h44.434c-2.946-33.632-24.058-50.08-59.654-53.026v-22.094H68.289v21.849c-37.56,2.7-60.881,24.058-60.881,53.762,0,34.123,18.166,49.589,60.881,55.726V49.293C54.787,46.348,50.123,37.51,48.9,26.217H3.48c1.718,32.4,22.34,54.99,64.809,57.936Zm35.6-82.975c0,8.838-5.646,15.22-16.448,17.43V16.643C100.448,19.589,103.885,23.762,103.885,31.864ZM51.6-45.957c0-7.856,5.646-13.747,16.693-15.711v31.423C55.033-32.946,51.6-37.364,51.6-45.957Z" transform="translate(36.007 109.585) rotate(20)" fill="rgba(243,248,255,0.75)"/>
</svg>
