<svg xmlns="http://www.w3.org/2000/svg" width="96" height="96" viewBox="0 0 96 96">
  <g id="t01" transform="translate(-560 -2319)">
    <circle id="Ellipse_3579" data-name="Ellipse 3579" cx="48" cy="48" r="48" transform="translate(560 2319)" fill="#31416c"/>
    <g id="share" transform="translate(585.001 2344.002)">
      <g id="Group_14105" data-name="Group 14105" transform="translate(-0.001 -0.002)">
        <path id="Path_51076" data-name="Path 51076" d="M39.112,2.9a4.346,4.346,0,1,0,4.346,4.346A4.346,4.346,0,0,0,39.112,2.9ZM31.869,7.243a7.243,7.243,0,1,1,1.747,4.717L14.153,21a7.24,7.24,0,0,1,0,4.357L33.616,34.4A7.243,7.243,0,1,1,32.2,36.933L12.739,27.894a7.243,7.243,0,1,1,0-9.433L32.2,9.422a7.243,7.243,0,0,1-.333-2.179ZM7.243,18.832a4.346,4.346,0,1,0,4.346,4.346A4.346,4.346,0,0,0,7.243,18.832ZM39.112,34.766a4.346,4.346,0,1,0,4.346,4.346A4.346,4.346,0,0,0,39.112,34.766Z" transform="translate(0.001 0.002)" fill="#fff"/>
      </g>
    </g>
  </g>
</svg>
