<svg xmlns="http://www.w3.org/2000/svg" width="96" height="96" viewBox="0 0 96 96">
  <g id="t03" transform="translate(-560 -2319)">
    <circle id="Ellipse_3579" data-name="Ellipse 3579" cx="48" cy="48" r="48" transform="translate(560 2319)" fill="#d95931"/>
    <g id="users-line" transform="translate(585 2345)">
      <path id="Path_16178" data-name="Path 16178" d="M24.964,25.24a7.554,7.554,0,1,0-7.631-7.631A7.643,7.643,0,0,0,24.964,25.24Zm-.156-11.992h0a4.52,4.52,0,0,1,4.516,4.516,4.439,4.439,0,0,1-8.877,0A4.49,4.49,0,0,1,24.809,13.248Z" transform="translate(-1.76 -4.907)" fill="#fff"/>
      <path id="Path_16179" data-name="Path 16179" d="M45.549,22.828a15.42,15.42,0,0,0-10.9-3.893H33.4a10.383,10.383,0,0,1-1.4,3.27,15.109,15.109,0,0,1,2.648-.156A12.953,12.953,0,0,1,42.9,24.541V35.754h3.115V23.895a2.289,2.289,0,0,0-.146-.617A1.455,1.455,0,0,0,45.549,22.828Z" transform="translate(0.705 -3.43)" fill="#fff"/>
      <path id="Path_16180" data-name="Path 16180" d="M31.514,11.184a3.8,3.8,0,1,1,7.008,2.959A3.887,3.887,0,0,1,35.1,16.479a2.65,2.65,0,0,1-1.09-.156,11.033,11.033,0,0,1,.156,2.18v.934c.311,0,.623.156.934.156a6.931,6.931,0,1,0,.156-13.86A6.678,6.678,0,0,0,29.333,9.16a6.649,6.649,0,0,1,2.18,2.025Z" transform="translate(0.256 -5.646)" fill="#fff"/>
      <path id="Path_16181" data-name="Path 16181" d="M18.016,22.339a10.383,10.383,0,0,1-1.4-3.27H15.369a16.024,16.024,0,0,0-10.9,3.738,1.067,1.067,0,0,0-.358.368A1.279,1.279,0,0,0,4,23.708V35.732H7.115V24.519a13.238,13.238,0,0,1,8.254-2.492A13.715,13.715,0,0,1,18.016,22.339Z" transform="translate(-4 -3.408)" fill="#fff"/>
      <path id="Path_16182" data-name="Path 16182" d="M14.732,19.451a1.975,1.975,0,0,0,.934-.156V18.36a9.577,9.577,0,0,1,.156-2.18,2.65,2.65,0,0,1-1.09.156,3.738,3.738,0,1,1,0-7.475A3.935,3.935,0,0,1,18.314,11.2a15.5,15.5,0,0,1,2.336-2.18,6.918,6.918,0,1,0-5.918,10.434Z" transform="translate(-3.363 -5.659)" fill="#fff"/>
      <path id="Path_16183" data-name="Path 16183" d="M38.414,31.053a.929.929,0,0,0-.319-.424,15.718,15.718,0,0,0-12.147-5.3,16.043,16.043,0,0,0-12.3,5.3l-.311.467V42.933a2.625,2.625,0,0,0,2.648,2.648H35.915a2.729,2.729,0,0,0,2.648-2.648l-.148-11.28A1.369,1.369,0,0,0,38.414,31.053ZM35.292,42.465H16.448V32.187a13.291,13.291,0,0,1,9.5-3.738,12.56,12.56,0,0,1,9.344,3.738Z" transform="translate(-2.432 -2.354)" fill="#fff"/>
    </g>
  </g>
</svg>
