<svg xmlns="http://www.w3.org/2000/svg" width="96" height="96" viewBox="0 0 96 96">
  <g id="t04" transform="translate(-560 -2319)">
    <circle id="Ellipse_3579" data-name="Ellipse 3579" cx="48" cy="48" r="48" transform="translate(560 2319)" fill="#72d6d2"/>
    <g id="Group_14115" data-name="Group 14115" transform="translate(848.874 1948.519)">
      <path id="Path_10892" data-name="Path 10892" d="M-215.021,436.94l-6.247-6.2a8.443,8.443,0,0,0-2.53-1.635,5.323,5.323,0,0,0,1.949-4.062V406.688a5.842,5.842,0,0,0-6.09-5.544h-2.921v-1.528a3.472,3.472,0,0,0-3.481-3.456h-13.065a3.472,3.472,0,0,0-3.481,3.456v1.528h-3.6a5.845,5.845,0,0,0-6.093,5.544V425.04a5.36,5.36,0,0,0,2.2,4.261,8,8,0,0,0-2.1,1.436l-6.247,6.2c-1.181,1.172-1.026,2.134-.832,2.6s.775,1.258,2.444,1.258h48.483c1.669,0,2.246-.787,2.44-1.258S-213.84,438.112-215.021,436.94Zm-43.4-11.9V406.688a3.708,3.708,0,0,1,3.94-3.406h3.6v15.787a3.472,3.472,0,0,0,3.481,3.456h3.969a2.035,2.035,0,0,1-.327-1.1,2.017,2.017,0,0,1,.237-.948h-3.88a1.415,1.415,0,0,1-1.417-1.407V399.616a1.415,1.415,0,0,1,1.417-1.407h13.065a1.415,1.415,0,0,1,1.417,1.407v19.453a1.415,1.415,0,0,1-1.417,1.407h-3.915a2.017,2.017,0,0,1,.237.948,2.035,2.035,0,0,1-.327,1.1h4a3.472,3.472,0,0,0,3.481-3.456V403.282h2.921A3.7,3.7,0,0,1-224,406.688V425.04a3.538,3.538,0,0,1-2.9,3.288h0a.275.275,0,0,0-.054,0,1.006,1.006,0,0,0-.474.093,4.641,4.641,0,0,1-.5.029h-26.543a4.438,4.438,0,0,1-.85-.082h0A3.567,3.567,0,0,1-258.422,425.04Zm41.791,13.624h-48.483q-.161,0-.269-.011a1.684,1.684,0,0,1,.179-.2l6.247-6.206a7.523,7.523,0,0,1,3.6-1.721h0a6.364,6.364,0,0,0,.872.057h26.543a6.472,6.472,0,0,0,1.184-.107,7.469,7.469,0,0,1,3.962,1.771l6.251,6.206a1.689,1.689,0,0,1,.179.2Q-216.476,438.664-216.632,438.664Z" fill="#fff"/>
      <path id="Path_10893" data-name="Path 10893" d="M-195.081,467.719a2.037,2.037,0,0,0,.736.138,2.037,2.037,0,0,0,.736-.138,2.068,2.068,0,0,0,1.33-1.928,2.069,2.069,0,0,0-2.066-2.065,2.069,2.069,0,0,0-2.066,2.065A2.068,2.068,0,0,0-195.081,467.719Z" transform="translate(-46.53 -44.332)" fill="#fff"/>
    </g>
  </g>
</svg>
