<svg xmlns="http://www.w3.org/2000/svg" width="148" height="149" viewBox="0 0 148 149">
  <g id="t5" transform="translate(-0.211 0.418)">
    <ellipse id="Ellipse_3579" data-name="Ellipse 3579" cx="74" cy="74.5" rx="74" ry="74.5" transform="translate(0.211 -0.418)" fill="#2ba01b"/>
    <g id="Group_14134" data-name="Group 14134" transform="translate(5 2.525)">
      <g id="Union_38" data-name="Union 38" transform="translate(-1216.982 -5729.418)" fill="#2ca01c">
        <path d="M 1320.320434570312 5839.0029296875 L 1317.876831054688 5839.0029296875 L 1239.192260742188 5839.0029296875 L 1239.192260742188 5834.04736328125 C 1239.192260742188 5831.3154296875 1241.014282226562 5829.09326171875 1243.253784179688 5829.09326171875 L 1244.448852539062 5829.09326171875 L 1247.581176757812 5829.09326171875 L 1246.26318359375 5826.25146484375 C 1245.521362304688 5824.65234375 1245.145263671875 5822.939453125 1245.145263671875 5821.16064453125 C 1245.145263671875 5817.9248046875 1246.405395507812 5814.8828125 1248.693481445312 5812.5947265625 C 1250.9814453125 5810.306640625 1254.023315429688 5809.046875 1257.258911132812 5809.046875 L 1266.20556640625 5809.046875 L 1267.931030273438 5809.046875 L 1268.183959960938 5807.33984375 C 1268.932373046875 5802.28857421875 1271.478515625 5797.64990234375 1275.353515625 5794.2783203125 C 1277.271118164062 5792.60986328125 1279.441528320312 5791.306640625 1281.804443359375 5790.4052734375 C 1284.249877929688 5789.47265625 1286.830200195312 5788.99951171875 1289.473510742188 5788.99951171875 L 1293.742309570312 5788.99951171875 C 1299.330688476562 5788.99951171875 1304.626708984375 5791.13134765625 1308.654663085938 5795.00244140625 C 1312.67138671875 5798.8623046875 1315.0126953125 5804.0458984375 1315.247436523438 5809.59814453125 L 1315.331665039062 5811.59130859375 L 1317.324829101562 5811.51220703125 C 1317.511108398438 5811.5048828125 1317.69677734375 5811.5009765625 1317.876831054688 5811.5009765625 L 1320.320434570312 5811.5009765625 C 1323.972412109375 5811.5009765625 1327.406372070312 5812.93017578125 1329.989868164062 5815.525390625 C 1332.57568359375 5818.123046875 1333.999755859375 5821.5771484375 1333.999755859375 5825.251953125 C 1333.999755859375 5828.9267578125 1332.57568359375 5832.380859375 1329.989868164062 5834.978515625 C 1327.406372070312 5837.57373046875 1323.972412109375 5839.0029296875 1320.320434570312 5839.0029296875 Z" stroke="none"/>
        <path d="M 1320.320434570312 5837.0029296875 C 1323.4365234375 5837.0029296875 1326.367065429688 5835.78271484375 1328.572387695312 5833.5673828125 C 1330.782592773438 5831.34716796875 1331.999755859375 5828.39404296875 1331.999755859375 5825.251953125 C 1331.999755859375 5822.10986328125 1330.782592773438 5819.15673828125 1328.572387695312 5816.9365234375 C 1326.367065429688 5814.72119140625 1323.4365234375 5813.5009765625 1320.320434570312 5813.5009765625 L 1317.876831054688 5813.5009765625 C 1317.72314453125 5813.5009765625 1317.564086914062 5813.50439453125 1317.404052734375 5813.5107421875 L 1313.417724609375 5813.66845703125 L 1313.249145507812 5809.6826171875 C 1313.036254882812 5804.6474609375 1310.912475585938 5799.94580078125 1307.268920898438 5796.4443359375 C 1303.615234375 5792.93310546875 1298.811401367188 5790.99951171875 1293.742309570312 5790.99951171875 L 1289.473510742188 5790.99951171875 C 1287.07470703125 5790.99951171875 1284.734252929688 5791.42822265625 1282.517333984375 5792.27392578125 C 1280.374633789062 5793.09130859375 1278.406127929688 5794.2734375 1276.666381835938 5795.787109375 C 1273.150756835938 5798.84619140625 1270.840942382812 5803.052734375 1270.162353515625 5807.63330078125 L 1269.656616210938 5811.046875 L 1257.258911132812 5811.046875 C 1251.682250976562 5811.046875 1247.145263671875 5815.583984375 1247.145263671875 5821.16064453125 C 1247.145263671875 5822.64697265625 1247.458862304688 5824.07666015625 1248.077514648438 5825.41015625 L 1250.713623046875 5831.09326171875 L 1243.253784179688 5831.09326171875 C 1242.682373046875 5831.09326171875 1242.247192382812 5831.455078125 1241.982788085938 5831.75830078125 C 1241.48046875 5832.33447265625 1241.192260742188 5833.1689453125 1241.192260742188 5834.04736328125 L 1241.192260742188 5837.0029296875 L 1320.320434570312 5837.0029296875 M 1320.320434570312 5841.0029296875 L 1238.618530273438 5841.0029296875 C 1237.831420898438 5841.0029296875 1237.192260742188 5840.27001953125 1237.192260742188 5839.36572265625 L 1237.192260742188 5834.04736328125 C 1237.192260742188 5830.20654296875 1239.905639648438 5827.09326171875 1243.253784179688 5827.09326171875 L 1244.448852539062 5827.09326171875 C 1243.612182617188 5825.28955078125 1243.145263671875 5823.27978515625 1243.145263671875 5821.16064453125 C 1243.145263671875 5813.365234375 1249.464721679688 5807.046875 1257.258911132812 5807.046875 L 1266.20556640625 5807.046875 C 1267.886108398438 5795.70361328125 1277.662841796875 5786.99951171875 1289.473510742188 5786.99951171875 L 1293.742309570312 5786.99951171875 C 1306.395874023438 5786.99951171875 1316.716186523438 5796.990234375 1317.24560546875 5809.513671875 C 1317.454956054688 5809.50537109375 1317.665405273438 5809.5009765625 1317.876831054688 5809.5009765625 L 1320.320434570312 5809.5009765625 C 1328.9794921875 5809.5009765625 1335.999755859375 5816.55322265625 1335.999755859375 5825.251953125 C 1335.999755859375 5833.95068359375 1328.9794921875 5841.0029296875 1320.320434570312 5841.0029296875 Z" stroke="none" fill="#fff"/>
      </g>
      <g id="server-outline-badged" transform="translate(42.21 31.057)">
        <rect id="Rectangle_5342" data-name="Rectangle 5342" width="33" height="59" transform="translate(4 6)" fill="#2ba01b"/>
        <path id="Path_51087" data-name="Path 51087" d="M20.267,39.105a5.762,5.762,0,0,0,5.772,5.772,5.636,5.636,0,0,0,5.772-5.772,5.772,5.772,0,0,0-11.544,0Zm8.246,0a2.507,2.507,0,0,1-2.474,2.474,2.474,2.474,0,0,1,0-4.947A2.507,2.507,0,0,1,28.512,39.105Z" transform="translate(-5.425 16.422)" fill="#fff"/>
        <path id="Path_51088" data-name="Path 51088" d="M17.333,28H37.947v3.3H17.333Z" transform="translate(-7.026 13.509)" fill="#fff"/>
        <path id="Path_51089" data-name="Path 51089" d="M40.737,14.364c-.206-.412-.412-.618-.618-1.031H16v3.3H40.737Z" transform="translate(-7.754 5.501)" fill="#fff"/>
        <path id="Path_51090" data-name="Path 51090" d="M16,8v3.3H38.057A18.042,18.042,0,0,1,37.645,8Z" transform="translate(-7.754 2.588)" fill="#fff"/>
        <path id="Path_51091" data-name="Path 51091" d="M47.772,23.9V64.508H14.789V6.789H41.175a14.879,14.879,0,0,1,1.855-4.123H13.759a3.17,3.17,0,0,0-3.092,3.092V68.631H51.895V25.754A14.879,14.879,0,0,1,47.772,23.9Z" transform="translate(-10.667 -0.324)" fill="#fff"/>
        <g id="access-time-24-regular" transform="translate(34.762 0)">
          <g id="Group_14124" data-name="Group 14124" transform="translate(0)">
            <path id="Path_51092" data-name="Path 51092" d="M9.824,11.141a2.43,2.43,0,0,1,1.853-.788,2.361,2.361,0,0,1,2.282,1.759,2.811,2.811,0,0,1-.656,2.772,8.568,8.568,0,0,1-.84.709l-.042.033a8.438,8.438,0,0,0-.794.667,2.44,2.44,0,0,0-.619.942h2.258a.794.794,0,0,1,0,1.588H10.088a.794.794,0,0,1-.794-.794,3.857,3.857,0,0,1,1.211-2.86,9.762,9.762,0,0,1,.942-.8l0,0a7.745,7.745,0,0,0,.725-.6,1.227,1.227,0,0,0,.26-1.2.777.777,0,0,0-.76-.626.847.847,0,0,0-.678.268.893.893,0,0,0-.157.242v0a.795.795,0,0,1-1.512-.489l.037-.1a2.481,2.481,0,0,1,.455-.723Zm6.088-.788a.794.794,0,0,1,.794.794v2.912h1.588V11.147a.794.794,0,1,1,1.588,0V18a.794.794,0,1,1-1.588,0V15.647H15.912a.794.794,0,0,1-.794-.794V11.147A.794.794,0,0,1,15.912,10.353Zm9.265,4.235A10.588,10.588,0,1,0,14.588,25.177,10.588,10.588,0,0,0,25.177,14.588Zm-18.584,0c0-4.093,3.96-8.081,8-8.081s8.148,3.987,8.148,8.081-4.112,8.293-8.148,8.293-8-4.2-8-8.293Z" transform="translate(-4 -4)" fill="#fff"/>
          </g>
        </g>
      </g>
    </g>
  </g>
</svg>
