<svg xmlns="http://www.w3.org/2000/svg" width="96" height="96" viewBox="0 0 96 96">
  <g id="t07" transform="translate(-560 -2319)">
    <circle id="Ellipse_3579" data-name="Ellipse 3579" cx="48" cy="48" r="48" transform="translate(560 2319)" fill="#60a4fc"/>
    <g id="Group_14116" data-name="Group 14116" transform="translate(373.234 2949.984) rotate(180)">
      <g id="Group_6969" data-name="Group 6969" transform="translate(-259.783 579.569)">
        <path id="Path_10897" data-name="Path 10897" d="M-221.3,603.679H-226.6v-6.029a3.536,3.536,0,0,0-3.529-3.529h-7.941a3.536,3.536,0,0,0-3.529,3.529v6.029h-5.294a3.536,3.536,0,0,0-3.529,3.529v7.941a3.532,3.532,0,0,0,3.529,3.529H-221.3a3.532,3.532,0,0,0,3.529-3.529v-7.941A3.536,3.536,0,0,0-221.3,603.679Zm1.176,11.47a1.176,1.176,0,0,1-1.176,1.177h-25.588a1.172,1.172,0,0,1-1.176-1.177v-7.941a1.176,1.176,0,0,1,1.176-1.176h6.47a1.176,1.176,0,0,0,1.176-1.176v-7.206a1.176,1.176,0,0,1,1.176-1.177h7.941a1.18,1.18,0,0,1,1.176,1.177v7.206a1.172,1.172,0,0,0,1.176,1.176h6.47a1.18,1.18,0,0,1,1.176,1.176Z" transform="translate(250.42 -594.12)" fill="#fff"/>
      </g>
      <g id="Group_6970" data-name="Group 6970" transform="translate(-234.308 561.84)">
        <path id="Path_10898" data-name="Path 10898" d="M-181.291,561.84h-7.941a3.532,3.532,0,0,0-3.529,3.529v5.294h-6.029a3.532,3.532,0,0,0-3.529,3.529v7.941a3.532,3.532,0,0,0,3.529,3.529h6.029v5.294a3.532,3.532,0,0,0,3.529,3.529h7.941a3.536,3.536,0,0,0,3.529-3.529V565.369A3.536,3.536,0,0,0-181.291,561.84Zm1.176,29.117a1.18,1.18,0,0,1-1.176,1.177h-7.941a1.176,1.176,0,0,1-1.176-1.177v-6.471a1.18,1.18,0,0,0-1.176-1.176h-7.206a1.176,1.176,0,0,1-1.176-1.176v-7.941a1.176,1.176,0,0,1,1.176-1.177h7.206a1.18,1.18,0,0,0,1.176-1.176v-6.471a1.176,1.176,0,0,1,1.176-1.176h7.941a1.18,1.18,0,0,1,1.176,1.176Z" transform="translate(202.32 -561.84)" fill="#fff"/>
      </g>
      <g id="Group_6971" data-name="Group 6971" transform="translate(-259.783 561.84)">
        <path id="Path_10899" data-name="Path 10899" d="M-258.45,575.01h-7.941a3.536,3.536,0,0,0-3.529,3.529v7.941a3.536,3.536,0,0,0,3.529,3.529h7.941a3.532,3.532,0,0,0,3.529-3.529v-7.941A3.532,3.532,0,0,0-258.45,575.01Zm1.176,11.47a1.176,1.176,0,0,1-1.176,1.176h-7.941a1.18,1.18,0,0,1-1.176-1.176v-7.941a1.18,1.18,0,0,1,1.176-1.176h7.941a1.176,1.176,0,0,1,1.176,1.176Z" transform="translate(269.92 -575.01)" fill="#fff"/>
      </g>
    </g>
  </g>
</svg>
