<svg xmlns="http://www.w3.org/2000/svg" width="96" height="96" viewBox="0 0 96 96">
  <g id="t08" transform="translate(-560 -2319)">
    <circle id="Ellipse_3579" data-name="Ellipse 3579" cx="48" cy="48" r="48" transform="translate(560 2319)" fill="#deab07"/>
    <g id="Virtual-Workspace" transform="translate(285.064 1936.847)">
      <g id="Group_6939" data-name="Group 6939" transform="translate(296.076 410.15)">
        <g id="Group_6937" data-name="Group 6937" transform="translate(7.142 0)">
          <path id="Path_10863" data-name="Path 10863" d="M348.575,439.9H322.009a5.873,5.873,0,0,1-6.1-5.6V415.753a5.873,5.873,0,0,1,6.1-5.6h26.565a5.871,5.871,0,0,1,6.095,5.6V434.3A5.871,5.871,0,0,1,348.575,439.9ZM322.009,412.31a3.722,3.722,0,0,0-3.943,3.443V434.3a3.723,3.723,0,0,0,3.943,3.443h26.565a3.721,3.721,0,0,0,3.94-3.443V415.753a3.721,3.721,0,0,0-3.94-3.443Z" transform="translate(-315.912 -410.15)" fill="#fff"/>
        </g>
        <g id="Group_6938" data-name="Group 6938" transform="translate(0 27.395)">
          <path id="Path_10864" data-name="Path 10864" d="M347.216,499.052H298.657c-1.67,0-2.249-.8-2.445-1.272s-.349-1.449.832-2.632l6.258-6.27a9.417,9.417,0,0,1,5.7-2.436h.022a1.08,1.08,0,0,1,.022,2.16,7.323,7.323,0,0,0-4.223,1.8l-6.259,6.27a2.361,2.361,0,0,0-.181.2,2.46,2.46,0,0,0,.27.014h48.559a2.467,2.467,0,0,0,.27-.014,2.363,2.363,0,0,0-.181-.2l-6.258-6.271a7.323,7.323,0,0,0-4.223-1.8,1.079,1.079,0,0,1-1.056-1.1,1.064,1.064,0,0,1,1.1-1.058,9.416,9.416,0,0,1,5.7,2.436l6.259,6.27c1.181,1.182,1.028,2.156.832,2.632S348.886,499.052,347.216,499.052Z" transform="translate(-296.076 -486.441)" fill="#fff"/>
        </g>
      </g>
      <g id="Group_6940" data-name="Group 6940" transform="translate(308.064 414.391)">
        <path id="Path_10865" data-name="Path 10865" d="M351.85,442.741H335.567a6.06,6.06,0,0,1-1.15-12.01c-.006-.125-.009-.249-.009-.373a8.431,8.431,0,0,1,16.764-1.283c.225-.022.452-.034.678-.034a6.85,6.85,0,0,1,0,13.7Zm-16.31-9.959a3.9,3.9,0,0,0,.027,7.8H351.85a4.69,4.69,0,1,0-1.351-9.18,1.08,1.08,0,0,1-1.39-1.035c0-.008,0-.017,0-.026a6.27,6.27,0,1,0-12.434,1.167,1.08,1.08,0,0,1-1.062,1.277Z" transform="translate(-329.507 -421.927)" fill="#fff"/>
      </g>
    </g>
  </g>
</svg>
