<svg xmlns="http://www.w3.org/2000/svg" width="96" height="96" viewBox="0 0 96 96">
  <g id="t09" transform="translate(-560 -2319)">
    <circle id="Ellipse_3579" data-name="Ellipse 3579" cx="48" cy="48" r="48" transform="translate(560 2319)" fill="#774b9b"/>
    <path id="Union_37" data-name="Union 37" d="M2674.835,1368.182a7.314,7.314,0,0,1,1.96-5h-.311a6.227,6.227,0,0,1-6.2-6.24v-4.823a2.87,2.87,0,0,1,2.859-2.874h4.918a.281.281,0,0,1,.279.281,1.99,1.99,0,0,1-1.982,1.995h-3.215a.6.6,0,0,0-.6.6v4.823a3.956,3.956,0,0,0,3.938,3.964h2.961a2.2,2.2,0,0,1,2.19,2.072l.01.166-.163.029a5.014,5.014,0,1,0,1.256,0l-.163-.02.009-.167a2.206,2.206,0,0,1,2.192-2.08h2.474a4.408,4.408,0,0,0,4.391-4.419v-4.014a.952.952,0,0,0-.95-.953h-2.617a1.991,1.991,0,0,1-1.982-1.995.283.283,0,0,1,.282-.281h4.318a3.224,3.224,0,0,1,3.211,3.229v4.014a6.684,6.684,0,0,1-6.48,6.693,7.3,7.3,0,1,1-12.587,5Zm21.51-10.927a.281.281,0,0,1-.28-.281,1.99,1.99,0,0,1,1.98-1.995h3.217a.6.6,0,0,0,.6-.6v-4.822a3.956,3.956,0,0,0-3.939-3.964h-2.959a2.205,2.205,0,0,1-2.192-2.072l-.009-.166.164-.029a5.013,5.013,0,1,0-1.255,0l.162.02-.008.167a2.207,2.207,0,0,1-2.192,2.08h-2.477a4.409,4.409,0,0,0-4.389,4.418v4.014a.952.952,0,0,0,.948.953h2.088a1.99,1.99,0,0,1,1.981,1.995.281.281,0,0,1-.279.281h-3.789a3.167,3.167,0,0,1-2.041-.74,2.842,2.842,0,0,1-1.914.74H2675.9a.28.28,0,0,1-.279-.281,1.99,1.99,0,0,1,1.981-1.995h2.155a.6.6,0,0,0,.6-.6v-4.822a3.955,3.955,0,0,0-3.938-3.964h-2.961a2.2,2.2,0,0,1-2.191-2.072l-.01-.166.165-.029a5.013,5.013,0,1,0-1.256,0l.165.02-.01.167a2.2,2.2,0,0,1-2.192,2.08h-2.475a4.41,4.41,0,0,0-4.391,4.418v4.014a.953.953,0,0,0,.951.953h2.618a1.991,1.991,0,0,1,1.981,1.995.28.28,0,0,1-.279.281h-4.319a3.223,3.223,0,0,1-3.211-3.229v-4.014a6.681,6.681,0,0,1,6.48-6.691,7.275,7.275,0,1,1,10.627,0h.311a6.193,6.193,0,0,1,5.248,2.919,6.63,6.63,0,0,1,5.32-2.916,7.276,7.276,0,1,1,10.624,0h.313a6.227,6.227,0,0,1,6.2,6.24v4.822a2.87,2.87,0,0,1-2.859,2.876Z" transform="translate(-2074 1014)" fill="#fff" stroke="rgba(0,0,0,0)" stroke-miterlimit="10" stroke-width="1"/>
  </g>
</svg>
