<svg id="Layer_1" enable-background="new 0 0 512 512" height="512" viewBox="0 0 512 512" width="512" xmlns="http://www.w3.org/2000/svg"><g><path d="m458.106 494h-404.212c-13.656 0-24.726-11.07-24.726-24.726v-274.916h453.663v274.916c.001 13.656-11.07 24.726-24.725 24.726z" fill="#1e88e5"/><path d="m451.926 194.358v274.915c0 13.657-11.069 24.727-24.724 24.727h30.905c13.655 0 24.724-11.071 24.724-24.727v-274.915z" fill="#1976d2"/><path d="m438.031 361.755c.751 0 1.36.609 1.36 1.36v14.277c0 5.344-.496 10.569-1.448 15.637-7.364 39.37-42.048 69.122-83.622 68.836-46.649-.322-83.982-38.013-83.879-84.663.103-46.566 37.885-84.284 84.475-84.284 22.826 0 43.536 9.055 58.741 23.764.549.531.563 1.406.023 1.946l-20.199 20.199c-.52.52-1.36.533-1.893.026-9.543-9.084-22.455-14.661-36.673-14.661-29.359 0-53 23.474-53.199 52.832-.2 29.55 23.695 53.569 53.199 53.569 23.938 0 44.185-15.814 50.862-37.563h-49.502c-.751 0-1.36-.609-1.36-1.36v-28.555c0-.751.609-1.36 1.36-1.36z" fill="#fafafa"/><path d="m256 18v176.358h-128l13.838-176.358z" fill="#3f51b5"/><path d="m141.838 18-13.838 176.358h-128l22.838-155.23c1.785-12.136 12.196-21.128 24.461-21.128z" fill="#7986cb"/><path d="m256 18v176.358h128l-13.838-176.358z" fill="#7986cb"/><path d="m370.162 18 13.838 176.358h128l-22.838-155.23c-1.785-12.136-12.196-21.128-24.461-21.128z" fill="#3f51b5"/><path d="m489.162 39.128c-1.785-12.136-12.196-21.128-24.461-21.128h-30.905c12.265 0 22.676 8.992 24.461 21.128l22.838 155.23h30.905z" fill="#3949ab"/><path d="m64.014 260.595h-.027c-35.339 0-63.987-28.648-63.987-63.986v-2.25h128v2.25c0 35.338-28.648 63.986-63.986 63.986z" fill="#5c6bc0"/><path d="m192.014 260.595h-.027c-35.339 0-63.986-28.648-63.986-63.986v-2.25h128v2.25c-.001 35.338-28.649 63.986-63.987 63.986z" fill="#3949ab"/><path d="m320.014 260.595h-.027c-35.339 0-63.986-28.648-63.986-63.986v-2.25h128v2.25c-.001 35.338-28.649 63.986-63.987 63.986z" fill="#5c6bc0"/><path d="m448.014 260.595h-.027c-35.339 0-63.986-28.648-63.986-63.986v-2.25h128v2.25c-.001 35.338-28.649 63.986-63.987 63.986z" fill="#3949ab"/><path d="m481.095 194.358v2.247c0 30.017-20.669 55.195-48.547 62.104 4.945 1.225 10.112 1.887 15.435 1.887h.035c35.337 0 63.983-28.649 63.983-63.99v-2.247h-30.906z" fill="#303f9f"/></g></svg>