<svg class="h-5 w-5 " aria-hidden="true" fill="currentColor" xmlns="http://www.w3.org/2000/svg" xmlns:xlink="http://www.w3.org/1999/xlink" viewBox="0 0 24 24" xml:space="preserve">
  <title>LinkedIn</title>
  <path d="M21.829,0H2.171C0.972,0,0,0.972,0,2.171v19.658C0,23.028,0.972,24,2.171,24h19.658C23.028,24,24,23.028,24,21.829V2.171  C24,0.972,23.028,0,21.829,0z M7.427,20.723c0,0.349-0.283,0.632-0.632,0.632H4.105c-0.349,0-0.632-0.283-0.632-0.632V9.449  c0-0.349,0.283-0.632,0.632-0.632h2.689c0.349,0,0.632,0.283,0.632,0.632V20.723z M5.45,7.755c-1.411,0-2.555-1.144-2.555-2.555  S4.039,2.645,5.45,2.645S8.005,3.789,8.005,5.2S6.861,7.755,5.45,7.755z M21.481,20.774c0,0.321-0.26,0.581-0.581,0.581h-2.886  c-0.321,0-0.581-0.26-0.581-0.581v-5.288c0-0.789,0.231-3.457-2.062-3.457c-1.779,0-2.139,1.826-2.212,2.646v6.099  c0,0.321-0.26,0.581-0.581,0.581H9.788c-0.321,0-0.581-0.26-0.581-0.581V9.399c0-0.321,0.26-0.581,0.581-0.581h2.791  c0.321,0,0.581,0.26,0.581,0.581v0.984c0.659-0.99,1.64-1.754,3.726-1.754c4.621,0,4.595,4.317,4.595,6.689L21.481,20.774  L21.481,20.774z"></path>
</svg>