<svg width="38" height="39" viewBox="0 0 38 39" fill="none" xmlns="http://www.w3.org/2000/svg">
<g id="Group 14454">
<g id="shield-security">
<path id="Path 16192" d="M19.4332 4.60791L32.1632 10.3079V18.7939C32.1759 22.6903 30.893 26.4803 28.5162 29.5679C26.3265 32.6533 23.1043 34.8527 19.4332 35.7679C15.7621 34.8527 12.54 32.6533 10.3502 29.5679C7.97388 26.4809 6.69097 22.6916 6.70321 18.7959V10.3079L19.4332 4.60791ZM29.3122 12.0999L19.4332 7.72391L9.55421 12.0999V20.1889H19.4332V32.8519C22.0827 31.9825 24.3985 30.315 26.0632 28.0779C27.8504 25.7963 28.9746 23.0664 29.3122 20.1879V12.0999Z" fill="#434343"/>
<path id="Path 54266" d="M19.4307 7.71729L29.2897 12.1173L29.2817 20.1803L19.4297 20.1883L19.4307 7.71729Z" fill="#FDC736"/>
</g>
</g>
</svg>
