<?xml version="1.0" encoding="UTF-8"?>
<svg version="1.1" xmlns="http://www.w3.org/2000/svg" width="150" height="75">
<path d="M0 0 C0.47989915 0.47123857 0.9597983 0.94247715 1.45423985 1.42799568 C5.24938505 5.12863063 7.88373489 6.68629848 13.20169067 6.8099823 C13.96198578 6.79776138 14.72228088 6.78554047 15.50561523 6.77294922 C16.32593735 6.78357895 17.14625946 6.79420868 17.99143982 6.80516052 C20.68112556 6.833085 23.36883098 6.81918673 26.05859375 6.8046875 C27.93190719 6.81594414 29.80520653 6.82982762 31.67848206 6.84622192 C36.59244879 6.88220565 41.50579265 6.88264032 46.41986084 6.87554932 C52.32466464 6.87447443 58.22929139 6.91776834 64.13396454 6.95358276 C73.08963208 7.00295653 82.04367652 6.99614035 91 7 C91 22.51 91 38.02 91 54 C82.02619141 54.00386719 82.02619141 54.00386719 72.87109375 54.0078125 C69.07479267 54.02276487 65.27866161 54.03947415 61.48242188 54.0625 C55.46041998 54.09885912 49.43887541 54.12880713 43.41674805 54.12011719 C38.55993862 54.11351651 33.70404849 54.13605097 28.84742928 54.17855453 C26.99717545 54.18967261 25.14682826 54.19039761 23.29656792 54.18042374 C20.69857185 54.1682173 18.10336735 54.19338912 15.50561523 54.22705078 C14.74532013 54.21482986 13.98502502 54.20260895 13.20169067 54.1900177 C7.07339807 54.33254815 4.25938507 56.81748258 0 61 C-8.67392583 66.57396608 -20.13832484 66.3651027 -29.96484375 64.41015625 C-38.83384876 61.36975485 -45.88144913 54.5754585 -50.625 46.625 C-54.67018761 37.58689511 -54.76420405 26.76925675 -51.88671875 17.359375 C-47.37438855 7.67793338 -40.70901376 1.34303388 -31 -3 C-21.84804688 -6.1859349 -8.138346 -5.22979623 0 0 Z " fill="#6DC532" transform="translate(56,7)"/>
<path d="M0 0 C5.84761483 4.61986886 10.32061086 11.3021917 11.8671875 18.61328125 C13.01546164 29.00981737 10.56130157 38.04092397 4.3046875 46.48828125 C-0.67439174 51.8062507 -9.4753089 56.18669308 -16.734375 56.8515625 C-27.51082477 57.11610067 -35.16707958 53.86436417 -43.1328125 46.61328125 C-49.72685458 39.48829033 -51.74323271 31.08543749 -51.48828125 21.54296875 C-50.94189802 17.03981027 -49.3734513 13.51683316 -47.1328125 9.61328125 C-46.5759375 8.58203125 -46.0190625 7.55078125 -45.4453125 6.48828125 C-33.39271998 -8.49602296 -15.98130204 -10.39077331 0 0 Z " fill="#FAFDF9" transform="translate(57.1328125,12.38671875)"/>
<path d="M0 0 C1.20269531 -0.00128906 2.40539062 -0.00257812 3.64453125 -0.00390625 C4.90652344 -0.00003906 6.16851562 0.00382812 7.46875 0.0078125 C9.36173828 0.00201172 9.36173828 0.00201172 11.29296875 -0.00390625 C12.49566406 -0.00261719 13.69835937 -0.00132813 14.9375 0 C16.04544922 0.00112793 17.15339844 0.00225586 18.29492188 0.00341797 C20.96875 0.1328125 20.96875 0.1328125 22.96875 1.1328125 C22.99340746 5.2445381 23.01158959 9.35623528 23.02368164 13.46801758 C23.0287208 14.86776478 23.03555216 16.2675067 23.04418945 17.66723633 C23.0562732 19.67527027 23.06144807 21.68334207 23.06640625 23.69140625 C23.07426147 25.50596313 23.07426147 25.50596313 23.08227539 27.35717773 C22.96875 30.1328125 22.96875 30.1328125 21.96875 31.1328125 C19.83521826 31.23284539 17.69837458 31.26362298 15.5625 31.265625 C14.26183594 31.26691406 12.96117187 31.26820312 11.62109375 31.26953125 C10.94030762 31.26743652 10.25952148 31.2653418 9.55810547 31.26318359 C7.47746485 31.2578349 5.39704011 31.2631293 3.31640625 31.26953125 C1.36541016 31.26759766 1.36541016 31.26759766 -0.625 31.265625 C-1.82833984 31.26449707 -3.03167969 31.26336914 -4.27148438 31.26220703 C-7.03125 31.1328125 -7.03125 31.1328125 -8.03125 30.1328125 C-8.11900605 27.98722423 -8.13820219 25.83876829 -8.12890625 23.69140625 C-8.12568359 22.38623047 -8.12246094 21.08105469 -8.11914062 19.73632812 C-8.11078401 18.3476556 -8.10231905 16.95898373 -8.09375 15.5703125 C-8.08873666 14.17773594 -8.08417347 12.78515769 -8.08007812 11.39257812 C-8.06824434 7.9726138 -8.0517588 4.55273406 -8.03125 1.1328125 C-5.28600448 -0.23981026 -3.06905705 0.0031244 0 0 Z " fill="#70C737" transform="translate(30.03125,27.8671875)"/>
<path d="M0 0 C2.31 0 4.62 0 7 0 C7.33 0.99 7.66 1.98 8 3 C8.66 2.01 9.32 1.02 10 0 C12.31 0 14.62 0 17 0 C17 7.26 17 14.52 17 22 C15.35 22 13.7 22 12 22 C11.67 20.68 11.34 19.36 11 18 C10.67 19.32 10.34 20.64 10 22 C6.7 22 3.4 22 0 22 C0 14.74 0 7.48 0 0 Z " fill="#F6FBF3" transform="translate(93,22)"/>
<path d="M0 0 C3.63 0 7.26 0 11 0 C13 2 13 2 13.24291992 3.95532227 C13.23675659 5.12405884 13.23675659 5.12405884 13.23046875 6.31640625 C13.22853516 7.16267578 13.22660156 8.00894531 13.22460938 8.88085938 C13.21236328 9.76580078 13.20011719 10.65074219 13.1875 11.5625 C13.18685547 12.45130859 13.18621094 13.34011719 13.18554688 14.25585938 C13.14021097 20.85978903 13.14021097 20.85978903 12 22 C7.99779347 22.14355117 4.00558317 22.04216403 0 22 C0 14.74 0 7.48 0 0 Z " fill="#EBF7E3" transform="translate(77,22)"/>
<path d="M0 0 C2.97 0 5.94 0 9 0 C10.28297723 7.41148455 11.25515919 14.47280398 11 22 C9.35 22 7.7 22 6 22 C6 20.68 6 19.36 6 18 C5.01 18 4.02 18 3 18 C3 19.32 3 20.64 3 22 C1.35 22 -0.3 22 -2 22 C-1.85856168 19.2705414 -1.71200471 16.54151877 -1.5625 13.8125 C-1.52318359 13.04357422 -1.48386719 12.27464844 -1.44335938 11.48242188 C-1.22492966 7.56748925 -0.91307892 3.82879312 0 0 Z " fill="#F7FCF5" transform="translate(129,22)"/>
<path d="M0 0 C2.4375 1.0625 2.4375 1.0625 4 3 C4.25 6.6875 4.25 6.6875 4 10 C2.02 10 0.04 10 -2 10 C-2 8.02 -2 6.04 -2 4 C-2.66 4 -3.32 4 -4 4 C-4 8.95 -4 13.9 -4 19 C-3.34 19 -2.68 19 -2 19 C-2 17.02 -2 15.04 -2 13 C-0.35 13 1.3 13 3 13 C3.125 16.375 3.125 16.375 3 20 C0.42009199 22.57990801 -1.50244461 22.31598838 -5.02734375 22.4609375 C-7 22 -7 22 -8.73046875 20.44921875 C-10.50052993 17.03436225 -10.39744907 14.26506709 -10.375 10.4375 C-10.38660156 9.76525391 -10.39820312 9.09300781 -10.41015625 8.40039062 C-10.39299078 5.51945231 -10.32549065 3.4828921 -8.69140625 1.05859375 C-5.80725471 -0.74649878 -3.29504152 -0.34684648 0 0 Z " fill="#F3FAEF" transform="translate(122,22)"/>
<path d="M0 0 C0.33 0 0.66 0 1 0 C1 7.26 1 14.52 1 22 C2.65 22 4.3 22 6 22 C4.02 22.99 4.02 22.99 2 24 C3.32 24.99 4.64 25.98 6 27 C5.67 28.32 5.34 29.64 5 31 C2.69 30.67 0.38 30.34 -2 30 C-2 30.66 -2 31.32 -2 32 C-3.65 32 -5.3 32 -7 32 C-7.66 30.68 -8.32 29.36 -9 28 C-10.65 28.99 -12.3 29.98 -14 31 C-14 29.02 -14 27.04 -14 25 C-13.01 24.67 -12.02 24.34 -11 24 C-12.32 23.34 -13.64 22.68 -15 22 C-11.04 21.67 -7.08 21.34 -3 21 C-2.95101562 19.73542969 -2.90203125 18.47085938 -2.8515625 17.16796875 C-2.7765262 15.50779053 -2.70097873 13.84763536 -2.625 12.1875 C-2.57859375 10.93743164 -2.57859375 10.93743164 -2.53125 9.66210938 C-2.49257812 8.85966797 -2.45390625 8.05722656 -2.4140625 7.23046875 C-2.3826416 6.49207764 -2.3512207 5.75368652 -2.31884766 4.99291992 C-2 3 -2 3 0 0 Z " fill="#83CE52" transform="translate(92,22)"/>
<path d="M0 0 C1.85776765 3.13498292 2.20140476 5.37471432 2 9 C3.65 9 5.3 9 7 9 C7 7.68 7 6.36 7 5 C7.99 5 8.98 5 10 5 C10 6.32 10 7.64 10 9 C11.65 9 13.3 9 15 9 C15.33 7.68 15.66 6.36 16 5 C16 6.65 16 8.3 16 10 C14.35 10 12.7 10 11 10 C10.87625 10.94875 10.7525 11.8975 10.625 12.875 C10 16 10 16 8 18 C6.68 18 5.36 18 4 18 C3.34 16.68 2.68 15.36 2 14 C1.01 15.32 0.02 16.64 -1 18 C-1 16.68 -1 15.36 -1 14 C-3.97065509 14.34227572 -3.97065509 14.34227572 -7 15 C-7.33 15.66 -7.66 16.32 -8 17 C-7.34 17.33 -6.68 17.66 -6 18 C-7.32 17.67 -8.64 17.34 -10 17 C-9.6875 15.125 -9.6875 15.125 -9 13 C-8.01 12.34 -7.02 11.68 -6 11 C-6.99 10.34 -7.98 9.68 -9 9 C-7.865625 8.855625 -6.73125 8.71125 -5.5625 8.5625 C-2.19222799 8.38828522 -2.19222799 8.38828522 -1 7 C-0.63239269 4.67182036 -0.29758419 2.3381615 0 0 Z " fill="#8CD25E" transform="translate(125,35)"/>
<path d="M0 0 C3.67448146 2.08303938 6.64508584 4.93525752 8 9 C8 9.99 8 10.98 8 12 C6.68 12 5.36 12 4 12 C3.54625 11.030625 3.0925 10.06125 2.625 9.0625 C1.34213779 5.92920418 1.34213779 5.92920418 -1 5 C-2.99960012 4.960008 -5.00047242 4.95653201 -7 5 C-8.32 7.31 -9.64 9.62 -11 12 C-12.32 12 -13.64 12 -15 12 C-14.55396127 6.94489444 -12.35299176 4.59833262 -9 1 C-5.85088521 -0.57455739 -3.47991184 -0.34799118 0 0 Z " fill="#74C83C" transform="translate(41,14)"/>
<path d="M0 0 C2.625 0.375 2.625 0.375 5 1 C5.79953138 4.28696233 6.09658936 5.71023192 5 9 C5.59793673 11.35188447 6.25881795 13.68925595 7 16 C4.03 16 1.06 16 -2 16 C-1.814375 14.618125 -1.62875 13.23625 -1.4375 11.8125 C-1.02335763 8.25311425 -1.25570179 5.50883443 -2 2 C-1.34 1.34 -0.68 0.68 0 0 Z " fill="#F5FBF1" transform="translate(35,36)"/>
<path d="M0 0 C1 1 1 1 1.0625 3.5625 C1.041875 4.366875 1.02125 5.17125 1 6 C-0.32 6 -1.64 6 -3 6 C-3.66 5.01 -4.32 4.02 -5 3 C-7.475 4.485 -7.475 4.485 -10 6 C-10 4.02 -10 2.04 -10 0 C-6.28523623 -1.23825459 -3.81171187 -0.70587257 0 0 Z " fill="#9DD875" transform="translate(88,47)"/>
<path d="M0 0 C1.98 0.495 1.98 0.495 4 1 C3.67 2.32 3.34 3.64 3 5 C1.68 5 0.36 5 -1 5 C-0.67 3.35 -0.34 1.7 0 0 Z " fill="#BEE5A4" transform="translate(94,48)"/>
<path d="M0 0 C1.32 0 2.64 0 4 0 C4 1.65 4 3.3 4 5 C2.68 5 1.36 5 0 5 C0 3.35 0 1.7 0 0 Z " fill="#CAEAB6" transform="translate(85,48)"/>
<path d="M0 0 C1.32 0.33 2.64 0.66 4 1 C3.67 2.32 3.34 3.64 3 5 C2.01 5 1.02 5 0 5 C0 3.35 0 1.7 0 0 Z " fill="#C6E8AF" transform="translate(137,48)"/>
<path d="M0 0 C1.88343932 3.76687864 2.22057835 5.02958963 2 9 C1.01 9 0.02 9 -1 9 C-0.67 6.03 -0.34 3.06 0 0 Z " fill="#A5DB81" transform="translate(133,28)"/>
<path d="M0 0 C0.66 0 1.32 0 2 0 C2.33 1.65 2.66 3.3 3 5 C1.68 5 0.36 5 -1 5 C-0.67 3.35 -0.34 1.7 0 0 Z " fill="#7DCC49" transform="translate(46,21)"/>
</svg>
