<svg xmlns="http://www.w3.org/2000/svg" width="191.16" height="301.681" viewBox="0 0 191.16 301.681">
  <g id="Group_2377" data-name="Group 2377" transform="translate(-1018.62 -908.559)">
    <g id="Group_2376" data-name="Group 2376" transform="translate(7)">
      <path id="Path_10903" data-name="Path 10903" d="M6.977,4.113C6.594,5.054,4.894,9.429,3.2,21.037,2.785,23.849,1.122,35.216.412,50.5-.8,76.509.65,116.081,4.816,131.984,9.669,150.507,15.8,127.707,17.2,97.2c.62-13.533.648-35.974-.914-50.772-1.257-11.91-3.407-17.568-3.324-28.834.04-5.426.56-6.925.415-10.343-.342-8.1-3.691-9.786-6.4-3.134" transform="translate(1038 1166.692) rotate(-90)" fill="#caddff"/>
      <g id="Group_2374" data-name="Group 2374" transform="translate(1049.938 908.559)">
        <path id="Path_10877" data-name="Path 10877" d="M149.843,596.157l-.634,12.57,6.059-.064,1.8-12.141Z" transform="translate(-104.932 -371.217)" fill="#fff"/>
        <g id="Group_2373" data-name="Group 2373" transform="translate(0 0)">
          <g id="Group_2375" data-name="Group 2375" transform="translate(0)">
            <path id="Path_10878" data-name="Path 10878" d="M148.276,608.357h.006l6.059-.063a.566.566,0,0,0,.554-.483l1.8-12.141a.567.567,0,0,0-.532-.649l-7.229-.364a.566.566,0,0,0-.594.537l-.634,12.57a.566.566,0,0,0,.565.594m5.57-1.19-4.974.052.575-11.4,6.041.3Z" transform="translate(-103.998 -370.282)"/>
            <path id="Path_10879" data-name="Path 10879" d="M158.772,638.321c-2.473.14-9.267,0-11.156-.938-1.664-.828-2.986-4.39-2.06-5.65,2.316-3.151,4.06-8.732,5.548-13.086a.306.306,0,0,1,.553-.056l1.192,2.013,1.056-2.239a.934.934,0,0,1,.736-.414l2.121.067c.486-.021.985.475,1.252.933l1.43,1.985.927-1.515a.306.306,0,0,1,.566.138l1.036,14.745c-.068,2.356-1.763,3.935-3.2,4.016" transform="translate(-108.339 -384.789)" fill="#fff"/>
            <path id="Path_10880" data-name="Path 10880" d="M155.72,638c.869,0,1.619-.019,2.15-.049,1.743-.1,3.659-1.956,3.734-4.564,0-.018,0-.037,0-.056l-1.037-14.745a.872.872,0,0,0-1.614-.394l-.482.789-.917-1.273a2.18,2.18,0,0,0-1.727-1.189l-2.1-.067h-.042a1.505,1.505,0,0,0-1.182.664.513.513,0,0,0-.042.074l-.6,1.274-.649-1.095a.872.872,0,0,0-1.575.161c-.152.444-.306.9-.464,1.367-1.4,4.128-2.976,8.807-5,11.566a3.347,3.347,0,0,0-.255,2.736,5.982,5.982,0,0,0,2.519,3.756c1.625.809,6.208,1.045,9.291,1.045m2.086-1.179c-2.808.159-9.226-.06-10.872-.879a4.886,4.886,0,0,1-1.923-3.01,2.439,2.439,0,0,1,.067-1.8c2.132-2.9,3.743-7.668,5.165-11.874q.142-.42.28-.829l.9,1.527a.566.566,0,0,0,1-.047l1.033-2.192a.369.369,0,0,1,.255-.136l2.094.066h.042c.158,0,.509.259.739.653.009.016.019.031.029.046l1.43,1.985a.559.559,0,0,0,.48.235.568.568,0,0,0,.462-.27l.5-.822.978,13.906a3.411,3.411,0,0,1-2.666,3.44" transform="translate(-107.404 -383.854)"/>
            <path id="Path_10881" data-name="Path 10881" d="M157.5,662.553a18.542,18.542,0,0,0,4.583-.518.566.566,0,0,0-.3-1.091,20.254,20.254,0,0,1-10.415-.461.566.566,0,1,0-.343,1.079,21.423,21.423,0,0,0,6.476.991" transform="translate(-110.89 -411.255)"/>
            <path id="Path_10882" data-name="Path 10882" d="M163.454,646.517a.566.566,0,0,0,.028-1.131l-5.513-.278a.566.566,0,0,0-.057,1.13l5.512.278h.029" transform="translate(-114.96 -401.697)"/>
            <path id="Path_10883" data-name="Path 10883" d="M29.991,584.469l1.021,15.244,5.671.089.754-14.958Z" transform="translate(59.686 -363.939)" fill="#fff"/>
            <path id="Path_10884" data-name="Path 10884" d="M35.749,599.434a.566.566,0,0,0,.565-.538l.754-14.957a.567.567,0,0,0-.537-.594l-7.447-.375a.566.566,0,0,0-.593.6l1.021,15.244a.566.566,0,0,0,.556.528l5.671.088h.009m.16-14.987-.7,13.846-4.6-.072-.944-14.09Z" transform="translate(60.621 -363.005)"/>
            <path id="Path_10885" data-name="Path 10885" d="M10.581,614.986s-.562,6.708-.474,9.427c.063,1.945,2.423,7.93,3.76,11.177a4.9,4.9,0,0,0,3.034,2.762,12.425,12.425,0,0,0,5.745.449c2.991-.334,4.05-3,3.306-5.648A34.053,34.053,0,0,0,22,624.646c-1.489-2.434-2.607-9.478-2.607-9.478l-4.613-.232-1.5,3.8Z" transform="translate(78.448 -382.91)" fill="#fff"/>
            <path id="Path_10886" data-name="Path 10886" d="M19.611,638.574a19.47,19.47,0,0,0,2.165-.146,4.348,4.348,0,0,0,3.254-1.858,5.426,5.426,0,0,0,.534-4.506,34.542,34.542,0,0,0-4.013-8.648c-1.414-2.312-2.519-9.2-2.531-9.271a.566.566,0,0,0-.531-.477l-4.613-.233a.567.567,0,0,0-.555.358L12.2,616.629l-2.1-2.909A.566.566,0,0,0,9.083,614c-.023.276-.564,6.772-.475,9.493.062,1.921,2.1,7.246,3.8,11.374a5.448,5.448,0,0,0,3.4,3.091,13.205,13.205,0,0,0,3.8.613m-1.634-23.8c.278,1.622,1.284,7.068,2.608,9.231a33.476,33.476,0,0,1,3.889,8.364,4.31,4.31,0,0,1-.383,3.568A3.253,3.253,0,0,1,21.65,637.3a11.926,11.926,0,0,1-5.528-.431,4.335,4.335,0,0,1-2.665-2.433c-2.319-5.631-3.674-9.633-3.718-10.98-.061-1.862.193-5.684.352-7.824l1.8,2.5a.566.566,0,0,0,.986-.123l1.349-3.422Z" transform="translate(79.381 -381.975)"/>
            <path id="Path_10887" data-name="Path 10887" d="M24.742,655.742a7.056,7.056,0,0,0,2.161-.292.566.566,0,1,0-.359-1.073,8.184,8.184,0,0,1-3.328.115,4.729,4.729,0,0,1-2.794-1.629,8.542,8.542,0,0,1-1.279-1.955c-.509-1.172-1.022-2.507-1.4-3.482-.605-1.573-.666-1.712-.822-1.853a.566.566,0,0,0-.833.759c.085.166.346.844.6,1.5.378.984.9,2.332,1.415,3.526a9.63,9.63,0,0,0,1.447,2.227,5.864,5.864,0,0,0,3.463,2.021,10.646,10.646,0,0,0,1.728.136m-8.578-9.329h0" transform="translate(75.122 -401.897)"/>
            <path id="Path_10888" data-name="Path 10888" d="M24.89,654.017a.566.566,0,0,0,.028-1.131l-5.05-.255a.566.566,0,0,0-.057,1.13l5.051.255h.029" transform="translate(75.712 -406.382)"/>
            <path id="Path_10889" data-name="Path 10889" d="M24.309,253.656S22.578,299.937,23,330.145c.364,25.977,2.387,46.782,2.947,52.1a1.83,1.83,0,0,0,1.483,1.612,22.865,22.865,0,0,0,6.936.284,1.848,1.848,0,0,0,1.54-1.336c1.4-5.119,7.167-26.537,7.584-34.809.452-8.965-1.041-11.294-.854-18.61.14-5.477,2.951-24.841,4.356-34.229A1.162,1.162,0,0,1,49.257,295c2.545,8.7,7.955,27.513,12.935,46.79.255.989,1.344,9.357,1.593,10.331,3.08,12.04,6.063,21.721,7.051,27.357a2.278,2.278,0,0,0,1.765,1.833,16.753,16.753,0,0,0,7.354.084,2.264,2.264,0,0,0,1.672-2.1c.257-6.135,1.181-28.941.855-32.795-.7-8.267-6.7-16.673-7.407-25.451s-.274-30.7-2.781-43.985a215.263,215.263,0,0,0-7.977-28.349Z" transform="translate(17.236 -154.868)"/>
            <path id="Path_10890" data-name="Path 10890" d="M10.948,26.2C7.77,24.1,2.465,25.23.424,30.5c-1.668,4.307,2.063,7.632,3.008,10.809,3.057,10.275-6.834,32.206-.114,43.4,5.361,8.934,20.271,15.522,33.131,9.951,12.228-5.3,20.54-18.047,15.58-28.484-4.459-9.382-12.883-4.945-18-14.193-5.044-9.118-.414-13.409-4.1-17.974-5.045-6.242-9.969-1.867-18.978-7.816" transform="translate(54.953 -15.694)"/>
            <path id="Path_10891" data-name="Path 10891" d="M76.6,291.432a.566.566,0,0,0,.241-1.078,19.1,19.1,0,0,1-9.828-11.722.566.566,0,0,0-1.1.262,19.893,19.893,0,0,0,10.447,12.484.56.56,0,0,0,.241.054" transform="translate(6.412 -173.229)" fill="#fff"/>
            <path id="Path_10892" data-name="Path 10892" d="M260.85,2.517,262.873,9a6.622,6.622,0,0,1-.9,5.936l-2.268,3.255a3.27,3.27,0,0,0-.492,1.848c-.028,1.471.193,3.715.193,3.715l-5.4.088s.593-2.849.866-3.828a5.548,5.548,0,0,0-.187-3.8,15.06,15.06,0,0,1-1.228-7.521l3.7.988a10,10,0,0,0,.929-5.351,4.989,4.989,0,0,1,.2-1.95,1.343,1.343,0,0,1,2.562.139" transform="translate(-250.376 -0.934)" fill="#fff"/>
            <path id="Path_10893" data-name="Path 10893" d="M253.077,23.472h.009l5.4-.088a.566.566,0,0,0,.554-.621c0-.022-.218-2.229-.191-3.649a2.7,2.7,0,0,1,.39-1.536l2.268-3.255a7.208,7.208,0,0,0,.972-6.437l-2.016-6.459A1.912,1.912,0,0,0,258.686,0a1.845,1.845,0,0,0-1.859,1.256,5.586,5.586,0,0,0-.233,2.171,10.342,10.342,0,0,1-.671,4.648l-3.25-.867a.566.566,0,0,0-.707.471,15.5,15.5,0,0,0,1.275,7.834,4.985,4.985,0,0,1,.155,3.411c-.275.986-.851,3.748-.875,3.864a.566.566,0,0,0,.554.681m4.786-1.21-4.086.067c.193-.9.529-2.444.711-3.1a6.111,6.111,0,0,0-.219-4.19A14.638,14.638,0,0,1,253.04,8.48l3.044.812a.565.565,0,0,0,.634-.26,10.5,10.5,0,0,0,1.006-5.674A4.49,4.49,0,0,1,257.9,1.63a.727.727,0,0,1,.742-.5.77.77,0,0,1,.737.591c0,.009.005.019.008.028l2.023,6.481a6.079,6.079,0,0,1-.82,5.438l-2.272,3.261a3.851,3.851,0,0,0-.593,2.161c-.02,1.026.077,2.391.141,3.17m2.061-20.679h0Z" transform="translate(-249.45 0)"/>
            <path id="Path_10894" data-name="Path 10894" d="M210.7,76.013c-4.72.523-18.945,6.81-27.238-1.705s-8.7-19.832-8.7-19.832l-8.113-.7a42.013,42.013,0,0,0,.212,28.745c5.915,15.791,34.409,21.344,34.409,21.344Z" transform="translate(-164.23 -33.486)" fill="#394974"/>
            <path id="Path_10895" data-name="Path 10895" d="M44.288,114.613c9.616-5.789,26.833-5.3,35.393-1.388,15.183,6.944,23.89,62.138,19.034,74.038-4.434,10.866-42.181,13.176-52.659,3.878-4.464-3.961-2.982-27.588-2.195-37.03q.359-4.3.366-8.627Z" transform="translate(-7.839 -68.665)" fill="#394974"/>
            <path id="Path_10896" data-name="Path 10896" d="M113.23,60.083a.536.536,0,0,1-.559-.6c.169-1.574.673-4.526-.833-5.851-1.93-1.7-5.145-4.281-6.391-2.7-1.092,1.385-2.2,4.2-4.833,5.241-.253.1-.278.466-.165.712l.552,1.4a2.043,2.043,0,0,1-.1,1.2c-.366.874-1.212,2.7-1.048,3.078.32.745,3.2,2.076,3.2,2.076l-1.905,8.9c-.072.338-.3.9-.63.815L97,74.629s.219,4.826,7.7,6.159c9.777,1.741,11.061-4.816,11.061-4.816s-9.557-.151-5.4-10.573a.7.7,0,0,1,.542-.429c.93-.141,3.5-.647,3.989-2.3.518-1.757-.531-2.633-1.664-2.584" transform="translate(-43.918 -31.411)" fill="#fff"/>
            <path id="Path_10897" data-name="Path 10897" d="M106.843,80.711c7.351,0,8.525-5.5,8.538-5.565a.565.565,0,0,0-.546-.675c-.034,0-3.528-.094-5.1-2.465-1.121-1.688-1.045-4.155.223-7.332a.132.132,0,0,1,.1-.079c1.427-.217,3.9-.855,4.447-2.7a2.618,2.618,0,0,0-.308-2.476,2.268,2.268,0,0,0-1.9-.834c.022-.113.038-.254.056-.4.21-1.791.527-4.5-1.072-5.9-2.752-2.42-4.575-3.447-5.907-3.325a1.827,1.827,0,0,0-1.3.7,15.633,15.633,0,0,0-.882,1.31c-.851,1.355-1.911,3.041-3.715,3.756a.907.907,0,0,0-.507.513A1.243,1.243,0,0,0,99,56.19l.541,1.374a1.723,1.723,0,0,1-.1.777c-.056.133-.123.289-.2.458-.8,1.856-1.049,2.6-.85,3.062.319.744,2.028,1.666,3.073,2.173L99.658,72.5a1.385,1.385,0,0,1-.135.37l-3.5.26a.566.566,0,0,0-.523.59c.01.215.33,5.294,8.166,6.69a18.134,18.134,0,0,0,3.179.3m7.233-5.169c-.592,1.495-2.809,5.073-10.213,3.754-5.5-.981-6.824-3.865-7.137-5.083L99.558,74a.844.844,0,0,0,.541-.127,1.878,1.878,0,0,0,.666-1.139l1.906-8.9a.566.566,0,0,0-.316-.632,11.292,11.292,0,0,1-2.89-1.744,14.074,14.074,0,0,1,.821-2.209c.075-.173.143-.332.2-.469a2.517,2.517,0,0,0,.1-1.657l-.541-1.374c-.006-.013-.01-.025-.014-.035a9.519,9.519,0,0,0,4.117-4.149c.287-.456.558-.887.813-1.211a.688.688,0,0,1,.516-.272c.962-.087,2.659.938,5.056,3.048,1.153,1.014.866,3.46.7,4.921-.018.157-.036.306-.051.444a1.1,1.1,0,0,0,1.146,1.222,1.15,1.15,0,0,1,.983.4,1.6,1.6,0,0,1,.114,1.459c-.392,1.328-2.8,1.792-3.531,1.9a1.266,1.266,0,0,0-.983.779c-1.416,3.547-1.454,6.368-.111,8.384a7.462,7.462,0,0,0,5.282,2.9m-1.8-16.958.024.565Z" transform="translate(-42.984 -30.476)"/>
            <path id="Path_10898" data-name="Path 10898" d="M219.705,266.993s-5.725-2.033-9.7-.914a6.61,6.61,0,0,1-2.308,3.585c-1.715,1.1-5.91,1.616-6.71,4s7.591,4.679,10.587,3.469,5.7-4.222,8.543-4.078-.417-6.062-.417-6.062" transform="translate(-188.664 -165.474)" fill="#fff"/>
            <path id="Path_10899" data-name="Path 10899" d="M208.486,277.085a6.636,6.636,0,0,0,2.4-.364,20.252,20.252,0,0,0,3.415-1.942c1.7-1.118,3.313-2.176,4.887-2.1a1.521,1.521,0,0,0,1.468-.67c1-1.562-.955-5.455-1.356-6.22a.566.566,0,0,0-.311-.27c-.241-.086-5.942-2.08-10.038-.926a.567.567,0,0,0-.4.413,6.074,6.074,0,0,1-2.064,3.24,11.854,11.854,0,0,1-2.139.917c-1.956.708-4.173,1.51-4.8,3.38a1.849,1.849,0,0,0,.681,2.011c1.556,1.466,5.388,2.528,8.258,2.528m10.533-5.538c-1.864,0-3.631,1.161-5.343,2.286a19.448,19.448,0,0,1-3.217,1.839c-2.13.86-7.7-.281-9.454-1.938-.334-.314-.463-.592-.385-.826.454-1.351,2.4-2.055,4.113-2.676A12.47,12.47,0,0,0,207.1,269.2a6.816,6.816,0,0,0,2.457-3.593c3.317-.78,7.826.58,8.842.91.824,1.629,1.756,4.173,1.3,4.884-.032.05-.106.166-.457.149q-.111-.006-.223-.006" transform="translate(-187.755 -164.537)"/>
            <path id="Path_10900" data-name="Path 10900" d="M107.146,185.493,100.473,200.9a12.044,12.044,0,0,1-7.373,6.682L67.5,215.8l.6,8.892s33.628-3.156,39.444-7.444c5.443-4.014,12.285-22.536,12.285-22.536Z" transform="translate(-36.861 -115.504)" fill="#394974"/>
            <path id="Path_10901" data-name="Path 10901" d="M100.187,215.428a.561.561,0,0,0,.173-.027l25.6-8.213a12.609,12.609,0,0,0,7.72-7l6.672-15.409a.566.566,0,0,0-1.039-.45l-6.672,15.409a11.479,11.479,0,0,1-7.026,6.368l-25.6,8.212a.566.566,0,0,0,.173,1.105" transform="translate(-69.546 -114.569)"/>
            <path id="Path_10902" data-name="Path 10902" d="M83.526,262.423a.581.581,0,0,0,.067,0c12.361-1.458,27.922-3.8,31.853-6.7,1.746-1.287,3.781-4.092,6.049-8.337a.566.566,0,1,0-1-.534c-2.188,4.1-4.114,6.773-5.723,7.96-2.911,2.147-14.032,4.451-31.314,6.489a.566.566,0,0,0,.066,1.128" transform="translate(-44.425 -153.521)"/>
          </g>
        </g>
      </g>
    </g>
    <path id="Path_10952" data-name="Path 10952" d="M-95.38,0h4.08V-4.82h1.54c3.54,0,5.56-1.62,5.56-4.62v-.08c0-3.04-1.82-4.78-5.74-4.78h-5.44Zm4.08-7.62v-3.6h1.2c1.28,0,2,.5,2,1.72v.08c0,1.18-.7,1.8-2.02,1.8ZM-82.56,0H-79V-15.06h-3.56Zm10.9.24c3.16,0,4.98-1.34,5.3-3.7h-3.36c-.14.7-.64,1.24-1.82,1.24A2.088,2.088,0,0,1-73.72-4.4h7.36v-.94c0-3.76-2.46-5.4-5.32-5.4a5.35,5.35,0,0,0-5.66,5.48v.16C-77.34-1.68-74.94.24-71.66.24Zm-2.02-6.66a1.99,1.99,0,0,1,2-1.96c1.16,0,1.78.7,1.84,1.96ZM-61.78.24a3.435,3.435,0,0,0,3.1-1.46V0h3.48V-6.78c0-2.78-1.84-3.96-4.72-3.96-2.86,0-4.84,1.24-5,3.76h3.36a1.285,1.285,0,0,1,1.42-1.24c1.14,0,1.38.66,1.38,1.66v.24h-1c-3.48,0-5.56.96-5.56,3.42C-65.32-.68-63.66.24-61.78.24Zm1.24-2.42c-.84,0-1.24-.38-1.24-.98,0-.86.64-1.14,2.08-1.14h.94v.64A1.577,1.577,0,0,1-60.54-2.18ZM-49.06.24c2.9,0,4.74-1.12,4.74-3.6,0-2.24-1.4-3-4.3-3.36-1.28-.16-1.76-.36-1.76-.86,0-.48.4-.82,1.18-.82a1.169,1.169,0,0,1,1.34,1.04h3.24c-.24-2.5-2.04-3.38-4.62-3.38-2.42,0-4.48,1.12-4.48,3.44,0,2.18,1.18,3,3.98,3.36,1.44.2,1.94.44,1.94.94,0,.52-.4.86-1.28.86-1.02,0-1.36-.42-1.48-1.18h-3.3C-53.78-1-52.04.24-49.06.24Zm11.42,0c3.16,0,4.98-1.34,5.3-3.7H-35.7c-.14.7-.64,1.24-1.82,1.24A2.088,2.088,0,0,1-39.7-4.4h7.36v-.94c0-3.76-2.46-5.4-5.32-5.4a5.35,5.35,0,0,0-5.66,5.48v.16C-43.32-1.68-40.92.24-37.64.24Zm-2.02-6.66a1.99,1.99,0,0,1,2-1.96c1.16,0,1.78.7,1.84,1.96ZM-21.3.24c3.68,0,5.76-2.14,5.76-4.76,0-3.1-1.86-4.04-5.48-4.44-1.78-.24-2.22-.6-2.22-1.4,0-.72.56-1.22,1.66-1.22a1.624,1.624,0,0,1,1.84,1.54h3.8c-.26-3.02-2.2-4.46-5.64-4.46-3.42,0-5.54,1.88-5.54,4.46,0,2.88,1.36,4.08,5.4,4.56,1.72.26,2.26.5,2.26,1.38,0,.84-.66,1.42-1.84,1.42-1.7,0-2.16-.84-2.26-1.86h-3.9C-27.34-1.44-25.3.24-21.3.24Zm12.6,0c3.16,0,4.98-1.34,5.3-3.7H-6.76c-.14.7-.64,1.24-1.82,1.24A2.088,2.088,0,0,1-10.76-4.4H-3.4v-.94c0-3.76-2.46-5.4-5.32-5.4a5.35,5.35,0,0,0-5.66,5.48v.16C-14.38-1.68-11.98.24-8.7.24Zm-2.02-6.66a1.99,1.99,0,0,1,2-1.96c1.16,0,1.78.7,1.84,1.96ZM-1.76,0H1.8V-15.06H-1.76ZM9.14.24c3.16,0,4.98-1.34,5.3-3.7H11.08c-.14.7-.64,1.24-1.82,1.24A2.088,2.088,0,0,1,7.08-4.4h7.36v-.94c0-3.76-2.46-5.4-5.32-5.4A5.35,5.35,0,0,0,3.46-5.26v.16C3.46-1.68,5.86.24,9.14.24ZM7.12-6.42a1.99,1.99,0,0,1,2-1.96c1.16,0,1.78.7,1.84,1.96ZM20.92.24c3.38,0,5.16-1.72,5.26-4.36H22.96a1.742,1.742,0,0,1-1.82,1.74c-1.36,0-2.06-.94-2.06-2.76V-5.3c0-1.76.74-2.66,2-2.66a1.546,1.546,0,0,1,1.68,1.52h3.36c-.2-3.18-2.56-4.3-5.12-4.3a5.262,5.262,0,0,0-5.58,5.48v.16C15.42-1.58,17.8.24,20.92.24ZM31.8.24a7.511,7.511,0,0,0,1.98-.3V-2.78a2.728,2.728,0,0,1-1.02.18A.955.955,0,0,1,31.7-3.7V-8.02h2.06v-2.44H31.7v-2.18H28.12v2.18H26.86v2.44h1.26v4.66C28.12-.9,29.44.24,31.8.24Zm10.5,0a3.435,3.435,0,0,0,3.1-1.46V0h3.48V-6.78c0-2.78-1.84-3.96-4.72-3.96-2.86,0-4.84,1.24-5,3.76h3.36a1.285,1.285,0,0,1,1.42-1.24c1.14,0,1.38.66,1.38,1.66v.24h-1c-3.48,0-5.56.96-5.56,3.42C38.76-.68,40.42.24,42.3.24Zm1.24-2.42c-.84,0-1.24-.38-1.24-.98,0-.86.64-1.14,2.08-1.14h.94v.64A1.577,1.577,0,0,1,43.54-2.18ZM55.18,0h4.08V-4.82H60.8c3.54,0,5.56-1.62,5.56-4.62v-.08c0-3.04-1.82-4.78-5.74-4.78H55.18Zm4.08-7.62v-3.6h1.2c1.28,0,2,.5,2,1.72v.08c0,1.18-.7,1.8-2.02,1.8ZM68,0h3.56V-15.06H68Zm8.72.24a3.435,3.435,0,0,0,3.1-1.46V0H83.3V-6.78c0-2.78-1.84-3.96-4.72-3.96-2.86,0-4.84,1.24-5,3.76h3.36a1.285,1.285,0,0,1,1.42-1.24c1.14,0,1.38.66,1.38,1.66v.24h-1c-3.48,0-5.56.96-5.56,3.42C73.18-.68,74.84.24,76.72.24Zm1.24-2.42c-.84,0-1.24-.38-1.24-.98,0-.86.64-1.14,2.08-1.14h.94v.64A1.577,1.577,0,0,1,77.96-2.18ZM85.34,0h3.58V-5.86c0-1.34.72-1.98,1.78-1.98,1.04,0,1.5.58,1.5,1.76V0h3.58V-6.8c0-2.68-1.4-3.94-3.42-3.94a3.692,3.692,0,0,0-3.44,1.96v-1.68H85.34Z" transform="translate(1114 1210)" fill="#6e6e6e"/>
  </g>
</svg>
