<svg width="45" height="45" viewBox="0 0 45 45" fill="none" xmlns="http://www.w3.org/2000/svg">
<path d="M17.5273 21.2559C18.2508 21.8301 19.0729 22.2754 19.9727 22.5684L15.001 36.2061L12.7783 38.3193L12.4355 35.2715L17.5273 21.2559ZM23.876 6.125V10.0635L24.2051 10.1826C26.194 10.9027 27.626 12.7853 27.626 15C27.626 17.8363 25.3372 20.1249 22.501 20.125C19.6646 20.125 17.376 17.8364 17.376 15C17.376 12.7853 18.8071 10.9028 20.7959 10.1826L21.126 10.0635V6.125H23.876ZM22.501 12.625C21.1936 12.625 20.126 13.6926 20.126 15C20.126 16.3074 21.1936 17.375 22.501 17.375C23.8083 17.3749 24.876 16.3073 24.876 15C24.876 13.6927 23.8083 12.6251 22.501 12.625Z" fill="#434343" stroke="#434343"/>
<path d="M32.582 35.2705L32.2256 38.3232L29.998 36.2061L25.0273 22.5674C25.9181 22.2746 26.746 21.8292 27.4727 21.2549L32.582 35.2705Z" fill="#FAB737" stroke="#FAB737"/>
</svg>
