<svg width="40" height="40" viewBox="0 0 40 40" fill="none" xmlns="http://www.w3.org/2000/svg">
<path d="M34.9991 25.4182C35.8511 24.3157 36.379 22.9976 36.5238 21.6117C36.6685 20.2259 36.4244 18.8271 35.8187 17.5723C35.213 16.3175 34.2697 15.2562 33.0946 14.5074C31.9195 13.7587 30.559 13.3521 29.1658 13.3332H26.1824C25.7077 11.7485 24.9014 10.2829 23.8169 9.03359C22.7325 7.7843 21.3948 6.77992 19.8926 6.08709C18.3903 5.39426 16.7579 5.02883 15.1037 5.01505C13.4494 5.00127 11.8112 5.33946 10.2976 6.00717C8.78406 6.67487 7.4298 7.65683 6.32472 8.88789C5.21963 10.1189 4.38899 11.5709 3.8879 13.1475C3.38682 14.7241 3.22676 16.3892 3.41834 18.0324C3.60992 19.6756 4.14876 21.2592 4.99911 22.6782" stroke="#434343" stroke-width="2" stroke-linecap="round" stroke-linejoin="round"/>
<path d="M11.6641 18.333V24.9997H18.3307" stroke="#FAB737" stroke-width="2" stroke-linecap="round" stroke-linejoin="round"/>
<path d="M13.3307 31.667C14.3801 33.0662 15.8432 34.0998 17.5127 34.6213C19.1821 35.1428 20.9734 35.1258 22.6326 34.5727C24.2919 34.0196 25.7351 32.9585 26.7577 31.5396C27.7804 30.1207 28.3307 28.416 28.3307 26.667C28.3307 24.6779 27.5406 22.7702 26.134 21.3637C24.7275 19.9572 22.8199 19.167 20.8307 19.167C19.7755 19.1662 18.7304 19.3734 17.7553 19.7766C16.7801 20.1798 15.8939 20.7712 15.1474 21.517L11.6641 25.0003" stroke="#FAB737" stroke-width="2" stroke-linecap="round" stroke-linejoin="round"/>
</svg>
