<svg width="45" height="45" viewBox="0 0 45 45" fill="none" xmlns="http://www.w3.org/2000/svg">
<path d="M6.09375 9.375C6.09375 8.00748 6.637 6.69597 7.60398 5.72898C8.57096 4.762 9.88248 4.21875 11.25 4.21875H30C31.3675 4.21875 32.679 4.762 33.646 5.72898C34.613 6.69597 35.1563 8.00748 35.1563 9.375V19.6875C35.1563 20.0605 35.0081 20.4181 34.7444 20.6819C34.4806 20.9456 34.123 21.0938 33.75 21.0938C33.377 21.0938 33.0194 20.9456 32.7556 20.6819C32.4919 20.4181 32.3438 20.0605 32.3438 19.6875V9.375C32.3438 8.08125 31.2938 7.03125 30 7.03125H11.25C9.95625 7.03125 8.90625 8.08125 8.90625 9.375V35.625C8.90625 36.9188 9.95625 37.9688 11.25 37.9688H25.3125C25.6855 37.9688 26.0431 38.1169 26.3069 38.3806C26.5706 38.6444 26.7188 39.002 26.7188 39.375C26.7188 39.748 26.5706 40.1056 26.3069 40.3694C26.0431 40.6331 25.6855 40.7812 25.3125 40.7812H11.25C9.88248 40.7812 8.57096 40.238 7.60398 39.271C6.637 38.304 6.09375 36.9925 6.09375 35.625V9.375Z" fill="#434343"/>
<path d="M11.7188 20.625C11.7188 20.252 11.8669 19.8944 12.1306 19.6306C12.3944 19.3669 12.752 19.2187 13.125 19.2187H14.0625C14.4355 19.2187 14.7931 19.3669 15.0569 19.6306C15.3206 19.8944 15.4688 20.252 15.4688 20.625C15.4688 20.998 15.3206 21.3556 15.0569 21.6194C14.7931 21.8831 14.4355 22.0312 14.0625 22.0312H13.125C12.752 22.0312 12.3944 21.8831 12.1306 21.6194C11.8669 21.3556 11.7188 20.998 11.7188 20.625ZM17.3438 20.625C17.3438 20.252 17.4919 19.8944 17.7556 19.6306C18.0194 19.3669 18.377 19.2187 18.75 19.2187H28.125C28.498 19.2187 28.8556 19.3669 29.1194 19.6306C29.3831 19.8944 29.5313 20.252 29.5313 20.625C29.5313 20.998 29.3831 21.3556 29.1194 21.6194C28.8556 21.8831 28.498 22.0312 28.125 22.0312H18.75C18.377 22.0312 18.0194 21.8831 17.7556 21.6194C17.4919 21.3556 17.3438 20.998 17.3438 20.625ZM11.7188 26.25C11.7188 25.877 11.8669 25.5194 12.1306 25.2556C12.3944 24.9919 12.752 24.8437 13.125 24.8437H14.0625C14.4355 24.8437 14.7931 24.9919 15.0569 25.2556C15.3206 25.5194 15.4688 25.877 15.4688 26.25C15.4688 26.623 15.3206 26.9806 15.0569 27.2444C14.7931 27.5081 14.4355 27.6562 14.0625 27.6562H13.125C12.752 27.6562 12.3944 27.5081 12.1306 27.2444C11.8669 26.9806 11.7188 26.623 11.7188 26.25ZM17.3438 26.25C17.3438 25.877 17.4919 25.5194 17.7556 25.2556C18.0194 24.9919 18.377 24.8437 18.75 24.8437H25.3125C25.6855 24.8437 26.0431 24.9919 26.3069 25.2556C26.5706 25.5194 26.7188 25.877 26.7188 26.25C26.7188 26.623 26.5706 26.9806 26.3069 27.2444C26.0431 27.5081 25.6855 27.6562 25.3125 27.6562H18.75C18.377 27.6562 18.0194 27.5081 17.7556 27.2444C17.4919 26.9806 17.3438 26.623 17.3438 26.25ZM11.7188 31.875C11.7188 31.502 11.8669 31.1444 12.1306 30.8806C12.3944 30.6169 12.752 30.4687 13.125 30.4687H14.0625C14.4355 30.4687 14.7931 30.6169 15.0569 30.8806C15.3206 31.1444 15.4688 31.502 15.4688 31.875C15.4688 32.248 15.3206 32.6056 15.0569 32.8694C14.7931 33.1331 14.4355 33.2812 14.0625 33.2812H13.125C12.752 33.2812 12.3944 33.1331 12.1306 32.8694C11.8669 32.6056 11.7188 32.248 11.7188 31.875ZM17.3438 31.875C17.3438 31.502 17.4919 31.1444 17.7556 30.8806C18.0194 30.6169 18.377 30.4687 18.75 30.4687H22.5C22.873 30.4687 23.2306 30.6169 23.4944 30.8806C23.7581 31.1444 23.9063 31.502 23.9063 31.875C23.9063 32.248 23.7581 32.6056 23.4944 32.8694C23.2306 33.1331 22.873 33.2812 22.5 33.2812H18.75C18.377 33.2812 18.0194 33.1331 17.7556 32.8694C17.4919 32.6056 17.3438 32.248 17.3438 31.875ZM11.25 12.1875C11.25 11.3137 11.25 10.8769 11.3925 10.5319C11.5832 10.0734 11.948 9.70923 12.4069 9.51938C12.7519 9.375 13.1888 9.375 14.0625 9.375H27.1875C28.0613 9.375 28.4981 9.375 28.8431 9.5175C29.3016 9.70821 29.6658 10.073 29.8556 10.5319C30 10.8769 30 11.3137 30 12.1875C30 13.0612 30 13.4981 29.8575 13.8431C29.6668 14.3016 29.302 14.6658 28.8431 14.8556C28.4981 15 28.0613 15 27.1875 15H14.0625C13.1888 15 12.7519 15 12.4069 14.8575C11.9484 14.6668 11.5842 14.302 11.3944 13.8431C11.25 13.4981 11.25 13.0612 11.25 12.1875Z" fill="#434343"/>
<path d="M34.7444 25.2556C34.4806 24.9919 34.123 24.8438 33.75 24.8438C33.377 24.8438 33.0194 24.9919 32.7556 25.2556C32.4919 25.5194 32.3438 25.877 32.3438 26.25V27.0319H32.1806C30.3862 27.0319 28.5938 28.3425 28.5938 30.3431C28.5938 31.1738 28.8206 31.9425 29.3831 32.5425C29.9044 33.0956 30.5681 33.3506 31.0856 33.5044L35.6194 34.8187C35.7937 34.8712 35.9062 34.9162 35.9812 34.9537C36.0088 34.9678 36.0351 34.9841 36.06 35.0025C36.0852 35.0934 36.0966 35.1876 36.0937 35.2819C36.0937 35.3512 36.0638 35.4581 35.9363 35.5706C35.7624 35.7121 35.5435 35.7866 35.3194 35.7806H32.4956C31.71 35.7806 31.4062 35.2669 31.4062 35.0006C31.4062 34.6277 31.2581 34.27 30.9944 34.0063C30.7306 33.7425 30.373 33.5944 30 33.5944C29.627 33.5944 29.2694 33.7425 29.0056 34.0063C28.7419 34.27 28.5938 34.6277 28.5938 35.0006C28.5938 37.1006 30.4181 38.52 32.3438 38.5913V39.375C32.3438 39.748 32.4919 40.1056 32.7556 40.3694C33.0194 40.6331 33.377 40.7812 33.75 40.7812C34.123 40.7812 34.4806 40.6331 34.7444 40.3694C35.0081 40.1056 35.1562 39.748 35.1562 39.375V38.5931H35.3194C37.1137 38.5931 38.9062 37.2825 38.9062 35.2819C38.9062 34.4512 38.6794 33.6825 38.1169 33.0825C37.5956 32.5294 36.9319 32.2744 36.4144 32.1206L31.8806 30.8062C31.7063 30.7537 31.5937 30.7087 31.5187 30.6712C31.4912 30.6572 31.4649 30.6409 31.44 30.6225C31.4148 30.5316 31.4034 30.4374 31.4062 30.3431C31.4062 30.2738 31.4362 30.1669 31.5637 30.0544C31.7376 29.9129 31.9565 29.8384 32.1806 29.8444H35.0044C35.79 29.8444 36.0937 30.3581 36.0937 30.6244C36.0937 30.9973 36.2419 31.355 36.5056 31.6187C36.7694 31.8825 37.127 32.0306 37.5 32.0306C37.873 32.0306 38.2306 31.8825 38.4944 31.6187C38.7581 31.355 38.9062 30.9973 38.9062 30.6244C38.9062 28.5244 37.0819 27.105 35.1562 27.0337V26.25C35.1562 25.877 35.0081 25.5194 34.7444 25.2556Z" fill="#FAB737"/>
</svg>
