<svg width="40" height="40" viewBox="0 0 40 40" fill="none" xmlns="http://www.w3.org/2000/svg">
<path d="M20.001 2.16699C24.3247 2.16699 27.8348 5.67629 27.835 10V13.834H30.001C30.7523 13.834 31.4735 14.1318 32.0049 14.6631C32.5362 15.1944 32.835 15.9155 32.835 16.667V21.2441C32.4562 21.1986 32.0676 21.167 31.668 21.167C31.2683 21.167 30.8797 21.1986 30.501 21.2441V16.167H9.50098V33.834H21.4043C21.5761 34.6533 21.8444 35.4325 22.1934 36.167H10.001C9.24965 36.1669 8.52932 35.8682 7.99805 35.3369C7.46677 34.8056 7.16806 34.0853 7.16797 33.334V16.667C7.16797 15.0932 8.42727 13.8342 10.001 13.834H12.168V10C12.1681 5.6764 15.6774 2.16717 20.001 2.16699ZM36.8262 28.7168L29.5996 35.9443L25.6924 31.6816L26.9346 30.4404L29.585 33.0908L29.9385 32.7373L35.5312 27.1436L36.8262 28.7168ZM20.001 4.5C16.9584 4.50018 14.5012 6.95745 14.501 10V13.834H25.501V10C25.5008 6.95734 23.0437 4.5 20.001 4.5Z" fill="#434343" stroke="#434343"/>
<path d="M20.001 22.167C20.7524 22.167 21.4735 22.4657 22.0049 22.9971C22.5361 23.5283 22.8349 24.2487 22.835 25C22.835 26.5739 21.5748 27.834 20.001 27.834C19.2497 27.8339 18.5293 27.5351 17.998 27.0039C17.4667 26.4726 17.168 25.7514 17.168 25C17.1681 23.4264 18.4274 22.1672 20.001 22.167Z" fill="#FAB737" stroke="#FAB737"/>
</svg>
