<svg width="34" height="32" viewBox="0 0 34 32" fill="none" xmlns="http://www.w3.org/2000/svg">
<path d="M8.95898 29.9064H24.3757" stroke="#434343" stroke-width="2.5" stroke-linecap="round" stroke-linejoin="round"/>
<path d="M1.25 22.7424V4.11565C1.25 3.35563 1.57485 2.62674 2.15309 2.08933C2.73132 1.55192 3.51558 1.25 4.33333 1.25H29C29.8178 1.25 30.602 1.55192 31.1802 2.08933C31.7585 2.62674 32.0833 3.35563 32.0833 4.11565V22.7424C32.0833 23.5024 31.7585 24.2313 31.1802 24.7687C30.602 25.3061 29.8178 25.6081 29 25.6081H4.33333C3.51558 25.6081 2.73132 25.3061 2.15309 24.7687C1.57485 24.2313 1.25 23.5024 1.25 22.7424Z" stroke="#434343" stroke-width="2.5"/>
<path d="M17.4179 7.83025L21.6315 8.78473C21.811 8.82471 21.9701 8.91894 22.0825 9.05186C22.1949 9.18478 22.2539 9.34846 22.2498 9.51587C22.0074 17.6607 16.75 18.9084 16.75 18.9084C16.75 18.9084 11.4926 17.6607 11.2502 9.51587C11.246 9.34863 11.3049 9.18508 11.417 9.05218C11.5291 8.91928 11.6879 8.82495 11.8671 8.78473L16.0808 7.83025C16.5197 7.73074 16.9789 7.73074 17.4179 7.83025Z" fill="#FAB737" stroke="#FAB737" stroke-linecap="round" stroke-linejoin="round"/>
</svg>
