<svg width="44" height="44" viewBox="0 0 44 44" fill="none" xmlns="http://www.w3.org/2000/svg">
<path d="M20.167 4.16699C24.1314 4.16707 27.471 5.53745 30.2168 8.2832C32.9627 11.0291 34.333 14.3693 34.333 18.334C34.333 19.9904 34.0669 21.5441 33.5381 22.999C33.0058 24.4634 32.2672 25.7992 31.3223 27.0088L31.0508 27.3574L31.3633 27.6709L39.626 35.9336L37.7666 37.793L29.5039 29.5303L29.1904 29.2178L28.8428 29.4893C27.6319 30.4344 26.2952 31.1728 24.832 31.7051C23.3785 32.2339 21.8247 32.5 20.167 32.5C16.2024 32.5 12.8621 31.1297 10.1162 28.3838C7.37046 25.638 6.00008 22.2984 6 18.334C6 14.3693 7.37028 11.0291 10.1162 8.2832C12.8621 5.53727 16.2024 4.16699 20.167 4.16699ZM20.167 6.83398C16.9803 6.83398 14.2552 7.95475 12.0215 10.1885C9.78776 12.4222 8.66699 15.1473 8.66699 18.334C8.66707 21.5204 9.78795 24.2449 12.0215 26.4785C14.2552 28.7122 16.9803 29.834 20.167 29.834C23.3535 29.8339 26.0779 28.7122 28.3115 26.4785C30.5452 24.2449 31.6669 21.5205 31.667 18.334C31.667 15.1473 30.5452 12.4222 28.3115 10.1885C26.0779 7.95494 23.3534 6.83406 20.167 6.83398ZM20.167 20.667C21.3712 20.667 22.5356 20.8431 23.6621 21.1943C24.6139 21.4911 25.5307 21.9037 26.4131 22.4316C25.6584 23.2396 24.7973 23.8778 23.8242 24.3457C22.6862 24.8928 21.4689 25.1669 20.167 25.167C18.8637 25.167 17.6465 24.8927 16.5098 24.3457C15.5375 23.8778 14.6755 23.2399 13.9199 22.4316C14.8043 21.9033 15.7218 21.4912 16.6729 21.1943C17.7982 20.843 18.9625 20.667 20.167 20.667Z" fill="#434343" stroke="#434343"/>
<path d="M20.165 11.5C21.0433 11.5021 21.7804 11.8088 22.4033 12.4316C23.0262 13.0545 23.3319 13.7905 23.333 14.667C23.3341 15.5426 23.0294 16.2792 22.4043 16.9033C21.7787 17.5279 21.0417 17.8329 20.167 17.833H20.1641C19.2968 17.8372 18.5615 17.5332 17.9316 16.9033C17.3019 16.2736 16.9969 15.5376 17 14.6689C17.0032 13.7971 17.3089 13.0587 17.9326 12.4297C18.5538 11.8032 19.2889 11.498 20.165 11.5Z" fill="#FAB737" stroke="#FAB737"/>
</svg>
