<svg width="32" height="32" viewBox="0 0 32 32" fill="none" xmlns="http://www.w3.org/2000/svg">
<g clip-path="url(#clip0_1700_14932)">
<mask id="path-1-inside-1_1700_14932" fill="white">
<path fill-rule="evenodd" clip-rule="evenodd" d="M8.45909 12.823V5.84246L14.8591 8.75675V16.471L9.12423 13.863C8.92457 13.7722 8.75526 13.6259 8.63651 13.4415C8.51776 13.2571 8.45458 13.0424 8.45452 12.823M17.1402 28.1647V20.5305L23.2019 23.2916V31.0059L17.4739 28.3979C17.3488 28.341 17.2373 28.262 17.1402 28.1647ZM25.4854 31.0105V23.2916L31.8922 20.375V27.3579C31.8922 27.5772 31.829 27.7919 31.7102 27.9763C31.5915 28.1607 31.4222 28.3071 31.2225 28.3979L25.4854 31.0105ZM14.8545 20.5305V28.1739C14.7594 28.267 14.6488 28.3428 14.5277 28.3979L8.79052 31.0105V23.2916L14.8545 20.5305ZM6.5048 23.2916V31.0059L0.779089 28.3979C0.57943 28.3071 0.410119 28.1607 0.291366 27.9763C0.172613 27.7919 0.109436 27.5772 0.109375 27.3579V20.3773L6.5048 23.2916ZM17.1402 16.4756V8.75446L23.5471 5.83789V12.823C23.547 13.0424 23.4839 13.2571 23.3651 13.4415C23.2463 13.6259 23.077 13.7722 22.8774 13.863L17.1402 16.4756ZM23.8785 15.6299C24.0271 15.5623 24.1884 15.5274 24.3517 15.5274C24.5149 15.5274 24.6762 15.5623 24.8248 15.6299L30.8134 18.3545L24.3448 21.3007L17.8877 18.3545L23.8785 15.6299ZM7.17909 15.6299C7.32767 15.5623 7.48901 15.5274 7.65223 15.5274C7.81546 15.5274 7.97679 15.5623 8.12538 15.6299L14.1139 18.3545L7.64766 21.303L1.18595 18.3545L7.17909 15.6299Z"/>
</mask>
<path fill-rule="evenodd" clip-rule="evenodd" d="M8.45909 12.823V5.84246L14.8591 8.75675V16.471L9.12423 13.863C8.92457 13.7722 8.75526 13.6259 8.63651 13.4415C8.51776 13.2571 8.45458 13.0424 8.45452 12.823M17.1402 28.1647V20.5305L23.2019 23.2916V31.0059L17.4739 28.3979C17.3488 28.341 17.2373 28.262 17.1402 28.1647ZM25.4854 31.0105V23.2916L31.8922 20.375V27.3579C31.8922 27.5772 31.829 27.7919 31.7102 27.9763C31.5915 28.1607 31.4222 28.3071 31.2225 28.3979L25.4854 31.0105ZM14.8545 20.5305V28.1739C14.7594 28.267 14.6488 28.3428 14.5277 28.3979L8.79052 31.0105V23.2916L14.8545 20.5305ZM6.5048 23.2916V31.0059L0.779089 28.3979C0.57943 28.3071 0.410119 28.1607 0.291366 27.9763C0.172613 27.7919 0.109436 27.5772 0.109375 27.3579V20.3773L6.5048 23.2916ZM17.1402 16.4756V8.75446L23.5471 5.83789V12.823C23.547 13.0424 23.4839 13.2571 23.3651 13.4415C23.2463 13.6259 23.077 13.7722 22.8774 13.863L17.1402 16.4756ZM23.8785 15.6299C24.0271 15.5623 24.1884 15.5274 24.3517 15.5274C24.5149 15.5274 24.6762 15.5623 24.8248 15.6299L30.8134 18.3545L24.3448 21.3007L17.8877 18.3545L23.8785 15.6299ZM7.17909 15.6299C7.32767 15.5623 7.48901 15.5274 7.65223 15.5274C7.81546 15.5274 7.97679 15.5623 8.12538 15.6299L14.1139 18.3545L7.64766 21.303L1.18595 18.3545L7.17909 15.6299Z" fill="#434343"/>
<path d="M8.45909 5.84246L8.87351 4.93237L7.45909 4.28831V5.84246H8.45909ZM14.8591 8.75675H15.8591V8.11331L15.2735 7.84666L14.8591 8.75675ZM14.8591 16.471L14.4451 17.3813L15.8591 18.0243V16.471H14.8591ZM9.12423 13.863L8.71023 14.7733L8.71027 14.7733L9.12423 13.863ZM17.1402 28.1647H16.1402V28.5783L16.4324 28.8711L17.1402 28.1647ZM17.1402 20.5305L17.5548 19.6204L16.1402 18.9761V20.5305H17.1402ZM23.2019 23.2916H24.2019V22.6483L23.6165 22.3816L23.2019 23.2916ZM23.2019 31.0059L22.7876 31.916L24.2019 32.56V31.0059H23.2019ZM17.4739 28.3979L17.8883 27.4878L17.8878 27.4876L17.4739 28.3979ZM25.4854 31.0105H24.4854V32.5646L25.8998 31.9205L25.4854 31.0105ZM25.4854 23.2916L25.0711 22.3815L24.4854 22.6481V23.2916H25.4854ZM31.8922 20.375H32.8922V18.8211L31.4779 19.4649L31.8922 20.375ZM31.8922 27.3579L32.8922 27.3582V27.3579H31.8922ZM31.2225 28.3979L30.8085 27.4876L30.8081 27.4878L31.2225 28.3979ZM14.8545 20.5305H15.8545V18.9763L14.4401 19.6204L14.8545 20.5305ZM14.8545 28.1739L15.5543 28.8883L15.8545 28.5942V28.1739H14.8545ZM14.5277 28.3979L14.1139 27.4875L14.1132 27.4878L14.5277 28.3979ZM8.79052 31.0105H7.79052V32.5646L9.20495 31.9205L8.79052 31.0105ZM8.79052 23.2916L8.37612 22.3815L7.79052 22.6482V23.2916H8.79052ZM6.5048 23.2916H7.5048V22.6484L6.91946 22.3816L6.5048 23.2916ZM6.5048 31.0059L6.09029 31.9159L7.5048 32.5602V31.0059H6.5048ZM0.779089 28.3979L1.1936 27.4878L1.19309 27.4876L0.779089 28.3979ZM0.109375 27.3579H-0.890625L-0.890625 27.3582L0.109375 27.3579ZM0.109375 20.3773L0.524035 19.4673L-0.890625 18.8227V20.3773H0.109375ZM17.1402 16.4756H16.1402V18.0298L17.5547 17.3857L17.1402 16.4756ZM17.1402 8.75446L16.7259 7.84433L16.1402 8.11095V8.75446H17.1402ZM23.5471 5.83789H24.5471V4.28392L23.1328 4.92776L23.5471 5.83789ZM23.5471 12.823L24.5471 12.8233V12.823H23.5471ZM22.8774 13.863L22.4634 12.9528L22.4629 12.953L22.8774 13.863ZM23.8785 15.6299L24.2925 16.5402L24.2925 16.5402L23.8785 15.6299ZM24.8248 15.6299L25.2389 14.7197L25.2388 14.7196L24.8248 15.6299ZM30.8134 18.3545L31.2279 19.2645L33.227 18.3539L31.2275 17.4442L30.8134 18.3545ZM24.3448 21.3007L23.9297 22.2105L24.3444 22.3998L24.7593 22.2108L24.3448 21.3007ZM17.8877 18.3545L17.4737 17.4442L15.4754 18.353L17.4725 19.2642L17.8877 18.3545ZM7.17909 15.6299L7.59295 16.5402L7.59309 16.5402L7.17909 15.6299ZM8.12538 15.6299L8.53949 14.7197L8.53938 14.7196L8.12538 15.6299ZM14.1139 18.3545L14.5288 19.2643L16.5265 18.3534L14.5281 17.4442L14.1139 18.3545ZM7.64766 21.303L7.23253 22.2128L7.64751 22.4022L8.06255 22.2129L7.64766 21.303ZM1.18595 18.3545L0.772091 17.4441L-1.22662 18.3528L0.770811 19.2642L1.18595 18.3545ZM8.45909 12.823H9.45909V5.84246H8.45909H7.45909V12.823H8.45909ZM8.45909 5.84246L8.04468 6.75255L14.4447 9.66684L14.8591 8.75675L15.2735 7.84666L8.87351 4.93237L8.45909 5.84246ZM14.8591 8.75675H13.8591V16.471H14.8591H15.8591V8.75675H14.8591ZM14.8591 16.471L15.2731 15.5607L9.5382 12.9527L9.12423 13.863L8.71027 14.7733L14.4451 17.3813L14.8591 16.471ZM9.12423 13.863L9.53823 12.9528C9.51328 12.9414 9.49211 12.9231 9.47727 12.9001L8.63651 13.4415L7.79575 13.9829C8.01841 14.3287 8.33587 14.603 8.71023 14.7733L9.12423 13.863ZM8.63651 13.4415L9.47727 12.9001C9.46242 12.877 9.45453 12.8502 9.45452 12.8228L8.45452 12.823L7.45452 12.8233C7.45463 13.2346 7.57309 13.6371 7.79575 13.9829L8.63651 13.4415ZM17.1402 28.1647H18.1402V20.5305H17.1402H16.1402V28.1647H17.1402ZM17.1402 20.5305L16.7257 21.4405L22.7874 24.2016L23.2019 23.2916L23.6165 22.3816L17.5548 19.6204L17.1402 20.5305ZM23.2019 23.2916H22.2019V31.0059H23.2019H24.2019V23.2916H23.2019ZM23.2019 31.0059L23.6163 30.0958L17.8883 27.4878L17.4739 28.3979L17.0596 29.308L22.7876 31.916L23.2019 31.0059ZM17.4739 28.3979L17.8878 27.4876C17.878 27.4831 17.8649 27.4752 17.8481 27.4584L17.1402 28.1647L16.4324 28.8711C16.6097 29.0488 16.8197 29.1989 17.0601 29.3082L17.4739 28.3979ZM25.4854 31.0105H26.4854V23.2916H25.4854H24.4854V31.0105H25.4854ZM25.4854 23.2916L25.8997 24.2017L32.3065 21.2852L31.8922 20.375L31.4779 19.4649L25.0711 22.3815L25.4854 23.2916ZM31.8922 20.375H30.8922V27.3579H31.8922H32.8922V20.375H31.8922ZM31.8922 27.3579L30.8922 27.3576C30.8922 27.385 30.8843 27.4119 30.8695 27.4349L31.7102 27.9763L32.551 28.5177C32.7737 28.172 32.8921 27.7694 32.8922 27.3582L31.8922 27.3579ZM31.7102 27.9763L30.8695 27.4349C30.8546 27.458 30.8335 27.4763 30.8085 27.4876L31.2225 28.3979L31.6365 29.3082C32.0109 29.1379 32.3283 28.8635 32.551 28.5177L31.7102 27.9763ZM31.2225 28.3979L30.8081 27.4878L25.0709 30.1004L25.4854 31.0105L25.8998 31.9205L31.637 29.308L31.2225 28.3979ZM14.8545 20.5305H13.8545V28.1739H14.8545H15.8545V20.5305H14.8545ZM14.8545 28.1739L14.1548 27.4595C14.1429 27.4711 14.1291 27.4806 14.1139 27.4875L14.5277 28.3979L14.9414 29.3083C15.1686 29.205 15.376 29.0629 15.5543 28.8883L14.8545 28.1739ZM14.5277 28.3979L14.1132 27.4878L8.37609 30.1004L8.79052 31.0105L9.20495 31.9205L14.9421 29.308L14.5277 28.3979ZM8.79052 31.0105H9.79052V23.2916H8.79052H7.79052V31.0105H8.79052ZM8.79052 23.2916L9.20492 24.2017L15.2689 21.4406L14.8545 20.5305L14.4401 19.6204L8.37612 22.3815L8.79052 23.2916ZM6.5048 23.2916H5.5048V31.0059H6.5048H7.5048V23.2916H6.5048ZM6.5048 31.0059L6.91932 30.0958L1.1936 27.4878L0.779089 28.3979L0.364575 29.3079L6.09029 31.9159L6.5048 31.0059ZM0.779089 28.3979L1.19309 27.4876C1.16813 27.4763 1.14697 27.458 1.13212 27.4349L0.291366 27.9763L-0.549392 28.5177C-0.32673 28.8635 -0.00927085 29.1379 0.365089 29.3082L0.779089 28.3979ZM0.291366 27.9763L1.13212 27.4349C1.11728 27.4119 1.10938 27.385 1.10937 27.3576L0.109375 27.3579L-0.890625 27.3582C-0.890511 27.7694 -0.772053 28.172 -0.549392 28.5177L0.291366 27.9763ZM0.109375 27.3579H1.10938V20.3773H0.109375H-0.890625V27.3579H0.109375ZM0.109375 20.3773L-0.305285 21.2873L6.09014 24.2016L6.5048 23.2916L6.91946 22.3816L0.524035 19.4673L0.109375 20.3773ZM17.1402 16.4756H18.1402V8.75446H17.1402H16.1402V16.4756H17.1402ZM17.1402 8.75446L17.5546 9.66459L23.9614 6.74802L23.5471 5.83789L23.1328 4.92776L16.7259 7.84433L17.1402 8.75446ZM23.5471 5.83789H22.5471V12.823H23.5471H24.5471V5.83789H23.5471ZM23.5471 12.823L22.5471 12.8228C22.5471 12.8502 22.5392 12.877 22.5243 12.9001L23.3651 13.4415L24.2059 13.9829C24.4285 13.6371 24.547 13.2346 24.5471 12.8233L23.5471 12.823ZM23.3651 13.4415L22.5243 12.9001C22.5095 12.9231 22.4883 12.9414 22.4634 12.9528L22.8774 13.863L23.2914 14.7733C23.6657 14.603 23.9832 14.3287 24.2059 13.9829L23.3651 13.4415ZM22.8774 13.863L22.4629 12.953L16.7258 15.5655L17.1402 16.4756L17.5547 17.3857L23.2918 14.7731L22.8774 13.863ZM23.8785 15.6299L24.2925 16.5402C24.3111 16.5317 24.3313 16.5274 24.3517 16.5274V15.5274V14.5274C24.0456 14.5274 23.7431 14.5929 23.4645 14.7196L23.8785 15.6299ZM24.3517 15.5274V16.5274C24.3721 16.5274 24.3922 16.5317 24.4108 16.5402L24.8248 15.6299L25.2388 14.7196C24.9602 14.5929 24.6577 14.5274 24.3517 14.5274V15.5274ZM24.8248 15.6299L24.4107 16.5401L30.3993 19.2647L30.8134 18.3545L31.2275 17.4442L25.2389 14.7197L24.8248 15.6299ZM30.8134 18.3545L30.3989 17.4444L23.9303 20.3907L24.3448 21.3007L24.7593 22.2108L31.2279 19.2645L30.8134 18.3545ZM24.3448 21.3007L24.7599 20.391L18.3028 17.4447L17.8877 18.3545L17.4725 19.2642L23.9297 22.2105L24.3448 21.3007ZM17.8877 18.3545L18.3016 19.2647L24.2925 16.5402L23.8785 15.6299L23.4645 14.7196L17.4737 17.4442L17.8877 18.3545ZM7.17909 15.6299L7.59309 16.5402C7.61166 16.5317 7.63183 16.5274 7.65223 16.5274V15.5274V14.5274C7.34618 14.5274 7.04368 14.5929 6.76509 14.7196L7.17909 15.6299ZM7.65223 15.5274V16.5274C7.67264 16.5274 7.69281 16.5317 7.71138 16.5402L8.12538 15.6299L8.53938 14.7196C8.26078 14.5929 7.95828 14.5274 7.65223 14.5274V15.5274ZM8.12538 15.6299L7.71126 16.5401L13.6998 19.2647L14.1139 18.3545L14.5281 17.4442L8.53949 14.7197L8.12538 15.6299ZM14.1139 18.3545L13.6991 17.4446L7.23277 20.3932L7.64766 21.303L8.06255 22.2129L14.5288 19.2643L14.1139 18.3545ZM7.64766 21.303L8.0628 20.3933L1.60108 17.4447L1.18595 18.3545L0.770811 19.2642L7.23253 22.2128L7.64766 21.303ZM1.18595 18.3545L1.5998 19.2648L7.59295 16.5402L7.17909 15.6299L6.76523 14.7195L0.772091 17.4441L1.18595 18.3545Z" fill="#434343" mask="url(#path-1-inside-1_1700_14932)"/>
<path d="M16.0039 1.49023C16.0497 1.49025 16.0952 1.49526 16.1396 1.50488L16.2695 1.54785L21.2607 3.81934L15.998 6.21582L10.7412 3.82227L15.7373 1.54785C15.8209 1.50984 15.9121 1.49023 16.0039 1.49023Z" fill="#FAB737" stroke="#FAB737"/>
</g>
<defs>
<clipPath id="clip0_1700_14932">
<rect width="32" height="32" fill="white"/>
</clipPath>
</defs>
</svg>
