<svg width="37" height="37" viewBox="0 0 37 37" fill="none" xmlns="http://www.w3.org/2000/svg">
<path d="M23.374 2.56836C25.0558 2.63328 26.6551 3.32908 27.8496 4.52344C29.1033 5.77713 29.8094 7.47703 29.8115 9.25V16.4375H32.374C32.9209 16.4376 33.4453 16.6553 33.832 17.042C34.2187 17.4288 34.4365 17.9531 34.4365 18.5V32.375C34.4365 32.9219 34.2187 33.4462 33.832 33.833C33.4453 34.2197 32.9209 34.4374 32.374 34.4375H27.999V32.625H32.624V18.25H27.999V9.25L27.9922 9.00781C27.931 7.80367 27.4259 6.66132 26.5693 5.80469C25.7146 4.94996 24.5753 4.44393 23.374 4.38086V2.56836ZM19.3008 23.125L12.7178 29.709L9.12695 26.1182L10.4043 24.8408L12.541 26.9785L12.7178 27.1553L12.8945 26.9785L18.0244 21.8477L19.3008 23.125Z" fill="#FAB737" stroke="#FAB737" stroke-width="0.5"/>
<path d="M13.875 2.5625C15.6486 2.5625 17.3494 3.26734 18.6035 4.52148C19.8577 5.77563 20.5625 7.47636 20.5625 9.25V16.4375H23.125C23.672 16.4375 24.1962 16.6552 24.583 17.042C24.9698 17.4288 25.1875 17.953 25.1875 18.5V32.375C25.1875 32.922 24.9698 33.4462 24.583 33.833C24.1962 34.2198 23.672 34.4375 23.125 34.4375H4.625C4.07799 34.4375 3.55379 34.2198 3.16699 33.833C2.7802 33.4462 2.5625 32.922 2.5625 32.375V18.5C2.5625 17.953 2.7802 17.4288 3.16699 17.042C3.55379 16.6552 4.07799 16.4375 4.625 16.4375H7.1875V9.25C7.1875 7.47636 7.89233 5.77563 9.14648 4.52148C10.4006 3.26733 12.1014 2.5625 13.875 2.5625ZM4.375 32.625H23.375V18.25H4.375V32.625ZM13.875 4.375C12.5821 4.375 11.342 4.88849 10.4277 5.80273C9.51349 6.71697 9 7.95707 9 9.25V16.4375H18.75V9.25C18.75 7.95707 18.2365 6.71697 17.3223 5.80273C16.408 4.88849 15.1679 4.375 13.875 4.375Z" fill="#434343" stroke="#434343" stroke-width="0.5"/>
</svg>
