<svg width="43" height="43" viewBox="0 0 43 43" fill="none" xmlns="http://www.w3.org/2000/svg">
<g clip-path="url(#clip0_1834_4152)">
<path d="M42.9993 19.746C42.9993 21.561 38.5883 23.0302 33.1452 23.0302C27.7021 23.0302 23.291 21.561 23.291 19.746V16.4619C23.291 18.2751 27.7021 19.746 33.1452 19.746C38.5883 19.746 42.9993 18.2769 42.9993 16.4619" fill="#434343"/>
<path d="M33.1452 10.9956C27.7075 10.9956 23.291 9.51743 23.291 7.71143V14.2331C23.291 16.0409 27.7075 17.519 33.1452 17.519C38.5829 17.519 42.9993 16.0409 42.9993 14.2331V7.71143C42.9993 9.51743 38.5829 10.9956 33.1452 10.9956Z" fill="#434343"/>
<path d="M43 3.28412C43 1.47096 38.5889 0 33.1458 0C27.7027 0 23.2917 1.46917 23.2917 3.28412V5.47533C23.2917 7.2885 27.7027 8.75946 33.1458 8.75946C38.5889 8.75946 43 7.29029 43 5.47533M19.7083 39.4543C19.7083 41.2692 15.2972 42.7384 9.85417 42.7384C4.41108 42.7384 0 41.2692 0 39.4543V36.1702C0 37.9833 4.41108 39.4525 9.85417 39.4525C15.2972 39.4525 19.7083 37.9833 19.7083 36.1684V39.4543Z" fill="#FAB737"/>
<path d="M9.85417 30.7038C4.41646 30.7038 0 29.2257 0 27.4197V33.9413C0 35.7491 4.41646 37.2273 9.85417 37.2273C15.2919 37.2273 19.7083 35.7491 19.7083 33.9413V27.4197C19.7083 29.2257 15.2919 30.7038 9.85417 30.7038Z" fill="#434343"/>
<path d="M19.7083 22.9924C19.7083 21.1792 15.2972 19.7083 9.85417 19.7083C4.41108 19.7083 0 21.1774 0 22.9924V25.1836C0 26.9968 4.41108 28.4677 9.85417 28.4677C15.2972 28.4677 19.7083 26.9985 19.7083 25.1836V22.9924ZM35.8333 37.6249H32.25V32.9845L27.6096 37.6249L25.0833 35.0987L29.7237 30.4583H25.0833V26.8749H35.8333V37.6249Z" fill="#434343"/>
</g>
<defs>
<clipPath id="clip0_1834_4152">
<rect width="43" height="43" fill="white"/>
</clipPath>
</defs>
</svg>
