<svg width="43" height="43" viewBox="0 0 43 43" fill="none" xmlns="http://www.w3.org/2000/svg">
<ellipse cx="28.8423" cy="29.3658" rx="9.96342" ry="9.43902" fill="#FAB737"/>
<path d="M21.5008 4.30005C27.5573 4.30005 30.993 8.4345 31.4918 13.4289H31.6423C35.5446 13.4289 38.7008 16.6797 38.7008 20.6895C38.7008 20.8945 38.6929 21.0973 38.6771 21.2979C37.9837 20.4338 37.1783 19.666 36.282 19.0146C35.6155 17.0087 33.7816 15.5789 31.6445 15.5789H31.4918C30.9588 15.579 30.4448 15.381 30.0495 15.0234C29.6543 14.6659 29.4059 14.1743 29.3526 13.6439C28.9183 9.2988 26.0351 6.45005 21.5008 6.45005C16.9557 6.45005 14.0854 9.27945 13.649 13.6418C13.5962 14.1725 13.348 14.6647 12.9527 15.0226C12.5573 15.3806 12.0431 15.5789 11.5097 15.5789H11.3592C8.65883 15.5789 6.45078 17.8536 6.45078 20.6895C6.45078 23.5275 8.66098 25.8 11.3571 25.8H17.089C16.8984 26.504 16.7711 27.2235 16.7084 27.95H11.3571C7.45913 27.95 4.30078 24.6992 4.30078 20.6895C4.30078 16.813 7.25273 13.6461 10.9701 13.4397L11.5097 13.4289C12.0128 8.40225 15.4442 4.30005 21.5008 4.30005Z" fill="#434343"/>
<path d="M33.3285 30.2343C33.0076 30.2343 32.6998 30.1068 32.4728 29.8798L30.1035 27.5105V33.3241C30.1035 33.6092 29.9903 33.8827 29.7887 34.0843C29.5871 34.2859 29.3136 34.3991 29.0285 34.3991C28.7434 34.3991 28.47 34.2859 28.2684 34.0843C28.0668 33.8827 27.9535 33.6092 27.9535 33.3241V27.5105L25.5842 29.8798C25.4718 29.9922 25.3384 30.0813 25.1916 30.1421C25.0448 30.203 24.8874 30.2343 24.7285 30.2343C24.5696 30.2343 24.4122 30.203 24.2654 30.1421C24.1186 30.0813 23.9852 29.9922 23.8728 29.8798C23.7604 29.7675 23.6713 29.634 23.6105 29.4872C23.5497 29.3404 23.5184 29.183 23.5184 29.0241C23.5184 28.8652 23.5497 28.7078 23.6105 28.561C23.6713 28.4142 23.7604 28.2808 23.8728 28.1684L28.1728 23.8684C28.2848 23.7553 28.418 23.6655 28.5649 23.6042C28.7118 23.543 28.8694 23.5114 29.0285 23.5114C29.1877 23.5114 29.3452 23.543 29.4921 23.6042C29.639 23.6655 29.7723 23.7553 29.8842 23.8684L34.1842 28.1684C34.4112 28.3954 34.5387 28.7032 34.5387 29.0241C34.5387 29.3451 34.4112 29.6529 34.1842 29.8798C33.9573 30.1068 33.6495 30.2343 33.3285 30.2343Z" fill="white"/>
</svg>
