<svg width="41" height="41" viewBox="0 0 41 41" fill="none" xmlns="http://www.w3.org/2000/svg">
<path d="M17.0846 8.54199H5.1263C4.67322 8.54199 4.2387 8.72198 3.91833 9.04235C3.59795 9.36273 3.41797 9.79725 3.41797 10.2503V32.4587C3.41797 32.9117 3.59795 33.3463 3.91833 33.6666C4.2387 33.987 4.67322 34.167 5.1263 34.167H35.8763C36.3294 34.167 36.7639 33.987 37.0843 33.6666C37.4047 33.3463 37.5846 32.9117 37.5846 32.4587V30.3232" stroke="#434343" stroke-width="2" stroke-linecap="round" stroke-linejoin="round"/>
<path d="M8.54297 19.6465H15.3763M8.54297 26.4798H29.043" stroke="#434343" stroke-width="2" stroke-linecap="round"/>
<path d="M37.5857 24.2749C35.9175 21.0145 32.4607 18.792 29.044 18.792C25.6273 18.792 23.925 19.7598 22.168 21.3545" stroke="#FAB737" stroke-width="2" stroke-linecap="round" stroke-linejoin="round"/>
<path d="M29.043 18.792C31.8734 18.792 34.168 16.4975 34.168 13.667C34.168 10.8365 31.8734 8.54199 29.043 8.54199C26.2125 8.54199 23.918 10.8365 23.918 13.667C23.918 16.4975 26.2125 18.792 29.043 18.792Z" fill="#FAB737" stroke="#FAB737" stroke-width="2" stroke-linecap="round" stroke-linejoin="round"/>
</svg>
