<svg width="39" height="39" viewBox="0 0 39 39" fill="none" xmlns="http://www.w3.org/2000/svg">
<path d="M10.9688 8.53125C11.6418 8.53125 12.1875 7.9856 12.1875 7.3125C12.1875 6.6394 11.6418 6.09375 10.9688 6.09375C10.2957 6.09375 9.75 6.6394 9.75 7.3125C9.75 7.9856 10.2957 8.53125 10.9688 8.53125Z" fill="#FAB737"/>
<path d="M31.6875 2.4375H7.3125C6.66603 2.4375 6.04605 2.69431 5.58893 3.15143C5.13181 3.60855 4.875 4.22853 4.875 4.875V9.75C4.875 10.3965 5.13181 11.0165 5.58893 11.4736C6.04605 11.9307 6.66603 12.1875 7.3125 12.1875H18.2812V17.0625H20.7188V12.1875H31.6875C32.334 12.1875 32.954 11.9307 33.4111 11.4736C33.8682 11.0165 34.125 10.3965 34.125 9.75V4.875C34.125 4.22853 33.8682 3.60855 33.4111 3.15143C32.954 2.69431 32.334 2.4375 31.6875 2.4375ZM31.6875 9.75H7.3125V4.875H31.6875V9.75Z" fill="#434343"/>
<path d="M10.9688 25.5938C11.6418 25.5938 12.1875 25.0481 12.1875 24.375C12.1875 23.7019 11.6418 23.1562 10.9688 23.1562C10.2957 23.1562 9.75 23.7019 9.75 24.375C9.75 25.0481 10.2957 25.5938 10.9688 25.5938Z" fill="#FAB737"/>
<path d="M7.3125 29.25H31.6875C32.334 29.25 32.954 28.9932 33.4111 28.5361C33.8682 28.079 34.125 27.459 34.125 26.8125V21.9375C34.125 21.291 33.8682 20.671 33.4111 20.2139C32.954 19.7568 32.334 19.5 31.6875 19.5H7.3125C6.66603 19.5 6.04605 19.7568 5.58893 20.2139C5.13181 20.671 4.875 21.291 4.875 21.9375V26.8125C4.875 27.459 5.13181 28.079 5.58893 28.5361C6.04605 28.9932 6.66603 29.25 7.3125 29.25ZM7.3125 21.9375H31.6875V26.8125H7.3125V21.9375Z" fill="#434343"/>
<path d="M20.7188 31.6875V34.125H34.125V36.5625H4.875V34.125H18.2812V31.6875H20.7188Z" fill="#FAB737"/>
</svg>
