<svg width="41" height="41" viewBox="0 0 41 41" fill="none" xmlns="http://www.w3.org/2000/svg">
<rect x="10" y="10" width="19" height="21" fill="#FAB737"/>
<path d="M20.5 1.7085L5.125 8.54183V18.7918C5.125 28.2731 11.685 37.1393 20.5 39.2918C29.315 37.1393 35.875 28.2731 35.875 18.7918V8.54183L20.5 1.7085ZM20.5 11.9585C22.8917 11.9585 25.2833 13.8377 25.2833 16.2293V18.7918C26.3083 18.7918 27.3333 19.8168 27.3333 21.0127V26.9918C27.3333 28.0168 26.3083 29.0418 25.1125 29.0418H15.7167C14.6917 29.0418 13.6667 28.0168 13.6667 26.821V20.8418C13.6667 19.8168 14.6917 18.7918 15.7167 18.7918V16.2293C15.7167 13.8377 18.1083 11.9585 20.5 11.9585ZM20.5 14.0085C19.1333 14.0085 17.9375 14.8627 17.9375 16.2293V18.7918H23.0625V16.2293C23.0625 14.8627 21.8667 14.0085 20.5 14.0085Z" fill="#434343"/>
</svg>
