<svg width="45" height="45" viewBox="0 0 45 45" fill="none" xmlns="http://www.w3.org/2000/svg">
<path d="M19.0409 27.6992L19.0241 27.6599C18.7706 27.5906 18.5192 27.5136 18.2703 27.4292L18.2516 27.4217C15.6614 26.5355 13.4131 24.8616 11.8215 22.6342C10.2299 20.4068 9.37456 17.7375 9.37531 14.9999C9.37448 11.6401 10.6621 8.40788 12.973 5.96904C15.284 3.53021 18.4421 2.07045 21.7971 1.89045C25.1521 1.71044 28.4484 2.8239 31.007 5.00146C33.5655 7.17903 35.1916 10.2549 35.5503 13.5955C35.6328 14.368 34.9953 14.9999 34.2191 14.9999C33.4428 14.9999 32.8222 14.3661 32.7191 13.5974C32.4697 11.7829 31.7416 10.0675 30.6097 8.62757C29.4778 7.18764 27.9829 6.07508 26.2786 5.40422C24.5744 4.73337 22.7222 4.52843 20.9125 4.81046C19.1028 5.09249 17.4008 5.85132 15.9815 7.00896C14.5622 8.1666 13.4767 9.6813 12.8367 11.3974C12.1966 13.1135 12.0251 14.969 12.3396 16.7733C12.6542 18.5777 13.4436 20.2657 14.6266 21.664C15.8096 23.0622 17.3436 24.1202 19.0709 24.7292C19.4189 23.9427 20.0266 23.2997 20.7923 22.908C21.558 22.5163 22.435 22.3996 23.2764 22.5776C24.1179 22.7556 24.8725 23.2174 25.414 23.8857C25.9554 24.5539 26.2507 25.3879 26.2503 26.248C26.2512 27.1147 25.9518 27.955 25.403 28.6259C24.8543 29.2969 24.09 29.757 23.2403 29.928C22.3906 30.0991 21.5079 29.9705 20.7423 29.5641C19.9767 29.1578 19.3755 28.4988 19.0409 27.6992ZM17.1191 30.0055C14.9083 29.2115 12.9004 27.9386 11.2391 26.278C10.2118 26.3975 9.26426 26.8901 8.57639 27.6624C7.88851 28.4346 7.50824 29.4326 7.50781 30.4667V32.1917C7.50781 33.2642 7.84156 34.3105 8.46406 35.1842C11.3553 39.2417 16.0878 41.2499 22.5003 41.2499C28.9128 41.2499 33.6472 39.2399 36.5441 35.1842C37.1694 34.3096 37.5057 33.2613 37.5059 32.1861V30.4649C37.5059 29.3466 37.062 28.2741 36.2716 27.4831C35.4813 26.692 34.4092 26.2471 33.2909 26.2461H29.0628C29.0631 27.6427 28.6178 29.003 27.7918 30.1291C26.9657 31.2552 25.8019 32.0884 24.4697 32.5075C23.1375 32.9266 21.7063 32.9098 20.3843 32.4595C19.0623 32.0092 17.9184 31.1507 17.1191 30.0055ZM30.0003 14.9999C30.0003 13.9038 29.7601 12.821 29.2965 11.8278C28.8329 10.8346 28.1573 9.95506 27.3172 9.25111C26.5373 8.59874 25.6329 8.11175 24.659 7.81974C23.6851 7.52773 22.662 7.43679 21.6518 7.55245C20.6417 7.66811 19.6656 7.98796 18.7829 8.49255C17.9002 8.99715 17.1293 9.67595 16.5171 10.4877C15.9049 11.2995 15.4641 12.2272 15.2215 13.2146C14.979 14.202 14.9398 15.2284 15.1062 16.2315C15.2726 17.2345 15.6413 18.1932 16.1897 19.0494C16.7382 19.9055 17.455 20.6412 18.2966 21.2117C19.4762 20.2272 20.9638 19.6877 22.5003 19.6874C24.0997 19.6874 25.5659 20.2592 26.7059 21.2117C27.7209 20.5244 28.5519 19.5987 29.1262 18.5158C29.7005 17.4329 30.0006 16.2257 30.0003 14.9999Z" fill="#434343"/>
<circle cx="22.9073" cy="26.1817" r="4.09091" fill="#FAB737"/>
</svg>
