<svg width="37" height="37" viewBox="0 0 37 37" fill="none" xmlns="http://www.w3.org/2000/svg">
<path d="M5.66504 26.708V31.333H10.29V33.416H6.16504C5.45082 33.4159 4.8519 33.1683 4.3418 32.6582C3.89542 32.2118 3.64901 31.6968 3.59375 31.0957L3.58203 30.832V26.708H5.66504ZM33.415 26.708V30.833C33.415 31.5474 33.1667 32.1469 32.6562 32.6582C32.1464 33.1688 31.5479 33.4168 30.833 33.416H26.707V31.333H31.332V26.708H33.415ZM30.832 3.58301C31.5462 3.58301 32.1458 3.83137 32.6572 4.34277C33.1686 4.85415 33.4159 5.45333 33.415 6.16602V10.291H31.332V5.66602H26.707V3.58301H30.832ZM10.29 3.58301V5.66602H5.66504V10.291H3.58203V6.16602L3.59375 5.9043C3.64825 5.30427 3.89458 4.79028 4.3418 4.34375C4.78936 3.89695 5.30388 3.64997 5.90332 3.59473L6.16602 3.58301H10.29Z" fill="#FAB737" stroke="#FAB737"/>
<path d="M18.5 15.916C18.9471 15.916 19.3579 16.0318 19.7422 16.2666C20.137 16.5079 20.4531 16.8239 20.6943 17.2188L20.6973 17.2227L22.2383 19.6895C22.95 20.8385 23.9141 21.7797 25.1211 22.5117C26.2165 23.176 27.4438 23.5389 28.792 23.6104V25.6953C27.3563 25.6328 26.0089 25.3005 24.7461 24.6973C23.3261 24.0188 22.1432 23.1278 21.1904 22.0264L20.5225 21.2539L20.3223 22.2559L19.3232 27.249H14.1748L15.5986 19.9834L15.7734 19.0918L14.9268 19.4209L12.1523 20.5L11.833 20.624V25.708H9.75V19.29L15.5371 16.8008L15.5361 16.7998C16.4333 16.4153 17.068 16.1785 17.4561 16.0732C17.8468 15.9673 18.1939 15.917 18.5 15.916ZM20.8135 8.97852C21.5243 8.97679 22.1239 9.2245 22.6377 9.73828C23.1513 10.2519 23.398 10.8504 23.3955 11.5596C23.3929 12.2719 23.1441 12.8733 22.6348 13.3887C22.1289 13.9006 21.5316 14.149 20.8145 14.1455H20.8125C20.0981 14.1455 19.4994 13.8969 18.9893 13.3867C18.4791 12.8766 18.2304 12.2772 18.2295 11.5615C18.2286 10.8467 18.4768 10.2482 18.9883 9.73926C19.5012 9.22902 20.1009 8.9803 20.8135 8.97852Z" fill="#434343" stroke="#434343"/>
</svg>
