<svg width="39" height="39" viewBox="0 0 39 39" fill="none" xmlns="http://www.w3.org/2000/svg">
<path d="M19.5 35.75C15.7354 34.8021 12.6273 32.6419 10.1758 29.2695C7.72417 25.8971 6.49892 22.1531 6.5 18.0375V8.125L19.5 3.25L32.5 8.125V18.0375C32.5 22.1542 31.2748 25.8987 28.8243 29.2711C26.3738 32.6435 23.2657 34.8032 19.5 35.75ZM19.5 32.3375C22.3167 31.4438 24.6458 29.6562 26.4875 26.975C28.3292 24.2938 29.25 21.3146 29.25 18.0375V10.3594L19.5 6.70313L9.75 10.3594V18.0375C9.75 21.3146 10.6708 24.2938 12.5125 26.975C14.3542 29.6562 16.6833 31.4438 19.5 32.3375Z" fill="#434343"/>
<path d="M21.9355 24.3754H17.0605L17.9949 19.1347C17.4543 18.8639 17.028 18.4712 16.716 17.9566C16.404 17.442 16.248 16.8733 16.248 16.2504C16.2502 15.3588 16.5687 14.594 17.2035 13.9559C17.8384 13.3178 18.6032 12.9993 19.498 13.0004C20.3929 13.0015 21.1583 13.32 21.7942 13.9559C22.4301 14.5918 22.748 15.3566 22.748 16.2504C22.7491 16.8733 22.5937 17.442 22.2817 17.9566C21.9697 18.4712 21.5428 18.8639 21.0012 19.1347L21.9355 24.3754Z" fill="#FAB737"/>
</svg>
