<svg xmlns="http://www.w3.org/2000/svg" xmlns:xlink="http://www.w3.org/1999/xlink" width="142" height="381" viewBox="0 0 142 381">
  <defs>
    <clipPath id="clip-path">
      <rect id="Rectangle_2714" data-name="Rectangle 2714" width="142" height="381" transform="translate(0 2118)" fill="#fff"/>
    </clipPath>
  </defs>
  <g id="Mask_Group_37" data-name="Mask Group 37" transform="translate(0 -2118)" clip-path="url(#clip-path)">
    <g id="New_Symbol" data-name="New Symbol" transform="translate(130 2124.793) rotate(90)" opacity="0.21">
      <g id="Group_6831" data-name="Group 6831" transform="translate(163.949 251.624)">
        <circle id="Ellipse_11" data-name="Ellipse 11" cx="43.584" cy="43.584" r="43.584" transform="translate(61.636 58.406) rotate(45)" fill="none" stroke="#37a044" stroke-linecap="round" stroke-width="1.112"/>
        <path id="Path_10865" data-name="Path 10865" d="M58.453,116.907A58.453,58.453,0,1,0,0,58.453" transform="translate(3.183 61.589)" fill="none" stroke="#37a044" stroke-linecap="round" stroke-width="1.112"/>
        <line id="Line_113" data-name="Line 113" y1="122.06" transform="translate(61.631 0)" fill="none" stroke="#3089bb" stroke-linecap="round" stroke-width="1.559"/>
      </g>
      <g id="Group_6833" data-name="Group 6833" transform="translate(0 0)">
        <path id="Path_10866" data-name="Path 10866" d="M289.758,25.354h0A25.354,25.354,0,0,0,264.4,0H25.354A25.354,25.354,0,0,0,0,25.354H0A25.354,25.354,0,0,0,25.354,50.708" transform="translate(16.143 0)" fill="none" stroke="#37a044" stroke-width="1.559"/>
        <g id="Group_6832" data-name="Group 6832" transform="translate(109.012 50.708)">
          <path id="Path_10867" data-name="Path 10867" d="M0,35.377A18.131,18.131,0,0,0,18.131,53.508H47.317A18.131,18.131,0,0,0,65.448,35.377V18.131A18.131,18.131,0,0,0,47.317,0H18.131" transform="translate(33.437 199.218)" fill="none" stroke="#37a044" stroke-width="1.559"/>
          <path id="Path_10868" data-name="Path 10868" d="M0,58.815H32.081A19.929,19.929,0,0,0,52.01,38.886V19.929A19.929,19.929,0,0,0,32.081,0" transform="translate(46.875)" fill="none" stroke="#37a044" stroke-width="1.559"/>
          <path id="Path_10869" data-name="Path 10869" d="M0,58.815H32.081A19.929,19.929,0,0,0,52.01,38.886V19.929A19.929,19.929,0,0,0,32.081,0" transform="translate(201.185 132.743)" fill="none" stroke="#37a044" stroke-width="1.559"/>
          <path id="Path_10870" data-name="Path 10870" d="M52.01,38.886H19.929A19.929,19.929,0,0,1,0,18.957V0" transform="translate(0 160.333)" fill="none" stroke="#37a044" stroke-width="1.559"/>
          <line id="Line_114" data-name="Line 114" y1="28.302" transform="translate(0 127.579)" fill="none" stroke="#37a044" stroke-width="1.559"/>
          <line id="Line_115" data-name="Line 115" y1="6.412" transform="translate(0 112.986)" fill="none" stroke="#37a044" stroke-width="1.559"/>
          <line id="Line_116" data-name="Line 116" y1="32.724" transform="translate(0 74.071)" fill="none" stroke="#37a044" stroke-width="1.559"/>
        </g>
        <circle id="Ellipse_12" data-name="Ellipse 12" cx="20.862" cy="20.862" r="20.862" transform="translate(109.012 95.276) rotate(45)" fill="none" stroke="#37a044" stroke-width="1.559"/>
        <circle id="Ellipse_13" data-name="Ellipse 13" cx="37.81" cy="37.81" r="37.81" transform="translate(225.586 129.979) rotate(45)" fill="none" stroke="#37a044" stroke-width="1.559"/>
        <path id="Path_10871" data-name="Path 10871" d="M29.628,14.814A14.814,14.814,0,1,0,14.814,29.628,14.814,14.814,0,0,0,29.628,14.814Z" transform="translate(252.03 261.866)" fill="none" stroke="#37a044" stroke-width="1.559"/>
        <path id="Path_10872" data-name="Path 10872" d="M17.059,34.117A17.058,17.058,0,1,0,0,17.059" transform="translate(208.527 166.392)" fill="none" stroke="#37a044" stroke-width="1.559"/>
        <path id="Path_10873" data-name="Path 10873" d="M17.058,34.117A17.058,17.058,0,1,1,34.117,17.058" transform="translate(108.332 268.666)" fill="none" stroke="#37a044" stroke-width="1.559"/>
        <path id="Path_10874" data-name="Path 10874" d="M22.266,11.133A11.133,11.133,0,1,0,11.133,22.266,11.133,11.133,0,0,0,22.266,11.133Z" transform="translate(170.759 68.982)" fill="none" stroke="#37a044" stroke-width="1.559"/>
        <line id="Line_117" data-name="Line 117" x1="84.611" transform="translate(140.975 183.45)" fill="none" stroke="#37a044" stroke-width="1.559"/>
        <line id="Line_118" data-name="Line 118" x1="11.498" transform="translate(120.338 183.45)" fill="none" stroke="#37a044" stroke-width="1.559"/>
        <line id="Line_119" data-name="Line 119" x1="69.87" transform="translate(25.704 183.45)" fill="none" stroke="#37a044" stroke-width="1.559"/>
        <line id="Line_120" data-name="Line 120" x1="22.258" transform="translate(161.022 50.707)" fill="none" stroke="#37a044" stroke-width="1.559"/>
        <line id="Line_121" data-name="Line 121" x1="90.212" transform="translate(62.408 50.707)" fill="none" stroke="#37a044" stroke-width="1.559"/>
        <line id="Line_122" data-name="Line 122" x1="150.964" transform="translate(91.68 25.354)" fill="none" stroke="#3089bb" stroke-width="1.559"/>
        <line id="Line_123" data-name="Line 123" x1="91.671" transform="translate(175.173 276.68)" fill="none" stroke="#3089bb" stroke-width="1.559"/>
        <line id="Line_124" data-name="Line 124" x2="64.211" transform="translate(252.03 183.45)" fill="none" stroke="#3089bb" stroke-width="0.78"/>
        <line id="Line_125" data-name="Line 125" x2="11.055" transform="translate(325.969 183.45)" fill="none" stroke="#3089bb" stroke-width="0.78"/>
        <line id="Line_126" data-name="Line 126" x2="53.422" transform="translate(181.892 80.115)" fill="none" stroke="#3089bb" stroke-width="0.78"/>
        <line id="Line_127" data-name="Line 127" y2="52.052" transform="translate(125.391 285.724)" fill="none" stroke="#3089bb" stroke-width="0.78"/>
        <ellipse id="Ellipse_14" data-name="Ellipse 14" cx="2.506" cy="2.506" rx="2.506" ry="2.506" transform="translate(299.436 239.759)" fill="none" stroke="#37a044" stroke-width="0.78"/>
        <ellipse id="Ellipse_15" data-name="Ellipse 15" cx="2.506" cy="2.506" rx="2.506" ry="2.506" transform="translate(291.476 239.759)" fill="none" stroke="#37a044" stroke-width="0.78"/>
        <ellipse id="Ellipse_16" data-name="Ellipse 16" cx="2.506" cy="2.506" rx="2.506" ry="2.506" transform="translate(283.516 239.759)" fill="none" stroke="#37a044" stroke-width="0.78"/>
        <ellipse id="Ellipse_17" data-name="Ellipse 17" cx="2.506" cy="2.506" rx="2.506" ry="2.506" transform="translate(275.556 239.759)" fill="none" stroke="#37a044" stroke-width="0.78"/>
        <ellipse id="Ellipse_18" data-name="Ellipse 18" cx="2.506" cy="2.506" rx="2.506" ry="2.506" transform="translate(122.885 340.872)" fill="none" stroke="#37a044" stroke-width="0.78"/>
        <ellipse id="Ellipse_19" data-name="Ellipse 19" cx="8.457" cy="8.457" rx="8.457" ry="8.457" transform="translate(0 174.993)" fill="none" stroke="#3089bb" stroke-width="1.559"/>
        <ellipse id="Ellipse_20" data-name="Ellipse 20" cx="5.749" cy="5.749" rx="5.749" ry="5.749" transform="translate(303.415 270.931)" fill="none" stroke="#37a044" stroke-width="0.78"/>
        <path id="Path_10875" data-name="Path 10875" d="M26.829,13.414A13.415,13.415,0,1,0,13.414,26.829,13.415,13.415,0,0,0,26.829,13.414Z" transform="translate(31.009 11.94)" fill="none" stroke="#37a044" stroke-width="1.559"/>
      </g>
    </g>
  </g>
</svg>
