<svg xmlns="http://www.w3.org/2000/svg" width="40" height="40.222" viewBox="0 0 40 40.222">
  <g id="Group_6964" data-name="Group 6964" transform="translate(-94 -1465)">
    <g id="Group_7356" data-name="Group 7356" transform="translate(70.57 1441.012)">
      <rect id="Rectangle_2886" data-name="Rectangle 2886" width="40" height="40" transform="translate(23.43 23.988)" fill="none"/>
      <g id="Group_8062" data-name="Group 8062" transform="translate(1.46 -5.462)">
        <g id="Path_16190" data-name="Path 16190" transform="translate(23.232 29.45)" fill="none">
          <path d="M18.737,0C29.085,0,37.473,8,37.473,17.861S29.085,35.722,18.737,35.722,0,27.725,0,17.861,8.389,0,18.737,0Z" stroke="none"/>
          <path d="M 18.73660278320312 1.999996185302734 C 14.24810218811035 1.999996185302734 10.03301239013672 3.661678314208984 6.867803573608398 6.678937911987305 C 3.728752136230469 9.671247482299805 2.000003814697266 13.64235877990723 2.000003814697266 17.86075782775879 C 2.000003814697266 22.07914733886719 3.728752136230469 26.05026817321777 6.867803573608398 29.04257774353027 C 10.03301239013672 32.05983734130859 14.24810218811035 33.72151947021484 18.73660278320312 33.72151947021484 C 23.22510147094727 33.72151947021484 27.44019317626953 32.05983734130859 30.60540390014648 29.04257774353027 C 33.74445343017578 26.05026817321777 35.47320175170898 22.07914733886719 35.47320175170898 17.86075782775879 C 35.47320175170898 13.64235877990723 33.74445343017578 9.671247482299805 30.60540390014648 6.678937911987305 C 27.44019317626953 3.661678314208984 23.22510147094727 1.999996185302734 18.73660278320312 1.999996185302734 M 18.73660278320312 -3.814697265625e-06 C 29.08454322814941 -3.814697265625e-06 37.47320175170898 7.996528625488281 37.47320175170898 17.86075782775879 C 37.47320175170898 27.72497749328613 29.08454322814941 35.72151947021484 18.73660278320312 35.72151947021484 C 8.388662338256836 35.72151947021484 3.814697265625e-06 27.72497749328613 3.814697265625e-06 17.86075782775879 C 3.814697265625e-06 7.996528625488281 8.388662338256836 -3.814697265625e-06 18.73660278320312 -3.814697265625e-06 Z" stroke="none" fill="#434343"/>
        </g>
        <path id="Path_16193" data-name="Path 16193" d="M-6.307-13.306h1.473v-2.77C-1.6-16.3.31-18.34.31-20.912c0-2.968-1.891-4.067-5.144-4.594v-4.506a2.536,2.536,0,0,1,2.264,2.33H.024C-.24-30.409-2-31.882-4.834-32.146v-2H-6.307v1.978c-2.99.2-4.946,2.022-4.946,4.463,0,2.792,1.693,3.979,4.946,4.528v4.946c-2.088-.264-2.572-1.473-2.748-2.9h-2.726c.22,2.66,1.715,4.792,5.474,5.056Zm3.913-7.342a2.5,2.5,0,0,1-2.44,2.418v-4.7C-2.922-22.517-2.394-21.9-2.394-20.649Zm-6.265-7.3c0-1.1.835-1.956,2.352-2.132v4.331C-8.242-26.144-8.659-26.8-8.659-27.947Z" transform="translate(47.75 70.978)" fill="#434343"/>
        <g id="Polygon_5" data-name="Polygon 5" transform="translate(49.969 69.672) rotate(180)" fill="#434343">
          <path d="M 14.03622817993164 10 L 1.963773727416992 10 L 8.000000953674316 1.70018744468689 L 14.03622817993164 10 Z" stroke="none"/>
          <path d="M 8.000000953674316 3.400361061096191 L 3.927536010742188 9 L 12.07246589660645 9 L 8.000000953674316 3.400361061096191 M 8.000000953674316 0 L 16 11 L 1.9073486328125e-06 11 L 8.000000953674316 0 Z" stroke="none" fill="#fff"/>
        </g>
      </g>
    </g>
  </g>
</svg>
