<svg xmlns="http://www.w3.org/2000/svg" width="40" height="40" viewBox="0 0 40 40">
  <g id="Group_6962" data-name="Group 6962" transform="translate(-799 -1455)">
    <rect id="Rectangle_2696" data-name="Rectangle 2696" width="40" height="40" transform="translate(799 1455)" fill="none"/>
    <g id="list-check" transform="translate(797.001 1455.003)">
      <g id="Group_14306" data-name="Group 14306" transform="translate(2.998 5.997)">
        <path id="Path_51188" data-name="Path 51188" d="M13.765,31.568a1.346,1.346,0,0,1,1.346-1.346H39.333a1.346,1.346,0,1,1,0,2.691H15.111A1.346,1.346,0,0,1,13.765,31.568Zm0-10.765a1.346,1.346,0,0,1,1.346-1.346H39.333a1.346,1.346,0,1,1,0,2.691H15.111A1.346,1.346,0,0,1,13.765,20.8Zm0-10.765a1.346,1.346,0,0,1,1.346-1.346H39.333a1.346,1.346,0,1,1,0,2.691H15.111A1.346,1.346,0,0,1,13.765,10.037ZM10.681,6.393a1.346,1.346,0,0,1,0,1.905L6.644,12.335a1.346,1.346,0,0,1-1.905,0L3.393,10.989A1.347,1.347,0,0,1,5.3,9.084l.393.4L8.775,6.393a1.346,1.346,0,0,1,1.905,0Zm0,10.765a1.346,1.346,0,0,1,0,1.905L6.644,23.1a1.346,1.346,0,0,1-1.905,0L3.393,21.755A1.347,1.347,0,0,1,5.3,19.849l.393.4,3.084-3.087a1.346,1.346,0,0,1,1.905,0Zm0,10.765a1.346,1.346,0,0,1,0,1.905L6.644,33.866a1.346,1.346,0,0,1-1.905,0L3.393,32.52A1.347,1.347,0,0,1,5.3,30.615l.393.4,3.084-3.087a1.346,1.346,0,0,1,1.905,0Z" transform="translate(-2.998 -5.997)" fill="#434343" fill-rule="evenodd"/>
      </g>
    </g>
  </g>
</svg>
