<svg xmlns="http://www.w3.org/2000/svg" width="40" height="40" viewBox="0 0 40 40">
  <g id="Group_6962" data-name="Group 6962" transform="translate(-799 -1455)">
    <rect id="Rectangle_2696" data-name="Rectangle 2696" width="40" height="40" transform="translate(799 1455)" fill="none"/>
    <g id="Group_7878" data-name="Group 7878" transform="translate(-181.688 1091.876)">
      <g id="Group_6958" data-name="Group 6958" transform="translate(995.571 377.314)">
        <path id="Path_10885" data-name="Path 10885" d="M1031.383,416.732h-6.438a2.3,2.3,0,0,1-.359-4.581c-.005-.075-.008-.149-.008-.224a3.242,3.242,0,0,1,6.458-.406,2.589,2.589,0,0,1,.347-.023,2.617,2.617,0,0,1,0,5.234Zm-6.446-3.938a1.634,1.634,0,0,0,.008,3.267h6.438a1.946,1.946,0,1,0-.56-3.809.336.336,0,0,1-.432-.321,2.571,2.571,0,1,0-5.1.468.336.336,0,0,1-.33.4Z" transform="translate(-1022.64 -408.685)" fill="#434343" stroke="#434343" stroke-width="1.5"/>
      </g>
      <g id="Group_6965" data-name="Group 6965" transform="translate(984.134 365.724)">
        <g id="Group_6959" data-name="Group 6959" transform="translate(0.635 16.724)">
          <path id="Path_10886" data-name="Path 10886" d="M1002.9,454.645a15.9,15.9,0,0,1-15.86-15.128.656.656,0,0,1,1.311-.064,14.585,14.585,0,0,0,14.737,13.878h.009a.656.656,0,0,1,.008,1.313Z" transform="translate(-987.037 -438.828)" fill="#434343" stroke="#434343" stroke-width="1"/>
        </g>
        <g id="Group_6960" data-name="Group 6960" transform="translate(20.907 3.811)">
          <path id="Path_10887" data-name="Path 10887" d="M1077.177,411.241a.659.659,0,0,1-.629-.482.677.677,0,0,1,.442-.838,14.46,14.46,0,0,0,7.658-5.586,15.186,15.186,0,0,0-2.192-20.008.687.687,0,0,1-.061-.951.645.645,0,0,1,.926-.062,16.415,16.415,0,0,1,5.294,10.382,16.606,16.606,0,0,1-2.9,11.428,15.764,15.764,0,0,1-8.348,6.089A.638.638,0,0,1,1077.177,411.241Z" transform="translate(-1076.521 -383.146)" fill="#434343" stroke="#434343" stroke-width="1"/>
        </g>
        <g id="Group_6961" data-name="Group 6961" transform="translate(1.143 0)">
          <path id="Path_10888" data-name="Path 10888" d="M990.015,378.31a.657.657,0,0,1-.634-.828,15.909,15.909,0,0,1,22.342-10.123.656.656,0,1,1-.579,1.178,14.6,14.6,0,0,0-20.5,9.287A.657.657,0,0,1,990.015,378.31Z" transform="translate(-989.358 -365.724)" fill="#434343" stroke="#434343" stroke-width="1"/>
        </g>
        <g id="Group_6962-2" data-name="Group 6962" transform="translate(26.544 3.683)">
          <path id="Path_10889" data-name="Path 10889" d="M1103.313,388.274a.656.656,0,0,1-.653-.6l-.364-4.4a.656.656,0,0,1,.825-.688l4.266,1.149a.656.656,0,1,1-.341,1.267l-3.364-.906.287,3.472a.656.656,0,0,1-.6.708Z" transform="translate(-1102.293 -382.559)" fill="#434343" stroke="#434343" stroke-width="1"/>
        </g>
        <g id="Group_6963" data-name="Group 6963" transform="translate(12.736 28.419)">
          <path id="Path_10890" data-name="Path 10890" d="M1041.563,498.673a.656.656,0,0,1-.343-1.216l2.974-1.816-2.715-2.182a.656.656,0,1,1,.822-1.023l3.444,2.767a.656.656,0,0,1-.069,1.072l-3.771,2.3A.655.655,0,0,1,1041.563,498.673Z" transform="translate(-1040.906 -492.291)" fill="#434343" stroke="#434343" stroke-width="1"/>
        </g>
        <g id="Group_6964" data-name="Group 6964" transform="translate(0 7.308)">
          <path id="Path_10891" data-name="Path 10891" d="M985.928,403.875a.655.655,0,0,1-.634-.487l-1.137-4.269a.656.656,0,1,1,1.268-.338l.9,3.367,2.863-1.985a.656.656,0,1,1,.748,1.079l-3.63,2.517A.656.656,0,0,1,985.928,403.875Z" transform="translate(-984.134 -398.294)" fill="#434343" stroke="#434343" stroke-width="1"/>
        </g>
      </g>
    </g>
  </g>
</svg>
