<svg width="32" height="29" viewBox="0 0 32 29" fill="none" xmlns="http://www.w3.org/2000/svg">
<g id="Group 28456">
<path id="Vector (Stroke)" fill-rule="evenodd" clip-rule="evenodd" d="M10.9609 9.65183C12.1799 8.43286 13.8332 7.74805 15.5571 7.74805C17.2809 7.74805 18.9342 8.43286 20.1532 9.65183C21.3722 10.8708 22.057 12.5241 22.057 14.248C22.057 15.9719 21.3722 17.6251 20.1532 18.8441C18.9342 20.0631 17.2809 20.7479 15.5571 20.7479C13.8332 20.7479 12.1799 20.0631 10.9609 18.8441C9.74194 17.6251 9.05713 15.9719 9.05713 14.248C9.05713 12.5241 9.74194 10.8708 10.9609 9.65183Z" fill="#FDC736"/>
<path id="Vector" d="M28.5572 12.5996C28.1596 9.74025 26.8331 7.09085 24.7818 5.05951C22.7305 3.02817 20.0682 1.72757 17.205 1.35803C14.6481 1.0253 12.0498 1.45139 9.73302 2.58334C7.41626 3.71528 5.48328 5.50315 4.17434 7.72471M2.55729 15.8499C2.93322 18.5556 4.14171 21.0774 6.0152 23.0655C7.88869 25.0536 10.3343 26.4095 13.0131 26.9453C15.6918 27.481 18.4708 27.17 20.9648 26.0554C23.4589 24.9408 25.5443 23.0778 26.932 20.7248M1 15.8499C1 16.2808 1.1712 16.6942 1.47594 16.9989C1.78069 17.3036 2.19401 17.4748 2.62498 17.4748C3.05595 17.4748 3.46927 17.3036 3.77402 16.9989C4.07876 16.6942 4.24996 16.2808 4.24996 15.8499C4.24996 15.4189 4.07876 15.0056 3.77402 14.7008C3.46927 14.3961 3.05595 14.2249 2.62498 14.2249C2.19401 14.2249 1.78069 14.3961 1.47594 14.7008C1.1712 15.0056 1 15.4189 1 15.8499ZM26.932 12.5996C26.932 13.0306 27.1032 13.4439 27.4079 13.7487C27.7127 14.0534 28.126 14.2246 28.557 14.2246C28.9879 14.2246 29.4013 14.0534 29.706 13.7487C30.0107 13.4439 30.182 13.0306 30.182 12.5996C30.182 12.1687 30.0107 11.7554 29.706 11.4506C29.4013 11.1459 28.9879 10.9747 28.557 10.9747C28.126 10.9747 27.7127 11.1459 27.4079 11.4506C27.1032 11.7554 26.932 12.1687 26.932 12.5996Z" stroke="#434343" stroke-width="2" stroke-linecap="round" stroke-linejoin="round"/>
</g>
</svg>
