<svg width="38" height="39" viewBox="0 0 38 39" fill="none" xmlns="http://www.w3.org/2000/svg">
<g id="Group 14454">
<g id="shield-security">
<path id="Path 16192" d="M19.4332 3.88477L32.1632 9.58477V18.0708C32.1759 21.9671 30.893 25.7572 28.5162 28.8448C26.3265 31.9302 23.1043 34.1296 19.4332 35.0448C15.7621 34.1296 12.54 31.9302 10.3502 28.8448C7.97388 25.7577 6.69097 21.9685 6.70321 18.0728V9.58477L19.4332 3.88477ZM29.3122 11.3768L19.4332 7.00077L9.55421 11.3768V19.4658H19.4332V32.1288C22.0827 31.2593 24.3985 29.5918 26.0632 27.3548C27.8504 25.0732 28.9746 22.3433 29.3122 19.4648V11.3768Z" fill="#434343"/>
<path id="Path 54266" d="M19.4307 6.99414L29.2897 11.3941L29.2817 19.4571L19.4297 19.4651L19.4307 6.99414Z" fill="#FDC736"/>
</g>
</g>
</svg>
