<svg width="97" height="80" viewBox="0 0 97 80" fill="none" xmlns="http://www.w3.org/2000/svg">
<g filter="url(#filter0_d_810_573)">
<rect x="6" y="4" width="85" height="68" rx="14" fill="#C4FFF8"/>
<g clip-path="url(#clip0_810_573)">
<path d="M34.3333 26.6665C34.7288 26.6665 35.1155 26.5492 35.4444 26.3294C35.7733 26.1097 36.0296 25.7973 36.181 25.4319C36.3324 25.0664 36.372 24.6643 36.2948 24.2763C36.2177 23.8884 36.0272 23.532 35.7475 23.2523C35.4678 22.9726 35.1114 22.7821 34.7234 22.7049C34.3355 22.6278 33.9333 22.6674 33.5679 22.8187C33.2024 22.9701 32.8901 23.2265 32.6703 23.5554C32.4506 23.8843 32.3333 24.2709 32.3333 24.6665C32.3333 25.1969 32.544 25.7056 32.919 26.0807C33.2941 26.4558 33.8028 26.6665 34.3333 26.6665ZM34.3333 23.9998C34.4651 23.9998 34.594 24.0389 34.7036 24.1122C34.8133 24.1854 34.8987 24.2896 34.9492 24.4114C34.9996 24.5332 35.0128 24.6672 34.9871 24.7966C34.9614 24.9259 34.8979 25.0447 34.8047 25.1379C34.7114 25.2311 34.5926 25.2946 34.4633 25.3204C34.334 25.3461 34.1999 25.3329 34.0781 25.2824C33.9563 25.232 33.8522 25.1465 33.7789 25.0369C33.7057 24.9273 33.6666 24.7984 33.6666 24.6665C33.6666 24.4897 33.7368 24.3201 33.8618 24.1951C33.9869 24.0701 34.1564 23.9998 34.3333 23.9998Z" fill="#007C72"/>
<path d="M39.6667 26.6665C40.0623 26.6665 40.449 26.5492 40.7779 26.3294C41.1068 26.1097 41.3631 25.7973 41.5145 25.4319C41.6659 25.0664 41.7055 24.6643 41.6283 24.2763C41.5511 23.8884 41.3607 23.532 41.081 23.2523C40.8013 22.9726 40.4449 22.7821 40.0569 22.7049C39.669 22.6278 39.2668 22.6674 38.9014 22.8187C38.5359 22.9701 38.2236 23.2265 38.0038 23.5554C37.784 23.8843 37.6667 24.2709 37.6667 24.6665C37.6667 25.1969 37.8775 25.7056 38.2525 26.0807C38.6276 26.4558 39.1363 26.6665 39.6667 26.6665ZM39.6667 23.9998C39.7986 23.9998 39.9275 24.0389 40.0371 24.1122C40.1468 24.1854 40.2322 24.2896 40.2827 24.4114C40.3331 24.5332 40.3463 24.6672 40.3206 24.7966C40.2949 24.9259 40.2314 25.0447 40.1382 25.1379C40.0449 25.2311 39.9261 25.2946 39.7968 25.3204C39.6675 25.3461 39.5334 25.3329 39.4116 25.2824C39.2898 25.232 39.1857 25.1465 39.1124 25.0369C39.0392 24.9273 39.0001 24.7984 39.0001 24.6665C39.0001 24.4897 39.0703 24.3201 39.1953 24.1951C39.3204 24.0701 39.4899 23.9998 39.6667 23.9998Z" fill="#007C72"/>
<path d="M34.3333 34.6665C34.7288 34.6665 35.1155 34.5492 35.4444 34.3294C35.7733 34.1097 36.0296 33.7973 36.181 33.4319C36.3324 33.0664 36.372 32.6643 36.2948 32.2763C36.2177 31.8884 36.0272 31.532 35.7475 31.2523C35.4678 30.9726 35.1114 30.7821 34.7234 30.7049C34.3355 30.6278 33.9333 30.6674 33.5679 30.8187C33.2024 30.9701 32.8901 31.2265 32.6703 31.5554C32.4506 31.8843 32.3333 32.2709 32.3333 32.6665C32.3333 33.1969 32.544 33.7056 32.919 34.0807C33.2941 34.4558 33.8028 34.6665 34.3333 34.6665ZM34.3333 31.9998C34.4651 31.9998 34.594 32.0389 34.7036 32.1122C34.8133 32.1854 34.8987 32.2896 34.9492 32.4114C34.9996 32.5332 35.0128 32.6672 34.9871 32.7966C34.9614 32.9259 34.8979 33.0447 34.8047 33.1379C34.7114 33.2311 34.5926 33.2946 34.4633 33.3204C34.334 33.3461 34.1999 33.3329 34.0781 33.2824C33.9563 33.232 33.8522 33.1465 33.7789 33.0369C33.7057 32.9273 33.6666 32.7984 33.6666 32.6665C33.6666 32.4897 33.7368 32.3201 33.8618 32.1951C33.9869 32.0701 34.1564 31.9998 34.3333 31.9998Z" fill="#007C72"/>
<path d="M39.6667 34.6665C40.0623 34.6665 40.449 34.5492 40.7779 34.3294C41.1068 34.1097 41.3631 33.7973 41.5145 33.4319C41.6659 33.0664 41.7055 32.6643 41.6283 32.2763C41.5511 31.8884 41.3607 31.532 41.081 31.2523C40.8013 30.9726 40.4449 30.7821 40.0569 30.7049C39.669 30.6278 39.2668 30.6674 38.9014 30.8187C38.5359 30.9701 38.2236 31.2265 38.0038 31.5554C37.784 31.8843 37.6667 32.2709 37.6667 32.6665C37.6667 33.1969 37.8775 33.7056 38.2525 34.0807C38.6276 34.4558 39.1363 34.6665 39.6667 34.6665ZM39.6667 31.9998C39.7986 31.9998 39.9275 32.0389 40.0371 32.1122C40.1468 32.1854 40.2322 32.2896 40.2827 32.4114C40.3331 32.5332 40.3463 32.6672 40.3206 32.7966C40.2949 32.9259 40.2314 33.0447 40.1382 33.1379C40.0449 33.2311 39.9261 33.2946 39.7968 33.3204C39.6675 33.3461 39.5334 33.3329 39.4116 33.2824C39.2898 33.232 39.1857 33.1465 39.1124 33.0369C39.0392 32.9273 39.0001 32.7984 39.0001 32.6665C39.0001 32.4897 39.0703 32.3201 39.1953 32.1951C39.3204 32.0701 39.4899 31.9998 39.6667 31.9998Z" fill="#007C72"/>
<path d="M34.3333 38.6665C33.9377 38.6665 33.551 38.7838 33.2221 39.0036C32.8932 39.2233 32.6369 39.5357 32.4855 39.9011C32.3341 40.2666 32.2945 40.6687 32.3717 41.0567C32.4489 41.4446 32.6393 41.801 32.919 42.0807C33.1987 42.3604 33.5551 42.5509 33.9431 42.6281C34.331 42.7052 34.7332 42.6656 35.0986 42.5143C35.4641 42.3629 35.7764 42.1065 35.9962 41.7776C36.216 41.4487 36.3333 41.0621 36.3333 40.6665C36.3333 40.1361 36.1225 39.6274 35.7475 39.2523C35.3724 38.8772 34.8637 38.6665 34.3333 38.6665ZM34.3333 41.3332C34.2014 41.3332 34.0725 41.2941 33.9629 41.2208C33.8532 41.1476 33.7678 41.0434 33.7173 40.9216C33.6669 40.7998 33.6537 40.6658 33.6794 40.5364C33.7051 40.4071 33.7686 40.2883 33.8618 40.1951C33.9551 40.1019 34.0739 40.0384 34.2032 40.0126C34.3325 39.9869 34.4666 40.0001 34.5884 40.0506C34.7102 40.101 34.8143 40.1865 34.8876 40.2961C34.9608 40.4058 34.9999 40.5346 34.9999 40.6665C34.9999 40.8433 34.9297 41.0129 34.8047 41.1379C34.6796 41.2629 34.5101 41.3332 34.3333 41.3332Z" fill="#007C72"/>
<path d="M39.6667 38.6665C39.2712 38.6665 38.8845 38.7838 38.5556 39.0036C38.2267 39.2233 37.9704 39.5357 37.819 39.9011C37.6676 40.2666 37.628 40.6687 37.7052 41.0567C37.7823 41.4446 37.9728 41.801 38.2525 42.0807C38.5322 42.3604 38.8886 42.5509 39.2766 42.6281C39.6645 42.7052 40.0667 42.6656 40.4321 42.5143C40.7976 42.3629 41.1099 42.1065 41.3297 41.7776C41.5495 41.4487 41.6667 41.0621 41.6667 40.6665C41.6667 40.1361 41.456 39.6274 41.081 39.2523C40.7059 38.8772 40.1972 38.6665 39.6667 38.6665ZM39.6667 41.3332C39.5349 41.3332 39.406 41.2941 39.2964 41.2208C39.1867 41.1476 39.1013 41.0434 39.0508 40.9216C39.0004 40.7998 38.9872 40.6658 39.0129 40.5364C39.0386 40.4071 39.1021 40.2883 39.1953 40.1951C39.2886 40.1019 39.4074 40.0384 39.5367 40.0126C39.666 39.9869 39.8001 40.0001 39.9219 40.0506C40.0437 40.101 40.1478 40.1865 40.2211 40.2961C40.2943 40.4058 40.3334 40.5346 40.3334 40.6665C40.3334 40.8433 40.2632 41.0129 40.1382 41.1379C40.0131 41.2629 39.8436 41.3332 39.6667 41.3332Z" fill="#007C72"/>
<path d="M58.3173 34.838C58.3207 34.7807 58.3333 34.7253 58.3333 34.6667V30.6667C58.3322 30.2867 58.2493 29.9115 58.0903 29.5664C57.9313 29.2213 57.7 28.9145 57.412 28.6667C57.7 28.4189 57.9313 28.112 58.0903 27.7669C58.2493 27.4218 58.3322 27.0466 58.3333 26.6667V22.6667C58.3333 21.9594 58.0524 21.2811 57.5523 20.781C57.0522 20.281 56.3739 20 55.6667 20H31.6667C30.9594 20 30.2811 20.281 29.781 20.781C29.281 21.2811 29 21.9594 29 22.6667V26.6667C29.0012 27.0466 29.0841 27.4218 29.243 27.7669C29.402 28.112 29.6333 28.4189 29.9213 28.6667C29.6333 28.9145 29.402 29.2213 29.243 29.5664C29.0841 29.9115 29.0012 30.2867 29 30.6667V34.6667C29.0012 35.0466 29.0841 35.4218 29.243 35.7669C29.402 36.112 29.6333 36.4189 29.9213 36.6667C29.6333 36.9145 29.402 37.2213 29.243 37.5664C29.0841 37.9115 29.0012 38.2867 29 38.6667V42.6667C29 43.3739 29.281 44.0522 29.781 44.5523C30.2811 45.0524 30.9594 45.3333 31.6667 45.3333H43.8407C43.443 47.8069 43.7882 50.3428 44.8326 52.62C45.8769 54.8973 47.5735 56.8135 49.7074 58.1261C51.8413 59.4386 54.3167 60.0886 56.8202 59.9936C59.3237 59.8986 61.7428 59.0629 63.7711 57.5924C65.7994 56.1219 67.3459 54.0827 68.2146 51.7328C69.0834 49.383 69.2354 46.8282 68.6515 44.3919C68.0676 41.9556 66.7739 39.7473 64.9343 38.0466C63.0947 36.3459 60.7919 35.2293 58.3173 34.838ZM30.3333 22.6667C30.3333 22.313 30.4738 21.9739 30.7239 21.7239C30.9739 21.4738 31.313 21.3333 31.6667 21.3333H55.6667C56.0203 21.3333 56.3594 21.4738 56.6095 21.7239C56.8595 21.9739 57 22.313 57 22.6667V26.6667C57 27.0203 56.8595 27.3594 56.6095 27.6095C56.3594 27.8595 56.0203 28 55.6667 28H31.6667C31.313 28 30.9739 27.8595 30.7239 27.6095C30.4738 27.3594 30.3333 27.0203 30.3333 26.6667V22.6667ZM30.3333 30.6667C30.3333 30.313 30.4738 29.9739 30.7239 29.7239C30.9739 29.4738 31.313 29.3333 31.6667 29.3333H55.6667C56.0203 29.3333 56.3594 29.4738 56.6095 29.7239C56.8595 29.9739 57 30.313 57 30.6667V34.6667C57 34.6787 57 34.6887 56.9967 34.7C56.776 34.6887 56.5573 34.6667 56.3333 34.6667C54.381 34.6684 52.4559 35.1249 50.7107 36H31.6667C31.313 36 30.9739 35.8595 30.7239 35.6095C30.4738 35.3594 30.3333 35.0203 30.3333 34.6667V30.6667ZM31.6667 44C31.313 44 30.9739 43.8595 30.7239 43.6095C30.4738 43.3594 30.3333 43.0203 30.3333 42.6667V38.6667C30.3333 38.313 30.4738 37.9739 30.7239 37.7239C30.9739 37.4738 31.313 37.3333 31.6667 37.3333H48.5873C46.4184 39.0144 44.8532 41.3537 44.1267 44H31.6667ZM56.3333 58.6667C54.0918 58.6667 51.9006 58.002 50.0369 56.7567C48.1731 55.5113 46.7205 53.7413 45.8627 51.6704C45.0049 49.5995 44.7805 47.3208 45.2178 45.1223C45.6551 42.9239 46.7345 40.9045 48.3195 39.3195C49.9045 37.7345 51.9239 36.6551 54.1223 36.2178C56.3208 35.7805 58.5995 36.0049 60.6704 36.8627C62.7413 37.7205 64.5113 39.1731 65.7567 41.0369C67.002 42.9006 67.6667 45.0918 67.6667 47.3333C67.6633 50.3381 66.4682 53.2188 64.3435 55.3435C62.2188 57.4682 59.3381 58.6633 56.3333 58.6667Z" fill="#007C72"/>
<path d="M56.3333 37.3335C54.3554 37.3335 52.422 37.92 50.7776 39.0188C49.1331 40.1176 47.8513 41.6794 47.0945 43.5067C46.3376 45.3339 46.1396 47.3446 46.5254 49.2844C46.9113 51.2242 47.8637 53.006 49.2622 54.4046C50.6607 55.8031 52.4425 56.7555 54.3824 57.1413C56.3222 57.5272 58.3328 57.3292 60.1601 56.5723C61.9874 55.8154 63.5491 54.5337 64.648 52.8892C65.7468 51.2447 66.3333 49.3113 66.3333 47.3335C66.3303 44.6823 65.2757 42.1405 63.401 40.2657C61.5263 38.391 58.9845 37.3365 56.3333 37.3335ZM62.1066 44.0002C62.195 44.1533 62.3406 44.265 62.5114 44.3108C62.6822 44.3565 62.8641 44.3326 63.0173 44.2442L64.1406 43.5962C64.6047 44.5593 64.8847 45.6008 64.9659 46.6668H63.6666C63.4898 46.6668 63.3202 46.7371 63.1952 46.8621C63.0702 46.9871 62.9999 47.1567 62.9999 47.3335C62.9999 47.5103 63.0702 47.6799 63.1952 47.8049C63.3202 47.9299 63.4898 48.0002 63.6666 48.0002H64.9659C64.8847 49.0662 64.6047 50.1077 64.1406 51.0708L63.0173 50.4228C62.8642 50.3358 62.683 50.3129 62.5131 50.359C62.3432 50.4051 62.1984 50.5166 62.1104 50.669C62.0224 50.8215 61.9982 51.0026 62.0432 51.1728C62.0882 51.343 62.1987 51.4885 62.3506 51.5775L63.4779 52.2288C62.8722 53.11 62.1097 53.8724 61.2286 54.4782L60.5773 53.3508C60.4882 53.199 60.3427 53.0885 60.1725 53.0435C60.0023 52.9985 59.8213 53.0226 59.6688 53.1106C59.5163 53.1987 59.4049 53.3434 59.3588 53.5133C59.3126 53.6832 59.3356 53.8645 59.4226 54.0175L60.0706 55.1408C59.1074 55.605 58.066 55.8849 56.9999 55.9662V54.6668C56.9999 54.49 56.9297 54.3204 56.8047 54.1954C56.6796 54.0704 56.5101 54.0002 56.3333 54.0002C56.1564 54.0002 55.9869 54.0704 55.8619 54.1954C55.7368 54.3204 55.6666 54.49 55.6666 54.6668V55.9662C54.6005 55.8849 53.5591 55.605 52.5959 55.1408L53.2439 54.0175C53.2884 53.9417 53.3174 53.8578 53.3293 53.7706C53.3412 53.6835 53.3358 53.5949 53.3133 53.5099C53.2909 53.4249 53.2518 53.3452 53.1984 53.2754C53.145 53.2055 53.0783 53.1469 53.0021 53.103C52.926 53.059 52.8419 53.0306 52.7547 53.0192C52.6675 53.0079 52.579 53.0139 52.4941 53.037C52.4093 53.06 52.3298 53.0996 52.2603 53.1535C52.1909 53.2073 52.1327 53.2744 52.0893 53.3508L51.4379 54.4782C50.5568 53.8724 49.7943 53.11 49.1886 52.2288L50.3159 51.5775C50.3924 51.534 50.4594 51.4759 50.5133 51.4064C50.5672 51.3369 50.6068 51.2575 50.6298 51.1726C50.6528 51.0878 50.6589 50.9992 50.6475 50.912C50.6362 50.8248 50.6077 50.7408 50.5638 50.6646C50.5198 50.5885 50.4612 50.5218 50.3914 50.4684C50.3215 50.415 50.2418 50.3759 50.1568 50.3534C50.0718 50.331 49.9832 50.3255 49.8961 50.3374C49.809 50.3493 49.7251 50.3784 49.6493 50.4228L48.5259 51.0708C48.0618 50.1077 47.7818 49.0662 47.7006 48.0002H48.9999C49.1767 48.0002 49.3463 47.9299 49.4713 47.8049C49.5964 47.6799 49.6666 47.5103 49.6666 47.3335C49.6666 47.1567 49.5964 46.9871 49.4713 46.8621C49.3463 46.7371 49.1767 46.6668 48.9999 46.6668H47.7006C47.7818 45.6008 48.0618 44.5593 48.5259 43.5962L49.6493 44.2442C49.7251 44.2886 49.809 44.3177 49.8961 44.3296C49.9832 44.3415 50.0718 44.336 50.1568 44.3136C50.2418 44.2911 50.3215 44.252 50.3914 44.1986C50.4612 44.1452 50.5198 44.0785 50.5638 44.0024C50.6077 43.9262 50.6362 43.8422 50.6475 43.755C50.6589 43.6678 50.6528 43.5792 50.6298 43.4944C50.6068 43.4095 50.5672 43.3301 50.5133 43.2606C50.4594 43.1911 50.3924 43.133 50.3159 43.0895L49.1886 42.4382C49.7943 41.557 50.5568 40.7946 51.4379 40.1888L52.0893 41.3162C52.1327 41.3926 52.1909 41.4597 52.2603 41.5135C52.3298 41.5674 52.4093 41.607 52.4941 41.63C52.579 41.6531 52.6675 41.6591 52.7547 41.6478C52.8419 41.6364 52.926 41.608 53.0021 41.564C53.0783 41.52 53.145 41.4615 53.1984 41.3916C53.2518 41.3218 53.2909 41.2421 53.3133 41.1571C53.3358 41.0721 53.3412 40.9835 53.3293 40.8963C53.3174 40.8092 53.2884 40.7253 53.2439 40.6495L52.5959 39.5262C53.5591 39.062 54.6005 38.7821 55.6666 38.7008V40.0002C55.6666 40.177 55.7368 40.3465 55.8619 40.4716C55.9869 40.5966 56.1564 40.6668 56.3333 40.6668C56.5101 40.6668 56.6796 40.5966 56.8047 40.4716C56.9297 40.3465 56.9999 40.177 56.9999 40.0002V38.7008C58.066 38.7821 59.1074 39.062 60.0706 39.5262L59.4226 40.6495C59.3781 40.7253 59.3491 40.8092 59.3372 40.8963C59.3253 40.9835 59.3307 41.0721 59.3532 41.1571C59.3757 41.2421 59.4147 41.3218 59.4681 41.3916C59.5215 41.4615 59.5882 41.52 59.6644 41.564C59.7405 41.608 59.8246 41.6364 59.9118 41.6478C59.999 41.6591 60.0875 41.6531 60.1724 41.63C60.2572 41.607 60.3367 41.5674 60.4062 41.5135C60.4757 41.4597 60.5338 41.3926 60.5773 41.3162L61.2286 40.1888C62.1097 40.7946 62.8722 41.557 63.4779 42.4382L62.3506 43.0895C62.1975 43.1779 62.0857 43.3235 62.04 43.4943C61.9942 43.6651 62.0182 43.847 62.1066 44.0002Z" fill="#007C72"/>
<path d="M45.6667 25.3333H54.3333C54.5101 25.3333 54.6797 25.2631 54.8047 25.1381C54.9298 25.013 55 24.8435 55 24.6667C55 24.4899 54.9298 24.3203 54.8047 24.1953C54.6797 24.0702 54.5101 24 54.3333 24H45.6667C45.4899 24 45.3203 24.0702 45.1953 24.1953C45.0702 24.3203 45 24.4899 45 24.6667C45 24.8435 45.0702 25.013 45.1953 25.1381C45.3203 25.2631 45.4899 25.3333 45.6667 25.3333Z" fill="#007C72"/>
<path d="M45.6667 33.3333H54.3333C54.5101 33.3333 54.6797 33.2631 54.8047 33.1381C54.9298 33.013 55 32.8435 55 32.6667C55 32.4899 54.9298 32.3203 54.8047 32.1953C54.6797 32.0702 54.5101 32 54.3333 32H45.6667C45.4899 32 45.3203 32.0702 45.1953 32.1953C45.0702 32.3203 45 32.4899 45 32.6667C45 32.8435 45.0702 33.013 45.1953 33.1381C45.3203 33.2631 45.4899 33.3333 45.6667 33.3333Z" fill="#007C72"/>
<path d="M59.6666 46.6667H58.2106C58.111 46.3878 57.9507 46.1346 57.7414 45.9252C57.532 45.7159 57.2787 45.5556 56.9999 45.456V42.6667C56.9999 42.4899 56.9297 42.3203 56.8047 42.1953C56.6796 42.0702 56.5101 42 56.3332 42C56.1564 42 55.9869 42.0702 55.8618 42.1953C55.7368 42.3203 55.6666 42.4899 55.6666 42.6667V45.456C55.3483 45.5679 55.0635 45.7586 54.839 46.0104C54.6144 46.2622 54.4574 46.5668 54.3825 46.8958C54.3076 47.2247 54.3174 47.5673 54.4109 47.8915C54.5044 48.2157 54.6786 48.5108 54.9172 48.7494C55.1558 48.988 55.4509 49.1621 55.7751 49.2557C56.0993 49.3492 56.4418 49.3589 56.7708 49.2841C57.0998 49.2092 57.4044 49.0522 57.6562 48.8276C57.908 48.603 58.0987 48.3183 58.2106 48H59.6666C59.8434 48 60.013 47.9298 60.138 47.8047C60.263 47.6797 60.3332 47.5101 60.3332 47.3333C60.3332 47.1565 60.263 46.987 60.138 46.8619C60.013 46.7369 59.8434 46.6667 59.6666 46.6667ZM56.3332 48C56.2014 48 56.0725 47.9609 55.9629 47.8876C55.8532 47.8144 55.7678 47.7103 55.7173 47.5885C55.6669 47.4666 55.6537 47.3326 55.6794 47.2033C55.7051 47.074 55.7686 46.9552 55.8618 46.8619C55.9551 46.7687 56.0739 46.7052 56.2032 46.6795C56.3325 46.6538 56.4666 46.667 56.5884 46.7174C56.7102 46.7679 56.8143 46.8533 56.8876 46.963C56.9608 47.0726 56.9999 47.2015 56.9999 47.3333C56.9999 47.5101 56.9297 47.6797 56.8047 47.8047C56.6796 47.9298 56.5101 48 56.3332 48Z" fill="#007C72"/>
</g>
</g>
<defs>
<filter id="filter0_d_810_573" x="0.7" y="0.7" width="95.6" height="78.6" filterUnits="userSpaceOnUse" color-interpolation-filters="sRGB">
<feFlood flood-opacity="0" result="BackgroundImageFix"/>
<feColorMatrix in="SourceAlpha" type="matrix" values="0 0 0 0 0 0 0 0 0 0 0 0 0 0 0 0 0 0 127 0" result="hardAlpha"/>
<feOffset dy="2"/>
<feGaussianBlur stdDeviation="2.65"/>
<feComposite in2="hardAlpha" operator="out"/>
<feColorMatrix type="matrix" values="0 0 0 0 0 0 0 0 0 0 0 0 0 0 0 0 0 0 0.1 0"/>
<feBlend mode="normal" in2="BackgroundImageFix" result="effect1_dropShadow_810_573"/>
<feBlend mode="normal" in="SourceGraphic" in2="effect1_dropShadow_810_573" result="shape"/>
</filter>
<clipPath id="clip0_810_573">
<rect width="40" height="40" fill="white" transform="translate(29 20)"/>
</clipPath>
</defs>
</svg>
