<svg width="85" height="68" viewBox="0 0 85 68" fill="none" xmlns="http://www.w3.org/2000/svg">
<rect width="85" height="68" rx="9" fill="#D8DCFF"/>
<path d="M46.6875 46.375H30.1875C29.0531 46.375 28.125 45.4469 28.125 44.3125V16.8125C28.125 15.6781 29.0531 14.75 30.1875 14.75H46V22.3125C46 22.6906 46.3094 23 46.6875 23H54.25V35.0381C54.25 35.4162 54.5594 35.7256 54.9375 35.7256C55.3156 35.7256 55.625 35.4162 55.625 35.0381V22.3125C55.625 22.3125 55.6181 22.285 55.6181 22.2712C55.6113 22.2094 55.6044 22.1475 55.5837 22.0925C55.5769 22.0719 55.57 22.0513 55.5563 22.0306C55.5219 21.955 55.4806 21.8862 55.4256 21.8244L47.1756 13.5744C47.1137 13.5194 47.045 13.4781 46.9762 13.4437C46.9487 13.43 46.9281 13.4231 46.9075 13.4162C46.8525 13.4025 46.7906 13.3887 46.7356 13.3819C46.715 13.3819 46.7013 13.375 46.6875 13.375H30.1875C28.29 13.375 26.75 14.915 26.75 16.8125V44.3125C26.75 46.21 28.29 47.75 30.1875 47.75H46.6875C47.0656 47.75 47.375 47.4406 47.375 47.0625C47.375 46.6844 47.0656 46.375 46.6875 46.375Z" fill="#0418AD"/>
<path d="M31.5625 24.375C31.9406 24.375 32.25 24.0656 32.25 23.6875V19.5625C32.25 19.1844 31.9406 18.875 31.5625 18.875C31.1844 18.875 30.875 19.1844 30.875 19.5625V23.6875C30.875 24.0656 31.1844 24.375 31.5625 24.375Z" fill="#0418AD"/>
<path d="M35 23.6875V19.5625C35 19.1844 34.6906 18.875 34.3125 18.875C33.9344 18.875 33.625 19.1844 33.625 19.5625V23.6875C33.625 24.0656 33.9344 24.375 34.3125 24.375C34.6906 24.375 35 24.0656 35 23.6875Z" fill="#0418AD"/>
<path d="M40.5 20.25C40.5 19.4937 39.8812 18.875 39.125 18.875H37.75C36.9937 18.875 36.375 19.4937 36.375 20.25V23C36.375 23.7562 36.9937 24.375 37.75 24.375H39.125C39.8812 24.375 40.5 23.7562 40.5 23V20.25ZM39.125 23H37.75V20.25H39.125V23Z" fill="#0418AD"/>
<path d="M42.5625 24.375C42.9406 24.375 43.25 24.0656 43.25 23.6875V19.5625C43.25 19.1844 42.9406 18.875 42.5625 18.875C42.1844 18.875 41.875 19.1844 41.875 19.5625V23.6875C41.875 24.0656 42.1844 24.375 42.5625 24.375Z" fill="#0418AD"/>
<path d="M30.875 30.5625C30.875 30.9406 31.1844 31.25 31.5625 31.25C31.9406 31.25 32.25 30.9406 32.25 30.5625V26.4375C32.25 26.0594 31.9406 25.75 31.5625 25.75C31.1844 25.75 30.875 26.0594 30.875 26.4375V30.5625Z" fill="#0418AD"/>
<path d="M37.75 27.125C37.75 26.3687 37.1312 25.75 36.375 25.75H35C34.2437 25.75 33.625 26.3687 33.625 27.125V29.875C33.625 30.6312 34.2437 31.25 35 31.25H36.375C37.1312 31.25 37.75 30.6312 37.75 29.875V27.125ZM36.375 29.875H35V27.125H36.375V29.875Z" fill="#0418AD"/>
<path d="M40.5 26.4375C40.5 26.0594 40.1906 25.75 39.8125 25.75C39.4344 25.75 39.125 26.0594 39.125 26.4375V30.5625C39.125 30.9406 39.4344 31.25 39.8125 31.25C40.1906 31.25 40.5 30.9406 40.5 30.5625V26.4375Z" fill="#0418AD"/>
<path d="M41.875 30.5625C41.875 30.9406 42.1844 31.25 42.5625 31.25C42.9406 31.25 43.25 30.9406 43.25 30.5625V26.4375C43.25 26.0594 42.9406 25.75 42.5625 25.75C42.1844 25.75 41.875 26.0594 41.875 26.4375V30.5625Z" fill="#0418AD"/>
<path d="M47.375 31.25C48.1312 31.25 48.75 30.6312 48.75 29.875V27.125C48.75 26.3687 48.1312 25.75 47.375 25.75H46C45.2437 25.75 44.625 26.3687 44.625 27.125V29.875C44.625 30.6312 45.2437 31.25 46 31.25H47.375ZM46 27.125H47.375V29.875H46V27.125Z" fill="#0418AD"/>
<path d="M51.5 26.4375C51.5 26.0594 51.1906 25.75 50.8125 25.75C50.4344 25.75 50.125 26.0594 50.125 26.4375V30.5625C50.125 30.9406 50.4344 31.25 50.8125 31.25C51.1906 31.25 51.5 30.9406 51.5 30.5625V26.4375Z" fill="#0418AD"/>
<path d="M30.875 36.75C30.875 37.5062 31.4937 38.125 32.25 38.125H33.625C34.3812 38.125 35 37.5062 35 36.75V34C35 33.2437 34.3812 32.625 33.625 32.625H32.25C31.4937 32.625 30.875 33.2437 30.875 34V36.75ZM32.25 34H33.625V36.75H32.25V34Z" fill="#0418AD"/>
<path d="M36.375 33.3125V37.4375C36.375 37.8156 36.6844 38.125 37.0625 38.125C37.4406 38.125 37.75 37.8156 37.75 37.4375V33.3125C37.75 32.9344 37.4406 32.625 37.0625 32.625C36.6844 32.625 36.375 32.9344 36.375 33.3125Z" fill="#0418AD"/>
<path d="M39.8125 32.625C39.4344 32.625 39.125 32.9344 39.125 33.3125V37.4375C39.125 37.8156 39.4344 38.125 39.8125 38.125C40.1906 38.125 40.5 37.8156 40.5 37.4375V33.3125C40.5 32.9344 40.1906 32.625 39.8125 32.625Z" fill="#0418AD"/>
<path d="M41.875 36.75C41.875 37.5062 42.4937 38.125 43.25 38.125H44.625C45.3812 38.125 46 37.5062 46 36.75V34C46 33.2437 45.3812 32.625 44.625 32.625H43.25C42.4937 32.625 41.875 33.2437 41.875 34V36.75ZM43.25 34H44.625V36.75H43.25V34Z" fill="#0418AD"/>
<path d="M48.75 33.3125C48.75 32.9344 48.4406 32.625 48.0625 32.625C47.6844 32.625 47.375 32.9344 47.375 33.3125V37.4375C47.375 37.8156 47.6844 38.125 48.0625 38.125C48.4406 38.125 48.75 37.8156 48.75 37.4375V33.3125Z" fill="#0418AD"/>
<path d="M50.8125 32.625C50.4344 32.625 50.125 32.9344 50.125 33.3125V37.4375C50.125 37.8156 50.4344 38.125 50.8125 38.125C51.1906 38.125 51.5 37.8156 51.5 37.4375V33.3125C51.5 32.9344 51.1906 32.625 50.8125 32.625Z" fill="#0418AD"/>
<path d="M61.8125 42.25H61.125V40.875C61.125 38.5994 59.2756 36.75 57 36.75C54.7244 36.75 52.875 38.5994 52.875 40.875V42.25H52.1875C50.29 42.25 48.75 43.79 48.75 45.6875V51.1875C48.75 53.085 50.29 54.625 52.1875 54.625H61.8125C63.71 54.625 65.25 53.085 65.25 51.1875V45.6875C65.25 43.79 63.71 42.25 61.8125 42.25ZM57.6875 49.6887V50.5C57.6875 50.8781 57.3781 51.1875 57 51.1875C56.6219 51.1875 56.3125 50.8781 56.3125 50.5V49.6887C55.515 49.4 54.9375 48.6438 54.9375 47.75C54.9375 46.6156 55.8656 45.6875 57 45.6875C58.1344 45.6875 59.0625 46.6156 59.0625 47.75C59.0625 48.6438 58.485 49.4 57.6875 49.6887ZM54.25 40.875C54.25 39.3556 55.4806 38.125 57 38.125C58.5194 38.125 59.75 39.3556 59.75 40.875V42.25H54.25V40.875Z" fill="#0418AD"/>
</svg>
