<svg width="111" height="94" viewBox="0 0 111 94" fill="none" xmlns="http://www.w3.org/2000/svg">
<g filter="url(#filter0_d_750_572)">
<rect x="12" y="11" width="85" height="68" rx="14" fill="#E4FFE3"/>
<path d="M72.7812 57.1562H71.375V43.0347C71.375 40.7411 69.5089 38.875 67.2153 38.875H64.1145C64.2495 37.9483 64.3438 37.0131 64.3438 36.0625C64.3438 35.4564 63.957 34.9192 63.3819 34.7294L60.0505 33.6184C60.0842 33.4989 60.125 33.3808 60.125 33.25V30.4375C60.125 27.3353 57.6022 24.8125 54.5 24.8125C51.3978 24.8125 48.875 27.3353 48.875 30.4375V33.25C48.875 33.3808 48.9158 33.4989 48.9495 33.6184L45.6181 34.7294C45.043 34.9206 44.6562 35.4564 44.6562 36.0625C44.6562 37.0131 44.7505 37.9483 44.8841 38.875H41.7847C39.4911 38.875 37.625 40.7411 37.625 43.0347V57.1562H36.2188C35.4425 57.1562 34.8125 57.7848 34.8125 58.5625C34.8125 61.6647 37.3353 64.1875 40.4375 64.1875H68.5625C71.6647 64.1875 74.1875 61.6647 74.1875 58.5625C74.1875 57.7848 73.5575 57.1562 72.7812 57.1562ZM51.6875 30.4375C51.6875 28.8864 52.9489 27.625 54.5 27.625C56.0511 27.625 57.3125 28.8864 57.3125 30.4375V32.7058L54.9444 31.9169C54.6547 31.8212 54.3439 31.8212 54.0542 31.9169L51.6875 32.7058V30.4375ZM54.5 34.7322L61.5017 37.0666C61.2289 41.6313 59.0956 45.8725 55.5561 48.82L54.5 49.7003L53.4453 48.82C49.9058 45.8711 47.7725 41.6313 47.4997 37.0666L54.5 34.7322ZM40.4375 43.0347C40.4375 42.2922 41.0422 41.6875 41.7847 41.6875H45.5112C46.5969 45.2791 48.6894 48.5191 51.6453 50.9814L53.6014 52.6112C53.8602 52.8292 54.1794 52.9375 54.5 52.9375C54.8206 52.9375 55.1398 52.8292 55.4 52.6127L57.3561 50.9828C60.312 48.5191 62.4045 45.2791 63.4902 41.6889H67.2167C67.9578 41.6875 68.5625 42.2922 68.5625 43.0347V57.1562H40.4375V43.0347ZM68.5625 61.375H40.4375C39.3983 61.375 38.4898 60.8097 38.0033 59.9688H70.9981C70.5102 60.8097 69.6017 61.375 68.5625 61.375Z" fill="#2AAF33"/>
<path d="M54.5001 44.5C55.1456 44.5 55.7081 44.0598 55.8642 43.4341L57.2704 37.8091C57.3759 37.3886 57.2803 36.9442 57.0145 36.6039C56.7487 36.2622 56.3395 36.0625 55.9064 36.0625H53.0939C52.6607 36.0625 52.2515 36.2622 51.9857 36.6039C51.72 36.9442 51.6243 37.39 51.7298 37.8091L53.1361 43.4341C53.2922 44.0612 53.8547 44.5 54.5001 44.5Z" fill="#2AAF33"/>
<path d="M54.5422 45.9062H54.5281C53.7519 45.9062 53.1289 46.5348 53.1289 47.3125C53.1289 48.0902 53.7659 48.7188 54.5422 48.7188C55.3198 48.7188 55.9484 48.0902 55.9484 47.3125C55.9484 46.5348 55.3198 45.9062 54.5422 45.9062Z" fill="#2AAF33"/>
</g>
<defs>
<filter id="filter0_d_750_572" x="0.3" y="0.3" width="110.4" height="93.4" filterUnits="userSpaceOnUse" color-interpolation-filters="sRGB">
<feFlood flood-opacity="0" result="BackgroundImageFix"/>
<feColorMatrix in="SourceAlpha" type="matrix" values="0 0 0 0 0 0 0 0 0 0 0 0 0 0 0 0 0 0 127 0" result="hardAlpha"/>
<feOffset dx="1" dy="2"/>
<feGaussianBlur stdDeviation="6.35"/>
<feComposite in2="hardAlpha" operator="out"/>
<feColorMatrix type="matrix" values="0 0 0 0 0 0 0 0 0 0 0 0 0 0 0 0 0 0 0.1 0"/>
<feBlend mode="normal" in2="BackgroundImageFix" result="effect1_dropShadow_750_572"/>
<feBlend mode="normal" in="SourceGraphic" in2="effect1_dropShadow_750_572" result="shape"/>
</filter>
</defs>
</svg>
