<svg width="34" height="32" viewBox="0 0 34 32" fill="none" xmlns="http://www.w3.org/2000/svg">
<g id="Group 28457">
<path id="Vector (Stroke)" fill-rule="evenodd" clip-rule="evenodd" d="M4.94444 2.75C3.59328 2.75 2.5 3.84655 2.5 5.16177V22.2206C2.5 22.8571 2.7552 23.4696 3.21258 23.9226C3.67029 24.376 4.29308 24.6324 4.94444 24.6324H13.5556C14.1078 24.6324 14.5556 25.0801 14.5556 25.6324C14.5556 26.1846 14.1078 26.6324 13.5556 26.6324H4.94444C3.76876 26.6324 2.63934 26.1698 1.80513 25.3435C0.970591 24.5169 0.5 23.3938 0.5 22.2206V5.16177C0.5 2.72404 2.50672 0.75 4.94444 0.75H29.0556C30.2312 0.75 31.3607 1.21252 32.1949 2.03881C33.0294 2.86543 33.5 3.9886 33.5 5.16177V22.2216C33.4992 22.9971 33.2925 23.7582 32.9013 24.4285C32.5102 25.0987 31.9488 25.6541 31.2742 26.0398C30.7948 26.314 30.1839 26.1476 29.9097 25.6682C29.6355 25.1888 29.8019 24.5779 30.2813 24.3037C30.653 24.0912 30.9605 23.7862 31.174 23.4205C31.3874 23.0548 31.4996 22.6406 31.5 22.2196V5.16177C31.5 4.52522 31.2448 3.9128 30.7874 3.45975C30.3297 3.00639 29.7069 2.75 29.0556 2.75H4.94444ZM5.66667 8.57353C5.66667 8.02125 6.11438 7.57353 6.66667 7.57353H27.3333C27.8856 7.57353 28.3333 8.02125 28.3333 8.57353C28.3333 9.12581 27.8856 9.57353 27.3333 9.57353H6.66667C6.11438 9.57353 5.66667 9.12581 5.66667 8.57353ZM5.66667 13.6912C5.66667 13.1389 6.11438 12.6912 6.66667 12.6912H11.8333C12.3856 12.6912 12.8333 13.1389 12.8333 13.6912C12.8333 14.2435 12.3856 14.6912 11.8333 14.6912H6.66667C6.11438 14.6912 5.66667 14.2435 5.66667 13.6912ZM5.66667 18.8088C5.66667 18.2565 6.11438 17.8088 6.66667 17.8088H10.1111C10.6634 17.8088 11.1111 18.2565 11.1111 18.8088C11.1111 19.3611 10.6634 19.8088 10.1111 19.8088H6.66667C6.11438 19.8088 5.66667 19.3611 5.66667 18.8088Z" fill="#434343"/>
<path id="Vector (Stroke)_2" fill-rule="evenodd" clip-rule="evenodd" d="M17.3096 14.4799C18.4667 13.3336 20.0342 12.6914 21.6667 12.6914C23.2991 12.6914 24.8666 13.3336 26.0238 14.4799C27.1813 15.6264 27.8333 17.1835 27.8333 18.8091C27.8333 20.3934 27.2139 21.9127 26.1108 23.0503C26.111 23.0581 26.1111 23.0659 26.1111 23.0738V30.7502C26.1111 31.1282 25.898 31.4738 25.5604 31.6436C25.2227 31.8134 24.8182 31.7783 24.5148 31.553L21.6667 29.4371L18.8186 31.553C18.5152 31.7783 18.1106 31.8134 17.773 31.6436C17.4353 31.4738 17.2222 31.1282 17.2222 30.7502V23.0738C17.2222 23.0659 17.2223 23.0581 17.2225 23.0503C16.1194 21.9127 15.5 20.3934 15.5 18.8091C15.5 17.1835 16.152 15.6264 17.3096 14.4799ZM19.2222 24.4255V28.7616L21.0703 27.3887C21.4244 27.1257 21.909 27.1257 22.263 27.3887L24.1111 28.7616V24.4255C23.3462 24.7532 22.5152 24.9267 21.6667 24.9267C20.8181 24.9267 19.9872 24.7532 19.2222 24.4255Z" fill="#FAB737"/>
</g>
</svg>
