<svg width="38" height="39" viewBox="0 0 38 39" fill="none" xmlns="http://www.w3.org/2000/svg">
<g id="Group 14453">
<g id="bx-customize">
<path id="Path 14674" d="M4.97956 17.9976H15.4946C15.9595 17.9976 16.4054 17.8129 16.7341 17.4841C17.0629 17.1554 17.2476 16.7095 17.2476 16.2446V5.72956C17.2476 5.26464 17.0629 4.81876 16.7341 4.49C16.4054 4.16125 15.9595 3.97656 15.4946 3.97656H4.97956C4.51464 3.97656 4.06876 4.16125 3.74 4.49C3.41125 4.81876 3.22656 5.26464 3.22656 5.72956V16.2446C3.22656 16.7095 3.41125 17.1554 3.74 17.4841C4.06876 17.8129 4.51464 17.9976 4.97956 17.9976ZM6.73156 7.48156H13.7426V14.4926H6.73156V7.48156ZM33.0216 3.97656H22.5056C22.0406 3.97656 21.5948 4.16125 21.266 4.49C20.9373 4.81876 20.7526 5.26464 20.7526 5.72956V16.2446C20.7526 16.7095 20.9373 17.1554 21.266 17.4841C21.5948 17.8129 22.0406 17.9976 22.5056 17.9976H33.0216C33.4865 17.9976 33.9324 17.8129 34.2611 17.4841C34.5899 17.1554 34.7746 16.7095 34.7746 16.2446V5.72956C34.7746 5.26464 34.5899 4.81876 34.2611 4.49C33.9324 4.16125 33.4865 3.97656 33.0216 3.97656ZM31.2686 14.4926H24.2586V7.48156H31.2696L31.2686 14.4926ZM15.4946 35.5236C15.9595 35.5236 16.4054 35.3389 16.7341 35.0101C17.0629 34.6814 17.2476 34.2355 17.2476 33.7706V23.2556C17.2476 22.7906 17.0629 22.3448 16.7341 22.016C16.4054 21.6873 15.9595 21.5026 15.4946 21.5026H4.97956C4.51464 21.5026 4.06876 21.6873 3.74 22.016C3.41125 22.3448 3.22656 22.7906 3.22656 23.2556V33.7716C3.22656 34.2365 3.41125 34.6824 3.74 35.0111C4.06876 35.3399 4.51464 35.5246 4.97956 35.5246L15.4946 35.5236ZM6.73156 25.0086H13.7426V32.0196H6.73156V25.0086Z" fill="#434343"/>
<path id="Path 54267" d="M25.9841 26.7312H22.5391V30.2202H25.9841V33.9202H29.5391V30.2202H32.9841V26.7312H29.5391V23.0312H25.9841V26.7312Z" fill="#FDC736"/>
</g>
</g>
</svg>
