<svg width="27" height="34" viewBox="0 0 27 34" fill="none" xmlns="http://www.w3.org/2000/svg">
<path fill-rule="evenodd" clip-rule="evenodd" d="M4.92857 3C4.41932 3 3.92953 3.20317 3.56732 3.56706C3.20486 3.9312 3 4.42651 3 4.94444V16.1315L23.8396 4.16805C23.7435 3.94561 23.6061 3.74131 23.4327 3.56706C23.0705 3.20317 22.5807 3 22.0714 3H4.92857ZM27 5.5L24 7L23.8396 4.16805L3 16.1315V19L0 20.7133V28.5L3 27V26.7411L24 20.7133V15.5L27 14V5.5ZM24 20.7133L3 26.7411V29.69L5.80815 27.8093C6.40431 27.41 7.19977 27.4888 7.70596 27.9973L10.0714 30.3738L12.4369 27.9973C12.7184 27.7145 13.101 27.5556 13.5 27.5556C13.899 27.5556 14.2816 27.7145 14.5631 27.9973L16.9286 30.3738L19.294 27.9973C19.8002 27.4888 20.5957 27.41 21.1919 27.8093L24 29.69V20.7133ZM1.44109 1.45065C2.36485 0.522609 3.6192 0 4.92857 0H22.0714C23.3808 0 24.6352 0.522608 25.5589 1.45065C26.4824 2.37844 27 3.63531 27 4.94444V32.5C27 33.0538 26.6949 33.5625 26.2064 33.8233C25.7179 34.084 25.1254 34.0545 24.6653 33.7463L20.5488 30.9893L17.9917 33.5582C17.7102 33.841 17.3276 34 16.9286 34C16.5295 34 16.147 33.841 15.8655 33.5582L13.5 31.1818L11.1345 33.5582C10.853 33.841 10.4705 34 10.0714 34C9.6724 34 9.28982 33.841 9.00832 33.5582L6.45121 30.9893L2.33471 33.7463C1.87461 34.0545 1.28215 34.084 0.793625 33.8233C0.305103 33.5625 0 33.0538 0 32.5V4.94444C0 3.63531 0.517589 2.37844 1.44109 1.45065Z" fill="#434343"/>
<path fill-rule="evenodd" clip-rule="evenodd" d="M13.4286 6.5C14.257 6.5 14.9286 7.17157 14.9286 8V9.08336H16.8571C17.6856 9.08336 18.3571 9.75494 18.3571 10.5834C18.3571 11.4118 17.6856 12.0834 16.8571 12.0834H12.5714C12.2895 12.0834 12.0177 12.1958 11.8163 12.3982C11.6146 12.6009 11.5 12.8772 11.5 13.1667C11.5 13.4563 11.6146 13.7326 11.8163 13.9352C12.0177 14.1376 12.2895 14.2501 12.5714 14.2501H14.2857C15.3678 14.2501 16.4041 14.682 17.1671 15.4485C17.9299 16.2148 18.3571 17.2527 18.3571 18.3335C18.3571 19.4142 17.9299 20.4521 17.1671 21.2184C16.5569 21.8314 15.7719 22.2304 14.9286 22.3656V23.5002C14.9286 24.3286 14.257 25.0002 13.4286 25.0002C12.6001 25.0002 11.9286 24.3286 11.9286 23.5002V22.4168H10C9.17157 22.4168 8.5 21.7452 8.5 20.9168C8.5 20.0884 9.17157 19.4168 10 19.4168H14.2857C14.5676 19.4168 14.8394 19.3044 15.0409 19.102C15.2426 18.8993 15.3571 18.623 15.3571 18.3335C15.3571 18.0439 15.2426 17.7676 15.0409 17.5649C14.8394 17.3625 14.5676 17.2501 14.2857 17.2501H12.5714C11.4894 17.2501 10.453 16.8182 9.69004 16.0516C8.92727 15.2853 8.5 14.2475 8.5 13.1667C8.5 12.086 8.92727 11.0481 9.69004 10.2818C10.3002 9.6688 11.0852 9.2698 11.9286 9.13456V8C11.9286 7.17157 12.6001 6.5 13.4286 6.5Z" fill="#FDC736"/>
</svg>
