<svg width="21" height="30" viewBox="0 0 21 30" fill="none" xmlns="http://www.w3.org/2000/svg">
<path fill-rule="evenodd" clip-rule="evenodd" d="M10.523 0.000270054C10.5076 -8.91234e-05 10.4921 -9.09116e-05 10.4767 0.000270054H5.75C5.35231 0.000270054 4.99242 0.235919 4.83341 0.600433L0.0834139 11.4893C-0.029217 11.7475 -0.0277264 12.0412 0.0875194 12.2983C0.202765 12.5553 0.421076 12.7518 0.688778 12.8395L10.1888 15.9506C10.391 16.0168 10.609 16.0168 10.8112 15.9506L15.5542 14.3974C15.5584 14.396 15.5626 14.3946 15.5667 14.3932L20.3112 12.8395C20.5789 12.7518 20.7972 12.5553 20.9125 12.2983C21.0277 12.0412 21.0292 11.7475 20.9166 11.4893L16.1666 0.600433C16.0076 0.235919 15.6477 0.000270054 15.25 0.000270054H10.523ZM15.8444 12.1978L11.9521 2.00027H14.5952L18.6437 11.2811L15.8444 12.1978ZM8.91037 13.4274L5.63332 3.76876L2.35627 11.2811L8.91037 13.4274Z" fill="#434343"/>
<path fill-rule="evenodd" clip-rule="evenodd" d="M11.125 14.0002C11.5012 14.0002 11.8456 14.2114 12.0162 14.5467L14.1615 18.7619L18.4116 19.4578C18.7834 19.5187 19.0894 19.7833 19.2032 20.1424C19.3171 20.5014 19.2196 20.894 18.9508 21.158L16.1459 23.9137L16.8646 28.8563C16.918 29.2236 16.7636 29.5903 16.4636 29.8087C16.1636 30.0271 15.7672 30.0614 15.4341 29.8978L11.125 27.7811L6.81593 29.8978C6.48282 30.0614 6.08649 30.0271 5.78645 29.8087C5.48642 29.5903 5.33203 29.2236 5.38543 28.8563L6.10413 23.9137L3.29921 21.158C3.0305 20.894 2.93294 20.5014 3.04682 20.1424C3.1607 19.7833 3.4667 19.5187 3.83844 19.4578L8.08856 18.7619L10.2338 14.5467C10.4044 14.2114 10.7488 14.0002 11.125 14.0002Z" fill="#FDC736"/>
</svg>
