<svg width="38" height="38" viewBox="0 0 38 38" fill="none" xmlns="http://www.w3.org/2000/svg">
<path d="M4.97956 17.2476H15.4946C15.9595 17.2476 16.4054 17.0629 16.7341 16.7341C17.0629 16.4054 17.2476 15.9595 17.2476 15.4946V4.97956C17.2476 4.51464 17.0629 4.06876 16.7341 3.74C16.4054 3.41125 15.9595 3.22656 15.4946 3.22656H4.97956C4.51464 3.22656 4.06876 3.41125 3.74 3.74C3.41125 4.06876 3.22656 4.51464 3.22656 4.97956V15.4946C3.22656 15.9595 3.41125 16.4054 3.74 16.7341C4.06876 17.0629 4.51464 17.2476 4.97956 17.2476ZM6.73156 6.73156H13.7426V13.7426H6.73156V6.73156ZM33.0216 3.22656H22.5056C22.0406 3.22656 21.5948 3.41125 21.266 3.74C20.9373 4.06876 20.7526 4.51464 20.7526 4.97956V15.4946C20.7526 15.9595 20.9373 16.4054 21.266 16.7341C21.5948 17.0629 22.0406 17.2476 22.5056 17.2476H33.0216C33.4865 17.2476 33.9324 17.0629 34.2611 16.7341C34.5899 16.4054 34.7746 15.9595 34.7746 15.4946V4.97956C34.7746 4.51464 34.5899 4.06876 34.2611 3.74C33.9324 3.41125 33.4865 3.22656 33.0216 3.22656ZM31.2686 13.7426H24.2586V6.73156H31.2696L31.2686 13.7426ZM15.4946 34.7736C15.9595 34.7736 16.4054 34.5889 16.7341 34.2601C17.0629 33.9314 17.2476 33.4855 17.2476 33.0206V22.5056C17.2476 22.0406 17.0629 21.5948 16.7341 21.266C16.4054 20.9373 15.9595 20.7526 15.4946 20.7526H4.97956C4.51464 20.7526 4.06876 20.9373 3.74 21.266C3.41125 21.5948 3.22656 22.0406 3.22656 22.5056V33.0216C3.22656 33.4865 3.41125 33.9324 3.74 34.2611C4.06876 34.5899 4.51464 34.7746 4.97956 34.7746L15.4946 34.7736ZM6.73156 24.2586H13.7426V31.2696H6.73156V24.2586Z" fill="#434343"/>
<path d="M25.9841 25.9812H22.5391V29.4702H25.9841V33.1702H29.5391V29.4702H32.9841V25.9812H29.5391V22.2812H25.9841V25.9812Z" fill="#FDC736"/>
</svg>
