<svg width="34" height="34" viewBox="0 0 34 34" fill="none" xmlns="http://www.w3.org/2000/svg">
<g id="Group 28454">
<path id="Vector (Stroke)" fill-rule="evenodd" clip-rule="evenodd" d="M11 12.375C11 11.6156 11.6156 11 12.375 11H20.625C21.3844 11 22 11.6156 22 12.375V20.625C22 21.3844 21.3844 22 20.625 22H12.375C11.6156 22 11 21.3844 11 20.625V12.375Z" fill="#FDC736"/>
<path id="Vector (Stroke)_2" fill-rule="evenodd" clip-rule="evenodd" d="M13.3333 0C14.2538 0 15 0.746192 15 1.66667V3.33333H18.3333V1.66667C18.3333 0.746192 19.0795 0 20 0C20.9205 0 21.6667 0.746192 21.6667 1.66667V3.33333H26.6667C27.5507 3.33333 28.3986 3.68452 29.0237 4.30964C29.6488 4.93477 30 5.78262 30 6.66667V11.6667H31.6667C32.5871 11.6667 33.3333 12.4129 33.3333 13.3333C33.3333 14.2538 32.5871 15 31.6667 15H30V18.3333H31.6667C32.5871 18.3333 33.3333 19.0795 33.3333 20C33.3333 20.9205 32.5871 21.6667 31.6667 21.6667H30V26.6667C30 27.5507 29.6488 28.3986 29.0237 29.0237C28.3986 29.6488 27.5507 30 26.6667 30H21.6667V31.6667C21.6667 32.5871 20.9205 33.3333 20 33.3333C19.0795 33.3333 18.3333 32.5871 18.3333 31.6667V30H15V31.6667C15 32.5871 14.2538 33.3333 13.3333 33.3333C12.4129 33.3333 11.6667 32.5871 11.6667 31.6667V30H6.66667C5.78262 30 4.93477 29.6488 4.30964 29.0237C3.68452 28.3986 3.33333 27.5507 3.33333 26.6667V21.6667H1.66667C0.746192 21.6667 0 20.9205 0 20C0 19.0795 0.746192 18.3333 1.66667 18.3333H3.33333V15H1.66667C0.746192 15 0 14.2538 0 13.3333C0 12.4129 0.746192 11.6667 1.66667 11.6667H3.33333V6.66667C3.33333 5.78261 3.68452 4.93476 4.30964 4.30964C4.93476 3.68452 5.78261 3.33333 6.66667 3.33333H11.6667V1.66667C11.6667 0.746192 12.4129 0 13.3333 0ZM6.66667 6.66667V26.6667H26.6667V6.66667H6.66667Z" fill="#434343"/>
</g>
</svg>
