<svg width="42" height="42" viewBox="0 0 42 42" fill="none" xmlns="http://www.w3.org/2000/svg">
<path d="M21.4332 5.63477L34.1632 11.3348V19.8208C34.1759 23.7171 32.893 27.5072 30.5162 30.5948C28.3265 33.6802 25.1043 35.8796 21.4332 36.7948C17.7621 35.8796 14.54 33.6802 12.3502 30.5948C9.97388 27.5077 8.69097 23.7185 8.70321 19.8228V11.3348L21.4332 5.63477ZM31.3122 13.1268L21.4332 8.75077L11.5542 13.1268V21.2158H21.4332V33.8788C24.0827 33.0093 26.3985 31.3418 28.0632 29.1048C29.8504 26.8232 30.9746 24.0933 31.3122 21.2148V13.1268Z" fill="#434343"/>
<path d="M21.4307 8.74414L31.2897 13.1441L31.2817 21.2071L21.4297 21.2151L21.4307 8.74414Z" fill="#FDC736"/>
</svg>
