<svg width="15" height="14" viewBox="0 0 15 14" fill="none" xmlns="http://www.w3.org/2000/svg">
<path d="M1.7073 0.0010112C2.13864 -0.0107502 2.55725 0.147874 2.87248 0.442532C3.1877 0.737189 3.37417 1.14416 3.3915 1.57531C3.38441 1.79119 3.33448 2.00351 3.2446 2.19992C3.15472 2.39634 3.02669 2.57292 2.86796 2.71941C2.70923 2.8659 2.52295 2.97937 2.31997 3.05322C2.11699 3.12708 1.90136 3.15984 1.6856 3.14961H1.6625C1.23467 3.15633 0.821195 2.99538 0.510507 2.70117C0.199819 2.40697 0.0165871 2.00287 0 1.57531C0.0200083 1.14098 0.210507 0.732069 0.530148 0.437329C0.849788 0.142588 1.27278 -0.0141943 1.7073 0.0010112ZM10.6162 4.16811C11.0764 4.15554 11.5342 4.23765 11.9613 4.40936C12.3884 4.58107 12.7757 4.83872 13.0991 5.16631C13.7908 6.04825 14.1448 7.1482 14.0973 8.26801V13.4991H11.0824V8.62361C11.0754 7.71011 10.7625 6.59921 9.5529 6.56211C9.21391 6.57336 8.8858 6.68454 8.60981 6.8817C8.33382 7.07885 8.12226 7.35318 8.0017 7.67021C7.91899 7.90465 7.88124 8.15258 7.8904 8.40101V13.4991H4.8769C4.8881 10.9504 4.9042 8.40171 4.8986 5.85301C4.8986 5.12921 4.89137 4.64154 4.8769 4.39001H7.8911V5.67451C8.14079 5.29694 8.45164 4.9636 8.8109 4.68821C9.34517 4.33334 9.97571 4.15151 10.6169 4.16741L10.6162 4.16811ZM0.1771 4.39071H3.1906V13.4991H0.1771V4.39071Z" fill="#E6E9ED"/>
</svg>
