<svg width="28" height="29" viewBox="0 0 28 29" fill="none" xmlns="http://www.w3.org/2000/svg">
<g id="Clip path group">
<mask id="mask0_16_182156" style="mask-type:luminance" maskUnits="userSpaceOnUse" x="0" y="0" width="28" height="29">
<g id="clip-path">
<path id="Ellipse 17511" d="M14 28.1741C21.732 28.1741 28 21.9061 28 14.1741C28 6.44209 21.732 0.174072 14 0.174072C6.26801 0.174072 0 6.44209 0 14.1741C0 21.9061 6.26801 28.1741 14 28.1741Z" fill="white"/>
</g>
</mask>
<g mask="url(#mask0_16_182156)">
<g id="Mask Group 239">
<g id="Group 27927">
<path id="Path 54318" d="M8.65774 7.43473C9.08908 7.42297 9.50769 7.58159 9.82292 7.87625C10.1381 8.1709 10.3246 8.57788 10.3419 9.00903C10.3349 9.22491 10.2849 9.43723 10.195 9.63364C10.1052 9.83005 9.97713 10.0066 9.8184 10.1531C9.65967 10.2996 9.47339 10.4131 9.27041 10.4869C9.06743 10.5608 8.8518 10.5936 8.63604 10.5833H8.61294C8.18511 10.59 7.77163 10.4291 7.46095 10.1349C7.15026 9.84069 6.96703 9.43659 6.95044 9.00903C6.97045 8.5747 7.16095 8.16578 7.48059 7.87104C7.80023 7.5763 8.22322 7.41952 8.65774 7.43473ZM17.5666 11.6018C18.0268 11.5893 18.4846 11.6714 18.9118 11.8431C19.3389 12.0148 19.7261 12.2724 20.0495 12.6C20.7412 13.482 21.0952 14.5819 21.0477 15.7017V20.9328H18.0328V16.0573C18.0258 15.1438 17.7129 14.0329 16.5033 13.9958C16.1643 14.0071 15.8362 14.1183 15.5603 14.3154C15.2843 14.5126 15.0727 14.7869 14.9521 15.1039C14.8694 15.3384 14.8317 15.5863 14.8408 15.8347V20.9328H11.8273C11.8385 18.3841 11.8546 15.8354 11.849 13.2867C11.849 12.5629 11.8418 12.0753 11.8273 11.8237H14.8415V13.1082C15.0912 12.7307 15.4021 12.3973 15.7613 12.1219C16.2956 11.7671 16.9262 11.5852 17.5673 11.6011L17.5666 11.6018ZM7.12754 11.8244H10.141V20.9328H7.12754V11.8244Z" fill="#E6E9ED"/>
</g>
</g>
</g>
</g>
</svg>
