<svg width="196" height="35" viewBox="0 0 196 35" fill="none" xmlns="http://www.w3.org/2000/svg">
<g id="Group 28378">
<g id="Group 153">
<path id="Path 212" d="M25.7435 3.47717C26.0868 3.10721 26.2757 2.61994 26.2715 2.11525C26.2715 1.55836 26.0502 1.02433 25.6564 0.630549C25.2626 0.236765 24.7284 0.015625 24.1715 0.015625L11.1215 0.0866623C9.0216 0.0867598 6.96464 0.681171 5.18854 1.80132C3.41243 2.92147 1.98977 4.52149 1.0851 6.41631C0.180424 8.31113 -0.1693 10.4234 0.0763999 12.5087C0.3221 14.5939 1.15318 16.567 2.47349 18.1997L6.39549 22.3741L25.7435 3.47717Z" fill="url(#paint0_linear_16_182117)"/>
<path id="Path 213" d="M0.81778 27.8425C0.584354 28.0277 0.394606 28.2621 0.262039 28.5289C0.129472 28.7958 0.0573461 29.0884 0.0507812 29.3863C0.0515764 29.9409 0.272611 30.4724 0.665283 30.8641C1.05796 31.2558 1.59013 31.4757 2.14479 31.4752L15.1108 31.4852C17.2173 31.4892 19.2814 30.8928 21.0612 29.7661C22.841 28.6394 24.2628 27.029 25.1602 25.1233C26.0575 23.2176 26.3931 21.0958 26.1277 19.0063C25.8624 16.9167 25.007 14.9459 23.6618 13.325C23.6618 13.325 21.7898 11.1062 19.8308 9.23145L0.81778 27.8425Z" fill="url(#paint1_linear_16_182117)"/>
<path id="Path 214" d="M25.7419 3.4696C26.0037 3.16545 26.1729 2.79281 26.2294 2.3955C26.2859 1.99818 26.2274 1.59297 26.0607 1.2279C25.894 0.862824 25.6262 0.553013 25.289 0.335413C24.9518 0.117814 24.5592 0.00144468 24.1579 0L15.6139 0.115954C14.3297 0.116284 13.0685 0.456632 11.9585 1.10242C10.8485 1.74821 9.92935 2.67637 9.2945 3.79256C8.65964 4.90875 8.33172 6.1732 8.34409 7.45721C8.35645 8.74122 8.70865 9.99905 9.36488 11.1028C10.1254 12.4653 11.0696 13.7169 12.1709 14.8224L13.0989 15.8223L25.7419 3.4696Z" fill="url(#paint2_linear_16_182117)"/>
<path id="Path 215" d="M0.768856 27.8884C0.445607 28.168 0.215414 28.5395 0.109036 28.9534C0.0026577 29.3674 0.0251583 29.8042 0.173535 30.205C0.321911 30.6058 0.589097 30.9516 0.939388 31.1966C1.28968 31.4416 1.70639 31.5741 2.13385 31.5759L10.6618 31.5159C12.5997 31.4935 14.4504 30.707 15.8116 29.3277C17.1728 27.9483 17.9344 26.0875 17.9309 24.1497C17.9332 22.5343 17.3949 20.9643 16.4019 19.69C15.4084 18.313 14.3047 17.019 13.1018 15.8206L0.768856 27.8884Z" fill="url(#paint3_linear_16_182117)"/>
<path id="Path 216" d="M0.768856 27.8882C0.445607 28.168 0.215414 28.5397 0.109036 28.9537C0.0026577 29.3677 0.0251583 29.8043 0.173535 30.2051C0.321911 30.606 0.589097 30.9523 0.939388 31.1973C1.28968 31.4423 1.70639 31.5744 2.13385 31.5762L3.97285 31.5914C5.24982 31.5742 6.4684 31.0535 7.36354 30.1426C8.25867 29.2318 8.75797 28.0042 8.75285 26.7271C8.75446 25.615 8.36751 24.5374 7.65886 23.6802L6.40086 22.3804L0.768856 27.8882Z" fill="url(#paint4_linear_16_182117)"/>
<path id="Path 217" d="M25.7674 3.49243C26.0289 3.18823 26.1978 2.81541 26.2541 2.41821C26.3105 2.02102 26.2519 1.61615 26.0852 1.25122C25.9186 0.886296 25.6509 0.576704 25.3139 0.359131C24.9768 0.141558 24.5845 0.0250455 24.1834 0.0234375L22.3174 0.0625C21.0369 0.0845656 19.8165 0.609721 18.9202 1.52441C18.0238 2.43911 17.5235 3.66978 17.5274 4.95044C17.526 5.9267 17.8241 6.87985 18.3814 7.6814C18.8104 8.2512 19.2985 8.77416 19.8374 9.24146L25.7674 3.49243Z" fill="url(#paint5_linear_16_182117)"/>
</g>
<g id="Group 154">
<path id="Path 218" d="M46.3112 10.0684C45.248 9.52109 44.0746 9.22165 42.8792 9.19249C42.1432 9.19249 40.8792 9.50851 40.8792 10.4194C40.8792 11.6453 42.8792 11.8192 43.7512 11.9952C46.7282 12.5951 48.9702 13.9949 48.9702 17.3186C48.9702 22.0471 44.6622 24.0078 40.4932 24.0078C37.9323 23.9984 35.4235 23.2837 33.2422 21.9421L35.5542 17.4936C37.0441 18.5376 38.785 19.1664 40.5982 19.3154C41.4042 19.3154 42.5982 18.9295 42.5982 17.9486C42.5982 16.5488 40.5982 16.4778 38.6052 15.9488C36.6122 15.4199 34.6122 14.443 34.6122 11.2204C34.6122 6.80683 38.6052 4.84604 42.5282 4.84604C44.5613 4.80552 46.5796 5.19961 48.4482 6.00192L46.3112 10.0684Z" fill="white"/>
<path id="Path 219" d="M71.3769 23.3133H65.2639V21.4007H65.1969C64.6051 22.2144 63.8196 22.8677 62.9116 23.3014C62.0037 23.735 61.0018 23.9354 59.9969 23.8843C54.8969 23.8843 51.2969 19.6208 51.2969 14.6853C51.2969 9.74987 54.8219 5.52129 59.9249 5.52129C60.9234 5.49538 61.916 5.6826 62.8365 6.07054C63.757 6.45848 64.5842 7.03823 65.2629 7.77104V6.09227H71.3729L71.3769 23.3133ZM57.6129 14.7203C57.6129 15.7619 58.0267 16.761 58.7634 17.4975C59.5 18.2341 60.4991 18.6481 61.5409 18.6481C62.5826 18.6481 63.5818 18.2341 64.3184 17.4975C65.055 16.761 65.4689 15.7619 65.4689 14.7203C65.4689 13.6786 65.055 12.6798 64.3184 11.9432C63.5818 11.2066 62.5826 10.7927 61.5409 10.7927C60.4991 10.7927 59.5 11.2066 58.7634 11.9432C58.0267 12.6798 57.6129 13.6786 57.6129 14.7203Z" fill="white"/>
<path id="Path 220" d="M94.3376 21.6348C94.3376 28.952 90.7116 31.9057 84.3666 31.9057C80.4056 31.9057 75.1016 29.859 74.5666 25.3265H81.4156C81.5019 25.6134 81.6482 25.8784 81.845 26.1043C82.0417 26.3301 82.2843 26.5117 82.5566 26.6365C83.1012 26.8992 83.698 27.0358 84.3026 27.0363C87.5926 27.0363 88.2306 24.8875 88.2306 22.1008V21.296C87.5402 22.0569 86.6943 22.6604 85.7502 23.0658C84.8061 23.4712 83.7859 23.6689 82.7586 23.6456C77.7236 23.6456 74.2656 19.8202 74.2656 14.8467C74.2656 9.81124 77.8236 5.51469 83.0946 5.51469C84.0711 5.4593 85.0461 5.64822 85.9312 6.06444C86.8162 6.48066 87.5835 7.11107 88.1636 7.89847H88.2306V6.08543H94.3406L94.3376 21.6348ZM80.5736 14.5857C80.5736 15.6274 80.9875 16.6262 81.7241 17.3628C82.4608 18.0994 83.4598 18.5133 84.5016 18.5133C85.5434 18.5133 86.5425 18.0994 87.2791 17.3628C88.0158 16.6262 88.4296 15.6274 88.4296 14.5857C88.4296 13.5441 88.0158 12.545 87.2791 11.8085C86.5425 11.0719 85.5434 10.6579 84.5016 10.6579C83.4598 10.6579 82.4608 11.0719 81.7241 11.8085C80.9875 12.545 80.5736 13.5441 80.5736 14.5857Z" fill="white"/>
<path id="Path 221" d="M115.86 15.7278H103.004C103.004 18.2105 104.313 19.5545 106.831 19.5545C107.418 19.6012 108.006 19.4771 108.524 19.1971C109.042 18.9172 109.469 18.4932 109.752 17.9766H115.627C115.414 18.9021 115.016 19.7749 114.456 20.5422C113.896 21.3096 113.187 21.9557 112.371 22.4412C110.703 23.4186 108.798 23.9179 106.866 23.8849C101.159 23.8849 96.8945 20.6622 96.8945 14.7198C96.8945 8.98045 100.823 5.52087 106.429 5.52087C112.405 5.52087 115.863 9.21362 115.863 15.087L115.86 15.7278ZM110.187 12.2033C109.978 11.4235 109.518 10.7343 108.877 10.2428C108.237 9.75125 107.452 9.4848 106.645 9.4848C105.838 9.4848 105.053 9.75125 104.413 10.2428C103.772 10.7343 103.312 11.4235 103.104 12.2033H110.187Z" fill="white"/>
<path id="Path 222" d="M124.755 8.30925H124.822C125.397 7.38624 126.215 6.63863 127.186 6.14737C128.156 5.6561 129.243 5.43983 130.328 5.52244C134.961 5.52244 136.807 8.44325 136.807 12.6728V23.3137H130.697V14.9226C130.697 13.2777 130.966 10.3911 127.944 10.3911C125.46 10.3911 124.755 12.2367 124.755 14.3855V23.3147H118.641V6.0944H124.751L124.755 8.30925Z" fill="white"/>
<path id="Path 223" d="M158.527 15.7278H145.669C145.669 18.2105 146.978 19.5545 149.496 19.5545C150.083 19.6012 150.671 19.4771 151.189 19.1971C151.708 18.9172 152.134 18.4932 152.417 17.9766H158.292C158.079 18.9021 157.681 19.7749 157.121 20.5422C156.561 21.3095 155.852 21.9556 155.036 22.4412C153.368 23.4187 151.463 23.918 149.53 23.8849C143.823 23.8849 139.559 20.6622 139.559 14.7198C139.559 8.98045 143.487 5.52087 149.093 5.52087C155.068 5.52087 158.526 9.21362 158.526 15.087L158.527 15.7278ZM152.854 12.2033C152.645 11.4235 152.185 10.7343 151.544 10.2428C150.904 9.75125 150.119 9.4848 149.312 9.4848C148.505 9.4848 147.72 9.75125 147.08 10.2428C146.439 10.7343 145.979 11.4235 145.771 12.2033H152.854Z" fill="white"/>
<path id="Path 224" d="M191.9 23.3134H185.79V11.1326H183.809V6.09625H185.79V0.927612H191.9V6.09625H195.358V11.1326H191.9V23.3134Z" fill="white"/>
<g id="infotech">
<path id="Vector" d="M194.489 31.0169V33.997H193.134V30.9098C193.134 30.6366 193.088 30.4162 192.995 30.2485C192.874 30.0126 192.644 29.8946 192.306 29.8946C191.955 29.8946 191.688 30.0126 191.505 30.2485C191.325 30.4814 191.235 30.8151 191.235 31.2497V33.997H189.912V27.1566H191.235V29.5827C191.427 29.2877 191.649 29.0829 191.9 28.968C192.155 28.85 192.422 28.7911 192.701 28.7911C193.015 28.7911 193.299 28.8454 193.554 28.954C193.811 29.0627 194.022 29.2288 194.187 29.4523C194.326 29.6416 194.412 29.8372 194.443 30.039C194.474 30.2377 194.489 30.5636 194.489 31.0169Z" fill="white"/>
<path id="Vector_2" d="M188.984 30.7419H187.625C187.6 30.5526 187.536 30.3818 187.434 30.2297C187.285 30.0248 187.054 29.9224 186.74 29.9224C186.293 29.9224 185.987 30.1444 185.823 30.5883C185.736 30.8242 185.692 31.1377 185.692 31.5289C185.692 31.9014 185.736 32.201 185.823 32.4276C185.981 32.8498 186.279 33.0609 186.717 33.0609C187.027 33.0609 187.248 32.9771 187.378 32.8094C187.508 32.6418 187.588 32.4245 187.615 32.1575H188.971C188.939 32.5611 188.794 32.9429 188.533 33.303C188.117 33.8835 187.501 34.1738 186.684 34.1738C185.868 34.1738 185.267 33.9317 184.882 33.4474C184.497 32.9631 184.305 32.3345 184.305 31.5615C184.305 30.6892 184.517 30.0109 184.943 29.5266C185.368 29.0423 185.955 28.8002 186.703 28.8002C187.339 28.8002 187.859 28.943 188.263 29.2286C188.669 29.5142 188.91 30.0186 188.984 30.7419Z" fill="white"/>
<path id="Vector_3" d="M183.63 32.5066C183.596 32.8077 183.439 33.1135 183.159 33.4239C182.725 33.9175 182.116 34.1643 181.334 34.1643C180.688 34.1643 180.119 33.9563 179.625 33.5403C179.132 33.1243 178.885 32.4476 178.885 31.5101C178.885 30.6315 179.107 29.9579 179.551 29.4891C179.998 29.0204 180.577 28.786 181.288 28.786C181.71 28.786 182.09 28.8652 182.428 29.0235C182.767 29.1818 183.046 29.4317 183.267 29.7732C183.465 30.0743 183.594 30.4236 183.653 30.8209C183.687 31.0537 183.701 31.389 183.695 31.8267H180.221C180.24 32.3358 180.4 32.6928 180.701 32.8977C180.884 33.025 181.104 33.0886 181.362 33.0886C181.635 33.0886 181.857 33.011 182.028 32.8558C182.121 32.772 182.203 32.6556 182.275 32.5066H183.63ZM182.317 30.9513C182.295 30.6005 182.188 30.3351 181.995 30.155C181.806 29.9719 181.57 29.8803 181.288 29.8803C180.98 29.8803 180.741 29.9765 180.57 30.169C180.403 30.3615 180.297 30.6222 180.254 30.9513H182.317Z" fill="white"/>
<path id="Vector_4" d="M178.433 33.0515V34.0433L177.804 34.0666C177.177 34.0883 176.749 33.9797 176.519 33.7406C176.37 33.5885 176.296 33.3541 176.296 33.0375V29.913H175.588V28.9677H176.296V27.5521H177.609V28.9677H178.433V29.913H177.609V32.5951C177.609 32.8031 177.635 32.9335 177.688 32.9863C177.741 33.0359 177.902 33.0608 178.172 33.0608C178.213 33.0608 178.255 33.0608 178.298 33.0608C178.345 33.0577 178.39 33.0546 178.433 33.0515Z" fill="white"/>
<path id="Vector_5" d="M174.514 29.5638C174.942 30.1008 175.156 30.7356 175.156 31.4683C175.156 32.2133 174.942 32.8513 174.514 33.3821C174.085 33.9098 173.435 34.1737 172.562 34.1737C171.69 34.1737 171.04 33.9098 170.611 33.3821C170.183 32.8513 169.969 32.2133 169.969 31.4683C169.969 30.7356 170.183 30.1008 170.611 29.5638C171.04 29.0267 171.69 28.7582 172.562 28.7582C173.435 28.7582 174.085 29.0267 174.514 29.5638ZM172.558 29.8804C172.17 29.8804 171.87 30.0185 171.659 30.2948C171.451 30.568 171.347 30.9592 171.347 31.4683C171.347 31.9774 171.451 32.3701 171.659 32.6464C171.87 32.9227 172.17 33.0608 172.558 33.0608C172.946 33.0608 173.244 32.9227 173.452 32.6464C173.66 32.3701 173.764 31.9774 173.764 31.4683C173.764 30.9592 173.66 30.568 173.452 30.2948C173.244 30.0185 172.946 29.8804 172.558 29.8804Z" fill="white"/>
<path id="Vector_6" d="M169.483 27.0913V28.1716C169.409 28.1623 169.283 28.1561 169.106 28.153C168.932 28.1468 168.811 28.1856 168.743 28.2694C168.677 28.3501 168.645 28.4401 168.645 28.5395V28.9679H169.516V29.9038H168.645V33.9969H167.322V29.9038H166.582V28.9679H167.308V28.6419C167.308 28.0987 167.4 27.7246 167.583 27.5197C167.776 27.2155 168.24 27.0634 168.975 27.0634C169.059 27.0634 169.135 27.0665 169.204 27.0727C169.272 27.0758 169.365 27.082 169.483 27.0913Z" fill="white"/>
<path id="Vector_7" d="M163.663 29.9038C163.213 29.9038 162.904 30.0947 162.736 30.4765C162.649 30.6783 162.606 30.936 162.606 31.2495V33.9968H161.283V28.9306H162.564V29.6709C162.734 29.4102 162.896 29.2224 163.048 29.1075C163.321 28.9026 163.667 28.8002 164.086 28.8002C164.611 28.8002 165.039 28.9383 165.372 29.2146C165.707 29.4878 165.875 29.9426 165.875 30.579V33.9968H164.515V30.9096C164.515 30.6426 164.479 30.4377 164.408 30.2949C164.277 30.0341 164.029 29.9038 163.663 29.9038Z" fill="white"/>
<path id="Vector_8" d="M159.984 28.9213V33.9969H158.639V28.9213H159.984ZM159.984 27.0913V28.316H158.639V27.0913H159.984Z" fill="white"/>
</g>
<path id="Path 225" d="M159.473 6.15363H166.564L174.328 14.3598C174.354 14.3784 174.374 14.4026 174.388 14.4306C174.402 14.4585 174.41 14.4893 174.41 14.5206C174.41 14.552 174.402 14.583 174.388 14.611C174.374 14.6389 174.354 14.6632 174.328 14.6818C174.146 14.8577 166.15 23.3237 166.15 23.3237H159.062L167.376 14.5746V14.4428L159.473 6.15363Z" fill="url(#paint6_linear_16_182117)"/>
<path id="Path 226" d="M175.623 13.2264L182.453 6.08917H175.304L172.066 9.51227L175.623 13.2264Z" fill="white"/>
<path id="Path 227" d="M175.574 15.8167L182.774 23.3408H175.625L172.016 19.5308L175.574 15.8167Z" fill="white"/>
</g>
</g>
<defs>
<linearGradient id="paint0_linear_16_182117" x1="13.2409" y1="21.7927" x2="13.1267" y2="0.171905" gradientUnits="userSpaceOnUse">
<stop stop-color="#774B9B"/>
<stop offset="0.872" stop-color="#7B6FB0"/>
<stop offset="1" stop-color="#7C75B4"/>
</linearGradient>
<linearGradient id="paint1_linear_16_182117" x1="13.4212" y1="13.0813" x2="13.2319" y2="24.2984" gradientUnits="userSpaceOnUse">
<stop stop-color="#F5973A"/>
<stop offset="0.27" stop-color="#F6A039"/>
<stop offset="0.725" stop-color="#FBBA37"/>
<stop offset="1" stop-color="#FFCE36"/>
</linearGradient>
<linearGradient id="paint2_linear_16_182117" x1="17.3329" y1="14.3983" x2="17.2909" y2="0.379699" gradientUnits="userSpaceOnUse">
<stop stop-color="#5780BE"/>
<stop offset="0.771" stop-color="#74A4D6"/>
<stop offset="1" stop-color="#7EB0DE"/>
</linearGradient>
<linearGradient id="paint3_linear_16_182117" x1="0.0429688" y1="23.6983" x2="17.9309" y2="23.6983" gradientUnits="userSpaceOnUse">
<stop stop-color="#EE5E51"/>
<stop offset="0.225" stop-color="#EB675A"/>
<stop offset="0.605" stop-color="#E58272"/>
<stop offset="1" stop-color="#DEA492"/>
</linearGradient>
<linearGradient id="paint4_linear_16_182117" x1="4.57213" y1="22.5278" x2="4.2702" y2="31.2495" gradientUnits="userSpaceOnUse">
<stop stop-color="#EA1A64"/>
<stop offset="0.126" stop-color="#EA236A"/>
<stop offset="0.339" stop-color="#EC3E7D"/>
<stop offset="0.612" stop-color="#EF689B"/>
<stop offset="0.933" stop-color="#F3A3C4"/>
<stop offset="1" stop-color="#F4B1CE"/>
</linearGradient>
<linearGradient id="paint5_linear_16_182117" x1="21.8574" y1="8.67916" x2="21.9448" y2="-0.0778737" gradientUnits="userSpaceOnUse">
<stop stop-color="#6DC4AE"/>
<stop offset="0.557" stop-color="#7CCCD2"/>
<stop offset="1" stop-color="#8AD4F2"/>
</linearGradient>
<linearGradient id="paint6_linear_16_182117" x1="159.062" y1="14.7386" x2="174.41" y2="14.7386" gradientUnits="userSpaceOnUse">
<stop stop-color="#F5973A"/>
<stop offset="0.27" stop-color="#F6A039"/>
<stop offset="0.725" stop-color="#FBBA37"/>
<stop offset="1" stop-color="#FFCE36"/>
</linearGradient>
</defs>
</svg>
