<svg width="42" height="36" viewBox="0 0 42 36" fill="none" xmlns="http://www.w3.org/2000/svg">
<g id="Group 28458">
<path id="Vector (Stroke)" fill-rule="evenodd" clip-rule="evenodd" d="M14.579 2.22331C15.5223 1.27997 16.8018 0.75 18.1359 0.75C19.47 0.75 20.7494 1.27997 21.6928 2.22331C22.4727 3.0033 22.9701 4.01306 23.119 5.0935C25.4571 5.88062 27.5809 7.21289 29.3113 8.98675C29.8897 9.57976 29.8779 10.5294 29.2849 11.1079C28.6919 11.6864 27.7422 11.6746 27.1638 11.0816C25.8755 9.7609 24.3172 8.74325 22.6023 8.09414C22.3668 8.54857 22.0613 8.96848 21.6928 9.33708C20.7494 10.2804 19.47 10.8104 18.1359 10.8104C16.8018 10.8104 15.5223 10.2804 14.579 9.33708C14.2099 8.96794 13.904 8.54734 13.6685 8.09215C11.9155 8.75565 10.3266 9.80398 9.02261 11.1666C8.44982 11.7651 7.50031 11.786 6.9018 11.2132C6.30329 10.6404 6.28243 9.69087 6.85521 9.09236C8.60404 7.26498 10.7666 5.89421 13.1531 5.09105C13.3024 4.01153 13.7996 3.00271 14.579 2.22331ZM20.1578 5.96297C20.1497 6.00981 20.1438 6.05659 20.1402 6.1032C20.0727 6.52193 19.8752 6.91201 19.5714 7.21576C19.1907 7.59649 18.6743 7.81039 18.1359 7.81039C17.5974 7.81039 17.081 7.59649 16.7003 7.21576C16.3196 6.83502 16.1057 6.31863 16.1057 5.78019C16.1057 5.24175 16.3196 4.72537 16.7003 4.34463C17.081 3.96389 17.5974 3.75 18.1359 3.75C18.6743 3.75 19.1907 3.96389 19.5714 4.34463C19.9522 4.72537 20.1661 5.24175 20.1661 5.78019C20.1661 5.84146 20.1633 5.90244 20.1578 5.96297ZM5.05266 14.3684C5.84567 14.608 6.29427 15.4451 6.05464 16.2382C5.69598 17.425 5.51419 18.6583 5.5151 19.8982L5.5151 19.8993C5.5151 20.5918 5.57079 21.2708 5.67771 21.9322C5.71183 21.9315 5.74599 21.9312 5.78019 21.9312C7.11428 21.9312 8.39373 22.4611 9.33708 23.4045C10.2804 24.3478 10.8104 25.6273 10.8104 26.9614C10.8104 27.9016 10.5472 28.8146 10.0615 29.602C11.4927 30.7946 13.1751 31.659 14.9902 32.1261C15.7924 32.3326 16.2754 33.1504 16.0689 33.9527C15.8624 34.7549 15.0447 35.2379 14.2424 35.0314C11.8345 34.4117 9.61527 33.2273 7.76521 31.5833C7.14399 31.8501 6.46938 31.9915 5.78019 31.9915C4.4461 31.9915 3.16665 31.4616 2.22331 30.5182C1.27997 29.5749 0.75 28.2954 0.75 26.9614C0.75 25.6273 1.27997 24.3478 2.22331 23.4045C2.40517 23.2226 2.59953 23.0561 2.80436 22.9058C2.61454 21.932 2.51514 20.9268 2.5151 19.8998C2.51402 18.3654 2.73904 16.8392 3.18289 15.3704C3.42252 14.5774 4.25965 14.1288 5.05266 14.3684ZM2.5151 19.8998C2.5151 19.8997 2.5151 19.8995 2.5151 19.8993H4.0151L2.5151 19.9004C2.5151 19.9002 2.5151 19.9 2.5151 19.8998ZM7.12969 28.4781C7.07249 28.5177 7.01739 28.5616 6.96487 28.6101C6.62189 28.8565 6.208 28.9915 5.78019 28.9915C5.24175 28.9915 4.72537 28.7776 4.34463 28.3969C3.96389 28.0162 3.75 27.4998 3.75 26.9614C3.75 26.4229 3.96389 25.9065 4.34463 25.5258C4.72537 25.1451 5.24175 24.9312 5.78019 24.9312C6.31863 24.9312 6.83502 25.1451 7.21576 25.5258C7.59649 25.9065 7.81039 26.4229 7.81039 26.9614C7.81039 27.4998 7.59649 28.0162 7.21576 28.3969C7.18778 28.4249 7.15908 28.452 7.12969 28.4781Z" fill="#434343"/>
<path id="Vector (Stroke)_2" fill-rule="evenodd" clip-rule="evenodd" d="M38.8852 9.76281C39.2628 10.1285 39.2928 10.724 38.954 11.1258L22.0289 31.1976C21.8211 31.444 21.5072 31.5751 21.1859 31.5498C20.8646 31.5246 20.5751 31.3459 20.4084 31.07L14.2528 20.8807C14.0038 20.4684 14.084 19.9371 14.4438 19.6167C14.8035 19.2964 15.3406 19.2781 15.7213 19.5732L21.561 24.0986L37.5206 9.73784C37.9114 9.38626 38.5076 9.39717 38.8852 9.76281Z" fill="#FDC736"/>
</g>
</svg>
