<svg width="39" height="39" viewBox="0 0 39 39" fill="none" xmlns="http://www.w3.org/2000/svg">
<g id="Group 6962">
<g id="timer-outline">
<path id="Path 51250" d="M7.60023 8.88241C5.12398 11.6528 3.6686 15.1861 3.47522 18.8968C3.28185 22.6075 4.3621 26.2729 6.53697 29.2857C8.71185 32.2984 11.8508 34.4777 15.4337 35.4623C19.0166 36.447 22.8284 36.1779 26.2375 34.6998C29.6466 33.2216 32.4483 30.623 34.1784 27.3346C35.9085 24.0463 36.4632 20.2654 35.7505 16.6187C35.0378 12.9719 33.1006 9.67812 30.2597 7.28304C27.4189 4.88796 23.845 3.53538 20.1302 3.44941C20.0806 3.4478 20.0311 3.45621 19.9847 3.47415C19.9384 3.49208 19.8961 3.51917 19.8604 3.5538C19.8248 3.58842 19.7965 3.62988 19.7772 3.67568C19.7579 3.72149 19.7481 3.77071 19.7482 3.82041V10.9204" stroke="#434343" stroke-width="3" stroke-linecap="round" stroke-linejoin="round"/>
<path id="Path 51251" d="M17.8279 21.671L11.1209 12.078C11.0279 11.9451 10.9846 11.7837 10.9987 11.6221C11.0128 11.4605 11.0835 11.309 11.1982 11.1943C11.3129 11.0796 11.4644 11.0089 11.626 10.9948C11.7876 10.9807 11.949 11.0239 12.0819 11.117L21.6749 17.824C21.9747 18.0304 22.2307 18.2941 22.4282 18.5999C22.6256 18.9057 22.7606 19.2476 22.8253 19.6058C22.89 19.964 22.8833 20.3314 22.8053 20.687C22.7274 21.0426 22.5799 21.3792 22.3713 21.6775C22.1628 21.9758 21.8972 22.2299 21.59 22.4251C21.2828 22.6203 20.94 22.7528 20.5813 22.815C20.2226 22.8771 19.8552 22.8677 19.5002 22.7872C19.1453 22.7067 18.8097 22.5568 18.5129 22.346C18.2477 22.1622 18.016 21.9342 17.8279 21.672V21.671Z" fill="#FDC736"/>
</g>
</g>
</svg>
