<svg width="79" height="79" viewBox="0 0 79 79" fill="none" xmlns="http://www.w3.org/2000/svg">
<g id="Frame 28517">
<g id="Group 28453">
<path id="Vector (Stroke)" fill-rule="evenodd" clip-rule="evenodd" d="M10.7222 5C9.2046 5 7.74913 5.60288 6.676 6.676C5.60288 7.74912 5 9.2046 5 10.7222V68.2778C5 69.7954 5.60288 71.2509 6.676 72.324C7.74913 73.3971 9.2046 74 10.7222 74H68.2778C69.7954 74 71.2509 73.3971 72.324 72.324C73.3971 71.2509 74 69.7954 74 68.2778V10.7222C74 9.2046 73.3971 7.74912 72.324 6.676C71.2509 5.60288 69.7954 5 68.2778 5H10.7222ZM3.14047 3.14046C5.15127 1.12967 7.87851 0 10.7222 0H68.2778C71.1215 0 73.8487 1.12967 75.8595 3.14046C77.8703 5.15127 79 7.87852 79 10.7222V68.2778C79 71.1215 77.8703 73.8487 75.8595 75.8595C73.8487 77.8703 71.1215 79 68.2778 79H10.7222C7.87851 79 5.15127 77.8703 3.14047 75.8595C1.12966 73.8487 0 71.1215 0 68.2778V10.7222C0 7.87852 1.12966 5.15127 3.14047 3.14046Z" fill="#FDC736"/>
<path id="Vector (Stroke)_2" fill-rule="evenodd" clip-rule="evenodd" d="M38.7908 15.8119C39.5433 15.396 40.4567 15.396 41.2092 15.8119L60.2092 26.3119C61.0056 26.752 61.5 27.5901 61.5 28.5V49.5C61.5 50.4099 61.0056 51.248 60.2092 51.6881L41.2092 62.1881C40.4567 62.604 39.5433 62.604 38.7908 62.1881L19.7908 51.6881C18.9944 51.248 18.5 50.4099 18.5 49.5V28.5C18.5 27.5901 18.9944 26.752 19.7908 26.3119L38.7908 15.8119ZM23.5 48.0252L37.5 55.7621V40.4748L23.5 32.7379V48.0252ZM26.1686 28.5L40 36.1436L53.8314 28.5L40 20.8564L26.1686 28.5ZM56.5 32.7379L42.5 40.4748V55.7621L56.5 48.0252V32.7379Z" fill="white"/>
</g>
</g>
</svg>
