<svg width="6" height="7" viewBox="0 0 6 7" fill="none" xmlns="http://www.w3.org/2000/svg">
<path id="Polygon 8" d="M5.22294 2.66671C5.31318 2.72084 5.38785 2.79743 5.4397 2.889C5.49155 2.98057 5.5188 3.08401 5.5188 3.18924C5.5188 3.29447 5.49155 3.3979 5.4397 3.48947C5.38785 3.58104 5.31318 3.65763 5.22294 3.71177L0.923269 6.29181C0.830772 6.34738 0.725178 6.3774 0.61728 6.37879C0.509381 6.38017 0.40305 6.35288 0.309155 6.29971C0.21526 6.24653 0.13717 6.16938 0.0828667 6.07613C0.0285636 5.98288 -4.69829e-06 5.87689 8.30385e-05 5.76898L8.29769e-05 0.608883C0.000167853 0.501119 0.0288301 0.395305 0.0831456 0.30223C0.137461 0.209155 0.215488 0.132149 0.30927 0.0790637C0.403052 0.0259784 0.509234 -0.0012873 0.61699 4.67652e-05C0.724746 0.00138083 0.830221 0.0312669 0.92266 0.0866577L5.22294 2.66671Z" fill="#434343"/>
</svg>
