<svg width="18" height="14" viewBox="0 0 18 14" fill="none" xmlns="http://www.w3.org/2000/svg">
<path id="Vector (Stroke)" d="M1.88889 0.75C1.2599 0.75 0.75 1.2599 0.75 1.88889C0.75 2.51788 1.2599 3.02778 1.88889 3.02778H16.1111C16.7401 3.02778 17.25 2.51788 17.25 1.88889C17.25 1.2599 16.7401 0.75 16.1111 0.75H1.88889ZM1.88889 6.08333C1.2599 6.08333 0.75 6.59323 0.75 7.22222C0.75 7.85121 1.2599 8.36111 1.88889 8.36111H16.1111C16.7401 8.36111 17.25 7.85121 17.25 7.22222C17.25 6.59323 16.7401 6.08333 16.1111 6.08333H1.88889ZM1.88889 11.4167C1.2599 11.4167 0.75 11.9266 0.75 12.5556C0.75 13.1845 1.2599 13.6944 1.88889 13.6944H16.1111C16.7401 13.6944 17.25 13.1845 17.25 12.5556C17.25 11.9266 16.7401 11.4167 16.1111 11.4167H1.88889Z" fill="black" stroke="black" stroke-width="0.5" stroke-linecap="round" stroke-linejoin="round"/>
</svg>
