<svg width="9" height="7" viewBox="0 0 9 7" fill="none" xmlns="http://www.w3.org/2000/svg">
<path id="Polygon 8" d="M4.67047 6.57112C4.60235 6.68465 4.50599 6.77861 4.39078 6.84384C4.27557 6.90907 4.14543 6.94336 4.01303 6.94336C3.88064 6.94336 3.7505 6.90907 3.63529 6.84384C3.52007 6.77861 3.42372 6.68465 3.3556 6.57112L0.109465 1.1614C0.0395461 1.04503 0.0017839 0.912169 3.86861e-05 0.776415C-0.00170653 0.640661 0.0326281 0.506877 0.0995327 0.388741C0.166437 0.270606 0.263512 0.172355 0.380834 0.104032C0.498155 0.0357097 0.631515 -0.00023382 0.76728 -0.000123659L7.25956 -0.000123091C7.39514 -1.57907e-05 7.52828 0.0360455 7.64538 0.104384C7.76248 0.172722 7.85937 0.270893 7.92616 0.388887C7.99295 0.50688 8.02726 0.640476 8.02558 0.776051C8.0239 0.911626 7.9863 1.04433 7.91661 1.16064L4.67047 6.57112Z" fill="#434343"/>
</svg>
