<svg width="10" height="10" viewBox="0 0 11 10" fill="none" xmlns="http://www.w3.org/2000/svg">
    <path id="Polygon 7"
        d="M6.20973 8.57112C6.12088 8.7192 5.9952 8.84175 5.84493 8.92684C5.69466 9.01192 5.52491 9.05664 5.35223 9.05664C5.17954 9.05664 5.0098 9.01192 4.85952 8.92684C4.70925 8.84175 4.58357 8.7192 4.49473 8.57112L0.260728 1.51512C0.169531 1.36333 0.120276 1.19005 0.118 1.01298C0.115724 0.835912 0.160507 0.661416 0.247772 0.507329C0.335037 0.353242 0.461654 0.225092 0.614678 0.135978C0.767703 0.0468636 0.941647 -1.81198e-05 1.11873 0.000124931L9.58673 0.000124931C9.76357 0.000264168 9.93722 0.0473003 10.09 0.136436C10.2427 0.225571 10.3691 0.353617 10.4562 0.507518C10.5433 0.661419 10.5881 0.83567 10.5859 1.0125C10.5837 1.18934 10.5346 1.36243 10.4437 1.51412L6.20973 8.57112Z"
        fill="#434343" />
</svg>