<svg width="28" height="29" viewBox="0 0 28 29" fill="none" xmlns="http://www.w3.org/2000/svg">
<g id="Clip path group">
<mask id="mask0_16_182164" style="mask-type:luminance" maskUnits="userSpaceOnUse" x="0" y="0" width="28" height="29">
<g id="clip-path">
<path id="Ellipse 17511" d="M14 28.1741C21.732 28.1741 28 21.9061 28 14.1741C28 6.44209 21.732 0.174072 14 0.174072C6.26801 0.174072 0 6.44209 0 14.1741C0 21.9061 6.26801 28.1741 14 28.1741Z" fill="white"/>
</g>
</mask>
<g mask="url(#mask0_16_182164)">
<g id="Mask Group 236">
<g id="pinterest-square">
<path id="Path 54319" d="M11.1315 21.6728C11.6894 20.9312 12.1169 20.1001 12.3957 19.2151C12.4657 18.95 12.6725 18.1347 13.0159 16.7693C13.2188 17.11 13.5182 17.3829 13.8762 17.5533C14.281 17.7705 14.7336 17.8831 15.1929 17.8809C15.8657 17.8924 16.5312 17.7415 17.1332 17.441C17.7352 17.1405 18.2558 16.6992 18.6509 16.1547C19.58 14.8917 20.0524 13.3505 19.9907 11.7839C19.9908 11.128 19.8512 10.4797 19.5812 9.88196C19.3111 9.2728 18.9279 8.72034 18.4521 8.25376C17.9387 7.76014 17.3319 7.37411 16.6671 7.11836C15.9331 6.8291 15.1503 6.68412 14.3613 6.69136C13.59 6.6853 12.8222 6.79767 12.0849 7.02456C11.4404 7.21663 10.8346 7.52037 10.295 7.92196C9.81604 8.28688 9.39174 8.71849 9.03505 9.20366C8.69758 9.65887 8.43548 10.1654 8.25875 10.7038C8.09409 11.2042 8.00928 11.7274 8.00745 12.2543C7.99243 12.983 8.15077 13.705 8.46945 14.3606C8.75034 14.9422 9.23585 15.3998 9.83305 15.6458C9.87632 15.6651 9.92319 15.6751 9.9706 15.6751C10.018 15.6751 10.0649 15.6651 10.1081 15.6458C10.151 15.6234 10.1884 15.5918 10.2177 15.5534C10.247 15.5149 10.2674 15.4704 10.2775 15.4232C10.3555 15.0797 10.414 14.8417 10.4532 14.7092C10.4765 14.6234 10.4769 14.5329 10.4543 14.447C10.4317 14.361 10.3869 14.2824 10.3244 14.2192C9.92924 13.7209 9.72207 13.0993 9.73925 12.4636C9.72983 11.9076 9.83217 11.3555 10.0402 10.8399C10.2482 10.3243 10.5577 9.8557 10.9502 9.46196C11.3625 9.04527 11.8571 8.71913 12.4025 8.50435C12.9479 8.28957 13.5321 8.19087 14.1177 8.21456C14.6113 8.18541 15.1057 8.25428 15.5724 8.41719C16.0392 8.58011 16.4691 8.83384 16.8372 9.16376C17.1627 9.4826 17.418 9.86591 17.5868 10.2891C17.7555 10.7123 17.834 11.1661 17.8172 11.6215C17.8525 12.787 17.5802 13.9413 17.0276 14.9682C16.8521 15.365 16.5689 15.7048 16.2101 15.9489C15.8513 16.193 15.4313 16.3317 14.9976 16.3493C14.7822 16.3563 14.5679 16.3142 14.3712 16.226C14.1744 16.1378 14.0004 16.0059 13.8622 15.8404C13.7207 15.6765 13.622 15.4801 13.575 15.2688C13.528 15.0575 13.5341 14.8378 13.5927 14.6294C13.6553 14.3643 13.7586 14.0036 13.9028 13.5472C14.047 13.0908 14.1621 12.6929 14.2479 12.3537C14.326 12.0692 14.3693 11.7763 14.3767 11.4815C14.3893 11.1368 14.2795 10.7988 14.0666 10.5274C13.959 10.3986 13.8227 10.2969 13.6687 10.2303C13.5147 10.1637 13.3473 10.1341 13.1797 10.1438C12.9393 10.1469 12.7032 10.2089 12.4921 10.3242C12.281 10.4394 12.1014 10.6046 11.9687 10.8053C11.6266 11.2792 11.4515 11.8534 11.471 12.4377C11.4554 12.9248 11.5512 13.4092 11.751 13.8538L10.6044 18.6985C10.41 19.6775 10.3823 20.6824 10.5225 21.6707L11.1315 21.6728Z" fill="#E6E9ED"/>
</g>
</g>
</g>
</g>
</svg>
