<svg width="12" height="15" viewBox="0 0 12 15" fill="none" xmlns="http://www.w3.org/2000/svg">
<path d="M3.12508 14.9817C3.6829 14.2401 4.11041 13.409 4.38928 12.524C4.45928 12.2589 4.66601 11.4436 5.00948 10.0782C5.2123 10.4189 5.51172 10.6918 5.86978 10.8622C6.27452 11.0794 6.72713 11.192 7.18648 11.1898C7.85919 11.2013 8.52477 11.0504 9.12674 10.7499C9.72872 10.4494 10.2494 10.0081 10.6445 9.46356C11.5736 8.20059 12.046 6.65943 11.9843 5.09276C11.9843 4.43691 11.8447 3.78857 11.5748 3.19086C11.3046 2.5817 10.9215 2.02923 10.4457 1.56266C9.93227 1.06904 9.32539 0.683009 8.66068 0.427258C7.92668 0.138002 7.14378 -0.00697879 6.35488 0.000258159C5.5835 -0.00580266 4.81576 0.106572 4.07848 0.333458C3.43392 0.525525 2.82809 0.829269 2.28858 1.23086C1.80957 1.59578 1.38527 2.02739 1.02858 2.51256C0.691115 2.96777 0.429006 3.47426 0.252277 4.01266C0.0876212 4.51309 0.00281522 5.03633 0.000977238 5.56316C-0.0140445 6.29194 0.144304 7.01387 0.462977 7.66946C0.743869 8.25106 1.22938 8.70866 1.82658 8.95466C1.86985 8.97402 1.91672 8.98404 1.96413 8.98404C2.01153 8.98404 2.05841 8.97402 2.10168 8.95466C2.14453 8.93228 2.18193 8.90073 2.21121 8.86226C2.24049 8.82378 2.26093 8.77933 2.27108 8.73206C2.34901 8.38859 2.40758 8.15059 2.44678 8.01806C2.47004 7.93225 2.47039 7.84185 2.44779 7.75586C2.42519 7.66988 2.38043 7.59133 2.31798 7.52806C1.92277 7.02975 1.7156 6.40823 1.73278 5.77246C1.72336 5.21654 1.8257 4.6644 2.03372 4.14879C2.24175 3.63317 2.55122 3.1646 2.94378 2.77086C3.35603 2.35417 3.85064 2.02803 4.39603 1.81325C4.94142 1.59847 5.5256 1.49977 6.11128 1.52346C6.60479 1.49431 7.09919 1.56318 7.56595 1.72609C8.03271 1.88901 8.46259 2.14274 8.83078 2.47266C9.15625 2.7915 9.41154 3.17481 9.5803 3.59802C9.74906 4.02124 9.82756 4.47504 9.81078 4.93036C9.84603 6.09591 9.5737 7.25018 9.02118 8.27706C8.84562 8.67392 8.56239 9.01367 8.20359 9.25777C7.84479 9.50188 7.42478 9.64058 6.99118 9.65816C6.77569 9.66522 6.56143 9.62305 6.36469 9.53487C6.16795 9.44669 5.9939 9.31481 5.85578 9.14926C5.71426 8.98541 5.61557 8.78903 5.56854 8.57769C5.52151 8.36636 5.5276 8.14666 5.58628 7.93826C5.64881 7.67319 5.75218 7.31246 5.89638 6.85606C6.04058 6.39966 6.15561 6.00182 6.24148 5.66256C6.31953 5.3781 6.36278 5.08523 6.37028 4.79036C6.38284 4.44568 6.27298 4.10769 6.06018 3.83626C5.95253 3.70755 5.81625 3.60582 5.66225 3.53921C5.50824 3.4726 5.34079 3.44296 5.17328 3.45266C4.93279 3.45582 4.69672 3.51775 4.48565 3.63305C4.27457 3.74835 4.0949 3.91351 3.96228 4.11416C3.62011 4.58813 3.44505 5.16231 3.46458 5.74656C3.44895 6.23375 3.54471 6.71808 3.74458 7.16266L2.59798 12.0074C2.4035 12.9864 2.37581 13.9913 2.51608 14.9796L3.12508 14.9817Z" fill="#E6E9ED"/>
</svg>
