<svg width="38" height="38" viewBox="0 0 38 38" fill="none" xmlns="http://www.w3.org/2000/svg">
<g id="Group 6962">
<g id="timer-outline">
<path id="Path 51250" d="M6.85023 8.13241C4.37398 10.9028 2.9186 14.4361 2.72522 18.1468C2.53185 21.8575 3.6121 25.5229 5.78697 28.5357C7.96185 31.5484 11.1008 33.7277 14.6837 34.7123C18.2666 35.697 22.0784 35.4279 25.4875 33.9498C28.8966 32.4716 31.6983 29.873 33.4284 26.5846C35.1585 23.2963 35.7132 19.5154 35.0005 15.8687C34.2878 12.2219 32.3506 8.92812 29.5097 6.53304C26.6689 4.13796 23.095 2.78538 19.3802 2.69941C19.3306 2.6978 19.2811 2.70621 19.2347 2.72415C19.1884 2.74208 19.1461 2.76917 19.1104 2.8038C19.0748 2.83842 19.0465 2.87988 19.0272 2.92568C19.0079 2.97149 18.9981 3.02071 18.9982 3.07041V10.1704" stroke="#434343" stroke-width="3" stroke-linecap="round" stroke-linejoin="round"/>
<path id="Path 51251" d="M17.0779 20.921L10.3709 11.328C10.2779 11.1951 10.2346 11.0337 10.2487 10.8721C10.2628 10.7105 10.3335 10.559 10.4482 10.4443C10.5629 10.3296 10.7144 10.2589 10.876 10.2448C11.0376 10.2307 11.199 10.2739 11.3319 10.367L20.9249 17.074C21.2247 17.2804 21.4807 17.5441 21.6782 17.8499C21.8756 18.1557 22.0106 18.4976 22.0753 18.8558C22.14 19.214 22.1333 19.5814 22.0553 19.937C21.9774 20.2926 21.8299 20.6292 21.6213 20.9275C21.4128 21.2258 21.1472 21.4799 20.84 21.6751C20.5328 21.8703 20.19 22.0028 19.8313 22.065C19.4726 22.1271 19.1052 22.1177 18.7502 22.0372C18.3953 21.9567 18.0597 21.8068 17.7629 21.596C17.4977 21.4122 17.266 21.1842 17.0779 20.922V20.921Z" fill="#FDC736"/>
</g>
</g>
</svg>
