<svg width="38" height="39" viewBox="0 0 38 39" fill="none" xmlns="http://www.w3.org/2000/svg">
<g id="Group 14454">
<g id="shield-security">
<path id="Path 16192" d="M19.4332 4.05859L32.1632 9.75859V18.2446C32.1759 22.141 30.893 25.931 28.5162 29.0186C26.3265 32.104 23.1043 34.3034 19.4332 35.2186C15.7621 34.3034 12.54 32.104 10.3502 29.0186C7.97388 25.9316 6.69097 22.1423 6.70321 18.2466V9.75859L19.4332 4.05859ZM29.3122 11.5506L19.4332 7.17459L9.55421 11.5506V19.6396H19.4332V32.3026C22.0827 31.4332 24.3985 29.7657 26.0632 27.5286C27.8504 25.247 28.9746 22.5171 29.3122 19.6386V11.5506Z" fill="#434343"/>
<path id="Path 54266" d="M19.4307 7.16797L29.2897 11.568L29.2817 19.631L19.4297 19.639L19.4307 7.16797Z" fill="#FDC736"/>
</g>
</g>
</svg>
