<svg width="31" height="35" viewBox="0 0 31 35" fill="none" xmlns="http://www.w3.org/2000/svg">
<g id="Group 28407">
<path id="Path 14675" fill-rule="evenodd" clip-rule="evenodd" d="M5.874 2.77094C5.41412 2.76764 4.9581 2.85501 4.532 3.02806C4.10591 3.2011 3.71809 3.45642 3.39072 3.77942C3.06335 4.10242 2.80285 4.48678 2.62411 4.91051C2.44536 5.33425 2.35188 5.78905 2.349 6.24894V23.3369C2.35201 23.7967 2.44556 24.2513 2.6243 24.6748C2.80304 25.0984 3.06347 25.4826 3.39072 25.8055C3.71797 26.1283 4.10562 26.3836 4.53154 26.5566C4.95745 26.7297 5.41329 26.8171 5.873 26.8139H7.048C8.60121 26.8106 10.0927 27.4217 11.197 28.5139L13.87 31.1559C14.2422 31.5187 14.7413 31.7216 15.261 31.7216C15.7807 31.7216 16.2798 31.5187 16.652 31.1559M16.652 31.1559L19.326 28.5139C19.8719 27.9718 20.5194 27.5427 21.2313 27.251C21.9432 26.9593 22.7056 26.8108 23.475 26.8139H24.665C25.5928 26.8182 26.4845 26.4547 27.145 25.8031C27.8054 25.1515 28.1808 24.2647 28.189 23.3369V6.24894C28.186 5.78922 28.0924 5.33461 27.9137 4.91105C27.735 4.4875 27.4745 4.10331 27.1473 3.78042C26.82 3.45754 26.4324 3.20229 26.0065 3.02925C25.5805 2.85621 25.1247 2.76878 24.665 2.77194H5.865M0 6.24894C0.00262027 5.48051 0.156686 4.72013 0.453388 4.01128C0.75009 3.30244 1.18361 2.65903 1.72915 2.11785C2.2747 1.57667 2.92157 1.14833 3.63277 0.857335C4.34398 0.566337 5.10557 0.418385 5.874 0.421938H24.674C25.4424 0.418385 26.204 0.566337 26.9152 0.857335C27.6264 1.14833 28.2733 1.57667 28.8188 2.11785C29.3644 2.65903 29.7979 3.30244 30.0946 4.01128C30.3913 4.72013 30.5454 5.48051 30.548 6.24894V23.3369C30.5398 24.888 29.9168 26.3724 28.8156 27.4648C27.7145 28.5571 26.2251 29.1682 24.674 29.1639H23.484C23.0223 29.1611 22.5645 29.2497 22.1372 29.4246C21.7098 29.5995 21.3213 29.8572 20.994 30.1829L18.316 32.8299C17.504 33.6268 16.4117 34.0733 15.274 34.0733C14.1363 34.0733 13.044 33.6268 12.232 32.8299L9.553 30.1819C8.88994 29.5271 7.99493 29.1608 7.063 29.1629H5.874C5.10566 29.1665 4.34415 29.0186 3.633 28.7276C2.92186 28.4367 2.27504 28.0085 1.72951 27.4674C1.18397 26.9263 0.750435 26.283 0.453675 25.5743C0.156914 24.8656 0.00275139 24.1053 0 23.3369V6.24894Z" fill="#434343"/>
<path id="Path 14676" fill-rule="evenodd" clip-rule="evenodd" d="M10.0866 11.3227C9.69679 11.3245 9.32345 11.4802 9.0478 11.7558C8.77214 12.0315 8.61647 12.4048 8.61462 12.7947C8.60571 13.1002 8.47806 13.3903 8.25877 13.6033C8.03948 13.8162 7.74582 13.9354 7.44012 13.9354C7.13443 13.9354 6.84077 13.8162 6.62148 13.6033C6.40219 13.3903 6.27454 13.1002 6.26563 12.7947C6.26562 12.2927 6.36448 11.7957 6.55656 11.332C6.74863 10.8683 7.03016 10.447 7.38506 10.0921C7.73997 9.73719 8.1613 9.45566 8.62501 9.26359C9.08872 9.07152 9.58571 8.97266 10.0876 8.97266C10.5895 8.97266 11.0865 9.07152 11.5502 9.26359C12.0139 9.45566 12.4353 9.73719 12.7902 10.0921C13.1451 10.447 13.4266 10.8683 13.6187 11.332C13.8108 11.7957 13.9096 12.2927 13.9096 12.7947C13.9096 14.9497 12.3096 16.0827 11.1926 16.8467L11.0346 16.9547C10.1943 17.4163 9.46842 18.0608 8.91062 18.8407H12.7346C13.0402 18.8496 13.3302 18.9772 13.5432 19.1965C13.7562 19.4158 13.8753 19.7095 13.8753 20.0152C13.8753 20.3209 13.7562 20.6145 13.5432 20.8338C13.3302 21.0531 13.0402 21.1807 12.7346 21.1897H8.53463C8.20585 21.1935 7.88079 21.1198 7.58584 20.9745C7.29088 20.8292 7.03432 20.6164 6.83698 20.3534C6.63963 20.0904 6.50706 19.7846 6.45001 19.4608C6.39296 19.137 6.41304 18.8043 6.50863 18.4897V18.4847C7.11894 17.043 8.19874 15.8501 9.57262 15.0997L9.85862 14.9057C11.0666 14.0767 11.5586 13.5797 11.5586 12.7907C11.5557 12.4015 11.3996 12.0292 11.1241 11.7544C10.8485 11.4796 10.4758 11.3245 10.0866 11.3227Z" fill="#FDC736"/>
<path id="Path 14677" fill-rule="evenodd" clip-rule="evenodd" d="M18.9161 9.93969C19.1587 9.55924 19.5174 9.26704 19.939 9.10638C20.3607 8.94572 20.8228 8.92514 21.2571 9.04769C21.6943 9.17118 22.079 9.43425 22.3527 9.79679C22.6264 10.1593 22.7741 10.6014 22.7731 11.0557V16.5687H23.1021C23.2592 16.5641 23.4157 16.5911 23.5622 16.648C23.7087 16.705 23.8423 16.7908 23.955 16.9003C24.0678 17.0098 24.1574 17.1408 24.2186 17.2856C24.2798 17.4304 24.3114 17.586 24.3114 17.7432C24.3114 17.9004 24.2798 18.056 24.2186 18.2007C24.1574 18.3455 24.0678 18.4766 23.955 18.5861C23.8423 18.6956 23.7087 18.7814 23.5622 18.8383C23.4157 18.8953 23.2592 18.9223 23.1021 18.9177H22.7731V19.9987C22.7777 20.1558 22.7507 20.3123 22.6937 20.4588C22.6368 20.6053 22.551 20.7388 22.4415 20.8516C22.332 20.9644 22.2009 21.054 22.0562 21.1152C21.9114 21.1764 21.7558 21.208 21.5986 21.208C21.4414 21.208 21.2858 21.1764 21.141 21.1152C20.9963 21.054 20.8652 20.9644 20.7557 20.8516C20.6462 20.7388 20.5604 20.6053 20.5035 20.4588C20.4465 20.3123 20.4195 20.1558 20.4241 19.9987V18.9187H17.3531C16.9732 18.9214 16.5993 18.8236 16.2694 18.6352C15.9395 18.4468 15.6653 18.1745 15.4746 17.8459C15.2839 17.5173 15.1835 17.1442 15.1836 16.7642C15.1837 16.3843 15.2843 16.0112 15.4751 15.6827V15.6777C16.5411 13.8597 17.7691 11.7777 18.9051 9.95069L18.9121 9.93969H18.9161ZM20.4241 16.5697V11.9697C19.5061 13.4697 18.5491 15.0877 17.6801 16.5697H20.4241Z" fill="#FDC736"/>
</g>
</svg>
