<svg width="32" height="35" viewBox="0 0 32 35" fill="none" xmlns="http://www.w3.org/2000/svg">
<g id="Group 28461">
<path id="Vector (Stroke)" fill-rule="evenodd" clip-rule="evenodd" d="M14.9445 3.13965C15.2901 2.95345 15.7099 2.95345 16.0555 3.13965L21.4085 6.02338C21.7735 6.22001 22 6.594 22 7C22 7.406 21.7735 7.77999 21.4085 7.97662L16.0555 10.8603C15.7099 11.0466 15.2901 11.0466 14.9445 10.8603L9.59152 7.97662C9.22652 7.77999 9 7.406 9 7C9 6.594 9.22652 6.22001 9.59152 6.02338L14.9445 3.13965Z" fill="#FDC736"/>
<path id="Vector (Stroke)_2" fill-rule="evenodd" clip-rule="evenodd" d="M0.579602 17C0.945359 16.2567 0.998826 15.2888 1.74214 15.6545L8.08105 20.4449C8.59393 20.6972 9.57988 19.8733 9.57988 20.4449V28.6254C9.57988 29.1565 9.29906 29.648 8.84155 29.9176C8.38404 30.1873 7.81804 30.195 7.3534 29.9378L0.353404 26.0628C-0.371382 25.6615 0.179834 24.7248 0.581055 24C0.982275 23.2752 -0.306193 17.9451 0.418592 18.3463L2.57954 19.4101L6.57988 21.3785L0.418592 18.3463C0.418592 18.3463 0.213845 17.7433 0.579602 17Z" fill="#FDC736"/>
<path id="Vector (Stroke)_3" fill-rule="evenodd" clip-rule="evenodd" d="M30.0811 16.9999C30.4468 17.7433 31.3244 18.1342 30.5811 18.5L29.3546 23.4382C29.5818 23.0005 30.5811 18.5 30.5811 18.5C30.9823 19.2248 31.3058 25.5988 30.5811 26L23.8075 29.9379C23.3429 30.1951 22.7769 30.1874 22.3194 29.9178C21.8619 29.6481 21.5811 29.1566 21.5811 28.6255V20.445C21.5811 19.8734 22.0682 19.7524 22.5811 19.5L29.0811 16.4998C29.8244 16.134 29.7153 16.2566 30.0811 16.9999Z" fill="#FDC736"/>
<path id="Vector" d="M29.5811 9.75V25.25L22.5811 29.125M29.5811 9.75L22.5811 5.875M29.5811 9.75L15.5811 17.5M22.5811 29.125L15.5811 33M22.5811 29.125V20.9444L29.5811 17.5M15.5811 33L8.58105 29.125M15.5811 33V17.5M8.58105 29.125L1.58105 25.25V9.75M8.58105 29.125V20.9444L1.58105 17.5M1.58105 9.75L8.58105 5.875M1.58105 9.75L15.5811 17.5M8.58105 5.875L15.5811 2L22.5811 5.875M8.58105 5.875L15.5811 9.75L22.5811 5.875" stroke="black" stroke-width="3" stroke-linecap="round" stroke-linejoin="round"/>
</g>
</svg>
