<svg width="31" height="35" viewBox="0 0 31 35" fill="none" xmlns="http://www.w3.org/2000/svg">
<g id="Group 28455">
<path id="Vector (Stroke)" fill-rule="evenodd" clip-rule="evenodd" d="M6.20797 2.41353C8.76283 1.48967 12.1237 1 15.5537 1C18.9837 1 22.3446 1.48967 24.8995 2.41353C26.1745 2.87458 27.2803 3.45484 28.0949 4.16594C28.9089 4.87655 29.5537 5.83457 29.5537 7C29.5537 8.16543 28.9089 9.12345 28.0949 9.83406C27.2803 10.5452 26.1745 11.1254 24.8995 11.5865C22.3446 12.5103 18.9837 13 15.5537 13C12.1237 13 8.76283 12.5103 6.20797 11.5865C4.93296 11.1254 3.82709 10.5452 3.01254 9.83406C2.19855 9.12345 1.55371 8.16543 1.55371 7C1.55371 5.83457 2.19855 4.87655 3.01254 4.16594C3.82709 3.45484 4.93296 2.87458 6.20797 2.41353Z" fill="#FDC736"/>
<path id="Vector (Stroke)_2" fill-rule="evenodd" clip-rule="evenodd" d="M6.20792 22.4441C6.20792 22.4441 12.1237 24.2659 15.5537 24.2659C18.9837 24.2659 24.8994 22.4441 24.8994 22.4441C26.1744 22.9232 28.0169 20.2052 28.8315 20.9441C29.6455 21.6825 29.5537 25.9988 29.5537 27.2097C29.5537 28.4207 28.9088 29.4161 28.0948 30.1545C27.2803 30.8934 26.1744 31.4963 24.8994 31.9754C22.3445 32.9353 18.9837 33.4441 15.5537 33.4441C12.1237 33.4441 8.76278 32.9353 6.20792 31.9754C4.93291 31.4963 3.82704 30.8934 3.01249 30.1545C2.1985 29.4161 1.55366 28.4207 1.55366 27.2097C1.55366 25.9988 0.493372 21.6827 1.30736 20.9443C2.12191 20.2055 4.93291 22.9232 6.20792 22.4441Z" fill="#FDC736"/>
<path id="Vector" d="M1.33154 7.22249C1.33154 8.63698 2.82995 9.99354 5.49714 10.9937C8.16432 11.9939 11.7818 12.5558 15.5538 12.5558C19.3257 12.5558 22.9432 11.9939 25.6104 10.9937C28.2776 9.99354 29.776 8.63698 29.776 7.22249M1.33154 7.22249C1.33154 5.80801 2.82995 4.45145 5.49714 3.45126C8.16432 2.45106 11.7818 1.88916 15.5538 1.88916C19.3257 1.88916 22.9432 2.45106 25.6104 3.45126C28.2776 4.45145 29.776 5.80801 29.776 7.22249M1.33154 7.22249V17.8892M29.776 7.22249V17.8892M1.33154 17.8892C1.33154 19.3036 2.82995 20.6602 5.49714 21.6604C8.16432 22.6606 11.7818 23.2225 15.5538 23.2225C19.3257 23.2225 22.9432 22.6606 25.6104 21.6604C28.2776 20.6602 29.776 19.3036 29.776 17.8892M1.33154 17.8892V28.5558C1.33154 29.9703 2.82995 31.3269 5.49714 32.3271C8.16432 33.3273 11.7818 33.8892 15.5538 33.8892C19.3257 33.8892 22.9432 33.3273 25.6104 32.3271C28.2776 31.3269 29.776 29.9703 29.776 28.5558V17.8892" stroke="#434343" stroke-width="2" stroke-linecap="round" stroke-linejoin="round"/>
</g>
</svg>
