<svg width="31" height="34" viewBox="0 0 31 34" fill="none" xmlns="http://www.w3.org/2000/svg">
<path fill-rule="evenodd" clip-rule="evenodd" d="M5.874 2.52094C5.41412 2.51764 4.9581 2.60501 4.532 2.77806C4.10591 2.9511 3.71809 3.20642 3.39072 3.52942C3.06335 3.85242 2.80285 4.23678 2.62411 4.66051C2.44536 5.08425 2.35188 5.53905 2.349 5.99894V23.0869C2.35201 23.5467 2.44556 24.0013 2.6243 24.4248C2.80304 24.8484 3.06347 25.2326 3.39072 25.5555C3.71797 25.8783 4.10562 26.1336 4.53154 26.3066C4.95745 26.4797 5.41329 26.5671 5.873 26.5639H7.048C8.60121 26.5606 10.0927 27.1717 11.197 28.2639L13.87 30.9059C14.2422 31.2687 14.7413 31.4716 15.261 31.4716C15.7807 31.4716 16.2798 31.2687 16.652 30.9059M16.652 30.9059L19.326 28.2639C19.8719 27.7218 20.5194 27.2927 21.2313 27.001C21.9432 26.7093 22.7056 26.5608 23.475 26.5639H24.665C25.5928 26.5682 26.4845 26.2047 27.145 25.5531C27.8054 24.9015 28.1808 24.0147 28.189 23.0869V5.99894C28.186 5.53922 28.0924 5.08461 27.9137 4.66105C27.735 4.2375 27.4745 3.85331 27.1473 3.53042C26.82 3.20754 26.4324 2.95229 26.0065 2.77925C25.5805 2.60621 25.1247 2.51878 24.665 2.52194H5.865M0 5.99894C0.00262027 5.23051 0.156686 4.47013 0.453388 3.76128C0.75009 3.05244 1.18361 2.40903 1.72915 1.86785C2.2747 1.32667 2.92157 0.898333 3.63277 0.607335C4.34398 0.316337 5.10557 0.168385 5.874 0.171938H24.674C25.4424 0.168385 26.204 0.316337 26.9152 0.607335C27.6264 0.898333 28.2733 1.32667 28.8188 1.86785C29.3644 2.40903 29.7979 3.05244 30.0946 3.76128C30.3913 4.47013 30.5454 5.23051 30.548 5.99894V23.0869C30.5398 24.638 29.9168 26.1224 28.8156 27.2148C27.7145 28.3071 26.2251 28.9182 24.674 28.9139H23.484C23.0223 28.9111 22.5645 28.9997 22.1372 29.1746C21.7098 29.3495 21.3213 29.6072 20.994 29.9329L18.316 32.5799C17.504 33.3768 16.4117 33.8233 15.274 33.8233C14.1363 33.8233 13.044 33.3768 12.232 32.5799L9.553 29.9319C8.88994 29.2771 7.99493 28.9108 7.063 28.9129H5.874C5.10566 28.9165 4.34415 28.7686 3.633 28.4776C2.92186 28.1867 2.27504 27.7585 1.72951 27.2174C1.18397 26.6763 0.750435 26.033 0.453675 25.3243C0.156914 24.6156 0.00275139 23.8553 0 23.0869V5.99894Z" fill="#434343"/>
<path fill-rule="evenodd" clip-rule="evenodd" d="M10.0866 11.0727C9.69679 11.0745 9.32345 11.2302 9.0478 11.5058C8.77214 11.7815 8.61647 12.1548 8.61462 12.5447C8.60571 12.8502 8.47806 13.1403 8.25877 13.3533C8.03948 13.5662 7.74582 13.6854 7.44012 13.6854C7.13443 13.6854 6.84077 13.5662 6.62148 13.3533C6.40219 13.1403 6.27454 12.8502 6.26563 12.5447C6.26562 12.0427 6.36448 11.5457 6.55656 11.082C6.74863 10.6183 7.03016 10.197 7.38506 9.84209C7.73997 9.48719 8.1613 9.20566 8.62501 9.01359C9.08872 8.82152 9.58571 8.72266 10.0876 8.72266C10.5895 8.72266 11.0865 8.82152 11.5502 9.01359C12.0139 9.20566 12.4353 9.48719 12.7902 9.84209C13.1451 10.197 13.4266 10.6183 13.6187 11.082C13.8108 11.5457 13.9096 12.0427 13.9096 12.5447C13.9096 14.6997 12.3096 15.8327 11.1926 16.5967L11.0346 16.7047C10.1943 17.1663 9.46842 17.8108 8.91062 18.5907H12.7346C13.0402 18.5996 13.3302 18.7272 13.5432 18.9465C13.7562 19.1658 13.8753 19.4595 13.8753 19.7652C13.8753 20.0709 13.7562 20.3645 13.5432 20.5838C13.3302 20.8031 13.0402 20.9307 12.7346 20.9397H8.53463C8.20585 20.9435 7.88079 20.8698 7.58584 20.7245C7.29088 20.5792 7.03432 20.3664 6.83698 20.1034C6.63963 19.8404 6.50706 19.5346 6.45001 19.2108C6.39296 18.887 6.41304 18.5543 6.50863 18.2397V18.2347C7.11894 16.793 8.19874 15.6001 9.57262 14.8497L9.85862 14.6557C11.0666 13.8267 11.5586 13.3297 11.5586 12.5407C11.5557 12.1515 11.3996 11.7792 11.1241 11.5044C10.8485 11.2296 10.4758 11.0745 10.0866 11.0727Z" fill="#FDC736"/>
<path fill-rule="evenodd" clip-rule="evenodd" d="M18.9161 9.68969C19.1587 9.30924 19.5174 9.01704 19.939 8.85638C20.3607 8.69572 20.8228 8.67514 21.2571 8.79769C21.6943 8.92118 22.079 9.18425 22.3527 9.54679C22.6264 9.90932 22.7741 10.3514 22.7731 10.8057V16.3187H23.1021C23.2592 16.3141 23.4157 16.3411 23.5622 16.398C23.7087 16.455 23.8423 16.5408 23.955 16.6503C24.0678 16.7598 24.1574 16.8908 24.2186 17.0356C24.2798 17.1804 24.3114 17.336 24.3114 17.4932C24.3114 17.6504 24.2798 17.806 24.2186 17.9507C24.1574 18.0955 24.0678 18.2266 23.955 18.3361C23.8423 18.4456 23.7087 18.5314 23.5622 18.5883C23.4157 18.6453 23.2592 18.6723 23.1021 18.6677H22.7731V19.7487C22.7777 19.9058 22.7507 20.0623 22.6937 20.2088C22.6368 20.3553 22.551 20.4888 22.4415 20.6016C22.332 20.7144 22.2009 20.804 22.0562 20.8652C21.9114 20.9264 21.7558 20.958 21.5986 20.958C21.4414 20.958 21.2858 20.9264 21.141 20.8652C20.9963 20.804 20.8652 20.7144 20.7557 20.6016C20.6462 20.4888 20.5604 20.3553 20.5035 20.2088C20.4465 20.0623 20.4195 19.9058 20.4241 19.7487V18.6687H17.3531C16.9732 18.6714 16.5993 18.5736 16.2694 18.3852C15.9395 18.1968 15.6653 17.9245 15.4746 17.5959C15.2839 17.2673 15.1835 16.8942 15.1836 16.5142C15.1837 16.1343 15.2843 15.7612 15.4751 15.4327V15.4277C16.5411 13.6097 17.7691 11.5277 18.9051 9.70069L18.9121 9.68969H18.9161ZM20.4241 16.3197V11.7197C19.5061 13.2197 18.5491 14.8377 17.6801 16.3197H20.4241Z" fill="#FDC736"/>
</svg>
