<svg width="20" height="19" viewBox="0 0 20 19" fill="none" xmlns="http://www.w3.org/2000/svg">
<g id="icons8-twitterx 1">
<path id="Vector (Stroke)" fill-rule="evenodd" clip-rule="evenodd" d="M4.85702 3.2452C4.06137 3.2452 3.29831 3.56127 2.7357 4.12388C2.17309 4.68649 1.85702 5.44955 1.85702 6.2452V13.1023C1.85702 13.898 2.17309 14.6611 2.7357 15.2237C3.29831 15.7863 4.06137 16.1023 4.85702 16.1023H15.1427C15.9384 16.1023 16.7014 15.7863 17.2641 15.2237C17.8267 14.6611 18.1427 13.898 18.1427 13.1023V6.2452C18.1427 5.44956 17.8267 4.68649 17.2641 4.12388C16.7014 3.56127 15.9384 3.2452 15.1427 3.2452H4.85702ZM2.12961 3.51779C2.85296 2.79444 3.83404 2.38806 4.85702 2.38806H15.1427C16.1657 2.38806 17.1468 2.79444 17.8701 3.51779C18.5935 4.24115 18.9999 5.22223 18.9999 6.2452V13.1023C18.9999 14.1253 18.5935 15.1064 17.8701 15.8298C17.1468 16.5531 16.1657 16.9595 15.1427 16.9595H4.85702C3.83404 16.9595 2.85296 16.5531 2.12961 15.8298C1.40625 15.1064 0.999878 14.1253 0.999878 13.1023V6.2452C0.999878 5.22223 1.40625 4.24115 2.12961 3.51779ZM8.07444 6.7294C8.2088 6.65333 8.37369 6.65541 8.50609 6.73485L12.7918 9.30628C12.9209 9.38373 12.9999 9.52323 12.9999 9.67378C12.9999 9.82432 12.9209 9.96382 12.7918 10.0413L8.50609 12.6127C8.37369 12.6921 8.2088 12.6942 8.07444 12.6181C7.94007 12.5421 7.85702 12.3996 7.85702 12.2452V7.10235C7.85702 6.94794 7.94007 6.80548 8.07444 6.7294Z" fill="white"/>
</g>
</svg>
