<svg width="19" height="15" viewBox="0 0 19 15" fill="none" xmlns="http://www.w3.org/2000/svg">
<path fill-rule="evenodd" clip-rule="evenodd" d="M3.95675 1.17111C3.1611 1.17111 2.39804 1.48718 1.83543 2.04979C1.27282 2.6124 0.956752 3.37546 0.956752 4.17111V11.0283C0.956752 11.8239 1.27282 12.587 1.83543 13.1496C2.39804 13.7122 3.1611 14.0283 3.95675 14.0283H14.2425C15.0381 14.0283 15.8012 13.7122 16.3638 13.1496C16.9264 12.587 17.2425 11.8239 17.2425 11.0283V4.17111C17.2425 3.37546 16.9264 2.6124 16.3638 2.04979C15.8012 1.48718 15.0381 1.17111 14.2425 1.17111H3.95675ZM1.22934 1.4437C1.9527 0.720341 2.93377 0.313965 3.95675 0.313965H14.2425C15.2654 0.313965 16.2465 0.720341 16.9699 1.4437C17.6932 2.16705 18.0996 3.14813 18.0996 4.17111V11.0283C18.0996 12.0512 17.6932 13.0323 16.9699 13.7557C16.2465 14.479 15.2654 14.8854 14.2425 14.8854H3.95675C2.93377 14.8854 1.95269 14.479 1.22934 13.7557C0.505986 13.0323 0.0996094 12.0512 0.0996094 11.0283V4.17111C0.0996094 3.14813 0.505986 2.16705 1.22934 1.4437ZM7.17417 4.65531C7.30853 4.57923 7.47342 4.58131 7.60582 4.66075L11.8915 7.23218C12.0206 7.30963 12.0996 7.44914 12.0996 7.59968C12.0996 7.75022 12.0206 7.88972 11.8915 7.96718L7.60582 10.5386C7.47342 10.618 7.30853 10.6201 7.17417 10.5441C7.03981 10.468 6.95675 10.3255 6.95675 10.1711V5.02825C6.95675 4.87385 7.03981 4.73138 7.17417 4.65531Z" fill="white"/>
</svg>
