<svg width="38" height="38" viewBox="0 0 38 38" fill="none" xmlns="http://www.w3.org/2000/svg">
<g clip-path="url(#clip0_661_793)">
<path d="M7.15492 8.43319C4.67867 11.2036 3.22328 14.7368 3.02991 18.4476C2.83654 22.1583 3.91679 25.8237 6.09166 28.8364C8.26654 31.8492 11.4055 34.0284 14.9884 35.0131C18.5713 35.9978 22.3831 35.7287 25.7922 34.2505C29.2012 32.7724 32.003 30.1738 33.7331 26.8854C35.4632 23.597 36.0179 19.8162 35.3052 16.1695C34.5925 12.5227 32.6552 9.2289 29.8144 6.83382C26.9736 4.43874 23.3997 3.08616 19.6849 3.00019C19.6352 2.99858 19.5858 3.00699 19.5394 3.02493C19.4931 3.04286 19.4508 3.06995 19.4151 3.10458C19.3795 3.1392 19.3512 3.18066 19.3319 3.22646C19.3126 3.27227 19.3028 3.32149 19.3029 3.37119V10.4712" stroke="#464646" stroke-width="3" stroke-linecap="round" stroke-linejoin="round"/>
<path d="M17.3826 21.2218L10.6756 11.6288C10.5825 11.4959 10.5393 11.3345 10.5534 11.1729C10.5675 11.0113 10.6382 10.8598 10.7529 10.7451C10.8676 10.6304 11.0191 10.5597 11.1807 10.5456C11.3423 10.5315 11.5037 10.5747 11.6366 10.6678L21.2296 17.3748C21.5294 17.5812 21.7854 17.8449 21.9828 18.1507C22.1803 18.4565 22.3153 18.7984 22.38 19.1566C22.4447 19.5148 22.4379 19.8822 22.36 20.2378C22.2821 20.5933 22.1346 20.93 21.926 21.2283C21.7174 21.5266 21.4519 21.7807 21.1447 21.9759C20.8375 22.1711 20.4946 22.3036 20.136 22.3657C19.7773 22.4279 19.4099 22.4184 19.0549 22.338C18.6999 22.2575 18.3644 22.1075 18.0676 21.8968C17.8024 21.713 17.5707 21.485 17.3826 21.2228V21.2218Z" fill="#FAB737"/>
</g>
<defs>
<clipPath id="clip0_661_793">
<rect width="38" height="38" fill="white"/>
</clipPath>
</defs>
</svg>
