<svg width="45" height="45" viewBox="0 0 45 45" fill="none" xmlns="http://www.w3.org/2000/svg">
<path d="M17.6437 37.5H12.1875C9.375 37.5 6.9 36.5625 4.89375 34.5563C2.8875 32.5875 1.875 30.1688 1.875 27.3375C1.875 24.9 2.60625 22.725 4.06875 20.8125C5.49525 18.9431 7.54383 17.6461 9.84375 17.1562C10.6313 14.2875 12.1875 11.9625 14.5312 10.1812C16.875 8.4375 19.5375 7.5 22.5 7.5C26.1562 7.5 29.2687 8.775 31.8 11.325C34.35 13.8562 35.625 16.9688 35.625 20.625C37.7812 20.8687 39.5813 21.8062 40.9875 23.4375C42.1875 24.8062 42.8625 26.3625 43.05 28.125H39.3C39.1125 27.1875 38.7 26.4187 38.0063 25.7437C37.1063 24.825 36 24.375 34.6875 24.375H31.875V20.625C31.875 18.0375 30.9375 15.825 29.1375 13.9875C27.3188 12.1875 25.1063 11.25 22.5 11.25C19.9125 11.25 17.7 12.1875 15.8625 13.9875C14.0625 15.825 13.125 18.0375 13.125 20.625H12.1875C10.3687 20.625 8.83125 21.2625 7.55625 22.5562C6.2625 23.8312 5.625 25.3687 5.625 27.1875C5.625 29.0063 6.2625 30.5625 7.55625 31.875C8.83125 33.1313 10.3687 33.75 12.1875 33.75H16.875C16.875 35.1 17.1562 36.3563 17.6437 37.5ZM43.125 31.875V35.625H39.375V39.375H35.625V35.625H31.5C30.75 37.875 28.6875 39.375 26.25 39.375C23.0625 39.375 20.625 36.9375 20.625 33.75C20.625 30.5625 23.0625 28.125 26.25 28.125C28.6875 28.125 30.75 29.625 31.5 31.875H43.125ZM28.125 33.75C28.125 32.8125 27.375 31.875 26.25 31.875C25.125 31.875 24.375 32.8125 24.375 33.75C24.375 34.6875 25.125 35.625 26.25 35.625C27.375 35.625 28.125 34.6875 28.125 33.75Z" fill="#2A2A2A"/>
</svg>
