<svg width="35" height="35" viewBox="0 0 35 35" fill="none" xmlns="http://www.w3.org/2000/svg">
<path d="M4.375 6.22708L6.24167 4.375L30.625 28.7583L28.7729 30.625L23.4208 25.2729C22.5167 26.25 21.2042 27.0521 19.6875 27.4458V30.625H15.3125V27.4458C12.3521 26.7021 10.2083 24.4854 10.2083 21.875H13.125C13.125 23.45 15.1229 24.7917 17.5 24.7917C19.1479 24.7917 20.6208 24.15 21.3646 23.2167L17.0333 18.8854C13.9708 18.1125 10.2083 17.1354 10.2083 13.125C10.2083 12.7896 10.2083 12.4688 10.3104 12.1625L4.375 6.22708ZM15.3125 7.55417V4.375H19.6875V7.55417C22.6479 8.29792 24.7917 10.5146 24.7917 13.125H21.875C21.875 11.55 19.8771 10.2083 17.5 10.2083C16.9604 10.2083 16.45 10.2813 15.9688 10.3979L13.7083 8.1375L15.3125 7.55417Z" fill="#2A2A2A"/>
</svg>
