<svg width="30" height="30" viewBox="0 0 30 30" fill="none" xmlns="http://www.w3.org/2000/svg">
<g clip-path="url(#clip0_612_12697)">
<path d="M29.0624 26.2313L27.1999 23.4375V16.875C27.1999 14.375 22.4499 11.7 20.6374 10.3125M23.0499 18.4913L18.4899 14.8375C18.1844 14.532 17.77 14.3604 17.338 14.3604C16.9059 14.3604 16.4916 14.532 16.1861 14.8375C15.8806 15.143 15.709 15.5573 15.709 15.9894C15.709 16.4214 15.8806 16.8358 16.1861 17.1413L20.6024 22.125V25.25C20.6024 26.7263 22.7124 29.0563 22.7124 29.0563" stroke="#2A2A2A" stroke-width="2.5" stroke-linecap="round" stroke-linejoin="round"/>
<path d="M16.8877 27.1875H2.6677C2.21207 27.1872 1.77522 27.0059 1.45316 26.6836C1.13111 26.3614 0.950195 25.9244 0.950195 25.4688V2.655C0.950195 2.19949 1.13115 1.76264 1.45324 1.44054C1.77533 1.11845 2.21219 0.9375 2.6677 0.9375H18.9177C19.1434 0.937336 19.3669 0.98163 19.5755 1.06785C19.7841 1.15408 19.9737 1.28054 20.1334 1.44003C20.2931 1.59951 20.4199 1.78889 20.5064 1.99736C20.5929 2.20582 20.6375 2.42929 20.6377 2.655V16.5587" stroke="#2A2A2A" stroke-width="2.5" stroke-linecap="round" stroke-linejoin="round"/>
<path d="M12.2002 4.6875H15.9502M15.9502 4.6875V8.4375M15.9502 4.6875L4.7002 15M6.5627 19.6875V23.4375M10.3127 16.875V23.4375" stroke="#2A2A2A" stroke-width="2.5" stroke-linecap="round" stroke-linejoin="round"/>
</g>
<defs>
<clipPath id="clip0_612_12697">
<rect width="30" height="30" fill="white"/>
</clipPath>
</defs>
</svg>
