<svg width="35" height="35" viewBox="0 0 35 35" fill="none" xmlns="http://www.w3.org/2000/svg">
<path d="M23.3332 17.4994C24.4936 17.4994 25.6064 17.9603 26.4268 18.7808C27.2473 19.6012 27.7082 20.714 27.7082 21.8744V30.6244C27.7082 31.0111 27.5546 31.3821 27.2811 31.6556C27.0076 31.9291 26.6367 32.0827 26.2499 32.0827C25.8631 32.0827 25.4922 31.9291 25.2187 31.6556C24.9452 31.3821 24.7916 31.0111 24.7916 30.6244V21.8744C24.7916 21.4876 24.6379 21.1167 24.3644 20.8432C24.0909 20.5697 23.72 20.416 23.3332 20.416H11.6666C11.2798 20.416 10.9089 20.5697 10.6354 20.8432C10.3619 21.1167 10.2082 21.4876 10.2082 21.8744V30.6244C10.2082 31.0111 10.0546 31.3821 9.7811 31.6556C9.50761 31.9291 9.13668 32.0827 8.7499 32.0827C8.36313 32.0827 7.9922 31.9291 7.7187 31.6556C7.44521 31.3821 7.29157 31.0111 7.29157 30.6244V21.8744C7.29157 20.714 7.7525 19.6012 8.57298 18.7808C9.39345 17.9603 10.5062 17.4994 11.6666 17.4994H23.3332ZM20.4166 23.3327C20.7883 23.3331 21.1458 23.4754 21.4161 23.7306C21.6863 23.9858 21.849 24.3345 21.8708 24.7056C21.8926 25.0766 21.7718 25.442 21.5333 25.727C21.2947 26.0121 20.9563 26.1953 20.5872 26.2392L20.4166 26.2494H14.5832C14.2115 26.249 13.854 26.1066 13.5837 25.8515C13.3135 25.5963 13.1508 25.2476 13.129 24.8765C13.1072 24.5054 13.228 24.1401 13.4665 23.855C13.7051 23.57 14.0435 23.3868 14.4126 23.3429L14.5832 23.3327H20.4166ZM17.4999 11.666C19.0457 11.666 20.4851 12.1487 21.6664 12.9727C21.9837 13.1939 22.2002 13.5322 22.2681 13.913C22.3361 14.2938 22.25 14.6861 22.0288 15.0034C21.8075 15.3208 21.4693 15.5372 21.0884 15.6052C20.7076 15.6732 20.3154 15.5871 19.998 15.3658C19.2648 14.8559 18.393 14.5826 17.4999 14.5827C16.568 14.5827 15.7091 14.8714 15.0018 15.3658C14.8449 15.48 14.6669 15.5618 14.4781 15.6064C14.2892 15.6509 14.0934 15.6573 13.9021 15.6253C13.7107 15.5932 13.5277 15.5232 13.3637 15.4195C13.1998 15.3158 13.0581 15.1805 12.9471 15.0213C12.8361 14.8622 12.758 14.6825 12.7173 14.4928C12.6766 14.3031 12.6742 14.1072 12.7102 13.9166C12.7461 13.7259 12.8198 13.5444 12.9268 13.3826C13.0339 13.2207 13.1721 13.0819 13.3334 12.9742C14.556 12.1227 16.0101 11.6662 17.4999 11.666ZM17.4999 7.29103C20.297 7.29103 22.868 8.27687 24.8791 9.92041C25.0306 10.0405 25.1568 10.1896 25.2502 10.3589C25.3436 10.5283 25.4024 10.7145 25.4232 10.9068C25.4439 11.0991 25.4262 11.2935 25.3711 11.4789C25.316 11.6643 25.2246 11.8368 25.1021 11.9865C24.9797 12.1362 24.8287 12.2601 24.658 12.3509C24.4872 12.4417 24.3001 12.4976 24.1075 12.5154C23.915 12.5333 23.7208 12.5126 23.5363 12.4546C23.3518 12.3967 23.1806 12.3026 23.0328 12.1779C21.4724 10.9001 19.5167 10.2037 17.4999 10.2077C15.3999 10.2077 13.4778 10.9456 11.9699 12.1764C11.8218 12.2998 11.6508 12.3925 11.4667 12.4494C11.2825 12.5062 11.089 12.526 10.8972 12.5075C10.7053 12.4891 10.5191 12.4329 10.3491 12.342C10.1792 12.2512 10.0289 12.1276 9.90705 11.9783C9.78516 11.8291 9.69407 11.6571 9.63902 11.4725C9.58397 11.2878 9.56607 11.0941 9.58635 10.9024C9.60662 10.7108 9.66467 10.5251 9.75715 10.356C9.84962 10.187 9.97469 10.0379 10.1251 9.91749C12.2057 8.21556 14.8119 7.2874 17.4999 7.29103ZM17.4999 2.91603C21.3634 2.91054 25.0981 4.30465 28.013 6.84041C28.2975 7.09605 28.4701 7.4532 28.4937 7.83491C28.5174 8.21661 28.3901 8.59233 28.1394 8.88111C27.8887 9.1699 27.5345 9.34863 27.1533 9.37882C26.772 9.409 26.3942 9.28822 26.1012 9.04249C23.7167 6.96742 20.6608 5.82705 17.4999 5.8327C14.337 5.82663 11.2794 6.96932 8.89573 9.04832C8.60372 9.30205 8.22287 9.42938 7.83698 9.4023C7.45108 9.37523 7.09175 9.19596 6.83803 8.90395C6.5843 8.61193 6.45697 8.23109 6.48405 7.84519C6.51112 7.4593 6.69039 7.09996 6.9824 6.84624C9.89759 4.30739 13.6341 2.9111 17.4999 2.91603Z" fill="#2A2A2A"/>
</svg>
