<svg xmlns="http://www.w3.org/2000/svg" width="30" height="30" viewBox="0 0 30 30">
  <g id="Group_27075" data-name="Group 27075" transform="translate(-17 -2668)">
    <rect id="Rectangle_17928" data-name="Rectangle 17928" width="30" height="30" transform="translate(17 2668)" fill="none"/>
    <g id="smarty" transform="translate(19.787 2670.501)">
      <path id="Path_51635" data-name="Path 51635" d="M24.426,14.741a6.182,6.182,0,0,0-4.7,2.457,10.044,10.044,0,0,0-1.407,5.7,9.649,9.649,0,0,0-3.292-1.741.768.768,0,0,1-.525.215H9.923a.768.768,0,0,1-.525-.215A9.649,9.649,0,0,0,6.106,22.9,10.044,10.044,0,0,0,4.7,17.2,6.182,6.182,0,0,0,0,14.741Q5.606,10.615,2.409,4.532,9.279,6.178,12.213,0q2.934,6.178,9.8,4.532Q18.82,10.615,24.426,14.741ZM12.213,6.106A5.689,5.689,0,0,0,7.9,8.027a6.532,6.532,0,0,0-1.789,4.616,3.464,3.464,0,0,0,.072.7q.072.346.143.584A2.591,2.591,0,0,0,6.6,14.5q.2.334.3.477t.37.537q.274.394.37.513a15.52,15.52,0,0,0,1.4,1.36A8.893,8.893,0,0,1,10.3,18.7a1.906,1.906,0,0,1,.382,1.145H13.74a1.868,1.868,0,0,1,.394-1.145,9.809,9.809,0,0,1,1.276-1.312,16.265,16.265,0,0,0,1.383-1.36q.1-.119.37-.513t.37-.537q.1-.143.3-.477a2.591,2.591,0,0,0,.274-.572q.072-.239.143-.584a3.464,3.464,0,0,0,.072-.7A6.532,6.532,0,0,0,16.53,8.027,5.689,5.689,0,0,0,12.213,6.106ZM9.923,21.373H14.5a.763.763,0,0,1,0,1.527,1.325,1.325,0,0,1-.549,1.109,2.893,2.893,0,0,1-1.741.417,2.893,2.893,0,0,1-1.741-.417A1.325,1.325,0,0,1,9.923,22.9a.763.763,0,0,1,0-1.527Z" fill="none" stroke="#434343" stroke-width="1"/>
    </g>
    <path id="Path_51636" data-name="Path 51636" d="M-9.741-26.906h.549v-.962c1.2-.076,1.917-.787,1.917-1.68,0-1.031-.7-1.413-1.917-1.6V-32.71a.913.913,0,0,1,.844.81h.967a1.723,1.723,0,0,0-1.81-1.55v-.695h-.549v.687c-1.114.069-1.843.7-1.843,1.55,0,.97.631,1.382,1.843,1.573v1.718a1.012,1.012,0,0,1-1.024-1.008h-1.016c.082.924.639,1.665,2.04,1.756Zm1.458-2.551c0,.451-.36.771-.909.84v-1.634C-8.48-30.106-8.283-29.892-8.283-29.457Zm-2.334-2.535c0-.382.311-.68.876-.741v1.5C-10.462-31.366-10.618-31.6-10.618-31.992Z" transform="translate(41.529 2713.527)" fill="#434343"/>
  </g>
</svg>
