<svg width="70" height="68" viewBox="0 0 70 68" fill="none" xmlns="http://www.w3.org/2000/svg">
<rect width="70" height="68" rx="9" fill="#E2FFE0"/>
<path d="M53.2812 44.6562H51.875V30.5347C51.875 28.2411 50.0089 26.375 47.7153 26.375H44.6145C44.7495 25.4483 44.8438 24.5131 44.8438 23.5625C44.8438 22.9564 44.457 22.4192 43.8819 22.2294L40.5505 21.1184C40.5842 20.9989 40.625 20.8808 40.625 20.75V17.9375C40.625 14.8353 38.1022 12.3125 35 12.3125C31.8978 12.3125 29.375 14.8353 29.375 17.9375V20.75C29.375 20.8808 29.4158 20.9989 29.4495 21.1184L26.1181 22.2294C25.543 22.4206 25.1562 22.9564 25.1562 23.5625C25.1562 24.5131 25.2505 25.4483 25.3841 26.375H22.2847C19.9911 26.375 18.125 28.2411 18.125 30.5347V44.6562H16.7188C15.9425 44.6562 15.3125 45.2848 15.3125 46.0625C15.3125 49.1647 17.8353 51.6875 20.9375 51.6875H49.0625C52.1647 51.6875 54.6875 49.1647 54.6875 46.0625C54.6875 45.2848 54.0575 44.6562 53.2812 44.6562ZM32.1875 17.9375C32.1875 16.3864 33.4489 15.125 35 15.125C36.5511 15.125 37.8125 16.3864 37.8125 17.9375V20.2058L35.4444 19.4169C35.1547 19.3212 34.8439 19.3212 34.5542 19.4169L32.1875 20.2058V17.9375ZM35 22.2322L42.0017 24.5666C41.7289 29.1313 39.5956 33.3725 36.0561 36.32L35 37.2003L33.9453 36.32C30.4058 33.3711 28.2725 29.1313 27.9997 24.5666L35 22.2322ZM20.9375 30.5347C20.9375 29.7922 21.5422 29.1875 22.2847 29.1875H26.0112C27.0969 32.7791 29.1894 36.0191 32.1453 38.4814L34.1014 40.1112C34.3602 40.3292 34.6794 40.4375 35 40.4375C35.3206 40.4375 35.6398 40.3292 35.9 40.1127L37.8561 38.4828C40.812 36.0191 42.9045 32.7791 43.9902 29.1889H47.7167C48.4578 29.1875 49.0625 29.7922 49.0625 30.5347V44.6562H20.9375V30.5347ZM49.0625 48.875H20.9375C19.8983 48.875 18.9898 48.3097 18.5033 47.4688H51.4981C51.0102 48.3097 50.1017 48.875 49.0625 48.875Z" fill="#2AAF33"/>
<path d="M35 32C35.6455 32 36.208 31.5598 36.3641 30.9341L37.7703 25.3091C37.8758 24.8886 37.7802 24.4442 37.5144 24.1039C37.2486 23.7622 36.8394 23.5625 36.4062 23.5625H33.5937C33.1606 23.5625 32.7514 23.7622 32.4856 24.1039C32.2198 24.4442 32.1242 24.89 32.2297 25.3091L33.6359 30.9341C33.792 31.5612 34.3545 32 35 32Z" fill="#2AAF33"/>
<path d="M35.0422 33.4062H35.0281C34.2519 33.4062 33.6289 34.0348 33.6289 34.8125C33.6289 35.5902 34.2659 36.2188 35.0422 36.2188C35.8198 36.2188 36.4484 35.5902 36.4484 34.8125C36.4484 34.0348 35.8198 33.4062 35.0422 33.4062Z" fill="#2AAF33"/>
</svg>
