<svg width="21" height="22" viewBox="0 0 21 22" fill="none" xmlns="http://www.w3.org/2000/svg">
<path fill-rule="evenodd" clip-rule="evenodd" d="M6.41406 8.25065C6.41406 6.22561 8.05568 4.58398 10.0807 4.58398C12.1057 4.58398 13.7474 6.22561 13.7474 8.25065C13.7474 10.2757 12.1057 11.9173 10.0807 11.9173C8.05568 11.9173 6.41406 10.2757 6.41406 8.25065ZM10.0807 6.41732C9.06821 6.41732 8.2474 7.23813 8.2474 8.25065C8.2474 9.2632 9.06821 10.084 10.0807 10.084C11.0933 10.084 11.9141 9.2632 11.9141 8.25065C11.9141 7.23813 11.0933 6.41732 10.0807 6.41732Z" fill="#0B57C2"/>
<path fill-rule="evenodd" clip-rule="evenodd" d="M10.0859 18.3333L10.6683 19.0412C10.33 19.3196 9.84155 19.3193 9.50321 19.041L9.49643 19.0353L9.47874 19.0207L9.45619 19.0019L9.41356 18.9661C9.3571 18.9186 9.27551 18.8494 9.1723 18.7604C8.96584 18.5825 8.67258 18.325 8.32139 18.0037C7.62018 17.3623 6.68222 16.4613 5.74131 15.4274C4.80364 14.3971 3.84429 13.2142 3.11436 12.0091C2.39669 10.824 1.83594 9.51298 1.83594 8.25C1.83594 3.69365 5.52959 0 10.0859 0C14.6423 0 18.3359 3.69365 18.3359 8.25C18.3359 9.51298 17.7752 10.824 17.0576 12.0091C16.3276 13.2142 15.3682 14.3971 14.4306 15.4274C13.4896 16.4613 12.5517 17.3623 11.8505 18.0037C11.4993 18.325 11.206 18.5825 10.9996 18.7604C10.8964 18.8494 10.8148 18.9186 10.7583 18.9661C10.7302 18.9899 10.7083 19.0081 10.6931 19.0207L10.6754 19.0353L10.6691 19.0405C10.6691 19.0405 10.6683 19.0412 10.0859 18.3333ZM10.0859 1.83333C6.54211 1.83333 3.66927 4.70618 3.66927 8.25C3.66927 9.01203 4.02519 9.97398 4.68252 11.0593C5.32759 12.1244 6.20157 13.2093 7.09723 14.1935C7.98966 15.1741 8.88503 16.0346 9.55885 16.651C9.75585 16.8313 9.9335 16.9901 10.0859 17.1246C10.2384 16.9901 10.416 16.8313 10.613 16.651C11.2869 16.0346 12.1823 15.1741 13.0746 14.1935C13.9703 13.2093 14.8443 12.1244 15.4893 11.0593C16.1467 9.97398 16.5026 9.01203 16.5026 8.25C16.5026 4.70618 13.6298 1.83333 10.0859 1.83333ZM9.50321 19.041C9.50321 19.041 9.50358 19.0412 10.0859 18.3333L9.50321 19.041Z" fill="#0B57C2"/>
<path d="M2.18059 18.0019C1.92897 18.1778 1.85774 18.2929 1.8387 18.334C1.85751 18.3745 1.92676 18.486 2.16735 18.6567C2.5173 18.9049 3.08317 19.1659 3.86492 19.4005C5.41676 19.866 7.61554 20.1672 10.0833 20.1672C12.5511 20.1672 14.7499 19.866 16.3017 19.4005C17.0835 19.1659 17.6493 18.9049 17.9993 18.6567C18.2399 18.486 18.3091 18.3745 18.3279 18.334C18.309 18.2929 18.2377 18.1778 17.9861 18.0019C17.6248 17.7492 17.0424 17.485 16.2414 17.2494C15.7557 17.1066 15.4777 16.5971 15.6206 16.1114C15.7635 15.6257 16.2729 15.3478 16.7586 15.4906C17.6546 15.7541 18.4474 16.0873 19.0367 16.4995C19.6004 16.8936 20.1667 17.4994 20.1667 18.3339C20.1667 19.158 19.6139 19.7591 19.06 20.152C18.4822 20.5618 17.7056 20.8933 16.8285 21.1564C15.0627 21.6863 12.6781 22.0006 10.0833 22.0006C7.48852 22.0006 5.10396 21.6863 3.33812 21.1564C2.46103 20.8933 1.68447 20.5618 1.10671 20.152C0.552763 19.7591 0 19.158 0 18.3339C0 17.4994 0.566352 16.8936 1.12994 16.4995C1.71934 16.0873 2.512 15.7541 3.40803 15.4906C3.89373 15.3478 4.40325 15.6257 4.54609 16.1114C4.68893 16.5971 4.41099 17.1066 3.9253 17.2494C3.12426 17.485 2.54192 17.7492 2.18059 18.0019Z" fill="#0B57C2"/>
</svg>
