<svg width="38" height="42" viewBox="0 0 38 42" fill="none" xmlns="http://www.w3.org/2000/svg">
<g id="_24-support_linear" clip-path="url(#clip0_661_697)">
<path id="Path 14675" fill-rule="evenodd" clip-rule="evenodd" d="M7.30733 2.93172C6.73526 2.92737 6.16796 3.03621 5.63787 3.25201C5.10778 3.4678 4.62532 3.78632 4.21808 4.18933C3.81084 4.59233 3.48682 5.07193 3.26456 5.60067C3.04229 6.12941 2.92615 6.69692 2.92278 7.27073V28.5963C2.92646 29.1699 3.04283 29.7372 3.26523 30.2656C3.48763 30.7941 3.81169 31.2734 4.2189 31.6762C4.62611 32.0789 5.10847 32.3972 5.63841 32.6129C6.16834 32.8285 6.73546 32.9373 7.30733 32.9329H8.76911C10.7023 32.9301 12.5581 33.6947 13.9311 35.0597L17.2567 38.3546C17.7197 38.807 18.3406 39.0601 18.9871 39.0601C19.6335 39.0601 20.2544 38.807 20.7175 38.3546M20.7175 38.3546L24.0439 35.0597C24.7227 34.3822 25.528 33.8457 26.4137 33.4808C27.2995 33.1158 28.2483 32.9297 29.2059 32.9329H30.6872C31.8415 32.9382 32.9509 32.4846 33.7726 31.6714C34.5943 30.8582 35.0614 29.7517 35.0718 28.5939V7.27151C35.0684 6.6977 34.9522 6.13019 34.73 5.60145C34.5077 5.07271 34.1837 4.59312 33.7764 4.19011C33.3692 3.7871 32.8867 3.46859 32.3567 3.25279C31.8266 3.037 31.2593 2.92816 30.6872 2.9325H7.30186M0 7.27151C0.00317641 6.31262 0.194776 5.36377 0.56384 4.47921C0.932904 3.59465 1.47219 2.79175 2.15087 2.11641C2.82954 1.44107 3.63428 0.906544 4.51907 0.543406C5.40386 0.180268 6.35135 -0.00436071 7.30733 7.81785e-05H30.6927C31.6487 -0.00436071 32.5961 0.180268 33.4809 0.543406C34.3657 0.906544 35.1705 1.44107 35.8491 2.11641C36.5278 2.79175 37.0671 3.59465 37.4362 4.47921C37.8052 5.36377 37.9968 6.31262 38 7.27151V28.5963C37.9899 30.5317 37.2149 32.3841 35.845 33.7472C34.4752 35.1104 32.6223 35.8729 30.6927 35.8677H29.2113C28.637 35.8644 28.0676 35.975 27.5359 36.1931C27.0043 36.4112 26.5208 36.7325 26.1134 37.1386L26.1071 37.1449L22.7753 40.4484C21.7651 41.4429 20.4061 42.0001 18.9906 42.0001C17.5751 42.0001 16.2161 41.4429 15.2059 40.4484L11.8733 37.1441L11.8671 37.1378C11.042 36.3208 9.92848 35.864 8.76911 35.8669H7.30733C6.35141 35.8714 5.40399 35.6868 4.51925 35.3237C3.63452 34.9606 2.82981 34.4261 2.15114 33.7509C1.47248 33.0756 0.933174 32.2728 0.564064 31.3883C0.194954 30.5039 0.00327898 29.5551 0 28.5963V7.27151Z" fill="#434343"/>
<path id="Path 14676" fill-rule="evenodd" clip-rule="evenodd" d="M12.5475 13.6039C12.0624 13.6062 11.5978 13.8005 11.2547 14.1445C10.9117 14.4886 10.718 14.9546 10.7157 15.4412C10.7069 15.8241 10.5491 16.1883 10.276 16.456C10.0029 16.7236 9.63619 16.8735 9.25436 16.8735C8.87252 16.8735 8.50585 16.7236 8.23275 16.456C7.95965 16.1883 7.8018 15.8241 7.79297 15.4412C7.79297 14.8149 7.91596 14.1947 8.15491 13.616C8.39387 13.0374 8.74411 12.5116 9.18564 12.0688C9.62718 11.6259 10.1514 11.2746 10.7282 11.0349C11.3051 10.7952 11.9234 10.6719 12.5479 10.6719C13.1723 10.6719 13.7906 10.7952 14.3675 11.0349C14.9444 11.2746 15.4685 11.6259 15.9101 12.0688C16.3516 12.5116 16.7018 13.0374 16.9408 13.616C17.1798 14.1947 17.3027 14.8149 17.3027 15.4412C17.3027 18.1312 15.3091 19.5441 13.9232 20.498L13.7269 20.6329C12.4575 21.5053 11.5542 22.1235 11.0841 22.9864H15.841C16.0357 22.9819 16.2294 23.0165 16.4107 23.0881C16.5919 23.1597 16.7571 23.267 16.8964 23.4035C17.0357 23.5401 17.1464 23.7032 17.222 23.8833C17.2976 24.0634 17.3366 24.2568 17.3366 24.4522C17.3366 24.6476 17.2976 24.841 17.222 25.0211C17.1464 25.2012 17.0357 25.3643 16.8964 25.5009C16.7571 25.6375 16.5919 25.7447 16.4107 25.8163C16.2294 25.888 16.0357 25.9226 15.841 25.918H10.6188C10.2102 25.9227 9.80625 25.8309 9.43966 25.6499C9.07307 25.4689 8.75413 25.2038 8.50867 24.8762C8.2632 24.5485 8.09811 24.1675 8.02677 23.764C7.95542 23.3604 7.97982 22.9457 8.098 22.5534V22.5463C8.79408 20.4282 10.6188 19.195 11.91 18.3226C12.0344 18.2387 12.1533 18.1579 12.2667 18.0802C13.7699 17.0455 14.3784 16.4257 14.3784 15.4404C14.3759 14.9541 14.1822 14.4884 13.8394 14.1445C13.4966 13.8007 13.0323 13.6064 12.5475 13.6039Z" fill="#FAB737"/>
<path id="Path 14677" fill-rule="evenodd" clip-rule="evenodd" d="M23.533 11.879C23.8355 11.4047 24.2819 11.0404 24.8065 10.84C25.3311 10.6395 25.906 10.6135 26.4464 10.7658C26.9903 10.9201 27.469 11.2485 27.8095 11.701C28.1499 12.1536 28.3335 12.7054 28.3321 13.2723V20.1523H28.7412C28.9359 20.1477 29.1296 20.1823 29.3109 20.2539C29.4921 20.3256 29.6572 20.4328 29.7966 20.5694C29.9359 20.7059 30.0466 20.8691 30.1222 21.0492C30.1978 21.2292 30.2367 21.4227 30.2367 21.6181C30.2367 21.8135 30.1978 22.0069 30.1222 22.187C30.0466 22.3671 29.9359 22.5302 29.7966 22.6668C29.6572 22.8033 29.4921 22.9106 29.3109 22.9822C29.1296 23.0538 28.9359 23.0884 28.7412 23.0839H28.3321V24.4324C28.3366 24.6278 28.3022 24.8221 28.2307 25.0039C28.1593 25.1857 28.0524 25.3513 27.9162 25.4911C27.7801 25.6308 27.6175 25.7419 27.4379 25.8177C27.2584 25.8935 27.0655 25.9326 26.8707 25.9326C26.6759 25.9326 26.4831 25.8935 26.3035 25.8177C26.124 25.7419 25.9614 25.6308 25.8252 25.4911C25.6891 25.3513 25.5821 25.1857 25.5107 25.0039C25.4393 24.8221 25.4048 24.6278 25.4093 24.4324V23.0839H21.5903C21.1176 23.0874 20.6524 22.9655 20.2419 22.7305C19.8314 22.4955 19.4901 22.1557 19.2528 21.7457C19.0155 21.3357 18.8905 20.87 18.8906 20.3958C18.8907 19.9217 19.0158 19.4561 19.2533 19.0461L19.2572 19.0391C20.5868 16.7703 22.1111 14.1752 23.5244 11.8924L23.533 11.8782V11.879ZM25.4101 20.1523V14.4137C24.2682 16.2855 23.0771 18.3048 21.9962 20.1523H25.4101Z" fill="#FAB737"/>
</g>
<defs>
<clipPath id="clip0_661_697">
<rect width="38" height="42" fill="white"/>
</clipPath>
</defs>
</svg>
