<svg width="42" height="40" viewBox="0 0 42 40" fill="none" xmlns="http://www.w3.org/2000/svg">
<g id="Frame" clip-path="url(#clip0_601_394)">
<g id="Group 6962">
<path id="Union 3" d="M20.157 27.6316C19.8477 27.614 19.5581 27.4759 19.3518 27.2475C19.1456 27.0192 19.0395 26.7192 19.0569 26.4135V26.3677C18.14 26.0241 17.387 25.3533 16.9466 24.4876C16.8059 24.2133 16.7812 23.895 16.8778 23.6026C16.9245 23.458 16.9999 23.3239 17.0994 23.2082C17.199 23.0925 17.3208 22.9974 17.4577 22.9286C17.6385 22.8366 17.8407 22.7935 18.0437 22.8036C18.2485 22.8151 18.4465 22.8797 18.6179 22.9908C18.7894 23.1019 18.9282 23.2557 19.0204 23.4366C19.1428 23.6795 19.3279 23.8862 19.5569 24.036C19.786 24.1857 20.0509 24.2733 20.325 24.2896H20.3342C20.5145 24.2982 20.695 24.2755 20.8675 24.2226C21.2222 24.1123 21.5264 23.8822 21.7267 23.5727C21.9271 23.2632 22.011 22.894 21.9636 22.5296C21.9218 22.1665 21.7516 21.8295 21.4829 21.5783C21.2142 21.3271 20.8644 21.1778 20.4951 21.1566C19.5768 21.1052 18.7064 20.735 18.0375 20.1113C17.3686 19.4876 16.9443 18.6505 16.8393 17.7477C16.7244 16.8449 16.9339 15.9309 17.4313 15.1651C17.9287 14.3994 18.6824 13.8304 19.5609 13.5576C19.6176 13.5403 19.6749 13.5243 19.733 13.5096V13.4646C19.74 13.313 19.7772 13.1642 19.8424 13.0268C19.9077 12.8895 19.9998 12.7662 20.1133 12.664C20.2269 12.5619 20.3598 12.4829 20.5043 12.4315C20.6488 12.3801 20.8022 12.3573 20.9556 12.3646C21.2649 12.3827 21.5543 12.5211 21.7605 12.7496C21.9667 12.9781 22.0729 13.2779 22.0558 13.5836V13.6296C22.9727 13.9729 23.7259 14.6438 24.166 15.5096C24.3056 15.783 24.3307 16.0996 24.236 16.3911C24.1413 16.6826 23.9344 16.9255 23.6599 17.0676C23.4791 17.1592 23.2769 17.202 23.0739 17.1916C22.8691 17.1804 22.671 17.1159 22.4995 17.0047C22.328 16.8936 22.1892 16.7397 22.0972 16.5586C21.9768 16.3202 21.7962 16.1167 21.5727 15.9676C21.3493 15.8185 21.0907 15.729 20.822 15.7076H20.7815H20.7481C20.5767 15.7023 20.4056 15.7256 20.242 15.7766C19.8876 15.8869 19.5836 16.1168 19.3832 16.4261C19.1829 16.7354 19.0989 17.1044 19.1459 17.4686C19.1873 17.8321 19.3574 18.1694 19.6261 18.421C19.8948 18.6726 20.2449 18.8223 20.6145 18.8436C21.5328 18.8945 22.4033 19.2644 23.0722 19.888C23.7411 20.5116 24.1655 21.3488 24.2703 22.2516C24.3852 23.1545 24.1758 24.0687 23.6784 24.8346C23.181 25.6005 22.4273 26.1696 21.5487 26.4426C21.492 26.4599 21.435 26.4759 21.3776 26.4906V26.5366C21.3634 26.8317 21.2352 27.1103 21.0195 27.3149C20.8037 27.5195 20.5168 27.6346 20.2178 27.6366L20.157 27.6316Z" fill="#FAB737"/>
<path id="Union 4" d="M36.9394 34.4133L32.7644 34.1924C32.6632 34.1873 32.5631 34.1687 32.4668 34.1373C32.2726 34.073 32.0987 33.9597 31.9625 33.8085C31.8262 33.6573 31.7324 33.4735 31.6903 33.2754C31.6481 33.0773 31.6591 32.8717 31.7222 32.6791C31.7853 32.4865 31.8982 32.3135 32.0499 32.1774C32.162 32.0747 32.2939 31.9953 32.4377 31.9437C32.5814 31.8922 32.7341 31.8696 32.8869 31.8773L34.2583 31.9503L32.3869 29.8813L30.7867 31.3153C30.674 31.4166 30.542 31.4949 30.3985 31.5455C30.255 31.5961 30.1027 31.6181 29.9505 31.6102C29.7983 31.6023 29.6492 31.5647 29.5118 31.4995C29.3744 31.4343 29.2515 31.3428 29.1502 31.2303L27.5207 29.4304C26.0163 30.5264 24.2685 31.2513 22.4231 31.5446C20.5777 31.8378 18.6881 31.691 16.9117 31.1163C15.4489 30.6438 14.096 29.8881 12.9321 28.8933C10.7673 27.0344 9.35079 24.4687 8.94094 21.6639C8.53108 18.8592 9.15516 16.0024 10.6994 13.6144C10.8372 13.4014 11.0426 13.2397 11.2835 13.1544C11.5243 13.0692 11.787 13.0652 12.0303 13.1433C12.1271 13.1745 12.2194 13.2182 12.3046 13.2733C12.4336 13.3559 12.5448 13.463 12.6317 13.5883C12.7185 13.7136 12.7794 13.8547 12.8106 14.0034C12.8753 14.3035 12.817 14.6166 12.6487 14.8744C11.4097 16.7907 10.9092 19.0833 11.2385 21.3339C11.5677 23.5844 12.7047 25.6431 14.4422 27.1344C15.3764 27.9323 16.4618 28.5386 17.6354 28.9183C19.2056 29.4265 20.8836 29.517 22.5005 29.1807C24.1174 28.8443 25.6161 28.093 26.8456 27.0023L26.8668 26.9824C27.0613 26.8053 27.3114 26.6993 27.5753 26.6824C27.7199 26.6736 27.8648 26.6919 28.0024 26.7363C28.1039 26.7694 28.2003 26.8162 28.2888 26.8754L28.2959 26.8804C28.3511 26.9179 28.4029 26.96 28.4508 27.0063C28.469 27.0243 28.4869 27.0427 28.5044 27.0614L28.5115 27.0693L30.0934 28.8174L31.6936 27.3823C31.8065 27.2811 31.9385 27.203 32.0821 27.1525C32.2257 27.1019 32.3781 27.0799 32.5303 27.0878C32.6825 27.0957 32.8317 27.1333 32.9692 27.1985C33.1066 27.2636 33.2297 27.355 33.3312 27.4674L35.9839 30.3994L36.0629 29.0383C36.0774 28.7324 36.2143 28.4447 36.4434 28.2384C36.5945 28.103 36.779 28.0094 36.9784 27.967C37.1778 27.9247 37.385 27.9351 37.579 27.9973C37.8225 28.0777 38.0326 28.2349 38.177 28.4446C38.3215 28.6543 38.3923 28.905 38.3786 29.1583L38.163 33.3174C38.1589 33.3919 38.1477 33.4659 38.1296 33.5383C38.0802 33.7421 37.9752 33.9286 37.826 34.0774L37.7835 34.1173C37.5718 34.3098 37.2948 34.4169 37.0072 34.4174L36.9394 34.4133ZM29.0813 26.8524C28.9845 26.8212 28.8923 26.7775 28.807 26.7224C28.5487 26.5536 28.3681 26.2909 28.3043 25.9915C28.2405 25.692 28.2985 25.3798 28.466 25.1223C29.7048 23.206 30.2054 20.9137 29.8764 18.6632C29.5473 16.4127 28.4106 14.3539 26.6735 12.8623C25.7389 12.0647 24.6531 11.4587 23.4793 11.0793C21.9036 10.5688 20.2192 10.479 18.5971 10.8192C16.975 11.1594 15.4727 11.9174 14.2428 13.0164C14.1441 13.1046 14.0308 13.1753 13.9078 13.2253C13.6553 13.3271 13.3745 13.3371 13.1153 13.2534C12.9203 13.1905 12.7457 13.0777 12.6092 12.9264L11.0222 11.1733L9.42209 12.6074C9.27133 12.7426 9.08707 12.8359 8.888 12.8781C8.68893 12.9202 8.48212 12.9097 8.28853 12.8474C8.09376 12.7846 7.91921 12.6721 7.78247 12.5214L3.2553 7.52136C3.04942 7.29263 2.94284 6.99309 2.95855 6.68738C2.97427 6.38167 3.11103 6.09428 3.33931 5.88733C3.49027 5.75145 3.67501 5.65757 3.87468 5.61524C4.07435 5.5729 4.28181 5.58365 4.47591 5.64636C4.67079 5.70841 4.84545 5.82054 4.98196 5.97132L8.73386 10.1184L10.335 8.68335C10.4858 8.54825 10.6701 8.45494 10.8692 8.41297C11.0683 8.37099 11.2751 8.38183 11.4686 8.44434C11.6632 8.50691 11.8377 8.61907 11.9746 8.76941L13.6041 10.5693C15.1082 9.47318 16.8558 8.74824 18.7011 8.45496C20.5464 8.16167 22.4359 8.30863 24.2121 8.88343C25.6748 9.35685 27.0278 10.1124 28.1927 11.1063C30.3574 12.9655 31.7738 15.5315 32.1834 18.3364C32.5931 21.1413 31.9688 23.9983 30.4244 26.3864C30.3197 26.5477 30.1757 26.6805 30.0056 26.7726C29.8355 26.8647 29.6447 26.913 29.4508 26.9133C29.3244 26.9134 29.1989 26.8929 29.0793 26.8524H29.0813Z" fill="#464646"/>
</g>
</g>
<defs>
<clipPath id="clip0_601_394">
<rect width="40.4844" height="40" fill="white" transform="translate(0.605469)"/>
</clipPath>
</defs>
</svg>
