<svg width="42" height="40" viewBox="0 0 42 40" fill="none" xmlns="http://www.w3.org/2000/svg">
<g id="Frame" clip-path="url(#clip0_601_385)">
<g id="Group 6963">
<g id="Group 6959">
<g id="Clip path group">
<mask id="mask0_601_385" style="mask-type:luminance" maskUnits="userSpaceOnUse" x="1" y="3" width="41" height="35">
<g id="clip-path">
<path id="Icon" d="M41.2887 3H1.81641V37.897H41.2887V3Z" fill="white"/>
</g>
</mask>
<g mask="url(#mask0_601_385)">
<g id="Group 6955">
<path id="Path 10886" d="M30.8945 21.4739H32.9714V19.4229H30.8945V21.4739ZM30.8945 29.6799H32.9714V27.6289H30.8945V29.6799ZM30.8945 29.6799H32.9714V27.6289H30.8945V29.6799ZM30.8945 21.4739H32.9714V19.4229H30.8945V21.4739ZM30.8945 21.4739H32.9714V19.4229H30.8945V21.4739ZM30.8945 29.6799H32.9714V27.6289H30.8945V29.6799ZM30.8945 29.6799H32.9714V27.6289H30.8945V29.6799ZM30.8945 21.4739H32.9714V19.4229H30.8945V21.4739ZM30.8945 21.4739H32.9714V19.4229H30.8945V21.4739ZM30.8945 29.6799H32.9714V27.6289H30.8945V29.6799ZM30.8945 29.6799H32.9714V27.6289H30.8945V29.6799ZM30.8945 21.4739H32.9714V19.4229H30.8945V21.4739ZM30.8945 21.4739H32.9714V19.4229H30.8945V21.4739ZM30.8945 29.6799H32.9714V27.6289H30.8945V29.6799ZM30.8945 29.6799H32.9714V27.6289H30.8945V29.6799ZM30.8945 21.4739H32.9714V19.4229H30.8945V21.4739ZM30.8945 21.4739H32.9714V19.4229H30.8945V21.4739ZM30.8945 29.6799H32.9714V27.6289H30.8945V29.6799ZM30.8945 29.6799H32.9714V27.6289H30.8945V29.6799ZM30.8945 21.4739H32.9714V19.4229H30.8945V21.4739ZM30.8945 21.4739H32.9714V19.4229H30.8945V21.4739ZM30.8945 29.6799H32.9714V27.6289H30.8945V29.6799ZM30.8945 29.6799H32.9714V27.6289H30.8945V29.6799ZM30.8945 21.4739H32.9714V19.4229H30.8945V21.4739ZM30.8945 21.4739H32.9714V19.4229H30.8945V21.4739ZM30.8945 29.6799H32.9714V27.6289H30.8945V29.6799ZM30.8945 29.6799H32.9714V27.6289H30.8945V29.6799ZM30.8945 21.4739H32.9714V19.4229H30.8945V21.4739ZM32.9714 27.6289H30.8945V29.6799H32.9714V27.6289ZM32.9714 19.4229H30.8945V21.4739H32.9714V19.4229ZM30.8945 21.4739H32.9714V19.4229H30.8945V21.4739ZM30.8945 29.6799H32.9714V27.6289H30.8945V29.6799ZM30.8945 29.6799H32.9714V27.6289H30.8945V29.6799ZM30.8945 21.4739H32.9714V19.4229H30.8945V21.4739ZM30.8945 21.4739H32.9714V19.4229H30.8945V21.4739ZM30.8945 29.6799H32.9714V27.6289H30.8945V29.6799ZM30.8945 29.6799H32.9714V27.6289H30.8945V29.6799ZM30.8945 21.4739H32.9714V19.4229H30.8945V21.4739ZM30.8945 21.4739H32.9714V19.4229H30.8945V21.4739ZM30.8945 29.6799H32.9714V27.6289H30.8945V29.6799ZM30.8945 29.6799H32.9714V27.6289H30.8945V29.6799ZM30.8945 21.4739H32.9714V19.4229H30.8945V21.4739ZM30.8945 21.4739H32.9714V19.4229H30.8945V21.4739ZM30.8945 29.6799H32.9714V27.6289H30.8945V29.6799ZM30.8945 29.6799H32.9714V27.6289H30.8945V29.6799ZM30.8945 21.4739H32.9714V19.4229H30.8945V21.4739ZM30.8945 21.4739H32.9714V19.4229H30.8945V21.4739ZM30.8945 29.6799H32.9714V27.6289H30.8945V29.6799ZM30.8945 29.6799H32.9714V27.6289H30.8945V29.6799ZM30.8945 21.4739H32.9714V19.4229H30.8945V21.4739ZM30.8945 21.4739H32.9714V19.4229H30.8945V21.4739ZM30.8945 29.6799H32.9714V27.6289H30.8945V29.6799ZM30.8945 29.6799H32.9714V27.6289H30.8945V29.6799ZM30.8945 21.4739H32.9714V19.4229H30.8945V21.4739ZM30.8945 21.4739H32.9714V19.4229H30.8945V21.4739ZM30.8945 29.6799H32.9714V27.6289H30.8945V29.6799ZM30.8945 19.8809V21.1679C30.8944 21.2081 30.9023 21.2479 30.9178 21.2851C30.9334 21.3223 30.9562 21.3561 30.9849 21.3845C31.0137 21.413 31.0479 21.4355 31.0856 21.4509C31.1232 21.4662 31.1635 21.474 31.2042 21.4739H32.4188C32.5659 21.4739 32.7069 21.4161 32.811 21.3134C32.915 21.2106 32.9734 21.0712 32.9734 20.9259V19.9809C32.9734 19.8326 32.9138 19.6904 32.8077 19.5856C32.7016 19.4808 32.5577 19.4219 32.4076 19.4219H31.3601C31.299 19.4217 31.2385 19.4335 31.182 19.4565C31.1255 19.4795 31.0742 19.5133 31.031 19.556C30.9877 19.5986 30.9534 19.6492 30.93 19.705C30.9066 19.7607 30.8945 19.8205 30.8945 19.8809ZM30.8945 29.6799H32.9714V27.6289H30.8945V29.6799Z" fill="#FAB737"/>
<path id="Path 10887" d="M20.5141 11.206V3.613C20.5139 3.4505 20.4484 3.29474 20.3321 3.17984C20.2158 3.06493 20.0582 3.00026 19.8937 3H2.6261C2.41136 3 2.20541 3.08429 2.05356 3.23431C1.90172 3.38434 1.81641 3.58783 1.81641 3.8V36.566C1.81601 36.741 1.85053 36.9143 1.91798 37.076C1.98544 37.2378 2.08452 37.3848 2.20954 37.5087C2.33456 37.6326 2.48308 37.731 2.64661 37.7981C2.81013 37.8652 2.98544 37.8999 3.16252 37.9H40.1886C40.3333 37.8999 40.4765 37.8716 40.6101 37.8167C40.7437 37.7618 40.8651 37.6815 40.9673 37.5803C41.0694 37.479 41.1504 37.3589 41.2056 37.2267C41.2607 37.0946 41.289 36.953 41.2887 36.81V12.464C41.2887 12.2988 41.2558 12.1352 41.1918 11.9826C41.1278 11.83 41.034 11.6913 40.9158 11.5745C40.7976 11.4576 40.6572 11.365 40.5027 11.3018C40.3483 11.2385 40.1827 11.206 40.0155 11.206H20.5141ZM10.1218 35.835H3.89326V29.68H10.1218V35.835ZM10.1218 27.629H3.89326V21.474H10.1218V27.629ZM10.1218 19.423H3.89326V13.268H10.1218V19.423ZM10.1218 11.217H3.89326V5.062H10.1218V11.217ZM18.4272 35.846H12.1986V29.691H18.4282L18.4272 35.846ZM18.4272 27.64H12.1986V21.484H18.4282L18.4272 27.64ZM18.4272 19.434H12.1986V13.278H18.4282L18.4272 19.434ZM18.4272 11.228H12.1986V5.072H18.4282L18.4272 11.228ZM38.0267 35.835H20.5172V29.68H24.6668V27.629H20.5172V21.474H24.6668V19.423H20.5172V13.268H38.0763C38.3748 13.268 38.661 13.3852 38.8721 13.5937C39.0832 13.8022 39.2018 14.0851 39.2018 14.38V34.674C39.2018 34.8265 39.1714 34.9774 39.1123 35.1183C39.0533 35.2592 38.9667 35.3871 38.8576 35.4949C38.7485 35.6028 38.6189 35.6883 38.4764 35.7466C38.3338 35.805 38.181 35.835 38.0267 35.835Z" fill="#464646"/>
<g id="Path 10888">
<path d="M10.1192 21.4748H3.89062V19.4238H10.1192V21.4748Z" fill="#FAB737"/>
<path d="M18.4255 21.4848H12.196V19.4348H18.4245L18.4255 21.4848Z" fill="#FAB737"/>
<path d="M24.6642 21.4748H20.5145V19.4238H24.6642V21.4748Z" fill="#FAB737"/>
</g>
<g id="Path 10889">
<path d="M10.2125 29.9854H3.83984V27H10.2125V29.9854Z" fill="#FAB737"/>
<path d="M18.7111 30H12.3374V27.016H18.7101L18.7111 30Z" fill="#FAB737"/>
<path d="M25.0942 29.9854H20.8485V27H25.0942V29.9854Z" fill="#FAB737"/>
</g>
</g>
</g>
</g>
</g>
</g>
</g>
<defs>
<clipPath id="clip0_601_385">
<rect width="40.4844" height="40" fill="white" transform="translate(0.804688)"/>
</clipPath>
</defs>
</svg>
