<svg width="41" height="40" viewBox="0 0 41 40" fill="none" xmlns="http://www.w3.org/2000/svg">
<g id="Frame" clip-path="url(#clip0_601_398)">
<g id="Group 6961">
<g id="Group 6960">
<g id="Group 6800">
<path id="Path 10856" d="M36.8651 35.0312H29.7004V33.4312H36.8651C37.3597 33.4347 37.8354 33.2442 38.188 32.9015C38.5405 32.5588 38.7411 32.0919 38.7456 31.6032V12.0932C38.7411 11.6028 38.5398 11.1341 38.1859 10.7901C37.832 10.446 37.3545 10.2548 36.858 10.2582H29.2571C28.7102 10.2589 28.1852 10.4702 27.7935 10.8472L26.8746 11.7402C25.7341 12.8378 24.2056 13.453 22.6136 13.4552H4.62835C4.08671 13.4512 3.56554 13.6595 3.17894 14.0343C2.79234 14.4092 2.57182 14.9201 2.56568 15.4552V31.6412C2.57049 32.1192 2.76686 32.5757 3.11176 32.9109C3.45666 33.246 3.92198 33.4324 4.40572 33.4292H29.9615V35.0292H4.40572C3.48917 35.0364 2.60716 34.684 1.95328 34.0494C1.2994 33.4148 0.927055 32.5498 0.917969 31.6442V15.4602C0.927856 14.4976 1.32365 13.578 2.0186 12.9032C2.71355 12.2284 3.65096 11.8533 4.62532 11.8602H22.6106C23.7682 11.8589 24.8796 11.4115 25.7086 10.6132L26.6276 9.72224C27.3303 9.04286 28.2739 8.66176 29.2571 8.66024H36.86C37.7889 8.65384 38.6823 9.01166 39.3445 9.65523C40.0067 10.2988 40.3835 11.1756 40.3923 12.0932V31.6052C40.3835 32.5214 40.0071 33.3967 39.3459 34.039C38.6846 34.6813 37.7924 35.0382 36.8651 35.0312Z" fill="#464646"/>
</g>
<g id="Group 6801">
<path id="Path 10857" d="M4.40739 13.2737H2.788V8.46275C2.73223 7.59781 3.02372 6.74599 3.59928 6.09195C4.17485 5.43791 4.98811 5.03435 5.86279 4.96875H35.1341C36.0985 5.04052 36.9953 5.4851 37.6301 6.20604C38.2648 6.92698 38.5862 7.86614 38.5246 8.81975V9.58275H36.9053V8.81975C36.937 8.32319 36.7695 7.83426 36.4389 7.45895C36.1083 7.08363 35.6413 6.85217 35.1391 6.81475H5.86279C5.45007 6.84576 5.06637 7.03626 4.79486 7.34495C4.52336 7.65364 4.38596 8.05563 4.41245 8.46375L4.40739 13.2737Z" fill="#464646"/>
</g>
<g id="Group 6802">
<path id="Rectangle 2470" d="M36 12H31V14H36V12Z" fill="#FAB737"/>
<path id="Rectangle 2471" d="M36 16H31V31H36V16Z" fill="#FAB737"/>
</g>
</g>
</g>
</g>
<defs>
<clipPath id="clip0_601_398">
<rect width="40.4844" height="40" fill="white" transform="translate(0.410156)"/>
</clipPath>
</defs>
</svg>
