<svg width="42" height="40" viewBox="0 0 42 40" fill="none" xmlns="http://www.w3.org/2000/svg">
<g id="Group 6964">
<g id="Group 6958">
<path id="Path 10847" d="M22.4405 8.99045C23.2471 8.63581 23.9031 8.02691 24.2996 7.26483C24.6961 6.50276 24.8093 5.63338 24.6203 4.80103C24.4313 3.96868 23.9515 3.22344 23.2607 2.68905C22.5698 2.15466 21.7094 1.86328 20.8223 1.86328C19.9352 1.86328 19.0748 2.15466 18.3839 2.68905C17.6931 3.22344 17.2133 3.96868 17.0243 4.80103C16.8354 5.63338 16.9485 6.50276 17.345 7.26483C17.7415 8.02691 18.3975 8.63581 19.2041 8.99045C16.4759 10.1754 14.5703 14.1164 14.5703 16.8314C14.5703 16.878 14.5799 16.9241 14.5985 16.9671C14.6171 17.0102 14.6443 17.0492 14.6786 17.0821C14.713 17.115 14.7537 17.1411 14.7986 17.1588C14.8434 17.1765 14.8915 17.1856 14.94 17.1854H26.7067C26.7552 17.1856 26.8033 17.1765 26.8481 17.1588C26.893 17.1411 26.9337 17.115 26.9681 17.0821C27.0024 17.0492 27.0296 17.0102 27.0482 16.9671C27.0668 16.9241 27.0764 16.878 27.0764 16.8314C27.0733 14.1174 25.1698 10.1734 22.4405 8.99045ZM17.6734 5.60745C17.6736 5.00953 17.8584 4.42509 18.2044 3.92799C18.5504 3.43089 19.0421 3.04345 19.6173 2.81464C20.1925 2.58582 20.8255 2.52591 21.4361 2.64246C22.0468 2.75901 22.6078 3.0468 23.0482 3.46945C23.4886 3.89211 23.7886 4.43065 23.9104 5.01703C24.0322 5.6034 23.9702 6.21128 23.7323 6.76384C23.4944 7.31639 23.0913 7.78883 22.5739 8.12142C22.0565 8.45402 21.4481 8.63186 20.8254 8.63245C19.99 8.63245 19.1887 8.31394 18.5977 7.74692C18.0067 7.1799 17.6742 6.41074 17.6734 5.60845V5.60745ZM15.3201 16.4734C15.5023 13.5214 17.8983 9.33645 20.8234 9.33645C23.7484 9.33645 26.1444 13.5214 26.3267 16.4734H15.3201Z" fill="#464646" stroke="#464646"/>
<path id="Path 10848" d="M9.89754 27.9299C10.7041 27.5753 11.3601 26.9664 11.7566 26.2043C12.1531 25.4422 12.2663 24.5728 12.0773 23.7405C11.8883 22.9081 11.4086 22.1629 10.7177 21.6285C10.0269 21.0941 9.16644 20.8027 8.27935 20.8027C7.39225 20.8027 6.53184 21.0941 5.84098 21.6285C5.15012 22.1629 4.67036 22.9081 4.48138 23.7405C4.2924 24.5728 4.40556 25.4422 4.80207 26.2043C5.19858 26.9664 5.85458 27.5753 6.66116 27.9299C3.9319 29.1139 2.02735 33.0559 2.02735 35.7699C2.02721 35.8165 2.03664 35.8626 2.05511 35.9057C2.07357 35.9487 2.1007 35.9879 2.13494 36.0209C2.16919 36.0538 2.20987 36.08 2.25466 36.0979C2.29945 36.1157 2.34747 36.1249 2.39597 36.1249H14.1627C14.2112 36.1249 14.2592 36.1157 14.304 36.0979C14.3488 36.08 14.3895 36.0538 14.4238 36.0209C14.458 35.9879 14.4851 35.9487 14.5036 35.9057C14.5221 35.8626 14.5315 35.8165 14.5314 35.7699C14.5324 33.0569 12.6268 29.1139 9.89754 27.9299ZM5.13044 24.5479C5.13023 23.9496 5.31484 23.3647 5.66091 22.8672C6.00697 22.3697 6.49894 21.9819 7.07455 21.753C7.65017 21.5241 8.28355 21.4643 8.89456 21.5812C9.50558 21.6981 10.0667 21.9864 10.5071 22.4097C10.9474 22.833 11.2471 23.3721 11.3682 23.959C11.4893 24.5459 11.4264 25.1541 11.1875 25.7067C10.9485 26.2592 10.5443 26.7313 10.0259 27.0631C9.50746 27.395 8.8982 27.5717 8.27518 27.5709C7.44128 27.5688 6.64221 27.2495 6.05284 26.683C5.46347 26.1164 5.13181 25.3487 5.13044 24.5479ZM2.77709 35.4169C2.95931 32.4649 5.35432 28.2799 8.27935 28.2799C11.1513 28.2799 13.59 32.5209 13.7827 35.4169H2.77709Z" fill="#464646" stroke="#464646"/>
<path id="Path 10849" d="M34.9874 27.9299C35.794 27.5753 36.45 26.9664 36.8465 26.2043C37.243 25.4422 37.3561 24.5728 37.1672 23.7405C36.9782 22.9081 36.4984 22.1629 35.8076 21.6285C35.1167 21.0941 34.2563 20.8027 33.3692 20.8027C32.4821 20.8027 31.6217 21.0941 30.9308 21.6285C30.24 22.1629 29.7602 22.9081 29.5712 23.7405C29.3822 24.5728 29.4954 25.4422 29.8919 26.2043C30.2884 26.9664 30.9444 27.5753 31.751 27.9299C29.0217 29.1139 27.1172 33.0559 27.1172 35.7699C27.1171 35.8165 27.1265 35.8626 27.1449 35.9057C27.1634 35.9487 27.1905 35.9879 27.2248 36.0209C27.259 36.0538 27.2997 36.08 27.3445 36.0979C27.3893 36.1157 27.4373 36.1249 27.4858 36.1249H39.2526C39.3011 36.1249 39.3491 36.1157 39.3939 36.0979C39.4387 36.08 39.4793 36.0538 39.5136 36.0209C39.5478 35.9879 39.575 35.9487 39.5934 35.9057C39.6119 35.8626 39.6213 35.8165 39.6212 35.7699C39.6222 33.0569 37.7166 29.1139 34.9874 27.9299ZM30.2203 24.5469C30.2203 23.9488 30.405 23.3641 30.751 22.8669C31.097 22.3696 31.5888 21.982 32.1642 21.7531C32.7395 21.5242 33.3727 21.4643 33.9835 21.581C34.5943 21.6977 35.1554 21.9857 35.5958 22.4086C36.0362 22.8315 36.3361 23.3703 36.4576 23.9569C36.5791 24.5435 36.5167 25.1516 36.2784 25.7041C36.0401 26.2567 35.6365 26.729 35.1186 27.0613C34.6008 27.3935 33.992 27.5709 33.3692 27.5709C32.5347 27.5698 31.7346 27.251 31.1445 26.6843C30.5544 26.1176 30.2224 25.3493 30.2213 24.5479L30.2203 24.5469ZM27.8669 35.4159C28.0575 32.5159 30.4973 28.2789 33.3702 28.2789C36.2953 28.2789 38.6903 32.4639 38.8725 35.4159H27.8669Z" fill="#464646" stroke="#464646"/>
<path id="Path 10850" d="M26.9044 27.645L21.1918 24.145V18.354C21.1918 18.2601 21.153 18.1701 21.0839 18.1037C21.0147 18.0373 20.921 18 20.8232 18C20.7255 18 20.6317 18.0373 20.5626 18.1037C20.4934 18.1701 20.4546 18.2601 20.4546 18.354V24.142L14.742 27.642C14.701 27.667 14.6655 27.6995 14.6375 27.7377C14.6096 27.7759 14.5898 27.819 14.5792 27.8646C14.5686 27.9101 14.5675 27.9572 14.5758 28.0032C14.5842 28.0492 14.6019 28.0931 14.628 28.1325C14.654 28.1719 14.6879 28.206 14.7277 28.2328C14.7674 28.2596 14.8123 28.2787 14.8597 28.2888C14.9072 28.299 14.9562 28.3001 15.0041 28.2921C15.052 28.284 15.0977 28.267 15.1387 28.242L20.8253 24.754L26.5098 28.238C26.5688 28.2745 26.6375 28.2939 26.7076 28.294C26.7876 28.2943 26.8655 28.2697 26.9296 28.2237C26.9937 28.1778 27.0405 28.1131 27.063 28.0394C27.0855 27.9657 27.0823 27.8869 27.0541 27.8151C27.0259 27.7432 26.9741 27.6821 26.9065 27.641L26.9044 27.645Z" fill="black" stroke="#FAB737"/>
</g>
</g>
</svg>
