<svg xmlns="http://www.w3.org/2000/svg" xmlns:xlink="http://www.w3.org/1999/xlink" width="475.935" height="298.073" viewBox="0 0 475.935 298.073">
  <defs>
    <clipPath id="clip-path">
      <rect id="Rectangle_5269" data-name="Rectangle 5269" width="374.477" height="234.379" transform="translate(20.827)" fill="none"/>
    </clipPath>
  </defs>
  <g id="Group_14056" data-name="Group 14056" transform="translate(87.141 -232.11)">
    <path id="Path_50983" data-name="Path 50983" d="M382.182,490.311a148.05,148.05,0,0,0-290.564,22.9A81.6,81.6,0,1,0,81.611,675.8H381.18a92.745,92.745,0,0,0,1-185.484" transform="translate(-86.141 -146.613)" fill="#f3f8ff" stroke="#f3f8ff" stroke-width="2"/>
    <g id="Group_14057" data-name="Group 14057" transform="translate(-81.359 245.098)">
      <g id="Group_14056-2" data-name="Group 14056" transform="translate(24.12 37.858)" clip-path="url(#clip-path)">
        <rect id="Rectangle_5270" data-name="Rectangle 5270" width="281.421" height="11.366" transform="translate(105.795 210.064)" fill="#b9cdd9"/>
        <path id="Path_50984" data-name="Path 50984" d="M0,0H14.264V208.373H0Z" transform="translate(356.37 5.809)" fill="#b9cdd9"/>
        <path id="Path_50985" data-name="Path 50985" d="M0,0H178.03V208.373H0Z" transform="translate(178.341 5.809)" fill="#d7dde2"/>
        <rect id="Rectangle_5235" data-name="Rectangle 5235" width="165.339" height="55.299" transform="translate(180.648 16.767)" fill="#49505f"/>
        <rect id="Rectangle_5236" data-name="Rectangle 5236" width="16.487" height="45.572" transform="translate(251.137 21.491)" fill="#343746"/>
        <rect id="Rectangle_5237" data-name="Rectangle 5237" width="48.166" height="17.229" transform="translate(286.428 49.835)" fill="#343746"/>
        <rect id="Rectangle_5238" data-name="Rectangle 5238" width="47.888" height="6.391" transform="translate(286.706 21.491)" fill="#343746"/>
        <rect id="Rectangle_5239" data-name="Rectangle 5239" width="8.707" height="37.792" transform="translate(255.028 25.382)" fill="#2f3140"/>
        <rect id="Rectangle_5240" data-name="Rectangle 5240" width="16.487" height="45.572" transform="translate(230.018 21.491)" fill="#343746"/>
        <rect id="Rectangle_5241" data-name="Rectangle 5241" width="8.707" height="37.792" transform="translate(233.908 25.382)" fill="#2f3140"/>
        <rect id="Rectangle_5242" data-name="Rectangle 5242" width="16.487" height="45.572" transform="translate(208.066 21.491)" fill="#343746"/>
        <rect id="Rectangle_5243" data-name="Rectangle 5243" width="8.707" height="37.792" transform="translate(211.956 25.382)" fill="#2f3140"/>
        <rect id="Rectangle_5244" data-name="Rectangle 5244" width="16.487" height="45.572" transform="translate(186.113 21.491)" fill="#343746"/>
        <rect id="Rectangle_5245" data-name="Rectangle 5245" width="8.707" height="37.792" transform="translate(190.004 25.382)" fill="#2f3140"/>
        <path id="Path_50957" data-name="Path 50957" d="M307.809,301.193a3.149,3.149,0,1,1,3.15,3.15,3.149,3.149,0,0,1-3.15-3.15" transform="translate(15.392 -265.437)" fill="#48a2e9"/>
        <path id="Path_50958" data-name="Path 50958" d="M295.341,301.193a3.149,3.149,0,1,1,3.149,3.15,3.149,3.149,0,0,1-3.149-3.15" transform="translate(17.3 -265.437)" fill="#48a2e9"/>
        <path id="Path_50959" data-name="Path 50959" d="M282.874,301.193a3.149,3.149,0,1,1,3.149,3.15,3.149,3.149,0,0,1-3.149-3.15" transform="translate(19.208 -265.437)" fill="#48a2e9"/>
        <path id="Path_50960" data-name="Path 50960" d="M270.406,301.193a3.149,3.149,0,1,1,3.15,3.15,3.149,3.149,0,0,1-3.15-3.15" transform="translate(21.117 -265.437)" fill="#48a2e9"/>
        <rect id="Rectangle_5246" data-name="Rectangle 5246" width="165.339" height="55.299" transform="translate(180.648 83.458)" fill="#49505f"/>
        <rect id="Rectangle_5247" data-name="Rectangle 5247" width="16.487" height="45.572" transform="translate(251.137 88.182)" fill="#343746"/>
        <rect id="Rectangle_5248" data-name="Rectangle 5248" width="48.166" height="17.229" transform="translate(286.428 116.526)" fill="#343746"/>
        <rect id="Rectangle_5249" data-name="Rectangle 5249" width="47.888" height="6.391" transform="translate(286.706 88.183)" fill="#343746"/>
        <rect id="Rectangle_5250" data-name="Rectangle 5250" width="8.707" height="37.792" transform="translate(255.028 92.073)" fill="#2f3140"/>
        <rect id="Rectangle_5251" data-name="Rectangle 5251" width="16.487" height="45.572" transform="translate(230.018 88.182)" fill="#343746"/>
        <rect id="Rectangle_5252" data-name="Rectangle 5252" width="8.707" height="37.792" transform="translate(233.908 92.073)" fill="#2f3140"/>
        <rect id="Rectangle_5253" data-name="Rectangle 5253" width="16.487" height="45.572" transform="translate(208.066 88.182)" fill="#343746"/>
        <rect id="Rectangle_5254" data-name="Rectangle 5254" width="8.707" height="37.792" transform="translate(211.956 92.073)" fill="#2f3140"/>
        <rect id="Rectangle_5255" data-name="Rectangle 5255" width="16.487" height="45.572" transform="translate(186.113 88.182)" fill="#343746"/>
        <rect id="Rectangle_5256" data-name="Rectangle 5256" width="8.707" height="37.792" transform="translate(190.004 92.073)" fill="#2f3140"/>
        <path id="Path_50961" data-name="Path 50961" d="M307.809,379.937a3.149,3.149,0,1,1,3.15,3.149,3.149,3.149,0,0,1-3.15-3.149" transform="translate(15.392 -277.49)" fill="#48a2e9"/>
        <path id="Path_50962" data-name="Path 50962" d="M295.341,379.937a3.149,3.149,0,1,1,3.149,3.149,3.149,3.149,0,0,1-3.149-3.149" transform="translate(17.3 -277.49)" fill="#48a2e9"/>
        <path id="Path_50963" data-name="Path 50963" d="M282.874,379.937a3.149,3.149,0,1,1,3.149,3.149,3.149,3.149,0,0,1-3.149-3.149" transform="translate(19.208 -277.49)" fill="#48a2e9"/>
        <path id="Path_50964" data-name="Path 50964" d="M270.406,379.937a3.149,3.149,0,1,1,3.15,3.149,3.149,3.149,0,0,1-3.15-3.149" transform="translate(21.117 -277.49)" fill="#48a2e9"/>
        <rect id="Rectangle_5257" data-name="Rectangle 5257" width="165.339" height="55.299" transform="translate(180.648 150.15)" fill="#49505f"/>
        <rect id="Rectangle_5258" data-name="Rectangle 5258" width="16.487" height="45.572" transform="translate(251.137 154.874)" fill="#343746"/>
        <rect id="Rectangle_5259" data-name="Rectangle 5259" width="48.166" height="17.229" transform="translate(286.428 183.218)" fill="#343746"/>
        <rect id="Rectangle_5260" data-name="Rectangle 5260" width="47.888" height="6.391" transform="translate(286.706 154.874)" fill="#343746"/>
        <rect id="Rectangle_5261" data-name="Rectangle 5261" width="8.707" height="37.792" transform="translate(255.028 158.764)" fill="#2f3140"/>
        <rect id="Rectangle_5262" data-name="Rectangle 5262" width="16.487" height="45.572" transform="translate(230.018 154.874)" fill="#343746"/>
        <rect id="Rectangle_5263" data-name="Rectangle 5263" width="8.707" height="37.792" transform="translate(233.908 158.764)" fill="#2f3140"/>
        <rect id="Rectangle_5264" data-name="Rectangle 5264" width="16.487" height="45.572" transform="translate(208.066 154.874)" fill="#343746"/>
        <rect id="Rectangle_5265" data-name="Rectangle 5265" width="8.707" height="37.792" transform="translate(211.956 158.764)" fill="#2f3140"/>
        <rect id="Rectangle_5266" data-name="Rectangle 5266" width="16.487" height="45.572" transform="translate(186.113 154.874)" fill="#343746"/>
        <rect id="Rectangle_5267" data-name="Rectangle 5267" width="8.707" height="37.792" transform="translate(190.004 158.764)" fill="#2f3140"/>
        <path id="Path_50965" data-name="Path 50965" d="M307.809,458.68a3.149,3.149,0,1,1,3.15,3.149,3.15,3.15,0,0,1-3.15-3.149" transform="translate(15.392 -289.541)" fill="#48a2e9"/>
        <path id="Path_50966" data-name="Path 50966" d="M295.341,458.68a3.149,3.149,0,1,1,3.149,3.149,3.15,3.15,0,0,1-3.149-3.149" transform="translate(17.3 -289.541)" fill="#48a2e9"/>
        <path id="Path_50967" data-name="Path 50967" d="M282.874,458.68a3.149,3.149,0,1,1,3.149,3.149,3.15,3.15,0,0,1-3.149-3.149" transform="translate(19.208 -289.541)" fill="#48a2e9"/>
        <path id="Path_50968" data-name="Path 50968" d="M270.406,458.68a3.149,3.149,0,1,1,3.15,3.149,3.15,3.15,0,0,1-3.15-3.149" transform="translate(21.117 -289.541)" fill="#48a2e9"/>
        <rect id="Rectangle_5268" data-name="Rectangle 5268" width="14.264" height="207.791" transform="translate(165.869 5.808)" fill="#b9cdd9"/>
        <path id="Path_50969" data-name="Path 50969" d="M135.087,418.812a52.33,52.33,0,0,0-102.7,8.093,28.844,28.844,0,1,0-3.537,57.469H134.733a32.782,32.782,0,0,0,.354-65.562" transform="translate(87.51 -254.248)" fill="#fff" stroke="#60a4fc" stroke-width="1"/>
        <path id="Path_50970" data-name="Path 50970" d="M113.683,263.408a31.817,31.817,0,0,1,62.444,4.92,17.537,17.537,0,1,1,2.15,34.942H113.9a19.932,19.932,0,0,1-.216-39.862" transform="translate(-19.427 -193.567)" fill="#fcfcfc" stroke="#60a4fc" stroke-width="1"/>
        <g id="Group_14059" data-name="Group 14059" transform="translate(25.216 35.315)">
          <circle id="Ellipse_3963" data-name="Ellipse 3963" cx="26.707" cy="26.707" r="26.707" transform="translate(27.646 34.73)" fill="#f3f8ff"/>
          <path id="Path_50973" data-name="Path 50973" d="M47.158,15.412A25.326,25.326,0,0,1,13.621,53.37S2.173,56.846,0,68.785L4.313,72.6l13.241-6.422a34.306,34.306,0,0,0,3.385,1.2L27.528,80.5,38.979,79.8l4.782-13.806a33.482,33.482,0,0,0,3.3-1.632l13.93,4.608,7.6-8.6L62.192,47.211a33.331,33.331,0,0,0,1.206-3.48L76.493,37.15,75.785,25.7,61.939,20.913a31.673,31.673,0,0,0-1.627-3.2l4.642-14.02L60.776,0A16.587,16.587,0,0,0,47.158,15.412" transform="matrix(-0.391, -0.921, 0.921, -0.391, 34.543, 101.867)" fill="#4580cc"/>
          <path id="Path_50974" data-name="Path 50974" d="M62.885,27.141A25.326,25.326,0,0,0,29.348,65.1L15.727,80.514,11.414,76.7l4.743-13.932a34.434,34.434,0,0,1-1.6-3.211L.707,54.639,0,43.188l13.111-6.446a33.507,33.507,0,0,1,1.214-3.473L8.037,20.013l7.6-8.6,13.842,4.725a33.286,33.286,0,0,1,3.305-1.625L37.7.708,49.15,0l6.457,13.151a31.66,31.66,0,0,1,3.378,1.22L72.325,8.038,76.5,11.729Z" transform="matrix(-0.391, -0.921, 0.921, -0.391, 29.892, 120.925)" fill="#60a4fc"/>
          <g id="user-plus_outline" transform="translate(41.833 48.075)">
            <path id="Path_50896" data-name="Path 50896" d="M22.823,24.546H1.163A1.163,1.163,0,0,1,0,23.384V20.676A6.578,6.578,0,0,1,6.578,14.1h10.83a6.578,6.578,0,0,1,6.578,6.578v2.708A1.163,1.163,0,0,1,22.823,24.546Zm-20.5-2.325H21.661V20.676a4.257,4.257,0,0,0-4.253-4.253H6.578a4.257,4.257,0,0,0-4.253,4.253Zm9.668-9.066A6.578,6.578,0,0,1,7.342,1.927a6.578,6.578,0,1,1,9.3,9.3A6.535,6.535,0,0,1,11.993,13.155Zm0-10.83a4.253,4.253,0,1,0,4.253,4.253A4.257,4.257,0,0,0,11.993,2.325Z" transform="translate(0 0)" fill="#4580cc"/>
          </g>
        </g>
        <g id="Group_14061" data-name="Group 14061" transform="translate(294.672 -15.329)">
          <circle id="Ellipse_3963-2" data-name="Ellipse 3963" cx="26.707" cy="26.707" r="26.707" transform="translate(27.787 34.809)" fill="#f3f8ff"/>
          <path id="Path_50973-2" data-name="Path 50973" d="M47.158,15.412A25.326,25.326,0,0,1,13.621,53.37S2.173,56.846,0,68.785L4.313,72.6l13.241-6.422a34.306,34.306,0,0,0,3.385,1.2L27.528,80.5,38.979,79.8l4.782-13.806a33.482,33.482,0,0,0,3.3-1.632l13.93,4.608,7.6-8.6L62.192,47.211a33.331,33.331,0,0,0,1.206-3.48L76.493,37.15,75.785,25.7,61.939,20.913a31.673,31.673,0,0,0-1.627-3.2l4.642-14.02L60.776,0A16.587,16.587,0,0,0,47.158,15.412" transform="matrix(-0.391, -0.921, 0.921, -0.391, 34.543, 101.867)" fill="#60a4fc"/>
          <path id="Path_50974-2" data-name="Path 50974" d="M62.885,27.141A25.326,25.326,0,0,0,29.348,65.1L15.727,80.514,11.414,76.7l4.743-13.932a34.434,34.434,0,0,1-1.6-3.211L.707,54.639,0,43.188l13.111-6.446a33.507,33.507,0,0,1,1.214-3.473L8.037,20.013l7.6-8.6,13.842,4.725a33.286,33.286,0,0,1,3.305-1.625L37.7.708,49.15,0l6.457,13.151a31.66,31.66,0,0,1,3.378,1.22L72.325,8.038,76.5,11.729Z" transform="matrix(-0.391, -0.921, 0.921, -0.391, 29.892, 120.925)" fill="#0151c1"/>
          <g id="Group_14062" data-name="Group 14062" transform="translate(42.863 49.068)">
            <line id="Line_389" data-name="Line 389" x2="23.264" transform="translate(0 20.917)" fill="none" stroke="#013d8e" stroke-width="3"/>
            <line id="Line_390" data-name="Line 390" y1="5.816" transform="translate(2.986 15.101)" fill="none" stroke="#013d8e" stroke-width="3"/>
            <line id="Line_391" data-name="Line 391" y1="8.308" transform="translate(7.141 12.609)" fill="none" stroke="#013d8e" stroke-width="3"/>
            <line id="Line_392" data-name="Line 392" y1="11.632" transform="translate(11.295 9.285)" fill="none" stroke="#013d8e" stroke-width="3"/>
            <line id="Line_393" data-name="Line 393" y1="14.819" transform="translate(15.449 6.098)" fill="none" stroke="#013d8e" stroke-width="3"/>
            <line id="Line_394" data-name="Line 394" y1="17.312" transform="translate(19.603 3.606)" fill="none" stroke="#013d8e" stroke-width="3"/>
            <g id="Group_14063" data-name="Group 14063" transform="translate(2.986)">
              <path id="Path_50986" data-name="Path 50986" d="M52.544,72.377a26.291,26.291,0,0,0,7.06-3.287,19.8,19.8,0,0,0,4.831-5.254" transform="translate(-52.544 -62.494)" fill="none" stroke="#013d8e" stroke-width="1"/>
              <g id="Polygon_10" data-name="Polygon 10" transform="translate(11.221 0) rotate(30)" fill="#013d8e">
                <path d="M1.246,0,2.493,1.662H0Z" stroke="none"/>
                <path d="M 1.246273756027222 -8.344650268554688e-07 L 2.492543697357178 1.661699175834656 L 3.814697265625e-06 1.661699175834656 L 1.246273756027222 -8.344650268554688e-07 Z" stroke="none" fill="#013d8e"/>
              </g>
            </g>
          </g>
        </g>
        <g id="Group_14060" data-name="Group 14060" transform="translate(110.852 84.05)">
          <path id="Path_50971" data-name="Path 50971" d="M33.551,10.965a18.018,18.018,0,0,1-23.861,27S1.546,40.443,0,48.937l3.068,2.711,9.42-4.569a24.46,24.46,0,0,0,2.408.85l4.689,9.344,8.146-.5,3.4-9.822a23.7,23.7,0,0,0,2.345-1.162l9.911,3.279,5.4-6.118-4.549-9.359a23.909,23.909,0,0,0,.858-2.476l9.316-4.682-.5-8.147-9.851-3.406A22.508,22.508,0,0,0,42.908,12.6l3.3-9.975L43.239,0a11.8,11.8,0,0,0-9.688,10.965" transform="matrix(-0.559, -0.829, 0.829, -0.559, 31.096, 77.144)" fill="#08336f"/>
          <path id="Path_50972" data-name="Path 50972" d="M44.74,19.309a18.018,18.018,0,0,0-23.861,27l-9.69,10.968L8.121,54.57,11.5,44.659a24.4,24.4,0,0,1-1.141-2.285L.5,38.872,0,30.726,9.328,26.14a23.832,23.832,0,0,1,.864-2.471L5.718,14.238l5.4-6.117,9.848,3.361a23.708,23.708,0,0,1,2.351-1.157L26.821.5,34.968,0l4.594,9.356a22.507,22.507,0,0,1,2.4.869l9.492-4.506,2.972,2.626Z" transform="matrix(-0.559, -0.829, 0.829, -0.559, 30.436, 91.086)" fill="#0151c1"/>
          <circle id="Ellipse_3964" data-name="Ellipse 3964" cx="20.285" cy="20.285" r="20.285" transform="translate(18.677 25.259)" fill="#f3f8ff"/>
          <g id="ram" transform="matrix(1, 0.017, -0.017, 1, 31.896, 36.8)">
            <path id="Path_50898" data-name="Path 50898" d="M13.738,12.681H2.114a2.036,2.036,0,0,1-1.494-.619A2.036,2.036,0,0,1,0,10.568V6.341A2.036,2.036,0,0,1,.619,4.846a2.036,2.036,0,0,1,1.494-.619H13.738a2.114,2.114,0,0,1,2.114,2.114v4.227a2.114,2.114,0,0,1-2.114,2.114ZM4.227,6.869A.536.536,0,0,0,3.7,6.341H1.585a.508.508,0,0,0-.372.157.508.508,0,0,0-.157.372v3.17a.508.508,0,0,0,.157.372.518.518,0,0,0,.743,0,.508.508,0,0,0,.157-.372V9.511H3.17v.528a.525.525,0,0,0,.9.372.508.508,0,0,0,.157-.372V9.511H3.7a.528.528,0,0,1,0-1.057h.528Zm4.227,0a.536.536,0,0,0-.528-.528H5.812a.536.536,0,0,0-.528.528v3.17a.528.528,0,0,0,1.057,0V9.511H7.4v.528a.528.528,0,0,0,1.057,0Zm6.341,0a.536.536,0,0,0-.528-.528H10.039a.536.536,0,0,0-.528.528v3.17a.528.528,0,0,0,1.057,0V7.4h1.057v2.642a.528.528,0,0,0,1.057,0V7.4h1.057v2.642a.528.528,0,0,0,1.057,0ZM6.341,7.4H7.4V8.454H6.341Zm-4.227,0H3.17V8.454H2.114ZM12.681.528a.508.508,0,0,1,.157-.372.518.518,0,0,1,.743,0,.508.508,0,0,1,.157.372V3.17H12.681Zm-2.114,0a.508.508,0,0,1,.157-.372.518.518,0,0,1,.743,0,.508.508,0,0,1,.157.372V3.17H10.568Zm-2.114,0A.508.508,0,0,1,8.611.157a.518.518,0,0,1,.743,0,.508.508,0,0,1,.157.372V3.17H8.454Zm-2.114,0A.508.508,0,0,1,6.5.157a.518.518,0,0,1,.743,0A.508.508,0,0,1,7.4.528V3.17H6.341Zm-2.114,0A.508.508,0,0,1,4.384.157a.518.518,0,0,1,.743,0,.508.508,0,0,1,.157.372V3.17H4.227Zm-2.114,0A.508.508,0,0,1,2.27.157a.518.518,0,0,1,.743,0A.508.508,0,0,1,3.17.528V3.17H2.114ZM3.17,16.38a.525.525,0,0,1-.9.372.508.508,0,0,1-.157-.372V13.738H3.17Zm2.114,0a.528.528,0,0,1-1.057,0V13.738H5.284Zm2.114,0a.528.528,0,0,1-1.057,0V13.738H7.4Zm2.114,0a.528.528,0,0,1-1.057,0V13.738H9.511Zm2.114,0a.528.528,0,0,1-1.057,0V13.738h1.057Zm2.114,0a.528.528,0,0,1-1.057,0V13.738h1.057Z" transform="translate(0 0)" fill="#0151c1"/>
          </g>
        </g>
        <g id="Group_14058" data-name="Group 14058" transform="translate(51.389 125.841)">
          <circle id="Ellipse_3962" data-name="Ellipse 3962" cx="24.512" cy="24.512" r="24.512" transform="translate(22.797 28.475)" fill="#f3f8ff"/>
          <path id="Path_50979" data-name="Path 50979" d="M40.669,13.291A21.84,21.84,0,0,1,11.746,46.025S1.874,49.023,0,59.319l3.72,3.286,11.418-5.539A29.571,29.571,0,0,0,18.057,58.1L23.74,69.424l9.875-.611,4.124-11.906A28.686,28.686,0,0,0,40.581,55.5l12.013,3.973,6.552-7.414L53.633,40.714a28.7,28.7,0,0,0,1.04-3l11.292-5.675-.61-9.875L53.414,18.035a27.259,27.259,0,0,0-1.4-2.761l4-12.09L52.412,0A14.3,14.3,0,0,0,40.669,13.291" transform="matrix(-0.391, -0.921, 0.921, -0.391, 29.789, 87.847)" fill="#08336f"/>
          <path id="Path_50980" data-name="Path 50980" d="M54.231,23.405A21.84,21.84,0,0,0,25.308,56.139L13.562,69.433,9.843,66.147l4.09-12.014a29.607,29.607,0,0,1-1.382-2.77L.61,47.119,0,37.244l11.307-5.559a28.96,28.96,0,0,1,1.047-2.995L6.931,17.258l6.552-7.415,11.937,4.074a28.922,28.922,0,0,1,2.85-1.4L32.511.61,42.385,0l5.568,11.341a27.18,27.18,0,0,1,2.913,1.053L62.372,6.931l3.6,3.184Z" transform="matrix(-0.391, -0.921, 0.921, -0.391, 25.778, 104.284)" fill="#0151c1"/>
          <path id="Icon_open-dollar" data-name="Icon open-dollar" d="M5.641,0V2.807h-2.1A3.546,3.546,0,0,0,.028,6.315v1.4a4.031,4.031,0,0,0,3.059,3.957l7.185,1.852a1.718,1.718,0,0,1,.954,1.235v1.4a.7.7,0,0,1-.7.7H3.508a1.57,1.57,0,0,1-.7-.168V14.061H0v2.807a2.637,2.637,0,0,0,1.235,2.189,3.963,3.963,0,0,0,2.273.617h2.1v2.807H8.42V19.674h2.1a3.51,3.51,0,0,0,3.508-3.508v-1.4a4.031,4.031,0,0,0-3.059-3.957L3.789,8.953a1.718,1.718,0,0,1-.954-1.235v-1.4a.7.7,0,0,1,.7-.7h7.017a1.689,1.689,0,0,1,.7.168V8.42h2.807V5.613a2.637,2.637,0,0,0-1.235-2.189,3.963,3.963,0,0,0-2.273-.617h-2.1V0H5.641Z" transform="translate(40.314 40.415)" fill="#08336f"/>
        </g>
      </g>
    </g>
  </g>
</svg>
