<svg width="60" height="60" viewBox="0 0 60 60" fill="none" xmlns="http://www.w3.org/2000/svg">
<g id="Group 7356">
<g id="Group 27271">
<g id="Group 27270">
<path id="Path 10892" d="M49.2806 41.7518L44.6231 37.1298C44.0729 36.6134 43.4344 36.2002 42.7379 35.91C43.1864 35.5423 43.5488 35.0808 43.7996 34.5579C44.0504 34.0351 44.1835 33.4636 44.1895 32.8837V19.2072C44.1317 18.059 43.6222 16.9804 42.7721 16.2065C41.922 15.4326 40.8003 15.0264 39.6518 15.0765H19.8706C18.7217 15.0261 17.5994 15.4321 16.7487 16.2059C15.898 16.9798 15.3879 18.0587 15.3295 19.2072V32.8837C15.3372 33.504 15.4893 34.114 15.7738 34.6653C16.0583 35.2166 16.4673 35.6941 16.9685 36.0597C16.3924 36.3304 15.8634 36.6917 15.4016 37.1298L10.7441 41.7518C10.448 41.9675 10.2284 42.2719 10.1169 42.6208C10.0055 42.9698 10.008 43.3451 10.1242 43.6925C10.2717 44.0429 10.7019 44.6295 11.9451 44.6295H48.0763C49.3194 44.6295 49.7508 44.0429 49.895 43.6925C50.0391 43.3421 50.1678 42.6246 49.2806 41.7518ZM16.9363 32.8804V19.2072C16.994 18.4831 17.3344 17.8108 17.8839 17.3357C18.4335 16.8607 19.148 16.6211 19.8728 16.6689H39.654C40.3784 16.6214 41.0924 16.8612 41.6413 17.3363C42.1903 17.8114 42.5301 18.4835 42.5871 19.2072V32.8837C42.5547 33.476 42.3235 34.0401 41.9309 34.4848C41.5383 34.9295 41.0073 35.2288 40.4236 35.3345C40.4103 35.3332 40.3969 35.3332 40.3837 35.3345C40.2623 35.3285 40.1412 35.352 40.031 35.4032C39.9065 35.417 39.7814 35.424 39.6562 35.4243H19.875C19.6621 35.4244 19.4497 35.4039 19.2407 35.3633C18.6294 35.2805 18.0658 34.9881 17.6463 34.5358C17.2268 34.0835 16.9774 33.4995 16.9408 32.8837L16.9363 32.8804ZM48.0797 43.0338H11.9539C11.8741 43.0338 11.8072 43.0312 11.7532 43.026C11.7939 42.973 11.8388 42.9233 11.8874 42.8774L16.5449 38.252C17.3074 37.5912 18.2342 37.1483 19.2274 36.9701C19.4428 36.999 19.6599 37.0131 19.8772 37.0122H39.6584C39.9559 37.013 40.2529 36.9863 40.5456 36.9324C41.6385 37.0705 42.6658 37.5297 43.4975 38.252L48.1551 42.8774C48.2037 42.9233 48.2485 42.973 48.2892 43.026C48.2301 43.0326 48.1617 43.036 48.0841 43.036L48.0797 43.0338Z" fill="#464646" stroke="#464646" stroke-width="1.5"/>
<path id="Path 10893" d="M29.4719 31.6527C29.6465 31.7206 29.8323 31.7556 30.0197 31.7558C30.2071 31.7556 30.3928 31.7206 30.5675 31.6527C30.8594 31.5412 31.1105 31.3436 31.2875 31.0862C31.4646 30.8287 31.5592 30.5235 31.5589 30.2111C31.5583 29.803 31.3959 29.4119 31.1074 29.1233C30.8189 28.8348 30.4277 28.6725 30.0197 28.6719C29.6117 28.6728 29.2207 28.8352 28.9323 29.1237C28.6438 29.4121 28.4813 29.8031 28.4805 30.2111C28.4801 30.5235 28.5747 30.8287 28.7518 31.0862C28.9288 31.3436 29.18 31.5412 29.4719 31.6527Z" fill="#FAB737"/>
</g>
<path id="Path 10892_2" d="M37.2287 15.0791V13.9402C37.2255 13.255 36.9506 12.5991 36.4643 12.1163C35.978 11.6336 35.3201 11.3635 34.6349 11.3652H24.8985C24.2133 11.3635 23.5554 11.6336 23.0691 12.1163C22.5828 12.5991 22.3079 13.255 22.3047 13.9402V16.6726H37.2287V15.0791ZM22.3047 16.6726V28.4373C22.3079 29.1225 22.5828 29.7784 23.0691 30.2611C23.5554 30.7438 24.2133 31.014 24.8985 31.0122H27.8571C27.6991 30.7676 27.6148 30.4828 27.6143 30.1916C27.6142 29.9452 27.6748 29.7027 27.7906 29.4852H24.8996C24.6205 29.4858 24.3525 29.3757 24.1544 29.1791C23.9563 28.9824 23.8443 28.7153 23.8428 28.4361V13.9391C23.8443 13.6599 23.9563 13.3928 24.1544 13.1962C24.3525 12.9995 24.6205 12.8894 24.8996 12.89H34.636C34.9152 12.8894 35.1831 12.9995 35.3812 13.1962C35.5793 13.3928 35.6914 13.6599 35.6929 13.9391V28.4361C35.6914 28.7153 35.5793 28.9824 35.3812 29.1791C35.1831 29.3757 34.9152 29.4858 34.636 29.4852H31.7184C31.8342 29.7027 31.8947 29.9452 31.8948 30.1916C31.8942 30.4828 31.8099 30.7676 31.6519 31.0122H34.636C35.3212 31.014 35.9791 30.7438 36.4654 30.2611C36.9517 29.7784 37.2266 29.1225 37.2298 28.4373V16.6715L22.3047 16.6726Z" fill="#FAB737"/>
</g>
</g>
</svg>
