<svg width="51" height="50" viewBox="0 0 51 50" fill="none" xmlns="http://www.w3.org/2000/svg">
<mask id="mask0_623_483" style="mask-type:luminance" maskUnits="userSpaceOnUse" x="19" y="8" width="23" height="30">
<path d="M22.9326 12.6871C27.3575 11.9682 32.0482 13.3954 35.3087 15.0341C35.6095 15.5913 35.6135 24.4708 35.7307 29.6905C35.7521 30.775 35.8534 31.8557 36.0342 32.9254L35.4456 33.2378V37.1491C35.4456 37.1491 35.9349 38.3607 37.3259 37.1491C38.7169 35.9375 40.5457 36.1751 41.0096 32.3029C41.4735 28.4308 41.4352 16.6776 41.0096 14.5192C40.584 12.3608 39.1738 11.2339 35.5306 9.9156C32.5697 8.72641 29.3962 8.14845 26.2041 8.21859C24.6018 8.25479 23.013 8.5187 21.4857 9.00244C18.5483 10.2621 19.144 13.1752 22.9326 12.6871Z" fill="white"/>
</mask>
<g mask="url(#mask0_623_483)">
<path d="M40.2364 31.9619V15.3666C40.2364 11.7687 34.1291 8.72852 26.8975 8.72852C19.6659 8.72852 13.5586 11.7687 13.5586 15.3666V31.9619C13.5586 35.5598 19.6659 38.6 26.8975 38.6C34.1291 38.6 40.2364 35.5622 40.2364 31.9619ZM26.8975 12.0476C33.0519 12.0476 36.7869 14.5487 36.9046 15.3567C36.7869 16.1845 33.0548 18.6857 26.8975 18.6857C20.7402 18.6857 17.0081 16.1845 16.8904 15.3766C17.0081 14.5487 20.7431 12.0476 26.8975 12.0476ZM16.8904 19.6928C19.3563 21.0989 22.9535 22.0047 26.8975 22.0047C30.8415 22.0047 34.4358 21.0984 36.9046 19.6928V23.654C36.7869 24.4819 33.0548 26.983 26.8975 26.983C20.7402 26.983 17.0081 24.4819 16.8904 23.664V19.6928ZM16.8904 31.9619V27.9907C19.3563 29.3969 22.9535 30.3027 26.8975 30.3027C30.8415 30.3027 34.4358 29.3963 36.9046 27.9907V31.9519C36.7869 32.7798 33.0548 35.2809 26.8975 35.2809C20.7402 35.2809 17.0081 32.7804 16.8933 31.9619H16.8904Z" fill="#FAB737"/>
</g>
<path fill-rule="evenodd" clip-rule="evenodd" d="M12.2031 19.7446C12.2298 18.7804 12.6107 17.8663 13.2633 17.2003C13.9746 16.4608 14.8123 15.8745 15.7308 15.4735C18.1224 14.4522 20.6807 13.9524 23.2555 14.0036C25.8303 13.9524 28.3886 14.4522 30.7802 15.4735C31.6984 15.8746 32.5358 16.4609 33.2469 17.2003C33.8995 17.8663 34.2804 18.7804 34.307 19.7446V33.2527C34.2804 34.2169 33.8995 35.1311 33.2469 35.797C32.536 36.5373 31.6986 37.1245 30.7802 37.5265C28.3886 38.5478 25.8303 39.0476 23.2555 38.9964C20.6807 39.0476 18.1224 38.5478 15.7308 37.5265C14.8126 37.1253 13.9752 36.5391 13.2641 35.7997C12.6106 35.1332 12.2293 34.218 12.2031 33.2527V19.7446ZM14.626 18.6081C14.3166 18.8976 14.1266 19.3061 14.0976 19.7446C14.1264 20.183 14.316 20.5915 14.6251 20.8811C15.1654 21.4299 15.7983 21.8639 16.4901 22.16C18.6424 23.0683 20.9421 23.5101 23.2555 23.4596C25.5689 23.5101 27.8686 23.0684 30.0209 22.16C30.7124 21.8638 31.345 21.4298 31.885 20.8811C32.1941 20.5915 32.3837 20.183 32.4126 19.7446C32.3837 19.3062 32.1941 18.8977 31.885 18.6081C31.345 18.0594 30.7124 17.6254 30.0209 17.3292C27.8686 16.4208 25.5689 15.9791 23.2555 16.0296C20.9421 15.9791 18.6424 16.4209 16.4901 17.3292C15.7986 17.6254 15.166 18.0594 14.626 18.6081ZM32.4134 23.0468C31.9015 23.4282 31.3545 23.7528 30.7811 24.0157C28.3895 25.037 25.8311 25.5368 23.2563 25.4856C20.6816 25.5368 18.1232 25.037 15.7316 24.0157C15.1582 23.7528 14.6112 23.4282 14.0993 23.0468V26.4977C14.1281 26.9362 14.3177 27.3446 14.6268 27.6342C15.1669 28.1829 15.7995 28.6168 16.4909 28.9131C18.6433 29.8215 20.943 30.2632 23.2563 30.2127C25.5697 30.2633 27.8694 29.8215 30.0218 28.9131C30.7132 28.6168 31.3458 28.1829 31.8859 27.6342C32.195 27.3446 32.3846 26.9362 32.4134 26.4977V23.0468ZM15.7308 30.767C15.1573 30.5042 14.6103 30.1796 14.0984 29.7982V33.25C14.1273 33.6884 14.3169 34.0969 14.626 34.3865C15.1661 34.9351 15.7986 35.3691 16.4901 35.6654C18.6424 36.5737 20.9421 37.0155 23.2555 36.965C25.5689 37.0155 27.8686 36.5737 30.0209 35.6654C30.7124 35.3691 31.3449 34.9351 31.885 34.3865C32.1941 34.0969 32.3837 33.6884 32.4126 33.25V29.7982C31.9007 30.1796 31.3537 30.5042 30.7802 30.767C28.3886 31.7883 25.8303 32.2881 23.2555 32.237C20.6807 32.2881 18.1224 31.7884 15.7308 30.767Z" fill="#464646"/>
</svg>
