<svg width="30" height="29" viewBox="0 0 30 29" fill="none" xmlns="http://www.w3.org/2000/svg">
<g id="layer-group" clip-path="url(#clip0_625_528)">
<path id="Vector" d="M28.2789 21.5332L28.279 21.5332C28.3331 21.5578 28.3948 21.6209 28.3948 21.7552C28.3948 21.8896 28.3331 21.9527 28.279 21.9772L28.2789 21.9772L15.0847 27.9578C15.0847 27.9578 15.0846 27.9579 15.0845 27.9579C14.9617 28.0134 14.8271 28.0134 14.7043 27.9579C14.7042 27.9579 14.7041 27.9578 14.704 27.9578L1.51044 21.9772L1.51035 21.9772C1.45624 21.9527 1.39453 21.8896 1.39453 21.7552C1.39453 21.6209 1.45624 21.5578 1.51035 21.5332L1.51035 21.5332L4.37588 20.2346L13.1303 24.2032L13.1305 24.2033C13.688 24.4559 14.2829 24.5853 14.8947 24.5853C15.5062 24.5853 16.1018 24.456 16.6593 24.2031L25.414 20.2347L28.2789 21.5332Z" stroke="#FAB737" stroke-width="2"/>
<path id="Vector_2" d="M14.7052 13.4592L14.7046 13.4589L1.51081 7.47374C1.51078 7.47373 1.51076 7.47372 1.51073 7.4737C1.45661 7.44911 1.39453 7.38562 1.39453 7.25042C1.39453 7.11527 1.45657 7.05177 1.51068 7.02716C1.51073 7.02714 1.51077 7.02713 1.51081 7.02711L14.7051 1.04195L14.7077 1.04076C14.7665 1.0139 14.8303 1 14.895 1C14.9596 1 15.0234 1.0139 15.0822 1.04077L15.0847 1.04192L28.278 7.02767C28.278 7.02768 28.278 7.02769 28.278 7.0277C28.3323 7.05236 28.3942 7.11584 28.3942 7.25071C28.3942 7.38562 28.3323 7.4491 28.278 7.47374L15.0842 13.4589L15.0836 13.4592C14.9613 13.5147 14.8274 13.5147 14.7052 13.4592ZM28.2789 14.2954L28.279 14.2954C28.3331 14.32 28.3948 14.3831 28.3948 14.5174C28.3948 14.6518 28.3331 14.7149 28.279 14.7394L28.2789 14.7394L15.0847 20.72C15.0847 20.72 15.0846 20.7201 15.0845 20.7201C14.9617 20.7756 14.8271 20.7756 14.7043 20.7201C14.7042 20.7201 14.7042 20.72 14.7041 20.72C14.7041 20.72 14.7041 20.72 14.704 20.72L1.51044 14.7394L1.51035 14.7394C1.45624 14.7149 1.39453 14.6518 1.39453 14.5174C1.39453 14.3831 1.45624 14.32 1.51035 14.2954L1.51036 14.2954L4.38834 12.9912L13.1304 16.9541L13.1305 16.9542C13.688 17.2068 14.2829 17.3361 14.8947 17.3361C15.5061 17.3361 16.1016 17.2069 16.659 16.9541C16.6591 16.9541 16.6592 16.954 16.6593 16.954L25.4015 12.9912L28.2789 14.2954Z" stroke="#464646" stroke-width="2"/>
</g>
<defs>
<clipPath id="clip0_625_528">
<rect width="29" height="29" fill="white" transform="translate(0.394531)"/>
</clipPath>
</defs>
</svg>
