<svg width="52" height="50" viewBox="0 0 52 50" fill="none" xmlns="http://www.w3.org/2000/svg">
<path d="M16.4007 21.4219C12.8657 21.4219 10 24.3442 10 27.9492C10 31.5541 12.8657 34.4766 16.4007 34.4766C19.9357 34.4766 22.8014 31.5541 22.8014 27.9492C22.8014 24.3442 19.9357 21.4219 16.4007 21.4219ZM21.2022 34.4761C19.8649 35.5009 18.2023 36.1082 16.4007 36.1082C14.6005 36.1082 12.9392 35.5019 11.6024 34.4786L11.6016 39.775C11.6016 40.7063 12.5688 41.2751 13.3457 40.8664L13.4889 40.7781L16.4013 38.7023L19.3126 40.7781C20.0612 41.3115 21.0724 40.8289 21.1887 39.9452L21.1998 39.775L21.2022 34.4761Z" fill="#FAB737"/>
<path d="M10 14.4868C10 12.0088 11.9699 10 14.3998 10H37.5986C40.0286 10 41.9984 12.0088 41.9984 14.4868V29.9868C41.9984 32.4649 40.0286 34.4737 37.5986 34.4737H22.7994V32.8429C22.9914 32.5824 23.1683 32.3097 23.3291 32.0263H37.5986C38.7032 32.0263 39.5986 31.1133 39.5986 29.9868V14.4868C39.5986 13.3605 38.7032 12.4474 37.5986 12.4474H14.3998C13.2953 12.4474 12.3999 13.3605 12.3999 14.4868V20.8809C11.4634 21.4333 10.6468 22.1739 10 23.0518V14.4868ZM17.5996 16.5263C16.9369 16.5263 16.3997 17.0742 16.3997 17.75C16.3997 18.4258 16.9369 18.9737 17.5996 18.9737H34.3988C35.0615 18.9737 35.5987 18.4258 35.5987 17.75C35.5987 17.0742 35.0615 16.5263 34.3988 16.5263H17.5996ZM27.1992 24.6842C26.5365 24.6842 25.9992 25.2321 25.9992 25.9079C25.9992 26.5837 26.5365 27.1316 27.1992 27.1316H34.3988C35.0615 27.1316 35.5987 26.5837 35.5987 25.9079C35.5987 25.2321 35.0615 24.6842 34.3988 24.6842H27.1992Z" fill="#464646"/>
</svg>
