<svg width="51" height="50" viewBox="0 0 51 50" fill="none" xmlns="http://www.w3.org/2000/svg">
<path d="M39.9227 13.3C37.4922 12.6539 35.1178 11.8146 32.8223 10.79C30.5638 9.81488 28.3836 8.6692 26.3007 7.363L25.7109 7L25.1322 7.374C23.0493 8.67986 20.869 9.8252 18.6105 10.8C16.3112 11.8217 13.9331 12.6577 11.4991 13.3L10.6953 13.5V22.4C10.6953 36.694 25.2075 42.043 25.3472 42.1L25.7119 42.228L26.0766 42.1C26.2263 42.1 40.7285 36.709 40.7285 22.4V13.5L39.9227 13.3ZM38.5814 22.4C38.5814 34.143 27.856 39.064 25.7109 39.94C23.5658 39.065 12.8404 34.133 12.8404 22.4V15.156C15.1038 14.5094 17.3195 13.7074 19.4716 12.756C21.6228 11.8313 23.7084 10.7622 25.7139 9.556C27.7195 10.7622 29.8051 11.8313 31.9563 12.756C34.1083 13.7074 36.324 14.5094 38.5874 15.156L38.5814 22.4Z" fill="#464646"/>
<path d="M19.1082 23.6327C18.9244 23.4775 18.689 23.397 18.4487 23.4071C18.2084 23.4173 17.9807 23.5174 17.8106 23.6876C17.6405 23.8578 17.2376 24.3611 17.2274 24.6016C17.2173 24.8421 17.2977 25.0777 17.4528 25.2616L23.5114 31L34.0152 20.7652C34.1984 20.5869 34.3032 20.3431 34.3068 20.0874C34.3103 19.8318 34.1933 19.4752 34.0152 19.2919C33.8371 19.1086 33.5934 19.0036 33.338 19.0001C33.0825 18.9966 32.8361 19.0947 32.6529 19.273L23.5114 27.8506L19.1082 23.6327Z" fill="#FAB737"/>
</svg>
