<svg width="64" height="64" viewBox="0 0 64 64" fill="none" xmlns="http://www.w3.org/2000/svg">
<path d="M52 0C58.6274 0 64 5.37258 64 12V52C64 58.6274 58.6274 64 52 64H12C5.37258 64 0 58.6274 0 52V12C0 5.37258 5.37258 0 12 0H52Z" fill="#F3E8FF"/>
<path d="M52 0C58.6274 0 64 5.37258 64 12V52C64 58.6274 58.6274 64 52 64H12C5.37258 64 0 58.6274 0 52V12C0 5.37258 5.37258 0 12 0H52Z" stroke="#E5E7EB"/>
<path d="M25.3333 42.9163H38.6667M28 37.583V42.9163M36 37.583V42.9163M20 22.9163C20 22.5627 20.1405 22.2236 20.3905 21.9735C20.6406 21.7235 20.9797 21.583 21.3333 21.583H42.6667C43.0203 21.583 43.3594 21.7235 43.6095 21.9735C43.8595 22.2236 44 22.5627 44 22.9163V36.2497C44 36.6033 43.8595 36.9424 43.6095 37.1925C43.3594 37.4425 43.0203 37.583 42.6667 37.583H21.3333C20.9797 37.583 20.6406 37.4425 20.3905 37.1925C20.1405 36.9424 20 36.6033 20 36.2497V22.9163Z" stroke="#9333EA" stroke-width="2" stroke-linecap="round" stroke-linejoin="round"/>
<path d="M25.332 29.583H27.9987L30.6654 33.583L33.332 25.583L34.6654 29.583H38.6654" stroke="#9333EA" stroke-width="2" stroke-linecap="round" stroke-linejoin="round"/>
</svg>
