<svg width="64" height="64" viewBox="0 0 64 64" fill="none" xmlns="http://www.w3.org/2000/svg">
<path d="M52 0C58.6274 0 64 5.37258 64 12V52C64 58.6274 58.6274 64 52 64H12C5.37258 64 0 58.6274 0 52V12C0 5.37258 5.37258 0 12 0H52Z" fill="#DBEAFE"/>
<path d="M52 0C58.6274 0 64 5.37258 64 12V52C64 58.6274 58.6274 64 52 64H12C5.37258 64 0 58.6274 0 52V12C0 5.37258 5.37258 0 12 0H52Z" stroke="#E5E7EB"/>
<path d="M21.3346 44.0003C20.6013 44.0003 19.9737 43.7394 19.452 43.2177C18.9302 42.6959 18.6689 42.0679 18.668 41.3337V26.667C18.668 25.9337 18.9293 25.3061 19.452 24.7843C19.9746 24.2625 20.6022 24.0012 21.3346 24.0003H26.668V21.3337C26.668 20.6003 26.9293 19.9728 27.452 19.451C27.9746 18.9292 28.6022 18.6679 29.3346 18.667H34.668C35.4013 18.667 36.0293 18.9283 36.552 19.451C37.0746 19.9737 37.3355 20.6012 37.3346 21.3337V24.0003H42.668C43.4013 24.0003 44.0293 24.2617 44.552 24.7843C45.0746 25.307 45.3355 25.9345 45.3346 26.667V41.3337C45.3346 42.067 45.0737 42.695 44.552 43.2177C44.0302 43.7403 43.4022 44.0012 42.668 44.0003H21.3346ZM21.3346 41.3337H42.668V26.667H21.3346V41.3337ZM29.3346 24.0003H34.668V21.3337H29.3346V24.0003Z" fill="#2563EB"/>
</svg>
