<svg width="25" height="25" viewBox="0 0 25 25" fill="none" xmlns="http://www.w3.org/2000/svg">
<circle cx="12.5" cy="12.5" r="12.5" fill="#FF80C6"/>
<path d="M12.0312 16.5V17.4375H8.51562C6.54688 17.4375 5 15.8438 5 13.9219C5 12.2344 6.21875 10.7812 7.85938 10.4531C7.85938 10.4531 8.14062 10.4062 8.28125 10.4062H8.375L7.625 9.65625L8.28125 9L10.1562 10.875L8.28125 12.75L7.625 12.0938L8.375 11.3438H8.28125C7.15625 11.4375 6.125 12.4219 5.98437 13.5469C5.75 15.1406 6.96875 16.5 8.51562 16.5H12.0312ZM13.4375 16.5C13.2031 16.5 12.9688 16.7344 12.9688 16.9688C12.9688 17.2031 13.2031 17.4375 13.4375 17.4375C13.6719 17.4375 13.9062 17.2031 13.9062 16.9688C13.9062 16.7344 13.6719 16.5 13.4375 16.5ZM17.1406 10.4531L17.0938 10.4062C16.7188 8.53125 15.2656 7.07813 13.3906 6.75C13.1094 6.65625 12.7812 6.65625 12.5 6.65625C11.1406 6.65625 9.875 7.26563 9.03125 8.20313L9.73438 8.90625C10.2969 8.25 11.0938 7.73438 12.0312 7.64062C12.5 7.59375 12.9219 7.59375 13.3906 7.6875C14.8906 8.01562 15.9688 9.28125 16.25 10.7344L16.3438 11.2031C16.3438 11.2344 16.3594 11.25 16.3906 11.25L16.9062 11.3438C17.4688 11.4375 17.9844 11.6719 18.3594 12.0469C18.9688 12.6562 19.25 13.5 19.0625 14.3438C18.8281 15.5156 17.8906 16.3594 16.7188 16.4531L17.4219 15.7031L16.7188 15.0938L14.8438 16.9688L16.7188 18.8438L17.375 18.1875L16.625 17.4375C18.2656 17.3438 19.625 16.1719 19.9531 14.5781C20 14.3438 20 14.1562 20 13.9688C20 12.2344 18.8281 10.7812 17.1406 10.4531Z" fill="white"/>
</svg>
