<svg width="64" height="64" viewBox="0 0 64 64" fill="none" xmlns="http://www.w3.org/2000/svg">
<path d="M52 0C58.6274 0 64 5.37258 64 12V52C64 58.6274 58.6274 64 52 64H12C5.37258 64 0 58.6274 0 52V12C0 5.37258 5.37258 0 12 0H52Z" fill="#DCFCE7"/>
<path d="M52 0C58.6274 0 64 5.37258 64 12V52C64 58.6274 58.6274 64 52 64H12C5.37258 64 0 58.6274 0 52V12C0 5.37258 5.37258 0 12 0H52Z" stroke="#E5E7EB"/>
<path d="M30.5 32.6925L28.5575 30.75L27.5 31.8075L30.5 34.8075L36.5 28.8075L35.4425 27.75L30.5 32.6925Z" fill="#16A34A"/>
<path d="M32 42.75L27.368 40.2803C26.0474 39.5779 24.943 38.5291 24.1735 37.2464C23.4039 35.9638 22.9983 34.4958 23 33V23.25C23 22.8522 23.158 22.4706 23.4393 22.1893C23.7207 21.908 24.1022 21.75 24.5 21.75H39.5C39.8978 21.75 40.2794 21.908 40.5607 22.1893C40.842 22.4706 41 22.8522 41 23.25V33C41.0018 34.4958 40.5961 35.9638 39.8265 37.2464C39.057 38.5291 37.9526 39.5779 36.632 40.2803L32 42.75ZM24.5 23.25V33C24.4992 34.2238 24.8314 35.4247 25.4611 36.474C26.0908 37.5233 26.9942 38.3815 28.0745 38.9565L32 41.0497L35.9255 38.9573C37.0059 38.3822 37.9094 37.5239 38.5391 36.4744C39.1688 35.425 39.501 34.2239 39.5 33V23.25H24.5Z" fill="#16A34A"/>
</svg>
