<svg width="25" height="25" viewBox="0 0 25 25" fill="none" xmlns="http://www.w3.org/2000/svg">
<circle cx="12.5" cy="12.5" r="12.5" fill="#FBA364"/>
<g clip-path="url(#clip0_1794_3317)">
<path d="M19.125 8V11.5C19.125 12.1882 19.0384 12.8376 18.8652 13.4482C18.6921 14.0589 18.4528 14.6354 18.1475 15.1777C17.8421 15.7201 17.4821 16.2282 17.0674 16.7021C16.6527 17.1761 16.2015 17.6204 15.7139 18.0352C15.2262 18.4499 14.7158 18.8395 14.1826 19.2041C13.6494 19.5687 13.1094 19.9105 12.5625 20.2295C12.0202 19.9105 11.4824 19.571 10.9492 19.2109C10.416 18.8509 9.9056 18.4613 9.41797 18.042C8.93034 17.6227 8.47917 17.1761 8.06445 16.7021C7.64974 16.2282 7.28743 15.7201 6.97754 15.1777C6.66764 14.6354 6.42839 14.0589 6.25977 13.4482C6.09115 12.8376 6.00456 12.1882 6 11.5V8C6.37826 8 6.74512 7.98633 7.10059 7.95898C7.45605 7.93164 7.80241 7.88151 8.13965 7.80859C8.47689 7.73568 8.80957 7.63314 9.1377 7.50098C9.46582 7.36882 9.79395 7.19792 10.1221 6.98828C10.5094 6.73763 10.8968 6.55306 11.2842 6.43457C11.6715 6.31608 12.0977 6.25456 12.5625 6.25C12.7949 6.25 13.016 6.26367 13.2256 6.29102C13.4352 6.31836 13.638 6.36393 13.834 6.42773C14.0299 6.49154 14.2259 6.56901 14.4219 6.66016C14.6178 6.7513 14.8115 6.86068 15.0029 6.98828C15.3311 7.19792 15.6592 7.36882 15.9873 7.50098C16.3154 7.63314 16.6481 7.73568 16.9854 7.80859C17.3226 7.88151 17.6689 7.93164 18.0244 7.95898C18.3799 7.98633 18.7467 8 19.125 8ZM18.25 11.5V8.86133C17.571 8.82487 16.9215 8.71549 16.3018 8.5332C15.682 8.35091 15.0827 8.0752 14.5039 7.70605C14.194 7.50553 13.8864 7.3597 13.5811 7.26855C13.2757 7.17741 12.9362 7.12956 12.5625 7.125C12.1934 7.125 11.8561 7.17057 11.5508 7.26172C11.2454 7.35286 10.9355 7.50098 10.6211 7.70605C10.0469 8.0752 9.44987 8.35091 8.83008 8.5332C8.21029 8.71549 7.55859 8.82487 6.875 8.86133V11.5C6.875 12.0788 6.9502 12.6348 7.10059 13.168C7.25098 13.7012 7.46061 14.207 7.72949 14.6855C7.99837 15.1641 8.31283 15.6198 8.67285 16.0527C9.03288 16.4857 9.4248 16.8913 9.84863 17.2695C10.2725 17.6478 10.7122 18.001 11.168 18.3291C11.6237 18.6572 12.0885 18.9535 12.5625 19.2178C13.0273 18.9489 13.4899 18.6527 13.9502 18.3291C14.4105 18.0055 14.8525 17.6546 15.2764 17.2764C15.7002 16.8981 16.0921 16.4925 16.4521 16.0596C16.8122 15.6266 17.1266 15.1709 17.3955 14.6924C17.6644 14.2139 17.8717 13.7057 18.0176 13.168C18.1634 12.6302 18.2409 12.0742 18.25 11.5ZM12.5625 8.4375C12.8633 8.4375 13.1458 8.49447 13.4102 8.6084C13.6745 8.72233 13.9046 8.87956 14.1006 9.08008C14.2965 9.2806 14.4538 9.51302 14.5723 9.77734C14.6908 10.0417 14.75 10.3242 14.75 10.625V11.5H15.625V15.875H9.5V11.5H10.375V10.625C10.375 10.3242 10.432 10.0417 10.5459 9.77734C10.6598 9.51302 10.8148 9.28288 11.0107 9.08691C11.2067 8.89095 11.4391 8.73372 11.708 8.61523C11.9769 8.49674 12.2617 8.4375 12.5625 8.4375ZM14.75 15V12.375H10.375V15H14.75ZM11.25 11.5H13.875V10.625C13.875 10.4427 13.8408 10.2718 13.7725 10.1123C13.7041 9.9528 13.6107 9.8138 13.4922 9.69531C13.3737 9.57682 13.2347 9.4834 13.0752 9.41504C12.9157 9.34668 12.7448 9.3125 12.5625 9.3125C12.3802 9.3125 12.2093 9.34668 12.0498 9.41504C11.8903 9.4834 11.7513 9.57682 11.6328 9.69531C11.5143 9.8138 11.4209 9.9528 11.3525 10.1123C11.2842 10.2718 11.25 10.4427 11.25 10.625V11.5Z" fill="white"/>
</g>
<defs>
<clipPath id="clip0_1794_3317">
<rect width="14" height="14" fill="white" transform="translate(6 6.25)"/>
</clipPath>
</defs>
</svg>
