<svg width="83" height="82" viewBox="0 0 83 82" fill="none" xmlns="http://www.w3.org/2000/svg">
<g filter="url(#filter0_d_1824_3259)">
<path d="M63.0588 26.4119L63.0597 26.4124L70.087 37.0616L66.6788 49.0296L66.6797 49.0301L62.7573 60.8576L51.0467 65.4573L39.1409 69.5692L27.9402 63.3104L17.0019 56.6054L14.7612 44.2097L13.0431 31.7467L21.4169 22.5619L30.2081 13.7099L42.9348 14.6279L55.6068 16.0628L63.0588 26.4119Z" stroke="#6D9FCC" stroke-width="1.5112" shape-rendering="crispEdges"/>
</g>
<g filter="url(#filter1_d_1824_3259)">
<path d="M55.5042 18.0924L62.7311 27.9635L69.5436 38.1015L66.3805 49.4302L62.7306 60.5997L51.5594 64.8553L40.1956 68.6454L29.4284 62.6233L18.9079 56.1801L16.6526 44.4151L14.8976 32.5903L22.8525 23.9417L31.1845 15.6397L43.3593 16.62L55.5042 18.0924Z" fill="#98BEDF"/>
</g>
<circle cx="40.8068" cy="40.8019" r="16.6232" fill="white"/>
<g clip-path="url(#clip0_1824_3259)">
<path d="M43.4557 46.3363C42.4503 45.8573 41.586 45.1262 40.9468 44.2142H33.3724V33.2142H49.8724V35.2895C50.6151 35.8105 51.2397 36.482 51.7057 37.2604V33.2142C51.7043 32.7284 51.5107 32.2629 51.1672 31.9194C50.8237 31.5759 50.3582 31.3823 49.8724 31.3809H33.3724C32.8866 31.3823 32.4211 31.5759 32.0776 31.9194C31.7341 32.2629 31.5405 32.7284 31.5391 33.2142V44.2142C31.5405 44.7 31.7341 45.1655 32.0776 45.509C32.4211 45.8525 32.8866 46.0461 33.3724 46.0475H39.7891V47.8809H37.9557V49.7142H45.2891V47.8809H43.4557V46.3363Z" fill="#434343"/>
<path d="M46.2031 35.0479C45.1153 35.0479 44.052 35.3704 43.1475 35.9748C42.243 36.5791 41.5381 37.4381 41.1218 38.4431C40.7055 39.4481 40.5966 40.554 40.8088 41.6208C41.021 42.6877 41.5449 43.6678 42.314 44.4369C43.0832 45.2061 44.0632 45.73 45.1301 45.9422C46.197 46.1544 47.3029 46.0455 48.3079 45.6292C49.3129 45.2129 50.1719 44.508 50.7762 43.6035C51.3806 42.699 51.7031 41.6356 51.7031 40.5479C51.7031 39.0892 51.1237 37.6902 50.0922 36.6588C49.0608 35.6273 47.6618 35.0479 46.2031 35.0479ZM46.2031 44.2145C45.4779 44.2145 44.769 43.9995 44.166 43.5966C43.5631 43.1937 43.0931 42.621 42.8156 41.951C42.538 41.281 42.4654 40.5438 42.6069 39.8325C42.7484 39.1213 43.0976 38.4679 43.6104 37.9551C44.1232 37.4423 44.7765 37.0931 45.4878 36.9516C46.1991 36.8102 46.9363 36.8828 47.6063 37.1603C48.2763 37.4378 48.849 37.9078 49.2518 38.5108C49.6547 39.1137 49.8698 39.8227 49.8698 40.5479C49.8686 41.5199 49.4819 42.4519 48.7945 43.1392C48.1071 43.8266 47.1752 44.2133 46.2031 44.2145Z" fill="#434343"/>
<path d="M46.2057 41.4642C46.712 41.4642 47.1224 41.0538 47.1224 40.5475C47.1224 40.0413 46.712 39.6309 46.2057 39.6309C45.6995 39.6309 45.2891 40.0413 45.2891 40.5475C45.2891 41.0538 45.6995 41.4642 46.2057 41.4642Z" fill="black"/>
</g>
<defs>
<filter id="filter0_d_1824_3259" x="10.729" y="12.3933" width="61.6983" height="60.4962" filterUnits="userSpaceOnUse" color-interpolation-filters="sRGB">
<feFlood flood-opacity="0" result="BackgroundImageFix"/>
<feColorMatrix in="SourceAlpha" type="matrix" values="0 0 0 0 0 0 0 0 0 0 0 0 0 0 0 0 0 0 127 0" result="hardAlpha"/>
<feOffset dy="0.97879"/>
<feGaussianBlur stdDeviation="0.758562"/>
<feComposite in2="hardAlpha" operator="out"/>
<feColorMatrix type="matrix" values="0 0 0 0 0.274038 0 0 0 0 0.274038 0 0 0 0 0.274038 0 0 0 0.3 0"/>
<feBlend mode="normal" in2="BackgroundImageFix" result="effect1_dropShadow_1824_3259"/>
<feBlend mode="normal" in="SourceGraphic" in2="effect1_dropShadow_1824_3259" result="shape"/>
</filter>
<filter id="filter1_d_1824_3259" x="12.8919" y="15.1013" width="57.6788" height="56.0401" filterUnits="userSpaceOnUse" color-interpolation-filters="sRGB">
<feFlood flood-opacity="0" result="BackgroundImageFix"/>
<feColorMatrix in="SourceAlpha" type="matrix" values="0 0 0 0 0 0 0 0 0 0 0 0 0 0 0 0 0 0 127 0" result="hardAlpha"/>
<feOffset dx="-0.489395" dy="0.97879"/>
<feGaussianBlur stdDeviation="0.758562"/>
<feComposite in2="hardAlpha" operator="out"/>
<feColorMatrix type="matrix" values="0 0 0 0 0.274038 0 0 0 0 0.274038 0 0 0 0 0.274038 0 0 0 0.4 0"/>
<feBlend mode="normal" in2="BackgroundImageFix" result="effect1_dropShadow_1824_3259"/>
<feBlend mode="normal" in="SourceGraphic" in2="effect1_dropShadow_1824_3259" result="shape"/>
</filter>
<clipPath id="clip0_1824_3259">
<rect width="22" height="22" fill="white" transform="translate(30.6211 29.5479)"/>
</clipPath>
</defs>
</svg>
