<svg width="59" height="55" viewBox="0 0 59 55" fill="none" xmlns="http://www.w3.org/2000/svg">
<g filter="url(#filter0_di_1800_3678)">
<path d="M4 25C4 11.1929 15.1929 0 29 0H30C43.8071 0 55 11.1929 55 25V47H4V25Z" fill="white"/>
</g>
<g clip-path="url(#clip0_1800_3678)">
<path d="M21.875 27C17.5 27 15 27.875 15 29.5V39.5C15 41.125 18.5375 42 21.875 42C25.2125 42 28.75 41.125 28.75 39.5V29.5C28.75 27.875 26.25 27 21.875 27ZM21.875 28.25C24.9812 28.25 27.5 29.09 27.5 30.125C27.5 31.16 24.9812 32 21.875 32C18.7688 32 16.25 31.16 16.25 30.125C16.25 29.09 18.7688 28.25 21.875 28.25ZM16.25 37.2975V35.9775C18.0326 36.7087 19.9491 37.057 21.875 37C23.8009 37.057 25.7174 36.7087 27.5 35.9775V37.3387C25.7046 38.0148 23.792 38.3246 21.875 38.25C19.9554 38.3081 18.0434 37.9844 16.25 37.2975ZM38.125 12C33.75 12 31.25 12.875 31.25 14.5V24.5C31.25 26.125 34.7875 27 38.125 27C41.4625 27 45 26.125 45 24.5V14.5C45 12.875 42.5 12 38.125 12ZM38.125 13.25C41.2313 13.25 43.75 14.09 43.75 15.125C43.75 16.16 41.2313 17 38.125 17C35.0187 17 32.5 16.16 32.5 15.125C32.5 14.09 35.0187 13.25 38.125 13.25ZM32.5 22.2975V20.9775C34.2826 21.7087 36.1991 22.057 38.125 22C40.0509 22.057 41.9674 21.7087 43.75 20.9775V22.3387C41.9546 23.0148 40.042 23.3246 38.125 23.25C36.2054 23.3081 34.2934 22.9844 32.5 22.2975Z" fill="#434343"/>
<path d="M39.5996 31.1504V37.8496H37.9004V34.0469L37.2168 34.7295L34.2617 37.6836L33.0654 36.4873L36.0205 33.5332L36.7031 32.8496H32.9004V31.1504H39.5996Z" stroke="#F4AC04" stroke-width="0.8"/>
</g>
<defs>
<filter id="filter0_di_1800_3678" x="0" y="0" width="59" height="55" filterUnits="userSpaceOnUse" color-interpolation-filters="sRGB">
<feFlood flood-opacity="0" result="BackgroundImageFix"/>
<feColorMatrix in="SourceAlpha" type="matrix" values="0 0 0 0 0 0 0 0 0 0 0 0 0 0 0 0 0 0 127 0" result="hardAlpha"/>
<feOffset dy="4"/>
<feGaussianBlur stdDeviation="2"/>
<feComposite in2="hardAlpha" operator="out"/>
<feColorMatrix type="matrix" values="0 0 0 0 0 0 0 0 0 0 0 0 0 0 0 0 0 0 0.11 0"/>
<feBlend mode="normal" in2="BackgroundImageFix" result="effect1_dropShadow_1800_3678"/>
<feBlend mode="normal" in="SourceGraphic" in2="effect1_dropShadow_1800_3678" result="shape"/>
<feColorMatrix in="SourceAlpha" type="matrix" values="0 0 0 0 0 0 0 0 0 0 0 0 0 0 0 0 0 0 127 0" result="hardAlpha"/>
<feOffset dy="4"/>
<feGaussianBlur stdDeviation="2"/>
<feComposite in2="hardAlpha" operator="arithmetic" k2="-1" k3="1"/>
<feColorMatrix type="matrix" values="0 0 0 0 0.264908 0 0 0 0 0.754808 0 0 0 0 0.616003 0 0 0 0.21 0"/>
<feBlend mode="normal" in2="shape" result="effect2_innerShadow_1800_3678"/>
</filter>
<clipPath id="clip0_1800_3678">
<rect width="30" height="30" fill="white" transform="translate(15 12)"/>
</clipPath>
</defs>
</svg>
