<svg width="59" height="55" viewBox="0 0 59 55" fill="none" xmlns="http://www.w3.org/2000/svg">
<g filter="url(#filter0_di_1800_3677)">
<path d="M4 25C4 11.1929 15.1929 0 29 0H30C43.8071 0 55 11.1929 55 25V47H4V25Z" fill="white"/>
</g>
<path d="M16.3315 19.0003C16.3315 16.947 16.3315 15.9203 16.7941 15.1657C17.0528 14.743 17.4075 14.3883 17.8301 14.1297C18.5835 13.667 19.6115 13.667 21.6648 13.667C23.7181 13.667 24.7448 13.667 25.4995 14.1297C25.9221 14.3883 26.2768 14.743 26.5355 15.1657C26.9981 15.919 26.9981 16.947 26.9981 19.0003C26.9981 21.0537 26.9981 22.0803 26.5355 22.835C26.2768 23.2577 25.9221 23.6123 25.4995 23.871C24.7461 24.3337 23.7181 24.3337 21.6648 24.3337C19.6115 24.3337 18.5848 24.3337 17.8301 23.871C17.4078 23.6124 17.0527 23.2573 16.7941 22.835C16.3315 22.0817 16.3315 21.0537 16.3315 19.0003ZM18.0408 30.7097C19.4368 29.3137 20.1341 28.6163 20.9608 28.4163C21.4235 28.3051 21.906 28.3051 22.3688 28.4163C23.1955 28.6163 23.8928 29.3137 25.2888 30.7097C26.6848 32.1057 27.3821 32.803 27.5821 33.6297C27.6913 34.0926 27.6913 34.5747 27.5821 35.0377C27.3821 35.8643 26.6848 36.563 25.2888 37.9577C23.8928 39.3523 23.1955 40.051 22.3688 40.251C21.906 40.3622 21.4235 40.3622 20.9608 40.251C20.1341 40.051 19.4368 39.3537 18.0408 37.9577C16.6448 36.5617 15.9475 35.8643 15.7475 35.0377C15.6363 34.5749 15.6363 34.0924 15.7475 33.6297C15.9475 32.803 16.6448 32.1043 18.0408 30.7097ZM31.6648 35.0003C31.6648 32.947 31.6648 31.9203 32.1275 31.1657C32.3861 30.743 32.7408 30.3883 33.1635 30.1297C33.9168 29.667 34.9448 29.667 36.9981 29.667C39.0515 29.667 40.0781 29.667 40.8341 30.1297C41.2555 30.3883 41.6101 30.743 41.8688 31.1657C42.3315 31.919 42.3315 32.947 42.3315 35.0003C42.3315 37.0537 42.3315 38.0803 41.8688 38.8363C41.61 39.2577 41.2555 39.6122 40.8341 39.871C40.0781 40.3337 39.0515 40.3337 36.9981 40.3337C34.9448 40.3337 33.9181 40.3337 33.1635 39.871C32.7413 39.6128 32.3862 39.2582 32.1275 38.8363C31.6648 38.0803 31.6648 37.0537 31.6648 35.0003Z" stroke="#434343" stroke-width="1.5"/>
<path d="M36.9974 13.667V24.3337M42.3307 19.0003H31.6641" stroke="#F4AC04" stroke-width="1.5" stroke-linecap="round" stroke-linejoin="round"/>
<defs>
<filter id="filter0_di_1800_3677" x="0" y="0" width="59" height="55" filterUnits="userSpaceOnUse" color-interpolation-filters="sRGB">
<feFlood flood-opacity="0" result="BackgroundImageFix"/>
<feColorMatrix in="SourceAlpha" type="matrix" values="0 0 0 0 0 0 0 0 0 0 0 0 0 0 0 0 0 0 127 0" result="hardAlpha"/>
<feOffset dy="4"/>
<feGaussianBlur stdDeviation="2"/>
<feComposite in2="hardAlpha" operator="out"/>
<feColorMatrix type="matrix" values="0 0 0 0 0 0 0 0 0 0 0 0 0 0 0 0 0 0 0.11 0"/>
<feBlend mode="normal" in2="BackgroundImageFix" result="effect1_dropShadow_1800_3677"/>
<feBlend mode="normal" in="SourceGraphic" in2="effect1_dropShadow_1800_3677" result="shape"/>
<feColorMatrix in="SourceAlpha" type="matrix" values="0 0 0 0 0 0 0 0 0 0 0 0 0 0 0 0 0 0 127 0" result="hardAlpha"/>
<feOffset dy="4"/>
<feGaussianBlur stdDeviation="2"/>
<feComposite in2="hardAlpha" operator="arithmetic" k2="-1" k3="1"/>
<feColorMatrix type="matrix" values="0 0 0 0 0.308724 0 0 0 0 0.8125 0 0 0 0 0.242188 0 0 0 0.21 0"/>
<feBlend mode="normal" in2="shape" result="effect2_innerShadow_1800_3677"/>
</filter>
</defs>
</svg>
