<svg width="59" height="55" viewBox="0 0 59 55" fill="none" xmlns="http://www.w3.org/2000/svg">
<g filter="url(#filter0_di_1800_3679)">
<path d="M4 25C4 11.1929 15.1929 0 29 0H30C43.8071 0 55 11.1929 55 25V47H4V25Z" fill="white"/>
</g>
<g clip-path="url(#clip0_1800_3679)">
<path d="M42.8351 25.5071C42.639 23.0712 41.7261 20.7479 40.2115 18.8301C38.6969 16.9123 36.6484 15.4859 34.3242 14.7307C32 13.9755 29.5043 13.9254 27.1517 14.5866C24.799 15.2478 22.6949 16.5908 21.1044 18.4462C19.514 20.3016 18.5085 22.5864 18.2147 25.0125C17.921 27.4385 18.3521 29.8973 19.4538 32.0786C20.5554 34.26 22.2783 36.0664 24.4051 37.27C26.5319 38.4736 28.9675 39.0205 31.4047 38.8419" stroke="#434343" stroke-width="2" stroke-linecap="round" stroke-linejoin="round"/>
<path d="M30.5 19.625V26.5L32.5625 28.5625" stroke="#434343" stroke-width="2" stroke-linecap="round" stroke-linejoin="round"/>
<g clip-path="url(#clip1_1800_3679)">
<path d="M40.58 41.9274C39.4903 41.2148 38.5689 40.2732 37.8159 39.1027C37.0629 37.9322 36.5357 36.6258 36.2342 35.1835C35.9328 33.7413 35.8922 32.3332 36.1126 30.9594C36.3329 29.5855 36.7994 28.3534 37.5119 27.2631C37.6145 27.1062 37.7524 27.0096 37.9254 26.9734C38.0984 26.9372 38.2634 26.9704 38.4203 27.073L40.5388 28.4584C40.6609 28.5382 40.7427 28.651 40.7843 28.7967C40.8259 28.9424 40.8185 29.0775 40.7621 29.2019L39.9048 31.255C39.831 31.4059 39.7497 31.5207 39.6608 31.5995C39.572 31.6783 39.4699 31.7298 39.3545 31.7539L37.248 32.2059C37.2114 32.6425 37.2146 33.0894 37.2576 33.5467C37.3006 34.004 37.3748 34.4665 37.4801 34.9341C37.5737 35.3811 37.693 35.8172 37.8382 36.2422C37.9835 36.6672 38.1591 37.0838 38.3652 37.4919L40.3983 37.0665C40.5281 37.0394 40.669 37.0477 40.8211 37.0914C40.9733 37.1351 41.1046 37.2053 41.2151 37.302L42.7803 38.8483C42.8796 38.963 42.9384 39.0918 42.9569 39.2349C42.9754 39.3779 42.9477 39.5059 42.8738 39.6189L41.4884 41.7374C41.3858 41.8943 41.248 41.9908 41.0749 42.027C40.9019 42.0632 40.7369 42.03 40.58 41.9274ZM37.401 30.8871L38.8285 30.5884L39.41 29.2138L38.2462 28.4527C38.056 28.8387 37.8862 29.2317 37.7366 29.6317C37.587 30.0317 37.4751 30.4502 37.401 30.8871ZM39.021 38.6302C39.2641 39.0008 39.5337 39.3451 39.83 39.6633C40.1262 39.9815 40.4443 40.2705 40.7843 40.5301L41.5369 39.3794L40.4701 38.327L39.021 38.6302Z" fill="#F4AC04"/>
</g>
</g>
<defs>
<filter id="filter0_di_1800_3679" x="0" y="0" width="59" height="55" filterUnits="userSpaceOnUse" color-interpolation-filters="sRGB">
<feFlood flood-opacity="0" result="BackgroundImageFix"/>
<feColorMatrix in="SourceAlpha" type="matrix" values="0 0 0 0 0 0 0 0 0 0 0 0 0 0 0 0 0 0 127 0" result="hardAlpha"/>
<feOffset dy="4"/>
<feGaussianBlur stdDeviation="2"/>
<feComposite in2="hardAlpha" operator="out"/>
<feColorMatrix type="matrix" values="0 0 0 0 0 0 0 0 0 0 0 0 0 0 0 0 0 0 0.11 0"/>
<feBlend mode="normal" in2="BackgroundImageFix" result="effect1_dropShadow_1800_3679"/>
<feBlend mode="normal" in="SourceGraphic" in2="effect1_dropShadow_1800_3679" result="shape"/>
<feColorMatrix in="SourceAlpha" type="matrix" values="0 0 0 0 0 0 0 0 0 0 0 0 0 0 0 0 0 0 127 0" result="hardAlpha"/>
<feOffset dy="4"/>
<feGaussianBlur stdDeviation="2"/>
<feComposite in2="hardAlpha" operator="arithmetic" k2="-1" k3="1"/>
<feColorMatrix type="matrix" values="0 0 0 0 0.856546 0 0 0 0 0.323225 0 0 0 0 0.884615 0 0 0 0.21 0"/>
<feBlend mode="normal" in2="shape" result="effect2_innerShadow_1800_3679"/>
</filter>
<clipPath id="clip0_1800_3679">
<rect width="33" height="33" fill="white" transform="translate(14 10)"/>
</clipPath>
<clipPath id="clip1_1800_3679">
<rect width="15" height="15" fill="white" transform="translate(37.3281 24.1182) rotate(33.183)"/>
</clipPath>
</defs>
</svg>
