<svg width="1460" height="450" viewBox="0 0 1460 450" fill="none" xmlns="http://www.w3.org/2000/svg">
<path d="M-6 44.6671C71.3333 40.0004 250.8 66.6671 350 210.667C449.2 354.667 627.333 290.667 704 240.667C768.667 190 908.8 119.067 952 240.667C977.333 287.334 1049.2 375.467 1134 354.667C1172 346.667 1261.2 312.667 1314 240.667C1350 184.667 1429.4 171.867 1455 232.667" stroke="#5FC6F2" stroke-opacity="0.4"/>
<path d="M-3.51953 0.498047C76.0925 7.45528 255.407 60.7007 335.77 218.024C416.133 375.348 607.241 338.687 692.749 300.69C766.106 260.238 919.433 211.029 945.885 337.809C964.973 387.773 1006 461.667 1110 447.667C1219 432.994 1275.66 244.003 1340 180.667C1382 127.667 1458.69 134.679 1476 198.667" stroke="#5FC6F2" stroke-opacity="0.4"/>
<path d="M-5.72266 39.572C71.8639 36.1969 251.314 65.8168 348.421 211.297C445.528 356.778 625.103 295.815 702.752 247.149C768.384 197.617 909.983 129.098 951.322 251.273C975.962 298.306 1044.4 384.857 1131.33 364.813C1177.22 356.072 1262.81 304.85 1316.89 233.813C1353.56 178.146 1432.66 167.548 1457.33 228.702" stroke="#5FC6F2" stroke-opacity="0.4"/>
<path d="M-5.44922 34.5616C72.3905 32.478 251.823 65.0511 346.837 212.012C441.851 358.973 622.868 301.048 701.499 253.715C768.097 205.319 911.162 139.213 950.641 261.964C974.586 309.363 1039.6 394.333 1128.67 375.044C1182.44 365.561 1264.41 297.118 1319.78 227.044C1357.11 171.71 1435.91 163.313 1459.67 224.821" stroke="#5FC6F2" stroke-opacity="0.4"/>
<path d="M-5.17188 29.63C72.921 28.838 252.337 64.3643 345.258 212.806C438.179 361.247 620.637 306.36 700.251 260.361C767.814 213.099 912.346 149.407 949.963 272.734C973.215 320.499 1034.8 403.886 1126 385.353C1187.67 375.129 1266.02 289.465 1322.67 220.353C1360.67 165.353 1439.16 159.157 1462 221.02" stroke="#5FC6F2" stroke-opacity="0.4"/>
<path d="M-4.89844 24.7646C73.4477 25.2642 252.847 63.7436 343.675 213.665C434.503 363.587 618.402 311.737 698.999 267.072C767.528 220.946 913.525 159.667 949.282 283.569C971.839 331.702 1030 413.507 1123.33 395.729C1192.89 384.763 1267.63 281.878 1325.55 213.729C1364.22 159.062 1442.42 155.067 1464.33 217.284" stroke="#5FC6F2" stroke-opacity="0.4"/>
<path d="M-4.62109 19.9111C73.9782 21.7022 253.36 63.1348 342.095 214.537C430.83 365.939 616.172 317.127 697.75 273.796C767.245 228.804 914.708 169.94 948.604 294.417C970.467 342.916 1025.2 423.139 1120.67 406.116C1198.11 394.409 1269.23 274.303 1328.44 207.116C1367.78 152.783 1445.67 150.989 1466.66 213.56" stroke="#5FC6F2" stroke-opacity="0.4"/>
<path d="M-4.34375 15.0576C74.5087 18.1402 253.874 62.526 340.516 215.409C427.158 368.291 613.941 322.517 696.502 280.519C766.962 236.662 915.891 180.212 947.926 305.265C969.096 354.13 1020.4 432.771 1118 416.504C1203.33 404.055 1270.84 266.728 1331.33 200.504C1371.33 146.503 1448.93 146.911 1469 209.837" stroke="#5FC6F2" stroke-opacity="0.4"/>
<path d="M-4.07031 10.2041C75.0353 14.5782 254.384 61.9173 338.933 216.28C423.481 370.643 611.706 327.906 695.25 287.243C766.675 244.521 917.07 190.484 947.245 316.112C967.72 365.344 1015.6 442.403 1115.33 426.891C1208.55 413.701 1272.45 259.152 1334.22 193.891C1374.89 140.224 1452.18 142.833 1471.33 206.113" stroke="#5FC6F2" stroke-opacity="0.4"/>
<path d="M-3.79297 5.35059C75.5659 11.0163 254.897 61.3085 337.353 217.152C419.809 372.995 609.475 333.296 694.001 293.966C766.393 252.379 918.254 200.756 946.567 326.96C966.349 376.558 1010.8 452.035 1112.67 437.279C1213.78 423.347 1274.05 251.577 1337.11 187.279C1378.44 133.945 1455.43 138.756 1473.66 202.39" stroke="#5FC6F2" stroke-opacity="0.4"/>
</svg>
