<svg width="36" height="36" viewBox="0 0 36 36" fill="none" xmlns="http://www.w3.org/2000/svg">
<mask id="mask0_385_1069" style="mask-type:luminance" maskUnits="userSpaceOnUse" x="0" y="0" width="36" height="36">
<path d="M0 0H36V36H0V0Z" fill="white"/>
</mask>
<g mask="url(#mask0_385_1069)">
<path d="M18.0234 22.9434C15.3052 22.9434 13.1016 20.7398 13.1016 18.0215C13.1016 15.3032 15.3052 13.0996 18.0234 13.0996C20.7417 13.0996 22.9453 15.3032 22.9453 18.0215C22.9453 20.7398 20.7417 22.9434 18.0234 22.9434ZM29.2734 19.6759V16.3671L27.0182 15.8364C26.7901 14.895 26.4192 14.0118 25.9281 13.2073L27.1482 11.2364L24.8085 8.89668L22.8376 10.1168C22.0331 9.62575 21.1499 9.25479 20.2085 9.02676L19.6778 6.77149H16.3691L15.8383 9.02676C14.8969 9.25479 14.0138 9.62575 13.2093 10.1168L11.2384 8.89668L8.89863 11.2364L10.1188 13.2073C9.6277 14.0118 9.25673 14.895 9.02871 15.8364L6.77344 16.3671V19.6759L9.02871 20.2066C9.25673 21.148 9.6277 22.0311 10.1188 22.8356L8.89863 24.8066L11.2384 27.1463L13.2093 25.9262C14.0138 26.4172 14.8969 26.7882 15.8383 27.0162L16.3691 29.2715H19.6778L20.2085 27.0162C21.1499 26.7882 22.0331 26.4172 22.8376 25.9262L24.8085 27.1463L27.1482 24.8066L25.9281 22.8356C26.4192 22.0311 26.7901 21.148 27.0182 20.2066L29.2734 19.6759Z" stroke="black" stroke-width="2.4" stroke-miterlimit="10" stroke-linecap="round" stroke-linejoin="round"/>
<path d="M24.9688 5.72461L28.9021 5.03105L28.2085 1.09769" stroke="#F5973A" stroke-width="2.4" stroke-miterlimit="10" stroke-linecap="round" stroke-linejoin="round"/>
<path d="M11.1287 30.2774L7.19531 30.9709L7.88888 34.9043" stroke="#F5973A" stroke-width="2.4" stroke-miterlimit="10" stroke-linecap="round" stroke-linejoin="round"/>
<path d="M28.9141 5.03469C25.9687 2.56061 22.171 1.06836 18.0234 1.06836C8.66484 1.06836 1.07812 8.65501 1.07812 18.0137" stroke="#F5973A" stroke-width="2.4" stroke-miterlimit="10" stroke-linecap="round" stroke-linejoin="round"/>
<path d="M7.19531 30.9906C10.1407 33.4648 13.9384 34.957 18.086 34.957C27.4446 34.957 35.0313 27.3703 35.0313 18.0117" stroke="#F5973A" stroke-width="2.4" stroke-miterlimit="10" stroke-linecap="round" stroke-linejoin="round"/>
</g>
</svg>
