<svg width="31" height="30" viewBox="0 0 31 30" fill="none" xmlns="http://www.w3.org/2000/svg">
<path d="M23.9703 8.07911H4.56537C2.60031 8.07911 1.00781 6.48812 1.00781 4.52491C1.00781 2.56169 2.60031 0.970703 4.56537 0.970703H23.9703C25.9353 0.970703 27.5278 2.56169 27.5278 4.52491C27.5278 6.48812 25.9353 8.07911 23.9703 8.07911Z" fill="#F6FCFF"/>
<path d="M23.9703 15.1826H4.56537C2.60031 15.1826 1.00781 13.5916 1.00781 11.6284C1.00781 9.66521 2.60031 8.07422 4.56537 8.07422H23.9703C25.9353 8.07422 27.5278 9.66521 27.5278 11.6284C27.5278 13.5916 25.9353 15.1826 23.9703 15.1826Z" fill="#F1FAFF"/>
<path d="M23.9703 22.2881H4.56537C2.60031 22.2881 1.00781 20.6971 1.00781 18.7339C1.00781 16.7707 2.60031 15.1797 4.56537 15.1797H23.9703C25.9353 15.1797 27.5278 16.7707 27.5278 18.7339C27.5278 20.6971 25.9353 22.2881 23.9703 22.2881Z" fill="#F6FCFF"/>
<path d="M29.6292 14.71L23.5667 12.65C23.3856 12.588 23.1903 12.588 23.0092 12.65L16.9466 14.71C16.5948 14.8289 16.3594 15.1584 16.3594 15.5293V20.1649C16.3594 25.824 22.6806 28.574 22.9497 28.6877C23.167 28.7795 23.4089 28.7795 23.6262 28.6877C23.8952 28.574 30.2165 25.824 30.2165 20.1649V15.5293C30.2165 15.1584 29.9811 14.8302 29.6292 14.71Z" fill="#FF8F29" fill-opacity="0.85"/>
<path d="M23.9327 9.04707H4.5278C2.03104 9.04707 0 7.01794 0 4.52354C0 2.02913 2.03104 0 4.5278 0H23.9327C26.4294 0 28.4605 2.02913 28.4605 4.52354C28.4605 7.01794 26.4294 9.04707 23.9327 9.04707ZM4.5278 1.93866C3.1009 1.93866 1.94049 3.09798 1.94049 4.52354C1.94049 5.9491 3.1009 7.10841 4.5278 7.10841H23.9327C25.3596 7.10841 26.52 5.9491 26.52 4.52354C26.52 3.09798 25.3596 1.93866 23.9327 1.93866H4.5278Z" fill="#464646"/>
<path d="M6.50435 5.82668C7.21867 5.82668 7.79775 5.24812 7.79775 4.53443C7.79775 3.82074 7.21867 3.24219 6.50435 3.24219C5.79002 3.24219 5.21094 3.82074 5.21094 4.53443C5.21094 5.24812 5.79002 5.82668 6.50435 5.82668Z" fill="#464646"/>
<path d="M11.6137 5.82472C12.328 5.82472 12.9071 5.24616 12.9071 4.53248C12.9071 3.81879 12.328 3.24023 11.6137 3.24023C10.8994 3.24023 10.3203 3.81879 10.3203 4.53248C10.3203 5.24616 10.8994 5.82472 11.6137 5.82472Z" fill="#464646"/>
<path d="M11.9663 16.1623H4.5278C2.03104 16.1623 0 14.1332 0 11.6388C0 10.4381 0.487709 9.27232 1.33764 8.43869C2.15912 7.60248 3.326 7.11523 4.5278 7.11523H23.9327C25.1927 7.11523 26.3919 7.64126 27.2263 8.5576C27.586 8.95438 27.5562 9.56699 27.1591 9.92758C26.7619 10.2856 26.1513 10.2584 25.7878 9.86037C25.3156 9.34081 24.6571 9.05389 23.9327 9.05389H4.5278C3.8344 9.05389 3.18887 9.32272 2.71021 9.80997C2.20957 10.3011 1.94049 10.946 1.94049 11.6388C1.94049 13.0643 3.1009 14.2236 4.5278 14.2236H11.9663C12.5019 14.2236 12.9366 14.6579 12.9366 15.193C12.9366 15.728 12.5019 16.1623 11.9663 16.1623Z" fill="#464646"/>
<path d="M6.50435 12.9243C7.21867 12.9243 7.79775 12.3458 7.79775 11.6321C7.79775 10.9184 7.21867 10.3398 6.50435 10.3398C5.79002 10.3398 5.21094 10.9184 5.21094 11.6321C5.21094 12.3458 5.79002 12.9243 6.50435 12.9243Z" fill="#464646"/>
<path d="M11.6137 12.9243C12.328 12.9243 12.9071 12.3458 12.9071 11.6321C12.9071 10.9184 12.328 10.3398 11.6137 10.3398C10.8994 10.3398 10.3203 10.9184 10.3203 11.6321C10.3203 12.3458 10.8994 12.9243 11.6137 12.9243Z" fill="#464646"/>
<path d="M11.964 23.2586H4.52693C2.03065 23.2586 0 21.2298 0 18.7357C0 17.5352 0.487615 16.3696 1.33738 15.5361C2.1587 14.7001 3.32535 14.2129 4.52693 14.2129H11.3173C11.8528 14.2129 12.2874 14.6471 12.2874 15.1821C12.2874 15.7171 11.8528 16.1513 11.3173 16.1513H4.52693C3.83366 16.1513 3.18825 16.42 2.70969 16.9072C2.20914 17.3983 1.94011 18.0431 1.94011 18.7357C1.94011 20.1611 3.1003 21.3202 4.52693 21.3202H11.964C12.4995 21.3202 12.9341 21.7544 12.9341 22.2894C12.9341 22.8244 12.4995 23.2586 11.964 23.2586Z" fill="#464646"/>
<path d="M6.50435 20.0337C7.21867 20.0337 7.79775 19.4551 7.79775 18.7415C7.79775 18.0278 7.21867 17.4492 6.50435 17.4492C5.79002 17.4492 5.21094 18.0278 5.21094 18.7415C5.21094 19.4551 5.79002 20.0337 6.50435 20.0337Z" fill="#464646"/>
<path d="M11.6137 20.0337C12.328 20.0337 12.9071 19.4551 12.9071 18.7415C12.9071 18.0278 12.328 17.4492 11.6137 17.4492C10.8994 17.4492 10.3203 18.0278 10.3203 18.7415C10.3203 19.4551 10.8994 20.0337 11.6137 20.0337Z" fill="#464646"/>
<path d="M23.2377 29.7148C23.1032 29.7148 22.97 29.6877 22.8445 29.6321C22.5444 29.499 15.4766 26.3005 15.4766 19.7457V14.6681C15.4766 14.2416 15.7547 13.8656 16.1621 13.7415L22.9531 11.6647C23.1381 11.6066 23.3373 11.6066 23.521 11.6647L30.312 13.7415C30.7195 13.8656 30.9976 14.2416 30.9976 14.6681V19.7457C30.9976 26.3005 23.9298 29.499 23.6297 29.6308C23.5055 29.6877 23.3722 29.7148 23.2377 29.7148ZM17.4169 15.3854V19.7457C17.4169 24.2611 21.8692 26.9453 23.2364 27.6639C24.6024 26.9427 29.0586 24.2443 29.0586 19.7457V15.3854L23.2377 13.6045L17.4169 15.3854Z" fill="#464646"/>
<path d="M22.6707 23.254C22.4133 23.254 22.1663 23.1519 21.9852 22.9697L19.7217 20.7083C19.3428 20.3296 19.3428 19.7158 19.7217 19.3372C20.1007 18.9586 20.7151 18.9586 21.094 19.3372L22.6461 20.8866L26.1642 17.1003C26.5302 16.7075 27.1433 16.6868 27.5365 17.0499C27.9284 17.4143 27.9504 18.0282 27.5869 18.421L23.3834 22.9439C23.2036 23.1351 22.954 23.2475 22.6901 23.2527C22.6823 23.254 22.6772 23.254 22.6707 23.254Z" fill="#464646"/>
</svg>
