<svg width="22" height="34" viewBox="0 0 22 34" fill="none" xmlns="http://www.w3.org/2000/svg">
<g clip-path="url(#clip0_385_1007)">
<path fill-rule="evenodd" clip-rule="evenodd" d="M16.9044 0H3.32776C1.49286 0 0 1.49279 0 3.3277V30.196C0 32.0309 1.49286 33.5238 3.32776 33.5238H16.9044C18.7393 33.5238 20.2321 32.0309 20.2321 30.196V3.3277C20.2321 1.49279 18.7393 0 16.9044 0ZM13.8536 2.09524L13.5403 3.0597H6.69186L6.37849 2.09524H13.8536ZM18.1369 30.196C18.1369 30.8757 17.584 31.4286 16.9044 31.4286H3.32776C2.64812 31.4286 2.09524 30.8757 2.09524 30.196V3.3277C2.09524 2.64812 2.64812 2.09524 3.32776 2.09524H4.17542L4.93435 4.4311C5.0746 4.86272 5.47682 5.15501 5.9307 5.15501H14.3014C14.7553 5.15501 15.1575 4.86272 15.2978 4.4311L16.0567 2.09524H16.9044C17.584 2.09524 18.1369 2.64812 18.1369 3.3277V30.196ZM11.7529 27.983C11.7529 28.8846 11.0176 29.6199 10.116 29.6199C9.2144 29.6199 8.4791 28.8846 8.4791 27.983C8.4791 27.0814 9.2144 26.3461 10.116 26.3461C11.0177 26.3461 11.7529 27.0814 11.7529 27.983Z" fill="#111431"/>
<path fill-rule="evenodd" clip-rule="evenodd" d="M16.9044 0H3.32776C1.49286 0 0 1.49279 0 3.3277V30.196C0 32.0309 1.49286 33.5238 3.32776 33.5238H16.9044C18.7393 33.5238 20.2321 32.0309 20.2321 30.196V3.3277C20.2321 1.49279 18.7393 0 16.9044 0ZM13.8536 2.09524L13.5403 3.0597H6.69186L6.37849 2.09524H13.8536ZM18.1369 30.196C18.1369 30.8757 17.584 31.4286 16.9044 31.4286H3.32776C2.64812 31.4286 2.09524 30.8757 2.09524 30.196V3.3277C2.09524 2.64812 2.64812 2.09524 3.32776 2.09524H4.17542L4.93435 4.4311C5.0746 4.86272 5.47682 5.15501 5.9307 5.15501H14.3014C14.7553 5.15501 15.1575 4.86272 15.2978 4.4311L16.0567 2.09524H16.9044C17.584 2.09524 18.1369 2.64812 18.1369 3.3277V30.196ZM11.7529 27.983C11.7529 28.8846 11.0176 29.6199 10.116 29.6199C9.2144 29.6199 8.4791 28.8846 8.4791 27.983C8.4791 27.0814 9.2144 26.3461 10.116 26.3461C11.0177 26.3461 11.7529 27.0814 11.7529 27.983Z" fill="black" fill-opacity="0.2"/>
<path fill-rule="evenodd" clip-rule="evenodd" d="M9.78199 8.73047C9.20341 8.73047 8.73437 9.1995 8.73437 9.77809V17.4127C7.90277 17.8515 7.33594 18.7248 7.33594 19.7305C7.33594 21.1769 8.50852 22.3495 9.95498 22.3495C11.4014 22.3495 12.574 21.1769 12.574 19.7305C12.574 18.5907 11.846 17.621 10.8296 17.261V14.6675L12.5774 14.6675C13.156 14.6675 13.625 14.1985 13.625 13.6199C13.625 13.0413 13.156 12.5723 12.5774 12.5723L10.8296 12.5723V11.5249H11.8743C12.4528 11.5249 12.9219 11.0559 12.9219 10.4773C12.9219 9.89872 12.4528 9.42969 11.8743 9.42969L10.7703 9.42969C10.6267 9.02237 10.2384 8.73047 9.78199 8.73047ZM9.95498 20.678C9.43167 20.678 9.00744 20.2538 9.00744 19.7305C9.00744 19.2072 9.43167 18.7829 9.95498 18.7829C10.4783 18.7829 10.9025 19.2072 10.9025 19.7305C10.9025 20.2538 10.4783 20.678 9.95498 20.678Z" fill="#F5973A"/>
</g>
<defs>
<clipPath id="clip0_385_1007">
<rect width="22" height="33.5238" fill="white"/>
</clipPath>
</defs>
</svg>
