<svg width="33" height="33" viewBox="0 0 33 33" fill="none" xmlns="http://www.w3.org/2000/svg">
<path d="M15.9354 12.0985H17.0349C17.6396 12.0985 18.1343 11.6035 18.1343 10.9985C18.1343 10.3934 17.6396 9.89844 17.0349 9.89844H15.9354C15.3307 9.89844 14.8359 10.3934 14.8359 10.9985C14.8359 11.6035 15.3307 12.0985 15.9354 12.0985Z" fill="#464646"/>
<path d="M10.4688 10.4501V13.2002C10.4688 15.0152 11.953 16.5002 13.7671 16.5002H19.2644C21.0785 16.5002 22.5628 15.0152 22.5628 13.2002V10.4501C22.5628 8.45912 21.5623 6.61109 19.9461 5.50008C20.0231 5.20307 20.089 4.89507 20.089 4.56507V3.08004C20.089 1.38602 18.7037 0 17.0105 0H16.021C14.3279 0 12.9425 1.38602 12.9425 3.08004V4.56507C12.9425 4.88407 12.9975 5.20307 13.0855 5.50008C11.4803 6.62209 10.4688 8.45912 10.4688 10.4501ZM15.1415 3.08004C15.1415 2.59604 15.5373 2.20003 16.021 2.20003H17.0105C17.4943 2.20003 17.8901 2.59604 17.8901 3.08004V4.56507C17.8901 5.32408 17.2744 5.94009 16.5158 5.94009C15.7572 5.94009 15.1415 5.32408 15.1415 4.56507V3.08004ZM12.6677 10.4501C12.6677 9.20713 13.2834 8.05212 14.2839 7.33711C14.8996 7.83211 15.6692 8.14012 16.5158 8.14012C17.3624 8.14012 18.132 7.83211 18.7477 7.33711C19.7482 8.05212 20.3639 9.20713 20.3639 10.4501V13.2002C20.3639 13.8052 19.8691 14.3002 19.2644 14.3002H13.7671C13.1624 14.3002 12.6677 13.8052 12.6677 13.2002V10.4501Z" fill="#464646"/>
<path d="M9.47735 24.2013C9.55431 23.9042 9.62028 23.5962 9.62028 23.2662V21.7812C9.62028 20.0872 8.23496 18.7012 6.54179 18.7012H5.55228C3.85911 18.7012 2.47379 20.0872 2.47379 21.7812V23.2662C2.47379 23.5852 2.52876 23.8932 2.61672 24.2013C1.0115 25.3233 0 27.1603 0 29.1513V29.7013C0 31.5164 1.48427 33.0014 3.29838 33.0014H8.79568C10.6098 33.0014 12.0941 31.5164 12.0941 29.7013V29.1513C12.0941 27.1603 11.0936 25.3123 9.47735 24.2013ZM4.67271 21.7812C4.67271 21.2972 5.06851 20.9012 5.55228 20.9012H6.54179C7.02555 20.9012 7.42136 21.2972 7.42136 21.7812V23.2662C7.42136 24.0252 6.80566 24.6413 6.04703 24.6413C5.2884 24.6413 4.67271 24.0252 4.67271 23.2662V21.7812ZM9.89514 29.7013C9.89514 30.3063 9.40039 30.8013 8.79568 30.8013H3.29838C2.69368 30.8013 2.19892 30.3063 2.19892 29.7013V29.1513C2.19892 27.9083 2.81462 26.7533 3.81513 26.0383C4.43083 26.5333 5.20045 26.8413 6.04703 26.8413C6.89362 26.8413 7.66324 26.5333 8.27894 26.0383C9.27945 26.7533 9.89514 27.9083 9.89514 29.1513V29.7013Z" fill="#464646"/>
<path d="M30.3836 24.2013C30.4606 23.9042 30.5265 23.5962 30.5265 23.2662V21.7812C30.5265 20.0872 29.1412 18.7012 27.448 18.7012H26.4585C24.7654 18.7012 23.38 20.0872 23.38 21.7812V23.2662C23.38 23.5852 23.435 23.8932 23.523 24.2013C21.9178 25.3233 20.9062 27.1603 20.9062 29.1513V29.7013C20.9062 31.5164 22.3905 33.0014 24.2046 33.0014H29.7019C31.516 33.0014 33.0003 31.5164 33.0003 29.7013V29.1513C33.0003 27.1603 31.9998 25.3123 30.3836 24.2013ZM25.579 21.7812C25.579 21.2972 25.9748 20.9012 26.4585 20.9012H27.448C27.9318 20.9012 28.3276 21.2972 28.3276 21.7812V23.2662C28.3276 24.0252 27.7119 24.6413 26.9533 24.6413C26.1947 24.6413 25.579 24.0252 25.579 23.2662V21.7812ZM30.8014 29.7013C30.8014 30.3063 30.3066 30.8013 29.7019 30.8013H24.2046C23.5999 30.8013 23.1052 30.3063 23.1052 29.7013V29.1513C23.1052 27.9083 23.7209 26.7533 24.7214 26.0383C25.3371 26.5333 26.1067 26.8413 26.9533 26.8413C27.7999 26.8413 28.5695 26.5333 29.1852 26.0383C30.1857 26.7533 30.8014 27.9083 30.8014 29.1513V29.7013Z" fill="#464646"/>
<path d="M18.4939 28.416C17.0316 28.658 15.9212 28.658 14.4589 28.416C13.8432 28.306 13.2935 28.724 13.1945 29.3181C13.0956 29.9121 13.5024 30.4841 14.0961 30.5831C14.9537 30.7261 15.7233 30.7921 16.4819 30.7921C17.2405 30.7921 18.0102 30.7261 18.8677 30.5831C19.4614 30.4841 19.8682 29.9121 19.7693 29.3181C19.6703 28.724 19.1096 28.317 18.5049 28.416H18.4939Z" fill="#F6A039"/>
<path d="M3.28696 17.6049C3.89166 17.6049 4.38642 17.1099 4.38642 16.5049C4.38642 12.1818 6.72827 8.15579 10.4884 6.01076C11.0162 5.71375 11.2031 5.04274 10.8952 4.51474C10.5874 3.98673 9.9277 3.79973 9.39996 4.10773C4.94715 6.64877 2.1875 11.4118 2.1875 16.5159C2.1875 17.1209 2.68226 17.6159 3.28696 17.6159V17.6049Z" fill="#F6A039"/>
<path d="M22.4725 6.0032C26.2436 8.15923 28.5745 12.1853 28.5745 16.4973C28.5745 17.1024 29.0692 17.5974 29.6739 17.5974C30.2786 17.5974 30.7734 17.1024 30.7734 16.4973C30.7734 11.3823 28.0137 6.63021 23.5609 4.08917C23.0332 3.79217 22.3625 3.96817 22.0657 4.49618C21.7688 5.02418 21.9447 5.69519 22.4725 5.9922V6.0032Z" fill="#F6A039"/>
</svg>
