<svg width="34" height="34" viewBox="0 0 34 34" fill="none" xmlns="http://www.w3.org/2000/svg">
<g clip-path="url(#clip0_385_1112)">
<path d="M13.5997 10.7566C12.1826 10.3037 10.3152 10.0547 8.34165 10.0547C6.36805 10.0547 4.50071 10.3037 3.0836 10.7566C0.876914 11.4612 0.414062 12.4606 0.414062 13.1745V15.1135C0.414062 15.8274 0.878907 16.8268 3.0836 17.5314C4.50071 17.9843 6.36805 18.2333 8.34165 18.2333C10.3152 18.2333 12.1826 17.9843 13.5997 17.5314C15.8064 16.8268 16.2692 15.8274 16.2692 15.1135V13.1745C16.2692 12.4606 15.8044 11.4612 13.5997 10.7566ZM14.5433 15.0923C14.4816 15.2178 14.0572 15.6116 12.8075 15.9682C11.5876 16.3161 10.0011 16.5074 8.34165 16.5074C6.68215 16.5074 5.09571 16.3161 3.87582 15.9682C2.62606 15.6116 2.20238 15.2184 2.13996 15.0923V13.1964C2.20238 13.0702 2.62606 12.6771 3.87582 12.3205C5.09571 11.9725 6.68215 11.7813 8.34165 11.7813C10.0011 11.7813 11.5869 11.9725 12.8075 12.3205C14.0566 12.6771 14.4809 13.0702 14.5427 13.1964H14.5433V15.0923Z" fill="black"/>
<path d="M15.376 18.2891C14.8992 18.2891 14.5127 18.6755 14.5127 19.1523V20.3477C14.4503 20.4732 14.0266 20.867 12.7769 21.2236C11.557 21.5715 9.97054 21.7628 8.31105 21.7628C6.65156 21.7628 5.06578 21.5715 3.84523 21.2236C2.59547 20.867 2.1718 20.4738 2.10937 20.3477V19.1523C2.10937 18.6755 1.72289 18.2891 1.24609 18.2891C0.769297 18.2891 0.382812 18.6755 0.382812 19.1523L0.384141 20.3709C0.384141 21.0848 0.848984 22.0842 3.05367 22.7887C4.47078 23.2416 6.33812 23.4907 8.31172 23.4907C10.2853 23.4907 12.1527 23.2416 13.5698 22.7887C15.7764 22.0835 16.2393 21.0848 16.2393 20.3709V19.1523C16.2393 18.6756 15.8528 18.2891 15.376 18.2891Z" fill="black"/>
<path d="M15.3825 23.541C14.9057 23.541 14.5192 23.9275 14.5192 24.4043V25.5996C14.4568 25.7251 14.0331 26.1189 12.7834 26.4755C11.5635 26.8235 9.97704 27.0147 8.31755 27.0147C6.65805 27.0147 5.07293 26.8248 3.85305 26.4775C2.60328 26.1216 2.17961 25.7278 2.11719 25.6016V24.4063C2.11719 23.9295 1.7307 23.543 1.25391 23.543C0.77711 23.543 0.390625 23.9295 0.390625 24.4063V25.6235C0.390625 26.3374 0.855469 27.3368 3.06016 28.0414C4.47727 28.4943 6.34461 28.7433 8.31821 28.7433C10.2918 28.7433 12.1592 28.4943 13.5763 28.0414C15.7829 27.3361 16.2458 26.3374 16.2458 25.6235V24.4043C16.2458 23.9275 15.8593 23.541 15.3825 23.541Z" fill="black"/>
<path d="M30.8419 16.0086C29.4248 15.5557 27.5574 15.3066 25.5838 15.3066C23.6102 15.3066 21.7429 15.5557 20.3258 16.0086C18.1191 16.7131 17.6562 17.7125 17.6562 18.4264V20.3655C17.6562 21.0793 18.1211 22.0788 20.3258 22.7833C21.7429 23.2362 23.6102 23.4852 25.5838 23.4852C27.5574 23.4852 29.4248 23.2362 30.8419 22.7833C33.0486 22.0788 33.5114 21.0793 33.5114 20.3655V18.4264C33.5114 17.7125 33.0466 16.7131 30.8419 16.0086ZM31.7848 20.3442C31.7231 20.4697 31.2988 20.8635 30.049 21.2201C28.8291 21.5681 27.2427 21.7593 25.5832 21.7593C23.9237 21.7593 22.3372 21.5681 21.1173 21.2201C19.8676 20.8635 19.4439 20.4704 19.3815 20.3442V18.4477C19.4439 18.3222 19.8676 17.9284 21.1173 17.5718C22.3379 17.2238 23.9237 17.0325 25.5832 17.0325C27.2427 17.0325 28.8284 17.2238 30.049 17.5718C31.2988 17.9277 31.7224 18.3215 31.7848 18.4477V20.3442Z" fill="black"/>
<path d="M32.6495 23.541C32.1727 23.541 31.7862 23.9275 31.7862 24.4043V25.5996C31.7237 25.7251 31.3001 26.1189 30.0503 26.4755C28.8304 26.8235 27.244 27.0147 25.5845 27.0147C23.925 27.0147 22.3392 26.8235 21.1187 26.4755C19.8689 26.1196 19.4452 25.7258 19.3828 25.5996V24.4043C19.3828 23.9275 18.9963 23.541 18.5195 23.541C18.0427 23.541 17.6562 23.9275 17.6562 24.4043V25.6235C17.6562 26.3374 18.1211 27.3368 20.3258 28.0414C21.7429 28.4943 23.6102 28.7433 25.5838 28.7433C27.5574 28.7433 29.4248 28.4943 30.8419 28.0414C33.0486 27.3361 33.5114 26.3374 33.5114 25.6235L33.5127 24.4043C33.5127 23.9275 33.1262 23.541 32.6495 23.541Z" fill="black"/>
<path d="M32.6495 28.7949C32.1727 28.7949 31.7862 29.1814 31.7862 29.6582V30.8535C31.7237 30.979 31.3001 31.3728 30.0503 31.7294C28.8304 32.0774 27.244 32.2686 25.5845 32.2686C23.925 32.2686 22.3392 32.0774 21.1187 31.7294C19.8689 31.3728 19.4452 30.9797 19.3828 30.8535V29.6582C19.3828 29.1814 18.9963 28.7949 18.5195 28.7949C18.0427 28.7949 17.6562 29.1814 17.6562 29.6582V30.8761C17.6562 31.59 18.1211 32.5894 20.3258 33.2939C21.7429 33.7468 23.6102 33.9959 25.5838 33.9959C27.5574 33.9959 29.4248 33.7468 30.8419 33.2939C33.0486 32.5887 33.5114 31.59 33.5114 30.8761L33.5127 29.6582C33.5127 29.1814 33.1262 28.7949 32.6495 28.7949Z" fill="black"/>
<path d="M15.376 28.7949C14.8992 28.7949 14.5127 29.1814 14.5127 29.6582V30.8535C14.4503 30.979 14.0266 31.3728 12.7769 31.7294C11.557 32.0774 9.97055 32.2686 8.31105 32.2686C6.65156 32.2686 5.06578 32.0774 3.84523 31.7294C2.59547 31.3728 2.1718 30.9797 2.10937 30.8535V29.6582C2.10937 29.1814 1.72289 28.7949 1.24609 28.7949C0.769297 28.7949 0.382812 29.1814 0.382812 29.6582L0.383477 30.8761C0.383477 31.59 0.84832 32.5894 3.05301 33.2939C4.47012 33.7482 6.33812 33.9972 8.31172 33.9972C10.2853 33.9972 12.1527 33.7482 13.5698 33.2953C15.7764 32.59 16.2393 31.5913 16.2393 30.8774V29.6582C16.2393 29.1814 15.8528 28.7949 15.376 28.7949Z" fill="black"/>
<path d="M30.478 6.78325C30.1491 6.50786 29.7337 6.35705 29.3048 6.35712H28.7284L28.8751 1.94177C28.8934 1.43164 28.7019 0.936312 28.3452 0.571144C27.9918 0.203387 27.5032 -0.00373455 26.9932 -0.00194158H24.2293C23.1903 -0.00180877 22.3482 0.840621 22.3483 1.87961C22.3483 1.90033 22.3486 1.92105 22.3494 1.94177L22.4961 6.35712H21.9211C20.9121 6.35686 20.094 7.17458 20.0938 8.18349C20.0936 8.61248 20.2445 9.02778 20.5199 9.35669L23.7738 13.2428C24.6242 14.2585 26.137 14.3925 27.1527 13.5421C27.2611 13.4514 27.3613 13.3512 27.452 13.2428L30.7059 9.35669C31.3536 8.58312 31.2515 7.43091 30.478 6.78325ZM29.3791 8.24903L26.1252 12.1351C25.8874 12.4195 25.464 12.4573 25.1795 12.2194C25.149 12.1939 25.1208 12.1657 25.0953 12.1351L21.8414 8.24903C21.8054 8.20693 21.8104 8.14358 21.8526 8.10766C21.8709 8.09198 21.8943 8.08348 21.9184 8.08368H23.386C23.8628 8.08395 24.2495 7.69766 24.2497 7.22087C24.2497 7.21117 24.2496 7.20154 24.2493 7.19185L24.0753 1.884C24.0727 1.7986 24.1399 1.72728 24.2253 1.72469C24.2269 1.72462 24.2284 1.72462 24.23 1.72462H26.9932C27.0786 1.72455 27.148 1.79382 27.148 1.87928C27.148 1.88087 27.148 1.8824 27.1479 1.884L26.9719 7.19118C26.9562 7.66771 27.3296 8.06675 27.8062 8.08255C27.8159 8.08289 27.8255 8.08302 27.8352 8.08302L29.3021 8.08368C29.3575 8.08329 29.4027 8.12784 29.4031 8.18323C29.4033 8.20733 29.3948 8.23071 29.3791 8.24903Z" fill="#F5973A"/>
</g>
<defs>
<clipPath id="clip0_385_1112">
<rect width="34" height="34" fill="white"/>
</clipPath>
</defs>
</svg>
