<svg width="33" height="29" viewBox="0 0 33 29" fill="none" xmlns="http://www.w3.org/2000/svg">
<path d="M11 12.0833C11 13.2784 12.012 14.3067 13.354 14.4746C14.4815 14.616 15.2652 15.5343 15.103 16.5252C14.9559 17.429 14.0731 18.0815 13.0639 18.0815C12.9662 18.0815 12.8686 18.0755 12.7696 18.0634C9.40912 17.6405 6.87362 15.0691 6.87362 12.0833C6.87362 9.09754 9.40775 6.525 12.7696 6.10329C13.8916 5.96071 14.9421 6.64946 15.103 7.64029C15.2639 8.63113 14.4815 9.54946 13.354 9.69083C12.012 9.86 11 10.8883 11 12.0821V12.0833ZM10.9175 20.1707C6.85437 19.0735 4.125 15.8231 4.125 12.0833C4.125 7.41917 8.4425 3.625 13.75 3.625C14.7152 3.625 15.6681 3.75067 16.5825 3.99717C17.6715 4.292 18.8251 3.75308 19.1606 2.79608C19.4961 1.83908 18.8829 0.825292 17.7939 0.530458C16.4876 0.177625 15.1277 0 13.7514 0C6.16825 0 0 5.42058 0 12.0833C0 17.4242 3.90087 22.0678 9.7075 23.635C9.90825 23.6894 10.1131 23.716 10.3139 23.716C11.1952 23.716 12.012 23.2145 12.2842 22.4351C12.6197 21.4781 12.0065 20.4643 10.9175 20.1707Z" fill="#F5973A"/>
<path d="M23.0301 2.41406V26.5807M23.0301 26.5807L15.1406 20.4189M23.0301 26.5807L30.2656 20.9277" stroke="#464646" stroke-width="2.975" stroke-linecap="round" stroke-linejoin="round"/>
</svg>
