<svg width="37" height="37" viewBox="0 0 37 37" fill="none" xmlns="http://www.w3.org/2000/svg">
<path d="M34.7875 30.4099H33.8176V13.7995C33.8176 12.3829 32.6672 11.2305 31.2529 11.2305H5.7493C4.33506 11.2305 3.18465 12.3829 3.18465 13.7995V30.4099H2.21834C1.61561 30.4099 1.125 30.901 1.125 31.5045V32.5114C1.125 34.3682 2.63284 35.8789 4.48626 35.8789H32.5196C34.3735 35.8789 35.8813 34.3682 35.8813 32.5114V31.5045C35.8813 30.901 35.3907 30.4099 34.7875 30.4099ZM4.23787 13.7995C4.23787 12.9636 4.91567 12.2837 5.7493 12.2837H31.2529C32.0865 12.2837 32.7644 12.9636 32.7644 13.7995V30.4083H25.0812C24.9896 30.4083 24.8909 30.416 24.8503 30.4253C24.8454 30.4256 24.84 30.4276 24.8352 30.428C24.7827 30.4345 24.7316 30.4462 24.6799 30.4563C24.6257 30.4663 24.5746 30.4694 24.5155 30.4862C24.5073 30.4885 24.4517 30.5065 24.4435 30.5091C24.3864 30.5274 24.3314 30.5456 24.3077 30.5572C24.2295 30.5834 24.1699 30.6166 24.157 30.6261C24.1538 30.6275 24.1484 30.6309 24.145 30.6323C24.0753 30.6654 24.0069 30.7006 23.9409 30.7405C23.9388 30.7419 23.9364 30.743 23.9344 30.7444L23.9338 30.7441C23.9314 30.7457 23.9294 30.7481 23.927 30.7497C23.6192 30.939 23.3539 31.1986 23.1645 31.5176C23.1127 31.605 23.0494 31.6832 22.979 31.7535C22.9742 31.758 22.969 31.7619 22.9644 31.7665C22.9608 31.7702 22.9569 31.7736 22.9533 31.7773C22.7317 31.986 22.4366 32.1098 22.1262 32.1098H14.8801C14.6821 32.1098 14.4915 32.0561 14.3205 31.966C14.3093 31.9587 14.2959 31.9496 14.2738 31.9352C14.1082 31.8354 13.9555 31.6798 13.8192 31.4731C13.8012 31.4428 13.7837 31.4183 13.7745 31.4093C13.7598 31.3866 13.7418 31.3692 13.7255 31.3491C13.6929 31.3041 13.6594 31.2604 13.6238 31.2182C13.5837 31.1671 13.544 31.1239 13.5086 31.0903C13.4601 31.0411 13.4084 30.9959 13.3558 30.9515C13.3388 30.9378 13.325 30.9202 13.3075 30.9079C13.3019 30.903 13.2894 30.8946 13.283 30.889C13.2678 30.8773 13.2529 30.8653 13.2375 30.854C13.2162 30.8372 13.203 30.8237 13.1738 30.8048C13.1687 30.8012 13.1635 30.7974 13.1579 30.7938C13.1172 30.7626 13.0776 30.738 13.0385 30.7159C12.9758 30.6765 12.9064 30.6433 12.8462 30.6166C12.8254 30.6068 12.8005 30.6016 12.7793 30.5925C12.7201 30.5673 12.6589 30.5474 12.5977 30.5272C12.5556 30.5135 12.5192 30.4948 12.4744 30.4829C12.2857 30.434 12.0872 30.4083 11.9 30.4083H4.23787V13.7995ZM22.7325 33.0784C22.727 33.0804 22.7214 33.0816 22.7158 33.0833C22.7191 33.0825 22.7222 33.081 22.7254 33.0801C22.7281 33.0794 22.7298 33.0791 22.7325 33.0784ZM34.8281 32.5114C34.8281 33.7876 33.7924 34.8256 32.5196 34.8256H4.48626C3.21344 34.8256 2.17822 33.7876 2.17822 32.5114V31.5045C2.17822 31.4816 2.19622 31.4631 2.21834 31.4631H11.8969C12.2108 31.4631 12.5098 31.5886 12.7324 31.8018L12.7387 31.8084C12.739 31.8087 12.7451 31.8143 12.748 31.817C12.8194 31.8878 12.8833 31.967 12.9357 32.0553C13.1585 32.4304 13.4856 32.7236 13.8648 32.9153C13.8855 32.9259 13.9034 32.9368 13.9267 32.9467C13.9503 32.9594 13.9811 32.9738 14.0166 32.9895C14.0203 32.991 14.0239 32.9926 14.0276 32.9941C14.045 33.0017 14.0606 33.0088 14.082 33.0175L14.315 33.0946C14.3699 33.1072 14.4366 33.1171 14.5061 33.1275C14.5728 33.1389 14.6399 33.1463 14.7077 33.1516C14.7549 33.1562 14.7981 33.1658 14.8488 33.1658H22.1267C22.1681 33.1658 22.1968 33.158 22.2344 33.1558C22.3229 33.1515 22.4104 33.1428 22.4969 33.1282C22.5427 33.1209 22.5949 33.1104 22.6529 33.097C22.6698 33.0929 22.6874 33.0912 22.7042 33.0867C22.699 33.0881 22.6938 33.0901 22.6888 33.0913C22.7191 33.0846 22.7659 33.0722 22.7839 33.0668C22.803 33.0609 22.8313 33.0522 22.8652 33.0385C22.9156 33.0236 22.9593 33.0051 22.9994 32.9884C23.0478 32.9668 23.0961 32.9447 23.1444 32.9197C23.2041 32.8945 23.2437 32.8675 23.2499 32.8624C23.3069 32.8292 23.364 32.7922 23.454 32.7341C23.4741 32.721 23.4931 32.7068 23.5111 32.6917C23.5713 32.6449 23.6284 32.5914 23.6844 32.5361C23.7044 32.5171 23.7232 32.4971 23.7425 32.4773C23.7685 32.4509 23.8005 32.4221 23.8176 32.4014C23.8372 32.3796 23.8481 32.3635 23.8596 32.3472C23.8881 32.3132 23.9153 32.2784 23.9418 32.2426C23.942 32.2422 23.9429 32.2412 23.9431 32.2409C23.9796 32.1957 24.0146 32.1491 24.0172 32.1404C24.0274 32.1278 24.0532 32.0931 24.0619 32.0797C24.1831 31.8958 24.3238 31.7506 24.4799 31.6464C24.4821 31.645 24.4839 31.6429 24.4862 31.6416C24.4918 31.6384 24.4976 31.6352 24.5031 31.6318C24.5118 31.6272 24.5206 31.6213 24.5307 31.6145C24.706 31.5183 24.9039 31.4631 25.1089 31.4631H34.7875C34.8101 31.4631 34.8281 31.4816 34.8281 31.5045V32.5114Z" fill="black"/>
<path d="M31.0382 28.2278V14.4622C31.0382 14.1713 30.8027 13.9355 30.5116 13.9355H6.48755C6.19647 13.9355 5.96094 14.1713 5.96094 14.4622V28.2278C5.96094 28.5187 6.19647 28.7545 6.48755 28.7545H30.5116C30.8027 28.7545 31.0382 28.5187 31.0382 28.2278ZM29.985 27.7012H7.01416V14.9888H29.985V27.7012Z" fill="black"/>
<path d="M18.5006 25.6073C19.4896 25.6073 20.4199 25.2221 21.1193 24.5225C22.5628 23.0786 22.5628 20.7289 21.1193 19.2851C20.9136 19.0794 20.5803 19.0794 20.3746 19.2851C20.1689 19.4906 20.1689 19.8241 20.3746 20.0298C21.4078 21.0632 21.4078 22.7444 20.3746 23.7778C19.8737 24.2784 19.2083 24.5541 18.5006 24.5541C17.7925 24.5541 17.127 24.2784 16.6266 23.7778C16.1257 23.2772 15.8501 22.6117 15.8501 21.9038C15.8501 21.1959 16.1257 20.5304 16.6266 20.0298C16.8324 19.8244 16.8324 19.4908 16.6266 19.2851C16.4209 19.0794 16.0877 19.0794 15.882 19.2851C15.1826 19.9845 14.7969 20.9146 14.7969 21.9038C14.7969 22.893 15.1826 23.823 15.882 24.5225C16.5814 25.2219 17.5112 25.6073 18.5006 25.6073Z" fill="#F5973A"/>
<path d="M18.4954 22.0038C18.7864 22.0038 19.022 21.768 19.022 21.4772V17.6086C19.022 17.3178 18.7864 17.082 18.4954 17.082C18.2043 17.082 17.9688 17.3178 17.9688 17.6086V21.4772C17.9688 21.768 18.2043 22.0038 18.4954 22.0038Z" fill="#F5973A"/>
<path d="M24.5081 4.66147C24.6428 4.66147 24.7775 4.61005 24.8804 4.50719C25.0861 4.30148 25.0861 3.96824 24.8804 3.76253C21.3618 0.243648 15.6349 0.242876 12.1152 3.76227C11.9095 3.96798 11.9095 4.30123 12.1152 4.50693C12.3209 4.71264 12.6542 4.71264 12.8599 4.50693C15.9686 1.39869 21.027 1.39895 24.1357 4.50719C24.2386 4.61005 24.3733 4.66147 24.5081 4.66147Z" fill="#F5973A"/>
<path d="M22.274 6.89579C22.4087 6.89579 22.5434 6.84437 22.6463 6.74151C22.852 6.5358 22.852 6.20256 22.6463 5.99685C20.3588 3.70887 16.6371 3.7099 14.3496 5.99685C14.1439 6.20256 14.1439 6.5358 14.3496 6.74151C14.5553 6.94722 14.8885 6.94722 15.0943 6.74151C16.9718 4.86469 20.0251 4.86572 21.9016 6.74151C22.0045 6.84437 22.1392 6.89579 22.274 6.89579Z" fill="#F5973A"/>
<path d="M16.584 8.23117C16.3783 8.43688 16.3783 8.77012 16.584 8.97583C16.7897 9.18154 17.1229 9.18154 17.3286 8.97583C17.974 8.3312 19.0231 8.33197 19.6675 8.97609C19.7704 9.07894 19.9051 9.13037 20.0399 9.13037C20.1746 9.13037 20.3093 9.07894 20.4122 8.97609C20.6179 8.77038 20.6179 8.43688 20.4122 8.23143C19.3564 7.17589 17.6398 7.17512 16.584 8.23117Z" fill="#F5973A"/>
</svg>
