<svg width="30" height="30" viewBox="0 0 30 30" fill="none" xmlns="http://www.w3.org/2000/svg">
<path d="M24.5078 3.81055H11.1745C10.7326 3.81108 10.309 3.98685 9.99656 4.29929C9.68411 4.61174 9.50835 5.03535 9.50781 5.47721V18.8105C9.50971 18.9999 9.54425 19.1875 9.60992 19.3651L20.8787 8.09626H18.7935C18.6041 8.09626 18.4224 8.02101 18.2885 7.88705C18.1545 7.7531 18.0792 7.57142 18.0792 7.38198C18.0792 7.19254 18.1545 7.01085 18.2885 6.8769C18.4224 6.74294 18.6041 6.66769 18.7935 6.66769H22.6031C22.7923 6.66836 22.9736 6.74382 23.1074 6.87764C23.2412 7.01145 23.3167 7.19274 23.3173 7.38198V11.1915C23.3173 11.3809 23.2421 11.5626 23.1081 11.6966C22.9742 11.8305 22.7925 11.9058 22.6031 11.9058C22.4136 11.9058 22.2319 11.8305 22.098 11.6966C21.964 11.5626 21.8888 11.3809 21.8888 11.1915V9.1063L10.62 20.3751C10.7976 20.4408 10.9851 20.4753 11.1745 20.4772H24.5078C24.9497 20.4767 25.3733 20.3009 25.6857 19.9885C25.9982 19.676 26.1739 19.2524 26.1745 18.8105V5.47721C26.1739 5.03535 25.9982 4.61174 25.6857 4.29929C25.3733 3.98685 24.9497 3.81108 24.5078 3.81055Z" fill="#F47A3E" fill-opacity="0.71"/>
<path d="M27.8571 0H7.85714C7.28901 0.000618882 6.74433 0.226582 6.3426 0.628312C5.94087 1.03004 5.7149 1.57473 5.71429 2.14286V14.2857H2.14286C1.57473 14.2863 1.03004 14.5123 0.628312 14.914C0.226582 15.3158 0.000618882 15.8604 0 16.4286V27.8571C0.000618882 28.4253 0.226582 28.97 0.628312 29.3717C1.03004 29.7734 1.57473 29.9994 2.14286 30H13.5714C14.1396 29.9994 14.6842 29.7734 15.086 29.3717C15.4877 28.97 15.7137 28.4253 15.7143 27.8571V24.2857H27.8571C28.4253 24.2851 28.97 24.0591 29.3717 23.6574C29.7734 23.2557 29.9994 22.711 30 22.1429V2.14286C29.9994 1.57473 29.7734 1.03004 29.3717 0.628312C28.97 0.226582 28.4253 0.000618882 27.8571 0ZM14.2857 27.8571C14.2855 28.0465 14.2102 28.2281 14.0763 28.362C13.9424 28.4959 13.7608 28.5712 13.5714 28.5714H2.14286C1.95348 28.5712 1.77192 28.4959 1.63801 28.362C1.5041 28.2281 1.42878 28.0465 1.42857 27.8571V16.4286C1.42878 16.2392 1.5041 16.0576 1.63801 15.9237C1.77192 15.7898 1.95348 15.7145 2.14286 15.7143H5.71429V22.1429C5.7149 22.711 5.94087 23.2557 6.3426 23.6574C6.74433 24.0591 7.28901 24.2851 7.85714 24.2857H14.2857V27.8571ZM28.5714 22.1429C28.5712 22.3322 28.4959 22.5138 28.362 22.6477C28.2281 22.7816 28.0465 22.8569 27.8571 22.8571H7.85714C7.66777 22.8569 7.4862 22.7816 7.35229 22.6477C7.21839 22.5138 7.14306 22.3322 7.14286 22.1429V2.14286C7.14306 1.95348 7.21839 1.77192 7.35229 1.63801C7.4862 1.5041 7.66777 1.42878 7.85714 1.42857H27.8571C28.0465 1.42878 28.2281 1.5041 28.362 1.63801C28.4959 1.77192 28.5712 1.95348 28.5714 2.14286V22.1429Z" fill="#464646"/>
</svg>
