<svg xmlns="http://www.w3.org/2000/svg" width="22.723" height="18.878" viewBox="0 0 22.723 18.878">
  <path id="Path_14629" data-name="Path 14629" d="M377.76,1034.063a4.573,4.573,0,0,0,2.025-2.632,10.745,10.745,0,0,1-2.967,1.113,4.36,4.36,0,0,0-3.358-1.473,4.52,4.52,0,0,0-3.337,1.393,4.663,4.663,0,0,0-1.358,3.367,3.487,3.487,0,0,0,.147,1.061,12.4,12.4,0,0,1-9.628-4.961,4.868,4.868,0,0,0-.643,2.386,4.638,4.638,0,0,0,2.077,3.993,5.054,5.054,0,0,1-2.077-.606,4.816,4.816,0,0,0,1.035,3.087,4.552,4.552,0,0,0,2.67,1.669,4.873,4.873,0,0,1-1.236.153,2.285,2.285,0,0,1-.839-.107,4.649,4.649,0,0,0,4.346,3.34,8.952,8.952,0,0,1-5.779,2.021,7.255,7.255,0,0,1-1.138-.051,12.633,12.633,0,0,0,7.164,2.132,12.506,12.506,0,0,0,7.163-2.1,13.062,13.062,0,0,0,4.593-5.138,14.215,14.215,0,0,0,1.479-6.326v-.605a9.967,9.967,0,0,0,2.323-2.483A10.112,10.112,0,0,1,377.76,1034.063Z" transform="translate(-357.7 -1031.071)" fill="#fff" fill-rule="evenodd"/>
</svg>
