<svg xmlns="http://www.w3.org/2000/svg" width="21.279" height="22" viewBox="0 0 21.279 22">
  <g id="Group_7164" data-name="Group 7164" transform="translate(-155.853 -918.245)">
    <path id="Path_14627" data-name="Path 14627" d="M181.36,930.58a7.9,7.9,0,0,0-4.728,1.58v-1.582H171.9v16.549h4.728V936.9a2.837,2.837,0,0,1,2.914-2.037c1.473,0,1.815.839,1.815,2.037v10.232h4.729V937.039C186.089,931.5,182.893,930.58,181.36,930.58Z" transform="translate(-8.957 -6.883)" fill="#fff" fill-rule="evenodd"/>
    <path id="Path_14628" data-name="Path 14628" d="M158.738,918.245a2.219,2.219,0,1,0,2.218,2.218A2.219,2.219,0,0,0,158.738,918.245Z" transform="translate(-0.374)" fill="#fff" fill-rule="evenodd"/>
    <rect id="Rectangle_2794" data-name="Rectangle 2794" width="4.729" height="16.549" transform="translate(155.853 923.696)" fill="#fff"/>
  </g>
</svg>
