<svg xmlns="http://www.w3.org/2000/svg" width="16.813" height="22" viewBox="0 0 16.813 22">
  <path id="Path_14630" data-name="Path 14630" d="M172.017,1027.885c-2.888-3.137-7.762-2.927-11-.507-2.762,2.063-4.714,6.643-2.393,9.759a3.163,3.163,0,0,0,1.94,1.185.369.369,0,0,0,.442-.25,4.623,4.623,0,0,0,.358-1.255.258.258,0,0,0-.265-.274c-2.106-2.308-.675-5.18,1.376-6.957,1.814-1.57,5.145-3.041,7.277-1.232,1.471,1.248,1.584,3.583,1.513,5.345-.089,2.21-.862,4.541-3.161,5.244a1.905,1.905,0,0,1-2.136-.527,2.779,2.779,0,0,1-.171-2.486c.331-1.277,1.116-3.084.373-4.347-.9-1.528-2.713-.138-3.237.891-.319.627-.893,2.635-.046,3.15a36.5,36.5,0,0,0-1.919,7.173,9.7,9.7,0,0,0-.15,3.349,4.863,4.863,0,0,0,.477,1.195c-.036.206.269.28.389.118a13.086,13.086,0,0,0,2.137-3.492,16.8,16.8,0,0,0,.479-2.2c.1-.51.311-1.089.364-1.632l.01,0a6.487,6.487,0,0,0,2.53,1.179,5.635,5.635,0,0,0,4.008-.992,4.056,4.056,0,0,0,.5-.408,5.252,5.252,0,0,0,1.359-1.321C175.326,1035.432,174.558,1030.645,172.017,1027.885Z" transform="translate(-157.592 -1025.546)" fill="#fff" fill-rule="evenodd"/>
</svg>
