<svg xmlns="http://www.w3.org/2000/svg" xmlns:xlink="http://www.w3.org/1999/xlink" width="217" height="345" viewBox="0 0 217 345">
  <defs>
    <clipPath id="clip-path">
      <rect id="Rectangle_2748" data-name="Rectangle 2748" width="217" height="345" transform="translate(216 11644)" fill="#fff"/>
    </clipPath>
  </defs>
  <g id="Mask_Group_68" data-name="Mask Group 68" transform="translate(-216 -11644)" clip-path="url(#clip-path)">
    <g id="New_Symbol" data-name="New Symbol" transform="translate(216.5 11655.697)" opacity="0.21">
      <g id="Group_7138" data-name="Group 7138" transform="translate(196.051 0)">
        <line id="Line_148" data-name="Line 148" y2="64.226" transform="translate(0 0)" fill="none" stroke="#3089bb" stroke-linecap="round" stroke-width="1.559"/>
      </g>
      <g id="Group_7140" data-name="Group 7140" transform="translate(0 14.628)">
        <path id="Path_10972" data-name="Path 10972" d="M0,13.341H0A13.341,13.341,0,0,0,13.341,26.681H139.124a13.341,13.341,0,0,0,13.34-13.341h0A13.341,13.341,0,0,0,139.124,0" transform="translate(153.788 150.905)" fill="none" stroke="#37a044" stroke-width="1.559"/>
        <g id="Group_7139" data-name="Group 7139" transform="translate(124.161 22.336)">
          <path id="Path_10973" data-name="Path 10973" d="M34.437,9.54A9.54,9.54,0,0,0,24.9,0H9.54A9.54,9.54,0,0,0,0,9.54v9.075a9.54,9.54,0,0,0,9.54,9.54H24.9" transform="translate(81.194 0)" fill="none" stroke="#37a044" stroke-width="1.559"/>
          <path id="Path_10974" data-name="Path 10974" d="M27.367,0H10.486A10.486,10.486,0,0,0,0,10.486v9.975A10.486,10.486,0,0,0,10.486,30.947" transform="translate(81.194 102.032)" fill="none" stroke="#37a044" stroke-width="1.559"/>
          <path id="Path_10975" data-name="Path 10975" d="M27.366,0H10.486A10.486,10.486,0,0,0,0,10.486v9.975A10.486,10.486,0,0,0,10.486,30.947" transform="translate(0 32.186)" fill="none" stroke="#37a044" stroke-width="1.559"/>
          <path id="Path_10976" data-name="Path 10976" d="M0,0H16.88A10.486,10.486,0,0,1,27.366,10.486v9.975" transform="translate(105.859 28.155)" fill="none" stroke="#37a044" stroke-width="1.559"/>
          <line id="Line_149" data-name="Line 149" y2="14.892" transform="translate(133.225 50.958)" fill="none" stroke="#37a044" stroke-width="1.559"/>
          <line id="Line_150" data-name="Line 150" y2="3.374" transform="translate(133.225 70.154)" fill="none" stroke="#37a044" stroke-width="1.559"/>
          <line id="Line_151" data-name="Line 151" y2="17.219" transform="translate(133.225 76.786)" fill="none" stroke="#37a044" stroke-width="1.559"/>
        </g>
        <circle id="Ellipse_51" data-name="Ellipse 51" cx="10.977" cy="10.977" r="10.977" transform="translate(257.386 131.864) rotate(-135)" fill="none" stroke="#37a044" stroke-width="1.559"/>
        <circle id="Ellipse_52" data-name="Ellipse 52" cx="19.895" cy="19.895" r="19.895" transform="translate(196.048 113.604) rotate(-135)" fill="none" stroke="#37a044" stroke-width="1.559"/>
        <path id="Path_10977" data-name="Path 10977" d="M0,7.795A7.795,7.795,0,1,0,7.795,0,7.795,7.795,0,0,0,0,7.795Z" transform="translate(166.544 28.618)" fill="none" stroke="#37a044" stroke-width="1.559"/>
        <path id="Path_10978" data-name="Path 10978" d="M8.976,0A8.976,8.976,0,1,1,0,8.976" transform="translate(239.792 22.678)" fill="none" stroke="#37a044" stroke-width="1.559"/>
        <path id="Path_10979" data-name="Path 10979" d="M0,5.858A5.858,5.858,0,1,0,5.858,0,5.858,5.858,0,0,0,0,5.858Z" transform="translate(213.18 133.984)" fill="none" stroke="#37a044" stroke-width="1.559"/>
        <line id="Line_152" data-name="Line 152" x2="30.735" y2="0.148" transform="translate(209.833 85.321)" fill="none" stroke="#37a044" stroke-width="1.559"/>
        <line id="Line_153" data-name="Line 153" x2="6.05" transform="translate(245.377 85.469)" fill="none" stroke="#37a044" stroke-width="1.559"/>
        <line id="Line_154" data-name="Line 154" x2="36.764" transform="translate(264.457 85.469)" fill="none" stroke="#37a044" stroke-width="1.559"/>
        <line id="Line_155" data-name="Line 155" x2="11.712" transform="translate(218.308 155.315)" fill="none" stroke="#37a044" stroke-width="1.559"/>
        <line id="Line_156" data-name="Line 156" x2="47.468" transform="translate(234.441 155.315)" fill="none" stroke="#37a044" stroke-width="1.559"/>
        <line id="Line_157" data-name="Line 157" x2="266.506" transform="translate(0 157.434)" fill="none" stroke="#3089bb" stroke-width="1.559"/>
        <line id="Line_158" data-name="Line 158" x2="48.235" transform="translate(174.338 36.413)" fill="none" stroke="#3089bb" stroke-width="1.559"/>
        <line id="Line_159" data-name="Line 159" x1="33.786" transform="translate(148.347 85.469)" fill="none" stroke="#3089bb" stroke-width="0.78"/>
        <line id="Line_160" data-name="Line 160" x1="5.817" transform="translate(137.411 85.469)" fill="none" stroke="#3089bb" stroke-width="0.78"/>
        <line id="Line_161" data-name="Line 161" x1="28.11" transform="translate(190.929 139.842)" fill="none" stroke="#3089bb" stroke-width="0.78"/>
        <line id="Line_162" data-name="Line 162" y1="27.388" transform="translate(248.768 4.266)" fill="none" stroke="#3089bb" stroke-width="0.78"/>
        <ellipse id="Ellipse_53" data-name="Ellipse 53" cx="1.319" cy="1.319" rx="1.319" ry="1.319" transform="translate(154.552 53.203)" fill="none" stroke="#37a044" stroke-width="0.78"/>
        <ellipse id="Ellipse_54" data-name="Ellipse 54" cx="1.319" cy="1.319" rx="1.319" ry="1.319" transform="translate(158.74 53.203)" fill="none" stroke="#37a044" stroke-width="0.78"/>
        <ellipse id="Ellipse_55" data-name="Ellipse 55" cx="1.319" cy="1.319" rx="1.319" ry="1.319" transform="translate(162.929 53.203)" fill="none" stroke="#37a044" stroke-width="0.78"/>
        <ellipse id="Ellipse_56" data-name="Ellipse 56" cx="1.319" cy="1.319" rx="1.319" ry="1.319" transform="translate(167.117 53.203)" fill="none" stroke="#37a044" stroke-width="0.78"/>
        <ellipse id="Ellipse_57" data-name="Ellipse 57" cx="1.319" cy="1.319" rx="1.319" ry="1.319" transform="translate(247.45 0)" fill="none" stroke="#37a044" stroke-width="0.78"/>
        <ellipse id="Ellipse_58" data-name="Ellipse 58" cx="4.45" cy="4.45" rx="4.45" ry="4.45" transform="translate(305.846 81.019)" fill="none" stroke="#3089bb" stroke-width="1.559"/>
        <ellipse id="Ellipse_59" data-name="Ellipse 59" cx="3.025" cy="3.025" rx="3.025" ry="3.025" transform="translate(149.045 33.388)" fill="none" stroke="#37a044" stroke-width="0.78"/>
        <path id="Path_10980" data-name="Path 10980" d="M0,7.058A7.058,7.058,0,1,0,7.059,0,7.058,7.058,0,0,0,0,7.058Z" transform="translate(284.313 161.597)" fill="none" stroke="#37a044" stroke-width="1.559"/>
      </g>
      <g id="Group_7142" data-name="Group 7142" transform="translate(184.284 92.536)">
        <g id="Group_7141" data-name="Group 7141" transform="translate(12.876 0)">
          <line id="Line_163" data-name="Line 163" y2="13.508" transform="translate(0)" fill="none" stroke="#47a850" stroke-linecap="round" stroke-width="1.559"/>
        </g>
        <path id="Path_10981" data-name="Path 10981" d="M4.144,0A4.144,4.144,0,1,0,8.287,4.144" transform="translate(17.332 15.694) rotate(-135)" fill="none" stroke="#37a044" stroke-width="1.559"/>
        <path id="Path_10982" data-name="Path 10982" d="M4.144,0A4.144,4.144,0,1,0,8.287,4.144" transform="translate(5.86 1.013) rotate(45)" fill="none" stroke="#37a044" stroke-width="1.559"/>
        <line id="Line_164" data-name="Line 164" y2="13.508" transform="translate(9.916 3.331)" fill="none" stroke="#47a850" stroke-linecap="round" stroke-width="1.559"/>
      </g>
    </g>
  </g>
</svg>
