<svg width="54" height="54" viewBox="0 0 54 54" fill="none" xmlns="http://www.w3.org/2000/svg">
<g filter="url(#filter0_d_3468_6301)">
<rect x="4" y="3" width="45.76" height="45.76" rx="8" fill="white"/>
<g clip-path="url(#clip0_3468_6301)">
<path d="M17.8196 23.0935C13.5225 23.0935 10.1562 24.9299 10.1562 27.2735V38.4202C10.1562 40.7637 13.5225 42.6002 17.8196 42.6002C22.1166 42.6002 25.4829 40.7637 25.4829 38.4202V27.2735C25.4829 24.9299 22.1166 23.0935 17.8196 23.0935ZM24.0896 32.8468C24.0896 34.1649 21.5147 35.6335 17.8196 35.6335C14.1245 35.6335 11.5496 34.1649 11.5496 32.8468V29.7062C12.9248 30.7708 15.2001 31.4535 17.8196 31.4535C20.439 31.4535 22.7144 30.7708 24.0896 29.7062V32.8468ZM17.8196 24.4868C21.5147 24.4868 24.0896 25.9554 24.0896 27.2735C24.0896 28.5916 21.5147 30.0602 17.8196 30.0602C14.1245 30.0602 11.5496 28.5916 11.5496 27.2735C11.5496 25.9554 14.1245 24.4868 17.8196 24.4868ZM17.8196 41.2068C14.1245 41.2068 11.5496 39.7382 11.5496 38.4202V35.2796C12.9248 36.3441 15.2001 37.0268 17.8196 37.0268C20.439 37.0268 22.7144 36.3441 24.0896 35.2796V38.4202C24.0896 39.7382 21.5147 41.2068 17.8196 41.2068ZM38.0229 16.8235C38.0229 15.6712 37.0852 14.7335 35.9329 14.7335H23.3929C22.2406 14.7335 21.3029 15.6712 21.3029 16.8235V19.6102C21.3029 20.7624 22.2406 21.7002 23.3929 21.7002H35.9329C37.0852 21.7002 38.0229 20.7624 38.0229 19.6102V16.8235ZM36.6296 19.6102C36.6296 19.9947 36.3161 20.3068 35.9329 20.3068H23.3929C23.0097 20.3068 22.6962 19.9947 22.6962 19.6102V16.8235C22.6962 16.4389 23.0097 16.1268 23.3929 16.1268H35.9329C36.3161 16.1268 36.6296 16.4389 36.6296 16.8235V19.6102ZM38.0229 26.5768C38.0229 26.9614 37.7108 27.2735 37.3262 27.2735C36.9417 27.2735 36.6296 26.9614 36.6296 26.5768V25.1835C36.6296 24.7989 36.9417 24.4868 37.3262 24.4868C37.7108 24.4868 38.0229 24.7989 38.0229 25.1835V26.5768ZM32.4496 26.5768V25.1835C32.4496 24.7989 32.7617 24.4868 33.1462 24.4868C33.5308 24.4868 33.8429 24.7989 33.8429 25.1835V26.5768C33.8429 26.9614 33.5308 27.2735 33.1462 27.2735C32.7617 27.2735 32.4496 26.9614 32.4496 26.5768ZM28.2696 26.5768V25.1835C28.2696 24.7989 28.5817 24.4868 28.9662 24.4868C29.3508 24.4868 29.6629 24.7989 29.6629 25.1835V26.5768C29.6629 26.9614 29.3508 27.2735 28.9662 27.2735C28.5817 27.2735 28.2696 26.9614 28.2696 26.5768ZM28.2696 30.7568C28.2696 30.3723 28.5817 30.0602 28.9662 30.0602C29.3508 30.0602 29.6629 30.3723 29.6629 30.7568V32.1502C29.6629 32.5347 29.3508 32.8468 28.9662 32.8468C28.5817 32.8468 28.2696 32.5347 28.2696 32.1502V30.7568ZM32.4496 30.7568C32.4496 30.3723 32.7617 30.0602 33.1462 30.0602C33.5308 30.0602 33.8429 30.3723 33.8429 30.7568V32.1502C33.8429 32.5347 33.5308 32.8468 33.1462 32.8468C32.7617 32.8468 32.4496 32.5347 32.4496 32.1502V30.7568ZM38.0229 32.1502C38.0229 32.5347 37.7108 32.8468 37.3262 32.8468C36.9417 32.8468 36.6296 32.5347 36.6296 32.1502V30.7568C36.6296 30.3723 36.9417 30.0602 37.3262 30.0602C37.7108 30.0602 38.0229 30.3723 38.0229 30.7568V32.1502ZM28.2696 36.3302C28.2696 35.9456 28.5817 35.6335 28.9662 35.6335H37.3262C37.7108 35.6335 38.0229 35.9456 38.0229 36.3302C38.0229 36.7147 37.7108 37.0268 37.3262 37.0268H28.9662C28.5817 37.0268 28.2696 36.7147 28.2696 36.3302ZM43.5962 15.4302V36.3302C43.5962 39.787 40.7831 42.6002 37.3262 42.6002H27.5729C27.1884 42.6002 26.8762 42.288 26.8762 41.9035C26.8762 41.5189 27.1884 41.2068 27.5729 41.2068H37.3262C40.0154 41.2068 42.2029 39.0193 42.2029 36.3302V15.4302C42.2029 12.741 40.0154 10.5535 37.3262 10.5535H21.9996C19.3104 10.5535 17.1229 12.741 17.1229 15.4302V19.6102C17.1229 19.9947 16.8108 20.3068 16.4262 20.3068C16.0417 20.3068 15.7296 19.9947 15.7296 19.6102V15.4302C15.7296 11.9733 18.5427 9.16016 21.9996 9.16016H37.3262C40.7831 9.16016 43.5962 11.9733 43.5962 15.4302Z" fill="#0C1DA4"/>
</g>
</g>
<defs>
<filter id="filter0_d_3468_6301" x="0" y="0" width="53.7578" height="53.7617" filterUnits="userSpaceOnUse" color-interpolation-filters="sRGB">
<feFlood flood-opacity="0" result="BackgroundImageFix"/>
<feColorMatrix in="SourceAlpha" type="matrix" values="0 0 0 0 0 0 0 0 0 0 0 0 0 0 0 0 0 0 127 0" result="hardAlpha"/>
<feOffset dy="1"/>
<feGaussianBlur stdDeviation="2"/>
<feComposite in2="hardAlpha" operator="out"/>
<feColorMatrix type="matrix" values="0 0 0 0 0 0 0 0 0 0 0 0 0 0 0 0 0 0 0.1 0"/>
<feBlend mode="normal" in2="BackgroundImageFix" result="effect1_dropShadow_3468_6301"/>
<feBlend mode="normal" in="SourceGraphic" in2="effect1_dropShadow_3468_6301" result="shape"/>
</filter>
<clipPath id="clip0_3468_6301">
<rect width="33.44" height="33.44" fill="white" transform="translate(10.1562 9.16016)"/>
</clipPath>
</defs>
</svg>
