<svg width="54" height="54" viewBox="0 0 54 54" fill="none" xmlns="http://www.w3.org/2000/svg">
<g filter="url(#filter0_d_3854_8060)">
<rect x="4.53125" y="3.63672" width="45.24" height="45.24" rx="8" fill="white"/>
<g clip-path="url(#clip0_3854_8060)">
<path d="M34.1428 22.5327C34.0389 22.5006 33.9297 22.4895 33.8215 22.4999C33.7132 22.5102 33.6081 22.542 33.5122 22.5932C33.4163 22.6444 33.3315 22.7142 33.2627 22.7983C33.1939 22.8825 33.1425 22.9795 33.1113 23.0837L31.3173 28.9507C31.2855 29.0546 31.2746 29.1638 31.2851 29.2719C31.2957 29.3801 31.3274 29.4851 31.3786 29.5809C31.4298 29.6767 31.4994 29.7615 31.5834 29.8304C31.6675 29.8992 31.7643 29.9508 31.8683 29.9822C31.9468 30.0067 32.0285 30.0189 32.1107 30.0186C32.2874 30.0185 32.4595 29.9617 32.6015 29.8566C32.7435 29.7515 32.8481 29.6035 32.8998 29.4345L34.6938 23.5664C34.7259 23.4623 34.7371 23.353 34.7267 23.2446C34.7164 23.1362 34.6847 23.0309 34.6335 22.9348C34.5822 22.8388 34.5125 22.7538 34.4283 22.6847C34.3441 22.6157 34.2471 22.564 34.1428 22.5327Z" fill="#0C1DA4"/>
<path d="M30.5038 23.5157C30.427 23.4389 30.3359 23.378 30.2356 23.3364C30.1353 23.2948 30.0277 23.2734 29.9192 23.2734C29.8106 23.2734 29.7031 23.2948 29.6027 23.3364C29.5024 23.378 29.4113 23.4389 29.3345 23.5157L27.297 25.5533C27.2201 25.6301 27.1592 25.7212 27.1177 25.8215C27.0761 25.9218 27.0547 26.0293 27.0547 26.1379C27.0547 26.2465 27.0761 26.354 27.1177 26.4543C27.1592 26.5546 27.2201 26.6458 27.297 26.7225L29.3345 28.7601C29.4896 28.9152 29.6999 29.0023 29.9192 29.0023C30.1384 29.0023 30.3487 28.9152 30.5038 28.7601C30.6588 28.6051 30.7459 28.3948 30.7459 28.1755C30.7459 27.9562 30.6588 27.7459 30.5038 27.5909L29.0502 26.1429L30.5038 24.6893C30.5814 24.6126 30.643 24.5212 30.685 24.4205C30.7271 24.3197 30.7487 24.2117 30.7487 24.1025C30.7487 23.9934 30.7271 23.8853 30.685 23.7846C30.643 23.6838 30.5814 23.5925 30.5038 23.5157Z" fill="#0C1DA4"/>
<path d="M38.711 25.5546L36.6734 23.517C36.5977 23.4358 36.5065 23.3706 36.4051 23.3255C36.3037 23.2803 36.1942 23.256 36.0833 23.254C35.9723 23.2521 35.8621 23.2725 35.7591 23.3141C35.6562 23.3556 35.5627 23.4175 35.4843 23.496C35.4058 23.5745 35.3439 23.668 35.3023 23.7709C35.2608 23.8738 35.2404 23.984 35.2423 24.095C35.2443 24.206 35.2686 24.3154 35.3137 24.4168C35.3589 24.5182 35.424 24.6094 35.5052 24.6851L36.9621 26.1441L35.5097 27.5977C35.359 27.7535 35.2756 27.9622 35.2774 28.1789C35.2792 28.3956 35.366 28.603 35.5192 28.7563C35.6723 28.9096 35.8796 28.9966 36.0963 28.9986C36.313 29.0006 36.5218 28.9174 36.6778 28.7669L38.7154 26.7293C38.7927 26.6521 38.854 26.5604 38.8957 26.4595C38.9374 26.3585 38.9586 26.2502 38.9582 26.141C38.9578 26.0318 38.9357 25.9237 38.8933 25.823C38.8509 25.7224 38.7889 25.6311 38.711 25.5546Z" fill="#0C1DA4"/>
<path d="M42.7828 28.6831V23.82C42.7816 22.7244 42.3458 21.6739 41.5711 20.8992C40.7963 20.1244 39.7459 19.6887 38.6503 19.6875H27.3669C26.2713 19.689 25.221 20.1248 24.4464 20.8995C23.6717 21.6742 23.2358 22.7244 23.2344 23.82V28.6831C23.2358 29.7787 23.6717 30.829 24.4464 31.6036C25.221 32.3783 26.2713 32.8142 27.3669 32.8156H38.6503C39.7459 32.8145 40.7963 32.3787 41.5711 31.604C42.3458 30.8292 42.7816 29.7788 42.7828 28.6831ZM24.8874 28.6831V23.82C24.8882 23.1627 25.1498 22.5325 25.6146 22.0677C26.0794 21.6029 26.7095 21.3414 27.3669 21.3405H38.6503C39.3076 21.3414 39.9378 21.6029 40.4026 22.0677C40.8674 22.5325 41.1289 23.1627 41.1298 23.82V28.6831C41.1289 29.3405 40.8674 29.9706 40.4026 30.4354C39.9378 30.9002 39.3076 31.1618 38.6503 31.1626H27.3669C26.7095 31.1618 26.0794 30.9002 25.6146 30.4354C25.1498 29.9706 24.8882 29.3405 24.8874 28.6831Z" fill="#0C1DA4"/>
<path d="M33.0048 17.3977C33.224 17.3977 33.4342 17.3106 33.5892 17.1556C33.7442 17.0007 33.8313 16.7904 33.8313 16.5712V16.3365C33.8296 14.6565 33.1614 13.0458 31.9735 11.8579C30.7855 10.6699 29.1748 10.0018 27.4948 10H17.8677C16.1877 10.0018 14.577 10.6699 13.3891 11.8579C12.2012 13.0458 11.533 14.6565 11.5312 16.3365V36.1725C11.533 37.8525 12.2012 39.4632 13.3891 40.6511C14.577 41.8391 16.1877 42.5072 17.8677 42.509H27.4948C29.1748 42.5072 30.7855 41.8391 31.9735 40.6511C33.1614 39.4632 33.8296 37.8525 33.8313 36.1725V35.9367C33.8313 35.7175 33.7442 35.5072 33.5892 35.3522C33.4342 35.1973 33.224 35.1102 33.0048 35.1102C32.7856 35.1102 32.5754 35.1973 32.4204 35.3522C32.2654 35.5072 32.1783 35.7175 32.1783 35.9367V36.1725C32.1772 37.4143 31.6833 38.6049 30.8053 39.4829C29.9272 40.361 28.7366 40.8548 27.4948 40.856H17.8677C16.626 40.8548 15.4354 40.361 14.5573 39.4829C13.6792 38.6049 13.1854 37.4143 13.1842 36.1725V16.3365C13.1854 15.0947 13.6792 13.9041 14.5573 13.0261C15.4354 12.148 16.626 11.6542 17.8677 11.653H27.4948C28.7366 11.6542 29.9272 12.148 30.8053 13.0261C31.6833 13.9041 32.1772 15.0947 32.1783 16.3365V16.5712C32.1783 16.7904 32.2654 17.0007 32.4204 17.1556C32.5754 17.3106 32.7856 17.3977 33.0048 17.3977Z" fill="#0C1DA4"/>
<path d="M21.6546 13.7891C21.4354 13.7891 21.2252 13.8761 21.0702 14.0311C20.9152 14.1861 20.8281 14.3964 20.8281 14.6156C20.8281 14.8348 20.9152 15.045 21.0702 15.2C21.2252 15.355 21.4354 15.4421 21.6546 15.4421H23.7065C23.9258 15.4421 24.136 15.355 24.291 15.2C24.446 15.045 24.533 14.8348 24.533 14.6156C24.533 14.3964 24.446 14.1861 24.291 14.0311C24.136 13.8761 23.9258 13.7891 23.7065 13.7891H21.6546Z" fill="#0C1DA4"/>
</g>
</g>
<defs>
<filter id="filter0_d_3854_8060" x="0.53125" y="0.636719" width="53.2422" height="53.2383" filterUnits="userSpaceOnUse" color-interpolation-filters="sRGB">
<feFlood flood-opacity="0" result="BackgroundImageFix"/>
<feColorMatrix in="SourceAlpha" type="matrix" values="0 0 0 0 0 0 0 0 0 0 0 0 0 0 0 0 0 0 127 0" result="hardAlpha"/>
<feOffset dy="1"/>
<feGaussianBlur stdDeviation="2"/>
<feComposite in2="hardAlpha" operator="out"/>
<feColorMatrix type="matrix" values="0 0 0 0 0 0 0 0 0 0 0 0 0 0 0 0 0 0 0.1 0"/>
<feBlend mode="normal" in2="BackgroundImageFix" result="effect1_dropShadow_3854_8060"/>
<feBlend mode="normal" in="SourceGraphic" in2="effect1_dropShadow_3854_8060" result="shape"/>
</filter>
<clipPath id="clip0_3854_8060">
<rect width="33.06" height="33.06" fill="white" transform="translate(10.625 9.72656)"/>
</clipPath>
</defs>
</svg>
