<svg width="55" height="55" viewBox="0 0 55 55" fill="none" xmlns="http://www.w3.org/2000/svg">
<g filter="url(#filter0_d_3447_6391)">
<rect x="4.85938" y="3.37891" width="45.76" height="45.76" rx="8" fill="white"/>
<path d="M30.6744 39.4708H18.136C16.3779 39.4708 14.9472 38.0966 14.9472 36.4082V13.803C14.9472 12.1145 16.3779 10.7404 18.136 10.7404H36.4864C38.2444 10.7404 39.6752 12.1145 39.6752 13.803V30.8031C39.6752 31.3775 40.1601 31.8432 40.7581 31.8432C41.3562 31.8432 41.8411 31.3775 41.8411 30.8031V13.803C41.8411 10.9669 39.4393 8.66016 36.4864 8.66016H18.136C15.1831 8.66016 12.7812 10.9669 12.7812 13.803V36.4082C12.7812 39.2442 15.1831 41.551 18.136 41.551H30.6744C31.2725 41.551 31.7574 41.0852 31.7574 40.5109C31.7574 39.9365 31.2725 39.4708 30.6744 39.4708Z" fill="#0C1DA4"/>
<path d="M35.3316 14.8203H19.2939C18.6959 14.8203 18.2109 15.2861 18.2109 15.8604C18.2109 16.4348 18.6959 16.9005 19.2939 16.9005H35.3316C35.9296 16.9005 36.4146 16.4348 36.4146 15.8604C36.4146 15.2861 35.9296 14.8203 35.3316 14.8203Z" fill="#0C1DA4"/>
<path d="M36.4146 22.0245C36.4146 21.4501 35.9296 20.9844 35.3316 20.9844H19.2939C18.6959 20.9844 18.2109 21.4501 18.2109 22.0245C18.2109 22.5989 18.6959 23.0646 19.2939 23.0646H35.3316C35.9296 23.0646 36.4146 22.5989 36.4146 22.0245Z" fill="#0C1DA4"/>
<path d="M19.2939 29.217H24.3237C24.9218 29.217 25.4067 28.7512 25.4067 28.1768C25.4067 27.6025 24.9218 27.1367 24.3237 27.1367H19.2939C18.6959 27.1367 18.2109 27.6025 18.2109 28.1768C18.2109 28.7512 18.6959 29.217 19.2939 29.217Z" fill="#0C1DA4"/>
<path d="M19.2939 35.381H24.7569C25.355 35.381 25.8399 34.9153 25.8399 34.3409C25.8399 33.7665 25.355 33.3008 24.7569 33.3008H19.2939C18.6959 33.3008 18.2109 33.7665 18.2109 34.3409C18.2109 34.9153 18.6959 35.381 19.2939 35.381Z" fill="#0C1DA4"/>
<path d="M42.1699 36.3977L33.7119 28.2744C33.3797 27.9554 32.9393 27.7659 32.4712 27.7393L29.3138 27.5625C28.7675 27.5278 28.2356 27.7255 27.8505 28.0964C27.4643 28.4674 27.2609 28.9794 27.2922 29.5029L27.4763 32.5366C27.5028 32.9861 27.7013 33.4091 28.0334 33.7281L36.4915 41.8514C37.2736 42.6038 38.3025 42.9794 39.3301 42.9794C40.3577 42.9794 41.3865 42.6038 42.1687 41.8514C43.7366 40.3479 43.7366 37.9013 42.1699 36.3977ZM29.4714 29.6554L32.2498 29.8115L38.6466 35.9539L36.0306 38.4664L29.6338 32.3228L29.4714 29.6554ZM40.6393 40.3802C39.9173 41.0725 38.7453 41.0725 38.0233 40.3802L37.5612 39.9364L40.1772 37.424L40.6393 37.8678C41.3601 38.5612 41.3601 39.688 40.6393 40.3802Z" fill="#0C1DA4"/>
</g>
<defs>
<filter id="filter0_d_3447_6391" x="0.859375" y="0.378906" width="53.7578" height="53.7617" filterUnits="userSpaceOnUse" color-interpolation-filters="sRGB">
<feFlood flood-opacity="0" result="BackgroundImageFix"/>
<feColorMatrix in="SourceAlpha" type="matrix" values="0 0 0 0 0 0 0 0 0 0 0 0 0 0 0 0 0 0 127 0" result="hardAlpha"/>
<feOffset dy="1"/>
<feGaussianBlur stdDeviation="2"/>
<feComposite in2="hardAlpha" operator="out"/>
<feColorMatrix type="matrix" values="0 0 0 0 0 0 0 0 0 0 0 0 0 0 0 0 0 0 0.1 0"/>
<feBlend mode="normal" in2="BackgroundImageFix" result="effect1_dropShadow_3447_6391"/>
<feBlend mode="normal" in="SourceGraphic" in2="effect1_dropShadow_3447_6391" result="shape"/>
</filter>
</defs>
</svg>
