<svg width="55" height="55" viewBox="0 0 55 55" fill="none" xmlns="http://www.w3.org/2000/svg">
<g filter="url(#filter0_d_3452_6429)">
<rect x="4.89844" y="3.85938" width="45.76" height="45.76" rx="8" fill="white"/>
<path d="M37.2321 19.2227C37.2321 19.1541 37.2186 19.0862 37.1923 19.0228C37.1661 18.9594 37.1276 18.9018 37.0791 18.8532L28.3984 10.1726C28.3004 10.0746 28.1675 10.0195 28.029 10.0195H15.6662C14.9117 10.0204 14.1883 10.3205 13.6548 10.854C13.1213 11.3876 12.8212 12.1109 12.8203 12.8655V40.6136C12.8212 41.3681 13.1213 42.0915 13.6548 42.625C14.1883 43.1585 14.9117 43.4587 15.6662 43.4595H34.3862C35.1408 43.4587 35.8641 43.1585 36.3976 42.625C36.9312 42.0915 37.2313 41.3681 37.2321 40.6136V37.0512L40.591 40.4102C40.9064 40.7239 41.3335 40.8998 41.7784 40.8992C42.2233 40.8986 42.6499 40.7216 42.9645 40.407C43.2791 40.0924 43.4561 39.6658 43.4567 39.2209C43.4573 38.776 43.2814 38.349 42.9676 38.0335L39.3699 34.4358C40.4778 32.7127 40.8738 30.6268 40.4744 28.6175C40.0751 26.6082 38.9115 24.8323 37.2289 23.6638C37.231 23.645 37.2321 23.626 37.2321 23.6071V19.2227ZM35.4482 18.7002H30.5203C29.9344 18.6996 29.3726 18.4665 28.9583 18.0522C28.5439 17.6378 28.3109 17.0761 28.3102 16.4901V11.5622L35.4482 18.7002ZM39.5811 30.1571C39.5847 31.6069 39.1258 33.0201 38.2712 34.1912C38.1979 34.2918 38.1631 34.4153 38.1728 34.5394C38.1825 34.6635 38.2362 34.78 38.3243 34.868L42.2287 38.7724C42.3479 38.8916 42.4149 39.0532 42.4149 39.2218C42.415 39.3904 42.348 39.5521 42.2288 39.6713C42.1096 39.7905 41.948 39.8575 41.7794 39.8575C41.6108 39.8575 41.4492 39.7906 41.3299 39.6714L37.4255 35.7668C37.3375 35.6787 37.2209 35.625 37.0968 35.6153C36.9727 35.6055 36.8492 35.6404 36.7486 35.7137C35.5006 36.6197 33.9839 37.0792 32.4429 37.0181C30.9018 36.9571 29.4262 36.379 28.2538 35.3771C27.0814 34.3752 26.2804 33.0077 25.9799 31.4951C25.6794 29.9824 25.8968 28.4126 26.5973 27.0386C27.2977 25.6646 28.4403 24.5664 29.8409 23.921C31.2416 23.2755 32.8187 23.1204 34.3183 23.4805C35.8179 23.8407 37.1525 24.6952 38.1073 25.9064C39.062 27.1176 39.5811 28.6149 39.5811 30.1571ZM32.7146 22.2456C31.5245 22.2462 30.3499 22.5152 29.2781 23.0326C28.2064 23.5501 27.2652 24.3027 26.5247 25.2343C25.7842 26.166 25.2634 27.2527 25.0011 28.4135C24.7388 29.5744 24.7418 30.7794 25.0098 31.939C25.2778 33.0985 25.804 34.1826 26.5492 35.1106C27.2943 36.0386 28.2392 36.7865 29.3135 37.2986C30.3878 37.8108 31.5637 38.0739 32.7538 38.0686C33.9439 38.0632 35.1175 37.7894 36.1871 37.2675V40.6139C36.1866 41.0914 35.9966 41.5491 35.659 41.8866C35.3214 42.2242 34.8637 42.4141 34.3862 42.4145H15.6662C15.1887 42.4141 14.7309 42.2242 14.3933 41.8865C14.0556 41.5489 13.8658 41.0911 13.8653 40.6136V12.8655C13.8658 12.388 14.0556 11.9302 14.3933 11.5925C14.7309 11.2549 15.1887 11.065 15.6662 11.0645H27.2652V16.4901C27.2663 17.3531 27.6096 18.1804 28.2198 18.7907C28.83 19.4009 29.6573 19.7442 30.5203 19.7452H36.1871V23.05C35.1064 22.5196 33.9184 22.2444 32.7146 22.2456ZM17.2727 21.3804H23.4065C23.5451 21.3804 23.678 21.3254 23.776 21.2274C23.8739 21.1294 23.929 20.9965 23.929 20.8579V14.7241C23.929 14.5855 23.8739 14.4526 23.776 14.3547C23.678 14.2567 23.5451 14.2016 23.4065 14.2016H17.2727C17.1342 14.2016 17.0013 14.2567 16.9033 14.3547C16.8053 14.4526 16.7502 14.5855 16.7502 14.7241V20.8579C16.7502 20.9965 16.8053 21.1294 16.9033 21.2274C17.0013 21.3254 17.1342 21.3804 17.2727 21.3804ZM17.7952 15.2466H22.884V20.3354H17.7952V15.2466ZM16.219 26.0359C16.219 25.8973 16.2741 25.7644 16.3721 25.6664C16.4701 25.5684 16.603 25.5134 16.7415 25.5134H23.325C23.4636 25.5134 23.5965 25.5684 23.6945 25.6664C23.7925 25.7644 23.8475 25.8973 23.8475 26.0359C23.8475 26.1744 23.7925 26.3073 23.6945 26.4053C23.5965 26.5033 23.4636 26.5584 23.325 26.5584H16.7415C16.603 26.5584 16.4701 26.5033 16.3721 26.4053C16.2741 26.3073 16.219 26.1744 16.219 26.0359ZM16.219 30.3375C16.219 30.1989 16.2741 30.066 16.3721 29.968C16.4701 29.87 16.603 29.815 16.7415 29.815H23.325C23.4636 29.815 23.5965 29.87 23.6945 29.968C23.7925 30.066 23.8475 30.1989 23.8475 30.3375C23.8475 30.476 23.7925 30.6089 23.6945 30.7069C23.5965 30.8049 23.4636 30.86 23.325 30.86H16.7415C16.603 30.86 16.4701 30.8049 16.3721 30.7069C16.2741 30.6089 16.219 30.476 16.219 30.3375ZM16.219 34.6391C16.219 34.5005 16.2741 34.3676 16.3721 34.2696C16.4701 34.1716 16.603 34.1166 16.7415 34.1166H23.325C23.4636 34.1166 23.5965 34.1716 23.6945 34.2696C23.7925 34.3676 23.8475 34.5005 23.8475 34.6391C23.8475 34.7777 23.7925 34.9106 23.6945 35.0085C23.5965 35.1065 23.4636 35.1616 23.325 35.1616H16.7415C16.603 35.1616 16.4701 35.1065 16.3721 35.0085C16.2741 34.9106 16.219 34.7777 16.219 34.6391ZM16.7415 38.4183H33.3109C33.4494 38.4183 33.5823 38.4733 33.6803 38.5713C33.7783 38.6693 33.8334 38.8022 33.8334 38.9408C33.8334 39.0793 33.7783 39.2122 33.6803 39.3102C33.5823 39.4082 33.4494 39.4633 33.3109 39.4633H16.7415C16.603 39.4633 16.4701 39.4082 16.3721 39.3102C16.2741 39.2122 16.219 39.0793 16.219 38.9408C16.219 38.8022 16.2741 38.6693 16.3721 38.5713C16.4701 38.4733 16.603 38.4183 16.7415 38.4183ZM26.9593 30.1571C26.9593 31.2954 27.2968 32.4082 27.9292 33.3546C28.5616 34.3011 29.4605 35.0388 30.5122 35.4744C31.5638 35.91 32.721 36.024 33.8374 35.8019C34.9539 35.5798 35.9794 35.0317 36.7843 34.2268C37.5892 33.4219 38.1373 32.3964 38.3594 31.2799C38.5814 30.1635 38.4675 29.0063 38.0319 27.9547C37.5963 26.903 36.8586 26.0042 35.9121 25.3717C34.9657 24.7393 33.8529 24.4018 32.7146 24.4018C31.1887 24.4035 29.7258 25.0104 28.6469 26.0894C27.5679 27.1684 26.961 28.6313 26.9593 30.1571ZM37.425 30.1571C37.425 31.0888 37.1487 31.9994 36.6311 32.7741C36.1136 33.5487 35.3779 34.1524 34.5172 34.5089C33.6565 34.8654 32.7094 34.9587 31.7957 34.777C30.882 34.5952 30.0427 34.1466 29.3839 33.4878C28.7252 32.8291 28.2765 31.9898 28.0948 31.0761C27.9131 30.1624 28.0063 29.2153 28.3628 28.3546C28.7194 27.4939 29.3231 26.7582 30.0977 26.2406C30.8723 25.7231 31.783 25.4468 32.7146 25.4468C33.9635 25.4482 35.1608 25.9449 36.0438 26.828C36.9269 27.711 37.4236 28.9083 37.425 30.1571Z" fill="#0C1DA4"/>
</g>
<defs>
<filter id="filter0_d_3452_6429" x="0.898438" y="0.859375" width="53.7578" height="53.7617" filterUnits="userSpaceOnUse" color-interpolation-filters="sRGB">
<feFlood flood-opacity="0" result="BackgroundImageFix"/>
<feColorMatrix in="SourceAlpha" type="matrix" values="0 0 0 0 0 0 0 0 0 0 0 0 0 0 0 0 0 0 127 0" result="hardAlpha"/>
<feOffset dy="1"/>
<feGaussianBlur stdDeviation="2"/>
<feComposite in2="hardAlpha" operator="out"/>
<feColorMatrix type="matrix" values="0 0 0 0 0 0 0 0 0 0 0 0 0 0 0 0 0 0 0.1 0"/>
<feBlend mode="normal" in2="BackgroundImageFix" result="effect1_dropShadow_3452_6429"/>
<feBlend mode="normal" in="SourceGraphic" in2="effect1_dropShadow_3452_6429" result="shape"/>
</filter>
</defs>
</svg>
