<svg width="54" height="54" viewBox="0 0 54 54" fill="none" xmlns="http://www.w3.org/2000/svg">
<g filter="url(#filter0_d_3854_8091)">
<rect x="4.23438" y="3.375" width="45.24" height="45.24" rx="8" fill="white"/>
<path d="M21.6875 19.793H27.8863V20.8261H21.6875V19.793Z" fill="#0C1DA4"/>
<path d="M28.9219 19.793H29.955V20.8261H28.9219V19.793Z" fill="#0C1DA4"/>
<path d="M30.9922 19.793H32.0253V20.8261H30.9922V19.793Z" fill="#0C1DA4"/>
<path d="M21.6875 23.9258H27.8863V24.9589H21.6875V23.9258Z" fill="#0C1DA4"/>
<path d="M28.9219 23.9258H29.955V24.9589H28.9219V23.9258Z" fill="#0C1DA4"/>
<path d="M30.9922 23.9258H32.0253V24.9589H30.9922V23.9258Z" fill="#0C1DA4"/>
<path d="M21.6875 28.0586H27.8863V29.0917H21.6875V28.0586Z" fill="#0C1DA4"/>
<path d="M28.9219 28.0586H29.955V29.0917H28.9219V28.0586Z" fill="#0C1DA4"/>
<path d="M30.9922 28.0586H32.0253V29.0917H30.9922V28.0586Z" fill="#0C1DA4"/>
<path d="M40.2869 31.6761C39.8289 31.6767 39.3841 31.8291 39.022 32.1095C38.66 32.39 38.4011 32.7825 38.286 33.2258H32.5384V31.1595C32.9493 31.1591 33.3432 30.9956 33.6337 30.7051C33.9242 30.4146 34.0876 30.0207 34.0881 29.6098V28.0602H37.1875C37.9012 28.0596 38.607 27.9112 39.2604 27.6243C39.9138 27.3375 40.5007 26.9183 40.9841 26.3932C41.4675 25.8682 41.8368 25.2487 42.0688 24.5738C42.3008 23.8989 42.3904 23.1833 42.3321 22.472C42.2737 21.7608 42.0686 21.0693 41.7296 20.4413C41.3907 19.8132 40.9253 19.2622 40.3628 18.823C39.8003 18.3838 39.1529 18.0659 38.4615 17.8894C37.77 17.7129 37.0494 17.6816 36.3452 17.7974C35.8399 15.8912 34.7722 14.1813 33.2811 12.8906C31.79 11.5999 29.9448 10.7882 27.9858 10.5613C26.0268 10.3344 24.0449 10.7028 22.2982 11.6185C20.5516 12.5341 19.1213 13.9547 18.1936 15.6949C17.9824 15.6735 17.7703 15.6627 17.5581 15.6627C15.9141 15.6627 14.3374 16.3157 13.1749 17.4782C12.0125 18.6407 11.3594 20.2174 11.3594 21.8614C11.3594 23.5054 12.0125 25.0821 13.1749 26.2446C14.3374 27.4071 15.9141 28.0602 17.5581 28.0602H19.6244V29.6098C19.6249 30.0207 19.7883 30.4146 20.0788 30.7051C20.3693 30.9956 20.7632 31.1591 21.1741 31.1595V33.2258H15.4265C15.3007 32.7388 15.0017 32.3145 14.5855 32.0322C14.1693 31.75 13.6644 31.6292 13.1655 31.6926C12.6666 31.7559 12.2079 31.9991 11.8754 32.3764C11.543 32.7538 11.3596 33.2394 11.3596 33.7423C11.3596 34.2453 11.543 34.7309 11.8754 35.1083C12.2079 35.4856 12.6666 35.7288 13.1655 35.7921C13.6644 35.8555 14.1693 35.7347 14.5855 35.4525C15.0017 35.1702 15.3007 34.7458 15.4265 34.2589H21.6906C21.8276 34.2589 21.959 34.2045 22.0559 34.1076C22.1528 34.0107 22.2072 33.8793 22.2072 33.7423V31.1595H23.2403V35.292H19.1078C18.9708 35.292 18.8394 35.3465 18.7425 35.4433C18.6457 35.5402 18.5912 35.6716 18.5912 35.8086V37.4237C18.1043 37.5494 17.6799 37.8484 17.3977 38.2647C17.1154 38.6809 16.9947 39.1858 17.058 39.6847C17.1214 40.1836 17.3645 40.6423 17.7419 40.9747C18.1193 41.3072 18.6049 41.4906 19.1078 41.4906C19.6107 41.4906 20.0964 41.3072 20.4737 40.9747C20.8511 40.6423 21.0942 40.1836 21.1576 39.6847C21.221 39.1858 21.1002 38.6809 20.8179 38.2647C20.5357 37.8484 20.1113 37.5494 19.6244 37.4237V36.3252H23.7569C23.8939 36.3252 24.0253 36.2707 24.1221 36.1739C24.219 36.077 24.2734 35.9456 24.2734 35.8086V31.1595H26.3397V36.3906C25.8527 36.5163 25.4284 36.8153 25.1461 37.2315C24.8639 37.6478 24.7431 38.1527 24.8065 38.6516C24.8698 39.1505 25.113 39.6091 25.4903 39.9416C25.8677 40.274 26.3533 40.4575 26.8562 40.4575C27.3592 40.4575 27.8448 40.274 28.2222 39.9416C28.5995 39.6091 28.8427 39.1505 28.906 38.6516C28.9694 38.1527 28.8486 37.6478 28.5664 37.2315C28.2841 36.8153 27.8598 36.5163 27.3728 36.3906V31.1595H29.4391V35.8086C29.4391 35.9456 29.4935 36.077 29.5904 36.1739C29.6872 36.2707 29.8186 36.3252 29.9556 36.3252H34.0881V37.4237C33.6012 37.5494 33.1768 37.8484 32.8946 38.2647C32.6123 38.6809 32.4915 39.1858 32.5549 39.6847C32.6183 40.1836 32.8614 40.6423 33.2388 40.9747C33.6161 41.3072 34.1018 41.4906 34.6047 41.4906C35.1076 41.4906 35.5932 41.3072 35.9706 40.9747C36.3479 40.6423 36.5911 40.1836 36.6545 39.6847C36.7178 39.1858 36.5971 38.6809 36.3148 38.2647C36.0326 37.8484 35.6082 37.5494 35.1212 37.4237V35.8086C35.1212 35.6716 35.0668 35.5402 34.97 35.4433C34.8731 35.3465 34.7417 35.292 34.6047 35.292H30.4722V31.1595H31.5053V33.7423C31.5053 33.8793 31.5597 34.0107 31.6566 34.1076C31.7535 34.2045 31.8849 34.2589 32.0219 34.2589H38.286C38.3826 34.6331 38.5823 34.9727 38.8622 35.2391C39.1421 35.5055 39.4912 35.6881 39.8697 35.7661C40.2482 35.8441 40.6409 35.8144 41.0034 35.6803C41.3659 35.5463 41.6835 35.3132 41.9201 35.0077C42.1568 34.7022 42.303 34.3365 42.3423 33.952C42.3815 33.5676 42.3121 33.1798 42.142 32.8328C41.9719 32.4858 41.7079 32.1935 41.3799 31.989C41.052 31.7845 40.6733 31.6761 40.2869 31.6761ZM13.4256 34.7755C13.2213 34.7755 13.0215 34.7149 12.8517 34.6014C12.6818 34.4878 12.5493 34.3265 12.4711 34.1377C12.3929 33.9489 12.3725 33.7412 12.4124 33.5408C12.4522 33.3404 12.5506 33.1563 12.6951 33.0118C12.8396 32.8673 13.0237 32.7689 13.2241 32.7291C13.4245 32.6892 13.6322 32.7097 13.821 32.7879C14.0098 32.8661 14.1711 32.9985 14.2846 33.1684C14.3982 33.3383 14.4587 33.538 14.4587 33.7423C14.4584 34.0162 14.3495 34.2788 14.1558 34.4725C13.9621 34.6662 13.6995 34.7751 13.4256 34.7755ZM20.1409 39.4245C20.1409 39.6289 20.0803 39.8286 19.9668 39.9985C19.8533 40.1684 19.692 40.3008 19.5032 40.379C19.3144 40.4572 19.1067 40.4777 18.9063 40.4378C18.7059 40.3979 18.5218 40.2995 18.3773 40.1551C18.2328 40.0106 18.1344 39.8265 18.0945 39.6261C18.0547 39.4257 18.0751 39.2179 18.1533 39.0292C18.2315 38.8404 18.3639 38.679 18.5338 38.5655C18.7037 38.452 18.9035 38.3914 19.1078 38.3914C19.3817 38.3917 19.6443 38.5007 19.838 38.6944C20.0317 38.888 20.1406 39.1506 20.1409 39.4245ZM27.8894 38.3914C27.8894 38.5957 27.8288 38.7955 27.7153 38.9654C27.6017 39.1353 27.4404 39.2677 27.2516 39.3459C27.0628 39.4241 26.8551 39.4445 26.6547 39.4047C26.4543 39.3648 26.2702 39.2664 26.1257 39.1219C25.9812 38.9774 25.8828 38.7934 25.843 38.593C25.8031 38.3926 25.8236 38.1848 25.9018 37.996C25.98 37.8073 26.1124 37.6459 26.2823 37.5324C26.4522 37.4189 26.6519 37.3583 26.8562 37.3583C27.1302 37.3586 27.3927 37.4676 27.5864 37.6612C27.7801 37.8549 27.889 38.1175 27.8894 38.3914ZM35.6378 39.4245C35.6378 39.6289 35.5772 39.8286 35.4637 39.9985C35.3502 40.1684 35.1888 40.3008 35 40.379C34.8113 40.4572 34.6035 40.4777 34.4031 40.4378C34.2027 40.3979 34.0186 40.2995 33.8742 40.1551C33.7297 40.0106 33.6313 39.8265 33.5914 39.6261C33.5515 39.4257 33.572 39.2179 33.6502 39.0292C33.7284 38.8404 33.8608 38.679 34.0307 38.5655C34.2006 38.452 34.4004 38.3914 34.6047 38.3914C34.8786 38.3917 35.1412 38.5007 35.3349 38.6944C35.5285 38.888 35.6375 39.1506 35.6378 39.4245ZM20.6575 21.3448V19.2786C20.6577 19.1416 20.7121 19.0103 20.809 18.9135C20.9058 18.8167 21.0371 18.7622 21.1741 18.762H32.5384C32.6754 18.7622 32.8067 18.8167 32.9035 18.9135C33.0004 19.0103 33.0548 19.1416 33.055 19.2786V21.3448C33.0548 21.4818 33.0004 21.6131 32.9035 21.7099C32.8067 21.8068 32.6754 21.8613 32.5384 21.8614H21.1741C21.0371 21.8613 20.9058 21.8068 20.809 21.7099C20.7121 21.6131 20.6577 21.4818 20.6575 21.3448ZM20.6575 25.4773V23.4111C20.6577 23.2741 20.7121 23.1428 20.809 23.046C20.9058 22.9492 21.0371 22.8947 21.1741 22.8945H32.5384C32.6754 22.8947 32.8067 22.9492 32.9035 23.046C33.0004 23.1428 33.0548 23.2741 33.055 23.4111V25.4773C33.0548 25.6143 33.0004 25.7456 32.9035 25.8424C32.8067 25.9393 32.6754 25.9938 32.5384 25.9939H21.1741C21.0371 25.9938 20.9058 25.9393 20.809 25.8424C20.7121 25.7456 20.6577 25.6143 20.6575 25.4773ZM12.3925 21.8614C12.3941 20.4919 12.9388 19.1789 13.9072 18.2105C14.8756 17.2421 16.1886 16.6973 17.5581 16.6958C17.8415 16.6957 18.1244 16.7187 18.404 16.7645C18.5139 16.7827 18.6267 16.7649 18.7256 16.7136C18.8246 16.6624 18.9043 16.5806 18.9528 16.4804C19.7527 14.8313 21.0484 13.4738 22.6584 12.5979C24.2684 11.7221 26.1121 11.3718 27.9311 11.5961C29.7501 11.8204 31.4534 12.6081 32.8024 13.8489C34.1514 15.0896 35.0785 16.7213 35.4538 18.5152C35.4682 18.5844 35.4965 18.6499 35.5372 18.7076C35.5779 18.7653 35.63 18.8141 35.6902 18.851C35.7505 18.8878 35.8177 18.9119 35.8876 18.9217C35.9575 18.9315 36.0288 18.9269 36.0968 18.9082C36.6651 18.7529 37.2599 18.7209 37.8415 18.8143C38.423 18.9078 38.9779 19.1244 39.4689 19.4498C39.9599 19.7752 40.3757 20.2018 40.6883 20.701C41.001 21.2003 41.2033 21.7605 41.2817 22.3443C41.3602 22.9281 41.3129 23.5219 41.1431 24.086C40.9732 24.65 40.6848 25.1712 40.2971 25.6146C39.9094 26.0581 39.4313 26.4135 38.895 26.6571C38.3587 26.9007 37.7765 27.0268 37.1875 27.027H33.9993C33.9316 26.8365 33.8273 26.661 33.6922 26.5105C33.9474 26.2269 34.0884 25.8588 34.0881 25.4773V23.4111C34.0884 23.0296 33.9474 22.6616 33.6922 22.378C33.9474 22.0944 34.0884 21.7263 34.0881 21.3448V19.2786C34.0876 18.8677 33.9242 18.4738 33.6337 18.1833C33.3432 17.8928 32.9493 17.7294 32.5384 17.7289H21.1741C20.7632 17.7294 20.3693 17.8928 20.0788 18.1833C19.7883 18.4738 19.6249 18.8677 19.6244 19.2786V21.3448C19.6241 21.7263 19.7651 22.0944 20.0203 22.378C19.7651 22.6616 19.6241 23.0296 19.6244 23.4111V25.4773C19.6241 25.8588 19.7651 26.2269 20.0203 26.5105C19.8852 26.661 19.7809 26.8365 19.7132 27.027H17.5581C16.1886 27.0255 14.8756 26.4807 13.9072 25.5123C12.9388 24.5439 12.3941 23.2309 12.3925 21.8614ZM20.6575 29.6098V27.5436C20.6577 27.4066 20.7121 27.2753 20.809 27.1785C20.9058 27.0817 21.0371 27.0272 21.1741 27.027H32.5384C32.6754 27.0272 32.8067 27.0817 32.9035 27.1785C33.0004 27.2753 33.0548 27.4066 33.055 27.5436V29.6098C33.0548 29.7468 33.0004 29.8781 32.9035 29.9749C32.8067 30.0718 32.6754 30.1263 32.5384 30.1264H21.1741C21.0371 30.1263 20.9058 30.0718 20.809 29.9749C20.7121 29.8781 20.6577 29.7468 20.6575 29.6098ZM40.2869 34.7755C40.0825 34.7755 39.8828 34.7149 39.7129 34.6014C39.543 34.4878 39.4106 34.3265 39.3324 34.1377C39.2542 33.9489 39.2337 33.7412 39.2736 33.5408C39.3135 33.3404 39.4119 33.1563 39.5563 33.0118C39.7008 32.8673 39.8849 32.7689 40.0853 32.7291C40.2857 32.6892 40.4935 32.7097 40.6822 32.7879C40.871 32.8661 41.0324 32.9985 41.1459 33.1684C41.2594 33.3383 41.32 33.538 41.32 33.7423C41.3197 34.0162 41.2107 34.2788 41.017 34.4725C40.8234 34.6662 40.5608 34.7751 40.2869 34.7755Z" fill="#0C1DA4"/>
</g>
<defs>
<filter id="filter0_d_3854_8091" x="0.234375" y="0.375" width="53.2422" height="53.2383" filterUnits="userSpaceOnUse" color-interpolation-filters="sRGB">
<feFlood flood-opacity="0" result="BackgroundImageFix"/>
<feColorMatrix in="SourceAlpha" type="matrix" values="0 0 0 0 0 0 0 0 0 0 0 0 0 0 0 0 0 0 127 0" result="hardAlpha"/>
<feOffset dy="1"/>
<feGaussianBlur stdDeviation="2"/>
<feComposite in2="hardAlpha" operator="out"/>
<feColorMatrix type="matrix" values="0 0 0 0 0 0 0 0 0 0 0 0 0 0 0 0 0 0 0.1 0"/>
<feBlend mode="normal" in2="BackgroundImageFix" result="effect1_dropShadow_3854_8091"/>
<feBlend mode="normal" in="SourceGraphic" in2="effect1_dropShadow_3854_8091" result="shape"/>
</filter>
</defs>
</svg>
