<svg width="54" height="54" viewBox="0 0 54 54" fill="none" xmlns="http://www.w3.org/2000/svg">
<g filter="url(#filter0_d_3468_6318)">
<rect x="4" y="3" width="45.76" height="45.76" rx="8" fill="white"/>
<g clip-path="url(#clip0_3468_6318)">
<path d="M34.0166 27.1134C32.5564 25.6588 30.2797 25.5139 28.6453 26.6648L21.3025 19.3219V14.7337C21.3025 13.5716 20.6768 12.489 19.6695 11.908L15.5159 9.51147C14.4904 8.91791 13.1905 9.09068 12.3531 9.92807L10.9235 11.3576C10.0861 12.195 9.91474 13.4936 10.5055 14.5205L12.9007 18.674C13.4817 19.6814 14.5643 20.307 15.7277 20.307H20.316L27.6547 27.6457C27.1475 28.3507 26.8646 29.1867 26.8646 30.0715C26.8646 31.1889 27.3008 32.2381 28.0936 33.0268L36.4828 41.377C37.2687 42.1601 38.3401 42.6003 39.4464 42.6003C40.8091 42.6003 41.9419 41.9761 42.6957 41.0593C44.0375 39.4222 43.8494 36.903 42.2652 35.323L34.0166 27.1134ZM14.1073 17.9774L11.7121 13.8238C11.4349 13.3431 11.5157 12.7356 11.9072 12.3441L13.3368 10.9146C13.7283 10.523 14.34 10.4436 14.8179 10.7181L18.97 13.1146C19.5482 13.4476 19.9063 14.0705 19.9063 14.7351V18.9151H15.7263C15.0603 18.9151 14.4403 18.5556 14.1059 17.9788L14.1073 17.9774ZM41.6173 40.1746C41.1059 40.7974 40.3842 41.1638 39.5858 41.2028C38.7916 41.2391 38.0238 40.9451 37.4651 40.3891L29.0759 32.0389C28.5492 31.5136 28.258 30.8141 28.258 30.0715C28.258 29.3275 28.5478 28.628 29.0759 28.0999C29.622 27.5565 30.3382 27.2848 31.053 27.2848C31.7678 27.2848 32.4853 27.5565 33.0315 28.0999L41.2787 36.3094C42.3599 37.3865 42.5076 39.085 41.6145 40.1732L41.6173 40.1746ZM23.0831 16.6788C24.1769 12.914 27.3676 10.0312 31.2104 9.33312C32.7361 9.05724 34.2577 9.11158 35.7304 9.49475C36.4243 9.67588 36.951 10.1956 37.1405 10.8867C37.3272 11.5708 37.1405 12.2814 36.6417 12.7844L31.7051 17.7628C30.805 18.6629 30.805 20.1259 31.7037 21.0246C32.6024 21.9233 34.064 21.9219 34.9627 21.0246L39.9188 16.0267C40.4162 15.5223 41.1212 15.3314 41.8081 15.5126C42.502 15.6965 43.0273 16.2218 43.2154 16.9184C43.6111 18.394 43.6766 19.9169 43.4091 21.4495C42.9409 24.1401 41.3637 26.5965 39.08 28.1905C38.9588 28.2755 38.8194 28.3159 38.6815 28.3159C38.4614 28.3159 38.2454 28.2128 38.1088 28.0177C37.8887 27.7014 37.9653 27.2681 38.2816 27.048C40.2629 25.6658 41.6312 23.5382 42.0353 21.2113C42.2679 19.8807 42.2108 18.5584 41.8681 17.2821C41.7872 16.9811 41.549 16.8878 41.4501 16.8613C41.3539 16.832 41.1115 16.8 40.9067 17.0076L35.9478 22.0083C34.5057 23.4532 32.1607 23.4546 30.7172 22.0111C30.0191 21.313 29.6346 20.385 29.6346 19.3958C29.6346 18.4065 30.0191 17.4799 30.7172 16.7819L35.6524 11.8049C35.86 11.5945 35.8224 11.3507 35.7959 11.2545C35.7694 11.157 35.6747 10.9201 35.3793 10.8421C34.1016 10.5119 32.7849 10.4645 31.4599 10.7042C28.1326 11.3089 25.3696 13.8057 24.4221 17.0661C24.3148 17.4354 23.9331 17.6485 23.5583 17.5412C23.189 17.434 22.9772 17.048 23.0845 16.6774L23.0831 16.6788ZM24.9349 32.776C25.2066 33.049 25.2066 33.4907 24.9349 33.7624L17.2966 41.3784C16.5108 42.1614 15.4393 42.6017 14.333 42.6017C12.9438 42.6017 11.8375 41.9789 11.0851 41.0621C9.74196 39.4249 9.93006 36.9058 11.5143 35.3258L21.2356 25.6323C21.5087 25.3634 21.949 25.362 22.2207 25.6323C22.4924 25.9054 22.4924 26.3471 22.2207 26.6188L12.4994 36.3122C11.4181 37.3893 11.2705 39.0878 12.1636 40.1759C12.6749 40.7988 13.3967 41.1638 14.1951 41.2028C15.0018 41.2586 15.757 40.9451 16.3143 40.3891L23.9526 32.7732C24.2243 32.5043 24.666 32.5029 24.9377 32.7732L24.9349 32.776Z" fill="#0C1DA4"/>
</g>
</g>
<defs>
<filter id="filter0_d_3468_6318" x="0" y="0" width="53.7578" height="53.7617" filterUnits="userSpaceOnUse" color-interpolation-filters="sRGB">
<feFlood flood-opacity="0" result="BackgroundImageFix"/>
<feColorMatrix in="SourceAlpha" type="matrix" values="0 0 0 0 0 0 0 0 0 0 0 0 0 0 0 0 0 0 127 0" result="hardAlpha"/>
<feOffset dy="1"/>
<feGaussianBlur stdDeviation="2"/>
<feComposite in2="hardAlpha" operator="out"/>
<feColorMatrix type="matrix" values="0 0 0 0 0 0 0 0 0 0 0 0 0 0 0 0 0 0 0.1 0"/>
<feBlend mode="normal" in2="BackgroundImageFix" result="effect1_dropShadow_3468_6318"/>
<feBlend mode="normal" in="SourceGraphic" in2="effect1_dropShadow_3468_6318" result="shape"/>
</filter>
<clipPath id="clip0_3468_6318">
<rect width="33.44" height="33.44" fill="white" transform="translate(10.1562 9.16016)"/>
</clipPath>
</defs>
</svg>
