<svg width="55" height="55" viewBox="0 0 55 55" fill="none" xmlns="http://www.w3.org/2000/svg">
<g filter="url(#filter0_d_3447_6275)">
<rect x="4.89844" y="3.85938" width="45.76" height="45.76" rx="8" fill="white"/>
<path d="M22.7579 17.8233H32.7899C33.2334 17.8233 33.6587 17.6472 33.9722 17.3336C34.2858 17.0201 34.4619 16.5948 34.4619 16.1513V13.922C34.4619 13.4786 34.2858 13.0533 33.9722 12.7397C33.6587 12.4262 33.2334 12.25 32.7899 12.25H22.7579C22.3145 12.25 21.8892 12.4262 21.5757 12.7397C21.2621 13.0533 21.0859 13.4786 21.0859 13.922V16.1513C21.0859 16.5948 21.2621 17.0201 21.5757 17.3336C21.8892 17.6472 22.3145 17.8233 22.7579 17.8233ZM22.2006 13.922C22.2006 13.7742 22.2593 13.6324 22.3638 13.5279C22.4684 13.4234 22.6101 13.3647 22.7579 13.3647H32.7899C32.9378 13.3647 33.0795 13.4234 33.184 13.5279C33.2886 13.6324 33.3473 13.7742 33.3473 13.922V16.1513C33.3473 16.2991 33.2886 16.4409 33.184 16.5454C33.0795 16.6499 32.9378 16.7087 32.7899 16.7087H22.7579C22.6101 16.7087 22.4684 16.6499 22.3638 16.5454C22.2593 16.4409 22.2006 16.2991 22.2006 16.1513V13.922Z" fill="#0C1DA4"/>
<path d="M22.7579 24.5108H32.7899C33.2334 24.5108 33.6587 24.3347 33.9722 24.0211C34.2858 23.7076 34.4619 23.2823 34.4619 22.8388V20.6095C34.4619 20.1661 34.2858 19.7408 33.9722 19.4272C33.6587 19.1137 33.2334 18.9375 32.7899 18.9375H22.7579C22.3145 18.9375 21.8892 19.1137 21.5757 19.4272C21.2621 19.7408 21.0859 20.1661 21.0859 20.6095V22.8388C21.0859 23.2823 21.2621 23.7076 21.5757 24.0211C21.8892 24.3347 22.3145 24.5108 22.7579 24.5108ZM22.2006 20.6095C22.2006 20.4617 22.2593 20.3199 22.3638 20.2154C22.4684 20.1109 22.6101 20.0522 22.7579 20.0522H32.7899C32.9378 20.0522 33.0795 20.1109 33.184 20.2154C33.2886 20.3199 33.3473 20.4617 33.3473 20.6095V22.8388C33.3473 22.9866 33.2886 23.1284 33.184 23.2329C33.0795 23.3374 32.9378 23.3962 32.7899 23.3962H22.7579C22.6101 23.3962 22.4684 23.3374 22.3638 23.2329C22.2593 23.1284 22.2006 22.9866 22.2006 22.8388V20.6095Z" fill="#0C1DA4"/>
<path d="M22.7579 31.1983H32.7899C33.2334 31.1983 33.6587 31.0222 33.9722 30.7086C34.2858 30.3951 34.4619 29.9698 34.4619 29.5263V27.297C34.4619 26.8536 34.2858 26.4283 33.9722 26.1147C33.6587 25.8012 33.2334 25.625 32.7899 25.625H22.7579C22.3145 25.625 21.8892 25.8012 21.5757 26.1147C21.2621 26.4283 21.0859 26.8536 21.0859 27.297V29.5263C21.0859 29.9698 21.2621 30.3951 21.5757 30.7086C21.8892 31.0222 22.3145 31.1983 22.7579 31.1983ZM22.2006 27.297C22.2006 27.1492 22.2593 27.0074 22.3638 26.9029C22.4684 26.7984 22.6101 26.7397 22.7579 26.7397H32.7899C32.9378 26.7397 33.0795 26.7984 33.184 26.9029C33.2886 27.0074 33.3473 27.1492 33.3473 27.297V29.5263C33.3473 29.6741 33.2886 29.8159 33.184 29.9204C33.0795 30.0249 32.9378 30.0837 32.7899 30.0837H22.7579C22.6101 30.0837 22.4684 30.0249 22.3638 29.9204C22.2593 29.8159 22.2006 29.6741 22.2006 29.5263V27.297Z" fill="#0C1DA4"/>
<path d="M22.7579 37.8858H32.7899C33.2334 37.8858 33.6587 37.7097 33.9722 37.3961C34.2858 37.0826 34.4619 36.6573 34.4619 36.2138V33.9845C34.4619 33.5411 34.2858 33.1158 33.9722 32.8022C33.6587 32.4887 33.2334 32.3125 32.7899 32.3125H22.7579C22.3145 32.3125 21.8892 32.4887 21.5757 32.8022C21.2621 33.1158 21.0859 33.5411 21.0859 33.9845V36.2138C21.0859 36.6573 21.2621 37.0826 21.5757 37.3961C21.8892 37.7097 22.3145 37.8858 22.7579 37.8858ZM22.2006 33.9845C22.2006 33.8367 22.2593 33.6949 22.3638 33.5904C22.4684 33.4859 22.6101 33.4272 22.7579 33.4272H32.7899C32.9378 33.4272 33.0795 33.4859 33.184 33.5904C33.2886 33.6949 33.3473 33.8367 33.3473 33.9845V36.2138C33.3473 36.3616 33.2886 36.5034 33.184 36.6079C33.0795 36.7124 32.9378 36.7712 32.7899 36.7712H22.7579C22.6101 36.7712 22.4684 36.7124 22.3638 36.6079C22.2593 36.5034 22.2006 36.3616 22.2006 36.2138V33.9845Z" fill="#0C1DA4"/>
<path d="M42.8227 35.736V15.0355C42.8227 14.5921 42.6465 14.1668 42.333 13.8532C42.0194 13.5397 41.5941 13.3635 41.1507 13.3635H36.692V11.6915C36.692 11.2481 36.5159 10.8228 36.2023 10.5092C35.8887 10.1957 35.4635 10.0195 35.02 10.0195H20.5294C20.0859 10.0195 19.6606 10.1957 19.3471 10.5092C19.0335 10.8228 18.8574 11.2481 18.8574 11.6915V13.3635H14.3987C13.9552 13.3635 13.53 13.5397 13.2164 13.8532C12.9028 14.1668 12.7267 14.5921 12.7267 15.0355V35.736C12.2495 35.8592 11.8266 36.137 11.5241 36.5261C11.2216 36.9151 11.0565 37.3934 11.0547 37.8862V39.0009C11.0547 39.2965 11.1721 39.58 11.3812 39.7891C11.5902 39.9981 11.8737 40.1155 12.1694 40.1155H17.4952C17.2946 40.4529 17.1877 40.8377 17.1854 41.2302V42.3449C17.1854 42.6405 17.3028 42.924 17.5118 43.1331C17.7209 43.3421 18.0044 43.4595 18.3 43.4595H37.2494C37.545 43.4595 37.8285 43.3421 38.0375 43.1331C38.2466 42.924 38.364 42.6405 38.364 42.3449V41.2302C38.3617 40.8377 38.2547 40.4529 38.0541 40.1155H43.38C43.6756 40.1155 43.9592 39.9981 44.1682 39.7891C44.3772 39.58 44.4947 39.2965 44.4947 39.0009V37.8862C44.4928 37.3934 44.3278 36.9151 44.0252 36.5261C43.7227 36.137 43.2998 35.8592 42.8227 35.736ZM41.1507 14.4782C41.2985 14.4782 41.4403 14.5369 41.5448 14.6414C41.6493 14.746 41.708 14.8877 41.708 15.0355V35.6569H36.692V34.5422H38.9214C39.3648 34.5422 39.7901 34.366 40.1036 34.0525C40.4172 33.7389 40.5934 33.3136 40.5934 32.8702V30.6409C40.5934 30.1974 40.4172 29.7721 40.1036 29.4586C39.7901 29.145 39.3648 28.9689 38.9214 28.9689H36.692V27.8542H38.9214C39.3648 27.8542 39.7901 27.678 40.1036 27.3645C40.4172 27.0509 40.5934 26.6256 40.5934 26.1822V23.9529C40.5934 23.5094 40.4172 23.0841 40.1036 22.7706C39.7901 22.457 39.3648 22.2809 38.9214 22.2809H36.692V21.1662H38.9214C39.3648 21.1662 39.7901 20.99 40.1036 20.6765C40.4172 20.3629 40.5934 19.9376 40.5934 19.4942V17.2649C40.5934 16.8214 40.4172 16.3961 40.1036 16.0826C39.7901 15.769 39.3648 15.5929 38.9214 15.5929H36.692V14.4782H41.1507ZM37.8067 17.8222H36.692V16.7075H38.9214C39.0692 16.7075 39.2109 16.7662 39.3154 16.8708C39.42 16.9753 39.4787 17.1171 39.4787 17.2649V19.4942C39.4787 19.642 39.42 19.7838 39.3154 19.8883C39.2109 19.9928 39.0692 20.0515 38.9214 20.0515H36.692V18.9369H37.8067C37.9545 18.9369 38.0963 18.8781 38.2008 18.7736C38.3053 18.6691 38.364 18.5273 38.364 18.3795C38.364 18.2317 38.3053 18.09 38.2008 17.9854C38.0963 17.8809 37.9545 17.8222 37.8067 17.8222ZM36.692 32.3129H37.8067C37.9545 32.3129 38.0963 32.2541 38.2008 32.1496C38.3053 32.0451 38.364 31.9033 38.364 31.7555C38.364 31.6077 38.3053 31.466 38.2008 31.3614C38.0963 31.2569 37.9545 31.1982 37.8067 31.1982H36.692V30.0835H38.9214C39.0692 30.0835 39.2109 30.1422 39.3154 30.2468C39.42 30.3513 39.4787 30.493 39.4787 30.6409V32.8702C39.4787 33.018 39.42 33.1598 39.3154 33.2643C39.2109 33.3688 39.0692 33.4275 38.9214 33.4275H36.692V32.3129ZM36.692 25.6249H37.8067C37.9545 25.6249 38.0963 25.5661 38.2008 25.4616C38.3053 25.3571 38.364 25.2153 38.364 25.0675C38.364 24.9197 38.3053 24.778 38.2008 24.6734C38.0963 24.5689 37.9545 24.5102 37.8067 24.5102H36.692V23.3955H38.9214C39.0692 23.3955 39.2109 23.4542 39.3154 23.5588C39.42 23.6633 39.4787 23.805 39.4787 23.9529V26.1822C39.4787 26.33 39.42 26.4718 39.3154 26.5763C39.2109 26.6808 39.0692 26.7395 38.9214 26.7395H36.692V25.6249ZM19.972 11.6915C19.972 11.5437 20.0307 11.402 20.1353 11.2974C20.2398 11.1929 20.3815 11.1342 20.5294 11.1342H35.02C35.1678 11.1342 35.3096 11.1929 35.4141 11.2974C35.5186 11.402 35.5774 11.5437 35.5774 11.6915V39.0009H19.972V11.6915ZM18.8574 17.8222H17.7427C17.5949 17.8222 17.4531 17.8809 17.3486 17.9854C17.2441 18.09 17.1854 18.2317 17.1854 18.3795C17.1854 18.5273 17.2441 18.6691 17.3486 18.7736C17.4531 18.8781 17.5949 18.9369 17.7427 18.9369H18.8574V20.0515H16.628C16.4802 20.0515 16.3384 19.9928 16.2339 19.8883C16.1294 19.7838 16.0707 19.642 16.0707 19.4942V17.2649C16.0707 17.1171 16.1294 16.9753 16.2339 16.8708C16.3384 16.7662 16.4802 16.7075 16.628 16.7075H18.8574V17.8222ZM18.8574 24.5102H17.7427C17.5949 24.5102 17.4531 24.5689 17.3486 24.6734C17.2441 24.778 17.1854 24.9197 17.1854 25.0675C17.1854 25.2153 17.2441 25.3571 17.3486 25.4616C17.4531 25.5661 17.5949 25.6249 17.7427 25.6249H18.8574V26.7395H16.628C16.4802 26.7395 16.3384 26.6808 16.2339 26.5763C16.1294 26.4718 16.0707 26.33 16.0707 26.1822V23.9529C16.0707 23.805 16.1294 23.6633 16.2339 23.5588C16.3384 23.4542 16.4802 23.3955 16.628 23.3955H18.8574V24.5102ZM18.8574 31.1982H17.7427C17.5949 31.1982 17.4531 31.2569 17.3486 31.3614C17.2441 31.466 17.1854 31.6077 17.1854 31.7555C17.1854 31.9033 17.2441 32.0451 17.3486 32.1496C17.4531 32.2541 17.5949 32.3129 17.7427 32.3129H18.8574V33.4275H16.628C16.4802 33.4275 16.3384 33.3688 16.2339 33.2643C16.1294 33.1598 16.0707 33.018 16.0707 32.8702V30.6409C16.0707 30.493 16.1294 30.3513 16.2339 30.2468C16.3384 30.1422 16.4802 30.0835 16.628 30.0835H18.8574V31.1982ZM14.3987 14.4782H18.8574V15.5929H16.628C16.1846 15.5929 15.7593 15.769 15.4457 16.0826C15.1322 16.3961 14.956 16.8214 14.956 17.2649V19.4942C14.956 19.9376 15.1322 20.3629 15.4457 20.6765C15.7593 20.99 16.1846 21.1662 16.628 21.1662H18.8574V22.2809H16.628C16.1846 22.2809 15.7593 22.457 15.4457 22.7706C15.1322 23.0841 14.956 23.5094 14.956 23.9529V26.1822C14.956 26.6256 15.1322 27.0509 15.4457 27.3645C15.7593 27.678 16.1846 27.8542 16.628 27.8542H18.8574V28.9689H16.628C16.1846 28.9689 15.7593 29.145 15.4457 29.4586C15.1322 29.7721 14.956 30.1974 14.956 30.6409V32.8702C14.956 33.3136 15.1322 33.7389 15.4457 34.0525C15.7593 34.366 16.1846 34.5422 16.628 34.5422H18.8574V35.6569H13.8414V15.0355C13.8414 14.8877 13.9001 14.746 14.0046 14.6414C14.1091 14.5369 14.2509 14.4782 14.3987 14.4782ZM12.1694 37.8862C12.1694 37.5906 12.2868 37.307 12.4958 37.098C12.7049 36.889 12.9884 36.7715 13.284 36.7715H18.8574V39.0009H12.1694V37.8862ZM37.2494 41.2302V42.3449H18.3V41.2302C18.3 40.9346 18.4175 40.651 18.6265 40.442C18.8355 40.233 19.1191 40.1155 19.4147 40.1155H36.1347C36.4303 40.1155 36.7138 40.233 36.9229 40.442C37.1319 40.651 37.2494 40.9346 37.2494 41.2302ZM43.38 39.0009H36.692V36.7715H42.2654C42.561 36.7715 42.8445 36.889 43.0535 37.098C43.2626 37.307 43.38 37.5906 43.38 37.8862V39.0009Z" fill="#0C1DA4"/>
<path d="M23.8698 15.5912H24.9845C25.1323 15.5912 25.2741 15.5325 25.3786 15.428C25.4831 15.3235 25.5418 15.1817 25.5418 15.0339C25.5418 14.8861 25.4831 14.7443 25.3786 14.6398C25.2741 14.5353 25.1323 14.4766 24.9845 14.4766H23.8698C23.722 14.4766 23.5803 14.5353 23.4757 14.6398C23.3712 14.7443 23.3125 14.8861 23.3125 15.0339C23.3125 15.1817 23.3712 15.3235 23.4757 15.428C23.5803 15.5325 23.722 15.5912 23.8698 15.5912Z" fill="#0C1DA4"/>
<path d="M29.448 15.5912H31.6773C31.8251 15.5912 31.9669 15.5325 32.0714 15.428C32.1759 15.3235 32.2346 15.1817 32.2346 15.0339C32.2346 14.8861 32.1759 14.7443 32.0714 14.6398C31.9669 14.5353 31.8251 14.4766 31.6773 14.4766H29.448C29.3001 14.4766 29.1584 14.5353 29.0539 14.6398C28.9493 14.7443 28.8906 14.8861 28.8906 15.0339C28.8906 15.1817 28.9493 15.3235 29.0539 15.428C29.1584 15.5325 29.3001 15.5912 29.448 15.5912Z" fill="#0C1DA4"/>
<path d="M23.8698 22.2826H24.9845C25.1323 22.2826 25.2741 22.2239 25.3786 22.1194C25.4831 22.0149 25.5418 21.8731 25.5418 21.7253C25.5418 21.5775 25.4831 21.4357 25.3786 21.3312C25.2741 21.2267 25.1323 21.168 24.9845 21.168H23.8698C23.722 21.168 23.5803 21.2267 23.4757 21.3312C23.3712 21.4357 23.3125 21.5775 23.3125 21.7253C23.3125 21.8731 23.3712 22.0149 23.4757 22.1194C23.5803 22.2239 23.722 22.2826 23.8698 22.2826Z" fill="#0C1DA4"/>
<path d="M29.448 22.2826H31.6773C31.8251 22.2826 31.9669 22.2239 32.0714 22.1194C32.1759 22.0149 32.2346 21.8731 32.2346 21.7253C32.2346 21.5775 32.1759 21.4357 32.0714 21.3312C31.9669 21.2267 31.8251 21.168 31.6773 21.168H29.448C29.3001 21.168 29.1584 21.2267 29.0539 21.3312C28.9493 21.4357 28.8906 21.5775 28.8906 21.7253C28.8906 21.8731 28.9493 22.0149 29.0539 22.1194C29.1584 22.2239 29.3001 22.2826 29.448 22.2826Z" fill="#0C1DA4"/>
<path d="M23.8698 28.9662H24.9845C25.1323 28.9662 25.2741 28.9075 25.3786 28.803C25.4831 28.6985 25.5418 28.5567 25.5418 28.4089C25.5418 28.2611 25.4831 28.1193 25.3786 28.0148C25.2741 27.9103 25.1323 27.8516 24.9845 27.8516H23.8698C23.722 27.8516 23.5803 27.9103 23.4757 28.0148C23.3712 28.1193 23.3125 28.2611 23.3125 28.4089C23.3125 28.5567 23.3712 28.6985 23.4757 28.803C23.5803 28.9075 23.722 28.9662 23.8698 28.9662Z" fill="#0C1DA4"/>
<path d="M29.448 28.9662H31.6773C31.8251 28.9662 31.9669 28.9075 32.0714 28.803C32.1759 28.6985 32.2346 28.5567 32.2346 28.4089C32.2346 28.2611 32.1759 28.1193 32.0714 28.0148C31.9669 27.9103 31.8251 27.8516 31.6773 27.8516H29.448C29.3001 27.8516 29.1584 27.9103 29.0539 28.0148C28.9493 28.1193 28.8906 28.2611 28.8906 28.4089C28.8906 28.5567 28.9493 28.6985 29.0539 28.803C29.1584 28.9075 29.3001 28.9662 29.448 28.9662Z" fill="#0C1DA4"/>
<path d="M23.8698 35.6576H24.9845C25.1323 35.6576 25.2741 35.5989 25.3786 35.4944C25.4831 35.3899 25.5418 35.2481 25.5418 35.1003C25.5418 34.9525 25.4831 34.8107 25.3786 34.7062C25.2741 34.6017 25.1323 34.543 24.9845 34.543H23.8698C23.722 34.543 23.5803 34.6017 23.4757 34.7062C23.3712 34.8107 23.3125 34.9525 23.3125 35.1003C23.3125 35.2481 23.3712 35.3899 23.4757 35.4944C23.5803 35.5989 23.722 35.6576 23.8698 35.6576Z" fill="#0C1DA4"/>
<path d="M29.448 35.6576H31.6773C31.8251 35.6576 31.9669 35.5989 32.0714 35.4944C32.1759 35.3899 32.2346 35.2481 32.2346 35.1003C32.2346 34.9525 32.1759 34.8107 32.0714 34.7062C31.9669 34.6017 31.8251 34.543 31.6773 34.543H29.448C29.3001 34.543 29.1584 34.6017 29.0539 34.7062C28.9493 34.8107 28.8906 34.9525 28.8906 35.1003C28.8906 35.2481 28.9493 35.3899 29.0539 35.4944C29.1584 35.5989 29.3001 35.6576 29.448 35.6576Z" fill="#0C1DA4"/>
</g>
<defs>
<filter id="filter0_d_3447_6275" x="0.898438" y="0.859375" width="53.7578" height="53.7617" filterUnits="userSpaceOnUse" color-interpolation-filters="sRGB">
<feFlood flood-opacity="0" result="BackgroundImageFix"/>
<feColorMatrix in="SourceAlpha" type="matrix" values="0 0 0 0 0 0 0 0 0 0 0 0 0 0 0 0 0 0 127 0" result="hardAlpha"/>
<feOffset dy="1"/>
<feGaussianBlur stdDeviation="2"/>
<feComposite in2="hardAlpha" operator="out"/>
<feColorMatrix type="matrix" values="0 0 0 0 0 0 0 0 0 0 0 0 0 0 0 0 0 0 0.1 0"/>
<feBlend mode="normal" in2="BackgroundImageFix" result="effect1_dropShadow_3447_6275"/>
<feBlend mode="normal" in="SourceGraphic" in2="effect1_dropShadow_3447_6275" result="shape"/>
</filter>
</defs>
</svg>
