<svg width="55" height="55" viewBox="0 0 55 55" fill="none" xmlns="http://www.w3.org/2000/svg">
<g filter="url(#filter0_d_3447_6342)">
<rect x="4.53906" y="3.37891" width="45.76" height="45.76" rx="8" fill="white"/>
<path d="M35.7741 42.464C35.6821 42.464 35.5901 42.4459 35.5038 42.4097C35.1721 42.269 27.4141 38.9166 27.4141 32.0642V26.2415C27.4141 25.9419 27.6049 25.6772 27.8878 25.581L35.5511 22.9936C35.696 22.9448 35.8535 22.9448 35.997 22.9936L43.6603 25.581C43.9432 25.6758 44.1341 25.9419 44.1341 26.2415V32.0642C44.1341 38.9166 36.376 42.269 36.0444 42.4097C35.958 42.4459 35.866 42.464 35.7741 42.464ZM28.8074 26.7431V32.0642C28.8074 37.3366 34.4574 40.3657 35.7741 40.9997C37.0894 40.3643 42.7407 37.3226 42.7407 32.0642V26.7431L35.7741 24.3897L28.8074 26.7431Z" fill="#0C1DA4"/>
<path d="M35.0764 35.4969C35.0639 35.4969 35.0499 35.4969 35.0388 35.4955C34.8396 35.4844 34.657 35.391 34.533 35.235L31.7464 31.7516C31.5067 31.4507 31.5541 31.0132 31.855 30.7721C32.1574 30.5353 32.5935 30.5826 32.8345 30.8808L35.1335 33.7552L39.4598 29.4303C39.7315 29.1586 40.1732 29.1586 40.4449 29.4303C40.7166 29.702 40.7166 30.1437 40.4449 30.4154L35.5683 35.2921C35.4387 35.4231 35.2603 35.4969 35.0764 35.4969Z" fill="#0C1DA4"/>
<path d="M36.472 20.1713H15.572C12.8828 20.1713 10.6953 17.9838 10.6953 15.2946C10.6953 12.6055 12.8828 10.418 15.572 10.418H36.472C39.1611 10.418 41.3486 12.6055 41.3486 15.2946C41.3486 17.9838 39.1611 20.1713 36.472 20.1713ZM15.572 11.8113C13.6506 11.8113 12.0886 13.3732 12.0886 15.2946C12.0886 17.216 13.6506 18.778 15.572 18.778H36.472C38.3934 18.778 39.9553 17.216 39.9553 15.2946C39.9553 13.3732 38.3934 11.8113 36.472 11.8113H15.572Z" fill="#0C1DA4"/>
<path d="M16.965 17.387C15.8127 17.387 14.875 16.4493 14.875 15.297C14.875 14.1447 15.8127 13.207 16.965 13.207C18.1173 13.207 19.055 14.1447 19.055 15.297C19.055 16.4493 18.1173 17.387 16.965 17.387ZM16.965 14.6004C16.5818 14.6004 16.2683 14.9139 16.2683 15.297C16.2683 15.6802 16.5818 15.9937 16.965 15.9937C17.3482 15.9937 17.6617 15.6802 17.6617 15.297C17.6617 14.9139 17.3482 14.6004 16.965 14.6004Z" fill="#0C1DA4"/>
<path d="M23.9259 17.387C22.7737 17.387 21.8359 16.4493 21.8359 15.297C21.8359 14.1447 22.7737 13.207 23.9259 13.207C25.0782 13.207 26.0159 14.1447 26.0159 15.297C26.0159 16.4493 25.0782 17.387 23.9259 17.387ZM23.9259 14.6004C23.5428 14.6004 23.2293 14.9139 23.2293 15.297C23.2293 15.6802 23.5428 15.9937 23.9259 15.9937C24.3091 15.9937 24.6226 15.6802 24.6226 15.297C24.6226 14.9139 24.3091 14.6004 23.9259 14.6004Z" fill="#0C1DA4"/>
<path d="M23.932 28.5307H15.572C12.8828 28.5307 10.6953 26.3431 10.6953 23.654C10.6953 22.3526 11.2025 21.1293 12.1249 20.2069C13.0473 19.2845 14.2706 18.7773 15.572 18.7773H36.472C37.5616 18.7773 38.5885 19.1271 39.437 19.7889C39.7407 20.0258 39.7951 20.4633 39.5582 20.767C39.3213 21.0694 38.8838 21.1237 38.5801 20.8882C37.9782 20.4187 37.2495 20.1707 36.472 20.1707H15.572C14.644 20.1707 13.769 20.5343 13.11 21.192C12.4509 21.8496 12.0886 22.7261 12.0886 23.654C12.0886 25.5754 13.6506 27.1373 15.572 27.1373H23.932C24.3165 27.1373 24.6286 27.4495 24.6286 27.834C24.6286 28.2186 24.3165 28.5307 23.932 28.5307Z" fill="#0C1DA4"/>
<path d="M16.965 25.7464C15.8127 25.7464 14.875 24.8087 14.875 23.6564C14.875 22.5041 15.8127 21.5664 16.965 21.5664C18.1173 21.5664 19.055 22.5041 19.055 23.6564C19.055 24.8087 18.1173 25.7464 16.965 25.7464ZM16.965 22.9597C16.5818 22.9597 16.2683 23.2732 16.2683 23.6564C16.2683 24.0396 16.5818 24.3531 16.965 24.3531C17.3482 24.3531 17.6617 24.0396 17.6617 23.6564C17.6617 23.2732 17.3482 22.9597 16.965 22.9597Z" fill="#0C1DA4"/>
<path d="M23.9259 25.7464C22.7737 25.7464 21.8359 24.8087 21.8359 23.6564C21.8359 22.5041 22.7737 21.5664 23.9259 21.5664C25.0782 21.5664 26.0159 22.5041 26.0159 23.6564C26.0159 24.8087 25.0782 25.7464 23.9259 25.7464ZM23.9259 22.9597C23.5428 22.9597 23.2293 23.2732 23.2293 23.6564C23.2293 24.0396 23.5428 24.3531 23.9259 24.3531C24.3091 24.3531 24.6226 24.0396 24.6226 23.6564C24.6226 23.2732 24.3091 22.9597 23.9259 22.9597Z" fill="#0C1DA4"/>
<path d="M23.932 36.8901H15.572C12.8828 36.8901 10.6953 34.7025 10.6953 32.0134C10.6953 30.712 11.2025 29.4887 12.1249 28.5663C13.0473 27.6439 14.2706 27.1367 15.572 27.1367H23.932C24.3165 27.1367 24.6286 27.4488 24.6286 27.8334C24.6286 28.2179 24.3165 28.5301 23.932 28.5301H15.572C14.644 28.5301 13.769 28.8937 13.11 29.5514C12.4509 30.209 12.0886 31.0854 12.0886 32.0134C12.0886 33.9348 13.6506 35.4967 15.572 35.4967H23.932C24.3165 35.4967 24.6286 35.8088 24.6286 36.1934C24.6286 36.5779 24.3165 36.8901 23.932 36.8901Z" fill="#0C1DA4"/>
<path d="M16.965 34.1058C15.8127 34.1058 14.875 33.1681 14.875 32.0158C14.875 30.8635 15.8127 29.9258 16.965 29.9258C18.1173 29.9258 19.055 30.8635 19.055 32.0158C19.055 33.1681 18.1173 34.1058 16.965 34.1058ZM16.965 31.3191C16.5818 31.3191 16.2683 31.6326 16.2683 32.0158C16.2683 32.3989 16.5818 32.7124 16.965 32.7124C17.3482 32.7124 17.6617 32.3989 17.6617 32.0158C17.6617 31.6326 17.3482 31.3191 16.965 31.3191Z" fill="#0C1DA4"/>
<path d="M23.9259 34.1058C22.7737 34.1058 21.8359 33.1681 21.8359 32.0158C21.8359 30.8635 22.7737 29.9258 23.9259 29.9258C25.0782 29.9258 26.0159 30.8635 26.0159 32.0158C26.0159 33.1681 25.0782 34.1058 23.9259 34.1058ZM23.9259 31.3191C23.5428 31.3191 23.2293 31.6326 23.2293 32.0158C23.2293 32.3989 23.5428 32.7124 23.9259 32.7124C24.3091 32.7124 24.6226 32.3989 24.6226 32.0158C24.6226 31.6326 24.3091 31.3191 23.9259 31.3191Z" fill="#0C1DA4"/>
</g>
<defs>
<filter id="filter0_d_3447_6342" x="0.539062" y="0.378906" width="53.7578" height="53.7617" filterUnits="userSpaceOnUse" color-interpolation-filters="sRGB">
<feFlood flood-opacity="0" result="BackgroundImageFix"/>
<feColorMatrix in="SourceAlpha" type="matrix" values="0 0 0 0 0 0 0 0 0 0 0 0 0 0 0 0 0 0 127 0" result="hardAlpha"/>
<feOffset dy="1"/>
<feGaussianBlur stdDeviation="2"/>
<feComposite in2="hardAlpha" operator="out"/>
<feColorMatrix type="matrix" values="0 0 0 0 0 0 0 0 0 0 0 0 0 0 0 0 0 0 0.1 0"/>
<feBlend mode="normal" in2="BackgroundImageFix" result="effect1_dropShadow_3447_6342"/>
<feBlend mode="normal" in="SourceGraphic" in2="effect1_dropShadow_3447_6342" result="shape"/>
</filter>
</defs>
</svg>
