<svg width="54" height="54" viewBox="0 0 54 54" fill="none" xmlns="http://www.w3.org/2000/svg">
<g filter="url(#filter0_d_3854_8038)">
<rect x="4.4375" y="3.38672" width="45.24" height="45.24" rx="8" fill="white"/>
<path d="M39.9567 15.2456H35.2982C35.2381 15.2205 35.183 15.1855 35.1229 15.1604C34.4116 13.5625 32.8037 12.5056 31.0455 12.5056C30.5897 12.5056 30.1439 12.5757 29.7181 12.706C28.596 11.1231 26.8028 10.1914 24.8442 10.1914C21.9089 10.1914 19.4294 12.3103 18.9485 15.1704C18.8984 15.1905 18.8534 15.2205 18.8033 15.2456H14.1448C13.158 15.2456 12.3516 16.052 12.3516 17.0438V35.7127C12.3516 36.7045 13.158 37.511 14.1498 37.511H23.8424C23.6471 38.2674 23.1161 38.8033 22.5952 39.2842H21.6785C21.3429 39.2842 21.0223 39.4144 20.7869 39.6549C20.5414 39.8903 20.4112 40.2109 20.4112 40.5565C20.4112 41.2578 20.9822 41.8238 21.6785 41.8238H32.0473C32.3879 41.8238 32.7135 41.6836 32.9389 41.4582C33.1844 41.2227 33.3196 40.9021 33.3196 40.5565C33.3196 39.8552 32.7486 39.2842 32.0523 39.2842H31.1357C30.6197 38.8083 30.0837 38.2724 29.8884 37.511H39.9617C40.9535 37.511 41.7649 36.7045 41.7649 35.7127V17.0388C41.7549 16.052 40.9485 15.2456 39.9567 15.2456ZM32.3479 40.5515C32.3479 40.6567 32.3028 40.7218 32.2527 40.7719C32.1976 40.827 32.1224 40.8571 32.0423 40.8571H21.6735C21.5032 40.8571 21.3679 40.7218 21.3679 40.5515C21.3679 40.4463 21.413 40.3762 21.4581 40.3361C21.4982 40.296 21.5733 40.246 21.6735 40.246H22.7805H30.9403H32.0423C32.2126 40.2409 32.3479 40.3812 32.3479 40.5515ZM23.9476 39.2792C24.3483 38.8134 24.704 38.2423 24.8292 37.511H28.8866C29.0168 38.2423 29.3674 38.8134 29.7682 39.2792H23.9476ZM19.8602 15.5812C20.1557 13.0566 22.2946 11.1532 24.8392 11.1532C26.5924 11.1532 28.1903 12.0448 29.112 13.5425C29.2372 13.7429 29.4877 13.823 29.7081 13.7328C30.1288 13.5575 30.5796 13.4674 31.0455 13.4674C32.4831 13.4674 33.7955 14.369 34.3114 15.7114C34.3615 15.8467 34.4717 15.9469 34.607 15.9919C36.0195 16.4728 36.9712 17.8002 36.9712 19.2979C36.9712 21.2264 35.4034 22.7943 33.4749 22.7943H32.2126C31.7167 20.3999 29.5929 18.5967 27.0532 18.5967C24.5136 18.5967 22.3898 20.3999 21.8939 22.7943H20.6316C18.7031 22.7943 17.1352 21.2264 17.1352 19.2979C17.1352 17.7852 18.097 16.4528 19.5346 15.9769C19.7099 15.9218 19.8402 15.7665 19.8602 15.5812ZM20.6316 23.761H21.7887C21.7887 23.7961 21.7837 23.8312 21.7837 23.8712C21.7837 26.7765 24.148 29.1408 27.0532 29.1408C29.9585 29.1408 32.3228 26.7765 32.3228 23.8712C32.3228 23.8362 32.3178 23.8011 32.3178 23.761H33.4749C35.9344 23.761 37.933 21.7624 37.933 19.3029C37.933 18.9573 37.8829 18.6267 37.8078 18.3011H38.4239C38.6743 18.3011 38.8797 18.5065 38.8797 18.757V32.577C38.8797 32.5871 38.8647 32.6021 38.8346 32.6021H15.2769C15.2418 32.6021 15.2268 32.582 15.2268 32.577V18.3262C15.2268 18.3212 15.2418 18.3011 15.2769 18.3011H16.2987C16.2236 18.6267 16.1735 18.9573 16.1735 19.3029C16.1735 21.7574 18.1721 23.761 20.6316 23.761ZM31.3561 23.8662C31.3561 26.2405 29.4225 28.174 27.0482 28.174C24.6739 28.174 22.7404 26.2405 22.7404 23.8662C22.7404 21.4919 24.6739 19.5584 27.0482 19.5584C29.4225 19.5584 31.3561 21.4919 31.3561 23.8662ZM40.7932 35.7127C40.7932 36.1736 40.4175 36.5442 39.9567 36.5442H14.1498C13.689 36.5442 13.3183 36.1686 13.3183 35.7127V17.0388C13.3183 16.578 13.689 16.2073 14.1498 16.2073H17.4308C17.1102 16.5379 16.8397 16.9186 16.6343 17.3344H15.2819C14.7209 17.3344 14.27 17.7802 14.27 18.3262V32.572C14.27 33.118 14.7259 33.5638 15.2819 33.5638H38.8396C39.3956 33.5638 39.8465 33.118 39.8465 32.572V18.7519C39.8465 17.9705 39.2103 17.3344 38.4289 17.3344H37.4772C37.2718 16.9186 37.0013 16.5429 36.6807 16.2073H39.9617C40.4225 16.2073 40.7932 16.583 40.7932 17.0388V35.7127Z" fill="#0C1DA4"/>
<path d="M27.6381 34.8672H26.0902C25.8248 34.8672 25.6094 35.0826 25.6094 35.3481C25.6094 35.6135 25.8248 35.8289 26.0902 35.8289H27.6381C27.9035 35.8289 28.1189 35.6135 28.1189 35.3481C28.1189 35.0826 27.9035 34.8672 27.6381 34.8672Z" fill="#0C1DA4"/>
<path d="M27.0555 25.5659C26.3492 25.5659 25.7431 25.1352 25.4826 24.519C25.5678 24.499 25.6529 24.4639 25.7231 24.3988C25.9134 24.2085 25.9134 23.9079 25.7231 23.7176L25.2071 23.2017C25.0268 23.0213 24.7062 23.0213 24.5259 23.2017L24.0099 23.7176C23.8196 23.9079 23.8196 24.2085 24.0099 24.3988C24.1352 24.5241 24.3105 24.5591 24.4658 24.519C24.7613 25.6711 25.8032 26.5277 27.0455 26.5277C27.3109 26.5277 27.5263 26.3123 27.5263 26.0468C27.5363 25.7813 27.321 25.5659 27.0555 25.5659Z" fill="#0C1DA4"/>
<path d="M29.6659 23.347C29.4205 22.1248 28.3435 21.2031 27.0512 21.2031C26.7857 21.2031 26.5703 21.4185 26.5703 21.684C26.5703 21.9495 26.7857 22.1649 27.0512 22.1649C27.8026 22.1649 28.4387 22.6608 28.6641 23.337C28.5639 23.352 28.4638 23.3871 28.3836 23.4672C28.1933 23.6576 28.1933 23.9581 28.3836 24.1485L28.8995 24.6644C28.9897 24.7546 29.1099 24.8047 29.2402 24.8047C29.3654 24.8047 29.4906 24.7546 29.5808 24.6644L30.0967 24.1485C30.2871 23.9581 30.2871 23.6576 30.0967 23.4672C29.9765 23.352 29.8162 23.317 29.6659 23.347Z" fill="#0C1DA4"/>
</g>
<defs>
<filter id="filter0_d_3854_8038" x="0.4375" y="0.386719" width="53.2422" height="53.2383" filterUnits="userSpaceOnUse" color-interpolation-filters="sRGB">
<feFlood flood-opacity="0" result="BackgroundImageFix"/>
<feColorMatrix in="SourceAlpha" type="matrix" values="0 0 0 0 0 0 0 0 0 0 0 0 0 0 0 0 0 0 127 0" result="hardAlpha"/>
<feOffset dy="1"/>
<feGaussianBlur stdDeviation="2"/>
<feComposite in2="hardAlpha" operator="out"/>
<feColorMatrix type="matrix" values="0 0 0 0 0 0 0 0 0 0 0 0 0 0 0 0 0 0 0.1 0"/>
<feBlend mode="normal" in2="BackgroundImageFix" result="effect1_dropShadow_3854_8038"/>
<feBlend mode="normal" in="SourceGraphic" in2="effect1_dropShadow_3854_8038" result="shape"/>
</filter>
</defs>
</svg>
