<svg width="54" height="55" viewBox="0 0 54 55" fill="none" xmlns="http://www.w3.org/2000/svg">
<g filter="url(#filter0_d_3468_6342)">
<rect x="4.19531" y="3.76172" width="45.76" height="45.76" rx="8" fill="white"/>
<g clip-path="url(#clip0_3468_6342)">
<path d="M43.798 21.0531C43.798 19.4703 42.9188 18.0199 41.3889 17.1421L30.5822 12.2069C28.4546 10.9821 25.7028 10.9835 23.6295 12.1776L12.7671 17.1435C12.7475 17.1532 12.728 17.163 12.7099 17.1727C11.2372 18.0199 10.3594 19.4703 10.3594 21.0531C10.3594 22.636 11.2386 24.0864 12.7684 24.9642L15.9327 26.4091V35.0241C15.9327 37.7132 17.5977 40.0833 20.0765 40.9221C22.1261 41.616 24.4822 41.9671 27.0794 41.9671C29.6765 41.9671 32.0341 41.616 34.0823 40.9221C36.5596 40.0819 38.226 37.7118 38.226 35.0241V26.4077L41.4474 24.935C41.8027 24.7302 42.1232 24.4877 42.406 24.2202V38.4851C42.406 38.8697 42.7181 39.1818 43.1027 39.1818C43.4873 39.1818 43.7994 38.8697 43.7994 38.4851V21.0685C43.7994 21.0685 43.7994 21.0657 43.7994 21.0643C43.7994 21.0615 43.7994 21.0573 43.7994 21.0545L43.798 21.0531ZM36.8313 35.0227C36.8313 37.1141 35.5467 38.9533 33.635 39.6012C31.7303 40.2463 29.5233 40.5724 27.078 40.5724C24.6327 40.5724 22.4256 40.2463 20.521 39.6012C18.6093 38.9533 17.3246 37.1141 17.3246 35.0227V27.0445L23.5724 29.8966C24.6438 30.5125 25.8714 30.819 27.0919 30.819C28.2971 30.819 29.4954 30.5195 30.5251 29.9259L36.8299 27.0431L36.8313 35.0227ZM40.8093 23.6949L29.8883 28.6886C28.1787 29.6723 25.9717 29.6723 24.2091 28.6594L13.4024 23.7256C12.3532 23.1209 11.7499 22.1469 11.7499 21.0531C11.7499 19.9691 12.3421 19.0008 13.3759 18.3961L24.2648 13.4163C25.9745 12.4312 28.1815 12.434 29.9441 13.4455L40.7508 18.3807C41.7999 18.9854 42.4033 19.9594 42.4033 21.0531C42.4033 22.1469 41.8013 23.1209 40.8093 23.6949Z" fill="#0C1DA4"/>
</g>
</g>
<defs>
<filter id="filter0_d_3468_6342" x="0.195312" y="0.761719" width="53.7578" height="53.7617" filterUnits="userSpaceOnUse" color-interpolation-filters="sRGB">
<feFlood flood-opacity="0" result="BackgroundImageFix"/>
<feColorMatrix in="SourceAlpha" type="matrix" values="0 0 0 0 0 0 0 0 0 0 0 0 0 0 0 0 0 0 127 0" result="hardAlpha"/>
<feOffset dy="1"/>
<feGaussianBlur stdDeviation="2"/>
<feComposite in2="hardAlpha" operator="out"/>
<feColorMatrix type="matrix" values="0 0 0 0 0 0 0 0 0 0 0 0 0 0 0 0 0 0 0.1 0"/>
<feBlend mode="normal" in2="BackgroundImageFix" result="effect1_dropShadow_3468_6342"/>
<feBlend mode="normal" in="SourceGraphic" in2="effect1_dropShadow_3468_6342" result="shape"/>
</filter>
<clipPath id="clip0_3468_6342">
<rect width="33.44" height="33.44" fill="white" transform="translate(10.3594 9.92188)"/>
</clipPath>
</defs>
</svg>
