<svg width="54" height="54" viewBox="0 0 54 54" fill="none" xmlns="http://www.w3.org/2000/svg">
<g filter="url(#filter0_d_3854_8110)">
<rect x="4.22656" y="3.375" width="45.24" height="45.24" rx="8" fill="white"/>
<g clip-path="url(#clip0_3854_8110)">
<path d="M31.7094 23.4324C31.8058 23.064 31.8555 22.68 31.8555 22.2936C31.8555 19.8076 29.833 17.7852 27.3468 17.7852C25.2688 17.7852 23.4948 19.1928 22.9895 21.1482C21.2695 20.6983 19.5806 21.788 19.2031 23.4402C17.3382 23.5659 15.8594 25.1232 15.8594 27.0195C15.8594 28.9974 17.4687 30.6068 19.4469 30.6068H31.7657C33.7436 30.6068 35.353 28.9974 35.353 27.0195C35.3533 25.0224 33.7084 23.422 31.7094 23.4324ZM31.7657 29.6049H19.4469C18.0212 29.6049 16.8612 28.4451 16.8612 27.0194C16.8612 25.5937 18.0212 24.4337 19.4469 24.4337C19.6224 24.4337 19.757 24.4824 19.9407 24.3393C20.0532 24.2519 20.1232 24.1206 20.133 23.9785C20.2368 22.4867 21.8504 21.606 23.1426 22.2728C23.2894 22.3486 23.4632 22.3471 23.6085 22.2693C23.7539 22.1916 23.8514 22.0475 23.87 21.8839C24.0693 20.1182 25.564 18.787 27.3468 18.787C29.2805 18.787 30.8536 20.3601 30.8536 22.2936C30.8536 22.8295 30.7316 23.3568 30.5007 23.8186C30.4121 23.9956 30.4364 24.2082 30.5621 24.361C30.6878 24.5134 30.8913 24.578 31.0826 24.5254C32.7081 24.0742 34.3512 25.3058 34.3512 27.0194C34.3512 28.4451 33.1914 29.6049 31.7657 29.6049Z" fill="#0C1DA4"/>
<path d="M37.8145 41.3341H41.0058C41.9695 41.3341 42.7536 40.55 42.7536 39.5863V30.0116C42.7536 29.4806 42.5105 29.01 42.1356 28.6892C42.1596 28.5281 42.1819 28.3667 42.2013 28.2041C42.2338 27.9294 42.0377 27.6802 41.763 27.6474C41.4886 27.6183 41.2391 27.8111 41.2064 28.0857C41.1986 28.1512 41.1885 28.2161 41.1799 28.2814C41.1218 28.2755 41.0654 28.2638 41.0058 28.2638H37.8145C36.8508 28.2638 36.0666 29.0479 36.0666 30.0116V38.0932C35.8922 37.9524 35.6429 37.934 35.4559 38.0756C35.327 38.1726 35.1964 38.2678 35.0644 38.3607C34.8381 38.5197 34.7836 38.8323 34.9428 39.0585C35.1016 39.2849 35.4145 39.3393 35.6406 39.1801C35.782 39.0808 35.9214 38.9793 36.0591 38.8754C36.0622 38.873 36.0636 38.8693 36.0666 38.8668V39.5864C36.0666 40.55 36.8508 41.3341 37.8145 41.3341ZM37.0685 30.0116C37.0685 29.6002 37.4031 29.2656 37.8145 29.2656H41.0058C41.4172 29.2656 41.7518 29.6002 41.7518 30.0116V39.5863C41.7518 39.9977 41.4172 40.3323 41.0058 40.3323H37.8145C37.4031 40.3323 37.0685 39.9977 37.0685 39.5863V30.0116Z" fill="#0C1DA4"/>
<path d="M38.329 31.1893H40.7805C41.0571 31.1893 41.2814 30.965 41.2814 30.6884C41.2814 30.4118 41.0571 30.1875 40.7805 30.1875H38.329C38.0524 30.1875 37.8281 30.4118 37.8281 30.6884C37.8281 30.965 38.0524 31.1893 38.329 31.1893Z" fill="#0C1DA4"/>
<path d="M38.329 33.3143H40.7805C41.0571 33.3143 41.2814 33.09 41.2814 32.8134C41.2814 32.5368 41.0571 32.3125 40.7805 32.3125H38.329C38.0524 32.3125 37.8281 32.5368 37.8281 32.8134C37.8281 33.09 38.0524 33.3143 38.329 33.3143Z" fill="#0C1DA4"/>
<path d="M39.4071 36.2539C38.545 36.2539 37.8438 36.9551 37.8438 37.817C37.8438 38.6792 38.545 39.3804 39.4071 39.3804C40.2691 39.3804 40.9703 38.6792 40.9703 37.817C40.9703 36.9551 40.2691 36.2539 39.4071 36.2539ZM39.4071 38.3786C39.0975 38.3786 38.8456 38.1267 38.8456 37.817C38.8456 37.5076 39.0975 37.2557 39.4071 37.2557C39.7165 37.2557 39.9685 37.5076 39.9685 37.817C39.9685 38.1267 39.7165 38.3786 39.4071 38.3786Z" fill="#0C1DA4"/>
<path d="M42.2513 16.0337H42.059V11.5372C42.059 10.6724 41.3554 9.96875 40.4903 9.96875H33.8655C33.0004 9.96875 32.2967 10.6724 32.2967 11.5372V11.7203C32.2117 11.6873 32.1274 11.6531 32.0416 11.6214C31.7826 11.525 31.4942 11.6581 31.3983 11.9178C31.3025 12.1774 31.4353 12.4655 31.6948 12.5611C31.8464 12.6171 31.9971 12.6756 32.1463 12.7365C32.1956 12.7565 32.2464 12.7622 32.2967 12.7661V16.0337H32.1045C31.8279 16.0337 31.6036 16.258 31.6036 16.5346C31.6036 17.9102 32.7228 19.0294 34.0983 19.0294H39.3562C39.3902 19.0881 39.4252 19.146 39.4584 19.2053C39.5943 19.4484 39.9005 19.532 40.1401 19.3978C40.2861 19.3161 40.3664 19.1711 40.3842 19.0166C41.6998 18.949 42.7522 17.8668 42.7522 16.5347C42.7522 16.258 42.5279 16.0337 42.2513 16.0337ZM33.2985 11.5372C33.2985 11.2247 33.5529 10.9706 33.8655 10.9706H40.4903C40.8029 10.9706 41.0572 11.2247 41.0572 11.5372V16.0337H33.2985V11.5372ZM40.2575 18.0276H34.0983C33.4507 18.0276 32.8982 17.6133 32.6917 17.0355H32.7976H41.5582H41.6641C41.4577 17.6132 40.9051 18.0276 40.2575 18.0276Z" fill="#0C1DA4"/>
<path d="M11.3906 11.0931V19.3331C11.3906 19.8282 11.7143 20.2449 12.1595 20.3946C12.1514 20.5966 12.2633 20.7918 12.4602 20.8757C12.7162 20.9851 13.0095 20.8641 13.1174 20.6113C13.1394 20.5597 13.1634 20.509 13.1861 20.4577H17.799C18.419 20.4577 18.9233 19.9532 18.9233 19.3331V13.851C18.9849 13.8129 19.0456 13.7737 19.1078 13.7363C19.345 13.5942 19.4221 13.2866 19.2797 13.0493C19.1995 12.9154 19.0663 12.8396 18.9234 12.8182V11.0931C18.9234 10.4731 18.4191 9.96875 17.7991 9.96875H12.515C11.8949 9.96875 11.3906 10.4731 11.3906 11.0931ZM17.9215 19.3331C17.9215 19.4009 17.8665 19.4559 17.799 19.4559H12.515C12.4474 19.4559 12.3924 19.4009 12.3924 19.3331V18.2535H17.9215V19.3331ZM17.9215 11.0931V17.2517H12.3924V11.0931C12.3924 11.0256 12.4475 10.9706 12.515 10.9706H17.799C17.8665 10.9706 17.9215 11.0256 17.9215 11.0931Z" fill="#0C1DA4"/>
<path d="M15.0825 19.2119C15.2748 19.2119 15.4306 19.056 15.4306 18.8638C15.4306 18.6715 15.2748 18.5156 15.0825 18.5156C14.8902 18.5156 14.7344 18.6715 14.7344 18.8638C14.7344 19.056 14.8902 19.2119 15.0825 19.2119Z" fill="#0C1DA4"/>
<path d="M41.578 23.6572C41.3043 23.6966 41.1142 23.9505 41.1536 24.2244C41.1766 24.3841 41.1969 24.5448 41.2152 24.7062C41.2441 24.9621 41.4608 25.1509 41.7122 25.1509C42.0136 25.1509 42.2441 24.8892 42.2107 24.5937C42.1913 24.422 42.1696 24.2516 42.1451 24.0816C42.1058 23.8079 41.8507 23.6191 41.578 23.6572Z" fill="#0C1DA4"/>
<path d="M41.7959 27.1473H41.8059C42.0779 27.1473 42.3012 26.9294 42.3066 26.6562C42.3118 26.3786 42.3086 26.2533 42.3086 26.1398C42.3054 25.8652 42.0818 25.6445 41.8076 25.6445C41.8059 25.6445 41.804 25.6445 41.802 25.6445C41.5254 25.6477 41.3038 25.8744 41.3067 26.1511C41.3067 26.2259 41.3096 26.3951 41.3048 26.6365C41.2994 26.9132 41.5193 27.1419 41.7959 27.1473Z" fill="#0C1DA4"/>
<path d="M41.0231 20.1104C40.913 19.8565 40.6188 19.7399 40.3642 19.8502C40.1106 19.9602 39.9939 20.2552 40.104 20.5091C40.168 20.6571 40.2299 20.8065 40.2896 20.9569C40.3909 21.2123 40.6806 21.341 40.9397 21.2382C41.1971 21.1362 41.323 20.8451 41.221 20.588C41.1573 20.4274 41.0916 20.2681 41.0231 20.1104Z" fill="#0C1DA4"/>
<path d="M41.7172 22.0556C41.6419 21.7893 41.3643 21.6352 41.0987 21.7105C40.8323 21.7861 40.678 22.063 40.7536 22.3291C40.7973 22.4839 40.8387 22.6397 40.8776 22.7965C40.9446 23.0685 41.2194 23.2284 41.4839 23.1626C41.7524 23.0964 41.9163 22.8249 41.85 22.5563C41.8087 22.3882 41.7644 22.2212 41.7172 22.0556Z" fill="#0C1DA4"/>
<path d="M25.9229 41.0118C25.659 41.0081 25.4122 41.2123 25.399 41.4887C25.386 41.7648 25.5996 41.9994 25.8759 42.0126C26.0474 42.0206 26.2195 42.0258 26.3925 42.0285H26.4C26.6732 42.0285 26.8965 41.8091 26.9007 41.5349C26.9046 41.2583 26.6837 41.0308 26.4071 41.0266C26.245 41.0245 26.0836 41.0193 25.9229 41.0118Z" fill="#0C1DA4"/>
<path d="M27.8656 40.9741C27.59 40.997 27.385 41.2392 27.408 41.5148C27.4313 41.7944 27.6781 41.9958 27.9488 41.9725C28.1215 41.958 28.2932 41.9409 28.4644 41.9209C28.739 41.8888 28.9359 41.6401 28.9039 41.3654C28.8721 41.0903 28.6199 40.8907 28.3484 40.9259C28.188 40.9445 28.027 40.9606 27.8656 40.9741Z" fill="#0C1DA4"/>
<path d="M11.4646 30.357C11.6334 30.9973 12.6026 30.7423 12.4332 30.1012C12.3921 29.9454 12.3535 29.7883 12.3173 29.6306C12.2557 29.361 11.9871 29.1945 11.7171 29.2544C11.4476 29.3162 11.2791 29.5848 11.3409 29.8546C11.3795 30.0231 11.4206 30.1904 11.4646 30.357Z" fill="#0C1DA4"/>
<path d="M24.004 40.7897C23.7305 40.7391 23.4708 40.9215 23.4221 41.1935C23.373 41.4658 23.5537 41.7262 23.826 41.7754C23.9952 41.8059 24.1654 41.8338 24.3366 41.8588C24.605 41.899 24.8639 41.7135 24.9046 41.4357C24.9447 41.162 24.7553 40.9076 24.4814 40.8677C24.3215 40.8442 24.1625 40.8183 24.004 40.7897Z" fill="#0C1DA4"/>
<path d="M11.1697 23.6862C11.1409 23.8557 11.1144 24.0256 11.0907 24.1968C11.0528 24.4708 11.2441 24.7237 11.5183 24.7618C11.7922 24.7993 12.0452 24.6087 12.0832 24.3343C12.1055 24.1738 12.13 24.0141 12.1573 23.8554C12.204 23.5827 12.0208 23.3236 11.7481 23.2769C11.473 23.2297 11.2165 23.4139 11.1697 23.6862Z" fill="#0C1DA4"/>
<path d="M32.095 39.9773C31.9456 40.0375 31.7947 40.095 31.6428 40.1502C31.3828 40.2444 31.2483 40.5315 31.3427 40.7918C31.4366 41.0515 31.7236 41.1867 31.9842 41.0919C32.1469 41.0332 32.3081 40.9713 32.4683 40.9072C32.7248 40.804 32.8496 40.5124 32.7466 40.2556C32.6433 39.9991 32.3518 39.8748 32.095 39.9773Z" fill="#0C1DA4"/>
<path d="M12.068 28.1977C12.0478 28.038 12.0301 27.8775 12.0152 27.7166C11.9897 27.4409 11.7437 27.2384 11.4705 27.2639C11.1949 27.2893 10.9923 27.5332 11.0178 27.8086C11.0337 27.9812 11.0522 28.1529 11.074 28.3239C11.1579 28.9813 12.1513 28.8555 12.068 28.1977Z" fill="#0C1DA4"/>
<path d="M33.8354 39.1391C33.695 39.2186 33.5531 39.2956 33.41 39.3702C33.1647 39.4981 33.0696 39.8007 33.1975 40.046C33.3262 40.2928 33.6306 40.3856 33.8733 40.2585C34.0267 40.1785 34.1783 40.0961 34.3285 40.0112C34.5694 39.875 34.654 39.5693 34.518 39.3286C34.382 39.0883 34.0758 39.0029 33.8354 39.1391Z" fill="#0C1DA4"/>
<path d="M10.9453 26.2578C10.9441 26.5344 11.1674 26.7597 11.444 26.761H11.4462C11.7219 26.761 11.9459 26.5381 11.9471 26.2622C11.9479 26.1004 11.9513 25.9392 11.9577 25.7785C11.9682 25.5021 11.7527 25.2695 11.4761 25.259C11.2048 25.2396 10.9674 25.4642 10.9566 25.7403C10.9499 25.9122 10.946 26.0846 10.9453 26.2578Z" fill="#0C1DA4"/>
<path d="M30.2485 40.5739C30.0922 40.6135 29.9352 40.6507 29.777 40.6852C29.5067 40.7442 29.3355 41.0113 29.3944 41.2815C29.4536 41.5529 29.7216 41.7226 29.9907 41.6641C30.1597 41.6271 30.328 41.5875 30.495 41.5449C30.7633 41.4767 30.9255 41.2042 30.8572 40.9362C30.7889 40.6681 30.5171 40.5064 30.2485 40.5739Z" fill="#0C1DA4"/>
<path d="M22.1314 40.3252C21.8673 40.2401 21.5857 40.3848 21.5009 40.648C21.416 40.9114 21.5605 41.1937 21.8237 41.2786C21.9875 41.3314 22.1526 41.3815 22.319 41.429C22.5845 41.5053 22.8622 41.3513 22.9383 41.0851C23.0144 40.819 22.8602 40.5419 22.5944 40.4658C22.4388 40.4213 22.2845 40.3746 22.1314 40.3252Z" fill="#0C1DA4"/>
<path d="M20.7661 39.8079C20.6179 39.7436 20.4711 39.6766 20.3258 39.6073C20.0771 39.4887 19.7773 39.5939 19.6581 39.8441C19.5393 40.0938 19.6452 40.3927 19.8949 40.5118C20.0504 40.5859 20.2075 40.6573 20.366 40.7266C20.6216 40.8376 20.9154 40.7194 21.0254 40.4673C21.1357 40.2136 21.0198 39.9184 20.7661 39.8079Z" fill="#0C1DA4"/>
<path d="M11.6566 21.6758C11.6055 21.8399 11.5568 22.0053 11.5106 22.1716C11.4365 22.4382 11.5926 22.7143 11.8591 22.7882C12.127 22.8628 12.4023 22.7049 12.4758 22.4397C12.519 22.2836 12.5648 22.1286 12.613 21.9747C12.6954 21.7106 12.5481 21.4295 12.2843 21.3471C12.0189 21.2647 11.7393 21.4117 11.6566 21.6758Z" fill="#0C1DA4"/>
<path d="M22.032 12.3728C22.0824 12.3728 22.1335 12.365 22.1839 12.349C22.3373 12.3004 22.4918 12.2541 22.6476 12.2103C22.914 12.1355 23.069 11.8589 22.9945 11.5925C22.9194 11.3264 22.6437 11.1699 22.3766 11.2457C22.2101 11.2924 22.0447 11.3421 21.8806 11.3942C21.617 11.4778 21.4712 11.7596 21.5549 12.0233C21.6226 12.2365 21.8197 12.3728 22.032 12.3728Z" fill="#0C1DA4"/>
<path d="M25.9909 11.6748C26.1516 11.668 26.313 11.6638 26.4752 11.6621C26.7518 11.6592 26.9736 11.4327 26.9709 11.1561C26.968 10.8795 26.7383 10.6534 26.4649 10.6603C26.292 10.662 26.1197 10.6667 25.9483 10.674C25.6719 10.6857 25.4574 10.9193 25.4692 11.1957C25.4807 11.465 25.7025 11.6753 25.9691 11.6753C25.9764 11.6754 25.9838 11.6751 25.9909 11.6748Z" fill="#0C1DA4"/>
<path d="M24.0644 11.8852C24.2234 11.8573 24.3831 11.8319 24.5437 11.8087C24.8174 11.7691 25.0075 11.515 24.9679 11.2413C24.9282 10.9676 24.6741 10.7802 24.4004 10.8171C24.2295 10.8418 24.0595 10.8687 23.8907 10.8986C23.6183 10.9465 23.4363 11.2063 23.4842 11.4787C23.527 11.7219 23.7383 11.8928 23.9771 11.8928C24.0059 11.8928 24.0351 11.8904 24.0644 11.8852Z" fill="#0C1DA4"/>
<path d="M30.3086 12.1302C30.3506 12.141 30.3925 12.1461 30.4338 12.1461C30.6568 12.1461 30.8604 11.9962 30.9186 11.7702C30.9875 11.5023 30.8264 11.2291 30.5585 11.1602C30.3917 11.1171 30.2242 11.0768 30.0554 11.0391C29.7861 10.9801 29.5178 11.1489 29.4574 11.4189C29.3973 11.689 29.5672 11.9568 29.8373 12.017C29.9952 12.0522 30.1525 12.0901 30.3086 12.1302Z" fill="#0C1DA4"/>
<path d="M28.4082 11.7686C28.4285 11.771 28.4486 11.7722 28.4686 11.7722C28.7186 11.7722 28.9348 11.5854 28.9651 11.331C28.9981 11.0563 28.8022 10.8068 28.5276 10.7741C28.3569 10.7535 28.1856 10.7357 28.0134 10.7205C27.738 10.6975 27.4951 10.9001 27.4707 11.1757C27.4465 11.4511 27.6502 11.6942 27.9259 11.7184C28.0873 11.7327 28.2482 11.7495 28.4082 11.7686Z" fill="#0C1DA4"/>
<path d="M20.1732 13.1023C20.2446 13.1023 20.3172 13.0872 20.3859 13.0547C20.5322 12.9859 20.6797 12.9197 20.8286 12.8551C21.0825 12.7453 21.1992 12.4503 21.0891 12.1965C20.9795 11.9426 20.6843 11.8259 20.4305 11.936C20.2722 12.0045 20.1154 12.0751 19.9599 12.1483C19.7094 12.2659 19.6018 12.5643 19.7197 12.8145C19.8048 12.996 19.9851 13.1023 20.1732 13.1023Z" fill="#0C1DA4"/>
<path d="M28.0947 22.2874C27.8991 22.0917 27.5821 22.0917 27.3864 22.2874C27.1907 22.483 27.1907 22.8 27.3864 22.9957L27.7706 23.3799H24.5868C24.3102 23.3799 24.0859 23.6043 24.0859 23.8809C24.0859 24.1575 24.3102 24.3818 24.5868 24.3818H27.7708L27.3864 24.7663C27.1907 24.9619 27.1907 25.2791 27.3864 25.4746C27.582 25.6703 27.899 25.6703 28.0947 25.4746L29.3339 24.2352C29.5295 24.0398 29.5275 23.7199 29.3339 23.5266L28.0947 22.2874Z" fill="#0C1DA4"/>
<path d="M26.6368 26.5831H23.453L23.8373 26.1988C24.033 26.0034 24.033 25.6862 23.8373 25.4905C23.6417 25.2948 23.3247 25.2949 23.129 25.4905C22.2156 26.5075 21.3591 26.9085 21.8896 27.4383L23.129 28.6777C23.3247 28.8733 23.6416 28.8733 23.8373 28.6777C24.0331 28.482 24.033 28.1651 23.8373 27.9694L23.4528 27.5849H26.6368C26.9134 27.5849 27.1377 27.3606 27.1377 27.084C27.1377 26.8074 26.9135 26.5831 26.6368 26.5831Z" fill="#0C1DA4"/>
<path d="M21.1148 32.8126C21.1148 32.536 20.8905 32.3117 20.6139 32.3117C18.0895 32.3117 15.5653 32.3117 13.0454 32.3117C13.0949 32.1937 13.1073 32.0602 13.0545 31.9326C12.9931 31.7836 12.9342 31.6335 12.8777 31.4823C12.7813 31.2228 12.492 31.0915 12.2335 31.1879C11.9742 31.2845 11.8424 31.5731 11.939 31.8321C11.9991 31.9935 12.062 32.1535 12.1274 32.3117H11.8915C11.6149 32.3117 11.3906 32.536 11.3906 32.8126V38.8413C11.3906 39.1179 11.6149 39.3423 11.8915 39.3423H15.7535V40.3321H14.2958C14.0191 40.3321 13.7949 40.5564 13.7949 40.833C13.7949 41.1096 14.0191 41.3339 14.2958 41.3339H18.2131C18.4897 41.3339 18.714 41.1096 18.714 40.833C18.714 40.5564 18.4897 40.3321 18.2131 40.3321H16.7553V39.3423C16.7553 39.3423 20.5864 39.3923 20.6139 39.3423C20.8905 39.3423 21.1148 39.1179 21.1148 38.8413C21.1148 35.4509 21.1148 36.1901 21.1148 32.8126ZM12.3924 38.3405V33.3135H19.6556H20.113V38.3404C17.4916 38.3405 15.2197 38.3405 12.3924 38.3405Z" fill="#0C1DA4"/>
</g>
</g>
<defs>
<filter id="filter0_d_3854_8110" x="0.226562" y="0.375" width="53.2422" height="53.2383" filterUnits="userSpaceOnUse" color-interpolation-filters="sRGB">
<feFlood flood-opacity="0" result="BackgroundImageFix"/>
<feColorMatrix in="SourceAlpha" type="matrix" values="0 0 0 0 0 0 0 0 0 0 0 0 0 0 0 0 0 0 127 0" result="hardAlpha"/>
<feOffset dy="1"/>
<feGaussianBlur stdDeviation="2"/>
<feComposite in2="hardAlpha" operator="out"/>
<feColorMatrix type="matrix" values="0 0 0 0 0 0 0 0 0 0 0 0 0 0 0 0 0 0 0.1 0"/>
<feBlend mode="normal" in2="BackgroundImageFix" result="effect1_dropShadow_3854_8110"/>
<feBlend mode="normal" in="SourceGraphic" in2="effect1_dropShadow_3854_8110" result="shape"/>
</filter>
<clipPath id="clip0_3854_8110">
<rect width="33.06" height="33.06" fill="white" transform="translate(10.3125 9.46484)"/>
</clipPath>
</defs>
</svg>
