<svg width="55" height="55" viewBox="0 0 55 55" fill="none" xmlns="http://www.w3.org/2000/svg">
<g filter="url(#filter0_d_3468_6354)">
<rect x="4.79688" y="3.76172" width="45.76" height="45.76" rx="8" fill="white"/>
<g clip-path="url(#clip0_3468_6354)">
<path d="M34.6398 9.92188C29.171 9.92188 24.8865 12.37 24.8865 15.4952V21.5952C23.6241 21.2608 22.2127 21.0685 20.7065 21.0685C15.2376 21.0685 10.9531 23.5166 10.9531 26.6419V37.7885C10.9531 40.9138 15.2376 43.3619 20.7065 43.3619C26.1753 43.3619 30.4598 40.9138 30.4598 37.7885V37.2521C31.7598 37.5977 33.1838 37.7885 34.6398 37.7885C40.1086 37.7885 44.3931 35.3405 44.3931 32.2152V15.4952C44.3931 12.37 40.1086 9.92188 34.6398 9.92188ZM42.9998 26.6419C42.9998 28.9074 39.1709 30.8219 34.6398 30.8219C33.1615 30.8219 31.7333 30.6115 30.4598 30.2311V26.6419C30.4598 26.4593 30.4417 26.2796 30.4138 26.1027C31.7208 26.4552 33.1559 26.6419 34.6398 26.6419C38.236 26.6419 41.3097 25.5802 42.9998 23.9667V26.6419ZM12.3465 29.54C14.0366 31.1535 17.1103 32.2152 20.7065 32.2152C24.3027 32.2152 27.3763 31.1535 29.0665 29.54V32.2152C29.0665 34.4808 25.2376 36.3952 20.7065 36.3952C16.1753 36.3952 12.3465 34.4808 12.3465 32.2152V29.54ZM34.6398 11.3152C39.1709 11.3152 42.9998 13.2296 42.9998 15.4952C42.9998 17.7608 39.1709 19.6752 34.6398 19.6752C30.1087 19.6752 26.2798 17.7608 26.2798 15.4952C26.2798 13.2296 30.1087 11.3152 34.6398 11.3152ZM26.2798 18.3933C27.9699 20.0068 31.0436 21.0685 34.6398 21.0685C38.236 21.0685 41.3097 20.0068 42.9998 18.3933V21.0685C42.9998 23.3341 39.1709 25.2485 34.6398 25.2485C32.8326 25.2485 31.1133 24.9518 29.6572 24.3944C28.9355 23.4358 27.7623 22.6249 26.2798 22.0425V18.3933ZM20.7065 22.4619C25.2376 22.4619 29.0665 24.3763 29.0665 26.6419C29.0665 28.9074 25.2376 30.8219 20.7065 30.8219C16.1753 30.8219 12.3465 28.9074 12.3465 26.6419C12.3465 24.3763 16.1753 22.4619 20.7065 22.4619ZM20.7065 41.9685C16.1753 41.9685 12.3465 40.0541 12.3465 37.7885V35.1133C14.0366 36.7268 17.1103 37.7885 20.7065 37.7885C24.3027 37.7885 27.3763 36.7268 29.0665 35.1133V37.7885C29.0665 40.0541 25.2376 41.9685 20.7065 41.9685ZM34.6398 36.3952C33.167 36.3952 31.7333 36.1876 30.4598 35.8072V31.6802C31.7584 32.0257 33.181 32.2138 34.6398 32.2138C38.236 32.2138 41.3097 31.1521 42.9998 29.5386V32.2138C42.9998 34.4794 39.1709 36.3952 34.6398 36.3952Z" fill="#0C1DA4"/>
</g>
</g>
<defs>
<filter id="filter0_d_3468_6354" x="0.796875" y="0.761719" width="53.7578" height="53.7617" filterUnits="userSpaceOnUse" color-interpolation-filters="sRGB">
<feFlood flood-opacity="0" result="BackgroundImageFix"/>
<feColorMatrix in="SourceAlpha" type="matrix" values="0 0 0 0 0 0 0 0 0 0 0 0 0 0 0 0 0 0 127 0" result="hardAlpha"/>
<feOffset dy="1"/>
<feGaussianBlur stdDeviation="2"/>
<feComposite in2="hardAlpha" operator="out"/>
<feColorMatrix type="matrix" values="0 0 0 0 0 0 0 0 0 0 0 0 0 0 0 0 0 0 0.1 0"/>
<feBlend mode="normal" in2="BackgroundImageFix" result="effect1_dropShadow_3468_6354"/>
<feBlend mode="normal" in="SourceGraphic" in2="effect1_dropShadow_3468_6354" result="shape"/>
</filter>
<clipPath id="clip0_3468_6354">
<rect width="33.44" height="33.44" fill="white" transform="translate(10.9531 9.92188)"/>
</clipPath>
</defs>
</svg>
