<svg width="55" height="55" viewBox="0 0 55 55" fill="none" xmlns="http://www.w3.org/2000/svg">
<g filter="url(#filter0_d_3468_6345)">
<rect x="4.79688" y="3.76172" width="45.76" height="45.76" rx="8" fill="white"/>
<g clip-path="url(#clip0_3468_6345)">
<path d="M33.2465 26.6393H30.4598V23.8526C30.4598 22.3158 29.21 21.066 27.6731 21.066C26.1363 21.066 24.8865 22.3158 24.8865 23.8526V26.6393H22.0998C20.5629 26.6393 19.3131 27.8891 19.3131 29.426C19.3131 30.9628 20.5629 32.2126 22.0998 32.2126H24.8865V34.9993C24.8865 36.5361 26.1363 37.786 27.6731 37.786C29.21 37.786 30.4598 36.5361 30.4598 34.9993V32.2126H33.2465C34.7833 32.2126 36.0331 30.9628 36.0331 29.426C36.0331 27.8891 34.7833 26.6393 33.2465 26.6393ZM33.2465 30.8193H29.7631C29.3786 30.8193 29.0665 31.1314 29.0665 31.516V34.9993C29.0665 35.7684 28.4422 36.3926 27.6731 36.3926C26.904 36.3926 26.2798 35.7684 26.2798 34.9993V31.516C26.2798 31.1314 25.9677 30.8193 25.5831 30.8193H22.0998C21.3307 30.8193 20.7065 30.1951 20.7065 29.426C20.7065 28.6568 21.3307 28.0326 22.0998 28.0326H25.5831C25.9677 28.0326 26.2798 27.7205 26.2798 27.336V23.8526C26.2798 23.0835 26.904 22.4593 27.6731 22.4593C28.4422 22.4593 29.0665 23.0835 29.0665 23.8526V27.336C29.0665 27.7205 29.3786 28.0326 29.7631 28.0326H33.2465C34.0156 28.0326 34.6398 28.6568 34.6398 29.426C34.6398 30.1951 34.0156 30.8193 33.2465 30.8193ZM41.6301 18.0438L40.2131 17.088V12.0093C40.2131 11.6247 39.901 11.3126 39.5165 11.3126C39.1319 11.3126 38.8198 11.6247 38.8198 12.0093V16.1475L31.1815 10.9935C29.0511 9.55423 26.2951 9.55423 24.1675 10.9935L13.7161 18.0438C11.9856 19.2114 10.9531 21.1537 10.9531 23.2396V37.0879C10.9531 40.5448 13.7663 43.3579 17.2231 43.3579H38.1231C41.58 43.3579 44.3931 40.5448 44.3931 37.0879V23.2409C44.3931 21.1551 43.3607 19.21 41.6301 18.0438ZM42.9998 37.0893C42.9998 39.7784 40.8123 41.966 38.1231 41.966H17.2231C14.534 41.966 12.3465 39.7784 12.3465 37.0893V23.2409C12.3465 21.6177 13.149 20.1073 14.495 19.1989L24.9464 12.1472C25.774 11.5885 26.7229 11.307 27.6731 11.307C28.6234 11.307 29.5722 11.5871 30.4013 12.1472L40.8513 19.1989C42.1972 20.1073 42.9998 21.6177 42.9998 23.2409V37.0893Z" fill="#0C1DA4"/>
</g>
</g>
<defs>
<filter id="filter0_d_3468_6345" x="0.796875" y="0.761719" width="53.7578" height="53.7617" filterUnits="userSpaceOnUse" color-interpolation-filters="sRGB">
<feFlood flood-opacity="0" result="BackgroundImageFix"/>
<feColorMatrix in="SourceAlpha" type="matrix" values="0 0 0 0 0 0 0 0 0 0 0 0 0 0 0 0 0 0 127 0" result="hardAlpha"/>
<feOffset dy="1"/>
<feGaussianBlur stdDeviation="2"/>
<feComposite in2="hardAlpha" operator="out"/>
<feColorMatrix type="matrix" values="0 0 0 0 0 0 0 0 0 0 0 0 0 0 0 0 0 0 0.1 0"/>
<feBlend mode="normal" in2="BackgroundImageFix" result="effect1_dropShadow_3468_6345"/>
<feBlend mode="normal" in="SourceGraphic" in2="effect1_dropShadow_3468_6345" result="shape"/>
</filter>
<clipPath id="clip0_3468_6345">
<rect width="33.44" height="33.44" fill="white" transform="translate(10.9531 9.92188)"/>
</clipPath>
</defs>
</svg>
