<svg width="54" height="54" viewBox="0 0 54 54" fill="none" xmlns="http://www.w3.org/2000/svg">
<g filter="url(#filter0_d_3854_8056)">
<rect x="4.22656" y="3.125" width="45.24" height="45.24" rx="8" fill="white"/>
<g clip-path="url(#clip0_3854_8056)">
<path d="M31.7288 20.584C31.5187 19.7179 31.0772 18.9253 30.4515 18.2907C29.9793 17.8164 29.4176 17.4405 28.799 17.1847C28.1805 16.929 27.5173 16.7985 26.848 16.8008C26.1792 16.7992 25.5166 16.9301 24.8987 17.186C24.2807 17.442 23.7196 17.8178 23.2478 18.2918C22.6224 18.926 22.1813 19.7184 21.9717 20.584C21.2181 20.697 20.5152 21.0319 19.9528 21.546C19.3293 22.1075 18.8871 22.8418 18.6824 23.6555C18.4777 24.4691 18.5198 25.3253 18.8034 26.1149C19.3015 27.4549 20.949 29.7196 26.4072 29.8353H27.3197C32.7591 29.7251 34.4066 27.4549 34.9047 26.1149C35.1882 25.3252 35.2301 24.4689 35.0252 23.6553C34.8204 22.8416 34.3779 22.1073 33.7542 21.546C33.19 21.0307 32.4847 20.6957 31.7288 20.584ZM33.3476 25.543C32.7492 27.1541 30.5375 28.1172 27.2954 28.1878H26.4138C23.1541 28.1184 20.9424 27.1552 20.344 25.543C20.1724 25.0626 20.1484 24.542 20.275 24.0479C20.4017 23.5538 20.6733 23.1089 21.0548 22.7703C21.4038 22.4524 21.8443 22.2527 22.3135 22.1999C22.7827 22.147 23.2566 22.2437 23.6676 22.4761C23.864 22.5736 24.0911 22.589 24.2989 22.5191C24.5067 22.4491 24.6782 22.2995 24.7757 22.1031C24.8732 21.9067 24.8886 21.6796 24.8187 21.4718C24.7487 21.264 24.5991 21.0925 24.4027 20.995C24.161 20.8777 23.9095 20.7818 23.6511 20.7085C23.8073 20.2412 24.0682 19.8157 24.4137 19.4643C24.7323 19.1431 25.1116 18.8883 25.5295 18.7149C25.9474 18.5414 26.3955 18.4526 26.848 18.4538C27.2983 18.4531 27.7444 18.5414 28.1604 18.7137C28.5765 18.886 28.9544 19.1389 29.2724 19.4577C29.6192 19.8125 29.8804 20.2418 30.0361 20.7129C29.7777 20.7862 29.5262 20.8821 29.2845 20.9994C29.0881 21.0969 28.9385 21.2684 28.8685 21.4762C28.7986 21.684 28.814 21.9111 28.9115 22.1075C29.009 22.3039 29.1805 22.4535 29.3883 22.5235C29.5961 22.5934 29.8232 22.578 30.0196 22.4805C30.4307 22.2486 30.9045 22.1522 31.3736 22.205C31.8426 22.2579 32.2831 22.4572 32.6324 22.7748C33.0134 23.1118 33.2851 23.5548 33.4129 24.0472C33.5407 24.5395 33.5187 25.0588 33.3498 25.5386L33.3476 25.543Z" fill="#0C1DA4"/>
<path d="M38.9702 11.8945H14.7262C13.6306 11.8957 12.5802 12.3315 11.8054 13.1062C11.0307 13.8809 10.5949 14.9314 10.5938 16.027V30.6109C10.5949 31.7065 11.0307 32.757 11.8054 33.5317C12.5802 34.3065 13.6306 34.7422 14.7262 34.7434H26.0217V37.9458H19.9134C19.6942 37.9458 19.4839 38.0329 19.3289 38.1879C19.1739 38.3429 19.0869 38.5531 19.0869 38.7723C19.0869 38.9915 19.1739 39.2017 19.3289 39.3567C19.4839 39.5117 19.6942 39.5988 19.9134 39.5988H33.7842C34.0034 39.5988 34.2137 39.5117 34.3687 39.3567C34.5237 39.2017 34.6107 38.9915 34.6107 38.7723C34.6107 38.5531 34.5237 38.3429 34.3687 38.1879C34.2137 38.0329 34.0034 37.9458 33.7842 37.9458H27.6747V34.7434H38.9702C40.0659 34.7422 41.1163 34.3065 41.8911 33.5317C42.6658 32.757 43.1016 31.7065 43.1027 30.6109V16.027C43.1016 14.9314 42.6658 13.8809 41.8911 13.1062C41.1163 12.3315 40.0659 11.8957 38.9702 11.8945ZM41.4497 30.6109C41.4492 31.2683 41.1877 31.8987 40.7229 32.3635C40.258 32.8284 39.6277 33.0898 38.9702 33.0904H14.7262C14.0688 33.0898 13.4385 32.8284 12.9736 32.3635C12.5088 31.8987 12.2473 31.2683 12.2467 30.6109V16.027C12.2473 15.3696 12.5088 14.7393 12.9736 14.2744C13.4385 13.8095 14.0688 13.5481 14.7262 13.5475H38.9702C39.6277 13.5481 40.258 13.8095 40.7229 14.2744C41.1877 14.7393 41.4492 15.3696 41.4497 16.027V30.6109Z" fill="#0C1DA4"/>
</g>
</g>
<defs>
<filter id="filter0_d_3854_8056" x="0.226562" y="0.125" width="53.2422" height="53.2383" filterUnits="userSpaceOnUse" color-interpolation-filters="sRGB">
<feFlood flood-opacity="0" result="BackgroundImageFix"/>
<feColorMatrix in="SourceAlpha" type="matrix" values="0 0 0 0 0 0 0 0 0 0 0 0 0 0 0 0 0 0 127 0" result="hardAlpha"/>
<feOffset dy="1"/>
<feGaussianBlur stdDeviation="2"/>
<feComposite in2="hardAlpha" operator="out"/>
<feColorMatrix type="matrix" values="0 0 0 0 0 0 0 0 0 0 0 0 0 0 0 0 0 0 0.1 0"/>
<feBlend mode="normal" in2="BackgroundImageFix" result="effect1_dropShadow_3854_8056"/>
<feBlend mode="normal" in="SourceGraphic" in2="effect1_dropShadow_3854_8056" result="shape"/>
</filter>
<clipPath id="clip0_3854_8056">
<rect width="33.06" height="33.06" fill="white" transform="translate(10.3125 9.21484)"/>
</clipPath>
</defs>
</svg>
