<svg width="54" height="55" viewBox="0 0 54 55" fill="none" xmlns="http://www.w3.org/2000/svg">
<g filter="url(#filter0_d_3468_6351)">
<rect x="4.19531" y="3.76172" width="45.76" height="45.76" rx="8" fill="white"/>
<g clip-path="url(#clip0_3468_6351)">
<path d="M31.0239 30.8219C30.8456 30.8219 30.6672 30.7536 30.5307 30.6184C30.259 30.3467 30.259 29.9051 30.5307 29.6334L34.8263 25.3377C35.6414 24.5226 35.6414 23.1962 34.8263 22.3811L30.5237 18.0784C30.252 17.8067 30.252 17.3651 30.5237 17.0934C30.7954 16.8217 31.2371 16.8217 31.5088 17.0934L35.8114 21.396C37.1699 22.7545 37.1699 24.9657 35.8114 26.3228L31.5157 30.6184C31.3792 30.755 31.2009 30.8219 31.0225 30.8219H31.0239ZM23.6281 30.6184C23.8998 30.3467 23.8998 29.9051 23.6281 29.6334L19.3324 25.3377C18.5173 24.5226 18.5173 23.1962 19.3324 22.3811L23.6351 18.0784C23.9068 17.8067 23.9068 17.3651 23.6351 17.0934C23.3634 16.8217 22.9217 16.8217 22.65 17.0934L18.3474 21.396C16.9889 22.7545 16.9889 24.9657 18.3474 26.3228L22.643 30.6184C22.7795 30.755 22.9579 30.8219 23.1362 30.8219C23.3146 30.8219 23.4929 30.7536 23.6295 30.6184H23.6281ZM28.449 42.3796L34.0015 37.7885H38.9227C41.6118 37.7885 43.7994 35.601 43.7994 32.9119V14.7985C43.7994 12.1094 41.6118 9.92188 38.9227 9.92188H15.236C12.5469 9.92188 10.3594 12.1094 10.3594 14.7985V32.9119C10.3594 35.601 12.5469 37.7885 15.236 37.7885H20.2604L25.6902 42.3629C26.0887 42.7168 26.5889 42.8923 27.0849 42.8923C27.5768 42.8923 28.0645 42.7209 28.449 42.3796ZM38.9227 11.3152C40.8427 11.3152 42.406 12.8771 42.406 14.7985V32.9119C42.406 34.8333 40.8427 36.3952 38.9227 36.3952H33.752C33.5904 36.3952 33.433 36.4523 33.309 36.554L27.5434 41.3206C27.2786 41.5575 26.8815 41.5561 26.6029 41.3081L20.964 36.5582C20.8386 36.4537 20.6784 36.3952 20.5154 36.3952H15.236C13.316 36.3952 11.7527 34.8333 11.7527 32.9119V14.7985C11.7527 12.8771 13.316 11.3152 15.236 11.3152H38.9227Z" fill="#0C1DA4"/>
</g>
</g>
<defs>
<filter id="filter0_d_3468_6351" x="0.195312" y="0.761719" width="53.7578" height="53.7617" filterUnits="userSpaceOnUse" color-interpolation-filters="sRGB">
<feFlood flood-opacity="0" result="BackgroundImageFix"/>
<feColorMatrix in="SourceAlpha" type="matrix" values="0 0 0 0 0 0 0 0 0 0 0 0 0 0 0 0 0 0 127 0" result="hardAlpha"/>
<feOffset dy="1"/>
<feGaussianBlur stdDeviation="2"/>
<feComposite in2="hardAlpha" operator="out"/>
<feColorMatrix type="matrix" values="0 0 0 0 0 0 0 0 0 0 0 0 0 0 0 0 0 0 0.1 0"/>
<feBlend mode="normal" in2="BackgroundImageFix" result="effect1_dropShadow_3468_6351"/>
<feBlend mode="normal" in="SourceGraphic" in2="effect1_dropShadow_3468_6351" result="shape"/>
</filter>
<clipPath id="clip0_3468_6351">
<rect width="33.44" height="33.44" fill="white" transform="translate(10.3594 9.92188)"/>
</clipPath>
</defs>
</svg>
