<svg width="55" height="54" viewBox="0 0 55 54" fill="none" xmlns="http://www.w3.org/2000/svg">
<g filter="url(#filter0_d_3468_6306)">
<rect x="4.59375" y="3" width="45.76" height="45.76" rx="8" fill="white"/>
<g clip-path="url(#clip0_3468_6306)">
<path d="M31.4492 30.692L30.23 31.9098C29.9583 32.1815 29.9583 32.6231 30.23 32.8948C30.3665 33.0314 30.5449 33.0983 30.7232 33.0983C30.9016 33.0983 31.0799 33.03 31.2165 32.8948L41.9117 22.201C42.1834 21.9293 42.1834 21.4876 41.9117 21.2159C41.64 20.9442 41.1983 20.9442 40.9266 21.2159L39.6113 22.5312L28.7572 11.6799L30.0725 10.3646C30.3442 10.0929 30.3442 9.65126 30.0725 9.37956C29.8008 9.10786 29.3592 9.10786 29.0875 9.37956L18.3922 20.0748C18.1205 20.3465 18.1205 20.7882 18.3922 21.0599C18.5288 21.1964 18.7071 21.2633 18.8855 21.2633C19.0638 21.2633 19.2422 21.195 19.3787 21.0599L20.5979 19.8407L25.5219 24.7647L10.9616 39.3223C10.6899 39.594 10.6899 40.0357 10.9616 40.3074C11.0981 40.4439 11.2765 40.5108 11.4548 40.5108C11.6332 40.5108 11.8115 40.4425 11.9481 40.3074L26.507 25.7484L31.4492 30.692ZM35.781 20.6739L29.5918 26.8631L24.4254 21.6966L30.6159 15.5074L35.781 20.6739ZM32.4342 29.7069L30.5769 27.8496L36.7661 21.6604L38.6234 23.5177L32.4329 29.7069H32.4342ZM27.7722 12.665L29.6295 14.5223L23.4389 20.7115L21.5816 18.8542L27.7708 12.665H27.7722ZM43.5015 41.2089H42.8048C42.8048 38.9043 40.9294 37.0289 38.6248 37.0289H28.8715C26.5669 37.0289 24.6915 38.9043 24.6915 41.2089H23.9948C23.6103 41.2089 23.2982 41.521 23.2982 41.9055C23.2982 42.2901 23.6103 42.6022 23.9948 42.6022H43.5015C43.8861 42.6022 44.1982 42.2901 44.1982 41.9055C44.1982 41.521 43.8861 41.2089 43.5015 41.2089ZM28.8715 38.4222H38.6248C40.1617 38.4222 41.4115 39.672 41.4115 41.2089H26.0848C26.0848 39.672 27.3346 38.4222 28.8715 38.4222Z" fill="#0C1DA4"/>
</g>
</g>
<defs>
<filter id="filter0_d_3468_6306" x="0.59375" y="0" width="53.7578" height="53.7617" filterUnits="userSpaceOnUse" color-interpolation-filters="sRGB">
<feFlood flood-opacity="0" result="BackgroundImageFix"/>
<feColorMatrix in="SourceAlpha" type="matrix" values="0 0 0 0 0 0 0 0 0 0 0 0 0 0 0 0 0 0 127 0" result="hardAlpha"/>
<feOffset dy="1"/>
<feGaussianBlur stdDeviation="2"/>
<feComposite in2="hardAlpha" operator="out"/>
<feColorMatrix type="matrix" values="0 0 0 0 0 0 0 0 0 0 0 0 0 0 0 0 0 0 0.1 0"/>
<feBlend mode="normal" in2="BackgroundImageFix" result="effect1_dropShadow_3468_6306"/>
<feBlend mode="normal" in="SourceGraphic" in2="effect1_dropShadow_3468_6306" result="shape"/>
</filter>
<clipPath id="clip0_3468_6306">
<rect width="33.44" height="33.44" fill="white" transform="translate(10.7578 9.16016)"/>
</clipPath>
</defs>
</svg>
