<svg width="54" height="54" viewBox="0 0 54 54" fill="none" xmlns="http://www.w3.org/2000/svg">
<g filter="url(#filter0_d_3854_8105)">
<rect x="4.42188" y="3.63672" width="45.24" height="45.24" rx="8" fill="white"/>
<g clip-path="url(#clip0_3854_8105)">
<path fill-rule="evenodd" clip-rule="evenodd" d="M38.0806 32.7285C38.7925 33.0338 39.0879 33.6277 39.2201 34.3132C39.3623 35.0449 39.5805 35.7292 40.1337 36.2648C40.2075 36.3353 40.2604 36.4301 40.3177 36.5183C40.9987 37.5531 40.8434 38.2837 39.7777 38.9008C39.3006 39.1785 38.7958 39.4088 38.3033 39.6568C37.5605 40.0293 36.9092 40.5064 36.3582 41.1423C35.6573 41.9467 34.8011 42.5264 33.7222 42.728C32.4318 42.9694 31.2978 42.4052 30.7468 41.1996C30.6289 40.9417 30.4956 40.8635 30.2179 40.8491C29.5335 40.8084 28.8492 40.7389 28.1704 40.6387C26.9747 40.4623 25.8264 40.7566 24.6616 40.9274C24.201 40.9946 23.8803 41.1467 23.575 41.539C22.9733 42.3115 22.0631 42.5099 21.1462 42.3886C20.4024 42.2895 19.6387 42.1021 18.9643 41.7836C17.9813 41.323 16.9641 41.1103 15.9062 40.9957C15.5062 40.9527 15.1039 40.8987 14.7116 40.815C13.6504 40.5847 13.1468 39.8959 13.4289 38.8545C13.6614 37.9961 13.6934 37.1784 13.5832 36.3023C13.4256 35.0515 13.8047 34.4642 15.0466 34.1115C16.0406 33.8294 16.4186 32.9687 17.0269 32.3186C17.0743 32.2668 17.0655 32.1466 17.0578 32.0607C16.8848 30.3625 17.3917 28.8131 18.1036 27.3144C18.8838 25.6724 19.9296 24.2012 21.0636 22.7874C22.2967 21.2501 22.7959 19.4814 22.6703 17.5231C22.5766 16.0486 22.451 14.5719 22.8058 13.1085C23.2687 11.191 24.5867 9.97441 26.546 9.78927C27.3824 9.70993 28.2607 9.67466 29.0751 9.83886C30.9783 10.2202 31.8797 11.6164 32.3051 13.3906C32.639 14.7835 32.6819 16.204 32.6202 17.6223C32.5596 18.991 32.8748 20.2285 33.6991 21.3239C34.292 22.1118 34.9421 22.8568 35.4976 23.6701C36.194 24.6927 36.9015 25.7198 37.4536 26.8218C38.3727 28.6544 38.7231 30.4837 38.0806 32.7285ZM22.9954 36.8676C23.4747 37.6743 24.0224 38.3267 24.9305 38.6385C26.9549 39.3361 28.7985 38.914 30.5463 37.823C30.7413 37.7029 30.943 37.4572 30.9827 37.2423C31.1678 36.2031 31.2989 35.1529 31.4477 34.1038C31.5866 33.1197 31.7871 32.1709 32.7955 31.6585C32.8825 31.6133 32.9255 31.4535 32.9597 31.34C33.1448 30.735 33.4423 30.4441 34.0517 30.5388C35.2683 30.7284 36.4761 30.9995 36.8916 32.4828C37.1406 32.0695 37.015 31.7147 36.7549 31.4491C36.4596 31.146 36.1158 30.8551 35.7378 30.6766C35.2573 30.4529 35.0865 30.2336 35.1306 29.6396C35.2816 27.6097 34.3361 25.9953 32.9806 24.5781C32.9519 24.5484 32.899 24.5395 32.8572 24.5219C34.2347 26.1518 35.146 27.8852 34.5025 30.0914C33.7795 30.0374 33.7696 30.0396 33.7046 29.7233C33.4335 28.4065 32.8968 27.1943 32.3062 25.9953C31.8158 24.9936 31.3805 23.9599 30.9716 22.9229C30.6135 22.0149 30.3259 21.0737 30.0151 20.1723C29.6757 20.396 29.3572 20.6329 29.0145 20.8291C28.5803 21.0771 28.1208 21.2765 27.6866 21.5245C26.5879 22.1482 25.6953 22.0644 24.7343 21.2379C24.4709 21.0098 24.1789 20.8159 23.8395 20.5624C23.6753 22.3014 23.0901 23.8012 22.4356 25.2812C22.1391 25.9501 21.8383 26.6157 21.5286 27.2769C20.9423 28.5299 20.6283 29.8512 20.5071 31.3234C19.9792 30.5598 19.8326 29.806 19.8844 29.0037C19.9505 27.9668 20.3263 27.0279 20.8057 26.122C20.9875 25.7771 21.1484 25.4244 21.3203 25.0729C21.2873 25.0575 21.2531 25.0432 21.22 25.0277C20.4608 26.2267 19.7742 27.4642 19.4987 28.8759C19.1395 30.714 19.75 31.924 21.349 32.8729C22.3529 33.4668 23.2698 34.1942 23.8097 35.2752C24.245 36.1403 23.964 36.6781 22.9954 36.8676ZM20.8817 41.3638C21.8107 41.2943 22.4763 41.1698 22.8576 40.4899C23.2389 39.8122 23.1122 39.1532 22.7033 38.536C22.4455 38.1448 22.1446 37.7801 21.8846 37.3889C21.3975 36.6527 20.9203 35.9078 20.4497 35.1617C20.1103 34.6217 19.8337 34.0377 19.4502 33.5341C18.8805 32.7847 17.8953 32.4431 17.1448 33.6134C16.7371 34.2504 16.1971 34.6526 15.4698 34.873C14.7138 35.1011 14.5078 35.5485 14.5706 36.3453C14.6169 36.9481 14.7072 37.5894 14.5618 38.1581C14.2257 39.4727 14.4494 39.8926 15.7971 40.0304C17.0203 40.1571 18.2138 40.351 19.3367 40.9274C19.8679 41.1985 20.5048 41.2624 20.8817 41.3638ZM33.3101 32.8189C33.1305 33.047 32.9023 33.2409 32.8043 33.4878C32.6489 33.8713 32.5222 34.2889 32.4891 34.6978C32.3833 35.9717 32.2599 37.2357 31.8279 38.449C31.7397 38.6969 31.689 38.957 31.6417 39.2149C31.494 40.0072 31.5722 40.7456 32.2467 41.2943C32.9112 41.8387 33.6726 41.8564 34.3989 41.5048C34.9322 41.2492 35.4722 40.9131 35.87 40.4822C36.5753 39.7185 37.3952 39.1653 38.322 38.7322C38.6779 38.5669 39.0295 38.3796 39.3535 38.1592C39.727 37.9057 39.7998 37.606 39.6014 37.1971C39.4703 36.9304 39.3083 36.6637 39.1077 36.4433C38.7573 36.0576 38.5754 35.608 38.4674 35.1132C38.3991 34.8058 38.3275 34.4928 38.1986 34.2096C37.8922 33.5252 37.0073 33.3743 36.4045 33.814C36.021 34.0939 35.5747 34.3198 35.124 34.4708C34.5509 34.6647 34.0462 34.4388 33.7498 33.9132C33.5724 33.6002 33.4754 33.2431 33.3101 32.8189ZM26.3873 21.2699C26.5581 21.2247 26.8623 21.195 27.1224 21.0693C27.7968 20.7531 28.4536 20.3982 29.1126 20.0489C29.236 19.9839 29.3484 19.8935 29.4542 19.8009C30.1617 19.1706 30.0482 18.4708 29.1853 18.0895C28.5671 17.8184 27.9522 17.5429 27.3406 17.2564C26.5361 16.8839 25.7581 16.863 25.0275 17.4217C24.5569 17.781 24.0974 18.1557 23.6389 18.5303C23.3645 18.7518 23.2995 19.0339 23.4395 19.3634C23.661 19.8825 25.4374 21.1795 26.0115 21.2379C26.0942 21.249 26.1779 21.2534 26.3873 21.2699ZM28.7643 17.5573C28.9274 17.6278 29.0553 17.6719 29.1677 17.738C29.539 17.9595 29.7892 17.8107 29.8575 17.4427C29.9578 16.8939 30.0922 16.3208 30.0206 15.7808C29.9027 14.8794 29.2283 14.2656 28.5241 14.2292C27.6778 14.1885 26.9736 14.8882 26.8204 15.9164C26.7025 16.7065 26.7234 16.7363 27.4937 16.917C27.5764 16.5875 27.6083 16.2327 27.7615 15.9417C27.8607 15.7522 28.1395 15.5417 28.3313 15.5483C28.523 15.5527 28.782 15.7808 28.88 15.977C29.1379 16.4905 29.0509 17.0195 28.7643 17.5573ZM33.9305 32.2679C33.957 32.7087 34.0506 33.1935 34.53 33.4195C34.9851 33.6365 35.394 33.3941 35.7642 33.1241C35.8557 33.0569 35.9406 32.9753 36.0144 32.8894C36.2778 32.5863 36.2745 32.2238 35.9439 31.9957C35.6364 31.783 35.2882 31.6023 34.9333 31.4832C34.2622 31.2606 33.9261 31.5273 33.9305 32.2679ZM25.0109 17.047C25.2313 16.8729 25.574 16.7352 25.5939 16.5589C25.6688 15.9043 25.4991 15.2805 24.9911 14.8089C24.547 14.3978 24.0169 14.4606 23.6323 14.9422C23.0141 15.7125 23.1144 17.198 23.8483 17.9209C23.9728 17.8284 24.1007 17.7336 24.2384 17.63C23.8748 17.23 23.802 16.7715 23.91 16.3087C23.9563 16.1125 24.1767 15.9605 24.3178 15.7875C24.4776 15.923 24.6913 16.031 24.7817 16.2029C24.9018 16.4321 24.9261 16.7098 25.0109 17.047Z" fill="#0C1DA4"/>
<path fill-rule="evenodd" clip-rule="evenodd" d="M24.6028 21.5082C24.6942 21.5854 24.7868 21.6592 24.875 21.7407C25.7434 22.5452 26.4233 22.64 27.4702 22.0868C27.7721 21.927 28.062 21.7418 28.3639 21.5788C28.4752 21.5203 28.6041 21.4928 28.7419 21.5016C27.8812 21.9534 27.1418 22.7138 26.0497 22.5628C25.3973 22.4725 24.9499 22.0548 24.5234 21.614C24.5499 21.5799 24.5763 21.5446 24.6028 21.5082Z" fill="#0C1DA4"/>
</g>
</g>
<defs>
<filter id="filter0_d_3854_8105" x="0.421875" y="0.636719" width="53.2422" height="53.2383" filterUnits="userSpaceOnUse" color-interpolation-filters="sRGB">
<feFlood flood-opacity="0" result="BackgroundImageFix"/>
<feColorMatrix in="SourceAlpha" type="matrix" values="0 0 0 0 0 0 0 0 0 0 0 0 0 0 0 0 0 0 127 0" result="hardAlpha"/>
<feOffset dy="1"/>
<feGaussianBlur stdDeviation="2"/>
<feComposite in2="hardAlpha" operator="out"/>
<feColorMatrix type="matrix" values="0 0 0 0 0 0 0 0 0 0 0 0 0 0 0 0 0 0 0.1 0"/>
<feBlend mode="normal" in2="BackgroundImageFix" result="effect1_dropShadow_3854_8105"/>
<feBlend mode="normal" in="SourceGraphic" in2="effect1_dropShadow_3854_8105" result="shape"/>
</filter>
<clipPath id="clip0_3854_8105">
<rect width="33.06" height="33.06" fill="white" transform="translate(10.5156 9.72656)"/>
</clipPath>
</defs>
</svg>
