<svg width="54" height="54" viewBox="0 0 54 54" fill="none" xmlns="http://www.w3.org/2000/svg">
<g filter="url(#filter0_d_3854_8068)">
<rect x="4.33594" y="3.375" width="45.24" height="45.24" rx="8" fill="white"/>
<path d="M33.918 39.7482H19.9977C19.8574 39.7482 19.7229 39.6924 19.6237 39.5932C19.5245 39.494 19.4688 39.3595 19.4688 39.2192C19.4697 38.3408 19.8191 37.4987 20.4402 36.8777C21.0612 36.2566 21.9033 35.9072 22.7817 35.9062H31.134C32.0123 35.9072 32.8544 36.2566 33.4755 36.8777C34.0966 37.4987 34.446 38.3408 34.4469 39.2192C34.4469 39.3595 34.3912 39.494 34.292 39.5932C34.1928 39.6924 34.0582 39.7482 33.918 39.7482ZM20.5895 38.6902H33.3262C33.2068 38.1986 32.9259 37.7613 32.5284 37.4483C32.1309 37.1353 31.6399 36.9648 31.134 36.9642H22.7817C22.2758 36.9648 21.7847 37.1353 21.3873 37.4483C20.9898 37.7613 20.7088 38.1986 20.5895 38.6902Z" fill="#0C1DA4"/>
<path d="M40.1801 32.7888H13.7321C13.5918 32.7888 13.4573 32.733 13.3581 32.6338C13.2589 32.5346 13.2031 32.4001 13.2031 32.2598V29.6501C13.2031 29.5098 13.2589 29.3752 13.3581 29.276C13.4573 29.1768 13.5918 29.1211 13.7321 29.1211H40.1801C40.3204 29.1211 40.4549 29.1768 40.5541 29.276C40.6533 29.3752 40.709 29.5098 40.709 29.6501V32.2598C40.709 32.4001 40.6533 32.5346 40.5541 32.6338C40.4549 32.733 40.3204 32.7888 40.1801 32.7888ZM14.261 31.7308H39.6511V30.179H14.261V31.7308Z" fill="#0C1DA4"/>
<path d="M30.4344 36.9645H23.4746C23.3852 36.9646 23.2973 36.942 23.219 36.8989C23.1408 36.8558 23.0747 36.7935 23.027 36.7179C22.9793 36.6424 22.9515 36.5559 22.9462 36.4667C22.941 36.3775 22.9584 36.2884 22.9969 36.2078L24.9881 32.032C25.0311 31.9416 25.099 31.8652 25.1837 31.8118C25.2685 31.7585 25.3666 31.7303 25.4668 31.7305H28.4422C28.5421 31.7305 28.64 31.7588 28.7245 31.8122C28.809 31.8656 28.8766 31.9418 28.9196 32.032L30.9121 36.2078C30.9506 36.2884 30.968 36.3775 30.9627 36.4667C30.9575 36.5559 30.9297 36.6424 30.882 36.7179C30.8343 36.7935 30.7682 36.8558 30.6899 36.8989C30.6117 36.942 30.5237 36.9646 30.4344 36.9645ZM24.3127 35.9066H29.5963L28.1086 32.7884H25.7994L24.3127 35.9066Z" fill="#0C1DA4"/>
<path d="M40.1801 30.1782H13.7321C13.5918 30.1782 13.4573 30.1225 13.3581 30.0233C13.2589 29.9241 13.2031 29.7896 13.2031 29.6493V12.7711C13.2031 12.6309 13.2589 12.4963 13.3581 12.3971C13.4573 12.2979 13.5918 12.2422 13.7321 12.2422H40.1801C40.3204 12.2422 40.4549 12.2979 40.5541 12.3971C40.6533 12.4963 40.709 12.6309 40.709 12.7711V29.6493C40.709 29.7896 40.6533 29.9241 40.5541 30.0233C40.4549 30.1225 40.3204 30.1782 40.1801 30.1782ZM14.261 29.1203H39.6511V13.3001H14.261V29.1203Z" fill="#0C1DA4"/>
<path d="M26.9508 20.2528C26.8105 20.2528 26.676 20.1971 26.5768 20.0979C26.4776 19.9987 26.4219 19.8642 26.4219 19.7239V18.7321C26.4219 18.5918 26.4776 18.4573 26.5768 18.3581C26.676 18.2589 26.8105 18.2031 26.9508 18.2031C27.0911 18.2031 27.2257 18.2589 27.3249 18.3581C27.4241 18.4573 27.4798 18.5918 27.4798 18.7321V19.7239C27.4798 19.8642 27.4241 19.9987 27.3249 20.0979C27.2257 20.1971 27.0911 20.2528 26.9508 20.2528Z" fill="#0C1DA4"/>
<path d="M25.4711 20.7911C25.3939 20.791 25.3175 20.7741 25.2475 20.7414C25.1775 20.7088 25.1155 20.6612 25.0658 20.6019L24.4281 19.8416C24.338 19.7339 24.2944 19.5949 24.3068 19.4551C24.3192 19.3153 24.3866 19.1862 24.4942 19.0961C24.6018 19.006 24.7409 18.9623 24.8807 18.9747C25.0205 18.9871 25.1496 19.0546 25.2397 19.1622L25.8771 19.9226C25.9417 19.9998 25.983 20.0938 25.996 20.1936C26.009 20.2934 25.9933 20.3949 25.9507 20.4861C25.9081 20.5773 25.8403 20.6544 25.7554 20.7084C25.6704 20.7625 25.5718 20.7911 25.4711 20.7911Z" fill="#0C1DA4"/>
<path d="M24.6777 22.1613C24.6466 22.1613 24.6156 22.1586 24.5851 22.1531L23.6085 21.9808C23.5393 21.9696 23.473 21.9448 23.4135 21.9077C23.354 21.8707 23.3025 21.8222 23.2619 21.7651C23.2212 21.7079 23.1924 21.6433 23.177 21.5749C23.1616 21.5065 23.1599 21.4358 23.1721 21.3667C23.1843 21.2977 23.2101 21.2318 23.2479 21.1728C23.2858 21.1138 23.3351 21.063 23.3928 21.0232C23.4505 20.9834 23.5155 20.9555 23.5841 20.941C23.6527 20.9266 23.7235 20.9259 23.7923 20.9391L24.7689 21.1113C24.8993 21.1342 25.0164 21.2051 25.097 21.31C25.1777 21.4149 25.2161 21.5463 25.2046 21.6782C25.1932 21.81 25.1327 21.9328 25.0351 22.0222C24.9376 22.1117 24.81 22.1613 24.6777 22.1613Z" fill="#0C1DA4"/>
<path d="M24.0911 24.2184C23.9747 24.2183 23.8616 24.1798 23.7693 24.1089C23.677 24.0381 23.6107 23.9387 23.5805 23.8263C23.5504 23.7139 23.5582 23.5947 23.6027 23.4872C23.6472 23.3796 23.7259 23.2898 23.8266 23.2315L24.6862 22.7356C24.8075 22.6675 24.9508 22.65 25.085 22.6868C25.2192 22.7237 25.3335 22.8119 25.4031 22.9324C25.4727 23.0529 25.492 23.196 25.4568 23.3307C25.4216 23.4653 25.3348 23.5806 25.2151 23.6517L24.3556 24.1476C24.2752 24.194 24.1839 24.2184 24.0911 24.2184Z" fill="#0C1DA4"/>
<path d="M25.8248 25.6725C25.7398 25.6724 25.6561 25.6517 25.5808 25.6124C25.5055 25.573 25.4408 25.5161 25.3922 25.4464C25.3435 25.3768 25.3124 25.2964 25.3013 25.2121C25.2903 25.1279 25.2998 25.0422 25.3289 24.9624L25.6661 24.0304C25.7151 23.9 25.8136 23.7942 25.9401 23.7359C26.0667 23.6777 26.2112 23.6717 26.3421 23.7194C26.473 23.767 26.5799 23.8644 26.6394 23.9903C26.699 24.1163 26.7065 24.2607 26.6602 24.3921L26.321 25.3244C26.2839 25.4263 26.2165 25.5143 26.1277 25.5766C26.0389 25.6389 25.9332 25.6723 25.8248 25.6725Z" fill="#0C1DA4"/>
<path d="M28.0811 25.6724C27.9728 25.6722 27.8671 25.6386 27.7784 25.5764C27.6897 25.5141 27.6223 25.4261 27.5852 25.3243L27.246 24.392C27.2023 24.2612 27.2114 24.1186 27.2713 23.9944C27.3312 23.8702 27.4373 23.7744 27.5668 23.7272C27.6964 23.6801 27.8392 23.6854 27.9649 23.742C28.0906 23.7986 28.1893 23.9021 28.2398 24.0303L28.579 24.9623C28.6028 25.0276 28.6135 25.0969 28.6105 25.1663C28.6074 25.2357 28.5908 25.3038 28.5614 25.3668C28.5321 25.4297 28.4906 25.4863 28.4394 25.5332C28.3882 25.5802 28.3282 25.6166 28.263 25.6403C28.2047 25.6615 28.1432 25.6723 28.0811 25.6724Z" fill="#0C1DA4"/>
<path d="M29.8204 24.2184C29.7275 24.2184 29.6363 24.194 29.5559 24.1476L28.6963 23.6517C28.5767 23.5806 28.4899 23.4653 28.4547 23.3307C28.4195 23.196 28.4388 23.0529 28.5084 22.9324C28.578 22.8119 28.6922 22.7237 28.8264 22.6868C28.9606 22.65 29.1039 22.6675 29.2253 22.7356L30.0849 23.2315C30.1856 23.2898 30.2643 23.3796 30.3088 23.4872C30.3533 23.5947 30.3611 23.7139 30.3309 23.8263C30.3008 23.9387 30.2345 24.0381 30.1421 24.1089C30.0498 24.1798 29.9367 24.2183 29.8204 24.2184Z" fill="#0C1DA4"/>
<path d="M29.2321 22.1616C29.0997 22.1616 28.9722 22.112 28.8746 22.0225C28.777 21.9331 28.7166 21.8103 28.7051 21.6785C28.6937 21.5466 28.732 21.4152 28.8127 21.3103C28.8934 21.2054 29.0104 21.1345 29.1408 21.1116L30.1177 20.9394C30.1867 20.926 30.2576 20.9265 30.3264 20.9408C30.3952 20.9551 30.4604 20.983 30.5183 21.0228C30.5762 21.0625 30.6256 21.1135 30.6636 21.1726C30.7016 21.2316 30.7274 21.2977 30.7396 21.3669C30.7518 21.4361 30.7501 21.507 30.7345 21.5755C30.719 21.644 30.69 21.7088 30.6492 21.7659C30.6084 21.8231 30.5566 21.8716 30.4969 21.9085C30.4371 21.9455 30.3706 21.9702 30.3012 21.9811L29.3246 22.1534C29.2941 22.1589 29.2631 22.1616 29.2321 22.1616Z" fill="#0C1DA4"/>
<path d="M28.443 20.7912C28.3422 20.7912 28.2436 20.7624 28.1587 20.7083C28.0738 20.6542 28.0061 20.5769 27.9636 20.4857C27.921 20.3944 27.9054 20.2929 27.9186 20.193C27.9318 20.0932 27.9732 19.9992 28.038 19.9221L28.6754 19.1617C28.7655 19.0542 28.8947 18.9869 29.0345 18.9747C29.1743 18.9624 29.3132 19.0062 29.4207 19.0964C29.5282 19.1866 29.5955 19.3158 29.6077 19.4555C29.62 19.5953 29.5762 19.7342 29.486 19.8417L28.8483 20.6021C28.7986 20.6613 28.7366 20.7089 28.6666 20.7416C28.5966 20.7743 28.5202 20.7912 28.443 20.7912Z" fill="#0C1DA4"/>
<path d="M26.9509 28.4174C23.4326 28.4174 20.5703 25.5551 20.5703 22.0368C20.5701 20.9191 20.8635 19.821 21.4212 18.8524C21.9788 17.8837 22.7811 17.0786 23.7477 16.5175C23.8691 16.4469 24.0135 16.4275 24.1493 16.4635C24.285 16.4994 24.4009 16.5878 24.4714 16.7092C24.5419 16.8306 24.5614 16.975 24.5254 17.1108C24.4894 17.2465 24.401 17.3624 24.2796 17.4329C23.4747 17.9026 22.8066 18.5745 22.3415 19.3821C21.8764 20.1897 21.6305 21.1049 21.6282 22.0368C21.6282 24.9719 24.0158 27.3595 26.9509 27.3595C27.65 27.3599 28.3423 27.2225 28.9882 26.9551C29.6342 26.6878 30.2211 26.2957 30.7155 25.8014C31.2098 25.3071 31.6018 24.7201 31.8692 24.0742C32.1365 23.4282 32.2739 22.7359 32.2736 22.0368C32.2736 19.1021 29.886 16.7142 26.9509 16.7142C26.8106 16.7142 26.6761 16.6584 26.5769 16.5592C26.4777 16.46 26.4219 16.3255 26.4219 16.1852C26.4219 16.0449 26.4777 15.9104 26.5769 15.8112C26.6761 15.712 26.8106 15.6562 26.9509 15.6562C30.4691 15.6562 33.3315 18.5186 33.3315 22.0368C33.3318 22.8748 33.1669 23.7047 32.8464 24.4789C32.5259 25.2532 32.0559 25.9567 31.4633 26.5493C30.8708 27.1418 30.1673 27.6118 29.393 27.9323C28.6187 28.2529 27.7889 28.4177 26.9509 28.4174Z" fill="#0C1DA4"/>
<path d="M28.6038 18.3692C28.4635 18.3692 28.329 18.3136 28.2298 18.2145L26.5768 16.5615C26.5277 16.5124 26.4887 16.4541 26.4622 16.3899C26.4356 16.3257 26.4219 16.2569 26.4219 16.1874C26.4219 16.118 26.4356 16.0492 26.4622 15.985C26.4887 15.9208 26.5277 15.8625 26.5768 15.8134L28.2298 14.1604C28.2787 14.1101 28.3371 14.07 28.4016 14.0425C28.466 14.0149 28.5354 14.0005 28.6055 14C28.6756 13.9995 28.7451 14.013 28.81 14.0396C28.8748 14.0662 28.9338 14.1054 28.9833 14.155C29.0329 14.2046 29.0721 14.2636 29.0987 14.3284C29.1253 14.3933 29.1387 14.4628 29.1382 14.5329C29.1376 14.6031 29.1232 14.6724 29.0956 14.7368C29.0681 14.8013 29.028 14.8597 28.9777 14.9085L27.6989 16.1873L28.9777 17.468C29.051 17.5421 29.1009 17.6361 29.1209 17.7384C29.141 17.8407 29.1304 17.9467 29.0904 18.043C29.0505 18.1393 28.983 18.2216 28.8964 18.2796C28.8098 18.3377 28.708 18.3688 28.6038 18.3692Z" fill="#0C1DA4"/>
</g>
<defs>
<filter id="filter0_d_3854_8068" x="0.335938" y="0.375" width="53.2422" height="53.2383" filterUnits="userSpaceOnUse" color-interpolation-filters="sRGB">
<feFlood flood-opacity="0" result="BackgroundImageFix"/>
<feColorMatrix in="SourceAlpha" type="matrix" values="0 0 0 0 0 0 0 0 0 0 0 0 0 0 0 0 0 0 127 0" result="hardAlpha"/>
<feOffset dy="1"/>
<feGaussianBlur stdDeviation="2"/>
<feComposite in2="hardAlpha" operator="out"/>
<feColorMatrix type="matrix" values="0 0 0 0 0 0 0 0 0 0 0 0 0 0 0 0 0 0 0.1 0"/>
<feBlend mode="normal" in2="BackgroundImageFix" result="effect1_dropShadow_3854_8068"/>
<feBlend mode="normal" in="SourceGraphic" in2="effect1_dropShadow_3854_8068" result="shape"/>
</filter>
</defs>
</svg>
