<svg width="54" height="54" viewBox="0 0 54 54" fill="none" xmlns="http://www.w3.org/2000/svg">
<g filter="url(#filter0_d_3854_8085)">
<rect x="4.4375" y="3.63672" width="45.24" height="45.24" rx="8" fill="white"/>
<g clip-path="url(#clip0_3854_8085)">
<path d="M20.6456 21.1625C20.8461 21.1581 21.0401 21.2385 21.18 21.3829C21.32 21.5217 21.3993 21.7091 21.4004 21.9063C21.3971 22.0364 21.3619 22.1642 21.2968 22.2777C20.6367 23.4282 21.0268 24.8961 22.1707 25.5672L23.0909 26.1182C23.4557 26.3342 23.8722 26.4477 24.2965 26.4488C25.1604 26.4466 25.9583 25.9848 26.3903 25.2366C26.5986 24.8729 27.0625 24.7462 27.4262 24.9545C27.5463 25.0228 27.6455 25.1231 27.7127 25.2443C28.3673 26.3562 29.7789 26.7606 30.9239 26.1634C30.9515 26.1512 30.9779 26.1369 31.0044 26.1226L31.9036 25.6035C33.0574 24.9324 33.4519 23.4546 32.7852 22.2975C32.5747 21.9383 32.6948 21.4754 33.0541 21.2639H33.0552C33.151 21.2055 33.2601 21.1724 33.3726 21.1669C34.706 21.2099 35.8223 20.1641 35.8653 18.8306C35.8653 18.8174 35.8664 18.8031 35.8664 18.7899V17.6967C35.8631 16.3655 34.782 15.2888 33.4508 15.291C32.9957 15.2921 32.6276 15.6613 32.6287 16.1153V16.1175C32.632 16.5749 33.0034 16.944 33.4607 16.944C33.8762 16.9451 34.2123 17.2812 34.2134 17.6967V18.7634C34.2079 18.9662 34.1208 19.1579 33.9731 19.2957C33.82 19.4456 33.6084 19.5205 33.3946 19.5007C32.9769 19.504 32.567 19.6186 32.2077 19.8313C31.0683 20.5068 30.6881 21.9758 31.357 23.1185C31.5664 23.4822 31.4429 23.9472 31.0804 24.1588L30.2418 24.6415L30.1801 24.6735C29.8186 24.8751 29.3624 24.755 29.1464 24.4013C28.4808 23.2464 27.0052 22.8496 25.8503 23.5152C25.4789 23.729 25.1715 24.0387 24.9588 24.4112C24.7516 24.7671 24.2965 24.8894 23.9383 24.6856L23.0149 24.1346C22.6534 23.9208 22.5289 23.4568 22.736 23.091C22.9421 22.7251 23.0523 22.3141 23.0578 21.8942C23.0501 20.574 21.979 19.5073 20.6588 19.504H20.6456C20.2268 19.4963 19.8907 19.1579 19.8874 18.7392V17.6978C19.8907 17.2746 20.2356 16.933 20.6588 16.933C21.0742 16.9286 21.482 16.8151 21.839 16.6024C22.9829 15.9368 23.373 14.47 22.7107 13.324C22.5079 12.9537 22.6435 12.4897 23.0137 12.287C23.0182 12.2848 23.0237 12.2815 23.0281 12.2793L23.8788 11.7845C23.8987 11.7756 23.9163 11.7657 23.935 11.7558C24.2954 11.5508 24.7538 11.6754 24.961 12.0346C25.5076 12.9834 26.6228 13.4463 27.6807 13.1631C28.2978 12.9989 28.8246 12.5944 29.1442 12.0412C29.3514 11.6842 29.8043 11.5563 30.1679 11.7514L31.0958 12.3167C31.4595 12.5272 31.584 12.9923 31.3757 13.357C31.1542 13.7559 31.2975 14.2596 31.6964 14.4811C32.0865 14.6981 32.5791 14.5659 32.8083 14.1813C33.4673 13.0319 33.0794 11.5674 31.9377 10.8951L31.0176 10.3232C29.8627 9.66311 28.3915 10.0565 27.7204 11.2048C27.511 11.5696 27.0449 11.6963 26.679 11.4858C26.5622 11.4186 26.4652 11.3216 26.398 11.2048C25.75 10.0786 24.3273 9.66862 23.1802 10.278C23.1548 10.289 23.1295 10.3023 23.1052 10.3166L22.2159 10.8334C21.0489 11.477 20.6246 12.9449 21.2682 14.1119C21.2737 14.1218 21.2781 14.1306 21.2836 14.1394C21.493 14.5009 21.3707 14.9626 21.0092 15.1731C21.0026 15.1775 20.996 15.1808 20.9894 15.1841C20.8869 15.2447 20.7712 15.2778 20.6522 15.28C19.3176 15.2844 18.2366 16.3655 18.2344 17.7V18.7381C18.2344 20.0726 19.3121 21.1559 20.6456 21.1625Z" fill="#0C1DA4"/>
<path d="M27.0541 15.2031C25.3879 15.2042 24.038 16.5564 24.0391 18.2226C24.0402 19.8888 25.3923 21.2388 27.0585 21.2377C28.7237 21.2366 30.0736 19.8855 30.0736 18.2204C30.0714 16.5542 28.7204 15.2042 27.0541 15.2031ZM27.0541 19.5847C26.3004 19.5836 25.691 18.972 25.6921 18.2182C25.6932 17.4644 26.3048 16.855 27.0585 16.8561C27.8112 16.8572 28.4206 17.4677 28.4206 18.2204C28.4195 18.9753 27.8079 19.5858 27.0541 19.5847Z" fill="#0C1DA4"/>
<path d="M40.8407 33.797C41.2903 33.0995 41.5295 32.2884 41.5317 31.4586C41.5306 31.2669 41.5151 31.074 41.4876 30.8845C41.4391 30.4304 41.0325 30.1009 40.5784 30.1494C40.1244 30.1979 39.7949 30.6045 39.8434 31.0586C39.8445 31.074 39.8467 31.0894 39.85 31.1049C40.0462 32.5948 38.9971 33.9612 37.5072 34.1574C36.0173 34.3536 34.6508 33.3044 34.4546 31.8145C34.2585 30.3246 35.3076 28.9582 36.7975 28.762C37.2416 28.7036 37.6934 28.7554 38.1133 28.9141C38.5287 29.1036 39.0191 28.9207 39.2086 28.5052C39.3982 28.0898 39.2153 27.5994 38.7998 27.4098C38.7656 27.3944 38.7315 27.3812 38.6962 27.3702C36.4437 26.5106 33.9213 27.6391 33.0617 29.8916C32.568 31.1853 32.7168 32.6366 33.4639 33.8026C32.5504 34.1905 31.812 34.9035 31.3933 35.8038C31.1839 35.6671 30.9624 35.5514 30.7321 35.4567C31.1817 34.7591 31.4208 33.948 31.423 33.1182C31.4241 30.7015 29.4659 28.7411 27.0481 28.7411C24.6303 28.7411 22.6709 30.6982 22.6709 33.116V33.1193C22.6731 33.948 22.9123 34.7602 23.3619 35.4567C23.1316 35.5514 22.9101 35.6682 22.7007 35.8038C22.2819 34.9035 21.5436 34.1916 20.63 33.8037C21.0807 33.105 21.321 32.2906 21.321 31.4586C21.321 29.0419 19.3616 27.0826 16.9449 27.0826C16.4182 27.0826 15.8958 27.1773 15.4032 27.3636C14.9669 27.4958 14.72 27.9575 14.8522 28.3939C14.9845 28.8303 15.4462 29.0783 15.8826 28.9449C15.9179 28.9339 15.9531 28.9207 15.9862 28.9053C17.3968 28.3675 18.9759 29.0761 19.5126 30.4866C20.0504 31.8972 19.3418 33.4764 17.9312 34.013C16.5207 34.5508 14.9415 33.8422 14.4048 32.4317C14.2439 32.0085 14.1899 31.5523 14.2494 31.1038C14.3101 30.6508 13.9927 30.2354 13.5398 30.1748C13.0923 30.1131 12.678 30.426 12.6163 30.8734C12.6163 30.8767 12.6152 30.88 12.6152 30.8834C12.4774 31.9016 12.7089 32.9353 13.2676 33.7981C11.7677 34.4241 10.7936 35.8919 10.7969 37.5163C10.7969 38.5621 11.4316 40.8554 13.3205 40.8554H20.5716C20.7964 40.8542 21.0201 40.8179 21.2328 40.7452C21.5138 41.7425 22.3976 42.451 23.4313 42.5084H30.6781C31.7106 42.451 32.5922 41.7447 32.8755 40.7507C33.0892 40.8201 33.3118 40.8565 33.5367 40.8554H40.7878C42.6755 40.8554 43.3103 38.5632 43.3103 37.5229C43.318 35.8964 42.3427 34.4252 40.8407 33.797ZM20.9199 39.0238C20.8372 39.134 20.7094 39.2001 20.5716 39.2035H20.5705H13.3205C12.7882 39.2035 12.4499 38.0177 12.4499 37.5119C12.4444 36.4253 13.1761 35.4721 14.2274 35.1977C14.428 35.1492 14.6396 35.1767 14.8214 35.2759C14.85 35.2869 14.8787 35.2958 14.9084 35.3024C16.1768 36.0066 17.7174 36.0066 18.9858 35.3024C19.02 35.2947 19.0542 35.2847 19.0872 35.2715C19.2613 35.1734 19.4663 35.1448 19.6603 35.1911C20.5992 35.4335 21.2967 36.2214 21.4235 37.1824C21.1094 37.7466 20.9364 38.3792 20.9199 39.0238ZM27.0514 30.3875C28.5556 30.3875 29.7744 31.6063 29.7744 33.1105C29.7744 34.6147 28.5556 35.8335 27.0514 35.8335C25.5483 35.8335 24.3294 34.6147 24.3283 33.1116C24.3305 31.6085 25.5483 30.3897 27.0514 30.3875ZM31.5442 39.2872V39.3081V39.3214C31.4847 39.879 31.164 40.8565 30.6759 40.8565H30.6748H23.4291C22.942 40.8565 22.6202 39.8823 22.5651 39.3258V39.3137V39.3026C22.5651 39.2938 22.5651 39.2861 22.5651 39.2773C22.5651 39.242 22.5574 39.2013 22.5574 39.1671C22.5475 38.0794 23.2792 37.1251 24.3316 36.8529C24.53 36.8033 24.7405 36.8297 24.9201 36.9289C24.9576 36.9444 24.9973 36.9565 25.0369 36.9653C26.2943 37.654 27.8151 37.654 29.0725 36.9653C29.1121 36.9565 29.1518 36.9444 29.1904 36.9289C29.3678 36.8308 29.575 36.8022 29.7722 36.8496C30.8279 37.1218 31.563 38.0783 31.5531 39.1693C31.5531 39.2035 31.5531 39.2475 31.5442 39.2872ZM40.7834 39.2035H33.5311C33.3978 39.199 33.2722 39.1351 33.1895 39.0304C33.1719 38.3858 33 37.7554 32.687 37.1923C32.8104 36.2347 33.5014 35.4478 34.4348 35.201C34.632 35.1525 34.8403 35.1812 35.0177 35.2792C35.0519 35.2925 35.0872 35.3035 35.1224 35.3112C36.3875 36.011 37.9248 36.011 39.1899 35.3112C39.2197 35.2991 39.2516 35.298 39.2814 35.2825C39.4588 35.1845 39.6671 35.1558 39.8643 35.2021C40.9212 35.4732 41.6584 36.4275 41.6529 37.5185C41.6529 38.0188 41.3146 39.2035 40.7834 39.2035Z" fill="#0C1DA4"/>
</g>
</g>
<defs>
<filter id="filter0_d_3854_8085" x="0.4375" y="0.636719" width="53.2422" height="53.2383" filterUnits="userSpaceOnUse" color-interpolation-filters="sRGB">
<feFlood flood-opacity="0" result="BackgroundImageFix"/>
<feColorMatrix in="SourceAlpha" type="matrix" values="0 0 0 0 0 0 0 0 0 0 0 0 0 0 0 0 0 0 127 0" result="hardAlpha"/>
<feOffset dy="1"/>
<feGaussianBlur stdDeviation="2"/>
<feComposite in2="hardAlpha" operator="out"/>
<feColorMatrix type="matrix" values="0 0 0 0 0 0 0 0 0 0 0 0 0 0 0 0 0 0 0.1 0"/>
<feBlend mode="normal" in2="BackgroundImageFix" result="effect1_dropShadow_3854_8085"/>
<feBlend mode="normal" in="SourceGraphic" in2="effect1_dropShadow_3854_8085" result="shape"/>
</filter>
<clipPath id="clip0_3854_8085">
<rect width="33.06" height="33.06" fill="white" transform="translate(10.5234 9.72656)"/>
</clipPath>
</defs>
</svg>
