<svg width="55" height="55" viewBox="0 0 55 55" fill="none" xmlns="http://www.w3.org/2000/svg">
<g filter="url(#filter0_d_3468_6348)">
<rect x="4.55469" y="3.76172" width="45.76" height="45.76" rx="8" fill="white"/>
<g clip-path="url(#clip0_3468_6348)">
<path d="M42.0677 39.1819H41.371V25.2485C41.371 23.7396 40.5601 22.427 39.3591 21.6914L32.5387 11.6858C31.9382 10.638 30.8207 9.92188 29.5277 9.92188C27.6077 9.92188 26.0444 11.4852 26.0444 13.4052C26.0444 13.5097 26.0667 13.6086 26.075 13.7117C26.0722 13.7145 26.0695 13.7145 26.0667 13.7173L21.5007 18.2819H17.5813C15.9065 18.2819 14.332 18.934 13.1477 20.1183L11.3154 21.9505C10.5199 22.7461 10.5199 24.0391 11.3154 24.8347C12.1096 25.6289 13.4054 25.6289 14.1996 24.8347L16.3691 22.6653C16.4986 22.5357 16.6784 22.4619 16.8623 22.4619L20.4724 22.3727V26.072C20.4724 26.2545 20.3986 26.4343 20.269 26.5652L18.0996 28.7347C17.304 29.5303 17.304 30.8233 18.0996 31.6189C18.4967 32.016 19.0192 32.2152 19.5417 32.2152C20.0642 32.2152 20.5867 32.016 20.9838 31.6189L22.816 29.7866C24.0004 28.6023 24.6524 27.0292 24.6524 25.353V21.4336L28.3183 17.7663L33.064 24.7302C33.0417 24.903 33.011 25.0716 33.011 25.2499V39.1833H32.3144C31.1621 39.1833 30.2244 40.121 30.2244 41.2733C30.2244 42.4256 31.1621 43.3633 32.3144 43.3633H42.0677C43.22 43.3633 44.1577 42.4256 44.1577 41.2733C44.1577 40.121 43.22 39.1819 42.0677 39.1819ZM39.9777 25.2485C39.9777 26.7854 38.7279 28.0352 37.191 28.0352C35.6542 28.0352 34.4044 26.7854 34.4044 25.2485C34.4044 23.7117 35.6542 22.4619 37.191 22.4619C38.7279 22.4619 39.9777 23.7117 39.9777 25.2485ZM39.9777 28.3417V39.1819H34.4044V28.3417C35.1456 29.0105 36.1168 29.4285 37.191 29.4285C38.2653 29.4285 39.2365 29.0092 39.9777 28.3417ZM23.2577 25.3516C23.2577 26.6544 22.7505 27.8778 21.8295 28.8001L19.9973 30.6324C19.7451 30.8832 19.3355 30.8846 19.0833 30.6324C18.9621 30.5098 18.8938 30.3481 18.8938 30.1754C18.8938 30.0026 18.9607 29.841 19.0833 29.7184L21.2527 27.5489C21.647 27.1546 21.8644 26.6293 21.8644 26.0706V22.3713C21.8644 21.6523 21.2792 21.0671 20.5602 21.0671H16.8609C16.3036 21.0671 15.7783 21.2845 15.3826 21.6788L13.2132 23.8482C12.9665 24.0907 12.543 24.0907 12.2991 23.8482C12.0469 23.596 12.0469 23.1864 12.2991 22.9342L14.1314 21.102C15.0524 20.181 16.2771 19.6738 17.5799 19.6738H21.4993L23.2563 21.4308V25.3503L23.2577 25.3516ZM23.9544 20.1573L22.7742 18.9771L26.5557 15.1956C26.6365 15.328 27.5185 16.5918 27.5185 16.5918L23.9544 20.1573ZM27.4377 13.4038C27.4377 12.2501 28.374 11.3138 29.5277 11.3138C30.6814 11.3138 31.6177 12.2501 31.6177 13.4038C31.6177 14.5575 30.6814 15.4938 29.5277 15.4938C28.374 15.4938 27.4377 14.5575 27.4377 13.4038ZM29.3967 16.8746C29.4413 16.876 29.4831 16.8871 29.5277 16.8871C31.0464 16.8871 32.3269 15.9048 32.8034 14.5463L37.2523 21.0727C37.2314 21.0727 37.2119 21.0671 37.1924 21.0671C35.6807 21.0671 34.3668 21.8809 33.6325 23.0861L29.3967 16.8746ZM42.0677 41.9672H32.3144C31.9298 41.9672 31.6177 41.655 31.6177 41.2705C31.6177 40.8859 31.9298 40.5738 32.3144 40.5738H42.0677C42.4523 40.5738 42.7644 40.8859 42.7644 41.2705C42.7644 41.655 42.4523 41.9672 42.0677 41.9672Z" fill="#0C1DA4"/>
</g>
</g>
<defs>
<filter id="filter0_d_3468_6348" x="0.554688" y="0.761719" width="53.7578" height="53.7617" filterUnits="userSpaceOnUse" color-interpolation-filters="sRGB">
<feFlood flood-opacity="0" result="BackgroundImageFix"/>
<feColorMatrix in="SourceAlpha" type="matrix" values="0 0 0 0 0 0 0 0 0 0 0 0 0 0 0 0 0 0 127 0" result="hardAlpha"/>
<feOffset dy="1"/>
<feGaussianBlur stdDeviation="2"/>
<feComposite in2="hardAlpha" operator="out"/>
<feColorMatrix type="matrix" values="0 0 0 0 0 0 0 0 0 0 0 0 0 0 0 0 0 0 0.1 0"/>
<feBlend mode="normal" in2="BackgroundImageFix" result="effect1_dropShadow_3468_6348"/>
<feBlend mode="normal" in="SourceGraphic" in2="effect1_dropShadow_3468_6348" result="shape"/>
</filter>
<clipPath id="clip0_3468_6348">
<rect width="33.44" height="33.44" fill="white" transform="translate(10.7188 9.92188)"/>
</clipPath>
</defs>
</svg>
