<svg width="55" height="55" viewBox="0 0 55 55" fill="none" xmlns="http://www.w3.org/2000/svg">
<g filter="url(#filter0_d_3447_6322)">
<rect x="4.38281" y="3.85938" width="45.76" height="45.76" rx="8" fill="white"/>
<path fill-rule="evenodd" clip-rule="evenodd" d="M27.2591 12.3526C19.3134 12.3526 12.8721 18.7938 12.8721 26.7395C12.8721 34.6852 19.3134 41.1265 27.2591 41.1265C27.7454 41.1265 28.2259 41.1024 28.6992 41.0554C29.3403 40.9918 29.9116 41.4598 29.9752 42.1009C30.0389 42.742 29.5708 43.3133 28.9297 43.3771C28.3798 43.4317 27.8226 43.4595 27.2591 43.4595C18.0249 43.4595 10.5391 35.9738 10.5391 26.7395C10.5391 17.5053 18.0249 10.0195 27.2591 10.0195C36.4933 10.0195 43.9791 17.5053 43.9791 26.7395C43.9791 27.303 43.9512 27.8603 43.8966 28.4101C43.8329 29.0512 43.2616 29.5194 42.6205 29.4556C41.9793 29.392 41.5113 28.8207 41.575 28.1796C41.6219 27.7063 41.646 27.2259 41.646 26.7395C41.646 18.7938 35.2047 12.3526 27.2591 12.3526Z" fill="#0C1DA4"/>
<path fill-rule="evenodd" clip-rule="evenodd" d="M27.2461 20.1299C25.7384 20.1299 24.5188 21.3501 24.5188 22.8518C24.5188 24.3534 25.7384 25.5736 27.2461 25.5736C28.754 25.5736 29.9736 24.3534 29.9736 22.8518C29.9736 21.3501 28.754 20.1299 27.2461 20.1299ZM22.1857 22.8518C22.1857 20.0585 24.4529 17.7969 27.2461 17.7969C30.0394 17.7969 32.3066 20.0585 32.3066 22.8518C32.3066 25.645 30.0394 27.9066 27.2461 27.9066C24.4529 27.9066 22.1857 25.645 22.1857 22.8518ZM28.6456 32.8623C25.9023 32.4602 22.9977 33.339 21.104 35.3224C20.6591 35.7884 19.9207 35.8055 19.4547 35.3607C18.9888 34.9157 18.9717 34.1773 19.4166 33.7114C21.8855 31.1254 25.5716 30.0538 28.9838 30.5538C29.6213 30.6473 30.0622 31.2398 29.9689 31.8771C29.8754 32.5147 29.283 32.9556 28.6456 32.8623Z" fill="#0C1DA4"/>
<path fill-rule="evenodd" clip-rule="evenodd" d="M37.368 32.5713C35.0058 32.5713 33.0908 34.4862 33.0908 36.8485C33.0908 39.2108 35.0058 41.1257 37.368 41.1257C39.7303 41.1257 41.6453 39.2108 41.6453 36.8485C41.6453 34.4862 39.7303 32.5713 37.368 32.5713ZM30.7578 36.8485C30.7578 33.1978 33.7173 30.2383 37.368 30.2383C41.0188 30.2383 43.9783 33.1978 43.9783 36.8485C43.9783 40.4992 41.0188 43.4587 37.368 43.4587C33.7173 43.4587 30.7578 40.4992 30.7578 36.8485Z" fill="#0C1DA4"/>
</g>
<defs>
<filter id="filter0_d_3447_6322" x="0.382812" y="0.859375" width="53.7578" height="53.7617" filterUnits="userSpaceOnUse" color-interpolation-filters="sRGB">
<feFlood flood-opacity="0" result="BackgroundImageFix"/>
<feColorMatrix in="SourceAlpha" type="matrix" values="0 0 0 0 0 0 0 0 0 0 0 0 0 0 0 0 0 0 127 0" result="hardAlpha"/>
<feOffset dy="1"/>
<feGaussianBlur stdDeviation="2"/>
<feComposite in2="hardAlpha" operator="out"/>
<feColorMatrix type="matrix" values="0 0 0 0 0 0 0 0 0 0 0 0 0 0 0 0 0 0 0.1 0"/>
<feBlend mode="normal" in2="BackgroundImageFix" result="effect1_dropShadow_3447_6322"/>
<feBlend mode="normal" in="SourceGraphic" in2="effect1_dropShadow_3447_6322" result="shape"/>
</filter>
</defs>
</svg>
