<svg width="55" height="54" viewBox="0 0 55 54" fill="none" xmlns="http://www.w3.org/2000/svg">
<g filter="url(#filter0_d_3468_6336)">
<rect x="4.35938" y="3" width="45.76" height="45.76" rx="8" fill="white"/>
<g clip-path="url(#clip0_3468_6336)">
<path d="M43.957 16.8235V30.8975C43.957 33.6884 42.8702 36.3134 40.8959 38.2864L36.7855 42.3967C36.649 42.5333 36.4706 42.6002 36.2923 42.6002C36.1139 42.6002 35.9356 42.5319 35.7991 42.3967C35.5274 42.125 35.5274 41.6833 35.7991 41.4116L39.9094 37.3013C41.6204 35.5903 42.5623 33.3164 42.5623 30.8975V16.8235C42.5623 15.6712 41.6246 14.7335 40.4723 14.7335C39.32 14.7335 38.3823 15.6712 38.3823 16.8235C38.3823 16.8235 38.3795 28.0329 38.3753 28.0635C38.3544 28.8257 38.0855 29.5836 37.5686 30.1995L33.893 34.0256C33.7564 34.1677 33.5739 34.2388 33.3914 34.2388C33.2172 34.2388 33.043 34.1747 32.9079 34.0437C32.6306 33.7776 32.6223 33.3359 32.8884 33.0586L36.5333 29.2673C36.8371 28.9051 36.9904 28.4439 36.9904 27.9799C36.9904 27.9757 36.9904 27.9729 36.9904 27.9688V27.9158C36.9764 27.4351 36.7995 26.953 36.4581 26.5712C35.6918 25.7171 34.3723 25.6433 33.514 26.4096L29.7116 29.9097C28.9926 30.5701 28.4172 31.349 27.9964 32.2268C28.4102 33.276 28.6317 34.4032 28.6317 35.5499V41.9021C28.6317 42.2867 28.3196 42.5988 27.9351 42.5988C27.5505 42.5988 27.2384 42.2867 27.2384 41.9021V35.5499C27.2384 33.4125 26.3369 31.3573 24.7639 29.9111L20.9545 26.4054C20.1059 25.6447 18.7851 25.7171 18.0173 26.5726C17.329 27.3404 17.3109 28.5149 17.9727 29.3036L21.5857 33.0586C21.8518 33.3359 21.8434 33.7776 21.5662 34.0437C21.2875 34.3098 20.8472 34.3015 20.5811 34.0242L16.9361 30.2329C16.4136 29.6115 16.1377 28.8605 16.1043 28.1067C16.0959 28.0621 16.0904 16.8207 16.0904 16.8207C16.0904 15.6684 15.1526 14.7307 14.0004 14.7307C12.8481 14.7307 11.9104 15.6684 11.9104 16.8207V30.8948C11.9104 33.3136 12.8522 35.5889 14.5633 37.2985L18.6736 41.4089C18.9453 41.6806 18.9453 42.1222 18.6736 42.3939C18.537 42.5305 18.3587 42.5974 18.1804 42.5974C18.002 42.5974 17.8237 42.5291 17.6871 42.3939L13.5768 38.2836C11.6024 36.3093 10.5156 33.6856 10.5156 30.8948V16.8235C10.5156 14.9035 12.0789 13.3402 13.999 13.3402C15.919 13.3402 17.4823 14.9035 17.4823 16.8235V25.1807C18.7823 24.2068 20.634 24.25 21.888 25.373L25.7044 28.8856C26.2979 29.4318 26.8107 30.0532 27.2342 30.7262C27.6592 30.0504 28.1719 29.4345 28.7669 28.8856L32.5763 25.3799C33.8358 24.2513 35.689 24.2068 36.989 25.1807V16.8235C36.989 14.9035 38.5523 13.3402 40.4723 13.3402C42.3923 13.3402 43.957 14.9035 43.957 16.8235ZM20.2704 13.2426C20.2704 10.991 21.9883 9.16016 24.102 9.16016C25.4424 9.16016 26.5613 9.73839 27.237 10.6789C27.9128 9.73839 29.0316 9.16016 30.372 9.16016C32.4857 9.16016 34.2037 10.991 34.2037 13.2426C34.2037 16.1895 30.6521 19.8024 28.7753 21.3003C28.3224 21.6611 27.7804 21.8409 27.237 21.8409C26.6936 21.8409 26.153 21.6611 25.7002 21.3003C23.822 19.8024 20.2704 16.1909 20.2704 13.2426ZM21.6637 13.2426C21.6637 15.3493 24.5326 18.5861 26.5696 20.2093C26.9625 20.5242 27.5129 20.5242 27.9058 20.2093C29.9415 18.5847 32.8104 15.3493 32.8104 13.2426C32.8104 11.7601 31.7166 10.5535 30.372 10.5535C28.9369 10.5535 27.9337 11.533 27.9337 12.9347C27.9337 13.3193 27.6216 13.6314 27.237 13.6314C26.8525 13.6314 26.5404 13.3193 26.5404 12.9347C26.5404 11.533 25.5372 10.5535 24.102 10.5535C22.7575 10.5535 21.6637 11.7601 21.6637 13.2426Z" fill="#0C1DA4"/>
</g>
</g>
<defs>
<filter id="filter0_d_3468_6336" x="0.359375" y="0" width="53.7578" height="53.7617" filterUnits="userSpaceOnUse" color-interpolation-filters="sRGB">
<feFlood flood-opacity="0" result="BackgroundImageFix"/>
<feColorMatrix in="SourceAlpha" type="matrix" values="0 0 0 0 0 0 0 0 0 0 0 0 0 0 0 0 0 0 127 0" result="hardAlpha"/>
<feOffset dy="1"/>
<feGaussianBlur stdDeviation="2"/>
<feComposite in2="hardAlpha" operator="out"/>
<feColorMatrix type="matrix" values="0 0 0 0 0 0 0 0 0 0 0 0 0 0 0 0 0 0 0.1 0"/>
<feBlend mode="normal" in2="BackgroundImageFix" result="effect1_dropShadow_3468_6336"/>
<feBlend mode="normal" in="SourceGraphic" in2="effect1_dropShadow_3468_6336" result="shape"/>
</filter>
<clipPath id="clip0_3468_6336">
<rect width="33.44" height="33.44" fill="white" transform="translate(10.5156 9.16016)"/>
</clipPath>
</defs>
</svg>
