<svg width="27" height="27" viewBox="0 0 27 27" fill="none" xmlns="http://www.w3.org/2000/svg">
<g clip-path="url(#clip0_4025_7925)">
<path d="M1.57812 16.0508H10.9507V25.4233H1.57812V16.0508Z" fill="#FFC107"/>
<path d="M16.0469 1.58984H25.4201V10.9624H16.0469V1.58984Z" fill="#FFC107"/>
<path fill-rule="evenodd" clip-rule="evenodd" d="M20.7304 25.3266C19.8229 25.3268 18.9358 25.0579 18.1812 24.5539C17.4266 24.0499 16.8384 23.3334 16.4911 22.4951C16.1437 21.6568 16.0527 20.7343 16.2296 19.8442C16.4065 18.9542 16.8434 18.1367 17.485 17.4949C18.1266 16.8532 18.9441 16.4162 19.8341 16.2391C20.7241 16.062 21.6466 16.1528 22.485 16.5C23.3233 16.8472 24.0399 17.4353 24.5441 18.1898C25.0482 18.9443 25.3173 19.8313 25.3173 20.7387C25.3159 21.9549 24.8323 23.1209 23.9724 23.981C23.1125 24.8411 21.9466 25.325 20.7304 25.3266ZM20.7304 14.4634C19.4892 14.4635 18.276 14.8317 17.2441 15.5213C16.2122 16.2109 15.408 17.191 14.9331 18.3377C14.4583 19.4844 14.3341 20.7462 14.5763 21.9634C14.8185 23.1807 15.4163 24.2988 16.2939 25.1764C17.1716 26.0539 18.2897 26.6515 19.507 26.8936C20.7243 27.1357 21.986 27.0114 23.1327 26.5364C24.2793 26.0614 25.2594 25.2571 25.9489 24.2251C26.6384 23.1931 27.0064 21.9799 27.0064 20.7387C27.0044 19.0749 26.3426 17.4798 25.166 16.3033C23.9894 15.1269 22.3942 14.4652 20.7304 14.4634ZM16.1501 1.69452H25.3124V10.8561H16.1501V1.69452ZM15.9919 12.5437H25.4691C25.8746 12.5432 26.2634 12.382 26.5502 12.0953C26.837 11.8086 26.9984 11.4199 26.9989 11.0144V1.53631C26.9984 1.13081 26.837 0.742085 26.5502 0.455398C26.2634 0.168711 25.8746 0.00746288 25.4691 0.0070165H15.9919C15.5864 0.00749102 15.1977 0.168765 14.911 0.455461C14.6243 0.742157 14.463 1.13086 14.4626 1.53631V11.0143C14.463 11.4198 14.6243 11.8085 14.911 12.0952C15.1977 12.3819 15.5864 12.5431 15.9919 12.5436V12.5437ZM10.8481 25.3194H1.68654V16.1578H10.8481V25.3194ZM12.5356 15.9996C12.5351 15.5942 12.3739 15.2054 12.0872 14.9187C11.8005 14.632 11.4117 14.4708 11.0063 14.4703H1.52834C1.12289 14.4708 0.734184 14.6321 0.447488 14.9188C0.160792 15.2055 -0.000482511 15.5942 -0.000957031 15.9996V25.4776C-0.0005243 25.8831 0.160737 26.2718 0.447442 26.5585C0.734147 26.8452 1.12288 27.0065 1.52834 27.0069H11.0063C11.4118 27.0065 11.8005 26.8452 12.0873 26.5585C12.374 26.2718 12.5352 25.8831 12.5356 25.4776V15.9996H12.5356ZM6.26758 1.6875C7.17498 1.6875 8.062 1.95658 8.81647 2.4607C9.57095 2.96483 10.159 3.68136 10.5062 4.51968C10.8535 5.35801 10.9443 6.28048 10.7673 7.17045C10.5903 8.06041 10.1533 8.87789 9.51171 9.51952C8.87008 10.1612 8.0526 10.5981 7.16263 10.7751C6.27267 10.9522 5.3502 10.8613 4.51187 10.5141C3.67354 10.1668 2.95701 9.57876 2.45289 8.82429C1.94876 8.06981 1.67969 7.18279 1.67969 6.27539C1.68108 5.05904 2.1649 3.8929 3.02499 3.03281C3.88509 2.17271 5.05122 1.6889 6.26758 1.6875ZM6.26758 12.5508C7.50873 12.5508 8.72202 12.1827 9.754 11.4932C10.786 10.8036 11.5903 9.82356 12.0653 8.67688C12.5403 7.5302 12.6645 6.26843 12.4224 5.05113C12.1803 3.83382 11.5826 2.71565 10.705 1.83802C9.82732 0.960393 8.70915 0.36272 7.49185 0.120583C6.27454 -0.121555 5.01277 0.00271901 3.86609 0.477688C2.71941 0.952658 1.73933 1.75699 1.04978 2.78897C0.360233 3.82096 -0.0078125 5.03424 -0.0078125 6.27539C-0.00587253 7.93914 0.655906 9.53418 1.83235 10.7106C3.00879 11.8871 4.60384 12.5488 6.26758 12.5508Z" fill="black"/>
</g>
<defs>
<clipPath id="clip0_4025_7925">
<rect width="27" height="27" fill="white"/>
</clipPath>
</defs>
</svg>
