<svg width="54" height="54" viewBox="0 0 54 54" fill="none" xmlns="http://www.w3.org/2000/svg">
<g filter="url(#filter0_d_3854_8045)">
<rect x="4.23438" y="3.125" width="45.24" height="45.24" rx="8" fill="white"/>
<g clip-path="url(#clip0_3854_8045)">
<path d="M29.7049 12.7467C30.6566 12.7467 31.4331 13.5231 31.4331 14.4848C31.4331 14.7152 31.6184 14.9056 31.8538 14.9056C32.0892 14.9056 32.2746 14.7203 32.2746 14.4848C32.2746 13.0673 31.1225 11.9102 29.7099 11.9102C29.4795 11.9102 29.2892 12.0955 29.2892 12.3309C29.2842 12.5613 29.4745 12.7467 29.7049 12.7467Z" fill="#0C1DA4"/>
<path d="M40.5851 29.3462H37.2841V27.7734C37.9403 27.588 38.4262 26.9919 38.4262 26.2806C38.4262 25.4191 37.7249 24.7228 36.8683 24.7228C36.157 24.7228 35.5559 25.2087 35.3756 25.8649H28.1675C28.0223 25.3439 27.6115 24.9382 27.0906 24.7879V23.3603H33.4221C35.7263 23.3603 37.6047 21.4769 37.6047 19.1677C37.6047 17.114 36.122 15.3809 34.1534 15.0352C34.1734 14.8549 34.1885 14.6746 34.1885 14.4892C34.1885 12.0148 32.1798 9.99609 29.7053 9.99609C28.2276 9.99609 26.8401 10.7374 26.0136 11.9496C25.6179 11.8394 25.2222 11.7843 24.8215 11.7843C22.7928 11.7843 21.0546 13.1318 20.5187 15.0453C20.2632 14.9952 19.9977 14.9701 19.7172 14.9701C17.403 14.9701 15.5246 16.8535 15.5246 19.1677C15.5246 21.4819 17.408 23.3603 19.7172 23.3603H26.2541V24.7879C25.7331 24.9332 25.3274 25.3439 25.1771 25.8649H17.974C17.7887 25.2087 17.1926 24.7228 16.4813 24.7228C15.6198 24.7228 14.9235 25.4241 14.9235 26.2806C14.9235 26.9919 15.4094 27.593 16.0656 27.7734V29.3462H13.1152C12.0032 29.3462 11.1016 30.2478 11.1016 31.3599V37.1454C11.1016 38.2574 12.0032 39.159 13.1152 39.159H16.0105L15.5346 40.6517H14.8934C14.663 40.6517 14.4727 40.8371 14.4727 41.0725C14.4727 41.3029 14.658 41.4933 14.8934 41.4933H20.4335C20.6639 41.4933 20.8543 41.3079 20.8543 41.0725C20.8543 40.8421 20.6689 40.6517 20.4335 40.6517H19.7923L19.3165 39.159H22.2117C23.3237 39.159 24.2254 38.2574 24.2254 37.1454V31.3599C24.2254 30.2478 23.3237 29.3462 22.2117 29.3462H16.9021V27.7734C17.423 27.6281 17.8288 27.2173 17.979 26.6964H25.1821C25.3675 27.3526 25.9635 27.8385 26.6748 27.8385C27.3861 27.8385 27.9872 27.3526 28.1675 26.6964H35.3706C35.5159 27.2173 35.9266 27.6231 36.4476 27.7734V29.3462H31.4886C30.3765 29.3462 29.4749 30.2478 29.4749 31.3599V37.1454C29.4749 38.2574 30.3765 39.159 31.4886 39.159H34.3838L33.908 40.6517H33.2668C33.0364 40.6517 32.846 40.8371 32.846 41.0725C32.846 41.3029 33.0314 41.4933 33.2668 41.4933H38.8068C39.0373 41.4933 39.2276 41.3079 39.2276 41.0725C39.2276 40.8421 39.0423 40.6517 38.8068 40.6517H38.1657L37.6898 39.159H40.5851C41.6971 39.159 42.5987 38.2574 42.5987 37.1454V31.3599C42.6037 30.2478 41.6971 29.3462 40.5851 29.3462ZM16.3611 19.1627C16.3611 17.3094 17.8638 15.8066 19.7172 15.8066C20.0678 15.8066 20.3984 15.8567 20.694 15.9569C20.8092 15.997 20.9394 15.982 21.0446 15.9218C21.1498 15.8567 21.2249 15.7515 21.245 15.6313C21.5455 13.8882 23.0533 12.6209 24.8215 12.6209C25.2322 12.6209 25.648 12.696 26.0587 12.8413C26.2491 12.9114 26.4644 12.8312 26.5646 12.6559C27.2108 11.5339 28.418 10.8326 29.7103 10.8326C31.719 10.8326 33.3519 12.4706 33.3519 14.4842C33.3519 14.7597 33.3219 15.0352 33.2618 15.2957C33.2317 15.4159 33.2618 15.5412 33.3319 15.6413C33.407 15.7415 33.5172 15.8016 33.6425 15.8066C35.3957 15.9168 36.7732 17.3895 36.7732 19.1577C36.7732 21.0061 35.2754 22.5138 33.4321 22.5138H19.7172C17.8688 22.5138 16.3611 21.0111 16.3611 19.1627ZM18.9107 40.6567H16.4112L16.8871 39.164H18.4349L18.9107 40.6567ZM22.2117 38.3225H13.1152C12.464 38.3225 11.9381 37.7965 11.9381 37.1454V36.94H23.3889V37.1454C23.3839 37.7965 22.8579 38.3225 22.2117 38.3225ZM23.3839 31.3599V36.1035H11.9381V31.3599C11.9381 30.7137 12.464 30.1827 13.1152 30.1827H22.2117C22.8579 30.1827 23.3839 30.7137 23.3839 31.3599ZM16.4964 26.9969C16.4913 26.9969 16.4863 26.9919 16.4813 26.9919C16.4763 26.9919 16.4713 26.9969 16.4663 26.9969C16.0756 26.9869 15.765 26.6714 15.765 26.2756C15.765 25.8799 16.0906 25.5543 16.4863 25.5543C16.8821 25.5543 17.2076 25.8799 17.2076 26.2756C17.2026 26.6714 16.8871 26.9869 16.4964 26.9969ZM26.6748 26.9969C26.2791 26.9969 25.9535 26.6714 25.9535 26.2756C25.9535 25.8799 26.2791 25.5543 26.6748 25.5543C27.0705 25.5543 27.3961 25.8799 27.3961 26.2756C27.3961 26.6764 27.0705 26.9969 26.6748 26.9969ZM36.147 26.2756C36.147 25.8799 36.4726 25.5543 36.8683 25.5543C37.264 25.5543 37.5896 25.8799 37.5896 26.2756C37.5896 26.6714 37.264 26.9969 36.8683 26.9969C36.4726 26.9969 36.147 26.6764 36.147 26.2756ZM31.4886 30.1827H40.5851C41.2363 30.1827 41.7622 30.7087 41.7622 31.3599V36.1035H30.3164V31.3599C30.3164 30.7137 30.8424 30.1827 31.4886 30.1827ZM37.2891 40.6567H34.7896L35.2654 39.164H36.8132L37.2891 40.6567ZM40.5851 38.3225H31.4886C30.8374 38.3225 30.3114 37.7965 30.3114 37.1454V36.94H41.7622V37.1454C41.7622 37.7965 41.2363 38.3225 40.5851 38.3225Z" fill="#0C1DA4"/>
</g>
</g>
<defs>
<filter id="filter0_d_3854_8045" x="0.234375" y="0.125" width="53.2422" height="53.2383" filterUnits="userSpaceOnUse" color-interpolation-filters="sRGB">
<feFlood flood-opacity="0" result="BackgroundImageFix"/>
<feColorMatrix in="SourceAlpha" type="matrix" values="0 0 0 0 0 0 0 0 0 0 0 0 0 0 0 0 0 0 127 0" result="hardAlpha"/>
<feOffset dy="1"/>
<feGaussianBlur stdDeviation="2"/>
<feComposite in2="hardAlpha" operator="out"/>
<feColorMatrix type="matrix" values="0 0 0 0 0 0 0 0 0 0 0 0 0 0 0 0 0 0 0.1 0"/>
<feBlend mode="normal" in2="BackgroundImageFix" result="effect1_dropShadow_3854_8045"/>
<feBlend mode="normal" in="SourceGraphic" in2="effect1_dropShadow_3854_8045" result="shape"/>
</filter>
<clipPath id="clip0_3854_8045">
<rect width="33.06" height="33.06" fill="white" transform="translate(10.3281 9.21484)"/>
</clipPath>
</defs>
</svg>
