<svg width="55" height="54" viewBox="0 0 55 54" fill="none" xmlns="http://www.w3.org/2000/svg">
<g filter="url(#filter0_d_3468_6330)">
<rect x="4.59375" y="3" width="45.76" height="45.76" rx="8" fill="white"/>
<g clip-path="url(#clip0_3468_6330)">
<path d="M43.4036 16.0154C42.7348 15.2072 41.7595 14.7335 40.7145 14.7335H19.8005L19.4383 12.1698C19.2014 10.456 17.7245 9.16016 15.9828 9.16016H14.2272C13.8371 9.16016 13.5305 9.46669 13.5305 9.85682C13.5305 10.247 13.8371 10.5535 14.2272 10.5535H15.9828C17.0278 10.5535 17.9056 11.3338 18.0589 12.3509L20.539 30.2274C20.9709 33.3066 23.6322 35.6335 26.7533 35.6335H37.9278C38.3179 35.6335 38.6245 35.327 38.6245 34.9368C38.6245 34.5467 38.3179 34.2402 37.9278 34.2402H26.7533C24.3428 34.2402 22.2667 32.4428 21.9323 30.0602H36.7574C39.7391 30.0602 42.3168 27.9423 42.902 25.0163L44.1281 18.8996C44.3371 17.8685 44.0724 16.8235 43.4036 16.0014V16.0154ZM42.7627 18.6348L41.5365 24.7516C41.0767 27.0227 39.0703 28.6668 36.7574 28.6668H21.7373L19.9956 16.1268H40.7145C41.3415 16.1268 41.9267 16.4055 42.3307 16.8932C42.7348 17.3808 42.8881 18.0078 42.7627 18.6348ZM23.2978 37.0408C21.7651 37.0408 20.5111 38.2948 20.5111 39.8274C20.5111 41.3601 21.7651 42.6141 23.2978 42.6141C24.8305 42.6141 26.0845 41.3601 26.0845 39.8274C26.0845 38.2948 24.8305 37.0408 23.2978 37.0408ZM23.2978 41.2208C22.5315 41.2208 21.9045 40.5938 21.9045 39.8274C21.9045 39.0611 22.5315 38.4341 23.2978 38.4341C24.0641 38.4341 24.6911 39.0611 24.6911 39.8274C24.6911 40.5938 24.0641 41.2208 23.2978 41.2208ZM35.8378 37.0408C34.3051 37.0408 33.0511 38.2948 33.0511 39.8274C33.0511 41.3601 34.3051 42.6141 35.8378 42.6141C37.3705 42.6141 38.6245 41.3601 38.6245 39.8274C38.6245 38.2948 37.3705 37.0408 35.8378 37.0408ZM35.8378 41.2208C35.0715 41.2208 34.4445 40.5938 34.4445 39.8274C34.4445 39.0611 35.0715 38.4341 35.8378 38.4341C36.6041 38.4341 37.2311 39.0611 37.2311 39.8274C37.2311 40.5938 36.6041 41.2208 35.8378 41.2208ZM10.7578 16.8235C10.7578 16.4334 11.0643 16.1268 11.4545 16.1268H14.9935C15.3837 16.1268 15.6902 16.4334 15.6902 16.8235C15.6902 17.2136 15.3837 17.5202 14.9935 17.5202H11.4545C11.0643 17.5202 10.7578 17.2136 10.7578 16.8235ZM10.7578 22.3968C10.7578 22.0067 11.0643 21.7002 11.4545 21.7002H15.6345C16.0246 21.7002 16.3311 22.0067 16.3311 22.3968C16.3311 22.787 16.0246 23.0935 15.6345 23.0935H11.4545C11.0643 23.0935 10.7578 22.787 10.7578 22.3968ZM17.7245 27.9702C17.7245 28.3603 17.4179 28.6668 17.0278 28.6668H11.4545C11.0643 28.6668 10.7578 28.3603 10.7578 27.9702C10.7578 27.58 11.0643 27.2735 11.4545 27.2735H17.0278C17.4179 27.2735 17.7245 27.58 17.7245 27.9702Z" fill="#0C1DA4"/>
</g>
</g>
<defs>
<filter id="filter0_d_3468_6330" x="0.59375" y="0" width="53.7578" height="53.7617" filterUnits="userSpaceOnUse" color-interpolation-filters="sRGB">
<feFlood flood-opacity="0" result="BackgroundImageFix"/>
<feColorMatrix in="SourceAlpha" type="matrix" values="0 0 0 0 0 0 0 0 0 0 0 0 0 0 0 0 0 0 127 0" result="hardAlpha"/>
<feOffset dy="1"/>
<feGaussianBlur stdDeviation="2"/>
<feComposite in2="hardAlpha" operator="out"/>
<feColorMatrix type="matrix" values="0 0 0 0 0 0 0 0 0 0 0 0 0 0 0 0 0 0 0.1 0"/>
<feBlend mode="normal" in2="BackgroundImageFix" result="effect1_dropShadow_3468_6330"/>
<feBlend mode="normal" in="SourceGraphic" in2="effect1_dropShadow_3468_6330" result="shape"/>
</filter>
<clipPath id="clip0_3468_6330">
<rect width="33.44" height="33.44" fill="white" transform="translate(10.7578 9.16016)"/>
</clipPath>
</defs>
</svg>
