<svg width="55" height="54" viewBox="0 0 55 54" fill="none" xmlns="http://www.w3.org/2000/svg">
<g filter="url(#filter0_d_3468_6312)">
<rect x="4.35938" y="3" width="45.76" height="45.76" rx="8" fill="white"/>
<g clip-path="url(#clip0_3468_6312)">
<path d="M20.2741 37.7235V28.6668H17.4874C17.1028 28.6668 16.7907 28.3547 16.7907 27.9702C16.7907 27.5856 17.1028 27.2735 17.4874 27.2735H24.4541C24.8386 27.2735 25.1507 27.5856 25.1507 27.9702C25.1507 28.3547 24.8386 28.6668 24.4541 28.6668H21.6674V37.7235C21.6674 38.108 21.3553 38.4202 20.9707 38.4202C20.5862 38.4202 20.2741 38.108 20.2741 37.7235ZM37.6392 41.2361C37.7841 41.5928 37.6127 41.9982 37.2574 42.1431C36.5106 42.4455 35.7192 42.6002 34.9055 42.6002H18.1841C14.7272 42.6002 11.9141 39.787 11.9141 36.3302V15.4302C11.9141 11.9733 14.7272 9.16016 18.1841 9.16016H25.8683C28.2857 9.16016 30.561 10.102 32.2734 11.8131L37.1278 16.6688C38.8388 18.3784 39.7807 20.6524 39.7807 23.0726V23.7902C39.7807 24.1747 39.4686 24.4868 39.0841 24.4868C38.6995 24.4868 38.3874 24.1747 38.3874 23.7902V23.0726C38.3874 22.6072 38.3456 22.1488 38.2648 21.7002H30.7241C28.8027 21.7002 27.2407 20.1368 27.2407 18.2168V10.6761C26.7921 10.5953 26.3337 10.5535 25.8683 10.5535H18.1841C15.4949 10.5535 13.3074 12.741 13.3074 15.4302V36.3302C13.3074 39.0193 15.4949 41.2068 18.1841 41.2068H34.9041C35.538 41.2068 36.1525 41.0884 36.7321 40.8529C37.0874 40.708 37.4957 40.8794 37.6392 41.2361ZM31.287 12.7981C30.5178 12.0304 29.6164 11.4466 28.6341 11.0662V18.2168C28.6341 19.3691 29.5718 20.3068 30.7241 20.3068H37.8746C37.4943 19.3231 36.9091 18.4216 36.1413 17.6539L31.287 12.7981ZM24.4764 37.5465L26.799 28.7212C27.022 27.8754 27.7577 27.3069 28.6327 27.3069C29.5077 27.3069 30.2434 27.8754 30.4663 28.7212L32.789 37.5465C32.8865 37.9186 32.665 38.3003 32.293 38.3979C32.2344 38.4132 32.1745 38.4215 32.116 38.4215C31.8067 38.4215 31.5238 38.2153 31.443 37.9018L30.8439 35.6237C30.8049 35.6307 30.7645 35.6349 30.7241 35.6349H26.4214L25.8251 37.9018C25.729 38.2739 25.3402 38.4982 24.9752 38.3979C24.6018 38.3003 24.3802 37.9186 24.4791 37.5465H24.4764ZM26.7865 34.2402H30.4788L29.1189 29.0751C29.027 28.7267 28.7232 28.6989 28.6313 28.6989C28.5393 28.6989 28.237 28.7253 28.1436 29.0751L26.7837 34.2402H26.7865ZM38.4919 32.8468L41.0807 28.3157C41.2716 27.9813 41.1559 27.5563 40.8202 27.3654C40.4899 27.1746 40.0608 27.2888 39.8685 27.6246L37.6879 31.4423L35.5074 27.6246C35.3137 27.2888 34.8846 27.1746 34.5557 27.3654C34.2213 27.5563 34.1057 27.9813 34.2952 28.3157L36.884 32.8468L34.2952 37.3779C34.1043 37.7123 34.2199 38.1373 34.5557 38.3282C34.6644 38.3909 34.7828 38.4202 34.9013 38.4202C35.1423 38.4202 35.3778 38.2948 35.5074 38.069L37.6879 34.2513L39.8685 38.069C39.9981 38.2948 40.2336 38.4202 40.4746 38.4202C40.593 38.4202 40.7115 38.3909 40.8202 38.3282C41.1546 38.1373 41.2702 37.7123 41.0807 37.3779L38.4919 32.8468Z" fill="#0C1DA4"/>
</g>
</g>
<defs>
<filter id="filter0_d_3468_6312" x="0.359375" y="0" width="53.7578" height="53.7617" filterUnits="userSpaceOnUse" color-interpolation-filters="sRGB">
<feFlood flood-opacity="0" result="BackgroundImageFix"/>
<feColorMatrix in="SourceAlpha" type="matrix" values="0 0 0 0 0 0 0 0 0 0 0 0 0 0 0 0 0 0 127 0" result="hardAlpha"/>
<feOffset dy="1"/>
<feGaussianBlur stdDeviation="2"/>
<feComposite in2="hardAlpha" operator="out"/>
<feColorMatrix type="matrix" values="0 0 0 0 0 0 0 0 0 0 0 0 0 0 0 0 0 0 0.1 0"/>
<feBlend mode="normal" in2="BackgroundImageFix" result="effect1_dropShadow_3468_6312"/>
<feBlend mode="normal" in="SourceGraphic" in2="effect1_dropShadow_3468_6312" result="shape"/>
</filter>
<clipPath id="clip0_3468_6312">
<rect width="33.44" height="33.44" fill="white" transform="translate(10.5156 9.16016)"/>
</clipPath>
</defs>
</svg>
