<svg width="54" height="54" viewBox="0 0 54 54" fill="none" xmlns="http://www.w3.org/2000/svg">
<g filter="url(#filter0_d_3854_8029)">
<rect x="4.53125" y="3.38672" width="45.24" height="45.24" rx="8" fill="white"/>
<g clip-path="url(#clip0_3854_8029)">
<path fill-rule="evenodd" clip-rule="evenodd" d="M12.8475 20.2262C11.8725 20.0176 11.1406 19.1503 11.1406 18.1134C11.1406 16.9209 12.1088 15.9528 13.3013 15.9528C14.4938 15.9528 15.4619 16.9209 15.4619 18.1134C15.4619 19.1503 14.73 20.0176 13.755 20.2262V22.1499H18.8767C18.9944 21.5537 18.8429 20.8992 18.3364 20.3928C17.8794 19.9357 17.8794 19.1943 18.3364 18.7372L19.8818 17.1919C20.3388 16.7348 21.0803 16.7348 21.5373 17.1919C21.8991 17.5536 22.3362 17.7343 22.7738 17.7651V12.6105H20.1636C19.9549 13.5854 19.0877 14.3174 18.0508 14.3174C16.8583 14.3174 15.8901 13.3492 15.8901 12.1567C15.8901 10.9642 16.8583 9.99609 18.0508 9.99609C19.0877 9.99609 19.9549 10.728 20.1636 11.703H23.2276C23.4782 11.703 23.6813 11.9061 23.6813 12.1567V17.6144C24.3625 17.3303 24.8892 16.6754 24.8892 15.8036C24.8892 15.1571 25.4136 14.6327 26.0601 14.6327H28.2439C28.8905 14.6327 29.4149 15.1571 29.4149 15.8036C29.4149 16.6754 29.9416 17.3303 30.6228 17.6144V12.1567C30.6228 11.9061 30.8259 11.703 31.0765 11.703H34.1405C34.3491 10.728 35.2164 9.99609 36.2533 9.99609C37.4458 9.99609 38.414 10.9642 38.414 12.1567C38.414 13.3492 37.4458 14.3174 36.2533 14.3174C35.2164 14.3174 34.3491 13.5854 34.1405 12.6105H31.5303V17.7651C31.9678 17.7343 32.405 17.5536 32.7667 17.1919C33.2236 16.7351 33.9667 16.7351 34.4236 17.1919L35.9676 18.7372C36.4247 19.1943 36.4247 19.9357 35.9676 20.3928C35.4612 20.8992 35.3098 21.5537 35.4277 22.1498H40.5491V20.2262C39.5741 20.0176 38.8422 19.1503 38.8422 18.1134C38.8422 16.9209 39.8103 15.9528 41.0028 15.9528C42.1953 15.9528 43.1634 16.9209 43.1634 18.1134C43.1634 19.1503 42.4315 20.0176 41.4566 20.2262V22.6036C41.4566 22.8542 41.2534 23.0573 41.0028 23.0573H35.8621C36.2074 23.4684 36.7249 23.7446 37.3559 23.7446C38.0046 23.7446 38.5269 24.2691 38.5269 24.9156V27.0994C38.5269 27.7459 38.0046 28.2704 37.3559 28.2704C36.7249 28.2704 36.2074 28.5466 35.8621 28.9577H41.0028C41.2534 28.9577 41.4566 29.1608 41.4566 29.4115V31.7888C42.4315 31.9975 43.1634 32.8647 43.1634 33.9016C43.1634 35.0941 42.1953 36.0622 41.0028 36.0622C39.8103 36.0622 38.8422 35.0941 38.8422 33.9016C38.8422 32.8647 39.5741 31.9975 40.5491 31.7888C40.5491 31.1213 40.5491 29.8652 40.5491 29.8652H35.4277C35.3098 30.4613 35.4612 31.1158 35.9676 31.6222C36.4245 32.0791 36.4245 32.8222 35.9676 33.2791L34.4236 34.8231C33.9667 35.2799 33.2236 35.2799 32.7667 34.8231C32.405 34.4614 31.9678 34.2808 31.5303 34.2501V39.4045H34.1405C34.3491 38.4296 35.2164 37.6977 36.2533 37.6977C37.4458 37.6977 38.414 38.6658 38.414 39.8583C38.414 41.0508 37.4458 42.0189 36.2533 42.0189C35.2164 42.0189 34.3491 41.287 34.1405 40.312H31.0765C30.8259 40.312 30.6228 40.1089 30.6228 39.8583V34.401C29.9416 34.6852 29.4149 35.3401 29.4149 36.2114C29.4149 36.8601 28.8905 37.3823 28.2439 37.3823H26.0601C25.4136 37.3823 24.8892 36.8601 24.8892 36.2114C24.8892 35.3389 24.3626 34.6837 23.6813 34.3997V39.8583C23.6813 40.1089 23.4782 40.312 23.2276 40.312H20.1636C19.9549 41.287 19.0877 42.0189 18.0508 42.0189C16.8583 42.0189 15.8901 41.0508 15.8901 39.8583C15.8901 38.6658 16.8583 37.6977 18.0508 37.6977C19.0877 37.6977 19.9549 38.4296 20.1636 39.4045H22.7738V34.2493C22.3364 34.2803 21.8992 34.4613 21.5373 34.8231C21.0803 35.2802 20.3388 35.2802 19.8819 34.8232L18.3364 33.2791C17.8796 32.8222 17.8796 32.0791 18.3364 31.6222C18.8429 31.1158 18.9944 30.4613 18.8767 29.8652H13.755V31.7888C14.73 31.9975 15.4619 32.8647 15.4619 33.9016C15.4619 35.0941 14.4938 36.0622 13.3013 36.0622C12.1088 36.0622 11.1406 35.0941 11.1406 33.9016C11.1406 32.8647 11.8725 31.9975 12.8475 31.7888V29.4114C12.8475 29.1608 13.0507 28.9576 13.3013 28.9576H18.4424C18.097 28.5466 17.5795 28.2704 16.9482 28.2704C16.3016 28.2704 15.7772 27.7459 15.7772 27.0994V24.9156C15.7772 24.2691 16.3016 23.7446 16.9482 23.7446C17.5795 23.7446 18.097 23.4684 18.4424 23.0574H13.3013C13.0507 23.0574 12.8475 22.8542 12.8475 22.6036V20.2262ZM35.0002 39.8583C35.0002 40.5499 35.5617 41.1114 36.2533 41.1114C36.9449 41.1114 37.5064 40.5499 37.5064 39.8583C37.5064 39.1667 36.9449 38.6052 36.2533 38.6052C35.5617 38.6052 35.0002 39.1667 35.0002 39.8583ZM19.3039 39.8583C19.3039 39.1667 18.7424 38.6052 18.0508 38.6052C17.3591 38.6052 16.7976 39.1667 16.7976 39.8583C16.7976 40.5499 17.3591 41.1114 18.0508 41.1114C18.7424 41.1114 19.3039 40.5499 19.3039 39.8583ZM13.3013 32.6485C12.6097 32.6485 12.0482 33.21 12.0482 33.9016C12.0482 34.5932 12.6097 35.1547 13.3013 35.1547C13.9929 35.1547 14.5544 34.5932 14.5544 33.9016C14.5544 33.21 13.9929 32.6485 13.3013 32.6485ZM39.7497 18.1134C39.7497 18.805 40.3112 19.3665 41.0028 19.3665C41.6944 19.3665 42.2559 18.805 42.2559 18.1134C42.2559 17.4218 41.6944 16.8603 41.0028 16.8603C40.3112 16.8603 39.7497 17.4218 39.7497 18.1134ZM12.0482 18.1134C12.0482 18.805 12.6097 19.3665 13.3013 19.3665C13.9929 19.3665 14.5544 18.805 14.5544 18.1134C14.5544 17.4218 13.9929 16.8603 13.3013 16.8603C12.6097 16.8603 12.0482 17.4218 12.0482 18.1134ZM39.7497 33.9016C39.7497 34.5932 40.3112 35.1547 41.0028 35.1547C41.6944 35.1547 42.2559 34.5932 42.2559 33.9016C42.2559 33.21 41.6944 32.6485 41.0028 32.6485C40.3112 32.6485 39.7497 33.21 39.7497 33.9016ZM37.3559 27.3628C37.5018 27.3628 37.6194 27.2449 37.6194 27.0994V24.9156C37.6194 24.7702 37.5018 24.6522 37.3559 24.6522C34.802 24.6522 33.5196 21.5574 35.3259 19.7511C35.4286 19.6484 35.4286 19.4817 35.3259 19.379L33.7819 17.8336C33.6789 17.7306 33.5114 17.7306 33.4084 17.8336C31.6022 19.64 28.5074 18.3591 28.5074 15.8036C28.5074 15.6582 28.3894 15.5402 28.2439 15.5402H26.0601C25.9147 15.5402 25.7967 15.6582 25.7967 15.8036C25.7967 18.3591 22.7019 19.64 20.8957 17.8336C20.7929 17.7309 20.6263 17.7309 20.5235 17.8336L18.9782 19.379C18.8754 19.4817 18.8754 19.6484 18.9782 19.7511C20.7845 21.5574 19.5036 24.6522 16.9482 24.6522C16.8027 24.6522 16.6847 24.7702 16.6847 24.9156V27.0994C16.6847 27.2449 16.8027 27.3628 16.9482 27.3628C19.5036 27.3628 20.7845 30.4576 18.9782 32.2639C18.8752 32.3669 18.8752 32.5344 18.9782 32.6373L20.5235 34.1814C20.6263 34.2841 20.7929 34.2841 20.8957 34.1814C22.7035 32.3736 25.7967 33.6543 25.7967 36.2114C25.7967 36.3573 25.9147 36.4748 26.0601 36.4748H28.2439C28.3894 36.4748 28.5074 36.3573 28.5074 36.2114C28.5074 33.6575 31.6022 32.3751 33.4084 34.1814C33.5114 34.2844 33.6789 34.2844 33.7819 34.1814L35.3259 32.6373C35.4289 32.5344 35.4289 32.3669 35.3259 32.2639C33.5196 30.4576 34.802 27.3628 37.3559 27.3628ZM27.1527 31.7093C24.012 31.7093 21.4515 29.1474 21.4515 26.0082C21.4515 22.8675 24.012 20.307 27.1527 20.307C30.292 20.307 32.8539 22.8675 32.8539 26.0082C32.8539 29.1474 30.292 31.7093 27.1527 31.7093ZM27.1527 30.8018C29.7922 30.8018 31.9463 28.6477 31.9463 26.0082C31.9463 23.3674 29.7922 21.2145 27.1527 21.2145C24.512 21.2145 22.3591 23.3674 22.3591 26.0082C22.3591 28.6477 24.512 30.8018 27.1527 30.8018ZM29.0912 24.3403C29.2718 24.1669 29.5593 24.1727 29.7327 24.3533C29.9062 24.534 29.9004 24.8215 29.7197 24.995L26.9289 27.6747C26.7545 27.8422 26.4793 27.8434 26.3034 27.6776L24.5874 26.0598C24.4051 25.888 24.3966 25.6005 24.5685 25.4183C24.7403 25.2361 25.0277 25.2276 25.2099 25.3994L26.6117 26.721L29.0912 24.3403ZM18.0508 10.9036C17.3591 10.9036 16.7976 11.4651 16.7976 12.1567C16.7976 12.8483 17.3591 13.4098 18.0508 13.4098C18.7424 13.4098 19.3039 12.8483 19.3039 12.1567C19.3039 11.4651 18.7424 10.9036 18.0508 10.9036ZM36.2533 10.9036C35.5617 10.9036 35.0002 11.4651 35.0002 12.1567C35.0002 12.8483 35.5617 13.4098 36.2533 13.4098C36.9449 13.4098 37.5064 12.8483 37.5064 12.1567C37.5064 11.4651 36.9449 10.9036 36.2533 10.9036Z" fill="#0C1DA4"/>
</g>
</g>
<defs>
<filter id="filter0_d_3854_8029" x="0.53125" y="0.386719" width="53.2422" height="53.2383" filterUnits="userSpaceOnUse" color-interpolation-filters="sRGB">
<feFlood flood-opacity="0" result="BackgroundImageFix"/>
<feColorMatrix in="SourceAlpha" type="matrix" values="0 0 0 0 0 0 0 0 0 0 0 0 0 0 0 0 0 0 127 0" result="hardAlpha"/>
<feOffset dy="1"/>
<feGaussianBlur stdDeviation="2"/>
<feComposite in2="hardAlpha" operator="out"/>
<feColorMatrix type="matrix" values="0 0 0 0 0 0 0 0 0 0 0 0 0 0 0 0 0 0 0.1 0"/>
<feBlend mode="normal" in2="BackgroundImageFix" result="effect1_dropShadow_3854_8029"/>
<feBlend mode="normal" in="SourceGraphic" in2="effect1_dropShadow_3854_8029" result="shape"/>
</filter>
<clipPath id="clip0_3854_8029">
<rect width="33.06" height="33.06" fill="white" transform="translate(10.625 9.47656)"/>
</clipPath>
</defs>
</svg>
