<svg width="54" height="54" viewBox="0 0 54 54" fill="none" xmlns="http://www.w3.org/2000/svg">
<g filter="url(#filter0_d_3854_8050)">
<rect x="4.42188" y="3.38672" width="45.24" height="45.24" rx="8" fill="white"/>
<path d="M38.1617 15.2436H34.8557C34.6152 15.0282 34.3397 14.8478 34.0392 14.7076C34.0392 14.7026 34.0392 14.6926 34.0392 14.6875C34.0392 12.2531 32.0556 10.2695 29.6212 10.2695C27.878 10.2695 26.3052 11.2964 25.5939 12.8592C25.4887 12.8492 25.3785 12.8442 25.2733 12.8442C24.0611 12.8442 22.9591 13.4854 22.358 14.5122C22.0725 14.4371 21.7769 14.397 21.4814 14.397C20.6248 14.397 19.8434 14.7176 19.2473 15.2436H15.9313C14.2934 15.2436 12.9609 16.576 12.9609 18.2139V33.9976C12.9609 35.6356 14.2934 36.968 15.9313 36.968H24.0811V37.6743C24.0811 37.9247 23.9208 38.1551 23.6904 38.2403L22.4131 38.7212C21.807 38.9466 21.4013 39.5326 21.4013 40.1788C21.4013 41.0404 22.0975 41.7366 22.9591 41.7366H31.1439C32.0055 41.7366 32.7018 41.0404 32.7018 40.1788C32.7018 39.5326 32.296 38.9466 31.6899 38.7212L30.4126 38.2403C30.1772 38.1501 30.0219 37.9247 30.0219 37.6743V36.968H38.1717C39.8097 36.968 41.1421 35.6356 41.1421 33.9976V18.2139C41.1321 16.576 39.7996 15.2436 38.1617 15.2436ZM21.4764 15.3538C21.797 15.3538 22.1125 15.4139 22.4131 15.5391C22.6535 15.6393 22.929 15.5241 23.0342 15.2836C23.4199 14.382 24.2965 13.8009 25.2733 13.8009C25.4486 13.8009 25.6239 13.821 25.7892 13.856C26.0246 13.9111 26.2651 13.7759 26.3452 13.5505C26.8311 12.163 28.1485 11.2263 29.6212 11.2263C31.5296 11.2263 33.0875 12.7791 33.0875 14.6926C33.0875 14.7877 33.0875 14.8779 33.0724 14.9681C33.0424 15.1935 33.1776 15.4038 33.393 15.479C34.3848 15.8146 35.046 16.7363 35.046 17.7832C35.046 19.1256 33.954 20.2176 32.6166 20.2176H21.4764C20.134 20.2176 19.042 19.1256 19.042 17.7832C19.042 16.4407 20.134 15.3538 21.4764 15.3538ZM27.2218 24.8961C27.5975 24.8961 27.9031 25.2016 27.9031 25.5773C27.9031 25.953 27.5975 26.2585 27.2218 26.2585C26.8461 26.2585 26.5406 25.953 26.5406 25.5773C26.5406 25.2016 26.8461 24.8961 27.2218 24.8961ZM13.9127 18.2139C13.9127 17.1019 14.8143 16.2003 15.9263 16.2003H18.481C18.2305 16.6711 18.0852 17.2121 18.0852 17.7832C18.0852 19.6516 19.603 21.1693 21.4714 21.1693H22.8539V23.8141C22.8539 24.0796 22.6385 24.29 22.378 24.29H21.5365C20.7501 24.29 20.1089 24.9311 20.1089 25.7176V26.0682C19.4427 26.2736 18.9518 26.8897 18.9518 27.626C18.9518 28.5277 19.6831 29.259 20.5848 29.259C21.4864 29.259 22.2177 28.5277 22.2177 27.626C22.2177 26.8897 21.7268 26.2736 21.0606 26.0682V25.7176C21.0606 25.4521 21.276 25.2417 21.5365 25.2417H22.378C23.1645 25.2417 23.8056 24.6005 23.8056 23.8141V21.1693H26.7359V24.0195C26.0697 24.2249 25.5788 24.841 25.5788 25.5773C25.5788 26.479 26.3102 27.2103 27.2118 27.2103C28.1134 27.2103 28.8448 26.479 28.8448 25.5773C28.8448 24.841 28.3539 24.2249 27.6877 24.0195V21.1693H30.2724V23.8141C30.2724 24.6005 30.9135 25.2417 31.6999 25.2417H32.5365C32.8019 25.2417 33.0123 25.4571 33.0123 25.7176V26.0682C32.3461 26.2736 31.8552 26.8897 31.8552 27.626C31.8552 28.5277 32.5866 29.259 33.4882 29.259C34.3898 29.259 35.1212 28.5277 35.1212 27.626C35.1212 26.8897 34.6303 26.2736 33.9641 26.0682V25.7176C33.9641 24.9311 33.3229 24.29 32.5365 24.29H31.6999C31.4345 24.29 31.2241 24.0746 31.2241 23.8141V21.1693H32.6066C34.47 21.1693 35.9927 19.6516 35.9927 17.7832C35.9927 17.2171 35.8425 16.6762 35.592 16.2003H38.1567C39.2687 16.2003 40.1703 17.1019 40.1703 18.2139V31.7986H13.9127V18.2139ZM20.5898 26.9448C20.9655 26.9448 21.271 27.2504 21.271 27.626C21.271 28.0017 20.9655 28.3073 20.5898 28.3073C20.2141 28.3073 19.9085 28.0017 19.9085 27.626C19.9085 27.2504 20.2141 26.9448 20.5898 26.9448ZM33.5032 26.9448C33.8789 26.9448 34.1845 27.2504 34.1845 27.626C34.1845 28.0017 33.8789 28.3073 33.5032 28.3073C33.1275 28.3073 32.822 28.0017 32.822 27.626C32.822 27.2504 33.1275 26.9448 33.5032 26.9448ZM30.072 39.1319L31.3493 39.6128C31.5847 39.7029 31.74 39.9284 31.74 40.1788C31.74 40.5144 31.4695 40.7849 31.1339 40.7849H22.9541C22.6185 40.7849 22.348 40.5144 22.348 40.1788C22.348 39.9284 22.5083 39.7029 22.7387 39.6128L24.016 39.1319C24.6221 38.9065 25.0278 38.3204 25.0278 37.6743V36.968H29.0602V37.6743C29.0602 38.3204 29.4659 38.9065 30.072 39.1319ZM40.1803 33.9976C40.1803 35.1096 39.2787 36.0112 38.1667 36.0112H15.9313C14.8193 36.0112 13.9177 35.1096 13.9177 33.9976V32.7553H40.1803V33.9976Z" fill="#0C1DA4"/>
<path d="M25.3509 34.8619H28.7521C29.0176 34.8619 29.228 34.6465 29.228 34.386C29.228 34.1205 29.0126 33.9102 28.7521 33.9102H25.3509C25.0855 33.9102 24.8751 34.1255 24.8751 34.386C24.8701 34.6515 25.0855 34.8619 25.3509 34.8619Z" fill="#0C1DA4"/>
<path d="M29.6215 13.1353C30.458 13.1353 31.1393 13.7915 31.1693 14.633C31.1793 14.8885 31.3897 15.0889 31.6452 15.0889H31.6652C31.9307 15.0788 32.1311 14.8584 32.121 14.593C32.0659 13.2405 30.9689 12.1836 29.6165 12.1836C29.351 12.1836 29.1406 12.399 29.1406 12.6595C29.1406 12.9199 29.361 13.1353 29.6215 13.1353Z" fill="#0C1DA4"/>
</g>
<defs>
<filter id="filter0_d_3854_8050" x="0.421875" y="0.386719" width="53.2422" height="53.2383" filterUnits="userSpaceOnUse" color-interpolation-filters="sRGB">
<feFlood flood-opacity="0" result="BackgroundImageFix"/>
<feColorMatrix in="SourceAlpha" type="matrix" values="0 0 0 0 0 0 0 0 0 0 0 0 0 0 0 0 0 0 127 0" result="hardAlpha"/>
<feOffset dy="1"/>
<feGaussianBlur stdDeviation="2"/>
<feComposite in2="hardAlpha" operator="out"/>
<feColorMatrix type="matrix" values="0 0 0 0 0 0 0 0 0 0 0 0 0 0 0 0 0 0 0.1 0"/>
<feBlend mode="normal" in2="BackgroundImageFix" result="effect1_dropShadow_3854_8050"/>
<feBlend mode="normal" in="SourceGraphic" in2="effect1_dropShadow_3854_8050" result="shape"/>
</filter>
</defs>
</svg>
