<svg width="54" height="54" viewBox="0 0 54 54" fill="none" xmlns="http://www.w3.org/2000/svg">
<g filter="url(#filter0_d_3854_8032)">
<rect x="4.33594" y="3.125" width="45.24" height="45.24" rx="8" fill="white"/>
<path d="M41.3841 24.1251H35.6436V22.7025H39.0749C40.3572 22.7025 41.3991 21.6606 41.3991 20.3783V12.5391C41.3991 11.2567 40.3572 10.2148 39.0749 10.2148H27.8846C26.6022 10.2148 25.5603 11.2567 25.5603 12.5391V20.3833C25.5603 21.6656 26.6022 22.7075 27.8846 22.7075H31.3158V24.1301H23.186C22.8003 23.539 22.8003 22.978 23.186 22.3919H23.3213C23.5216 22.3919 23.6869 22.2266 23.6869 22.0263C23.6869 21.8259 23.5216 21.6606 23.3213 21.6606H22.9907H21.9438C21.5581 21.0695 21.5581 20.5085 21.9438 19.9225H22.074C22.2744 19.9225 22.4397 19.7572 22.4397 19.5568C22.4397 19.3564 22.2744 19.1911 22.074 19.1911H21.7484H13.9943C13.1077 19.1911 12.3914 19.9124 12.3914 20.794C12.3914 21.6456 13.0627 22.3368 13.8992 22.3869C13.7339 22.6374 13.6337 22.9429 13.6337 23.2635C13.6337 23.5841 13.7289 23.8796 13.8942 24.1301H12.5317C11.9256 24.1301 11.4297 24.626 11.4297 25.2321V26.264C11.4297 26.8701 11.9256 27.366 12.5317 27.366H13.4634V38.957C13.4634 39.1574 13.6287 39.3227 13.829 39.3227C14.0294 39.3227 14.1947 39.1574 14.1947 38.957V27.361H15.8076V32.1146V32.1246V40.5399H12.9274C12.727 40.5399 12.5617 40.7052 12.5617 40.9055C12.5617 41.1059 12.727 41.2712 12.9274 41.2712H17.0799C17.2803 41.2712 17.4456 41.1059 17.4456 40.9055C17.4456 40.7052 17.2803 40.5399 17.0799 40.5399H16.544V32.4752H23.2011C23.9424 32.4752 24.5485 31.8742 24.5485 31.1278V27.356H37.3668V28.8437H26.1414C25.941 28.8437 25.7757 29.009 25.7757 29.2093C25.7757 29.4097 25.941 29.575 26.1414 29.575H37.3668V40.5299H36.8308C36.6304 40.5299 36.4651 40.6952 36.4651 40.8955C36.4651 41.0959 36.6304 41.2712 36.8308 41.2712H37.7324H40.0817H40.9833C41.1837 41.2712 41.349 41.1059 41.349 40.9055C41.349 40.7052 41.1837 40.5399 40.9833 40.5399H40.4474V28.9488C40.4474 28.7485 40.2821 28.5832 40.0817 28.5832C39.8813 28.5832 39.716 28.7485 39.716 28.9488V40.5399H38.0981V27.361H41.3841C41.9902 27.361 42.4861 26.8651 42.4861 26.259V25.2271C42.4861 24.621 41.9902 24.1251 41.3841 24.1251ZM26.2967 20.3833V12.5391C26.2967 11.6625 27.008 10.9512 27.8846 10.9512H39.0699C39.9464 10.9512 40.6577 11.6625 40.6577 12.5391V20.3833C40.6577 21.2599 39.9464 21.9712 39.0699 21.9712H35.273H31.6814H27.8846C27.008 21.9712 26.2967 21.2599 26.2967 20.3833ZM32.0521 22.7075H34.9073V24.1301H32.0521V22.7075ZM13.1228 20.784C13.1228 20.3032 13.5135 19.9124 13.9943 19.9124H21.1022C20.8468 20.4885 20.8468 21.0746 21.1022 21.6506H15.2366C15.2316 21.6506 15.2266 21.6506 15.2166 21.6506H13.9943C13.5135 21.6556 13.1228 21.2649 13.1228 20.784ZM14.37 23.2585C14.37 22.7827 14.7507 22.402 15.2216 22.3919H21.7484H22.079H22.089H22.3495C22.094 22.968 22.094 23.5541 22.3495 24.1301H15.2216C14.7507 24.1151 14.37 23.7344 14.37 23.2585ZM23.8172 31.1328C23.8172 31.4684 23.5417 31.7439 23.2061 31.7439H16.549V27.361H23.8222V31.1328H23.8172ZM41.7547 26.259C41.7547 26.4593 41.5894 26.6246 41.3891 26.6246H37.7475C37.7424 26.6246 37.7424 26.6246 37.7374 26.6246C37.7324 26.6246 37.7324 26.6246 37.7274 26.6246H24.1929C24.1878 26.6246 24.1878 26.6246 24.1828 26.6246H16.1783H13.829C13.824 26.6246 13.824 26.6246 13.819 26.6246H12.5317C12.3313 26.6246 12.166 26.4593 12.166 26.259V25.2271C12.166 25.0267 12.3313 24.8614 12.5317 24.8614H15.2216H15.2416H22.9957H23.3263H23.3363H31.6915H35.283H41.3941C41.5944 24.8614 41.7597 25.0267 41.7597 25.2271V26.259H41.7547Z" fill="#0C1DA4"/>
<path d="M19.4091 30.2685H20.9519C21.4227 30.2685 21.8084 29.8828 21.8084 29.412V29.2016C21.8084 29.0012 21.6431 28.8359 21.4428 28.8359C21.2424 28.8359 21.0771 29.0012 21.0771 29.2016V29.412C21.0771 29.4771 21.022 29.5322 20.9569 29.5322H19.4141C19.349 29.5322 19.2939 29.4771 19.2939 29.412V29.2016C19.2939 29.0012 19.1286 28.8359 18.9282 28.8359C18.7278 28.8359 18.5625 29.0012 18.5625 29.2016V29.412C18.5575 29.8828 18.9382 30.2685 19.4091 30.2685Z" fill="#0C1DA4"/>
<path d="M39.4373 19.892V13.0245C39.4373 12.5537 39.0516 12.168 38.5807 12.168H28.3722C27.9013 12.168 27.5156 12.5537 27.5156 13.0245V19.892C27.5156 20.3628 27.9013 20.7485 28.3722 20.7485H38.5807C39.0516 20.7485 39.4373 20.3628 39.4373 19.892ZM28.252 19.892V13.0245C28.252 12.9594 28.3071 12.9043 28.3722 12.9043H38.5807C38.6458 12.9043 38.7009 12.9594 38.7009 13.0245V19.892C38.7009 19.9571 38.6458 20.0122 38.5807 20.0122H28.3722C28.3071 20.0172 28.252 19.9621 28.252 19.892Z" fill="#0C1DA4"/>
</g>
<defs>
<filter id="filter0_d_3854_8032" x="0.335938" y="0.125" width="53.2422" height="53.2383" filterUnits="userSpaceOnUse" color-interpolation-filters="sRGB">
<feFlood flood-opacity="0" result="BackgroundImageFix"/>
<feColorMatrix in="SourceAlpha" type="matrix" values="0 0 0 0 0 0 0 0 0 0 0 0 0 0 0 0 0 0 127 0" result="hardAlpha"/>
<feOffset dy="1"/>
<feGaussianBlur stdDeviation="2"/>
<feComposite in2="hardAlpha" operator="out"/>
<feColorMatrix type="matrix" values="0 0 0 0 0 0 0 0 0 0 0 0 0 0 0 0 0 0 0.1 0"/>
<feBlend mode="normal" in2="BackgroundImageFix" result="effect1_dropShadow_3854_8032"/>
<feBlend mode="normal" in="SourceGraphic" in2="effect1_dropShadow_3854_8032" result="shape"/>
</filter>
</defs>
</svg>
