<svg xmlns="http://www.w3.org/2000/svg" width="50" height="50" viewBox="0 0 50 50">
  <g id="Group_13884" data-name="Group 13884" transform="translate(0.776 0.997)">
    <rect id="Rectangle_2886" data-name="Rectangle 2886" width="50" height="50" rx="10" transform="translate(-0.776 -0.997)" fill="none"/>
    <g id="Group_8061" data-name="Group 8061" transform="translate(18.761 15.713)">
      <path id="Path_16189" data-name="Path 16189" d="M6406.93,2899.939v2.69h3.777v9.093h2.846v-9.093h3.782v-2.69Z" transform="translate(-6406.93 -2895.371)" fill="#013376"/>
      <rect id="Rectangle_3134" data-name="Rectangle 3134" width="3.161" height="3.161" rx="1.581" transform="translate(3.457)" fill="#013376"/>
    </g>
    <g id="Path_16211" data-name="Path 16211" transform="translate(7.304 7.083)" fill="none">
      <path d="M16.92,0A16.92,16.92,0,1,1,0,16.92,16.92,16.92,0,0,1,16.92,0Z" stroke="none"/>
      <path d="M 16.91984939575195 3 C 13.20172882080078 3 9.706150054931641 4.447919845581055 7.077030181884766 7.077030181884766 C 4.447919845581055 9.706150054931641 3 13.20172882080078 3 16.91984939575195 C 3 20.63797950744629 4.447919845581055 24.13356018066406 7.077030181884766 26.76266860961914 C 9.706138610839844 29.39177894592285 13.20171928405762 30.83969879150391 16.91984939575195 30.83969879150391 C 20.63797950744629 30.83969879150391 24.13356018066406 29.39177894592285 26.76266860961914 26.76266860961914 C 29.39177894592285 24.13356018066406 30.83969879150391 20.63797950744629 30.83969879150391 16.91984939575195 C 30.83969879150391 13.20171928405762 29.39177894592285 9.706138610839844 26.76266860961914 7.077030181884766 C 24.13356018066406 4.447919845581055 20.63797950744629 3 16.91984939575195 3 M 16.91984939575195 0 C 26.26442909240723 0 33.83969879150391 7.575279235839844 33.83969879150391 16.91984939575195 C 33.83969879150391 26.26442909240723 26.26442909240723 33.83969879150391 16.91984939575195 33.83969879150391 C 7.575279235839844 33.83969879150391 0 26.26442909240723 0 16.91984939575195 C 0 7.575279235839844 7.575279235839844 0 16.91984939575195 0 Z" stroke="none" fill="#013d8e"/>
    </g>
  </g>
</svg>
