<svg xmlns="http://www.w3.org/2000/svg" width="50" height="50" viewBox="0 0 50 50">
  <g id="Group_13845" data-name="Group 13845" transform="translate(-767.302 -990.302)">
    <rect id="Rectangle_5122" data-name="Rectangle 5122" width="50" height="50" rx="10" transform="translate(767.302 990.302)" fill="none"/>
    <g id="communication-unified" transform="translate(776.928 1002.304)">
      <path id="Path_50710" data-name="Path 50710" d="M37.063,25.5H26.177A2.179,2.179,0,0,0,24,27.677v6.532a2.179,2.179,0,0,0,2.177,2.177h4.354V34.209H26.177V27.677H37.063v6.532H34.3L31.48,38.444l1.811,1.208,2.177-3.266h1.595a2.179,2.179,0,0,0,2.177-2.177V27.677A2.179,2.179,0,0,0,37.063,25.5Z" transform="translate(-8.759 -11.348)" fill="#013172"/>
      <path id="Path_50711" data-name="Path 50711" d="M10.258,33.239,11.2,32.3a.907.907,0,0,1,.979-.2l1.143.457a.907.907,0,0,1,.569.841v2.077a.907.907,0,0,1-.957.908c-8.006-.5-9.623-7.278-9.923-9.876a.906.906,0,0,1,.9-1.008h2.04a.908.908,0,0,1,.843.57l.457,1.143a.907.907,0,0,1-.2.978l-.938.937a4.928,4.928,0,0,0,4.148,4.111Z" transform="translate(-3 -11.348)" fill="#013172"/>
      <path id="Path_50712" data-name="Path 50712" d="M31.5,13.5h7.62v2.177H31.5Z" transform="translate(-10.816 -8.057)" fill="#013172"/>
      <path id="Path_50713" data-name="Path 50713" d="M31.5,7.5h9.8V9.677H31.5Z" transform="translate(-10.816 -6.411)" fill="#013172"/>
      <path id="Path_50714" data-name="Path 50714" d="M19.329,8.177l-3.266,2.395V8.177A2.179,2.179,0,0,0,13.886,6H5.177A2.179,2.179,0,0,0,3,8.177v6.532a2.179,2.179,0,0,0,2.177,2.177h8.709a2.179,2.179,0,0,0,2.177-2.177V12.314l3.266,2.395ZM5.177,14.709V8.177h8.709v6.532Z" transform="translate(-3 -6)" fill="#013172"/>
    </g>
  </g>
</svg>
