<svg xmlns="http://www.w3.org/2000/svg" width="50" height="50" viewBox="0 0 50 50">
  <g id="Group_13850" data-name="Group 13850" transform="translate(-4.636 0.585)">
    <rect id="Rectangle_2886" data-name="Rectangle 2886" width="50" height="50" rx="10" transform="translate(4.636 -0.585)" fill="none"/>
    <g id="Group_13851" data-name="Group 13851" transform="translate(5.276 14.782)">
      <path id="Path_50867" data-name="Path 50867" d="M-13.962,0h1.944l1.356-8.58h-1.7l-2.2,1.38-.276,1.7,1.92-1.164Zm7.7.132c2.208,0,3.684-1.464,4.08-4l.06-.4a5.543,5.543,0,0,0,.084-.984A3.162,3.162,0,0,0-5.406-8.7c-2.148,0-3.72,1.452-4.128,4.008l-.06.384a7.46,7.46,0,0,0-.084,1.02A3.165,3.165,0,0,0-6.258.132Zm.084-1.524c-1.236,0-1.572-.9-1.572-1.848a6.482,6.482,0,0,1,.084-.96l.06-.384C-7.326-6.3-6.606-7.2-5.478-7.2c1.188,0,1.524.9,1.524,1.9a6.294,6.294,0,0,1-.084.924l-.06.372C-4.374-2.292-5.022-1.392-6.174-1.392ZM2.406.132c2.208,0,3.684-1.464,4.08-4l.06-.4a5.543,5.543,0,0,0,.084-.984A3.162,3.162,0,0,0,3.258-8.7C1.11-8.7-.462-7.248-.87-4.692l-.06.384a7.46,7.46,0,0,0-.084,1.02A3.165,3.165,0,0,0,2.406.132ZM2.49-1.392c-1.236,0-1.572-.9-1.572-1.848A6.483,6.483,0,0,1,1-4.2l.06-.384C1.338-6.3,2.058-7.2,3.186-7.2c1.188,0,1.524.9,1.524,1.9a6.294,6.294,0,0,1-.084.924l-.06.372C4.29-2.292,3.642-1.392,2.49-1.392ZM11.07.132c2.208,0,3.684-1.464,4.08-4l.06-.4a5.543,5.543,0,0,0,.084-.984A3.162,3.162,0,0,0,11.922-8.7C9.774-8.7,8.2-7.248,7.794-4.692l-.06.384a7.46,7.46,0,0,0-.084,1.02A3.165,3.165,0,0,0,11.07.132Zm.084-1.524c-1.236,0-1.572-.9-1.572-1.848a6.482,6.482,0,0,1,.084-.96l.06-.384C10-6.3,10.722-7.2,11.85-7.2c1.188,0,1.524.9,1.524,1.9a6.294,6.294,0,0,1-.084.924l-.06.372C12.954-2.292,12.306-1.392,11.154-1.392Z" transform="translate(22.359 17.633)" fill="#012f6d"/>
      <path id="Path_50868" data-name="Path 50868" d="M-17.059,0h1.015l.56-3.528L-14.651,0h.371l1.946-3.528L-12.894,0h1.127l.791-5.005h-1.512L-14.133-1.9l-.686-3.108h-1.449Zm8.134.077A2.023,2.023,0,0,0-6.867-2.079,1.625,1.625,0,0,0-8.652-3.738,2.041,2.041,0,0,0-10.7-1.582,1.631,1.631,0,0,0-8.925.077Zm.028-.77c-.567,0-.791-.385-.791-.882,0-.8.378-1.4,1.015-1.4.525,0,.777.364.777.868C-7.9-1.3-8.246-.693-8.9-.693ZM-6.447,0h1.008l.28-1.722c.119-.8.588-1.057,1.344-1.05l.147-.945A1.378,1.378,0,0,0-5-2.891a6.951,6.951,0,0,0,.049-.77h-.98A7.906,7.906,0,0,1-6.055-2.5Zm3.934-1.5V-1.6H.1l.028-.161A1.533,1.533,0,0,0-1.491-3.745a2.036,2.036,0,0,0-2.023,2.2A1.587,1.587,0,0,0-1.736.077,1.658,1.658,0,0,0,.035-1.155H-.924a.741.741,0,0,1-.784.511C-2.282-.644-2.513-.987-2.513-1.5ZM-1.5-3.045c.518,0,.721.294.679.819h-1.61A.968.968,0,0,1-1.5-3.045ZM3.549.07a1.57,1.57,0,0,0,.574-.1l.126-.784a1.1,1.1,0,0,1-.385.07c-.28,0-.406-.112-.35-.462L3.787-2.94H4.55l.112-.721H3.9l.133-.791H3.017l-.126.791H2.422L2.31-2.94h.469L2.5-1.183C2.366-.357,2.744.07,3.549.07ZM4.837,0H5.845l.329-2.058a.909.909,0,0,1,.917-.861c.4,0,.574.238.49.728L7.238,0H8.246L8.6-2.2C8.771-3.3,8.267-3.745,7.553-3.745a1.372,1.372,0,0,0-1.218.693l.35-2.268H5.677ZM10.3.077A1.249,1.249,0,0,0,11.382-.5,2.472,2.472,0,0,0,11.4,0h.966a4.061,4.061,0,0,1,.063-1.12l.175-1.113c.168-1.05-.413-1.512-1.456-1.512A1.534,1.534,0,0,0,9.485-2.492h.966A.6.6,0,0,1,11.1-3.01c.469,0,.588.238.518.665l-.021.154H11c-1.1,0-1.869.3-1.869,1.239A1.034,1.034,0,0,0,10.3.077Zm.343-.7c-.343,0-.511-.2-.511-.434,0-.392.28-.532.9-.532H11.5l-.049.287A.774.774,0,0,1,10.64-.623ZM13.181,0h1.008l.329-2.058a.909.909,0,0,1,.917-.861c.406,0,.574.238.49.728L15.582,0H16.59l.35-2.2c.175-1.106-.329-1.547-1.043-1.547A1.437,1.437,0,0,0,14.637-3a5.54,5.54,0,0,0,.035-.658H13.7A9.247,9.247,0,0,1,13.573-2.5Z" transform="translate(21.359 6.633)" fill="#012f6d"/>
      <path id="Path_50866" data-name="Path 50866" d="M-1.038-1.092H.378l.36-2.34H2.9L3.1-4.74H.954l.36-2.34H-.1l-.36,2.34h-2.16l-.216,1.308h2.16Z" transform="translate(41.359 11.633)" fill="#012f6d"/>
    </g>
  </g>
</svg>
