<svg xmlns="http://www.w3.org/2000/svg" width="50" height="50" viewBox="0 0 50 50">
  <g id="Group_13852" data-name="Group 13852" transform="translate(-768.283 -991.283)">
    <rect id="Rectangle_5122" data-name="Rectangle 5122" width="50" height="50" rx="10" transform="translate(768.283 991.283)" fill="none"/>
    <g id="_24-support_linear" data-name="24-support_linear" transform="translate(780.021 1001.669)">
      <path id="Path_14675" data-name="Path 14675" d="M9.6,4.56A3.038,3.038,0,0,0,6.54,7.58V22.42A3.038,3.038,0,0,0,9.6,25.44h1.02a5.108,5.108,0,0,1,3.6,1.48l0,0,2.321,2.294h0a1.731,1.731,0,0,0,2.416,0m0,0,2.322-2.295,0,0a5.084,5.084,0,0,1,3.6-1.48h1.034a3.047,3.047,0,0,0,3.061-3.02V7.58a3.038,3.038,0,0,0-3.061-3.02H9.6M4.5,7.58A5.078,5.078,0,0,1,9.6,2.52H25.924a5.078,5.078,0,0,1,5.1,5.06V22.42a5.087,5.087,0,0,1-5.1,5.06H24.89a3.044,3.044,0,0,0-2.162.885l0,0-2.326,2.3a3.772,3.772,0,0,1-5.283,0l-2.326-2.3,0,0a3.067,3.067,0,0,0-2.162-.885H9.6a5.078,5.078,0,0,1-5.1-5.06Z" transform="translate(-4.5 -2.52)" fill="#012f6c" fill-rule="evenodd"/>
      <path id="Path_14676" data-name="Path 14676" d="M15.819,15.48a1.285,1.285,0,0,0-1.279,1.279,1.02,1.02,0,0,1-2.04,0,3.319,3.319,0,1,1,6.638,0c0,1.872-1.392,2.855-2.359,3.519l-.137.094A5.556,5.556,0,0,0,14.8,22.01h3.321a1.02,1.02,0,1,1,0,2.04H14.472a1.817,1.817,0,0,1-1.759-2.341v0h0a6.027,6.027,0,0,1,2.661-2.939l.249-.169c1.049-.72,1.473-1.151,1.473-1.837A1.285,1.285,0,0,0,15.819,15.48Z" transform="translate(-7.059 -6.013)" fill="#012f6c" fill-rule="evenodd"/>
      <path id="Path_14677" data-name="Path 14677" d="M27.132,14.278a1.827,1.827,0,0,1,2.033-.775,1.808,1.808,0,0,1,1.316,1.744v4.788h.286a1.02,1.02,0,0,1,0,2.04h-.286v.939a1.02,1.02,0,1,1-2.04,0v-.939H25.776a1.87,1.87,0,0,1-1.631-2.81l0,0h0c.925-1.579,1.992-3.384,2.979-4.973l.006-.01Zm1.31,5.757V16.042c-.8,1.3-1.629,2.708-2.383,3.993Z" transform="translate(-10.704 -6.012)" fill="#012f6c" fill-rule="evenodd"/>
    </g>
  </g>
</svg>
