<svg xmlns="http://www.w3.org/2000/svg" width="30" height="30" viewBox="0 0 30 30">
  <g id="Group_13983" data-name="Group 13983" transform="translate(-5833 17030)">
    <g id="access-time" transform="translate(5838 -17025)">
      <path id="Path_16188" data-name="Path 16188" d="M13.712,4a9.721,9.721,0,1,0,9.731,9.721A9.717,9.717,0,0,0,13.712,4Zm0,17.858A8.474,8.474,0,0,1,5.5,13.721,8.64,8.64,0,0,1,13.712,5.4c4.3,0,8.1,4.024,8.1,8.321A8.369,8.369,0,0,1,13.712,21.858Zm.5-13H12.749v5.833l5.1,3.062.729-1.2-4.375-2.6Z" transform="translate(-4 -4)" fill="#0151c1"/>
    </g>
    <rect id="Rectangle_5145" data-name="Rectangle 5145" width="30" height="30" transform="translate(5833 -17030)" fill="none"/>
  </g>
</svg>
