<svg xmlns="http://www.w3.org/2000/svg" width="30" height="30" viewBox="0 0 30 30">
  <g id="Group_13981" data-name="Group 13981" transform="translate(-5858 16999)">
    <g id="check-verified" transform="translate(5863 -16993)">
      <g id="Group_8073" data-name="Group 8073">
        <g id="Group_8072" data-name="Group 8072">
          <path id="Path_16195" data-name="Path 16195" d="M34.189,43.666h-.245a1.944,1.944,0,0,1,0-3.889h.245a7.746,7.746,0,0,1,.832-2.007l-.175-.174A1.945,1.945,0,0,1,37.6,34.847l.173.174a7.731,7.731,0,0,1,2.007-.832v-.245a1.944,1.944,0,0,1,3.889,0v.245a7.746,7.746,0,0,1,2.006.832l.174-.175A1.945,1.945,0,0,1,48.6,37.6l-.174.173a7.713,7.713,0,0,1,.832,2.007H49.5a1.944,1.944,0,1,1,0,3.889h-.245a7.731,7.731,0,0,1-.832,2.006l.175.174A1.945,1.945,0,1,1,45.845,48.6l-.173-.174a7.731,7.731,0,0,1-2.007.832V49.5a1.944,1.944,0,1,1-3.889,0v-.245a7.731,7.731,0,0,1-2.007-.832L37.6,48.6a1.945,1.945,0,0,1-2.749-2.751l.174-.173A7.731,7.731,0,0,1,34.189,43.666Zm2.671-2.944h0l3.889,3.889,5.833-5.833h0L40.749,44.61Z" transform="translate(-32 -32)" fill="none" stroke="#0151c1" stroke-width="1.5" fill-rule="evenodd"/>
        </g>
      </g>
    </g>
    <rect id="Rectangle_5143" data-name="Rectangle 5143" width="30" height="30" transform="translate(5858 -16999)" fill="none"/>
  </g>
</svg>
