<svg xmlns="http://www.w3.org/2000/svg" width="30" height="30" viewBox="0 0 30 30">
  <g id="Group_13984" data-name="Group 13984" transform="translate(-5868 17044)">
    <g id="users-line" transform="translate(5870 -17042.658)">
      <path id="Path_16178" data-name="Path 16178" d="M20.115,15.64a2.753,2.753,0,1,0-2.782-2.782A2.786,2.786,0,0,0,20.115,15.64Zm-.057-4.371h0A1.647,1.647,0,0,1,21.7,12.915a1.618,1.618,0,0,1-3.236,0A1.636,1.636,0,0,1,20.058,11.269Z" transform="translate(-7.657 -2.57)" fill="#0151c1"/>
      <path id="Path_16179" data-name="Path 16179" d="M36.939,20.347a5.621,5.621,0,0,0-3.974-1.419h-.454A3.785,3.785,0,0,1,32,20.12a5.508,5.508,0,0,1,.965-.057,4.721,4.721,0,0,1,3.009.908v4.087h1.135V20.517Z" transform="translate(-16.079 -7.617)" fill="#0151c1"/>
      <path id="Path_16180" data-name="Path 16180" d="M30.128,7.72A1.386,1.386,0,1,1,32.682,8.8a1.417,1.417,0,0,1-1.249.851.966.966,0,0,1-.4-.057,4.021,4.021,0,0,1,.057.795v.341c.114,0,.227.057.341.057a2.526,2.526,0,1,0,.057-5.052,2.434,2.434,0,0,0-2.157,1.249,2.424,2.424,0,0,1,.795.738Z" transform="translate(-14.548 -0.043)" fill="#0151c1"/>
      <path id="Path_16181" data-name="Path 16181" d="M9.109,20.253A3.785,3.785,0,0,1,8.6,19.061H8.144A5.841,5.841,0,0,0,4.17,20.423l-.17.17v4.541H5.135V21.048a4.825,4.825,0,0,1,3.009-.908A5,5,0,0,1,9.109,20.253Z" transform="translate(0 -7.694)" fill="#0151c1"/>
      <path id="Path_16182" data-name="Path 16182" d="M10.321,10.686a.72.72,0,0,0,.341-.057v-.341a3.491,3.491,0,0,1,.057-.795.966.966,0,0,1-.4.057,1.362,1.362,0,1,1,0-2.725,1.434,1.434,0,0,1,1.306.851,5.651,5.651,0,0,1,.851-.795,2.522,2.522,0,1,0-2.157,3.8Z" transform="translate(-2.178)" fill="#0151c1"/>
      <path id="Path_16183" data-name="Path 16183" d="M22.473,27.43l-.114-.17a5.729,5.729,0,0,0-4.428-1.93,5.848,5.848,0,0,0-4.485,1.93l-.114.17v4.314a.957.957,0,0,0,.965.965h7.266a1,1,0,0,0,.965-.965V27.43Zm-1.135,4.144H14.469V27.827a4.845,4.845,0,0,1,3.463-1.362,4.578,4.578,0,0,1,3.406,1.362Z" transform="translate(-5.36 -11.294)" fill="#0151c1"/>
    </g>
    <rect id="Rectangle_5146" data-name="Rectangle 5146" width="30" height="30" transform="translate(5868 -17044)" fill="none"/>
  </g>
</svg>
