<svg xmlns="http://www.w3.org/2000/svg" width="30" height="30" viewBox="0 0 30 30">
  <g id="Group_13982" data-name="Group 13982" transform="translate(-5898 17006)">
    <g id="update-line" transform="translate(5900.333 -17003.666)">
      <path id="Path_50636" data-name="Path 50636" d="M17.436,22.444H15.674a.592.592,0,0,1-.608-.486l-.3-1.094-.243-.122-.972.547a.562.562,0,0,1-.729-.122l-1.276-1.276a.646.646,0,0,1-.122-.729l.547-.972-.122-.243-1.094-.3a.654.654,0,0,1-.486-.608V15.274a.592.592,0,0,1,.486-.608l1.094-.3.122-.243-.547-.972a.562.562,0,0,1,.122-.729l1.276-1.276a.646.646,0,0,1,.729-.122l.972.547.243-.122.3-1.094a.654.654,0,0,1,.608-.486h1.762a.592.592,0,0,1,.608.486l.3,1.094.243.122.972-.547a.562.562,0,0,1,.729.122l1.276,1.276a.646.646,0,0,1,.122.729l-.547.972.122.243,1.094.3a.654.654,0,0,1,.486.608v1.762a.592.592,0,0,1-.486.608l-1.094.3-.122.243.547.972a.562.562,0,0,1-.122.729l-1.276,1.276a.646.646,0,0,1-.729.122l-.972-.547-.243.122-.3,1.094A.7.7,0,0,1,17.436,22.444ZM16.1,21.229h.851l.3-1.276.3-.122c.243-.061.425-.182.668-.243l.3-.182,1.154.668.608-.608-.668-1.154.182-.3a2.177,2.177,0,0,0,.243-.668l.122-.3,1.276-.3v-.851l-1.276-.3-.122-.3c-.061-.243-.182-.425-.243-.668l-.182-.3.668-1.154-.608-.608-1.154.668-.3-.182a2.177,2.177,0,0,0-.668-.243l-.3-.122-.3-1.276H16.1l-.3,1.276-.3.122c-.243.061-.425.182-.668.243l-.3.182-1.154-.668-.608.608.668,1.154-.182.3a2.177,2.177,0,0,0-.243.668l-.122.3-1.276.3v.851l1.276.3.122.3c.061.243.182.425.243.668l.182.3-.668,1.154.608.608,1.154-.668.3.182a2.177,2.177,0,0,0,.668.243l.3.122ZM22.054,17.218Z" transform="translate(-4.137 -3.919)" fill="#0151c1"/>
      <path id="Path_50637" data-name="Path 50637" d="M20.879,23.492a2.613,2.613,0,1,1,2.613-2.613A2.593,2.593,0,0,1,20.879,23.492Zm0-4.01a1.4,1.4,0,1,0,1.4,1.4A1.375,1.375,0,0,0,20.879,19.482Z" transform="translate(-8.491 -8.491)" fill="#0151c1"/>
      <path id="Path_50638" data-name="Path 50638" d="M12.388,2.667a.574.574,0,0,0-.608.608.574.574,0,0,0,.608.608,8.506,8.506,0,1,1-8.506,8.506A8.238,8.238,0,0,1,5.34,7.649v.729a.574.574,0,0,0,.608.608.574.574,0,0,0,.608-.608V5.34H3.517a.574.574,0,0,0-.608.608.574.574,0,0,0,.608.608H4.611a9.492,9.492,0,0,0-1.944,5.833,9.721,9.721,0,1,0,9.721-9.721Z" fill="#0151c1"/>
    </g>
    <rect id="Rectangle_5144" data-name="Rectangle 5144" width="30" height="30" transform="translate(5898 -17006)" fill="none"/>
  </g>
</svg>
