<svg xmlns="http://www.w3.org/2000/svg" xmlns:xlink="http://www.w3.org/1999/xlink" width="283" height="482" viewBox="0 0 283 482">
  <defs>
    <clipPath id="clip-path">
      <rect id="Rectangle_5130" data-name="Rectangle 5130" width="283" height="482" transform="translate(1257 1489)" fill="#999797"/>
    </clipPath>
  </defs>
  <g id="Mask_Group_150" data-name="Mask Group 150" transform="translate(-1257 -1489)" clip-path="url(#clip-path)">
    <g id="New_Symbol" data-name="New Symbol" transform="translate(-727.005 2091.385) rotate(180)" opacity="0.21">
      <g id="Group_13934" data-name="Group 13934" transform="translate(-2194.032 129.62)">
        <path id="Path_50799" data-name="Path 50799" d="M-1373.9,144.83a63.026,63.026,0,0,1,63.026,63.026,63.026,63.026,0,0,1-63.026,63.026,63.026,63.026,0,0,1-63.026-63.026" transform="translate(1436.93 -144.83)" fill="none" stroke="#c3c3c3" stroke-linecap="round" stroke-width="1.112"/>
        <line id="Line_363" data-name="Line 363" y2="81.193" transform="translate(63.02 111.266)" fill="none" stroke="#c3c3c3" stroke-linecap="round" stroke-width="1.559"/>
        <g id="Group_13933" data-name="Group 13933" transform="translate(124.004 359.902)">
          <g id="Group_13932" data-name="Group 13932" transform="translate(32.454 0)">
            <line id="Line_364" data-name="Line 364" y2="34.046" transform="translate(0)" fill="none" stroke="#c3c3c3" stroke-linecap="round" stroke-width="1.559"/>
          </g>
          <path id="Path_50800" data-name="Path 50800" d="M10.444,0A10.444,10.444,0,1,0,20.888,10.444" transform="translate(43.685 39.555) rotate(-135)" fill="none" stroke="#c3c3c3" stroke-width="1.559"/>
          <path id="Path_50801" data-name="Path 50801" d="M10.444,0A10.444,10.444,0,1,0,20.888,10.444" transform="translate(14.77 2.554) rotate(45)" fill="none" stroke="#c3c3c3" stroke-width="1.559"/>
          <line id="Line_365" data-name="Line 365" y2="34.046" transform="translate(24.992 8.395)" fill="none" stroke="#c3c3c3" stroke-linecap="round" stroke-width="1.559"/>
        </g>
      </g>
      <g id="Group_13936" data-name="Group 13936" transform="translate(-2374.238 220.445)">
        <path id="Path_50802" data-name="Path 50802" d="M-1971.279,2299.975h0a27.337,27.337,0,0,1-27.337,27.337h-257.75a27.337,27.337,0,0,1-27.337-27.337h0a27.337,27.337,0,0,1,27.337-27.337" transform="translate(2301.109 -1954.372)" fill="none" stroke="#c3c3c3" stroke-width="1.559"/>
        <g id="Group_13935" data-name="Group 13935" transform="translate(117.54 45.77)">
          <path id="Path_50803" data-name="Path 50803" d="M-1575.359,874.851A19.549,19.549,0,0,1-1555.81,855.3h31.469a19.549,19.549,0,0,1,19.549,19.549v18.6A19.549,19.549,0,0,1-1524.34,913h-31.469" transform="translate(1611.411 -855.302)" fill="none" stroke="#c3c3c3" stroke-width="1.559"/>
          <path id="Path_50804" data-name="Path 50804" d="M-1499.995,1942.794h34.59a21.488,21.488,0,0,1,21.488,21.488v20.44a21.488,21.488,0,0,1-21.488,21.488" transform="translate(1550.536 -1733.713)" fill="none" stroke="#c3c3c3" stroke-width="1.559"/>
          <path id="Path_50805" data-name="Path 50805" d="M-634.6,1198.351h34.59a21.488,21.488,0,0,1,21.488,21.488v20.44a21.488,21.488,0,0,1-21.488,21.488" transform="translate(851.521 -1132.396)" fill="none" stroke="#c3c3c3" stroke-width="1.559"/>
          <path id="Path_50806" data-name="Path 50806" d="M-1706.8,1155.386h-34.591a21.488,21.488,0,0,0-21.488,21.488v20.44" transform="translate(1762.877 -1097.692)" fill="none" stroke="#c3c3c3" stroke-width="1.559"/>
          <line id="Line_366" data-name="Line 366" y2="30.516" transform="translate(0 104.421)" fill="none" stroke="#c3c3c3" stroke-width="1.559"/>
          <line id="Line_367" data-name="Line 367" y2="6.914" transform="translate(0 143.758)" fill="none" stroke="#c3c3c3" stroke-width="1.559"/>
          <line id="Line_368" data-name="Line 368" y2="35.284" transform="translate(0 157.347)" fill="none" stroke="#c3c3c3" stroke-width="1.559"/>
        </g>
        <circle id="Ellipse_3948" data-name="Ellipse 3948" cx="22.494" cy="22.494" r="22.494" transform="translate(85.729 238.401) rotate(-45)" fill="none" stroke="#c3c3c3" stroke-width="1.559"/>
        <circle id="Ellipse_3949" data-name="Ellipse 3949" cx="40.767" cy="40.767" r="40.767" transform="translate(185.579 175.14) rotate(-45)" fill="none" stroke="#c3c3c3" stroke-width="1.559"/>
        <path id="Path_50807" data-name="Path 50807" d="M-928.865,938.236a15.973,15.973,0,0,1-15.973,15.973,15.973,15.973,0,0,1-15.973-15.973,15.973,15.973,0,0,1,15.973-15.973A15.973,15.973,0,0,1-928.865,938.236Z" transform="translate(1232.556 -863.619)" fill="none" stroke="#c3c3c3" stroke-width="1.559"/>
        <path id="Path_50808" data-name="Path 50808" d="M-1186.387,1432.528a18.393,18.393,0,0,1,18.393,18.393,18.393,18.393,0,0,1-18.393,18.393,18.393,18.393,0,0,1-18.393-18.393" transform="translate(1429.619 -1275.781)" fill="none" stroke="#c3c3c3" stroke-width="1.559"/>
        <path id="Path_50809" data-name="Path 50809" d="M-1748.3,858.955a18.393,18.393,0,0,0-18.393,18.393,18.393,18.393,0,0,0,18.393,18.393,18.393,18.393,0,0,0,18.393-18.393" transform="translate(1883.499 -812.483)" fill="none" stroke="#c3c3c3" stroke-width="1.559"/>
        <path id="Path_50810" data-name="Path 50810" d="M-1392.582,2057.284a12,12,0,0,1-12,12,12,12,0,0,1-12-12,12,12,0,0,1,12-12A12,12,0,0,1-1392.582,2057.284Z" transform="translate(1600.707 -1770.726)" fill="none" stroke="#c3c3c3" stroke-width="1.559"/>
        <line id="Line_369" data-name="Line 369" x1="91.23" transform="translate(152.003 175.14)" fill="none" stroke="#c3c3c3" stroke-width="1.559"/>
        <line id="Line_370" data-name="Line 370" x1="12.397" transform="translate(129.752 175.14)" fill="none" stroke="#c3c3c3" stroke-width="1.559"/>
        <line id="Line_371" data-name="Line 371" x1="75.336" transform="translate(27.715 175.14)" fill="none" stroke="#c3c3c3" stroke-width="1.559"/>
        <line id="Line_372" data-name="Line 372" x1="23.999" transform="translate(173.618 318.266)" fill="none" stroke="#c3c3c3" stroke-width="1.559"/>
        <line id="Line_373" data-name="Line 373" x1="97.269" transform="translate(67.29 318.266)" fill="none" stroke="#c3c3c3" stroke-width="1.559"/>
        <line id="Line_374" data-name="Line 374" x1="162.773" transform="translate(98.852 345.603)" fill="none" stroke="#c3c3c3" stroke-width="1.559"/>
        <line id="Line_375" data-name="Line 375" x1="98.842" transform="translate(188.876 74.617)" fill="none" stroke="#c3c3c3" stroke-width="1.559"/>
        <line id="Line_376" data-name="Line 376" x2="69.233" transform="translate(271.745 175.14)" fill="none" stroke="#c3c3c3" stroke-width="0.78"/>
        <line id="Line_377" data-name="Line 377" x2="11.92" transform="translate(351.468 175.14)" fill="none" stroke="#c3c3c3" stroke-width="0.78"/>
        <line id="Line_378" data-name="Line 378" x2="57.601" transform="translate(196.121 286.558)" fill="none" stroke="#c3c3c3" stroke-width="0.78"/>
        <line id="Line_379" data-name="Line 379" y1="56.123" transform="translate(135.199 8.742)" fill="none" stroke="#c3c3c3" stroke-width="0.78"/>
        <circle id="Ellipse_3950" data-name="Ellipse 3950" cx="2.702" cy="2.702" r="2.702" transform="translate(322.86 109.022)" fill="none" stroke="#c3c3c3" stroke-width="0.78"/>
        <circle id="Ellipse_3951" data-name="Ellipse 3951" cx="2.702" cy="2.702" r="2.702" transform="translate(314.277 109.022)" fill="none" stroke="#c3c3c3" stroke-width="0.78"/>
        <circle id="Ellipse_3952" data-name="Ellipse 3952" cx="2.702" cy="2.702" r="2.702" transform="translate(305.694 109.022)" fill="none" stroke="#c3c3c3" stroke-width="0.78"/>
        <circle id="Ellipse_3953" data-name="Ellipse 3953" cx="2.702" cy="2.702" r="2.702" transform="translate(297.112 109.022)" fill="none" stroke="#c3c3c3" stroke-width="0.78"/>
        <circle id="Ellipse_3954" data-name="Ellipse 3954" cx="2.702" cy="2.702" r="2.702" transform="translate(132.497 0)" fill="none" stroke="#c3c3c3" stroke-width="0.78"/>
        <circle id="Ellipse_3955" data-name="Ellipse 3955" cx="9.119" cy="9.119" r="9.119" transform="translate(0 166.021)" fill="none" stroke="#c3c3c3" stroke-width="1.559"/>
        <circle id="Ellipse_3956" data-name="Ellipse 3956" cx="6.199" cy="6.199" r="6.199" transform="translate(327.15 68.418)" fill="none" stroke="#c3c3c3" stroke-width="0.78"/>
        <path id="Path_50811" data-name="Path 50811" d="M-2171.4,2354.06a14.464,14.464,0,0,1-14.464,14.463,14.464,14.464,0,0,1-14.464-14.463,14.464,14.464,0,0,1,14.464-14.464A14.464,14.464,0,0,1-2171.4,2354.06Z" transform="translate(2233.767 -2008.457)" fill="none" stroke="#c3c3c3" stroke-width="1.559"/>
      </g>
    </g>
  </g>
</svg>
