<svg width="28" height="28" viewBox="0 0 28 28" fill="none" xmlns="http://www.w3.org/2000/svg">
<path d="M5.27256 6.21434C3.44796 8.25567 2.37557 10.8591 2.23308 13.5933C2.09059 16.3276 2.88657 19.0284 4.48911 21.2483C6.09165 23.4682 8.40456 25.074 11.0446 25.7995C13.6846 26.5251 16.4933 26.3268 19.0053 25.2376C21.5172 24.1485 23.5816 22.2337 24.8565 19.8107C26.1313 17.3877 26.54 14.6018 26.0149 11.9148C25.4897 9.22767 24.0623 6.80065 21.969 5.03586C19.8758 3.27106 17.2424 2.27442 14.5052 2.21108C14.4686 2.20989 14.4321 2.21609 14.398 2.22931C14.3638 2.24252 14.3327 2.26248 14.3064 2.28799C14.2801 2.31351 14.2593 2.34405 14.2451 2.37781C14.2309 2.41156 14.2236 2.44783 14.2237 2.48445V7.71603" stroke="white" stroke-width="2.625" stroke-linecap="round" stroke-linejoin="round"/>
<path d="M12.8074 15.6377L7.86541 8.56913C7.79684 8.47121 7.76496 8.35226 7.77537 8.23318C7.78578 8.11409 7.83782 8.00248 7.92235 7.91796C8.00688 7.83343 8.11849 7.78139 8.23757 7.77098C8.35666 7.76056 8.47561 7.79245 8.57352 7.86102L15.642 12.803C15.863 12.9551 16.0516 13.1494 16.1971 13.3748C16.3425 13.6001 16.442 13.852 16.4897 14.1159C16.5374 14.3798 16.5324 14.6506 16.475 14.9126C16.4176 15.1746 16.3089 15.4226 16.1552 15.6424C16.0015 15.8622 15.8058 16.0495 15.5795 16.1933C15.3531 16.3371 15.1005 16.4348 14.8362 16.4806C14.5719 16.5263 14.3012 16.5194 14.0397 16.4601C13.7781 16.4008 13.5308 16.2903 13.3122 16.135C13.1167 15.9996 12.946 15.8316 12.8074 15.6384V15.6377Z" fill="#FAB737"/>
</svg>
