<svg width="23" height="22" viewBox="0 0 23 22" fill="none" xmlns="http://www.w3.org/2000/svg">
<path d="M4.5 10.0918H18.5C19.4283 10.0918 20.3185 9.73256 20.9749 9.09317C21.6313 8.45378 22 7.58658 22 6.68235V4.40941C22 3.50518 21.6313 2.63798 20.9749 1.99859C20.3185 1.3592 19.4283 1 18.5 1H4.5C3.57174 1 2.6815 1.3592 2.02513 1.99859C1.36875 2.63798 1 3.50518 1 4.40941V6.68235C1 7.58658 1.36875 8.45378 2.02513 9.09317C2.6815 9.73256 3.57174 10.0918 4.5 10.0918ZM4.5 10.0918C3.57174 10.0918 2.6815 10.451 2.02513 11.0904C1.36875 11.7297 1 12.5969 1 13.5012V15.7741C1 16.6783 1.36875 17.5455 2.02513 18.1849C2.6815 18.8243 3.57174 19.1835 4.5 19.1835H15M5.66667 5.54588V5.55725M5.66667 14.6376V14.649" stroke="white" stroke-width="1.68" stroke-linecap="round" stroke-linejoin="round"/>
<path d="M20.8333 13.5015L18.5 16.9109H22L19.6667 20.3203" stroke="#FBBA37" stroke-width="1.68" stroke-linecap="round" stroke-linejoin="round"/>
</svg>
