<svg width="24" height="25" viewBox="0 0 24 25" fill="none" xmlns="http://www.w3.org/2000/svg">
<path d="M5.5 3.83644C7.31614 2.0203 9.77936 1 12.3478 1C14.9162 1 17.3794 2.0203 19.1955 3.83644C21.0117 5.65258 22.032 8.1158 22.032 10.6842V14.3158M22.032 14.3158C22.032 13.6737 21.7769 13.0579 21.3229 12.6038C20.8688 12.1498 20.253 11.8947 19.6109 11.8947H18.4004C17.7583 11.8947 17.1425 12.1498 16.6885 12.6038C16.2344 13.0579 15.9793 13.6737 15.9793 14.3158V17.9474C15.9793 18.5895 16.2344 19.2053 16.6885 19.6593C17.1425 20.1133 17.7583 20.3684 18.4004 20.3684H19.6109M22.032 14.3158V17.9474C22.032 18.5895 21.7769 19.2053 21.3229 19.6593C20.8688 20.1133 20.253 20.3684 19.6109 20.3684M19.6109 20.3684C19.6109 22.3743 16.3595 24 12.3478 24" stroke="white" stroke-width="1.98291" stroke-linecap="round" stroke-linejoin="round"/>
<path fill-rule="evenodd" clip-rule="evenodd" d="M0 11.0324C0 10.5059 0.42865 10.0791 0.957416 10.0791H2.87225C3.38009 10.0791 3.86714 10.28 4.22624 10.6375C4.58534 10.9951 4.78708 11.48 4.78708 11.9857V12.939C4.78708 13.4446 4.58534 13.9296 4.22624 14.2871C3.86714 14.6447 3.38009 14.8455 2.87225 14.8455L1.91483 14.8455L1.91483 15.7988H3.82967C4.35843 15.7988 4.78708 16.2256 4.78708 16.7521C4.78708 17.2786 4.35843 17.7054 3.82967 17.7054H1.91483C1.40699 17.7054 0.919944 17.5045 0.560842 17.147C0.201741 16.7894 0 16.3045 0 15.7988V14.8455C0 14.3399 0.201741 13.8549 0.560842 13.4974C0.919944 13.1398 1.40699 12.939 1.91483 12.939H2.87225V11.9857H0.957416C0.42865 11.9857 0 11.5589 0 11.0324ZM6.70191 10.0791C7.23068 10.0791 7.65933 10.5059 7.65933 11.0324L7.65933 12.939L8.61675 12.939V11.0324C8.61675 10.5059 9.0454 10.0791 9.57416 10.0791C10.1029 10.0791 10.5316 10.5059 10.5316 11.0324V16.7521C10.5316 17.2786 10.1029 17.7054 9.57416 17.7054C9.0454 17.7054 8.61675 17.2786 8.61675 16.7521V14.8455H7.65933C7.15149 14.8455 6.66444 14.6447 6.30534 14.2871C5.94624 13.9296 5.7445 13.4446 5.7445 12.939V11.0324C5.7445 10.5059 6.17315 10.0791 6.70191 10.0791Z" fill="#FDC736"/>
</svg>
