<svg width="37" height="32" viewBox="0 0 37 32" fill="none" xmlns="http://www.w3.org/2000/svg">
<g clip-path="url(#clip0_1922_2630)">
<path d="M17.5243 14.4764C18.4284 14.4764 19.3122 14.2083 20.0639 13.706C20.8157 13.2037 21.4016 12.4898 21.7476 11.6545C22.0935 10.8192 22.1841 9.90012 22.0077 9.01339C21.8313 8.12666 21.3959 7.31215 20.7567 6.67286C20.1174 6.03357 19.3028 5.5982 18.4161 5.42182C17.5294 5.24544 16.6103 5.33597 15.775 5.68195C14.9397 6.02793 14.2258 6.61383 13.7235 7.36556C13.2212 8.11729 12.9531 9.00109 12.9531 9.90519C12.9531 11.1175 13.4347 12.2802 14.292 13.1375C15.1493 13.9948 16.312 14.4764 17.5243 14.4764ZM17.5243 7.61879C17.9766 7.61847 18.4188 7.7523 18.795 8.00334C19.1712 8.25438 19.4645 8.61135 19.6378 9.02911C19.8111 9.44687 19.8566 9.90664 19.7686 10.3503C19.6805 10.7939 19.4629 11.2014 19.1432 11.5213C18.8235 11.8413 18.4161 12.0592 17.9726 12.1475C17.529 12.2359 17.0692 12.1907 16.6513 12.0177C16.2334 11.8447 15.8763 11.5516 15.625 11.1756C15.3737 10.7996 15.2395 10.3575 15.2395 9.90519C15.2399 9.29935 15.4808 8.71845 15.9092 8.29006C16.3376 7.86167 16.9185 7.61921 17.5243 7.61879Z" fill="#464646"/>
<path d="M28.5755 26.2876H21.7179C21.2676 26.2876 20.8217 26.3763 20.4057 26.5486C19.9897 26.7209 19.6117 26.9735 19.2933 27.2919C18.9749 27.6103 18.7224 27.9883 18.5501 28.4043C18.3778 28.8203 18.2891 29.2661 18.2891 29.7164V32.0028H20.5755V29.7164C20.5755 29.4134 20.6958 29.1228 20.9101 28.9086C21.1243 28.6944 21.4149 28.574 21.7179 28.574H28.5755C28.8784 28.574 29.169 28.6944 29.3833 28.9086C29.5975 29.1228 29.7179 29.4134 29.7179 29.7164V32.0028H32.0043V29.7164C32.0043 29.2661 31.9156 28.8203 31.7433 28.4043C31.5709 27.9883 31.3184 27.6103 31 27.2919C30.6816 26.9735 30.3036 26.7209 29.8876 26.5486C29.4716 26.3763 29.0257 26.2876 28.5755 26.2876Z" fill="#FDC736"/>
<path d="M14.2864 26.2876H7.4288C6.97852 26.2876 6.53266 26.3763 6.11666 26.5486C5.70066 26.7209 5.32267 26.9735 5.00427 27.2919C4.68588 27.6103 4.43331 27.9883 4.261 28.4043C4.08869 28.8203 4 29.2661 4 29.7164V32.0028H6.2864V29.7164C6.2864 29.4134 6.40676 29.1228 6.621 28.9086C6.83524 28.6944 7.12582 28.574 7.4288 28.574H14.2864C14.5894 28.574 14.88 28.6944 15.0942 28.9086C15.3084 29.1228 15.4288 29.4134 15.4288 29.7164V32.0028H17.7152V29.7164C17.7152 29.2661 17.6265 28.8203 17.4542 28.4043C17.2819 27.9883 17.0293 27.6103 16.7109 27.2919C16.3925 26.9735 16.0145 26.7209 15.5985 26.5486C15.1825 26.3763 14.7367 26.2876 14.2864 26.2876Z" fill="#FDC736"/>
<path d="M20.5703 20.5722C20.5703 21.4763 20.8384 22.3601 21.3407 23.1118C21.843 23.8635 22.5569 24.4494 23.3922 24.7954C24.2275 25.1414 25.1466 25.2319 26.0333 25.0555C26.92 24.8792 27.7345 24.4438 28.3738 23.8045C29.0131 23.1652 29.4485 22.3507 29.6249 21.464C29.8013 20.5772 29.7107 19.6581 29.3648 18.8229C29.0188 17.9876 28.4329 17.2737 27.6811 16.7714C26.9294 16.2691 26.0456 16.001 25.1415 16.001C23.9292 16.001 22.7665 16.4826 21.9092 17.3398C21.0519 18.1971 20.5703 19.3598 20.5703 20.5722ZM27.4279 20.5722C27.4279 21.0244 27.2938 21.4664 27.0426 21.8424C26.7914 22.2184 26.4343 22.5115 26.0165 22.6845C25.5987 22.8576 25.139 22.9029 24.6955 22.8146C24.2519 22.7264 23.8445 22.5087 23.5248 22.1889C23.205 21.8691 22.9873 21.4617 22.899 21.0182C22.8108 20.5747 22.8561 20.115 23.0292 19.6972C23.2022 19.2794 23.4953 18.9223 23.8713 18.6711C24.2473 18.4199 24.6893 18.2858 25.1415 18.2858C25.7479 18.2858 26.3295 18.5267 26.7582 18.9554C27.187 19.3842 27.4279 19.9658 27.4279 20.5722Z" fill="#464646"/>
<path d="M6.28125 20.5722C6.28125 21.4763 6.54935 22.3601 7.05164 23.1118C7.55393 23.8635 8.26785 24.4494 9.10313 24.7954C9.93841 25.1414 10.8575 25.2319 11.7442 25.0555C12.631 24.8792 13.4455 24.4438 14.0848 23.8045C14.7241 23.1652 15.1594 22.3507 15.3358 21.464C15.5122 20.5772 15.4217 19.6581 15.0757 18.8229C14.7297 17.9876 14.1438 17.2737 13.3921 16.7714C12.6403 16.2691 11.7565 16.001 10.8524 16.001C9.64009 16.001 8.47739 16.4826 7.62012 17.3398C6.76286 18.1971 6.28125 19.3598 6.28125 20.5722ZM13.1388 20.5722C13.1388 21.0244 13.0048 21.4664 12.7535 21.8424C12.5023 22.2184 12.1452 22.5115 11.7274 22.6845C11.3096 22.8576 10.8499 22.9029 10.4064 22.8146C9.96288 22.7264 9.55548 22.5087 9.23572 22.1889C8.91596 21.8691 8.6982 21.4617 8.60998 21.0182C8.52176 20.5747 8.56704 20.115 8.74009 19.6972C8.91314 19.2794 9.2062 18.9223 9.5822 18.6711C9.95819 18.4199 10.4002 18.2858 10.8524 18.2858C11.4588 18.2858 12.0404 18.5267 12.4692 18.9554C12.898 19.3842 13.1388 19.9658 13.1388 20.5722Z" fill="#464646"/>
</g>
<defs>
<clipPath id="clip0_1922_2630">
<rect width="36.6667" height="32" fill="white"/>
</clipPath>
</defs>
</svg>
