<svg width="20" height="23" viewBox="0 0 20 23" fill="none" xmlns="http://www.w3.org/2000/svg">
<path fill-rule="evenodd" clip-rule="evenodd" d="M10 2.22222C8.46172 2.22222 6.95798 2.67837 5.67894 3.53299C4.3999 4.3876 3.40301 5.6023 2.81431 7.02348C2.22562 8.44466 2.07157 10.0085 2.37165 11.5172C2.67171 13.0259 3.41239 14.4117 4.50003 15.4995C4.49999 15.4994 4.50007 15.4995 4.50003 15.4995L9.21528 20.2136C9.42362 20.4217 9.70607 20.5386 10.0006 20.5386C10.295 20.5386 10.5775 20.4217 10.7858 20.2136L15.4999 15.4996C15.4999 15.4996 15.4999 15.4996 15.4999 15.4996C16.5876 14.4118 17.3283 13.0259 17.6284 11.5172C17.9284 10.0085 17.7744 8.44466 17.1857 7.02348C16.597 5.6023 15.6001 4.3876 14.3211 3.53299C13.042 2.67837 11.5383 2.22222 10 2.22222ZM4.44436 1.68527C6.08884 0.586477 8.02221 0 10 0C11.9778 0 13.9112 0.586477 15.5557 1.68527C17.2001 2.78406 18.4819 4.34582 19.2387 6.17305C19.9956 8.00028 20.1937 10.0109 19.8079 11.9507C19.4221 13.8905 18.4697 15.6723 17.0713 17.0709L12.3568 21.7853C11.7318 22.4097 10.884 22.7609 10.0006 22.7609C9.11709 22.7609 8.26975 22.4101 7.64473 21.7857L2.92887 17.071C1.53039 15.6725 0.577924 13.8905 0.192114 11.9507C-0.193696 10.0109 0.00436703 8.00028 0.761258 6.17305C1.51815 4.34582 2.79988 2.78406 4.44436 1.68527Z" fill="white"/>
<path fill-rule="evenodd" clip-rule="evenodd" d="M9.4451 5C10.0587 5 10.5562 5.49746 10.5562 6.11111V10.5556H13.334C13.9476 10.5556 14.4451 11.053 14.4451 11.6667C14.4451 12.2803 13.9476 12.7778 13.334 12.7778H9.4451C8.83145 12.7778 8.33398 12.2803 8.33398 11.6667V6.11111C8.33398 5.49746 8.83145 5 9.4451 5Z" fill="#FAB737"/>
</svg>
