<svg width="30" height="33" viewBox="0 0 30 33" fill="none" xmlns="http://www.w3.org/2000/svg">
<path fill-rule="evenodd" clip-rule="evenodd" d="M24.375 3.25C23.944 3.25 23.5307 3.4212 23.226 3.72595C22.9212 4.0307 22.75 4.44403 22.75 4.875V9.75C22.75 10.181 22.9212 10.5943 23.226 10.899C23.5307 11.2038 23.944 11.375 24.375 11.375C24.806 11.375 25.2193 11.2038 25.524 10.899C25.8288 10.5943 26 10.181 26 9.75V4.875C26 4.44403 25.8288 4.0307 25.524 3.72595C25.2193 3.4212 24.806 3.25 24.375 3.25ZM20.9279 1.42785C21.8421 0.513615 23.0821 0 24.375 0C25.6679 0 26.9079 0.513615 27.8221 1.42785C28.7364 2.34209 29.25 3.58207 29.25 4.875V9.75C29.25 11.0429 28.7364 12.2829 27.8221 13.1971C27.3031 13.7162 26.6791 14.1061 26 14.3462V22.75C26 24.4739 25.3152 26.1272 24.0962 27.3462C22.8772 28.5652 21.2239 29.25 19.5 29.25C17.7761 29.25 16.1228 28.5652 14.9038 27.3462C13.6848 26.1272 13 24.4739 13 22.75V9.75C13 8.88805 12.6576 8.0614 12.0481 7.4519C11.4386 6.84241 10.612 6.5 9.75 6.5C8.88805 6.5 8.0614 6.84241 7.4519 7.4519C6.84241 8.0614 6.5 8.88805 6.5 9.75V18.1538C7.17909 18.3939 7.80311 18.7838 8.32215 19.3029C9.23639 20.2171 9.75 21.4571 9.75 22.75V27.625C9.75 28.9179 9.23639 30.1579 8.32215 31.0721C7.40791 31.9864 6.16793 32.5 4.875 32.5C3.58207 32.5 2.34209 31.9864 1.42785 31.0721C0.513615 30.1579 0 28.9179 0 27.625V22.75C0 21.4571 0.513615 20.2171 1.42785 19.3029C1.94689 18.7838 2.57091 18.3939 3.25 18.1538V9.75C3.25 8.02609 3.93482 6.37279 5.15381 5.15381C6.37279 3.93482 8.02609 3.25 9.75 3.25C11.4739 3.25 13.1272 3.93482 14.3462 5.15381C15.5652 6.37279 16.25 8.02609 16.25 9.75V22.75C16.25 23.612 16.5924 24.4386 17.2019 25.0481C17.8114 25.6576 18.638 26 19.5 26C20.362 26 21.1886 25.6576 21.7981 25.0481C22.4076 24.4386 22.75 23.612 22.75 22.75V14.3462C22.0709 14.1061 21.4469 13.7162 20.9279 13.1971C20.0136 12.2829 19.5 11.0429 19.5 9.75V4.875C19.5 3.58207 20.0136 2.34209 20.9279 1.42785ZM4.875 21.125C4.44403 21.125 4.0307 21.2962 3.72595 21.601C3.4212 21.9057 3.25 22.319 3.25 22.75V27.625C3.25 28.056 3.4212 28.4693 3.72595 28.774C4.0307 29.0788 4.44403 29.25 4.875 29.25C5.30597 29.25 5.7193 29.0788 6.02405 28.774C6.3288 28.4693 6.5 28.056 6.5 27.625V22.75C6.5 22.319 6.3288 21.9057 6.02405 21.601C5.7193 21.2962 5.30597 21.125 4.875 21.125Z" fill="black"/>
<path d="M5 20C4.46957 20 3.96086 20.2107 3.58579 20.5858C3.21071 20.9609 3 21.4696 3 22V28C3 28.5304 3.21071 29.0391 3.58579 29.4142C3.96086 29.7893 4.46957 30 5 30C5.53043 30 6.03914 29.7893 6.41421 29.4142C6.78929 29.0391 7 28.5304 7 28V22C7 21.4696 6.78929 20.9609 6.41421 20.5858C6.03914 20.2107 5.53043 20 5 20Z" fill="#FDC736"/>
<path d="M10 8C9.46957 8 8.96086 8.21071 8.58579 8.58579C8.21071 8.96086 8 9.46957 8 10V16C8 16.5304 8.21071 17.0391 8.58579 17.4142C8.96086 17.7893 9.46957 18 10 18C10.5304 18 11.0391 17.7893 11.4142 17.4142C11.7893 17.0391 12 16.5304 12 16V10C12 9.46957 11.7893 8.96086 11.4142 8.58579C11.0391 8.21071 10.5304 8 10 8Z" fill="#FDC736"/>
<path d="M19.5 15C18.9696 15 18.4609 15.2107 18.0858 15.5858C17.7107 15.9609 17.5 16.4696 17.5 17V23C17.5 23.5304 17.7107 24.0391 18.0858 24.4142C18.4609 24.7893 18.9696 25 19.5 25C20.0304 25 20.5391 24.7893 20.9142 24.4142C21.2893 24.0391 21.5 23.5304 21.5 23V17C21.5 16.4696 21.2893 15.9609 20.9142 15.5858C20.5391 15.2107 20.0304 15 19.5 15Z" fill="#FDC736"/>
<path d="M24.3327 3.125C23.8907 3.125 23.4667 3.29884 23.1542 3.60827C22.8416 3.91771 22.666 4.33739 22.666 4.775V9.725C22.666 10.1626 22.8416 10.5823 23.1542 10.8917C23.4667 11.2012 23.8907 11.375 24.3327 11.375C24.7747 11.375 25.1986 11.2012 25.5112 10.8917C25.8238 10.5823 25.9993 10.1626 25.9993 9.725V4.775C25.9993 4.33739 25.8238 3.91771 25.5112 3.60827C25.1986 3.29884 24.7747 3.125 24.3327 3.125Z" fill="#FDC736"/>
</svg>
