<svg width="42" height="37" viewBox="0 0 42 37" fill="none" xmlns="http://www.w3.org/2000/svg">
<path fill-rule="evenodd" clip-rule="evenodd" d="M14.9861 12.9571C16.5754 11.3677 18.731 10.4749 20.9787 10.4749C23.2263 10.4749 25.3819 11.3677 26.9712 12.9571C28.5606 14.5464 29.4534 16.702 29.4534 18.9496C29.4534 21.1973 28.5606 23.3529 26.9712 24.9422C25.3819 26.5315 23.2263 27.4244 20.9787 27.4244C18.731 27.4244 16.5754 26.5315 14.9861 24.9422C13.3968 23.3529 12.5039 21.1973 12.5039 18.9496C12.5039 16.702 13.3968 14.5464 14.9861 12.9571Z" fill="#FDC736"/>
<path d="M37.9298 16.8005C37.4115 13.0724 35.6818 9.618 33.0073 6.96949C30.3327 4.32097 26.8616 2.62522 23.1286 2.1434C19.7948 1.70958 16.407 2.26513 13.3863 3.74099C10.3657 5.21684 7.84541 7.54792 6.13878 10.4444M4.03043 21.0382C4.52058 24.5661 6.09625 27.854 8.53895 30.4462C10.9817 33.0383 14.1704 34.8062 17.6629 35.5047C21.1555 36.2032 24.7789 35.7978 28.0307 34.3445C31.2825 32.8913 34.0015 30.4623 35.8108 27.3943M2 21.0382C2 21.6001 2.22322 22.139 2.62055 22.5364C3.01788 22.9337 3.55678 23.1569 4.11869 23.1569C4.68061 23.1569 5.21951 22.9337 5.61684 22.5364C6.01417 22.139 6.23739 21.6001 6.23739 21.0382C6.23739 20.4763 6.01417 19.9374 5.61684 19.5401C5.21951 19.1428 4.68061 18.9195 4.11869 18.9195C3.55678 18.9195 3.01788 19.1428 2.62055 19.5401C2.22322 19.9374 2 20.4763 2 21.0382ZM35.8108 16.8005C35.8108 17.3624 36.034 17.9013 36.4314 18.2987C36.8287 18.696 37.3676 18.9192 37.9295 18.9192C38.4914 18.9192 39.0303 18.696 39.4277 18.2987C39.825 17.9013 40.0482 17.3624 40.0482 16.8005C40.0482 16.2386 39.825 15.6997 39.4277 15.3024C39.0303 14.905 38.4914 14.6818 37.9295 14.6818C37.3676 14.6818 36.8287 14.905 36.4314 15.3024C36.034 15.6997 35.8108 16.2386 35.8108 16.8005Z" stroke="#434343" stroke-width="2.18555" stroke-linecap="round" stroke-linejoin="round"/>
</svg>
