<svg width="31" height="32" viewBox="0 0 31 32" fill="none" xmlns="http://www.w3.org/2000/svg">
<path d="M25.0318 10.1388C25.0318 14.9368 21.1423 18.8263 16.3444 18.8263C11.5464 18.8263 7.65694 14.9368 7.65694 10.1388C7.65694 5.34087 11.5464 1.45137 16.3444 1.45137C21.1423 1.45137 25.0318 5.34087 25.0318 10.1388Z" stroke="#FAB737" stroke-width="0.899809"/>
<path d="M16.3433 18.6951C21.0687 18.6951 24.8994 14.8643 24.8994 10.1389C24.8994 5.41348 21.0687 1.58276 16.3433 1.58276C11.6178 1.58276 7.78711 5.41348 7.78711 10.1389C7.78711 14.8643 11.6178 18.6951 16.3433 18.6951Z" stroke="#FAB737" stroke-width="1.34971"/>
<path d="M21.5196 10.1393C21.5196 12.9965 19.2033 15.3128 16.3461 15.3128C13.4888 15.3128 11.1726 12.9965 11.1726 10.1393C11.1726 7.28203 13.4888 4.96577 16.3461 4.96577C19.2033 4.96577 21.5196 7.28203 21.5196 10.1393Z" stroke="#FAB737" stroke-width="0.899809"/>
<path d="M16.3449 15.1815C19.1296 15.1815 21.387 12.924 21.387 10.1393C21.387 7.35462 19.1296 5.09717 16.3449 5.09717C13.5602 5.09717 11.3027 7.35462 11.3027 10.1393C11.3027 12.924 13.5602 15.1815 16.3449 15.1815Z" stroke="#FAB737" stroke-width="1.34971"/>
<path d="M15.3247 10.7344L16.5166 9.86646L17.9278 10.7344V17.6934L24.7318 19.4401L24.9177 27.1841L22.9416 30.7767H17.0358L6.84375 19.2247L7.68534 18.2351L9.70406 18.6373L12.4869 21.1287H15.3247V10.7344Z" fill="white"/>
<path d="M23.5303 31.9999H16.5457L5.72598 20.0216C5.62252 19.9072 5.54287 19.7733 5.49167 19.6278C5.44048 19.4823 5.41875 19.3281 5.42777 19.1741C5.43678 19.0201 5.47636 18.8694 5.54419 18.7309C5.61202 18.5923 5.70674 18.4687 5.82284 18.3671C6.26499 17.9799 6.78055 17.6856 7.3388 17.5018C7.89706 17.318 8.48661 17.2484 9.07232 17.2972C9.65803 17.346 10.2279 17.5122 10.7481 17.7859C11.2682 18.0596 11.7279 18.4351 12.0999 18.8902L12.9957 19.9852H14.1791V11.264C14.1954 10.6068 14.4679 9.98209 14.9384 9.52307C15.409 9.06405 16.0403 8.80713 16.6976 8.80713C17.355 8.80713 17.9863 9.06405 18.4568 9.52307C18.9274 9.98209 19.1999 10.6068 19.2162 11.264V16.6816L25.3382 18.3865C25.5833 18.4543 25.7994 18.6006 25.9534 18.803C26.1074 19.0054 26.1907 19.2527 26.1907 19.5071V27.2441C26.1907 27.4549 26.1333 27.6616 26.0248 27.8423L23.5303 31.9999ZM17.2347 30.45H22.6554L24.6447 27.1348V19.7992L17.6702 17.8619V11.264C17.6702 11.0071 17.5681 10.7607 17.3865 10.579C17.2048 10.3974 16.9584 10.2953 16.7015 10.2953C16.4446 10.2953 16.1982 10.3974 16.0165 10.579C15.8349 10.7607 15.7328 11.0071 15.7328 11.264V21.5351H12.2587L10.8972 19.8713C10.4547 19.3305 9.82793 18.9724 9.13737 18.866C8.4468 18.7595 7.74126 18.9122 7.15652 19.2947L17.2347 30.45Z" fill="black"/>
</svg>
