<svg xmlns="http://www.w3.org/2000/svg" width="22.266" height="22.263" viewBox="0 0 22.266 22.263">
  <path id="call_icon" d="M8.978,14.136a18.738,18.738,0,0,0,8.152,8.152l2.721-2.721a1.23,1.23,0,0,1,1.262-.3,14.11,14.11,0,0,0,4.416.705,1.241,1.241,0,0,1,1.237,1.237v4.317a1.241,1.241,0,0,1-1.237,1.237A21.027,21.027,0,0,1,4.5,5.734,1.241,1.241,0,0,1,5.737,4.5h4.329A1.241,1.241,0,0,1,11.3,5.737a14.052,14.052,0,0,0,.705,4.416,1.241,1.241,0,0,1-.309,1.262Z" transform="translate(-4.5 -4.5)" fill="#d1453b"/>
</svg>
