<svg width="60" height="60" viewBox="0 0 60 60" fill="none" xmlns="http://www.w3.org/2000/svg">
<path d="M11.9977 33.368V21.6035L8.94922 23.6173V20.692L12.4182 18.212H15.4036V33.368H11.9977Z" fill="#FAB737"/>
<path d="M24.8994 30.9091C27.0229 30.9091 27.99 29.2769 27.99 26.0973V25.419C27.99 22.3666 26.9388 20.6497 24.8574 20.6497C22.755 20.6497 21.6827 22.2818 21.6827 25.419V26.1397C21.6827 29.3193 22.797 30.9091 24.8994 30.9091ZM24.8153 33.6012C20.8208 33.6012 18.2768 30.8031 18.2768 26.1609V25.4402C18.2768 20.7768 20.9679 18 24.8364 18C28.7048 18 31.3748 20.6708 31.3748 25.3766V26.0761C31.3748 30.7183 28.873 33.6012 24.8153 33.6012Z" fill="#FAB737"/>
<path d="M34.5073 33.463C33.4393 33.463 32.5983 32.6914 32.5983 31.2161V31.1483C32.5983 29.6899 33.4308 28.8335 34.5325 28.8335C35.2389 28.8335 35.6762 29.1472 35.9201 29.5966V26.9258H37.1311V33.3697H35.9201V32.6321C35.693 33.0815 35.1548 33.463 34.5073 33.463ZM34.8689 32.5049C35.508 32.5049 35.9537 32.0725 35.9537 31.1737V31.1059C35.9537 30.2241 35.5669 29.7747 34.9025 29.7747C34.2214 29.7747 33.8429 30.241 33.8429 31.1228V31.1907C33.8429 32.0725 34.2634 32.5049 34.8689 32.5049Z" fill="black"/>
<path d="M39.3993 33.463C38.6004 33.463 37.9276 33.073 37.9276 32.1403C37.9276 31.1059 38.8695 30.7158 40.2151 30.7158H40.7112V30.5378C40.7112 30.0121 40.5514 29.7238 39.9964 29.7238C39.5171 29.7238 39.2984 29.9697 39.2479 30.3513H38.0958C38.1715 29.2999 38.9957 28.8335 40.0721 28.8335C41.1485 28.8335 41.9138 29.2744 41.9138 30.4784V33.3697H40.728V32.8356C40.4757 33.1917 40.0889 33.463 39.3993 33.463ZM39.7609 32.6066C40.2991 32.6066 40.7112 32.3099 40.7112 31.8181V31.445H40.2403C39.5339 31.445 39.1218 31.5976 39.1218 32.0725C39.1218 32.3947 39.3152 32.6066 39.7609 32.6066Z" fill="black"/>
<path d="M43.3923 34.879L44.1659 32.9204L42.4167 28.9353H43.7286L44.7967 31.5976L45.7806 28.9353H46.9495L44.5696 34.879H43.3923Z" fill="black"/>
<path d="M49.2065 33.463C48.0208 33.463 47.3312 32.9373 47.2891 31.9792H48.4244C48.4749 32.3777 48.6683 32.6066 49.1981 32.6066C49.669 32.6066 49.8877 32.4286 49.8877 32.1233C49.8877 31.8181 49.627 31.6909 48.9963 31.5976C47.8273 31.4196 47.3732 31.0804 47.3732 30.2156C47.3732 29.2914 48.2142 28.8335 49.114 28.8335C50.0895 28.8335 50.8212 29.1896 50.9305 30.2071H49.812C49.7447 29.8425 49.5429 29.6729 49.1224 29.6729C48.7272 29.6729 48.5001 29.8595 48.5001 30.1308C48.5001 30.4106 48.7104 30.5208 49.3495 30.6141C50.4511 30.7752 51.0566 31.055 51.0566 32.0046C51.0566 32.9627 50.3671 33.463 49.2065 33.463Z" fill="black"/>
<path d="M11.7656 42.9085V36.8461H15.6256V37.9229H13.128V39.5254H15.1042V40.5598H13.128V42.9085H11.7656Z" fill="black"/>
<path d="M16.2635 42.9085V38.474H17.4829V39.3219C17.7604 38.7284 18.1893 38.4147 18.9042 38.4062V39.5508C18.0043 39.5424 17.4829 39.8391 17.4829 40.687V42.9085H16.2635Z" fill="black"/>
<path d="M21.6492 43.0018C20.3204 43.0018 19.3533 42.1623 19.3533 40.7464V40.6785C19.3533 39.2795 20.3373 38.3723 21.6155 38.3723C22.7508 38.3723 23.76 39.0421 23.76 40.6277V40.9668H20.5896C20.6232 41.7045 21.0184 42.1284 21.6828 42.1284C22.2463 42.1284 22.5238 41.8825 22.5995 41.5095H23.7516C23.6086 42.4676 22.8517 43.0018 21.6492 43.0018ZM20.6064 40.2122H22.5742C22.5322 39.5424 22.1958 39.2202 21.6155 39.2202C21.0689 39.2202 20.6989 39.5848 20.6064 40.2122Z" fill="black"/>
<path d="M26.5849 43.0018C25.2562 43.0018 24.2891 42.1623 24.2891 40.7464V40.6785C24.2891 39.2795 25.273 38.3723 26.5513 38.3723C27.6866 38.3723 28.6957 39.0421 28.6957 40.6277V40.9668H25.5253C25.5589 41.7045 25.9542 42.1284 26.6185 42.1284C27.182 42.1284 27.4595 41.8825 27.5352 41.5095H28.6873C28.5443 42.4676 27.7875 43.0018 26.5849 43.0018ZM25.5421 40.2122H27.51C27.4679 39.5424 27.1315 39.2202 26.5513 39.2202C26.0046 39.2202 25.6346 39.5848 25.5421 40.2122Z" fill="black"/>
<path d="M32.6448 42.9085V37.9144H31.0218V36.8461H35.6387V37.9144H34.0156V42.9085H32.6448Z" fill="black"/>
<path d="M36.0804 42.9085V38.474H37.2998V39.3219C37.5773 38.7284 38.0062 38.4147 38.721 38.4062V39.5508C37.8211 39.5424 37.2998 39.8391 37.2998 40.687V42.9085H36.0804Z" fill="black"/>
<path d="M39.555 42.9085V38.474H40.766V42.9085H39.555ZM40.1521 37.872C39.7653 37.872 39.4625 37.5837 39.4625 37.2022C39.4625 36.8206 39.7653 36.5324 40.1521 36.5324C40.5474 36.5324 40.8501 36.8206 40.8501 37.2022C40.8501 37.5837 40.5474 37.872 40.1521 37.872Z" fill="black"/>
<path d="M43.0724 43.0018C42.2735 43.0018 41.6007 42.6117 41.6007 41.679C41.6007 40.6446 42.5426 40.2546 43.8881 40.2546H44.3843V40.0765C44.3843 39.5508 44.2245 39.2626 43.6695 39.2626C43.1901 39.2626 42.9715 39.5084 42.921 39.89H41.7689C41.8446 38.8386 42.6687 38.3723 43.7451 38.3723C44.8216 38.3723 45.5868 38.8132 45.5868 40.0172V42.9085H44.4011V42.3743C44.1488 42.7304 43.762 43.0018 43.0724 43.0018ZM43.434 42.1454C43.9722 42.1454 44.3843 41.8486 44.3843 41.3568V40.9838H43.9133C43.2069 40.9838 42.7949 41.1364 42.7949 41.6112C42.7949 41.9334 42.9883 42.1454 43.434 42.1454Z" fill="black"/>
<path d="M46.6671 42.9085V36.4645H47.8781V42.9085H46.6671Z" fill="black"/>
</svg>
