<svg width="72" height="15" viewBox="0 0 72 15" fill="none" xmlns="http://www.w3.org/2000/svg">
<path d="M10.1387 10.9629H8.23145V13.916H6.83398V10.9629H0.584961V9.68848L6.68457 0.996094H8.23145V9.63574H10.1387V10.9629ZM6.83398 9.63574V5.36426C6.83398 4.52637 6.86328 3.58008 6.92188 2.52539H6.85156C6.57031 3.08789 6.30664 3.55371 6.06055 3.92285L2.04395 9.63574H6.83398ZM11.8438 12.9844C11.8438 12.5918 11.9316 12.2959 12.1074 12.0967C12.2891 11.8916 12.5469 11.7891 12.8809 11.7891C13.2207 11.7891 13.4844 11.8916 13.6719 12.0967C13.8652 12.2959 13.9619 12.5918 13.9619 12.9844C13.9619 13.3652 13.8652 13.6582 13.6719 13.8633C13.4785 14.0684 13.2148 14.1709 12.8809 14.1709C12.582 14.1709 12.333 14.0801 12.1338 13.8984C11.9404 13.7109 11.8438 13.4062 11.8438 12.9844ZM24.6318 6.55078C24.6318 11.5781 22.6865 14.0918 18.7959 14.0918C18.1162 14.0918 17.5771 14.0332 17.1787 13.916V12.6592C17.6475 12.8115 18.1807 12.8877 18.7783 12.8877C20.1846 12.8877 21.2451 12.4541 21.96 11.5869C22.6807 10.7139 23.0732 9.37793 23.1377 7.5791H23.0322C22.71 8.06543 22.2822 8.4375 21.749 8.69531C21.2158 8.94727 20.6152 9.07324 19.9473 9.07324C18.8105 9.07324 17.9082 8.7334 17.2402 8.05371C16.5723 7.37402 16.2383 6.4248 16.2383 5.20605C16.2383 3.87012 16.6104 2.81543 17.3545 2.04199C18.1045 1.26855 19.0889 0.881836 20.3076 0.881836C21.1807 0.881836 21.9424 1.10742 22.5928 1.55859C23.249 2.00391 23.7529 2.65723 24.1045 3.51855C24.4561 4.37402 24.6318 5.38477 24.6318 6.55078ZM20.3076 2.12988C19.4697 2.12988 18.8223 2.39941 18.3652 2.93848C17.9082 3.47754 17.6797 4.22754 17.6797 5.18848C17.6797 6.03223 17.8906 6.69727 18.3125 7.18359C18.7344 7.66406 19.376 7.9043 20.2373 7.9043C20.7705 7.9043 21.2598 7.7959 21.7051 7.5791C22.1562 7.3623 22.5107 7.06641 22.7686 6.69141C23.0264 6.31641 23.1553 5.92383 23.1553 5.51367C23.1553 4.89844 23.0352 4.33008 22.7949 3.80859C22.5547 3.28711 22.2178 2.87695 21.7842 2.57812C21.3564 2.2793 20.8643 2.12988 20.3076 2.12988ZM39.3008 10.4971C39.3008 11.6279 38.8906 12.5098 38.0703 13.1426C37.25 13.7754 36.1367 14.0918 34.7305 14.0918C33.207 14.0918 32.0352 13.8955 31.2148 13.5029V12.0615C31.7422 12.2842 32.3164 12.46 32.9375 12.5889C33.5586 12.7178 34.1738 12.7822 34.7832 12.7822C35.7793 12.7822 36.5293 12.5947 37.0332 12.2197C37.5371 11.8389 37.7891 11.3115 37.7891 10.6377C37.7891 10.1924 37.6982 9.8291 37.5166 9.54785C37.3408 9.26074 37.042 8.99707 36.6201 8.75684C36.2041 8.5166 35.5684 8.24414 34.7129 7.93945C33.5176 7.51172 32.6621 7.00488 32.1465 6.41895C31.6367 5.83301 31.3818 5.06836 31.3818 4.125C31.3818 3.13477 31.7539 2.34668 32.498 1.76074C33.2422 1.1748 34.2266 0.881836 35.4512 0.881836C36.7285 0.881836 37.9033 1.11621 38.9756 1.58496L38.5098 2.88574C37.4492 2.44043 36.418 2.21777 35.416 2.21777C34.625 2.21777 34.0068 2.3877 33.5615 2.72754C33.1162 3.06738 32.8936 3.53906 32.8936 4.14258C32.8936 4.58789 32.9756 4.9541 33.1396 5.24121C33.3037 5.52246 33.5791 5.7832 33.9658 6.02344C34.3584 6.25781 34.9561 6.51855 35.7588 6.80566C37.1064 7.28613 38.0322 7.80176 38.5361 8.35254C39.0459 8.90332 39.3008 9.61816 39.3008 10.4971ZM44.8203 12.8877C45.0781 12.8877 45.3271 12.8701 45.5674 12.835C45.8076 12.7939 45.998 12.7529 46.1387 12.7119V13.8281C45.9805 13.9043 45.7461 13.9658 45.4355 14.0127C45.1309 14.0654 44.8555 14.0918 44.6094 14.0918C42.7461 14.0918 41.8145 13.1104 41.8145 11.1475V5.41699H40.4346V4.71387L41.8145 4.10742L42.4297 2.05078H43.2734V4.2832H46.0684V5.41699H43.2734V11.0859C43.2734 11.666 43.4111 12.1113 43.6865 12.4219C43.9619 12.7324 44.3398 12.8877 44.8203 12.8877ZM53.9961 13.916L53.7061 12.5449H53.6357C53.1553 13.1484 52.6748 13.5586 52.1943 13.7754C51.7197 13.9863 51.125 14.0918 50.4102 14.0918C49.4551 14.0918 48.7051 13.8457 48.1602 13.3535C47.6211 12.8613 47.3516 12.1611 47.3516 11.2529C47.3516 9.30762 48.9072 8.28809 52.0186 8.19434L53.6533 8.1416V7.54395C53.6533 6.78809 53.4893 6.23145 53.1611 5.87402C52.8389 5.51074 52.3203 5.3291 51.6055 5.3291C50.8027 5.3291 49.8945 5.5752 48.8809 6.06738L48.4326 4.95117C48.9072 4.69336 49.4258 4.49121 49.9883 4.34473C50.5566 4.19824 51.125 4.125 51.6934 4.125C52.8418 4.125 53.6914 4.37988 54.2422 4.88965C54.7988 5.39941 55.0771 6.2168 55.0771 7.3418V13.916H53.9961ZM50.7002 12.8877C51.6084 12.8877 52.3203 12.6387 52.8359 12.1406C53.3574 11.6426 53.6182 10.9453 53.6182 10.0488V9.17871L52.1592 9.24023C50.999 9.28125 50.1611 9.46289 49.6455 9.78516C49.1357 10.1016 48.8809 10.5967 48.8809 11.2705C48.8809 11.7979 49.0391 12.1992 49.3555 12.4746C49.6777 12.75 50.126 12.8877 50.7002 12.8877ZM62.4863 4.10742C62.9141 4.10742 63.2979 4.14258 63.6377 4.21289L63.4355 5.56641C63.0371 5.47852 62.6855 5.43457 62.3809 5.43457C61.6016 5.43457 60.9336 5.75098 60.377 6.38379C59.8262 7.0166 59.5508 7.80469 59.5508 8.74805V13.916H58.0918V4.2832H59.2959L59.4629 6.06738H59.5332C59.8906 5.44043 60.3213 4.95703 60.8252 4.61719C61.3291 4.27734 61.8828 4.10742 62.4863 4.10742ZM71.6533 11.2881C71.6533 12.1846 71.3193 12.876 70.6514 13.3623C69.9834 13.8486 69.0459 14.0918 67.8389 14.0918C66.5615 14.0918 65.5654 13.8896 64.8506 13.4854V12.1318C65.3135 12.3662 65.8086 12.5508 66.3359 12.6855C66.8691 12.8203 67.3818 12.8877 67.874 12.8877C68.6357 12.8877 69.2217 12.7676 69.6318 12.5273C70.042 12.2812 70.2471 11.9092 70.2471 11.4111C70.2471 11.0361 70.083 10.7168 69.7549 10.4531C69.4326 10.1836 68.7998 9.86719 67.8564 9.50391C66.96 9.16992 66.3213 8.87988 65.9404 8.63379C65.5654 8.38184 65.2842 8.09766 65.0967 7.78125C64.915 7.46484 64.8242 7.08691 64.8242 6.64746C64.8242 5.8623 65.1436 5.24414 65.7822 4.79297C66.4209 4.33594 67.2969 4.10742 68.4102 4.10742C69.4473 4.10742 70.4609 4.31836 71.4512 4.74023L70.9326 5.92676C69.9658 5.52832 69.0898 5.3291 68.3047 5.3291C67.6133 5.3291 67.0918 5.4375 66.7402 5.6543C66.3887 5.87109 66.2129 6.16992 66.2129 6.55078C66.2129 6.80859 66.2773 7.02832 66.4062 7.20996C66.541 7.3916 66.7549 7.56445 67.0479 7.72852C67.3408 7.89258 67.9033 8.12988 68.7354 8.44043C69.8779 8.85645 70.6484 9.27539 71.0469 9.69727C71.4512 10.1191 71.6533 10.6494 71.6533 11.2881Z" fill="#60A4FC"/>
</svg>
