<svg width="60" height="60" viewBox="0 0 60 60" fill="none" xmlns="http://www.w3.org/2000/svg">
<path d="M10.1754 37.3918L15.033 24.572H8V22.291H18.56V22.6289L13.0688 37.3918H10.1754Z" fill="#FAB737"/>
<path d="M54.0039 37.3927V31.7129H55.3465V37.3927H54.0039Z" fill="black"/>
<path d="M50.7179 37.4828C50.0089 37.4828 49.3828 37.1359 49.3828 36.2986C49.3828 35.3708 50.1673 35.0088 51.4797 35.0088H51.8569V34.9183C51.8569 34.5411 51.7664 34.2922 51.3364 34.2922C50.9668 34.2922 50.831 34.5109 50.8009 34.7599H49.5337C49.594 33.8095 50.3408 33.3418 51.4194 33.3418C52.5056 33.3418 53.1995 33.7868 53.1995 34.8353V37.3923H51.887V36.9322C51.6985 37.2188 51.3515 37.4828 50.7179 37.4828ZM51.1856 36.5701C51.5702 36.5701 51.8569 36.3514 51.8569 36.012V35.7706H51.5024C50.9593 35.7706 50.7179 35.8762 50.7179 36.2005C50.7179 36.4268 50.8688 36.5701 51.1856 36.5701Z" fill="black"/>
<path d="M48.0908 33.0712C47.6684 33.0712 47.3516 32.777 47.3516 32.3773C47.3516 31.9775 47.6684 31.6758 48.0908 31.6758C48.5132 31.6758 48.8375 31.9775 48.8375 32.3773C48.8375 32.777 48.5132 33.0712 48.0908 33.0712ZM47.4194 37.3933V33.4484H48.7696V37.3933H47.4194Z" fill="black"/>
<path d="M44.1562 37.3924V33.4475H45.5064V34.232C45.7553 33.6436 46.1702 33.3871 46.7812 33.3947V34.6544C45.959 34.6317 45.5064 34.8882 45.5064 35.5218V37.3924H44.1562Z" fill="black"/>
<path d="M40.8759 37.3931V33.1918H39.4805V32H43.8252V33.1918H42.4297V37.3931H40.8759Z" fill="black"/>
<path d="M35.6578 37.4828C34.4208 37.4828 33.5156 36.7587 33.5156 35.4689V35.4085C33.5156 34.1413 34.4585 33.3418 35.6503 33.3418C36.7289 33.3418 37.6567 33.9603 37.6567 35.3784V35.7329H34.8809C34.9186 36.2533 35.2203 36.5551 35.7031 36.5551C36.1481 36.5551 36.3367 36.3514 36.3895 36.0874H37.6567C37.536 36.9775 36.8496 37.4828 35.6578 37.4828ZM34.896 34.9711H36.3442C36.3216 34.4959 36.0877 34.2319 35.6503 34.2319C35.2429 34.2319 34.9639 34.4959 34.896 34.9711Z" fill="black"/>
<path d="M31.15 37.4828C29.913 37.4828 29.0078 36.7587 29.0078 35.4689V35.4085C29.0078 34.1413 29.9507 33.3418 31.1424 33.3418C32.2211 33.3418 33.1488 33.9603 33.1488 35.3784V35.7329H30.3731C30.4108 36.2533 30.7125 36.5551 31.1952 36.5551C31.6403 36.5551 31.8288 36.3514 31.8816 36.0874H33.1488C33.0282 36.9775 32.3418 37.4828 31.15 37.4828ZM30.3882 34.9711H31.8364C31.8138 34.4959 31.5799 34.2319 31.1424 34.2319C30.7351 34.2319 30.456 34.4959 30.3882 34.9711Z" fill="black"/>
<path d="M26.0273 37.3924V33.4475H27.3775V34.232C27.6264 33.6436 28.0413 33.3871 28.6523 33.3947V34.6544C27.8301 34.6317 27.3775 34.8882 27.3775 35.5218V37.3924H26.0273Z" fill="black"/>
<path d="M21.9062 37.3931V32H25.5495V33.1993H23.4601V34.3458H25.1271V35.4848H23.4601V37.3931H21.9062Z" fill="black"/>
<path d="M37.5642 27.4828C36.4403 27.4828 35.7841 27.0152 35.7539 26.1402H36.9985C37.0437 26.4268 37.172 26.5852 37.5566 26.5852C37.8885 26.5852 38.0394 26.457 38.0394 26.2609C38.0394 26.0723 37.8508 25.9818 37.3077 25.9064C36.2517 25.7706 35.8067 25.4613 35.8067 24.6392C35.8067 23.7642 36.5836 23.3418 37.4963 23.3418C38.4693 23.3418 39.1482 23.6737 39.2387 24.6165H38.0168C37.964 24.3525 37.8206 24.2243 37.5114 24.2243C37.2172 24.2243 37.0664 24.3525 37.0664 24.5336C37.0664 24.7221 37.2474 24.7976 37.7301 24.8579C38.8238 24.9937 39.3518 25.2803 39.3518 26.1251C39.3518 27.0604 38.6579 27.4828 37.5642 27.4828Z" fill="black"/>
<path d="M32.178 28.7122L32.8343 26.9924L31.2578 23.4473H32.7211L33.5358 25.5517L34.29 23.4473H35.5799L33.4679 28.7122H32.178Z" fill="black"/>
<path d="M28.4796 27.4828C27.7706 27.4828 27.1445 27.1359 27.1445 26.2986C27.1445 25.3708 27.929 25.0088 29.2414 25.0088H29.6186V24.9183C29.6186 24.5411 29.5281 24.2922 29.0981 24.2922C28.7285 24.2922 28.5928 24.5109 28.5626 24.7599H27.2954C27.3557 23.8095 28.1025 23.3418 29.1811 23.3418C30.2673 23.3418 30.9612 23.7868 30.9612 24.8353V27.3923H29.6488V26.9322C29.4602 27.2188 29.1132 27.4828 28.4796 27.4828ZM28.9473 26.5701C29.332 26.5701 29.6186 26.3514 29.6186 26.012V25.7706H29.2641C28.721 25.7706 28.4796 25.8762 28.4796 26.2005C28.4796 26.4268 28.6305 26.5701 28.9473 26.5701Z" fill="black"/>
<path d="M21.9062 27.3931V22H23.8674C25.7833 22 26.7563 22.9579 26.7563 24.6325V24.6928C26.7563 26.3749 25.7607 27.3931 23.8599 27.3931H21.9062ZM23.4601 26.2014H23.8146C24.7348 26.2014 25.1421 25.7186 25.1421 24.7154V24.6551C25.1421 23.6293 24.7348 23.1918 23.7995 23.1918H23.4601V26.2014Z" fill="black"/>
</svg>
