<svg width="37" height="37" viewBox="0 0 37 37" fill="none" xmlns="http://www.w3.org/2000/svg">
<g clip-path="url(#clip0_862_458)">
<path d="M15.3962 22.3318L15.3971 22.3309L19.2889 18.494L19.289 18.4939C19.3194 18.4639 19.356 18.4396 19.3971 18.4229C19.4382 18.4062 19.4826 18.3974 19.5276 18.3975H19.528H25.3619H25.8619V17.8975V10.96V10.46H25.3619H20.917C20.6871 10.4587 20.4632 10.3918 20.2726 10.2685C20.0818 10.145 19.9332 9.9707 19.8435 9.76786C19.7538 9.56513 19.7264 9.34177 19.7641 9.12466C19.8018 8.90751 19.9033 8.7046 20.0576 8.5411L20.0579 8.54076L27.2814 0.872511L27.2831 0.87066C27.3914 0.754578 27.5236 0.661286 27.6718 0.597255C27.82 0.533216 27.9805 0.5 28.1431 0.5C28.3056 0.5 28.4661 0.533216 28.6143 0.597255L28.8115 0.140996L28.6143 0.597255C28.7625 0.661285 28.8947 0.754577 29.003 0.870664L29.0047 0.872507L36.2282 8.54076L36.2285 8.54109C36.3828 8.7046 36.4843 8.90751 36.522 9.12466C36.5597 9.34177 36.5323 9.56513 36.4426 9.76786C36.3529 9.9707 36.2043 10.145 36.0135 10.2685C35.8229 10.3918 35.599 10.4587 35.3691 10.46H30.9186H30.4186V10.96L30.4186 21.7325L30.4186 21.7337C30.4189 21.8819 30.3895 22.029 30.3318 22.1666C30.274 22.3043 30.189 22.4301 30.081 22.5365C29.9729 22.643 29.8441 22.728 29.7015 22.7863C29.5591 22.8446 29.4062 22.8749 29.2514 22.8753C29.2511 22.8753 29.2509 22.8753 29.2506 22.8753L15.6373 22.8772C15.637 22.8772 15.6368 22.8772 15.6366 22.8772C15.5681 22.8769 15.502 22.8568 15.4465 22.8203C15.391 22.7838 15.3493 22.733 15.325 22.6753C15.3008 22.6178 15.2947 22.5551 15.3069 22.4947C15.3192 22.4342 15.3498 22.3774 15.3962 22.3318Z" fill="#FDC736" stroke="white"/>
<path d="M19.053 5.29397C16.0845 4.71695 13.0133 4.993 10.1953 6.09011C7.37725 7.18722 4.92786 9.06047 3.13096 11.4927C1.33407 13.925 0.263259 16.8167 0.0426374 19.8327C-0.177984 22.8487 0.460619 25.8654 1.88443 28.5333C3.30824 31.2012 5.45896 33.4109 8.08731 34.9065C10.7157 36.402 13.714 37.122 16.7349 36.9831C19.7557 36.8442 22.6753 35.8521 25.1554 34.1217C27.6354 32.3913 29.5743 29.9935 30.7473 27.2063L28.2799 26.1679C27.3032 28.4888 25.6887 30.4854 23.6236 31.9263C21.5585 33.3672 19.1273 34.1933 16.6119 34.309C14.0965 34.4246 11.5998 33.8251 9.41119 32.5798C7.22259 31.3345 5.43171 29.4944 4.24611 27.2729C3.06052 25.0514 2.52876 22.5394 2.71247 20.028C2.89618 17.5166 3.78783 15.1087 5.28409 13.0834C6.78034 11.0581 8.81993 9.49824 11.1664 8.58469C13.513 7.67113 16.0703 7.44127 18.5422 7.92175L19.053 5.29397Z" fill="#464646"/>
</g>
<defs>
<clipPath id="clip0_862_458">
<rect width="37" height="37" fill="white"/>
</clipPath>
</defs>
</svg>
