<svg width="38" height="38" viewBox="0 0 38 38" fill="none" xmlns="http://www.w3.org/2000/svg">
<g clip-path="url(#clip0_652_731)">
<path d="M5.21511e-05 22.2529C-0.00977417 18.4696 1.36931 14.8093 3.8849 11.942C5.59892 9.98832 7.76245 8.4918 10.1738 7.5614C12.438 6.6878 14.9198 6.73205 17.3396 6.91712L18.9158 7.03767C18.9758 7.08517 15.9704 11.1588 15.982 11.0486C12.941 11.0486 10.0246 12.2338 7.8743 14.3436C5.724 16.4534 4.51598 19.3148 4.51598 22.2985C4.51598 25.2821 5.724 28.1436 7.8743 30.2534C10.0246 32.3631 12.941 33.5484 15.982 33.5484C18.315 33.571 20.5975 32.882 22.5142 31.5767C24.4308 30.2714 25.8869 28.4142 26.6812 26.2619C26.7567 26.2619 31.4663 26.3987 31.3966 26.4215C30.4601 29.7337 28.4486 32.6562 25.667 34.7459C22.8854 36.8356 19.4853 37.9787 15.982 38.002C11.7355 37.9884 7.66792 36.3226 4.67172 33.37C1.67551 30.4175 -0.0045862 26.4193 5.21511e-05 22.2529Z" fill="#464646"/>
<path d="M16.0573 24.009C15.8874 24.0086 15.7213 23.9589 15.5802 23.8661C15.4391 23.7732 15.3292 23.6415 15.2643 23.4874C15.1995 23.3333 15.1826 23.1638 15.2158 23.0003C15.2491 22.8368 15.331 22.6866 15.4511 22.5688L19.4481 18.6282C19.5275 18.5498 19.622 18.4877 19.726 18.4453C19.83 18.4029 19.9416 18.3811 20.0542 18.3812H26.0457V11.2562H21.4795C21.1453 11.2546 20.8189 11.1576 20.5399 10.9771C20.261 10.7966 20.0416 10.5403 19.9086 10.2396C19.7755 9.93886 19.7346 9.60662 19.7907 9.28342C19.8468 8.96023 19.9976 8.66004 20.2246 8.41948L27.6434 0.54398C27.8032 0.372564 27.9977 0.235674 28.2144 0.142019C28.4311 0.0483654 28.6653 0 28.9021 0C29.1389 0 29.3731 0.0483654 29.5898 0.142019C29.8065 0.235674 30.001 0.372564 30.1608 0.54398L37.5796 8.41948C37.8066 8.66004 37.9574 8.96023 38.0135 9.28342C38.0696 9.60662 38.0286 9.93886 37.8956 10.2396C37.7626 10.5403 37.5432 10.7966 37.2643 10.9771C36.9853 11.1576 36.6589 11.2546 36.3247 11.2562H31.7526V22.3199C31.7531 22.5409 31.7093 22.76 31.6235 22.9644C31.5377 23.1688 31.4118 23.3547 31.2528 23.5113C31.0939 23.668 30.905 23.7924 30.697 23.8775C30.4891 23.9625 30.2661 24.0066 30.0408 24.0071L16.0573 24.009Z" fill="#FAB737"/>
</g>
<defs>
<clipPath id="clip0_652_731">
<rect width="38" height="38" fill="white"/>
</clipPath>
</defs>
</svg>
