<svg width="60" height="60" viewBox="0 0 60 60" fill="none" xmlns="http://www.w3.org/2000/svg">
<path d="M43.8027 39.7516H17.2367C15.6864 39.8132 14.1748 39.2589 13.0319 38.2096C11.8889 37.1604 11.2076 35.7015 11.1367 34.1516V15.6046C11.2076 14.0547 11.8889 12.5959 13.0319 11.5466C14.1748 10.4974 15.6864 9.94305 17.2367 10.0046H43.8017C45.3513 9.94387 46.862 10.4986 48.0039 11.5478C49.1459 12.5971 49.8263 14.0554 49.8967 15.6046V34.1516C49.8263 35.7006 49.146 37.1589 48.0043 38.208C46.8625 39.2572 45.3521 39.8121 43.8027 39.7516ZM17.2367 12.1616C16.2586 12.1008 15.2959 12.4282 14.5577 13.0728C13.8195 13.7174 13.3653 14.6272 13.2937 15.6046V34.1516C13.3656 35.1289 13.8198 36.0385 14.558 36.6831C15.2961 37.3276 16.2586 37.6552 17.2367 37.5946H43.8017C44.7794 37.6549 45.7415 37.3272 46.4791 36.6826C47.2167 36.038 47.6704 35.1286 47.7417 34.1516V15.6046C47.6704 14.6276 47.2167 13.7182 46.4791 13.0737C45.7415 12.4291 44.7794 12.1014 43.8017 12.1616H17.2367Z" fill="#464646"/>
<path d="M55.1387 50.0085H6.57974C4.90974 50.0085 4.33074 49.2085 4.13474 48.7365C3.93874 48.2645 3.78574 47.2875 4.96674 46.1045L11.2247 39.8345C12.7954 38.4025 14.8043 37.544 16.9247 37.3985H16.9467C17.2332 37.3956 17.509 37.5066 17.7136 37.7071C17.9182 37.9075 18.0348 38.1811 18.0377 38.4675C18.0406 38.7539 17.9297 39.0298 17.7292 39.2344C17.5287 39.439 17.2552 39.5556 16.9687 39.5585C15.4045 39.6904 13.9241 40.3214 12.7457 41.3585L6.48673 47.6285C6.42263 47.6917 6.3622 47.7585 6.30573 47.8285C6.3954 47.8381 6.48556 47.8428 6.57575 47.8425H55.1347C55.2249 47.8428 55.315 47.8381 55.4047 47.8285C55.3482 47.7585 55.2878 47.6917 55.2237 47.6285L48.9657 41.3575C47.7874 40.3204 46.3069 39.6894 44.7427 39.5575C44.4569 39.5515 44.1851 39.4322 43.9872 39.226C43.7892 39.0197 43.6811 38.7434 43.6867 38.4575C43.6875 38.3152 43.7167 38.1745 43.7728 38.0437C43.8288 37.9129 43.9106 37.7947 44.0131 37.696C44.1157 37.5974 44.237 37.5203 44.3699 37.4694C44.5028 37.4185 44.6445 37.3947 44.7867 37.3995C46.9072 37.5449 48.9161 38.4035 50.4867 39.8355L56.7457 46.1055C57.9267 47.2875 57.7737 48.2615 57.5777 48.7375C57.3817 49.2135 56.8087 50.0085 55.1387 50.0085Z" fill="#464646"/>
<path d="M38.328 35.0575H22.045C20.5377 35.0576 19.0844 34.496 17.9689 33.4823C16.8533 32.4686 16.1557 31.0756 16.012 29.5751C15.8683 28.0746 16.289 26.5745 17.1919 25.3675C18.0947 24.1605 19.415 23.3333 20.895 23.0475C20.889 22.9225 20.886 22.7985 20.886 22.6745C20.8857 20.5496 21.6877 18.5029 23.1317 16.944C24.5756 15.3851 26.5549 14.4289 28.6736 14.2668C30.7923 14.1046 32.8941 14.7485 34.5584 16.0695C36.2228 17.3905 37.3269 19.2913 37.65 21.3915C37.875 21.3695 38.102 21.3575 38.328 21.3575C40.1447 21.3575 41.8871 22.0792 43.1717 23.3638C44.4563 24.6484 45.178 26.3907 45.178 28.2075C45.178 30.0242 44.4563 31.7665 43.1717 33.0511C41.8871 34.3358 40.1447 35.0575 38.328 35.0575ZM22.018 25.0985C20.9836 25.1021 19.9931 25.5164 19.2642 26.2503C18.5353 26.9842 18.1279 27.9776 18.1315 29.012C18.1351 30.0463 18.5494 31.0369 19.2833 31.7657C20.0172 32.4946 21.0106 32.902 22.045 32.8985H38.328C39.0019 32.899 39.6681 32.7544 40.2811 32.4743C40.8941 32.1942 41.4395 31.7853 41.8802 31.2754C42.321 30.7655 42.6466 30.1666 42.835 29.5195C43.0234 28.8724 43.0701 28.1924 42.972 27.5256C42.8739 26.8588 42.6332 26.221 42.2663 25.6557C41.8995 25.0903 41.4151 24.6107 40.8462 24.2494C40.2773 23.8881 39.6372 23.6536 38.9695 23.562C38.3018 23.4704 37.6222 23.5238 36.977 23.7185C36.8157 23.7668 36.6454 23.7768 36.4795 23.7475C36.3137 23.7183 36.157 23.6507 36.022 23.5501C35.8869 23.4496 35.7773 23.3188 35.7017 23.1684C35.6262 23.0179 35.5869 22.8518 35.587 22.6835C35.587 22.6755 35.587 22.6665 35.587 22.6575C35.5843 21.7863 35.4002 20.9252 35.0462 20.1292C34.6923 19.3332 34.1763 18.6196 33.5313 18.0341C32.8862 17.4485 32.1262 17.0038 31.2998 16.7283C30.4733 16.4528 29.5985 16.3526 28.7311 16.434C27.8638 16.5154 27.0229 16.7767 26.2621 17.2011C25.5013 17.6256 24.8373 18.2039 24.3125 18.8993C23.7877 19.5946 23.4135 20.3917 23.2139 21.2397C23.0142 22.0877 22.9935 22.968 23.153 23.8245C23.1819 23.9803 23.1761 24.1406 23.1361 24.294C23.0961 24.4474 23.0228 24.5902 22.9215 24.712C22.8201 24.8339 22.6932 24.932 22.5496 24.9993C22.4061 25.0666 22.2495 25.1015 22.091 25.1015L22.018 25.0985Z" fill="#FAB737"/>
</svg>
