<svg width="9" height="15" viewBox="0 0 9 15" fill="none" xmlns="http://www.w3.org/2000/svg">
<path d="M6.19595 7.48996L0.509952 13.171C0.316138 13.3741 0.209586 13.6451 0.213119 13.9258C0.216651 14.2066 0.329988 14.4748 0.528852 14.673C0.727715 14.8712 0.996294 14.9837 1.27706 14.9863C1.55782 14.9889 1.82844 14.8814 2.03095 14.687L8.47195 8.25096C8.66685 8.05566 8.77895 7.79273 8.78491 7.51688C8.79087 7.24103 8.69023 6.9735 8.50395 6.76997L2.03595 0.288965C1.83189 0.105383 1.56529 0.00689602 1.29089 0.01373C1.01649 0.0205641 0.755121 0.132201 0.560456 0.325714C0.365791 0.519227 0.252605 0.77993 0.244143 1.05429C0.23568 1.32864 0.332582 1.59582 0.514951 1.80097L6.19595 7.48996Z" fill="white"/>
</svg>
