<svg width="60" height="60" viewBox="0 0 60 60" fill="none" xmlns="http://www.w3.org/2000/svg">
<path d="M29.5 13.8755C27.5244 13.8755 25.6095 14.2617 23.8084 15.0236C22.0672 15.76 20.5029 16.8149 19.1589 18.1589C17.8149 19.5029 16.76 21.0672 16.0236 22.8084C15.2617 24.6095 14.8755 26.5244 14.8755 28.5C14.8755 30.4756 15.2617 32.3905 16.0236 34.1917C16.76 35.9328 17.8149 37.4971 19.1589 38.8411C20.5029 40.1851 22.0672 41.24 23.8084 41.9765C25.6095 42.7383 27.5244 43.1245 29.5 43.1245C31.4756 43.1245 33.3905 42.7383 35.1917 41.9765C36.9328 41.24 38.4971 40.1851 39.8411 38.8411C41.1851 37.4971 42.24 35.9328 42.9765 34.1917C43.7383 32.3905 44.1245 30.4756 44.1245 28.5C44.1245 26.5244 43.7383 24.6095 42.9765 22.8084C42.24 21.0672 41.1851 19.5029 39.8411 18.1589C38.4971 16.8149 36.9328 15.76 35.1917 15.0236C33.3905 14.2617 31.4756 13.8755 29.5 13.8755ZM29.5 11C39.165 11 47 18.835 47 28.5C47 38.165 39.165 46 29.5 46C19.835 46 12 38.165 12 28.5C12 18.835 19.835 11 29.5 11Z" fill="#464646"/>
<path d="M29.0143 39.1772H30.6326V36.3625C34.1832 36.1391 36.2846 34.0616 36.2846 31.448C36.2846 28.4322 34.2074 27.3153 30.6326 26.7792V22.1997C32.106 22.4231 32.8547 23.205 33.1204 24.5676H35.9706C35.683 21.7976 33.7484 20.3009 30.6326 20.0328V18H29.0143V20.0105C25.7294 20.2115 23.5797 22.0657 23.5797 24.5453C23.5797 27.3823 25.4395 28.5875 29.0143 29.1471V34.1733C26.7197 33.9074 26.1883 32.6766 25.9951 31.2246H23C23.2415 33.9276 24.884 36.0945 29.0143 36.3625V39.1772ZM33.3137 31.7161C33.3137 33.034 32.2509 33.9723 30.6326 34.1733V29.3928C32.734 29.8172 33.3137 30.4427 33.3137 31.7161ZM26.4298 24.3006C26.4298 23.1837 27.35 22.3125 29.0143 22.1337V26.5345C26.8888 26.1313 26.4298 25.4612 26.4298 24.3006Z" fill="#FAB737"/>
<path d="M25.0428 41.8202H34.5234L29.7831 48.5957L25.0428 41.8202Z" fill="#FAB737"/>
<path d="M29.7834 47.1253L32.9381 42.6162H26.6287L29.7834 47.1253ZM29.7834 50.0625L23.4574 41.0206H36.1094L29.7834 50.0625Z" fill="#F3F8FF"/>
</svg>
