<svg width="60" height="60" viewBox="0 0 60 60" fill="none" xmlns="http://www.w3.org/2000/svg">
<path d="M45.3958 45.2639C45.3958 45.7416 45.0067 46.1324 44.5273 46.1324H34.106C34.106 47.141 33.7425 48.0087 33.1804 48.7377H44.5273C46.4448 48.7377 48.0011 47.1814 48.0011 45.2639V27.5963C48.0011 26.6758 47.6346 25.7917 46.9833 25.1404L36.859 15.0178C36.8329 14.9918 36.8036 14.9693 36.7744 14.9469C36.7527 14.9304 36.7313 14.9139 36.7113 14.8962C36.588 14.7851 36.4664 14.6756 36.331 14.5836C36.287 14.554 36.2391 14.5306 36.1911 14.5073C36.1634 14.4937 36.1356 14.4802 36.1086 14.4655C36.0796 14.4491 36.0508 14.4324 36.0218 14.4157C35.9277 14.3612 35.8332 14.3065 35.7335 14.264C35.3913 14.1216 35.0231 14.0504 34.6497 14.0243C34.6154 14.0221 34.5816 14.0175 34.5475 14.0129C34.5005 14.0064 34.4532 14 34.4048 14H23.6847C21.7672 14 20.2109 15.5562 20.2109 17.4738V29.9569C21.0414 29.7956 21.916 29.6921 22.8163 29.6514V17.4738C22.8163 16.9961 23.2053 16.6053 23.6847 16.6053H34.106V24.4213C34.106 26.3388 35.6623 27.8951 37.5798 27.8951H45.3958V45.2639ZM36.7113 18.5524L43.447 25.2898H37.5798C37.1004 25.2898 36.7113 24.899 36.7113 24.4213V18.5524Z" fill="#464646"/>
<path d="M31.3399 48.1846C29.8752 49.5479 26.9963 50.4749 23.6844 50.4749C20.1233 50.4749 17.0627 49.4032 15.7226 47.8695C15.2578 47.3377 15 46.7503 15 46.1327V39.1707C15.5381 39.64 16.152 40.0279 16.7668 40.3353C18.6269 41.2654 21.0751 41.7904 23.6844 41.7904C24.5774 41.7904 25.4516 41.729 26.2897 41.6107C27.209 41.4811 28.085 41.2833 28.8951 41.0236C29.5045 40.8282 30.0767 40.5979 30.602 40.3353C31.2169 40.0279 31.8308 39.64 32.3688 39.1707V46.1327C32.3688 46.8748 31.9965 47.5736 31.3399 48.1846ZM22.816 31.3905C23.1016 31.3764 23.3913 31.3691 23.6844 31.3691C24.5921 31.3691 25.4673 31.4388 26.2897 31.5678C27.2387 31.717 28.1175 31.9453 28.8951 32.2372C31.0044 33.0294 32.3688 34.2908 32.3688 35.7114C32.3688 37.1319 31.0044 38.3933 28.8951 39.1855C28.1175 39.4774 27.2387 39.7057 26.2897 39.8547C25.4673 39.9839 24.5921 40.0536 23.6844 40.0536C18.8882 40.0536 15 38.1095 15 35.7114C15 33.9307 17.1435 32.4005 20.2107 31.7304C21.022 31.5533 21.898 31.4362 22.816 31.3905Z" fill="#FAB737"/>
</svg>
