<svg width="60" height="60" viewBox="0 0 60 60" fill="none" xmlns="http://www.w3.org/2000/svg">
<path d="M46.017 45.0312H38.938V43.4312H46.017C46.5056 43.4347 46.9757 43.2442 47.324 42.9015C47.6724 42.5588 47.8705 42.0919 47.875 41.6032V22.0932C47.8705 21.6028 47.6716 21.1341 47.322 20.7901C46.9723 20.446 46.5005 20.2548 46.01 20.2582H38.5C37.9597 20.2589 37.441 20.4702 37.054 20.8472L36.146 21.7402C35.0192 22.8378 33.509 23.453 31.936 23.4552H14.166C13.6308 23.4512 13.1159 23.6595 12.7339 24.0343C12.3519 24.4092 12.1341 24.9201 12.128 25.4552V41.6412C12.1327 42.1192 12.3268 42.5757 12.6675 42.9109C13.0083 43.246 13.4681 43.4324 13.946 43.4292H39.196V45.0292H13.946C13.0404 45.0364 12.169 44.684 11.5229 44.0494C10.8769 43.4148 10.509 42.5498 10.5 41.6442V25.4602C10.5098 24.4976 10.9008 23.578 11.5875 22.9032C12.2741 22.2284 13.2003 21.8533 14.163 21.8602H31.933C33.0768 21.8589 34.1749 21.4115 34.994 20.6132L35.902 19.7222C36.5963 19.0429 37.5286 18.6618 38.5 18.6602H46.012C46.9297 18.6538 47.8125 19.0117 48.4667 19.6552C49.121 20.2988 49.4933 21.1756 49.502 22.0932V41.6052C49.4933 42.5214 49.1214 43.3967 48.4681 44.039C47.8147 44.6813 46.9332 45.0382 46.017 45.0312Z" fill="#464646"/>
<path d="M13.9465 23.2737H12.3465V18.4628C12.2914 17.5978 12.5794 16.746 13.1481 16.0919C13.7168 15.4379 14.5203 15.0344 15.3845 14.9688H44.3055C45.2584 15.0405 46.1445 15.4851 46.7717 16.206C47.3988 16.927 47.7164 17.8661 47.6555 18.8197V19.5827H46.0555V18.8197C46.0869 18.3232 45.9214 17.8343 45.5947 17.4589C45.2681 17.0836 44.8066 16.8522 44.3105 16.8148H15.3845C14.9767 16.8458 14.5976 17.0363 14.3294 17.3449C14.0611 17.6536 13.9253 18.0556 13.9515 18.4638L13.9465 23.2737Z" fill="#464646"/>
<path d="M45 22H37V24H45V22Z" fill="#FAB737"/>
<path d="M45 26H25V28H45V26Z" fill="#FAB737"/>
</svg>
