<svg width="60" height="60" viewBox="0 0 60 60" fill="none" xmlns="http://www.w3.org/2000/svg">
<path fill-rule="evenodd" clip-rule="evenodd" d="M37.4114 28.0717C38.2847 28.1109 39.1257 28.2746 39.9169 28.5455C43.4546 29.7569 45.998 33.1112 45.998 37.0596C45.998 42.0287 41.9698 46.0567 37.0009 46.0567C35.4184 46.0567 33.9312 45.6482 32.6392 44.9307L32.5683 44.8833C31.2032 43.9703 30.0344 42.7936 29.1306 41.4224C28.4128 40.1302 28.0039 38.6428 28.0039 37.0596C28.0039 32.0907 32.0319 28.0625 37.0009 28.0625C37.1384 28.0625 37.2753 28.0656 37.4114 28.0717ZM36.0126 37.8737V41H37.9874V37.8737H41V36.1263H37.9874V33H36.0126V36.1263H33V37.8737H36.0126Z" fill="#FAB737"/>
<path d="M28.0279 12.1172C29.2282 12.131 30.4239 12.2697 31.5957 12.531C32.1071 12.6451 32.4897 13.0715 32.5477 13.5923L32.8261 16.0895C32.952 17.236 33.92 18.1044 35.0742 18.1056C35.3845 18.1061 35.6913 18.0415 35.978 17.9147L38.2686 16.9084C38.745 16.6991 39.3016 16.8132 39.6573 17.1931C41.3128 18.9611 42.5456 21.0815 43.2632 23.3948C43.4179 23.8936 43.2398 24.4357 42.8194 24.7456L40.7891 26.2422C40.5408 26.4245 40.336 26.653 40.1831 26.9109C39.3909 26.6632 38.5588 26.5053 37.6988 26.4499C38.013 25.5872 38.5766 24.8234 39.335 24.2663L40.6383 23.3057C40.1138 21.9311 39.3693 20.6509 38.4337 19.5154L36.9676 20.1595C36.37 20.4238 35.7238 20.5599 35.0709 20.5589C32.6674 20.5563 30.6501 18.7467 30.3877 16.3593L30.2096 14.7613C29.4809 14.6427 28.7482 14.5788 28.0281 14.5702C27.2856 14.579 26.545 14.6431 25.8128 14.7618L25.6347 16.3599C25.468 17.8474 24.6062 19.1678 23.3148 19.9168C22.0155 20.6759 20.4313 20.7673 19.053 20.1624L17.5838 19.517C16.6484 20.6523 15.9039 21.9323 15.3796 23.3066L16.6844 24.2668C17.8927 25.1546 18.6063 26.5645 18.6063 28.064C18.6063 29.5632 17.8927 30.9731 16.6856 31.8599L15.3788 32.8227C15.9027 34.1995 16.6473 35.4818 17.5834 36.6193L19.0637 35.9709C20.4344 35.3724 22.0077 35.4599 23.3035 36.2069C24.5993 36.9538 25.4636 38.2713 25.6332 39.7611L25.8113 41.3702C26.3244 41.4574 26.8412 41.514 27.3591 41.5397L27.3773 41.5783L26.6551 43.95C25.9 43.884 25.1485 43.7628 24.4066 43.5863C23.9027 43.4664 23.5284 43.0428 23.4714 42.528L23.1953 40.0349C23.1142 39.3223 22.6997 38.6905 22.0783 38.3323C21.457 37.9742 20.7025 37.9321 20.0467 38.2185L17.7462 39.2263C17.2697 39.4351 16.7133 39.3206 16.358 38.9406C14.7026 37.1703 13.4704 35.0475 12.7541 32.7321C12.5998 32.2335 12.7781 31.6916 13.1984 31.382L15.2318 29.8839C15.811 29.4584 16.1531 28.7826 16.1531 28.064C16.1531 27.3452 15.811 26.6694 15.2311 26.2433L13.1989 24.7478C12.778 24.438 12.5995 23.8956 12.7544 23.3964C13.4719 21.0831 14.7048 18.9627 16.3602 17.1947C16.7159 16.8149 17.2725 16.7008 17.7489 16.9101L20.0392 17.9161C20.6982 18.2054 21.4558 18.1617 22.0806 17.7967C22.7026 17.4359 23.1166 16.8016 23.1966 16.0875L23.4748 13.5923C23.5328 13.0712 23.9157 12.6447 24.4275 12.5309C25.6007 12.27 26.7975 12.1313 28.0279 12.1172ZM28.0075 21.93C30.9799 21.93 33.4587 24.0448 34.021 26.8519C33.195 27.093 32.4108 27.4313 31.6814 27.854C31.5731 25.919 29.9695 24.3832 28.0075 24.3832C25.975 24.3832 24.3276 26.0307 24.3276 28.0631C24.3276 30.0252 25.8633 31.6286 27.7984 31.7371C27.3757 32.4665 27.0373 33.2507 26.7962 34.0765C23.9892 33.5144 21.8744 31.0356 21.8744 28.0631C21.8744 24.6759 24.6202 21.93 28.0075 21.93Z" fill="#464646"/>
</svg>
