<svg width="60" height="60" viewBox="0 0 60 60" fill="none" xmlns="http://www.w3.org/2000/svg">
<path d="M14.5625 19.3125C15.8742 19.3125 16.9375 18.2492 16.9375 16.9375C16.9375 15.6258 15.8742 14.5625 14.5625 14.5625C13.2508 14.5625 12.1875 15.6258 12.1875 16.9375C12.1875 18.2492 13.2508 19.3125 14.5625 19.3125Z" stroke="#464646" stroke-width="2"/>
<path d="M18.0547 17.5586H22.0174L25.3709 20.9121" stroke="#464646" stroke-width="2" stroke-linecap="round"/>
<path d="M14.5625 45.4375C15.8742 45.4375 16.9375 44.3742 16.9375 43.0625C16.9375 41.7508 15.8742 40.6875 14.5625 40.6875C13.2508 40.6875 12.1875 41.7508 12.1875 43.0625C12.1875 44.3742 13.2508 45.4375 14.5625 45.4375Z" stroke="#464646" stroke-width="2"/>
<path d="M18.0547 43.7211H22.0174L25.3709 40.3652" stroke="#464646" stroke-width="2" stroke-linecap="round"/>
<path d="M48.5 16.9375C48.5 18.6289 47.1289 20 45.4375 20C43.7461 20 42.375 18.6289 42.375 16.9375C42.375 15.2461 43.7461 13.875 45.4375 13.875C47.1289 13.875 48.5 15.2461 48.5 16.9375Z" stroke="#FAB737"/>
<path d="M45.4375 19.3125C46.7492 19.3125 47.8125 18.2492 47.8125 16.9375C47.8125 15.6258 46.7492 14.5625 45.4375 14.5625C44.1258 14.5625 43.0625 15.6258 43.0625 16.9375C43.0625 18.2492 44.1258 19.3125 45.4375 19.3125Z" stroke="#FAB737" stroke-width="2"/>
<path d="M41.9451 17.5586H37.9824L34.6289 20.9121" stroke="#FAB737" stroke-width="2" stroke-linecap="round"/>
<path d="M45.4375 45.4375C46.7492 45.4375 47.8125 44.3742 47.8125 43.0625C47.8125 41.7508 46.7492 40.6875 45.4375 40.6875C44.1258 40.6875 43.0625 41.7508 43.0625 43.0625C43.0625 44.3742 44.1258 45.4375 45.4375 45.4375Z" stroke="#464646" stroke-width="2"/>
<path d="M41.9451 43.7211H37.9824L34.6289 40.3652" stroke="#464646" stroke-width="2" stroke-linecap="round"/>
<path d="M14.5625 32.375C15.8742 32.375 16.9375 31.3117 16.9375 30C16.9375 28.6883 15.8742 27.625 14.5625 27.625C13.2508 27.625 12.1875 28.6883 12.1875 30C12.1875 31.3117 13.2508 32.375 14.5625 32.375Z" stroke="#464646" stroke-width="2"/>
<path d="M17.6836 30.5938H20.0586" stroke="#464646" stroke-width="2" stroke-linecap="round"/>
<path d="M47.3125 30C47.3125 31.6914 45.9414 33.0625 44.25 33.0625C42.5586 33.0625 41.1875 31.6914 41.1875 30C41.1875 28.3086 42.5586 26.9375 44.25 26.9375C45.9414 26.9375 47.3125 28.3086 47.3125 30Z" stroke="#FAB737"/>
<path d="M44.25 32.375C45.5617 32.375 46.625 31.3117 46.625 30C46.625 28.6883 45.5617 27.625 44.25 27.625C42.9383 27.625 41.875 28.6883 41.875 30C41.875 31.3117 42.9383 32.375 44.25 32.375Z" stroke="#FAB737" stroke-width="2"/>
<path d="M39.4023 30.5938H41.7773" stroke="#FAB737" stroke-width="2" stroke-linecap="round"/>
<path d="M29.9957 28.3158C33.1431 28.3158 35.6945 27.3099 35.6945 26.069C35.6945 24.8282 33.1431 23.8223 29.9957 23.8223C26.8483 23.8223 24.2969 24.8282 24.2969 26.069C24.2969 27.3099 26.8483 28.3158 29.9957 28.3158Z" stroke="#464646" stroke-width="1.5" stroke-miterlimit="10" stroke-linecap="round"/>
<path d="M35.6969 29.1445C35.6969 30.4508 33.1438 31.5195 29.9969 31.5195C26.85 31.5195 24.2969 30.4508 24.2969 29.1445" stroke="#464646" stroke-width="1.5" stroke-miterlimit="10" stroke-linecap="round"/>
<path d="M35.6969 32.0996C35.6969 33.4059 33.1438 34.4746 29.9969 34.4746C26.85 34.4746 24.2969 33.4059 24.2969 32.0996" stroke="#464646" stroke-width="1.5" stroke-miterlimit="10" stroke-linecap="round"/>
<path d="M24.2969 25.8418V34.653C24.2969 36.1505 26.85 37.3641 29.9969 37.3641C33.1438 37.3641 35.6969 36.1505 35.6969 34.653V25.8418" stroke="#464646" stroke-width="1.5" stroke-miterlimit="10" stroke-linecap="round"/>
</svg>
