<svg width="118" height="31" viewBox="0 0 118 31" fill="none" xmlns="http://www.w3.org/2000/svg">
<path d="M37.1441 9.06498H42.7967V10.5414H38.7624V12.1118H42.3039V13.5883H38.7624V16.4713H37.1211L37.1441 9.06498ZM43.9702 8.73633H45.6594V10.1658H43.9702V8.73633ZM44.0171 10.7992H45.6355V16.4932H44.0181V10.7992H44.0171ZM47.1368 10.7992H48.7551V11.5983C48.9372 11.322 49.1841 11.0943 49.4744 10.935C49.7646 10.7757 50.0893 10.6896 50.4204 10.6843C50.6928 10.6717 50.9646 10.7192 51.2165 10.8235C51.4684 10.9278 51.6942 11.0863 51.8778 11.2878C52.0615 11.4892 52.1984 11.7286 52.2789 11.989C52.3594 12.2494 52.3815 12.5242 52.3436 12.7941V16.4743H50.7443V13.3096C50.7443 12.5364 50.3924 12.1608 49.7587 12.1608C49.1489 12.1608 48.7501 12.5603 48.7501 13.3096V16.4743H47.1368V10.7992ZM53.4231 14.855C53.4231 13.5893 54.3617 13.0269 55.7221 13.0269C56.1939 13.0221 56.6627 13.1016 57.1065 13.2616V13.1677C57.1065 12.4874 56.6847 12.1358 55.8871 12.1358C55.3487 12.1373 54.8156 12.2406 54.3157 12.4405L53.9159 11.1978C54.6072 10.8829 55.3615 10.7305 56.121 10.7522C56.4675 10.7254 56.8159 10.7675 57.1461 10.8763C57.4762 10.985 57.7815 11.1581 58.0441 11.3856C58.2598 11.6314 58.4247 11.9175 58.5293 12.2273C58.634 12.5371 58.6763 12.8645 58.6539 13.1907V16.4962H57.0825V15.8869C56.869 16.1274 56.6045 16.3173 56.3084 16.4429C56.0122 16.5686 55.6917 16.6267 55.3703 16.6131C55.1245 16.6367 54.8765 16.6089 54.6421 16.5314C54.4077 16.4539 54.1921 16.3284 54.0089 16.163C53.8257 15.9976 53.679 15.7959 53.5781 15.5706C53.4773 15.3454 53.4245 15.1017 53.4231 14.855ZM57.1295 14.4803V14.1986C56.8026 14.061 56.4517 13.9893 56.097 13.9879C55.4163 13.9879 54.9715 14.2696 54.9715 14.787V14.81C54.9715 15.2555 55.3233 15.4903 55.8631 15.4903C56.6127 15.4873 57.1295 15.0667 57.1295 14.4803ZM60.0383 10.8002H61.6566V11.5993C61.8387 11.323 62.0856 11.0953 62.3758 10.936C62.666 10.7767 62.9908 10.6906 63.3219 10.6853C63.5943 10.6727 63.8661 10.7202 64.118 10.8245C64.3699 10.9288 64.5957 11.0873 64.7793 11.2888C64.9629 11.4902 65.0999 11.7296 65.1804 11.99C65.2609 12.2504 65.283 12.5252 65.2451 12.7951V16.4753H63.6457V13.3106C63.6457 12.5374 63.2939 12.1618 62.6602 12.1618C62.0504 12.1618 61.6516 12.5613 61.6516 13.3106V16.4753H60.0333L60.0383 10.8002ZM66.3946 13.6832C66.3872 13.2902 66.4593 12.8998 66.6064 12.5354C66.7535 12.1709 66.9726 11.8398 67.2507 11.5619C67.5288 11.284 67.8601 11.065 68.2248 10.918C68.5895 10.771 68.9801 10.699 69.3733 10.7063C69.8011 10.6793 70.2293 10.7521 70.6241 10.9189C71.0189 11.0857 71.3696 11.3419 71.6483 11.6673L70.6627 12.7222C70.5079 12.5278 70.3118 12.3702 70.0887 12.2607C69.8655 12.1512 69.6209 12.0925 69.3723 12.0888C69.1792 12.0981 68.9899 12.1457 68.8154 12.2288C68.6409 12.3119 68.4847 12.4288 68.3559 12.5728C68.2271 12.7168 68.1282 12.885 68.065 13.0676C68.0018 13.2501 67.9756 13.4434 67.9879 13.6362V13.6592C67.9729 13.8594 67.9994 14.0606 68.0656 14.2501C68.1319 14.4396 68.2365 14.6135 68.373 14.7608C68.5094 14.9082 68.6748 15.0258 68.8588 15.1065C69.0427 15.1871 69.2414 15.229 69.4423 15.2296C69.6912 15.223 69.9362 15.1655 70.1621 15.0607C70.388 14.9559 70.59 14.806 70.7557 14.6202L71.6943 15.5812C71.4125 15.9198 71.0564 16.189 70.6538 16.3679C70.2511 16.5469 69.8126 16.6308 69.3723 16.6131C68.9821 16.6238 68.5939 16.5556 68.2307 16.4126C67.8676 16.2697 67.5371 16.0549 67.259 15.7812C66.981 15.5075 66.7611 15.1805 66.6125 14.8198C66.464 14.4592 66.3899 14.0732 66.3946 13.6832ZM72.2821 13.6832C72.2623 13.3008 72.3204 12.9184 72.4527 12.5591C72.5851 12.1999 72.789 11.8711 73.0521 11.5929C73.3153 11.3146 73.6321 11.0925 73.9836 10.9401C74.335 10.7878 74.7137 10.7082 75.0968 10.7063C76.996 10.7063 77.8647 12.1827 77.8647 13.803C77.868 13.944 77.8603 14.0849 77.8417 14.2246H73.8774C73.9302 14.549 74.1003 14.8428 74.3555 15.0501C74.6107 15.2575 74.9332 15.364 75.2618 15.3494C75.5208 15.3542 75.7779 15.3044 76.0164 15.2034C76.2549 15.1024 76.4695 14.9523 76.6462 14.763L77.5608 15.5832C77.1652 16.0457 76.6381 16.3769 76.0495 16.5328C75.461 16.6887 74.8389 16.6618 74.266 16.4558C73.6931 16.2498 73.1966 15.8743 72.8423 15.3794C72.4881 14.8845 72.293 14.2936 72.283 13.6852L72.2821 13.6832ZM76.3163 13.1907C76.3161 12.871 76.1903 12.5641 75.966 12.3362C75.7416 12.1083 75.4367 11.9775 75.1168 11.972C74.4361 11.972 74.0173 12.4405 73.8734 13.1907H76.3163ZM78.6383 15.746L79.319 14.6911C79.8372 15.0973 80.4677 15.3348 81.1253 15.3714C81.5941 15.3714 81.806 15.2076 81.806 14.9499V14.9299C81.806 14.5782 81.2432 14.4614 80.6335 14.2736C79.8338 14.0388 78.9442 13.6642 78.9442 12.5623V12.5324C78.9513 12.2729 79.0124 12.0177 79.1236 11.7832C79.2349 11.5486 79.3937 11.3397 79.5902 11.1699C79.7866 11.0001 80.0163 10.873 80.2646 10.7968C80.5129 10.7206 80.7743 10.6969 81.0323 10.7273C81.7921 10.7356 82.5333 10.9635 83.1664 11.3836L82.5566 12.5084C82.0922 12.2052 81.5607 12.0201 81.0083 11.969C80.6085 11.969 80.4216 12.1328 80.4216 12.3685V12.3915C80.4216 12.7202 80.9613 12.86 81.5711 13.0718C82.3707 13.3295 83.2833 13.7281 83.2833 14.7601V14.783C83.2833 16.0487 82.3447 16.6111 81.1023 16.6111C80.2099 16.5911 79.3472 16.2874 78.6393 15.744L78.6383 15.746ZM84.4088 12.7921C84.3974 12.2871 84.4872 11.7849 84.6732 11.3151C84.8591 10.8454 85.1372 10.4176 85.4913 10.0571C85.8453 9.69652 86.2681 9.41051 86.7346 9.21593C87.201 9.02135 87.7018 8.92213 88.2072 8.92413C88.7085 8.91905 89.2058 9.01476 89.6693 9.20558C90.1329 9.3964 90.5533 9.67843 90.9056 10.0349C91.2579 10.3914 91.5349 10.815 91.7201 11.2806C91.9053 11.7462 91.9949 12.2442 91.9836 12.7452V12.7681C91.9927 13.2714 91.901 13.7714 91.7139 14.2387C91.5268 14.706 91.2482 15.1312 90.8943 15.4894C90.5404 15.8475 90.1184 16.1313 89.6532 16.3242C89.188 16.517 88.6889 16.6149 88.1852 16.6121C87.6835 16.6192 87.1855 16.5248 86.7211 16.3347C86.2567 16.1447 85.8355 15.8628 85.4828 15.506C85.1301 15.1493 84.8532 14.725 84.6687 14.2586C84.4841 13.7923 84.3957 13.2934 84.4088 12.7921ZM91.117 12.7921C91.134 12.3949 91.0711 11.9983 90.9319 11.6259C90.7927 11.2534 90.5801 10.9127 90.3067 10.6239C90.0332 10.3351 89.7046 10.1041 89.3402 9.94457C88.9758 9.78507 88.583 9.70031 88.1852 9.69533C87.7918 9.6974 87.4029 9.77871 87.0417 9.9344C86.6804 10.0901 86.3543 10.317 86.0828 10.6015C85.8112 10.886 85.5999 11.2223 85.4614 11.5902C85.3228 11.9582 85.26 12.3503 85.2765 12.7432V12.7661C85.2622 13.1614 85.3272 13.5556 85.4677 13.9253C85.6082 14.2951 85.8213 14.6331 86.0946 14.9192C86.3678 15.2054 86.6956 15.434 87.0586 15.5917C87.4216 15.7493 87.8125 15.8327 88.2082 15.8369C88.602 15.8369 88.9917 15.7572 89.3538 15.6024C89.7158 15.4476 90.0428 15.2211 90.3147 14.9365C90.5867 14.6519 90.7981 14.3151 90.9362 13.9465C91.0742 13.578 91.1351 13.1852 91.117 12.7921ZM93.6269 11.011H94.4476V11.972C94.6322 11.6384 94.9046 11.3616 95.2353 11.1716C95.566 10.9816 95.9424 10.8856 96.3237 10.8941C96.6134 10.8779 96.903 10.9247 97.1729 11.031C97.4427 11.1374 97.6863 11.3009 97.8869 11.5103C98.0874 11.7197 98.2403 11.97 98.3349 12.244C98.4295 12.5181 98.4636 12.8093 98.4348 13.0978V16.4942H97.6142V13.2826C97.6408 13.0697 97.6209 12.8535 97.5557 12.6491C97.4905 12.4447 97.3817 12.2568 97.2367 12.0985C97.0917 11.9403 96.9141 11.8153 96.7161 11.7324C96.5181 11.6495 96.3044 11.6106 96.0899 11.6183C95.8667 11.6133 95.6449 11.6547 95.4386 11.74C95.2323 11.8252 95.046 11.9525 94.8916 12.1137C94.7373 12.2748 94.6181 12.4663 94.5419 12.676C94.4656 12.8857 94.4338 13.1089 94.4486 13.3315V16.4733H93.6279V11.011H93.6269ZM100.242 8.73733H101.063V16.4962H100.242V8.73733ZM102.987 8.90116H103.925V9.79223H102.987V8.90116ZM103.034 11.011H103.855V16.4962H103.034V11.011ZM105.755 11.011H106.575V11.972C106.76 11.6384 107.032 11.3616 107.363 11.1716C107.694 10.9816 108.07 10.8856 108.452 10.8941C108.741 10.8779 109.031 10.9247 109.301 11.031C109.57 11.1374 109.814 11.3009 110.015 11.5103C110.215 11.7197 110.368 11.97 110.463 12.244C110.557 12.5181 110.591 12.8093 110.563 13.0978V16.4942H109.742V13.2826C109.769 13.0697 109.749 12.8535 109.684 12.6491C109.618 12.4447 109.51 12.2568 109.365 12.0985C109.22 11.9403 109.042 11.8153 108.844 11.7324C108.646 11.6495 108.432 11.6106 108.218 11.6183C107.994 11.6131 107.772 11.6544 107.566 11.7397C107.36 11.8249 107.173 11.9521 107.019 12.1133C106.864 12.2745 106.745 12.466 106.669 12.6758C106.592 12.8855 106.561 13.1088 106.575 13.3315V16.4733H105.755V11.011ZM111.971 13.7541C111.95 13.3916 112.002 13.0286 112.124 12.6864C112.245 12.3442 112.434 12.0297 112.679 11.7612C112.923 11.4928 113.219 11.2758 113.549 11.1229C113.878 10.9701 114.235 10.8845 114.598 10.8711C114.963 10.877 115.322 10.9591 115.653 11.112C115.984 11.2649 116.279 11.4853 116.52 11.759C116.761 12.0328 116.942 12.3538 117.051 12.7015C117.16 13.0492 117.196 13.4159 117.155 13.7781V14.0358H112.789C112.803 14.5345 113.013 15.0077 113.372 15.3539C113.732 15.7 114.213 15.8917 114.712 15.8879C115.04 15.8914 115.365 15.8242 115.664 15.6907C115.964 15.5573 116.231 15.3608 116.448 15.1147L116.964 15.5602C116.69 15.8899 116.345 16.1537 115.955 16.3324C115.566 16.511 115.141 16.5998 114.712 16.5921C114.341 16.6009 113.972 16.5328 113.629 16.3921C113.286 16.2514 112.976 16.0413 112.718 15.7748C112.46 15.5084 112.26 15.1915 112.131 14.844C112.002 14.4966 111.946 14.1262 111.967 13.7561L111.971 13.7541ZM116.334 13.4494C116.342 13.2107 116.303 12.9727 116.219 12.7491C116.135 12.5255 116.008 12.3207 115.844 12.1465C115.681 11.9723 115.485 11.832 115.267 11.7338C115.049 11.6357 114.814 11.5815 114.575 11.5744C114.094 11.5997 113.642 11.8082 113.31 12.157C112.978 12.5058 112.793 12.9683 112.793 13.4494H116.334Z" fill="#434343"/>
<path d="M7.80289 24.8399C6.64846 24.9017 5.4951 24.7 4.43031 24.25C3.36552 23.7999 2.41728 23.1135 1.65752 22.2426C0.730392 21.0295 0.220263 19.5494 0.203141 18.023C0.201133 17.1041 0.38508 16.1944 0.743922 15.3484C1.10276 14.5024 1.62909 13.7376 2.29125 13.1001L2.31424 13.0772C3.21907 12.2721 4.34704 11.7604 5.54906 11.6097C6.75108 11.459 7.97057 11.6763 9.04636 12.233C9.1991 11.203 9.61054 10.2285 10.2423 9.40046C10.874 8.57242 11.7054 7.91789 12.6588 7.49798C13.5927 7.03057 14.6311 6.81099 15.6744 6.86032C16.7177 6.90965 17.7307 7.22624 18.6163 7.77968C19.4084 8.2972 20.0739 8.98618 20.5634 9.79559C20.6681 9.98489 20.6941 10.2077 20.6359 10.416C20.5776 10.6243 20.4398 10.8014 20.252 10.9091C20.0643 11.0167 19.8418 11.0463 19.6324 10.9914C19.4231 10.9365 19.2437 10.8016 19.133 10.6157C18.7589 10.0181 18.2537 9.51321 17.6557 9.13926C16.997 8.7543 16.2518 8.54176 15.4891 8.52132C14.7264 8.50089 13.9709 8.67324 13.2925 9.02239C12.4494 9.43441 11.7424 10.0799 11.2558 10.882C10.7692 11.6841 10.5234 12.609 10.5477 13.5467L10.6177 15.188L9.25727 14.2499C8.61235 13.8452 7.90768 13.5445 7.16916 13.3589C6.52135 13.1779 5.83778 13.1669 5.18449 13.327C4.53121 13.4871 3.93028 13.8129 3.43976 14.2729C2.92803 14.7536 2.52167 15.3351 2.24638 15.9808C1.97109 16.6265 1.83287 17.3222 1.84044 18.024C1.85538 19.1885 2.2506 20.3163 2.96596 21.2357C3.56007 21.9214 4.30644 22.4588 5.14543 22.8048C5.98442 23.1509 6.89277 23.296 7.79789 23.2286C11.9501 23.2286 13.5444 20.3686 14.9518 17.8132C15.0928 17.5785 15.2097 17.3447 15.3517 17.114C16.951 14.3249 18.8931 11.6047 23.5611 11.5578C28.4171 11.5578 31.0439 14.9802 31.0439 18.1918C31.0553 19.044 30.8977 19.89 30.5801 20.681C30.2626 21.472 29.7915 22.1923 29.1939 22.8003C28.5964 23.4084 27.8842 23.8922 27.0986 24.2237C26.313 24.5552 25.4695 24.728 24.6167 24.732C23.2343 24.6386 21.9002 24.1861 20.7463 23.4194C20.5719 23.2926 20.4539 23.1027 20.4176 22.8902C20.3813 22.6777 20.4296 22.4595 20.5521 22.2821C20.6746 22.1046 20.8616 21.9821 21.0733 21.9405C21.2849 21.899 21.5044 21.9418 21.685 22.0598C22.5725 22.6371 23.5866 22.9911 24.6407 23.0917C25.923 23.0715 27.1454 22.5457 28.0416 21.6289C28.9378 20.7121 29.4353 19.4785 29.4256 18.1968C29.4226 17.5543 29.288 16.9192 29.0301 16.3307C28.7722 15.7421 28.3966 15.2125 27.9263 14.7744C26.7474 13.7087 25.1987 13.1452 23.6101 13.204C19.8117 13.251 18.2854 15.3608 16.831 17.9161C16.7141 18.1269 16.5731 18.3617 16.4562 18.5964C14.9078 21.2457 12.9147 24.8559 7.80089 24.8559L7.80289 24.8399Z" fill="#434343"/>
<path d="M37.7031 21.3244H39.2515C39.4312 21.3115 39.6116 21.3361 39.7812 21.3966C39.9509 21.4572 40.1061 21.5523 40.237 21.676C40.332 21.7758 40.4059 21.8936 40.4543 22.0225C40.5027 22.1514 40.5247 22.2887 40.5189 22.4262C40.5277 22.6703 40.4504 22.9098 40.3003 23.1026C40.1503 23.2955 39.9372 23.4295 39.6983 23.4811L40.6369 24.7938H39.9102L39.0655 23.595H38.3149V24.7938H37.7051L37.7031 21.3244ZM39.2025 23.0356C39.6243 23.0356 39.9022 22.8008 39.9022 22.4492C39.9022 22.0746 39.6443 21.8868 39.2025 21.8868H38.3109V23.0356H39.2025ZM42.1582 21.3244H44.7151V21.8638H42.768V22.7549H44.5042V23.2943H42.768V24.2084H44.7381V24.7478H42.1582V21.3244ZM46.0286 21.3244H46.7093L47.7418 23.9736L48.7744 21.3244H49.4311L47.9987 24.7938H47.459L46.0286 21.3244ZM50.9545 21.3244H51.5642V24.7708H50.9545V21.3244ZM53.3704 21.3244H55.9273V21.8638H53.9802V22.7549H55.7154V23.2943H53.9802V24.2084H55.9503V24.7478H53.3704V21.3244ZM57.2877 21.3244H57.9445L58.7651 23.8797L59.6097 21.3244H60.1255L60.9702 23.8797L61.7908 21.3244H62.4246L61.2251 24.7938H60.7093L59.8646 22.3093L59.02 24.7938H58.4802L57.2877 21.3244ZM63.597 24.2783L63.9719 23.8567C64.2619 24.1365 64.6474 24.2957 65.0504 24.3023C65.4253 24.3023 65.6602 24.1145 65.6602 23.8807C65.6602 23.623 65.5192 23.5061 64.8865 23.3653C64.1598 23.1774 63.737 22.9657 63.737 22.3333C63.7434 22.1887 63.7794 22.0469 63.8427 21.9166C63.9061 21.7864 63.9954 21.6705 64.1052 21.5761C64.2151 21.4816 64.3431 21.4107 64.4814 21.3676C64.6197 21.3245 64.7654 21.3101 64.9095 21.3254C65.3592 21.3249 65.7964 21.4731 66.153 21.7469L65.8241 22.2154C65.5604 21.9948 65.2293 21.8707 64.8855 21.8638C64.5336 21.8638 64.3227 22.0516 64.3227 22.2634C64.3227 22.5211 64.4867 22.638 65.1434 22.8028C65.8701 22.9906 66.2429 23.2484 66.2429 23.8108C66.2429 24.4671 65.7271 24.8427 65.0234 24.8427C64.4975 24.8184 63.9945 24.6207 63.593 24.2803L63.597 24.2783ZM70.2352 21.3244H72.7921V21.8868H70.822V22.8248H72.5572V23.3872H70.822V24.7938H70.2122V21.3244H70.2352ZM74.1755 23.0596C74.1708 22.7016 74.2726 22.3502 74.4682 22.0502C74.6637 21.7503 74.9441 21.5152 75.2737 21.3749C75.6033 21.2346 75.9673 21.1954 76.3192 21.2623C76.6711 21.3292 76.9952 21.4992 77.2502 21.7507C77.5052 22.0021 77.6796 22.3237 77.7513 22.6745C77.823 23.0253 77.7886 23.3895 77.6527 23.7207C77.5167 24.052 77.2852 24.3353 76.9877 24.5347C76.6902 24.7342 76.34 24.8407 75.9818 24.8407C75.7449 24.8469 75.5092 24.8052 75.2889 24.7182C75.0686 24.6311 74.8681 24.5004 74.6996 24.3339C74.5311 24.1675 74.398 23.9687 74.3083 23.7495C74.2185 23.5304 74.1741 23.2953 74.1775 23.0586L74.1755 23.0596ZM77.1542 23.0596C77.1611 22.9005 77.1359 22.7417 77.0803 22.5925C77.0247 22.4433 76.9398 22.3067 76.8305 22.1909C76.7212 22.075 76.5898 21.9823 76.444 21.918C76.2982 21.8538 76.141 21.8194 75.9818 21.8169C75.7395 21.8074 75.5 21.8702 75.2936 21.9973C75.0873 22.1244 74.9235 22.3101 74.8231 22.5306C74.7227 22.7511 74.6903 22.9965 74.73 23.2354C74.7697 23.4744 74.8797 23.6962 75.046 23.8724C75.2123 24.0487 75.4274 24.1715 75.6638 24.2251C75.9001 24.2787 76.1472 24.2608 76.3733 24.1736C76.5995 24.0864 76.7945 23.9339 76.9336 23.7355C77.0727 23.5371 77.1495 23.3018 77.1542 23.0596ZM79.4063 21.3244H80.9546C81.1343 21.3115 81.3147 21.3361 81.4844 21.3966C81.6541 21.4572 81.8093 21.5523 81.9402 21.676C82.0351 21.7758 82.109 21.8936 82.1575 22.0225C82.2059 22.1514 82.2279 22.2887 82.2221 22.4262C82.2309 22.6703 82.1535 22.9098 82.0035 23.1026C81.8535 23.2955 81.6403 23.4295 81.4014 23.4811L82.34 24.7938H81.6133L80.7687 23.595H80.018V24.7938H79.4083L79.4063 21.3244ZM80.8836 23.0356C81.3055 23.0356 81.5833 22.8008 81.5833 22.4492C81.5833 22.0746 81.3255 21.8868 80.8836 21.8868H79.992V23.0356H80.8836ZM86.2084 21.3244H87.7567C88.0825 21.3042 88.4031 21.4138 88.6483 21.6291C88.7259 21.7002 88.787 21.7874 88.8276 21.8845C88.8681 21.9816 88.8871 22.0863 88.8832 22.1915C88.8868 22.3546 88.8419 22.5151 88.7541 22.6528C88.6664 22.7904 88.5399 22.8989 88.3904 22.9647C88.584 23.0051 88.7576 23.1112 88.8817 23.2651C89.0058 23.419 89.0728 23.6111 89.0711 23.8088C89.0711 24.4182 88.5554 24.7468 87.8047 24.7468H86.2054L86.2084 21.3244ZM88.2965 22.3093C88.2965 22.0276 88.0856 21.8638 87.6867 21.8638H86.8191V22.7779H87.6398C88.0166 22.7759 88.2985 22.614 88.2985 22.3093H88.2965ZM87.7807 23.2943H86.8191V24.2323H87.8277C88.2495 24.2323 88.4844 24.0685 88.4844 23.7638C88.4844 23.4592 88.2515 23.2933 87.7817 23.2933L87.7807 23.2943ZM90.5955 23.3173V21.3244H91.2052V23.2933C91.2052 23.9267 91.5341 24.2783 92.0729 24.2783C92.6116 24.2783 92.9405 23.9496 92.9405 23.3173V21.3244H93.5502V23.2703C93.5763 23.4736 93.5567 23.6802 93.4928 23.8749C93.4288 24.0696 93.3222 24.2477 93.1806 24.3959C93.039 24.5442 92.8661 24.6591 92.6744 24.732C92.4828 24.805 92.2773 24.8343 92.0729 24.8177C91.8724 24.8354 91.6706 24.8084 91.4818 24.7389C91.293 24.6693 91.1219 24.5589 90.9809 24.4154C90.8399 24.272 90.7324 24.0992 90.6661 23.9093C90.5998 23.7194 90.5764 23.5173 90.5975 23.3173H90.5955ZM95.0286 24.2783L95.4034 23.8567C95.6935 24.1365 96.0789 24.2957 96.482 24.3023C96.8568 24.3023 97.0917 24.1145 97.0917 23.8807C97.0917 23.623 96.9508 23.5061 96.318 23.3653C95.5913 23.1774 95.1685 22.9657 95.1685 22.3333C95.1751 22.1887 95.2112 22.047 95.2745 21.9168C95.3379 21.7866 95.4273 21.6708 95.5371 21.5764C95.6469 21.482 95.7748 21.4111 95.9131 21.3679C96.0514 21.3247 96.197 21.3102 96.341 21.3254C96.7907 21.3249 97.2279 21.4731 97.5845 21.7469L97.2556 22.2154C96.992 21.9947 96.6609 21.8707 96.317 21.8638C95.9652 21.8638 95.7543 22.0516 95.7543 22.2634C95.7543 22.5211 95.9182 22.638 96.5749 22.8028C97.3016 22.9906 97.6745 23.2484 97.6745 23.8108C97.6745 24.4671 97.1587 24.8427 96.455 24.8427C95.9291 24.8184 95.4261 24.6207 95.0246 24.2803L95.0286 24.2783ZM99.3447 21.3244H99.9545V24.7708H99.3447V21.3244ZM101.761 21.3244H102.323L104.177 23.7159V21.3244H104.763V24.7708H104.248L102.348 22.3093V24.7738H101.762L101.761 21.3244ZM106.546 21.3244H109.103V21.8638H107.155V22.7549H108.891V23.2943H107.155V24.2084H109.126V24.7478H106.546V21.3244ZM110.486 24.2783L110.861 23.8567C111.151 24.1365 111.536 24.2957 111.939 24.3023C112.314 24.3023 112.549 24.1145 112.549 23.8807C112.549 23.623 112.408 23.5061 111.775 23.3653C111.049 23.1774 110.626 22.9657 110.626 22.3333C110.632 22.1887 110.668 22.0469 110.732 21.9166C110.795 21.7864 110.884 21.6705 110.994 21.5761C111.104 21.4816 111.232 21.4107 111.37 21.3676C111.509 21.3245 111.654 21.3101 111.798 21.3254C112.248 21.3249 112.685 21.4731 113.042 21.7469L112.713 22.2154C112.449 21.9947 112.118 21.8707 111.774 21.8638C111.423 21.8638 111.212 22.0516 111.212 22.2634C111.212 22.5211 111.376 22.638 112.032 22.8028C112.759 22.9906 113.132 23.2484 113.132 23.8108C113.132 24.4671 112.616 24.8427 111.912 24.8427C111.388 24.8154 110.887 24.6155 110.488 24.2743L110.486 24.2783ZM114.473 24.2783L114.849 23.8567C115.139 24.1365 115.525 24.2957 115.928 24.3023C116.303 24.3023 116.537 24.1145 116.537 23.8807C116.537 23.623 116.396 23.5061 115.764 23.3653C115.037 23.1774 114.614 22.9657 114.614 22.3333C114.621 22.1887 114.657 22.0469 114.72 21.9166C114.783 21.7864 114.873 21.6705 114.982 21.5761C115.092 21.4816 115.22 21.4107 115.359 21.3676C115.497 21.3245 115.643 21.3101 115.787 21.3254C116.236 21.3249 116.674 21.4731 117.03 21.7469L116.701 22.2154C116.438 21.9948 116.107 21.8707 115.763 21.8638C115.411 21.8638 115.2 22.0516 115.2 22.2634C115.2 22.5211 115.364 22.638 116.021 22.8028C116.747 22.9906 117.12 23.2484 117.12 23.8108C117.12 24.4671 116.604 24.8427 115.901 24.8427C115.376 24.8154 114.875 24.6156 114.476 24.2743L114.473 24.2783Z" fill="#434343"/>
</svg>
