<svg width="57" height="60" viewBox="0 0 57 60" fill="none" xmlns="http://www.w3.org/2000/svg">
<path fill-rule="evenodd" clip-rule="evenodd" d="M26.9692 25.6367L26.9692 31.7022C25.9983 32.0453 25.18 32.7206 24.6588 33.6088C24.1377 34.4969 23.9474 35.5408 24.1214 36.5557C24.2955 37.5706 24.8228 38.4914 25.6101 39.1551C26.3973 39.8189 27.3939 40.1829 28.4237 40.1829C29.4535 40.1829 30.4501 39.8189 31.2374 39.1551C32.0247 38.4914 32.5519 37.5706 32.726 36.5557C32.9001 35.5408 32.7097 34.4969 32.1886 33.6088C31.6675 32.7206 30.8491 32.0453 29.8782 31.7022L29.8782 25.6367L26.9692 25.6367ZM26.9692 35.8186C26.9692 35.5309 27.0545 35.2497 27.2143 35.0105C27.3742 34.7713 27.6013 34.5849 27.8671 34.4748C28.1329 34.3647 28.4253 34.3359 28.7075 34.392C28.9896 34.4481 29.2488 34.5867 29.4522 34.7901C29.6556 34.9935 29.7941 35.2527 29.8503 35.5348C29.9064 35.8169 29.8776 36.1094 29.7675 36.3752C29.6574 36.6409 29.471 36.8681 29.2318 37.0279C28.9926 37.1877 28.7114 37.273 28.4237 37.273C28.038 37.273 27.668 37.1198 27.3952 36.847C27.1225 36.5743 26.9692 36.2043 26.9692 35.8186Z" fill="#FAB737"/>
<path d="M28.424 19.8184C31.1244 19.8184 33.7142 20.8911 35.6237 22.8006C37.5331 24.71 38.6059 27.2998 38.6059 30.0002L38.6059 31.4547L35.6969 31.4547L35.6969 30.0002C35.6969 28.0714 34.9307 26.2215 33.5668 24.8577C32.2029 23.4938 30.3531 22.7275 28.4242 22.7275C26.4954 22.7275 24.6456 23.4938 23.2817 24.8577C21.9178 26.2215 21.1516 28.0714 21.1516 30.0002L21.1516 31.4547L18.2422 31.4547L18.2422 30.0002C18.2422 27.2998 19.3149 24.71 21.2244 22.8006C23.1338 20.8911 25.7236 19.8184 28.424 19.8184Z" fill="#464646"/>
<path fill-rule="evenodd" clip-rule="evenodd" d="M28.4219 46C31.5864 46 34.6798 45.0616 37.311 43.3035C39.9422 41.5454 41.993 39.0465 43.204 36.1229C44.415 33.1993 44.7318 29.9822 44.1144 26.8785C43.497 23.7748 41.9732 20.9239 39.7355 18.6862C37.4978 16.4486 34.6469 14.9248 31.5432 14.3074C28.4395 13.6901 25.2224 14.007 22.2988 15.218C19.3752 16.429 16.8763 18.4798 15.1183 21.111C13.3602 23.7422 12.4218 26.8357 12.4219 30.0002C12.422 34.2436 14.1077 38.3132 17.1083 41.3137C20.1089 44.3142 24.1785 45.9999 28.4219 46ZM28.4219 43.091C31.011 43.091 33.5419 42.3232 35.6947 40.8847C37.8474 39.4463 39.5253 37.4017 40.5161 35.0097C41.5068 32.6177 41.7661 29.9855 41.2609 27.4462C40.7558 24.9068 39.509 22.5743 37.6782 20.7435C35.8474 18.9128 33.5148 17.666 30.9755 17.1609C28.4361 16.6558 25.804 16.9151 23.412 17.9059C21.02 18.8967 18.9755 20.5746 17.537 22.7274C16.0986 24.8801 15.3309 27.4111 15.3309 30.0002C15.3311 33.472 16.7105 36.8014 19.1655 39.2562C21.6205 41.711 24.9501 43.0901 28.4219 43.09L28.4219 43.091Z" fill="#464646"/>
</svg>
