<svg width="60" height="60" viewBox="0 0 60 60" fill="none" xmlns="http://www.w3.org/2000/svg">
<path d="M30.2874 14.1371C28.1321 14.1371 26.0429 14.5585 24.0779 15.3896C22.1784 16.193 20.4718 17.3439 19.0055 18.8102C17.5392 20.2765 16.3883 21.9831 15.5849 23.8826C14.7538 25.8476 14.3324 27.9368 14.3324 30.0921C14.3324 32.2474 14.7538 34.3365 15.5849 36.3015C16.3883 38.201 17.5392 39.9077 19.0055 41.374C20.4718 42.8403 22.1784 43.9911 24.0779 44.7945C26.0429 45.6257 28.1321 46.0471 30.2874 46.0471C32.4427 46.0471 34.5318 45.6257 36.4968 44.7945C38.3964 43.9911 40.103 42.8403 41.5693 41.374C43.0356 39.9077 44.1864 38.201 44.9898 36.3015C45.821 34.3365 46.2424 32.2474 46.2424 30.0921C46.2424 27.9368 45.821 25.8476 44.9898 23.8826C44.1864 21.9831 43.0356 20.2765 41.5693 18.8102C40.103 17.3439 38.3964 16.193 36.4968 15.3896C34.5318 14.5585 32.4427 14.1371 30.2874 14.1371ZM30.2874 11C40.8316 11 49.3794 19.5478 49.3794 30.0921C49.3794 40.6363 40.8316 49.1841 30.2874 49.1841C19.7431 49.1841 11.1953 40.6363 11.1953 30.0921C11.1953 19.5478 19.7431 11 30.2874 11Z" fill="#434343"/>
<path d="M29.7685 42.7466H31.534V39.4263C35.4077 39.1628 37.7002 36.7122 37.7002 33.6291C37.7002 30.0717 35.434 28.7541 31.534 28.1217V22.7197C33.1415 22.9832 33.9583 23.9055 34.2482 25.5129H37.3576C37.0439 22.2453 34.9333 20.4798 31.534 20.1636V17.7656H29.7685V20.1372C26.1847 20.3744 23.8395 22.5616 23.8395 25.4865C23.8395 28.8331 25.8685 30.2549 29.7685 30.9149V36.8439C27.2651 36.5302 26.6854 35.0784 26.4746 33.3656H23.207C23.4705 36.5541 25.2624 39.1101 29.7685 39.4263V42.7466ZM34.459 33.9453C34.459 35.5 33.2996 36.6068 31.534 36.8439V31.2048C33.8266 31.7054 34.459 32.4433 34.459 33.9453ZM26.9489 25.1979C26.9489 23.8804 27.9528 22.8527 29.7685 22.6419V27.8331C27.4496 27.3575 26.9489 26.5669 26.9489 25.1979Z" fill="#FAB737"/>
</svg>
