<svg width="104" height="13" viewBox="0 0 104 13" fill="none" xmlns="http://www.w3.org/2000/svg">
<path d="M4.61319 12.0561C2.14919 12.0561 0.965188 10.6961 0.805188 8.82411H2.13319C2.35719 10.0721 2.85319 10.9361 4.59719 10.9361C6.14919 10.9361 7.10919 9.89611 7.10919 8.16811C7.10919 6.55211 6.16519 5.49611 4.70919 5.49611C3.38119 5.49611 2.61319 5.91211 2.00519 6.60011H1.49319V0.472109H7.92519V1.67211H2.64519V5.16011C3.10919 4.72811 3.89319 4.37611 4.98119 4.37611C7.02919 4.37611 8.53319 5.83211 8.53319 8.16811C8.53319 10.5841 6.78919 12.0561 4.61319 12.0561ZM14.9337 10.9041C16.9337 10.9041 17.9577 9.36811 17.9577 6.47211V5.83211C17.9577 3.17611 16.8377 1.44811 14.9017 1.44811C12.9657 1.44811 11.8137 3.04811 11.8137 5.86411V6.50411C11.8137 9.40011 13.0297 10.9041 14.9337 10.9041ZM14.9337 12.0561C12.1977 12.0561 10.3897 9.84811 10.3897 6.52011V5.88011C10.3897 2.50411 12.1017 0.328109 14.9017 0.328109C17.7177 0.328109 19.3657 2.58411 19.3657 5.84811V6.48811C19.3657 9.81611 17.7497 12.0561 14.9337 12.0561ZM25.8243 10.9041C27.8243 10.9041 28.8483 9.36811 28.8483 6.47211V5.83211C28.8483 3.17611 27.7283 1.44811 25.7923 1.44811C23.8563 1.44811 22.7043 3.04811 22.7043 5.86411V6.50411C22.7043 9.40011 23.9203 10.9041 25.8243 10.9041ZM25.8243 12.0561C23.0883 12.0561 21.2803 9.84811 21.2803 6.52011V5.88011C21.2803 2.50411 22.9923 0.328109 25.7923 0.328109C28.6083 0.328109 30.2563 2.58411 30.2563 5.84811V6.48811C30.2563 9.81611 28.6403 12.0561 25.8243 12.0561ZM34.7789 10.2321V7.00011H31.7869V5.88011H34.7789V2.64811H35.9469V5.88011H38.9389V7.00011H35.9469V10.2321H34.7789ZM45.1822 11.9121V0.472109H48.6222C50.8142 0.472109 52.6222 1.36811 52.6222 3.65611V3.72011C52.6222 5.60811 51.3582 6.53611 49.7902 6.84011L53.2942 11.9121H51.7422L48.3342 6.93611H46.5742V11.9121H45.1822ZM46.5742 5.83211H48.7182C50.3502 5.83211 51.2302 5.12811 51.2302 3.72011V3.65611C51.2302 2.10411 50.2702 1.59211 48.7182 1.59211H46.5742V5.83211ZM58.3227 12.0561C55.9547 12.0561 54.2747 10.3921 54.2747 7.81611V7.68811C54.2747 5.16011 55.8907 3.40011 58.1947 3.40011C60.1307 3.40011 61.9547 4.56811 61.9547 7.56011V7.99211H55.6507C55.7147 9.89611 56.6267 10.9521 58.3387 10.9521C59.6347 10.9521 60.3867 10.4721 60.5627 9.49611H61.8907C61.6027 11.1761 60.2107 12.0561 58.3227 12.0561ZM55.6987 6.92011H60.5947C60.4667 5.19211 59.5707 4.50411 58.1947 4.50411C56.8347 4.50411 55.9227 5.43211 55.6987 6.92011ZM66.0103 11.9121L62.9703 3.54411H64.4103L66.8903 10.5681L69.3383 3.54411H70.7143L67.7063 11.9121H66.0103ZM72.4932 11.9121V3.54411H73.8212V11.9121H72.4932ZM73.1332 1.80011C72.6532 1.80011 72.2532 1.40011 72.2532 0.920109C72.2532 0.440109 72.6532 0.0401087 73.1332 0.0401087C73.6132 0.0401087 74.0132 0.440109 74.0132 0.920109C74.0132 1.40011 73.6132 1.80011 73.1332 1.80011ZM79.9633 12.0561C77.5953 12.0561 75.9153 10.3921 75.9153 7.81611V7.68811C75.9153 5.16011 77.5313 3.40011 79.8353 3.40011C81.7713 3.40011 83.5953 4.56811 83.5953 7.56011V7.99211H77.2913C77.3553 9.89611 78.2673 10.9521 79.9793 10.9521C81.2753 10.9521 82.0273 10.4721 82.2033 9.49611H83.5313C83.2433 11.1761 81.8513 12.0561 79.9633 12.0561ZM77.3393 6.92011H82.2353C82.1073 5.19211 81.2113 4.50411 79.8353 4.50411C78.4753 4.50411 77.5633 5.43211 77.3393 6.92011ZM87.2349 11.9121L84.6589 3.54411H86.0989L88.0509 10.2801L90.0829 3.54411H91.2349L93.1389 10.2801L95.1069 3.54411H96.4669L93.8589 11.9121H92.3869L90.6429 5.64011L88.6909 11.9121H87.2349ZM100.85 12.0561C98.8501 12.0561 97.6501 11.0481 97.5701 9.33611H98.8661C98.9621 10.3281 99.4901 10.9521 100.834 10.9521C102.098 10.9521 102.658 10.5201 102.658 9.62411C102.658 8.74411 102.002 8.45611 100.706 8.21611C98.5301 7.81611 97.7941 7.20811 97.7941 5.75211C97.7941 4.20011 99.3141 3.40011 100.626 3.40011C102.13 3.40011 103.426 4.00811 103.65 5.81611H102.37C102.178 4.90411 101.666 4.50411 100.61 4.50411C99.6501 4.50411 99.0261 4.98411 99.0261 5.70411C99.0261 6.45611 99.4421 6.76011 100.978 7.03211C102.706 7.35211 103.922 7.73611 103.922 9.51211C103.922 11.0321 102.882 12.0561 100.85 12.0561Z" fill="#6E6E6E"/>
</svg>
