<svg width="31" height="37" viewBox="0 0 31 37" fill="none" xmlns="http://www.w3.org/2000/svg">
<g clip-path="url(#clip0_738_542)">
<path fill-rule="evenodd" clip-rule="evenodd" d="M4.42935 5.25V20.812C4.42935 23.8787 5.59582 26.8198 7.67214 28.9883C9.74846 31.1568 12.5646 32.375 15.5009 32.375C18.4373 32.375 21.2534 31.1568 23.3297 28.9883C25.406 26.8198 26.5725 23.8787 26.5725 20.812V5.25H4.42935ZM0 0H31V20.812C31 25.1053 29.367 29.2228 26.4602 32.2586C23.5533 35.2945 19.6109 37 15.5 37C11.3891 37 7.44666 35.2945 4.53984 32.2586C1.63303 29.2228 0 25.1053 0 20.812V0Z" fill="#464646"/>
<path d="M9.67715 15.876C9.34472 15.5784 8.53556 15.8035 8.22688 16.1259C8.08181 16.3401 8.00391 16.596 8.00391 16.8584C8.00391 17.1208 8.08181 17.3767 8.22688 17.5909L13.4636 23.2184L22.8538 13.5296C23.0445 13.3205 23.1493 13.0418 23.146 12.7531C23.1426 12.4643 23.0313 12.1884 22.8358 11.9842C22.6402 11.78 22.376 11.6638 22.0996 11.6602C21.8231 11.6567 21.5563 11.7662 21.356 11.9654L13.4617 18.2605L9.67715 15.876Z" fill="#FAB737"/>
</g>
<defs>
<clipPath id="clip0_738_542">
<rect width="31" height="37" fill="white"/>
</clipPath>
</defs>
</svg>
