<svg width="60" height="60" viewBox="0 0 60 60" fill="none" xmlns="http://www.w3.org/2000/svg">
<path d="M39.3474 27.8297C40.4306 27.8784 41.4736 28.0814 42.4549 28.4174C46.8426 29.9198 49.997 34.0801 49.997 38.9771C49.997 45.1401 45.001 50.1359 38.8383 50.1359C36.8756 50.1359 35.0311 49.6292 33.4286 48.7393L28.9923 50.0894C28.2158 50.3256 27.4902 49.5998 27.7265 48.8233L29.0771 44.3882C28.1868 42.7855 27.6797 40.9406 27.6797 38.9771C27.6797 32.8144 32.6755 27.8184 38.8383 27.8184C39.0088 27.8184 39.1786 27.8222 39.3474 27.8297ZM38.8383 39.9915H34.781C34.2207 39.9915 33.7666 40.4457 33.7666 41.006C33.7666 41.2404 33.8461 41.4563 33.9796 41.6281C34.1652 41.8666 34.4548 42.0204 34.7806 42.0204H38.8383C39.3985 42.0204 39.8527 41.5662 39.8527 41.006C39.8527 40.4457 39.3985 39.9915 38.8383 39.9915ZM34.7806 37.9627H42.8959C43.4562 37.9627 43.9103 37.5085 43.9103 36.9483C43.9103 36.388 43.4562 35.9339 42.8959 35.9339H34.7806C34.2203 35.9339 33.7662 36.388 33.7662 36.9483C33.7662 37.2163 33.8702 37.4597 34.0398 37.641C34.225 37.8388 34.4883 37.9625 34.7806 37.9627Z" fill="#FAB737"/>
<path d="M27.7108 8.04102C29.1994 8.05818 30.6824 8.23019 32.1358 8.55429C32.7701 8.69577 33.2445 9.22462 33.3165 9.87057L33.6618 12.9677C33.818 14.3897 35.0186 15.4668 36.4501 15.4683C36.8348 15.4689 37.2154 15.3887 37.571 15.2314L40.412 13.9834C41.0028 13.7238 41.6931 13.8654 42.1343 14.3365C44.1875 16.5292 45.7165 19.1591 46.6066 22.0282C46.7985 22.6468 46.5776 23.3192 46.0561 23.7035L43.538 25.5597C43.2301 25.7859 42.9761 26.0692 42.7864 26.3891C41.8039 26.0818 40.7718 25.8861 39.7053 25.8173C40.0949 24.7473 40.7939 23.8 41.7345 23.1091L43.351 21.9177C42.7004 20.2128 41.7771 18.625 40.6166 17.2167L38.7984 18.0155C38.0572 18.3434 37.2557 18.5121 36.446 18.5109C33.465 18.5078 30.963 16.2633 30.6376 13.3024L30.4167 11.3204C29.5128 11.1733 28.6041 11.094 27.711 11.0834C26.7901 11.0943 25.8716 11.1738 24.9635 11.321L24.7426 13.3031C24.5359 15.148 23.4669 16.7856 21.8653 17.7146C20.2538 18.6561 18.289 18.7694 16.5795 18.0192L14.7574 17.2187C13.5973 18.6268 12.6739 20.2143 12.0236 21.9188L13.6418 23.1098C15.1405 24.2108 16.0255 25.9595 16.0255 27.8192C16.0255 29.6786 15.1405 31.4273 13.6434 32.5271L12.0226 33.7213C12.6724 35.4288 13.5959 37.0193 14.7568 38.4301L16.5928 37.6258C18.2928 36.8836 20.2442 36.9921 21.8513 37.9185C23.4584 38.8449 24.5304 40.479 24.7408 42.3267L24.9617 44.3224C25.598 44.4305 26.239 44.5007 26.8814 44.5326L26.9039 44.5804L26.0081 47.5221C25.0716 47.4401 24.1395 47.2898 23.2195 47.0709C22.5945 46.9223 22.1302 46.3969 22.0595 45.7584L21.7171 42.6662C21.6165 41.7824 21.1024 40.9989 20.3318 40.5546C19.5612 40.1104 18.6254 40.0583 17.812 40.4135L14.9588 41.6634C14.3678 41.9224 13.6778 41.7804 13.2371 41.309C11.184 39.1134 9.65572 36.4805 8.76729 33.6089C8.57593 32.9904 8.79703 32.3184 9.31829 31.9344L11.8403 30.0764C12.5586 29.5486 12.9829 28.7105 12.9829 27.8192C12.9829 26.9277 12.5586 26.0895 11.8394 25.5611L9.31894 23.7062C8.79688 23.3221 8.57558 22.6493 8.76761 22.0302C9.65761 19.1611 11.1867 16.5313 13.2398 14.3385C13.6809 13.8674 14.3713 13.7259 14.9622 13.9854L17.8027 15.2332C18.6201 15.5919 19.5597 15.5378 20.3345 15.0851C21.106 14.6376 21.6196 13.8509 21.7187 12.9653L22.0637 9.87057C22.1357 9.2243 22.6106 8.69526 23.2454 8.55409C24.7004 8.23051 26.1848 8.05856 27.7108 8.04102ZM27.6854 20.2115C31.3721 20.2115 34.4464 22.8344 35.1437 26.3159C34.1194 26.6149 33.1468 27.0346 32.2421 27.5587C32.1078 25.1589 30.1189 23.2541 27.6854 23.2541C25.1647 23.2541 23.1214 25.2974 23.1214 27.8182C23.1214 30.2517 25.0262 32.2403 27.4262 32.3748C26.9019 33.2795 26.4822 34.2521 26.1832 35.2763C22.7017 34.5791 20.0788 31.5048 20.0788 27.8182C20.0788 23.617 23.4844 20.2115 27.6854 20.2115Z" fill="#464646"/>
</svg>
