<svg width="81" height="81" viewBox="0 0 81 81" fill="none" xmlns="http://www.w3.org/2000/svg">
<path d="M4.20312 58.2008C4.20312 58.2008 16.7526 53.9173 19.1596 66.7709C20.0322 63.3795 23.5392 62.4812 25.6393 62.8668C29.5476 63.3663 28.023 68.2157 28.023 68.2157C28.023 68.2157 23.4334 70.2813 23.1325 73.6798" stroke="#131313" stroke-width="2" stroke-linejoin="round"/>
<path d="M27.957 68.2644C27.957 68.2644 34.5461 65.0622 34.708 72.3236C34.774 77.3923 34.708 58.627 34.708 58.627" stroke="#131313" stroke-width="2" stroke-linejoin="round"/>
<path d="M45.8008 58.6289V73.6806C45.8008 73.6806 50.9334 61.0468 57.1768 73.6806C56.661 66.7239 56.4312 64.7901 60.2946 62.7672C64.1579 60.7443 70.1907 65.5085 70.1907 65.5085C70.1907 65.5085 70.1297 61.6895 71.4851 60.8034C72.8405 59.9173 75.6064 61.9604 75.6064 61.9604" stroke="#131313" stroke-width="2" stroke-linejoin="bevel"/>
<path d="M30.1378 54.6027L33.076 58.6298H47.4488L51.4783 54.6027H52.718V25.0846C51.7412 20.9435 50.1816 16.9604 48.0891 13.2552C45.895 9.82053 43.1773 6.75133 40.032 4.1582C36.9396 6.7333 34.3015 9.8079 32.2268 13.2552C30.2866 16.9701 28.9219 20.9596 28.1836 25.0846V54.6027H30.1378Z" fill="#FAB737" stroke="#131313" stroke-width="2"/>
<path d="M39.8058 33.463C43.3941 33.463 46.303 30.5559 46.303 26.9698C46.303 23.3837 43.3941 20.4766 39.8058 20.4766C36.2175 20.4766 33.3086 23.3837 33.3086 26.9698C33.3086 30.5559 36.2175 33.463 39.8058 33.463Z" fill="white"/>
<path d="M39.8062 32.4632C42.8425 32.4632 45.3039 30.0033 45.3039 26.9689C45.3039 23.9345 42.8425 21.4746 39.8062 21.4746C36.77 21.4746 34.3086 23.9345 34.3086 26.9689C34.3086 30.0033 36.77 32.4632 39.8062 32.4632Z" stroke="#131313" stroke-width="2"/>
<path d="M15.8359 39.1532V47.6765H28.1881V32.4629L15.8359 39.1532Z" fill="#FAB737" stroke="#131313" stroke-width="2"/>
<path d="M16.0586 42.5371H28.0886V47.6997H16.0586V42.5371Z" fill="white" stroke="#131313" stroke-width="2"/>
<path d="M65.0709 39.1532V47.6765H52.7188V32.4629L65.0709 39.1532Z" fill="#FAB737" stroke="#131313" stroke-width="2"/>
<path d="M53.0391 42.5371H65.0691V47.6997H53.0391V42.5371Z" fill="white" stroke="#131313" stroke-width="2"/>
<path d="M28.4688 54.459H52.6049" stroke="#131313" stroke-width="2"/>
<path d="M39.9759 4.1582C41.6025 5.52197 43.1384 6.99012 44.574 8.55353C45.7517 9.89245 46.7952 11.3435 47.6896 12.8859H32.707C33.4223 11.3871 34.3255 9.98497 35.3949 8.714C36.8154 7.09193 38.346 5.57003 39.9759 4.1582Z" fill="white" stroke="#131313" stroke-width="2" stroke-linecap="round" stroke-linejoin="round"/>
</svg>
