<svg width="118" height="20" viewBox="0 0 118 20" fill="none" xmlns="http://www.w3.org/2000/svg">
<path d="M4.31252 19.1484C4.20583 19.1968 4.08758 19.2139 3.97153 19.1978C3.85548 19.1816 3.7464 19.1329 3.65697 19.0573C3.56755 18.9816 3.50146 18.8821 3.46639 18.7704C3.43132 18.6587 3.42872 18.5393 3.45888 18.4261L4.40848 12.6561L0.376203 8.5624C0.290135 8.47551 0.228628 8.36739 0.197935 8.24904C0.167243 8.13069 0.168461 8.00633 0.201466 7.8886C0.234471 7.77087 0.298084 7.66397 0.385838 7.57879C0.473591 7.4936 0.582354 7.43316 0.701064 7.40361L6.30666 6.55449L8.8056 1.27599C8.8486 1.17071 8.922 1.08062 9.01644 1.01721C9.11088 0.95379 9.22209 0.919922 9.33587 0.919922C9.44965 0.919922 9.56085 0.95379 9.65529 1.01721C9.74974 1.08062 9.82314 1.17071 9.86614 1.27599L12.3651 6.55449L17.9707 7.40361C18.0892 7.43342 18.1978 7.49405 18.2853 7.57935C18.3728 7.66464 18.4362 7.77157 18.469 7.88926C18.5018 8.00696 18.5028 8.13122 18.472 8.24945C18.4412 8.36768 18.3796 8.47565 18.2935 8.5624L14.2633 12.6581L15.2129 18.4281C15.243 18.5413 15.2404 18.6607 15.2053 18.7724C15.1703 18.8841 15.1042 18.9836 15.0148 19.0593C14.9253 19.1349 14.8163 19.1836 14.7002 19.1998C14.5842 19.2159 14.4659 19.1988 14.3592 19.1504L9.33437 16.3962L4.31252 19.1484Z" fill="#F7D314"/>
<path d="M28.7227 19.1445C28.616 19.1929 28.4977 19.21 28.3817 19.1939C28.2656 19.1777 28.1566 19.129 28.0671 19.0533C27.9777 18.9777 27.9116 18.8782 27.8765 18.7665C27.8415 18.6548 27.8389 18.5354 27.869 18.4222L28.8186 12.6522L24.7864 8.55849C24.7003 8.47161 24.6388 8.36349 24.6081 8.24514C24.5774 8.12678 24.5786 8.00242 24.6116 7.88469C24.6446 7.76696 24.7082 7.66007 24.796 7.57488C24.8837 7.48969 24.9925 7.42925 25.1112 7.3997L30.7168 6.55059L33.2158 1.27208C33.2588 1.16681 33.3322 1.07672 33.4266 1.0133C33.521 0.949883 33.6322 0.916016 33.746 0.916016C33.8598 0.916016 33.971 0.949883 34.0654 1.0133C34.1599 1.07672 34.2333 1.16681 34.2763 1.27208L36.7752 6.55059L42.3808 7.3997C42.4994 7.42951 42.6079 7.49014 42.6954 7.57544C42.783 7.66074 42.8463 7.76766 42.8791 7.88536C42.9119 8.00305 42.913 8.12732 42.8821 8.24554C42.8513 8.36377 42.7898 8.47174 42.7037 8.55849L38.6734 12.6542L39.623 18.4242C39.6532 18.5374 39.6506 18.6567 39.6155 18.7685C39.5804 18.8802 39.5143 18.9797 39.4249 19.0553C39.3355 19.131 39.2264 19.1797 39.1104 19.1959C38.9943 19.212 38.8761 19.1949 38.7694 19.1465L33.7445 16.3923L28.7227 19.1445Z" fill="#F7D314"/>
<path d="M53.1406 19.1445C53.034 19.1929 52.9157 19.21 52.7997 19.1939C52.6836 19.1777 52.5745 19.129 52.4851 19.0533C52.3957 18.9777 52.3296 18.8782 52.2945 18.7665C52.2594 18.6548 52.2568 18.5354 52.287 18.4222L53.2366 12.6522L49.2043 8.55849C49.1183 8.47161 49.0568 8.36349 49.0261 8.24514C48.9954 8.12678 48.9966 8.00242 49.0296 7.88469C49.0626 7.76696 49.1262 7.66007 49.214 7.57488C49.3017 7.48969 49.4105 7.42925 49.5292 7.3997L55.1348 6.55059L57.6337 1.27208C57.6767 1.16681 57.7501 1.07672 57.8446 1.0133C57.939 0.949883 58.0502 0.916016 58.164 0.916016C58.2778 0.916016 58.389 0.949883 58.4834 1.0133C58.5779 1.07672 58.6513 1.16681 58.6943 1.27208L61.1932 6.55059L66.7988 7.3997C66.9173 7.42951 67.0259 7.49014 67.1134 7.57544C67.2009 7.66074 67.2643 7.76766 67.2971 7.88536C67.3299 8.00305 67.3309 8.12732 67.3001 8.24554C67.2693 8.36377 67.2077 8.47174 67.1217 8.55849L63.0914 12.6542L64.041 18.4242C64.0711 18.5374 64.0685 18.6567 64.0335 18.7685C63.9984 18.8802 63.9323 18.9797 63.8429 19.0553C63.7535 19.131 63.6444 19.1797 63.5283 19.1959C63.4123 19.212 63.294 19.1949 63.1873 19.1465L58.1625 16.3923L53.1406 19.1445Z" fill="#F7D314"/>
<path d="M77.5586 19.1445C77.4519 19.1929 77.3337 19.21 77.2176 19.1939C77.1016 19.1777 76.9925 19.129 76.9031 19.0533C76.8136 18.9777 76.7476 18.8782 76.7125 18.7665C76.6774 18.6548 76.6748 18.5354 76.705 18.4222L77.6546 12.6522L73.6223 8.55849C73.5362 8.47161 73.4747 8.36349 73.444 8.24514C73.4133 8.12678 73.4146 8.00242 73.4476 7.88469C73.4806 7.76696 73.5442 7.66007 73.6319 7.57488C73.7197 7.48969 73.8284 7.42925 73.9472 7.3997L79.5528 6.55059L82.0517 1.27208C82.0947 1.16681 82.1681 1.07672 82.2625 1.0133C82.357 0.949883 82.4682 0.916016 82.582 0.916016C82.6957 0.916016 82.8069 0.949883 82.9014 1.0133C82.9958 1.07672 83.0692 1.16681 83.1122 1.27208L85.6112 6.55059L91.2168 7.3997C91.3353 7.42951 91.4439 7.49014 91.5314 7.57544C91.6189 7.66074 91.6823 7.76766 91.7151 7.88536C91.7479 8.00305 91.7489 8.12732 91.7181 8.24554C91.6873 8.36377 91.6257 8.47174 91.5396 8.55849L87.5094 12.6542L88.4589 18.4242C88.4891 18.5374 88.4865 18.6567 88.4514 18.7685C88.4164 18.8802 88.3503 18.9797 88.2609 19.0553C88.1714 19.131 88.0624 19.1797 87.9463 19.1959C87.8302 19.212 87.712 19.1949 87.6053 19.1465L82.5805 16.3923L77.5586 19.1445Z" fill="#F7D314"/>
<path d="M104.365 6.55007L107.031 1.27156C107.082 1.16507 107.163 1.07519 107.263 1.01229C107.363 0.949388 107.479 0.916016 107.597 0.916016C107.715 0.916016 107.831 0.949388 107.931 1.01229C108.031 1.07519 108.112 1.16507 108.163 1.27156L110.829 6.55007L116.807 7.39918C116.956 7.42269 117.092 7.49683 117.193 7.60911C117.294 7.72139 117.353 7.86493 117.36 8.01554C117.368 8.11576 117.354 8.21659 117.318 8.31051C117.282 8.40443 117.225 8.48902 117.152 8.55797L112.854 12.6537L113.867 18.4237C113.893 18.5419 113.885 18.6649 113.844 18.7788C113.804 18.8927 113.732 18.993 113.637 19.0682C113.542 19.1433 113.428 19.1905 113.308 19.2042C113.188 19.218 113.066 19.1978 112.957 19.1459L107.595 16.3918L102.237 19.1439C102.181 19.173 102.121 19.1935 102.059 19.2049C101.955 19.2192 101.849 19.2084 101.75 19.1732C101.651 19.1381 101.562 19.0797 101.49 19.0029C101.418 18.9262 101.366 18.8333 101.338 18.7322C101.309 18.6311 101.305 18.5246 101.327 18.4217L102.34 12.6517L98.0421 8.55598C97.9747 8.49324 97.9209 8.41733 97.8841 8.33295C97.8473 8.24857 97.8283 8.15753 97.8282 8.06549C97.827 7.93578 97.8616 7.80826 97.9281 7.69687C97.9761 7.61625 98.0416 7.54745 98.1198 7.49557C98.1981 7.4437 98.2869 7.41007 98.3799 7.39718L104.358 6.54807L104.365 6.55007ZM107.595 14.9773C107.693 14.9768 107.79 15.0001 107.878 15.0452L112.376 17.3558L111.528 12.5288C111.509 12.4176 111.516 12.3032 111.551 12.1957C111.586 12.0882 111.647 11.991 111.728 11.9125L115.277 8.533L110.331 7.83373C110.228 7.81826 110.131 7.77819 110.048 7.71694C109.964 7.6557 109.897 7.57511 109.851 7.48209L107.597 3.01275V14.9753L107.595 14.9773Z" fill="#F7D314"/>
</svg>
