<svg width="32" height="32" viewBox="0 0 32 32" fill="none" xmlns="http://www.w3.org/2000/svg">
<g clip-path="url(#clip0_660_510)">
<path d="M4.57546 21.7147V20.5723H2.28906V21.7147C2.28906 23.8364 3.13192 25.8712 4.63221 27.3715C6.1325 28.8718 8.16733 29.7147 10.2891 29.7147H13.7179V27.4299H10.2891C8.77372 27.4299 7.32044 26.8279 6.24894 25.7564C5.17743 24.6849 4.57546 23.23 4.57546 21.7147Z" fill="#FAB737"/>
<path d="M25.1424 10.2871V11.4295H27.4288V10.2871C27.4288 8.16538 26.5859 6.13055 25.0857 4.63025C23.5854 3.12996 21.5505 2.28711 19.4288 2.28711H16V4.57351H19.4288C20.9441 4.57351 22.3974 5.17548 23.4689 6.24698C24.5404 7.31849 25.1424 8.77177 25.1424 10.2871Z" fill="#FAB737"/>
<path d="M10.2864 10.2871H3.4288C2.51943 10.2871 1.6473 10.6484 1.00427 11.2914C0.361247 11.9344 0 12.8065 0 13.7159V16.0023H2.2864V13.7159C2.2864 13.5659 2.31595 13.4173 2.37336 13.2787C2.43077 13.1401 2.51492 13.0142 2.621 12.9081C2.72708 12.802 2.85302 12.7179 2.99162 12.6605C3.13022 12.6031 3.27878 12.5735 3.4288 12.5735H10.2864C10.5894 12.5735 10.88 12.6939 11.0942 12.9081C11.3084 13.1224 11.4288 13.4129 11.4288 13.7159V16.0023H13.7152V13.7159C13.7152 12.8065 13.354 11.9344 12.7109 11.2914C12.0679 10.6484 11.1958 10.2871 10.2864 10.2871Z" fill="#464646"/>
<path d="M6.86026 9.1424C7.76436 9.1424 8.64816 8.87431 9.39989 8.37202C10.1516 7.86973 10.7375 7.1558 11.0835 6.32052C11.4295 5.48525 11.52 4.56613 11.3436 3.67941C11.1672 2.79268 10.7319 1.97817 10.0926 1.33888C9.4533 0.699582 8.63879 0.264217 7.75206 0.0878364C6.86533 -0.0885444 5.94622 0.00198069 5.11094 0.347964C4.27566 0.693947 3.56174 1.27985 3.05945 2.03158C2.55716 2.78331 2.28906 3.6671 2.28906 4.5712C2.28906 5.78356 2.77067 6.94626 3.62794 7.80353C4.4852 8.6608 5.64791 9.1424 6.86026 9.1424ZM6.86026 2.2848C7.31254 2.28449 7.75475 2.41831 8.13095 2.66935C8.50716 2.92039 8.80046 3.27737 8.97376 3.69513C9.14706 4.11288 9.19256 4.57265 9.10452 5.01627C9.01648 5.4599 8.79885 5.86745 8.47916 6.18737C8.15946 6.50728 7.75207 6.7252 7.30851 6.81355C6.86494 6.9019 6.40514 6.85672 5.98727 6.68371C5.56939 6.51071 5.21221 6.21766 4.9609 5.84162C4.7096 5.46559 4.57546 5.02348 4.57546 4.5712C4.57589 3.96537 4.81674 3.38446 5.24513 2.95607C5.67352 2.52768 6.25443 2.28523 6.86026 2.2848Z" fill="#464646"/>
<path d="M28.5755 26.2871H21.7179C21.2676 26.2871 20.8217 26.3758 20.4057 26.5481C19.9897 26.7204 19.6117 26.973 19.2933 27.2914C18.9749 27.6098 18.7224 27.9878 18.5501 28.4038C18.3778 28.8198 18.2891 29.2656 18.2891 29.7159V32.0023H20.5755V29.7159C20.5755 29.4129 20.6958 29.1224 20.9101 28.9081C21.1243 28.6939 21.4149 28.5735 21.7179 28.5735H28.5755C28.8784 28.5735 29.169 28.6939 29.3833 28.9081C29.5975 29.1224 29.7179 29.4129 29.7179 29.7159V32.0023H32.0043V29.7159C32.0043 29.2656 31.9156 28.8198 31.7433 28.4038C31.5709 27.9878 31.3184 27.6098 31 27.2914C30.6816 26.973 30.3036 26.7204 29.8876 26.5481C29.4716 26.3758 29.0257 26.2871 28.5755 26.2871Z" fill="#464646"/>
<path d="M20.5703 20.5712C20.5703 21.4753 20.8384 22.3591 21.3407 23.1108C21.843 23.8626 22.5569 24.4485 23.3922 24.7944C24.2275 25.1404 25.1466 25.2309 26.0333 25.0546C26.92 24.8782 27.7345 24.4428 28.3738 23.8035C29.0131 23.1642 29.4485 22.3497 29.6249 21.463C29.8013 20.5763 29.7107 19.6572 29.3648 18.8219C29.0188 17.9866 28.4329 17.2727 27.6811 16.7704C26.9294 16.2681 26.0456 16 25.1415 16C23.9292 16 22.7665 16.4816 21.9092 17.3389C21.0519 18.1961 20.5703 19.3588 20.5703 20.5712ZM27.4279 20.5712C27.4279 21.0234 27.2938 21.4655 27.0426 21.8415C26.7914 22.2175 26.4343 22.5105 26.0165 22.6836C25.5987 22.8566 25.139 22.9019 24.6955 22.8137C24.2519 22.7254 23.8445 22.5077 23.5248 22.1879C23.205 21.8682 22.9873 21.4608 22.899 21.0173C22.8108 20.5737 22.8561 20.114 23.0292 19.6962C23.2022 19.2784 23.4953 18.9214 23.8713 18.6701C24.2473 18.4189 24.6893 18.2848 25.1415 18.2848C25.7479 18.2848 26.3295 18.5257 26.7582 18.9545C27.187 19.3833 27.4279 19.9648 27.4279 20.5712Z" fill="#464646"/>
</g>
<defs>
<clipPath id="clip0_660_510">
<rect width="32" height="32" fill="white"/>
</clipPath>
</defs>
</svg>
