<svg width="38" height="29" viewBox="0 0 38 29" fill="none" xmlns="http://www.w3.org/2000/svg">
<g clip-path="url(#clip0_738_532)">
<path fill-rule="evenodd" clip-rule="evenodd" d="M7.6826 0.396923C7.80781 0.521937 7.90714 0.670411 7.97491 0.833851C8.04268 0.99729 8.07757 1.17249 8.07757 1.34942C8.07757 1.52636 8.04268 1.70155 7.97491 1.86499C7.90714 2.02843 7.80781 2.17691 7.6826 2.30192L3.6456 6.33892C3.52058 6.46413 3.37211 6.56346 3.20867 6.63123C3.04523 6.69901 2.87003 6.73389 2.6931 6.73389C2.51617 6.73389 2.34097 6.69901 2.17753 6.63123C2.01409 6.56346 1.86561 6.46413 1.7406 6.33892L0.394599 4.99292C0.14198 4.74004 0.000166082 4.39716 0.000353621 4.03972C0.00054116 3.68227 0.142715 3.33954 0.395599 3.08692C0.648483 2.8343 0.991362 2.69249 1.34881 2.69268C1.70625 2.69286 2.04898 2.83504 2.3016 3.08792L2.6946 3.48792L5.7766 0.396923C5.90161 0.271715 6.05009 0.172383 6.21353 0.10461C6.37697 0.0368376 6.55217 0.00195312 6.7291 0.00195312C6.90603 0.00195312 7.08123 0.0368376 7.24467 0.10461C7.40811 0.172383 7.55758 0.271715 7.6826 0.396923ZM7.6826 11.1619C7.80781 11.2869 7.90714 11.4354 7.97491 11.5989C8.04268 11.7623 8.07757 11.9375 8.07757 12.1144C8.07757 12.2914 8.04268 12.4666 7.97491 12.63C7.90714 12.7934 7.80781 12.9419 7.6826 13.0669L3.6456 17.1039C3.52058 17.2291 3.37211 17.3285 3.20867 17.3962C3.04523 17.464 2.87003 17.4989 2.6931 17.4989C2.51617 17.4989 2.34097 17.464 2.17753 17.3962C2.01409 17.3285 1.86561 17.2291 1.7406 17.1039L0.394599 15.7589C0.141848 15.506 -9.37271e-05 15.1631 4.6434e-08 14.8056C9.382e-05 14.448 0.142215 14.1052 0.395099 13.8524C0.647983 13.5997 0.990915 13.4577 1.34845 13.4578C1.70599 13.4579 2.04885 13.6 2.3016 13.8529L2.6946 14.2529L5.7786 11.1659C5.90361 11.0407 6.05209 10.9414 6.21553 10.8736C6.37897 10.8058 6.55416 10.771 6.7311 10.771C6.90803 10.771 7.08323 10.8058 7.24667 10.8736C7.41011 10.9414 7.55858 11.0407 7.6836 11.1659L7.6826 11.1619ZM7.6826 21.9269C7.80781 22.0519 7.90714 22.2004 7.97491 22.3638C8.04268 22.5273 8.07757 22.7025 8.07757 22.8794C8.07757 23.0564 8.04268 23.2316 7.97491 23.395C7.90714 23.5584 7.80781 23.7069 7.6826 23.8319L3.6456 27.8699C3.52058 27.9951 3.37211 28.0945 3.20867 28.1622C3.04523 28.23 2.87003 28.2649 2.6931 28.2649C2.51617 28.2649 2.34097 28.23 2.17753 28.1622C2.01409 28.0945 1.86561 27.9951 1.7406 27.8699L0.394599 26.5239C0.14198 26.271 0.000166082 25.9282 0.000353621 25.5707C0.00054116 25.2133 0.142715 24.8705 0.395599 24.6179C0.648483 24.3653 0.991362 24.2235 1.34881 24.2237C1.70625 24.2239 2.04898 24.366 2.3016 24.6189L2.6946 25.0189L5.7786 21.9319C5.90361 21.8067 6.05209 21.7074 6.21553 21.6396C6.37897 21.5718 6.55416 21.537 6.7311 21.537C6.90803 21.537 7.08323 21.5718 7.24667 21.6396C7.41011 21.7074 7.55858 21.8067 7.6836 21.9319L7.6826 21.9269Z" fill="#FAB737"/>
<path fill-rule="evenodd" clip-rule="evenodd" d="M10.7656 25.5718C10.7656 25.2148 10.9074 24.8725 11.1599 24.62C11.4123 24.3676 11.7546 24.2258 12.1116 24.2258H36.3336C36.5134 24.2209 36.6923 24.2521 36.8599 24.3175C37.0274 24.3829 37.1801 24.4812 37.309 24.6067C37.4379 24.7321 37.5404 24.8821 37.6103 25.0478C37.6803 25.2134 37.7163 25.3915 37.7163 25.5713C37.7163 25.7512 37.6803 25.9292 37.6103 26.0949C37.5404 26.2605 37.4379 26.4105 37.309 26.536C37.1801 26.6614 37.0274 26.7597 36.8599 26.8251C36.6923 26.8905 36.5134 26.9217 36.3336 26.9168H12.1116C11.7548 26.9168 11.4126 26.7751 11.1602 26.5229C10.9078 26.2707 10.7659 25.9286 10.7656 25.5718ZM10.7656 14.8068C10.7656 14.4498 10.9074 14.1075 11.1599 13.855C11.4123 13.6026 11.7546 13.4608 12.1116 13.4608H36.3336C36.5134 13.4559 36.6923 13.4871 36.8599 13.5525C37.0274 13.6179 37.1801 13.7162 37.309 13.8417C37.4379 13.9671 37.5404 14.1171 37.6103 14.2828C37.6803 14.4484 37.7163 14.6265 37.7163 14.8063C37.7163 14.9862 37.6803 15.1642 37.6103 15.3299C37.5404 15.4955 37.4379 15.6455 37.309 15.771C37.1801 15.8964 37.0274 15.9947 36.8599 16.0601C36.6923 16.1255 36.5134 16.1567 36.3336 16.1518H12.1116C11.9347 16.1518 11.7595 16.1169 11.5961 16.0492C11.4326 15.9814 11.2842 15.8821 11.1592 15.7569C11.0341 15.6317 10.935 15.4831 10.8675 15.3195C10.8 15.156 10.7654 14.9807 10.7656 14.8038V14.8068ZM10.7656 4.04181C10.7656 3.68483 10.9074 3.34247 11.1599 3.09005C11.4123 2.83762 11.7546 2.69581 12.1116 2.69581H36.3336C36.5134 2.69091 36.6923 2.72209 36.8599 2.7875C37.0274 2.85291 37.1801 2.95124 37.309 3.07666C37.4379 3.20209 37.5404 3.35207 37.6103 3.51776C37.6803 3.68344 37.7163 3.86147 37.7163 4.04131C37.7163 4.22116 37.6803 4.39918 37.6103 4.56487C37.5404 4.73055 37.4379 4.88053 37.309 5.00596C37.1801 5.13139 37.0274 5.22971 36.8599 5.29512C36.6923 5.36054 36.5134 5.39171 36.3336 5.38681H12.1116C11.7546 5.38681 11.4123 5.245 11.1599 4.99258C10.9074 4.74015 10.7656 4.39779 10.7656 4.04081V4.04181Z" fill="#434343"/>
</g>
<defs>
<clipPath id="clip0_738_532">
<rect width="37.681" height="28.264" fill="white"/>
</clipPath>
</defs>
</svg>
