<svg width="38" height="38" viewBox="0 0 38 38" fill="none" xmlns="http://www.w3.org/2000/svg">
<g id="Group 14454">
<g id="shield-security">
<path id="Path 16192" d="M19.4332 3.63672L32.1632 9.33672V17.8227C32.1759 21.7191 30.893 25.5092 28.5162 28.5967C26.3265 31.6821 23.1043 33.8815 19.4332 34.7967C15.7621 33.8815 12.54 31.6821 10.3502 28.5967C7.97388 25.5097 6.69097 21.7204 6.70321 17.8247V9.33672L19.4332 3.63672ZM29.3122 11.1287L19.4332 6.75272L9.55421 11.1287V19.2177H19.4332V31.8807C22.0827 31.0113 24.3985 29.3438 26.0632 27.1067C27.8504 24.8251 28.9746 22.0952 29.3122 19.2167V11.1287Z" fill="#434343"/>
<path id="Path 54266" d="M19.4307 6.74609L29.2897 11.1461L29.2817 19.2091L19.4297 19.2171L19.4307 6.74609Z" fill="#FDC736"/>
</g>
</g>
</svg>
