<svg width="60" height="60" viewBox="0 0 60 60" fill="none" xmlns="http://www.w3.org/2000/svg">
<path d="M12.0508 32.5081C12.0412 28.7988 13.3919 25.2101 15.8556 22.3988C18.3193 19.5876 21.7313 17.7418 25.4672 17.1992L30.5766 17.5904C30.6354 17.637 27.6919 21.6309 27.7033 21.5229C24.725 21.5229 21.8687 22.685 19.7627 24.7535C17.6568 26.822 16.4736 29.6275 16.4736 32.5528C16.4736 35.4781 17.6568 38.2836 19.7627 40.3521C21.8687 42.4206 24.725 43.5827 27.7033 43.5827C29.9882 43.6048 32.2236 42.9294 34.1008 41.6496C35.9779 40.3698 37.4039 38.549 38.1819 36.4387C38.2558 36.4387 42.8683 36.5728 42.8 36.5952C41.8828 39.8427 39.9128 42.7079 37.1886 44.7568C34.4643 46.8057 31.1343 47.9264 27.7033 47.9492C23.5443 47.9359 19.5606 46.3027 16.6262 43.4078C13.6917 40.513 12.0463 36.5931 12.0508 32.5081Z" fill="#464646"/>
<path d="M27.2476 33.6008C27.0798 33.6005 26.9159 33.5538 26.7766 33.4666C26.6372 33.3794 26.5287 33.2556 26.4647 33.1109C26.4006 32.9661 26.384 32.8069 26.4168 32.6534C26.4496 32.4998 26.5305 32.3588 26.6491 32.2481L30.5955 28.547C30.674 28.4734 30.7672 28.415 30.8699 28.3752C30.9727 28.3354 31.0828 28.3149 31.194 28.315H37.1098V21.6229H32.6013C32.2713 21.6215 31.949 21.5304 31.6736 21.3608C31.3982 21.1913 31.1816 20.9506 31.0502 20.6681C30.9189 20.3857 30.8784 20.0736 30.9338 19.7701C30.9892 19.4665 31.1381 19.1846 31.3623 18.9586L38.6872 11.5617C38.845 11.4007 39.0371 11.2721 39.251 11.1842C39.465 11.0962 39.6962 11.0508 39.93 11.0508C40.1638 11.0508 40.3951 11.0962 40.6091 11.1842C40.823 11.2721 41.015 11.4007 41.1728 11.5617L48.4978 18.9586C48.722 19.1846 48.8708 19.4665 48.9262 19.7701C48.9817 20.0736 48.9412 20.3857 48.8099 20.6681C48.6785 20.9506 48.4619 21.1913 48.1865 21.3608C47.9111 21.5304 47.5887 21.6215 47.2588 21.6229H42.7445V32.0143C42.745 32.222 42.7017 32.4277 42.617 32.6197C42.5324 32.8117 42.408 32.9862 42.2511 33.1334C42.0941 33.2805 41.9076 33.3974 41.7023 33.4773C41.497 33.5572 41.2768 33.5985 41.0543 33.599L27.2476 33.6008Z" fill="#FAB737"/>
</svg>
