<svg width="20" height="20" viewBox="0 0 20 20" fill="none" xmlns="http://www.w3.org/2000/svg">
<g id="Group 13780 1" clip-path="url(#clip0_742_11100)">
<g id="Group 13780">
<g id="remote-control-alt">
<path id="Path 50608" d="M5.24337 5.80491C5.85962 5.17019 6.59938 4.66846 7.41702 4.33067C8.23466 3.99288 9.11283 3.8262 9.99737 3.84091C10.8821 3.82607 11.7605 3.99268 12.5783 4.33047C13.3961 4.66826 14.136 5.17006 14.7524 5.80491L13.3684 7.14391C12.9308 6.69516 12.406 6.34083 11.8262 6.10279C11.2464 5.86476 10.624 5.74806 9.99737 5.75991C9.36455 5.75072 8.73631 5.86845 8.14976 6.10617C7.5632 6.34388 7.03025 6.69674 6.58237 7.14391L5.24337 5.80491ZM9.99737 0.00090937C11.3739 -0.0175841 12.7396 0.24617 14.0103 0.775899C15.281 1.30563 16.4296 2.0901 17.3854 3.08091L16.0464 4.42091C15.2623 3.6131 14.3211 2.97451 13.2807 2.54454C12.2404 2.11456 11.1229 1.90232 9.99737 1.92091C8.87181 1.90232 7.75437 2.11456 6.714 2.54454C5.67363 2.97451 4.7324 3.6131 3.94837 4.42091L2.60938 3.08191C3.56505 2.09092 4.71366 1.30626 5.98433 0.776359C7.25499 0.246456 8.62077 -0.0174549 9.99737 0.00090937Z" fill="#FAB737"/>
<path id="Path 50609" d="M12.516 8.0421C12.8074 8.03979 13.0879 8.15222 13.297 8.3551C13.4034 8.44851 13.4854 8.56645 13.536 8.69871C13.5865 8.83096 13.604 8.97354 13.587 9.1141V18.3551C13.5876 18.4959 13.5602 18.6354 13.5066 18.7656C13.453 18.8958 13.3741 19.014 13.2745 19.1136C13.175 19.2131 13.0567 19.292 12.9265 19.3456C12.7963 19.3993 12.6568 19.4266 12.516 19.4261H7.07104C6.93025 19.4266 6.79074 19.3993 6.66056 19.3456C6.53039 19.292 6.41211 19.2131 6.31255 19.1136C6.213 19.014 6.13413 18.8958 6.08049 18.7656C6.02686 18.6354 5.99951 18.4959 6.00004 18.3551V9.1141C5.99747 8.8229 6.10954 8.54237 6.31204 8.3331C6.4074 8.22656 6.52449 8.1417 6.65542 8.08426C6.78635 8.02681 6.92808 7.99811 7.07104 8.0001L12.516 8.0421ZM12.65 17.5511V9.9171H6.93704V17.5511H12.65Z" fill="white"/>
</g>
</g>
</g>
<defs>
<clipPath id="clip0_742_11100">
<rect width="20" height="20" fill="white"/>
</clipPath>
</defs>
</svg>
