<svg width="60" height="60" viewBox="0 0 60 60" fill="none" xmlns="http://www.w3.org/2000/svg">
<g id="Group 7356" opacity="0.2">
<g id="Group 8062">
<g id="Path 16190">
<path id="Vector" d="M30.2874 11.8031C28.1321 11.8031 26.0429 12.2245 24.0779 13.0556C22.1784 13.859 20.4718 15.0099 19.0055 16.4762C17.5392 17.9425 16.3883 19.6491 15.5849 21.5486C14.7538 23.5136 14.3324 25.6028 14.3324 27.7581C14.3324 29.9134 14.7538 32.0025 15.5849 33.9675C16.3883 35.8671 17.5392 37.5737 19.0055 39.04C20.4718 40.5063 22.1784 41.6571 24.0779 42.4605C26.0429 43.2917 28.1321 43.7131 30.2874 43.7131C32.4427 43.7131 34.5318 43.2917 36.4968 42.4605C38.3964 41.6571 40.103 40.5063 41.5693 39.04C43.0356 37.5737 44.1864 35.8671 44.9898 33.9675C45.821 32.0025 46.2424 29.9134 46.2424 27.7581C46.2424 25.6028 45.821 23.5136 44.9898 21.5486C44.1864 19.6491 43.0356 17.9425 41.5693 16.4762C40.103 15.0099 38.3964 13.859 36.4968 13.0556C34.5318 12.2245 32.4427 11.8031 30.2874 11.8031ZM30.2874 8.66602C40.8316 8.66602 49.3794 17.2138 49.3794 27.7581C49.3794 38.3023 40.8316 46.8501 30.2874 46.8501C19.7431 46.8501 11.1953 38.3023 11.1953 27.7581C11.1953 17.2138 19.7431 8.66602 30.2874 8.66602Z" fill="#434343"/>
</g>
<path id="Path 16193" d="M29.7685 40.4126H31.534V37.0924C35.4077 36.8288 37.7002 34.3782 37.7002 31.2951C37.7002 27.7377 35.434 26.4201 31.534 25.7877V20.3857C33.1415 20.6492 33.9583 21.5715 34.2482 23.1789H37.3576C37.0439 19.9114 34.9333 18.1458 31.534 17.8296V15.4316H29.7685V17.8033C26.1847 18.0404 23.8395 20.2276 23.8395 23.1526C23.8395 26.4992 25.8685 27.9209 29.7685 28.5809V34.5099C27.2651 34.1962 26.6854 32.7444 26.4746 31.0316H23.207C23.4705 34.2201 25.2624 36.7761 29.7685 37.0924V40.4126ZM34.459 31.6113C34.459 33.166 33.2996 34.2728 31.534 34.5099V28.8708C33.8266 29.3714 34.459 30.1093 34.459 31.6113ZM26.9489 22.8639C26.9489 21.5464 27.9528 20.5187 29.7685 20.3079V25.4991C27.4496 25.0235 26.9489 24.233 26.9489 22.8639Z" fill="#FAB737"/>
<g id="Polygon 5">
<path id="Vector_2" d="M25.4224 41.5622H35.7656L30.594 49.5547L25.4224 41.5622Z" fill="#FAB737"/>
<path id="Vector_3" d="M30.5946 47.8224L34.0363 42.5034H27.1529L30.5946 47.8224ZM30.5946 51.2871L23.6931 40.6211H37.4961L30.5946 51.2871Z" fill="#F3F8FF"/>
</g>
</g>
</g>
</svg>
