<svg width="60" height="60" viewBox="0 0 60 60" fill="none" xmlns="http://www.w3.org/2000/svg">
<path d="M28.6809 23.585V15.127H16.2426C15.4155 15.127 14.75 15.7924 14.75 16.6196V45.4765C14.75 46.3036 15.4155 46.9691 16.2426 46.9691H37.139C37.9661 46.9691 38.6316 46.3036 38.6316 45.4765V25.0776H30.1735C29.3526 25.0776 28.6809 24.4059 28.6809 23.585ZM32.6612 38.2622C32.6612 38.6727 32.3253 39.0085 31.9149 39.0085H21.4667C21.0562 39.0085 20.7204 38.6727 20.7204 38.2622V37.7647C20.7204 37.3542 21.0562 37.0184 21.4667 37.0184H31.9149C32.3253 37.0184 32.6612 37.3542 32.6612 37.7647V38.2622ZM32.6612 34.282C32.6612 34.6924 32.3253 35.0283 31.9149 35.0283H21.4667C21.0562 35.0283 20.7204 34.6924 20.7204 34.282V33.7844C20.7204 33.374 21.0562 33.0381 21.4667 33.0381H31.9149C32.3253 33.0381 32.6612 33.374 32.6612 33.7844V34.282ZM32.6612 29.8042V30.3017C32.6612 30.7122 32.3253 31.048 31.9149 31.048H21.4667C21.0562 31.048 20.7204 30.7122 20.7204 30.3017V29.8042C20.7204 29.3937 21.0562 29.0579 21.4667 29.0579H31.9149C32.3253 29.0579 32.6612 29.3937 32.6612 29.8042ZM38.6316 22.7081V23.0875H30.6711V15.127H31.0504C31.4484 15.127 31.8278 15.2824 32.1077 15.5623L38.1962 21.6571C38.4761 21.9369 38.6316 22.3163 38.6316 22.7081Z" fill="#464646"/>
<path fill-rule="evenodd" clip-rule="evenodd" d="M40.2225 19.9839V41.8753H43.5062C44.3333 41.8753 44.9988 41.2099 44.9988 40.3827V19.9839H40.2225ZM35.0481 10.0332V13.8543H21.1172V11.5258C21.1172 10.6987 21.7826 10.0332 22.6098 10.0332H35.0481ZM44.9988 17.9937V17.6144C44.9988 17.2226 44.8433 16.8432 44.5634 16.5633L38.4749 10.4685C38.195 10.1887 37.8156 10.0332 37.4176 10.0332H37.0382V17.9937H44.9988Z" fill="#FAB737"/>
</svg>
