<svg width="20" height="20" viewBox="0 0 20 20" fill="none" xmlns="http://www.w3.org/2000/svg">
<path d="M16 8C16.5523 8 17 8.4477 17 9C17 9.5523 16.5523 10 16 10C15.4477 10 15 9.5523 15 9C15 8.4477 15.4477 8 16 8ZM12 8C12.5523 8 13 8.4477 13 9C13 9.5523 12.5523 10 12 10C11.4477 10 11 9.5523 11 9C11 8.4477 11.4477 8 12 8Z" fill="#FAB737"/>
<path d="M3 5H17C18.5977 5 19.9037 6.24892 19.9949 7.82373L20 8V12C20 13.5977 18.7511 14.9037 17.1763 14.9949L17 15H3C1.40232 15 0.09634 13.7511 0.00509 12.1763L0 12V8C0 6.40232 1.24892 5.09634 2.82373 5.00509L3 5ZM17 6.5H3C2.17157 6.5 1.5 7.1716 1.5 8V12C1.5 12.8284 2.17157 13.5 3 13.5H17C17.8284 13.5 18.5 12.8284 18.5 12V8C18.5 7.1716 17.8284 6.5 17 6.5Z" fill="white"/>
</svg>
