<svg width="19" height="20" viewBox="0 0 19 20" fill="none" xmlns="http://www.w3.org/2000/svg">
<g id="_24-support_linear" clip-path="url(#clip0_746_11859)">
<path id="Path 14675" fill-rule="evenodd" clip-rule="evenodd" d="M3.65367 1.39606C3.36763 1.39399 3.08398 1.44582 2.81893 1.54858C2.55389 1.65133 2.31266 1.80301 2.10904 1.99492C1.90542 2.18683 1.74341 2.4152 1.63228 2.66699C1.52115 2.91877 1.46308 3.18901 1.46139 3.46225V13.6173C1.46323 13.8904 1.52141 14.1605 1.63261 14.4122C1.74381 14.6639 1.90585 14.8921 2.10945 15.0839C2.31306 15.2757 2.55424 15.4273 2.8192 15.5299C3.08417 15.6326 3.36773 15.6844 3.65367 15.6824H4.38456C5.35115 15.681 6.27903 16.0451 6.96555 16.6951L8.62833 18.2641C8.85987 18.4795 9.17032 18.6001 9.49355 18.6001C9.81677 18.6001 10.1272 18.4795 10.3588 18.2641M10.3588 18.2641L12.0219 16.6951C12.3613 16.3725 12.764 16.117 13.2069 15.9432C13.6497 15.7694 14.1242 15.6808 14.6029 15.6824H15.3436C15.9208 15.6848 16.4754 15.4689 16.8863 15.0816C17.2971 14.6944 17.5307 14.1675 17.5359 13.6162V3.46262C17.5342 3.18938 17.4761 2.91914 17.365 2.66736C17.2539 2.41558 17.0918 2.1872 16.8882 1.99529C16.6846 1.80338 16.4434 1.65171 16.1783 1.54895C15.9133 1.44619 15.6296 1.39436 15.3436 1.39643H3.65093M0 3.46262C0.0015882 3.00601 0.0973878 2.55418 0.28192 2.13296C0.466452 1.71174 0.736097 1.3294 1.07543 1.00781C1.41477 0.686222 1.81714 0.431688 2.25954 0.258765C2.70193 0.085842 3.17567 -0.00207653 3.65367 3.72279e-05H15.3463C15.8243 -0.00207653 16.2981 0.085842 16.7405 0.258765C17.1829 0.431688 17.5852 0.686222 17.9246 1.00781C18.2639 1.3294 18.5335 1.71174 18.7181 2.13296C18.9026 2.55418 18.9984 3.00601 19 3.46262V13.6173C18.9949 14.5389 18.6074 15.421 17.9225 16.0701C17.2376 16.7192 16.3111 17.0824 15.3463 17.0799H14.6057C14.3185 17.0783 14.0338 17.131 13.768 17.2348C13.5021 17.3387 13.2604 17.4917 13.0567 17.685L13.0536 17.688L11.3876 19.2611C10.8825 19.7347 10.2031 20.0001 9.49531 20.0001C8.78755 20.0001 8.10807 19.7347 7.60297 19.2611L5.93667 17.6877L5.93354 17.6847C5.52101 17.2956 4.96424 17.0781 4.38456 17.0795H3.65367C3.17571 17.0816 2.702 16.9937 2.25963 16.8208C1.81726 16.6479 1.4149 16.3934 1.07557 16.0719C0.73624 15.7503 0.466587 15.368 0.282032 14.9468C0.0974769 14.5257 0.00163949 14.0739 0 13.6173V3.46262Z" fill="white"/>
<path id="Path 14676" fill-rule="evenodd" clip-rule="evenodd" d="M6.27373 6.47824C6.03118 6.47932 5.79888 6.57184 5.62737 6.73568C5.45586 6.89952 5.359 7.12143 5.35787 7.35313C5.35346 7.53546 5.27453 7.7089 5.13798 7.83636C5.00143 7.96381 4.81809 8.03518 4.62718 8.03518C4.43626 8.03518 4.25292 7.96381 4.11637 7.83636C3.97982 7.7089 3.9009 7.53546 3.89648 7.35313C3.89648 7.05488 3.95798 6.75956 4.07746 6.48402C4.19693 6.20848 4.37206 5.95811 4.59282 5.74722C4.81359 5.53633 5.07568 5.36904 5.36412 5.25491C5.65256 5.14077 5.96172 5.08203 6.27393 5.08203C6.58614 5.08203 6.89529 5.14077 7.18374 5.25491C7.47218 5.36904 7.73427 5.53633 7.95504 5.74722C8.1758 5.95811 8.35092 6.20848 8.4704 6.48402C8.58988 6.75956 8.65137 7.05488 8.65137 7.35313C8.65137 8.63409 7.65456 9.30688 6.96161 9.76114L6.86345 9.82539C6.22876 10.2408 5.77709 10.5352 5.54206 10.9461H7.92048C8.01786 10.9439 8.11471 10.9604 8.20533 10.9945C8.29595 11.0286 8.37853 11.0797 8.44819 11.1447C8.51786 11.2098 8.57322 11.2874 8.61101 11.3732C8.64881 11.4589 8.66828 11.5511 8.66828 11.6441C8.66828 11.7371 8.64881 11.8293 8.61101 11.915C8.57322 12.0008 8.51786 12.0784 8.44819 12.1435C8.37853 12.2085 8.29595 12.2596 8.20533 12.2937C8.11471 12.3278 8.01786 12.3443 7.92048 12.3421H5.30938C5.10509 12.3443 4.90313 12.3006 4.71983 12.2144C4.53654 12.1282 4.37707 12.002 4.25433 11.846C4.1316 11.69 4.04906 11.5085 4.01338 11.3164C3.97771 11.1242 3.98991 10.9267 4.049 10.7399V10.7365C4.39704 9.72789 5.30938 9.14064 5.95502 8.72524C6.0172 8.68527 6.07664 8.64679 6.13334 8.60981C6.88496 8.11707 7.1892 7.82195 7.1892 7.35276C7.18797 7.12118 7.09112 6.89943 6.9197 6.73568C6.74829 6.57193 6.51615 6.47941 6.27373 6.47824Z" fill="#FAB737"/>
<path id="Path 14677" fill-rule="evenodd" clip-rule="evenodd" d="M11.7665 5.65677C11.9177 5.43089 12.141 5.25743 12.4032 5.16199C12.6655 5.06654 12.953 5.05416 13.2232 5.12668C13.4952 5.20012 13.7345 5.35652 13.9047 5.57201C14.075 5.7875 14.1667 6.05027 14.1661 6.32023V9.59641H14.3706C14.468 9.59425 14.5648 9.61072 14.6554 9.64483C14.7461 9.67894 14.8286 9.73001 14.8983 9.79504C14.968 9.86007 15.0233 9.93774 15.0611 10.0235C15.0989 10.1093 15.1184 10.2014 15.1184 10.2944C15.1184 10.3875 15.0989 10.4796 15.0611 10.5653C15.0233 10.6511 14.968 10.7288 14.8983 10.7938C14.8286 10.8588 14.7461 10.9099 14.6554 10.944C14.5648 10.9781 14.468 10.9946 14.3706 10.9924H14.1661V11.6346C14.1683 11.7276 14.1511 11.8201 14.1154 11.9067C14.0797 11.9933 14.0262 12.0721 13.9581 12.1387C13.89 12.2052 13.8087 12.2581 13.719 12.2942C13.6292 12.3303 13.5328 12.3489 13.4354 12.3489C13.338 12.3489 13.2415 12.3303 13.1518 12.2942C13.062 12.2581 12.9807 12.2052 12.9126 12.1387C12.8445 12.0721 12.7911 11.9933 12.7554 11.9067C12.7197 11.8201 12.7024 11.7276 12.7047 11.6346V10.9924H10.7951C10.5588 10.9941 10.3262 10.9361 10.1209 10.8241C9.91568 10.7122 9.74507 10.5504 9.62641 10.3552C9.50775 10.1599 9.44527 9.93817 9.44531 9.7124C9.44535 9.48663 9.50791 9.26489 9.62664 9.06968L9.6286 9.06632C10.2934 7.98596 11.0556 6.7502 11.7622 5.66312L11.7665 5.6564V5.65677ZM12.7051 9.59641V6.86377C12.1341 7.7551 11.5385 8.71666 10.9981 9.59641H12.7051Z" fill="#FAB737"/>
</g>
<defs>
<clipPath id="clip0_746_11859">
<rect width="19" height="20" fill="white"/>
</clipPath>
</defs>
</svg>
