<svg width="60" height="60" viewBox="0 0 60 60" fill="none" xmlns="http://www.w3.org/2000/svg">
<path d="M31.4132 16.1272C32.2197 15.7725 32.8757 15.1636 33.2722 14.4016C33.6688 13.6395 33.7819 12.7701 33.5929 11.9377C33.404 11.1054 32.9242 10.3602 32.2333 9.82577C31.5425 9.29138 30.6821 9 29.795 9C28.9079 9 28.0475 9.29138 27.3566 9.82577C26.6657 10.3602 26.186 11.1054 25.997 11.9377C25.808 12.7701 25.9212 13.6395 26.3177 14.4016C26.7142 15.1636 27.3702 15.7725 28.1768 16.1272C25.4486 17.3122 23.543 21.2532 23.543 23.9682C23.543 24.0147 23.5525 24.0609 23.5711 24.1039C23.5897 24.1469 23.617 24.186 23.6513 24.2188C23.6856 24.2517 23.7264 24.2778 23.7712 24.2955C23.8161 24.3132 23.8641 24.3223 23.9126 24.3222H35.6794C35.7279 24.3223 35.7759 24.3132 35.8208 24.2955C35.8656 24.2778 35.9064 24.2517 35.9407 24.2188C35.9751 24.186 36.0023 24.1469 36.0209 24.1039C36.0395 24.0609 36.0491 24.0147 36.0491 23.9682C36.0459 21.2542 34.1424 17.3102 31.4132 16.1272ZM26.6461 12.7442C26.6463 12.1462 26.831 11.5618 27.177 11.0647C27.523 10.5676 28.0147 10.1802 28.5899 9.95136C29.1652 9.72254 29.7981 9.66263 30.4088 9.77918C31.0195 9.89573 31.5804 10.1835 32.0208 10.6062C32.4613 11.0288 32.7613 11.5674 32.8831 12.1537C33.0048 12.7401 32.9429 13.348 32.705 13.9006C32.4671 14.4531 32.064 14.9255 31.5466 15.2581C31.0292 15.5907 30.4207 15.7686 29.7981 15.7692C28.9627 15.7692 28.1614 15.4507 27.5704 14.8836C26.9793 14.3166 26.6469 13.5475 26.6461 12.7452V12.7442ZM24.2927 23.6102C24.4749 20.6582 26.871 16.4732 29.796 16.4732C32.721 16.4732 35.1171 20.6582 35.2993 23.6102H24.2927Z" fill="#464646" stroke="#464646" stroke-width="1.5"/>
<path d="M16.8702 37.0666C17.6768 36.712 18.3328 36.1031 18.7293 35.341C19.1258 34.5789 19.2389 33.7095 19.05 32.8772C18.861 32.0448 18.3812 31.2996 17.6904 30.7652C16.9995 30.2308 16.1391 29.9395 15.252 29.9395C14.3649 29.9395 13.5045 30.2308 12.8136 30.7652C12.1228 31.2996 11.643 32.0448 11.454 32.8772C11.2651 33.7095 11.3782 34.5789 11.7747 35.341C12.1712 36.1031 12.8272 36.712 13.6338 37.0666C10.9046 38.2506 9 42.1926 9 44.9066C8.99986 44.9532 9.0093 44.9993 9.02776 45.0424C9.04623 45.0855 9.07336 45.1246 9.1076 45.1576C9.14184 45.1906 9.18253 45.2167 9.22732 45.2346C9.27211 45.2524 9.32013 45.2616 9.36862 45.2616H21.1354C21.1839 45.2616 21.2319 45.2524 21.2767 45.2346C21.3215 45.2167 21.3622 45.1906 21.3964 45.1576C21.4307 45.1246 21.4578 45.0855 21.4762 45.0424C21.4947 44.9993 21.5041 44.9532 21.504 44.9066C21.505 42.1936 19.5995 38.2506 16.8702 37.0666ZM12.1031 33.6846C12.1029 33.0863 12.2875 32.5014 12.6336 32.0039C12.9796 31.5064 13.4716 31.1186 14.0472 30.8897C14.6228 30.6608 15.2562 30.601 15.8672 30.7179C16.4782 30.8348 17.0394 31.1231 17.4797 31.5464C17.92 31.9697 18.2197 32.5089 18.3408 33.0958C18.462 33.6826 18.3991 34.2908 18.1601 34.8434C17.9212 35.396 17.5169 35.868 16.9985 36.1999C16.4801 36.5317 15.8709 36.7084 15.2478 36.7076C14.4139 36.7055 13.6149 36.3862 13.0255 35.8197C12.4361 35.2531 12.1045 34.4854 12.1031 33.6846ZM9.74974 44.5536C9.93197 41.6016 12.327 37.4166 15.252 37.4166C18.1239 37.4166 20.5627 41.6576 20.7553 44.5536H9.74974Z" fill="#464646" stroke="#464646" stroke-width="1.5"/>
<path d="M44.8702 37.0666C45.6768 36.712 46.3328 36.1031 46.7293 35.341C47.1258 34.5789 47.2389 33.7095 47.05 32.8772C46.861 32.0448 46.3812 31.2996 45.6904 30.7652C44.9995 30.2308 44.1391 29.9395 43.252 29.9395C42.3649 29.9395 41.5045 30.2308 40.8136 30.7652C40.1228 31.2996 39.643 32.0448 39.454 32.8772C39.2651 33.7095 39.3782 34.5789 39.7747 35.341C40.1712 36.1031 40.8272 36.712 41.6338 37.0666C38.9045 38.2506 37 42.1926 37 44.9066C36.9999 44.9532 37.0093 44.9993 37.0278 45.0424C37.0462 45.0855 37.0734 45.1246 37.1076 45.1576C37.1418 45.1906 37.1825 45.2167 37.2273 45.2346C37.2721 45.2524 37.3201 45.2616 37.3686 45.2616H49.1354C49.1839 45.2616 49.2319 45.2524 49.2767 45.2346C49.3215 45.2167 49.3622 45.1906 49.3964 45.1576C49.4306 45.1246 49.4578 45.0855 49.4762 45.0424C49.4947 44.9993 49.5041 44.9532 49.504 44.9066C49.505 42.1936 47.5995 38.2506 44.8702 37.0666ZM40.1031 33.6836C40.1031 33.0855 40.2878 32.5009 40.6338 32.0036C40.9798 31.5063 41.4716 31.1187 42.047 30.8898C42.6224 30.6609 43.2555 30.601 43.8663 30.7177C44.4772 30.8344 45.0382 31.1224 45.4786 31.5453C45.919 31.9682 46.2189 32.5071 46.3404 33.0937C46.4619 33.6803 46.3995 34.2883 46.1612 34.8409C45.9229 35.3934 45.5193 35.8657 45.0014 36.198C44.4836 36.5303 43.8748 36.7076 43.252 36.7076C42.4175 36.7066 41.6174 36.3877 41.0273 35.821C40.4372 35.2543 40.1052 34.486 40.1041 33.6846L40.1031 33.6836ZM37.7497 44.5526C37.9403 41.6526 40.3801 37.4156 43.253 37.4156C46.1781 37.4156 48.5731 41.6006 48.7553 44.5526H37.7497Z" fill="#464646" stroke="#464646" stroke-width="1.5"/>
<path d="M35.8198 38.3031L29.8823 34.5643V28.3782C29.8823 28.2779 29.8419 28.1817 29.77 28.1108C29.6982 28.0398 29.6007 28 29.4991 28C29.3975 28 29.3001 28.0398 29.2282 28.1108C29.1564 28.1817 29.116 28.2779 29.116 28.3782V34.5611L23.1784 38.2999C23.1358 38.3266 23.0989 38.3614 23.0699 38.4022C23.0409 38.443 23.0202 38.489 23.0092 38.5377C22.9982 38.5863 22.997 38.6366 23.0057 38.6857C23.0144 38.7349 23.0329 38.7818 23.0599 38.8239C23.087 38.866 23.1222 38.9024 23.1635 38.931C23.2049 38.9597 23.2515 38.98 23.3008 38.9909C23.3501 39.0017 23.4011 39.0029 23.4509 38.9943C23.5006 38.9857 23.5482 38.9676 23.5908 38.9408L29.5013 35.2148L35.4096 38.9366C35.4709 38.9755 35.5423 38.9963 35.6152 38.9964C35.6984 38.9967 35.7794 38.9704 35.846 38.9213C35.9126 38.8723 35.9613 38.8032 35.9846 38.7244C36.0079 38.6457 36.0047 38.5616 35.9753 38.4848C35.946 38.408 35.8922 38.3428 35.822 38.2988L35.8198 38.3031Z" fill="black" stroke="#FAB737"/>
</svg>
