<svg width="24" height="24" viewBox="0 0 24 24" fill="none" xmlns="http://www.w3.org/2000/svg">
<rect width="24" height="24" rx="12" fill="#E2EEFF"/>
<g clip-path="url(#clip0_1992_13979)">
<path d="M16.4961 18.5C16.2156 18.5 15.9883 18.2727 15.9883 17.9922C15.9883 16.0041 14.3709 14.3867 12.3828 14.3867H11.6211C9.63303 14.3867 8.01562 16.0041 8.01562 17.9922C8.01562 18.2727 7.78828 18.5 7.50781 18.5C7.22735 18.5 7 18.2727 7 17.9922C7 15.4441 9.07302 13.3711 11.6211 13.3711H12.3828C14.9309 13.3711 17.0039 15.4441 17.0039 17.9922C17.0039 18.2727 16.7766 18.5 16.4961 18.5Z" fill="#2D68EB"/>
<path d="M11.9512 12.3555C10.0611 12.3555 8.52344 10.8178 8.52344 8.92773C8.52344 7.03768 10.0611 5.5 11.9512 5.5C13.8412 5.5 15.3789 7.03768 15.3789 8.92773C15.3789 10.8178 13.8412 12.3555 11.9512 12.3555ZM11.9512 6.51562C10.6211 6.51562 9.53906 7.5977 9.53906 8.92773C9.53906 10.2578 10.6211 11.3398 11.9512 11.3398C13.2812 11.3398 14.3633 10.2578 14.3633 8.92773C14.3633 7.5977 13.2812 6.51562 11.9512 6.51562Z" fill="#2D68EB"/>
</g>
<defs>
<clipPath id="clip0_1992_13979">
<rect width="13" height="13" fill="white" transform="translate(5.5 5.5)"/>
</clipPath>
</defs>
</svg>
