<svg width="24" height="24" viewBox="0 0 24 24" fill="none" xmlns="http://www.w3.org/2000/svg">
<rect width="24" height="24" rx="12" fill="#E2EEFF"/>
<mask id="mask0_1992_13996" style="mask-type:luminance" maskUnits="userSpaceOnUse" x="5" y="5" width="15" height="15">
<path d="M5.45312 5.4549H19.6349V19.6367H5.45312V5.4549Z" fill="white"/>
</mask>
<g mask="url(#mask0_1992_13996)">
<path d="M17.6258 14.4861H7.46375V10.6055H17.6258V14.4861ZM8.71023 6.28587H16.3794C17.0667 6.28587 17.6258 6.84502 17.6258 7.53232V9.77451H7.46378V7.53232C7.46378 6.84502 8.02291 6.28587 8.71023 6.28587ZM16.3794 18.8058H8.71023C8.02291 18.8058 7.46378 18.2466 7.46378 17.5593V15.3171H17.6258V17.5593C17.6258 18.2466 17.0667 18.8058 16.3794 18.8058ZM16.3794 5.4549H8.71023C7.56471 5.4549 6.63281 6.38683 6.63281 7.53232V17.5593C6.63281 18.7048 7.56471 19.6367 8.71023 19.6367H16.3794C17.5249 19.6367 18.4568 18.7048 18.4568 17.5593V7.53232C18.4568 6.38683 17.5249 5.4549 16.3794 5.4549Z" fill="#2D68EB"/>
<path d="M9.34517 8.91016H9.99989C10.2293 8.91016 10.4154 8.72413 10.4154 8.49467C10.4154 8.26522 10.2293 8.07919 9.99989 8.07919H9.34517C9.11571 8.07919 8.92969 8.26522 8.92969 8.49467C8.92969 8.72413 9.11571 8.91016 9.34517 8.91016Z" fill="#2D68EB"/>
<path d="M9.34517 12.9609H9.99989C10.2293 12.9609 10.4154 12.7749 10.4154 12.5455C10.4154 12.316 10.2293 12.13 9.99989 12.13H9.34517C9.11571 12.13 8.92969 12.316 8.92969 12.5455C8.92969 12.7749 9.11571 12.9609 9.34517 12.9609Z" fill="#2D68EB"/>
<path d="M9.99989 16.1827H9.34517C9.11571 16.1827 8.92969 16.3687 8.92969 16.5982C8.92969 16.8276 9.11571 17.0137 9.34517 17.0137H9.99989C10.2293 17.0137 10.4154 16.8276 10.4154 16.5982C10.4154 16.3687 10.2293 16.1827 9.99989 16.1827Z" fill="#2D68EB"/>
</g>
</svg>
