<svg width="60" height="60" viewBox="0 0 60 60" fill="none" xmlns="http://www.w3.org/2000/svg">
<g clip-path="url(#clip0_2335_644)">
<path fill-rule="evenodd" clip-rule="evenodd" d="M18.6826 16.3969C18.8078 16.5219 18.9071 16.6704 18.9749 16.8339C19.0427 16.9973 19.0776 17.1725 19.0776 17.3494C19.0776 17.5264 19.0427 17.7016 18.9749 17.865C18.9071 18.0284 18.8078 18.1769 18.6826 18.3019L14.6456 22.3389C14.5206 22.4641 14.3721 22.5635 14.2087 22.6312C14.0452 22.699 13.87 22.7339 13.6931 22.7339C13.5162 22.7339 13.341 22.699 13.1775 22.6312C13.0141 22.5635 12.8656 22.4641 12.7406 22.3389L11.3946 20.9929C11.142 20.74 11.0002 20.3972 11.0004 20.0397C11.0005 19.6823 11.1427 19.3395 11.3956 19.0869C11.6485 18.8343 11.9914 18.6925 12.3488 18.6927C12.7063 18.6929 13.049 18.835 13.3016 19.0879L13.6946 19.4879L16.7766 16.3969C16.9016 16.2717 17.0501 16.1724 17.2135 16.1046C17.377 16.0368 17.5522 16.002 17.7291 16.002C17.906 16.002 18.0812 16.0368 18.2447 16.1046C18.4081 16.1724 18.5576 16.2717 18.6826 16.3969ZM18.6826 27.1619C18.8078 27.2869 18.9071 27.4354 18.9749 27.5989C19.0427 27.7623 19.0776 27.9375 19.0776 28.1144C19.0776 28.2914 19.0427 28.4666 18.9749 28.63C18.9071 28.7934 18.8078 28.9419 18.6826 29.0669L14.6456 33.1039C14.5206 33.2291 14.3721 33.3285 14.2087 33.3962C14.0452 33.464 13.87 33.4989 13.6931 33.4989C13.5162 33.4989 13.341 33.464 13.1775 33.3962C13.0141 33.3285 12.8656 33.2291 12.7406 33.1039L11.3946 31.7589C11.1418 31.506 10.9999 31.1631 11 30.8056C11.0001 30.448 11.1422 30.1052 11.3951 29.8524C11.648 29.5997 11.9909 29.4577 12.3485 29.4578C12.706 29.4579 13.0488 29.6 13.3016 29.8529L13.6946 30.2529L16.7786 27.1659C16.9036 27.0407 17.0521 26.9414 17.2155 26.8736C17.379 26.8058 17.5542 26.771 17.7311 26.771C17.908 26.771 18.0832 26.8058 18.2467 26.8736C18.4101 26.9414 18.5586 27.0407 18.6836 27.1659L18.6826 27.1619ZM18.6826 37.9269C18.8078 38.0519 18.9071 38.2004 18.9749 38.3638C19.0427 38.5273 19.0776 38.7025 19.0776 38.8794C19.0776 39.0564 19.0427 39.2316 18.9749 39.395C18.9071 39.5584 18.8078 39.7069 18.6826 39.8319L14.6456 43.8699C14.5206 43.9951 14.3721 44.0945 14.2087 44.1622C14.0452 44.23 13.87 44.2649 13.6931 44.2649C13.5162 44.2649 13.341 44.23 13.1775 44.1622C13.0141 44.0945 12.8656 43.9951 12.7406 43.8699L11.3946 42.5239C11.142 42.271 11.0002 41.9282 11.0004 41.5707C11.0005 41.2133 11.1427 40.8705 11.3956 40.6179C11.6485 40.3653 11.9914 40.2235 12.3488 40.2237C12.7063 40.2239 13.049 40.366 13.3016 40.6189L13.6946 41.0189L16.7786 37.9319C16.9036 37.8067 17.0521 37.7074 17.2155 37.6396C17.379 37.5718 17.5542 37.537 17.7311 37.537C17.908 37.537 18.0832 37.5718 18.2467 37.6396C18.4101 37.7074 18.5586 37.8067 18.6836 37.9319L18.6826 37.9269Z" fill="#FAB737"/>
<path fill-rule="evenodd" clip-rule="evenodd" d="M21.7656 41.5718C21.7656 41.2148 21.9074 40.8725 22.1599 40.62C22.4123 40.3676 22.7546 40.2258 23.1116 40.2258H47.3336C47.5134 40.2209 47.6923 40.2521 47.8599 40.3175C48.0274 40.3829 48.1801 40.4812 48.309 40.6067C48.4379 40.7321 48.5404 40.8821 48.6103 41.0478C48.6803 41.2134 48.7163 41.3915 48.7163 41.5713C48.7163 41.7512 48.6803 41.9292 48.6103 42.0949C48.5404 42.2605 48.4379 42.4105 48.309 42.536C48.1801 42.6614 48.0274 42.7597 47.8599 42.8251C47.6923 42.8905 47.5134 42.9217 47.3336 42.9168H23.1116C22.7548 42.9168 22.4126 42.7751 22.1602 42.5229C21.9078 42.2707 21.7659 41.9286 21.7656 41.5718ZM21.7656 30.8068C21.7656 30.4498 21.9074 30.1075 22.1599 29.855C22.4123 29.6026 22.7546 29.4608 23.1116 29.4608H47.3336C47.5134 29.4559 47.6923 29.4871 47.8599 29.5525C48.0274 29.6179 48.1801 29.7162 48.309 29.8417C48.4379 29.9671 48.5404 30.1171 48.6103 30.2828C48.6803 30.4484 48.7163 30.6265 48.7163 30.8063C48.7163 30.9862 48.6803 31.1642 48.6103 31.3299C48.5404 31.4955 48.4379 31.6455 48.309 31.771C48.1801 31.8964 48.0274 31.9947 47.8599 32.0601C47.6923 32.1255 47.5134 32.1567 47.3336 32.1518H23.1116C22.9347 32.1518 22.7595 32.1169 22.5961 32.0492C22.4326 31.9814 22.2842 31.8821 22.1592 31.7569C22.0341 31.6317 21.935 31.4831 21.8675 31.3195C21.8 31.156 21.7654 30.9807 21.7656 30.8038V30.8068ZM21.7656 20.0418C21.7656 19.6848 21.9074 19.3425 22.1599 19.09C22.4123 18.8376 22.7546 18.6958 23.1116 18.6958H47.3336C47.5134 18.6909 47.6923 18.7221 47.8599 18.7875C48.0274 18.8529 48.1801 18.9512 48.309 19.0767C48.4379 19.2021 48.5404 19.3521 48.6103 19.5178C48.6803 19.6834 48.7163 19.8615 48.7163 20.0413C48.7163 20.2212 48.6803 20.3992 48.6103 20.5649C48.5404 20.7306 48.4379 20.8805 48.309 21.006C48.1801 21.1314 48.0274 21.2297 47.8599 21.2951C47.6923 21.3605 47.5134 21.3917 47.3336 21.3868H23.1116C22.7546 21.3868 22.4123 21.245 22.1599 20.9926C21.9074 20.7402 21.7656 20.3978 21.7656 20.0408V20.0418Z" fill="#464646"/>
</g>
<defs>
<clipPath id="clip0_2335_644">
<rect width="37.681" height="28.264" fill="white" transform="translate(11 16)"/>
</clipPath>
</defs>
</svg>
