<svg width="60" height="60" viewBox="0 0 60 60" fill="none" xmlns="http://www.w3.org/2000/svg">
<path fill-rule="evenodd" clip-rule="evenodd" d="M18.3073 11.9317C17.7353 11.9274 17.168 12.0362 16.6379 12.252C16.1078 12.4678 15.6253 12.7863 15.2181 13.1893C14.8108 13.5923 14.4868 14.0719 14.2646 14.6007C14.0423 15.1294 13.9262 15.6969 13.9228 16.2707V37.5963C13.9265 38.1699 14.0428 38.7372 14.2652 39.2656C14.4876 39.7941 14.8117 40.2734 15.2189 40.6762C15.6261 41.0789 16.1085 41.3972 16.6384 41.6129C17.1683 41.8285 17.7355 41.9373 18.3073 41.9329H19.7691C21.7023 41.9301 23.5581 42.6947 24.9311 44.0597L28.2567 47.3546C28.7197 47.807 29.3406 48.0601 29.9871 48.0601C30.6335 48.0601 31.2544 47.807 31.7175 47.3546M31.7175 47.3546L35.0439 44.0597C35.7227 43.3822 36.528 42.8457 37.4137 42.4808C38.2995 42.1158 39.2483 41.9297 40.2059 41.9329H41.6872C42.8415 41.9382 43.9509 41.4846 44.7726 40.6714C45.5943 39.8582 46.0614 38.7517 46.0718 37.5939V16.2715C46.0684 15.6977 45.9522 15.1302 45.73 14.6015C45.5077 14.0727 45.1837 13.5931 44.7764 13.1901C44.3692 12.7871 43.8867 12.4686 43.3567 12.2528C42.8266 12.037 42.2593 11.9282 41.6872 11.9325H18.3019M11 16.2715C11.0032 15.3126 11.1948 14.3638 11.5638 13.4792C11.9329 12.5947 12.4722 11.7917 13.1509 11.1164C13.8295 10.4411 14.6343 9.90654 15.5191 9.54341C16.4039 9.18027 17.3513 8.99564 18.3073 9.00008H41.6927C42.6487 8.99564 43.5961 9.18027 44.4809 9.54341C45.3657 9.90654 46.1705 10.4411 46.8491 11.1164C47.5278 11.7917 48.0671 12.5947 48.4362 13.4792C48.8052 14.3638 48.9968 15.3126 49 16.2715V37.5963C48.9899 39.5317 48.2149 41.3841 46.845 42.7472C45.4752 44.1104 43.6223 44.8729 41.6927 44.8677H40.2113C39.637 44.8644 39.0676 44.975 38.5359 45.1931C38.0043 45.4112 37.5208 45.7325 37.1134 46.1386L37.1071 46.1449L33.7753 49.4484C32.7651 50.4429 31.4061 51.0001 29.9906 51.0001C28.5751 51.0001 27.2161 50.4429 26.2059 49.4484L22.8733 46.1441L22.8671 46.1378C22.042 45.3208 20.9285 44.864 19.7691 44.8669H18.3073C17.3514 44.8714 16.404 44.6868 15.5193 44.3237C14.6345 43.9606 13.8298 43.4261 13.1511 42.7509C12.4725 42.0756 11.9332 41.2728 11.5641 40.3883C11.195 39.5039 11.0033 38.5551 11 37.5963V16.2715Z" fill="#464646"/>
<path fill-rule="evenodd" clip-rule="evenodd" d="M23.7545 22.9359C23.2694 22.9382 22.8048 23.1325 22.4618 23.4766C22.1187 23.8206 21.925 24.2866 21.9228 24.7732C21.9139 25.1561 21.7561 25.5203 21.483 25.788C21.2099 26.0557 20.8432 26.2055 20.4614 26.2055C20.0796 26.2055 19.7129 26.0557 19.4398 25.788C19.1667 25.5203 19.0088 25.1561 19 24.7732C19 24.1469 19.123 23.5267 19.3619 22.9481C19.6009 22.3694 19.9511 21.8437 20.3927 21.4008C20.8342 20.9579 21.3584 20.6066 21.9353 20.3669C22.5122 20.1273 23.1305 20.0039 23.7549 20.0039C24.3793 20.0039 24.9976 20.1273 25.5745 20.3669C26.1514 20.6066 26.6756 20.9579 27.1171 21.4008C27.5586 21.8437 27.9089 22.3694 28.1478 22.9481C28.3868 23.5267 28.5098 24.1469 28.5098 24.7732C28.5098 27.4632 26.5162 28.8761 25.1302 29.83L24.9339 29.965C23.6646 30.8373 22.7612 31.4555 22.2912 32.3184H27.048C27.2428 32.3139 27.4364 32.3485 27.6177 32.4201C27.7989 32.4917 27.9641 32.599 28.1034 32.7356C28.2428 32.8721 28.3535 33.0352 28.4291 33.2153C28.5046 33.3954 28.5436 33.5889 28.5436 33.7843C28.5436 33.9796 28.5046 34.1731 28.4291 34.3532C28.3535 34.5333 28.2428 34.6964 28.1034 34.8329C27.9641 34.9695 27.7989 35.0767 27.6177 35.1484C27.4364 35.22 27.2428 35.2546 27.048 35.2501H21.8258C21.4172 35.2548 21.0133 35.1629 20.6467 34.9819C20.2801 34.8009 19.9612 34.5358 19.7157 34.2082C19.4702 33.8805 19.3051 33.4995 19.2338 33.096C19.1625 32.6924 19.1869 32.2777 19.305 31.8854V31.8783C20.0011 29.7602 21.8258 28.527 23.1171 27.6546C23.2414 27.5707 23.3603 27.4899 23.4737 27.4122C24.9769 26.3775 25.5854 25.7577 25.5854 24.7724C25.583 24.2861 25.3893 23.8204 25.0464 23.4766C24.7036 23.1327 24.2393 22.9384 23.7545 22.9359Z" fill="#FAB737"/>
<path fill-rule="evenodd" clip-rule="evenodd" d="M34.7401 21.2111C35.0425 20.7367 35.4889 20.3724 36.0135 20.172C36.5381 19.9716 37.113 19.9456 37.6535 20.0979C38.1973 20.2521 38.676 20.5805 39.0165 21.0331C39.3569 21.4856 39.5405 22.0374 39.5391 22.6043V29.4843H39.9482C40.1429 29.4798 40.3366 29.5143 40.5179 29.586C40.6991 29.6576 40.8643 29.7649 41.0036 29.9014C41.1429 30.038 41.2537 30.2011 41.3293 30.3812C41.4048 30.5613 41.4438 30.7547 41.4438 30.9501C41.4438 31.1455 41.4048 31.3389 41.3293 31.519C41.2537 31.6991 41.1429 31.8622 41.0036 31.9988C40.8643 32.1354 40.6991 32.2426 40.5179 32.3142C40.3366 32.3859 40.1429 32.4204 39.9482 32.4159H39.5391V33.7645C39.5436 33.9598 39.5092 34.1541 39.4378 34.3359C39.3663 34.5177 39.2594 34.6833 39.1233 34.8231C38.9871 34.9628 38.8245 35.0739 38.645 35.1497C38.4654 35.2255 38.2726 35.2646 38.0778 35.2646C37.8829 35.2646 37.6901 35.2255 37.5106 35.1497C37.331 35.0739 37.1684 34.9628 37.0322 34.8231C36.8961 34.6833 36.7892 34.5177 36.7177 34.3359C36.6463 34.1541 36.6119 33.9598 36.6164 33.7645V32.4159H32.7973C32.3246 32.4195 31.8594 32.2976 31.4489 32.0625C31.0384 31.8275 30.6972 31.4877 30.4598 31.0777C30.2225 30.6677 30.0976 30.202 30.0977 29.7279C30.0977 29.2538 30.2229 28.7881 30.4603 28.3782L30.4642 28.3711C31.7938 26.1024 33.3182 23.5073 34.7315 21.2244L34.7401 21.2111ZM36.6171 29.4843V23.7457C35.4753 25.6175 34.2841 27.6368 33.2032 29.4843H36.6171Z" fill="#FAB737"/>
</svg>
