<svg width="60" height="60" viewBox="0 0 60 60" fill="none" xmlns="http://www.w3.org/2000/svg">
<path d="M10.8867 34.1516H10.8865L10.887 34.163C10.9609 35.7789 11.6712 37.2999 12.8628 38.3938C14.0531 39.4866 15.6271 40.0644 17.2417 40.0016H43.7979C45.4116 40.0633 46.9843 39.4849 48.1734 38.3921C49.3638 37.2983 50.0731 35.7779 50.1465 34.163L50.1467 34.163V34.1516V15.6046H50.147L50.1465 15.5933C50.0731 13.9781 49.3637 12.4576 48.1731 11.3638C46.9837 10.271 45.4107 9.69265 43.7969 9.75463H17.2416C15.6271 9.69182 14.0531 10.2697 12.8628 11.3625C11.6712 12.4564 10.9609 13.9773 10.887 15.5932L10.8867 15.5932V15.6046V34.1516ZM17.2212 12.4111L17.229 12.4116H17.2367H43.8017H43.8094L43.8171 12.4111C44.7291 12.3549 45.6265 12.6606 46.3146 13.2619C47.0004 13.8612 47.4231 14.7059 47.4917 15.6139V34.1423C47.4231 35.0503 47.0004 35.895 46.3146 36.4943C45.6265 37.0956 44.7291 37.4013 43.8171 37.3451L43.8094 37.3446H43.8017H17.2367H17.229L17.2213 37.3451C16.3089 37.4016 15.411 37.096 14.7224 36.4948C14.0361 35.8955 13.6129 35.0506 13.5437 34.1423V15.6139C13.6126 14.7055 14.0358 13.8605 14.7221 13.2612C15.4108 12.6598 16.3088 12.3544 17.2212 12.4111Z" fill="#464646" stroke="#464646" stroke-width="0.5"/>
<path d="M48.7945 41.5399L54.8346 47.5925H6.87592L12.9169 41.5409C14.0519 40.5442 15.4761 39.9371 16.9811 39.8083C17.3302 39.8022 17.6632 39.659 17.9078 39.4094C18.1546 39.1574 18.2913 38.8177 18.2877 38.4649C18.2841 38.1122 18.1406 37.7754 17.8886 37.5285C17.637 37.2819 17.2978 37.1453 16.9455 37.1485H16.9247H16.9162L16.9076 37.1491C14.7309 37.2984 12.6686 38.1798 11.0563 39.6498L11.0561 39.6495L11.0478 39.6579L4.78981 45.9279C4.7898 45.9279 4.7898 45.9279 4.78979 45.9279C4.17034 46.5484 3.88441 47.132 3.78867 47.6409C3.69307 48.1491 3.79116 48.561 3.90385 48.8324C4.01624 49.103 4.23717 49.4638 4.66318 49.7557C5.08985 50.0481 5.70359 50.2585 6.57974 50.2585H55.1387C56.0145 50.2585 56.6269 50.0495 57.0524 49.7577C57.4773 49.4662 57.6967 49.1052 57.8089 48.8327C57.9212 48.56 58.0194 48.1479 57.9238 47.64C57.828 47.1314 57.542 46.5488 56.9227 45.9289C56.9226 45.9288 56.9226 45.9288 56.9226 45.9288L50.6637 39.6589L50.6639 39.6587L50.6552 39.6508C49.0429 38.1807 46.9806 37.2993 44.8038 37.1501L44.8039 37.1499L44.7952 37.1496C44.6196 37.1437 44.4445 37.173 44.2804 37.2359C44.1163 37.2988 43.9665 37.394 43.8398 37.5159C43.7132 37.6377 43.6122 37.7837 43.543 37.9452C43.474 38.1062 43.4379 38.2794 43.4368 38.4545C43.4303 38.8059 43.5634 39.1455 43.8068 39.3991C44.0487 39.6511 44.3801 39.7977 44.7291 39.8073C46.2345 39.9358 47.6592 40.543 48.7945 41.5399Z" fill="#464646" stroke="#464646" stroke-width="0.5"/>
<path d="M37.134 33H23.19C21.8992 33.0001 20.6547 32.5415 19.6994 31.7136C18.7441 30.8856 18.1467 29.7479 18.0236 28.5225C17.9006 27.2971 18.2608 26.0719 19.034 25.0862C19.8072 24.1004 20.9378 23.4248 22.2052 23.1913C22.2001 23.0892 22.1975 22.988 22.1975 22.8867C22.1972 21.1513 22.8841 19.4798 24.1206 18.2066C25.3571 16.9334 27.0521 16.1525 28.8664 16.0201C30.6808 15.8877 32.4807 16.4135 33.9059 17.4924C35.3312 18.5713 36.2767 20.1236 36.5534 21.8389C36.7461 21.8209 36.9405 21.8111 37.134 21.8111C38.6897 21.8111 40.1818 22.4005 41.2819 23.4497C42.382 24.4989 43 25.9218 43 27.4055C43 28.8893 42.382 30.3123 41.2819 31.3614C40.1818 32.4106 38.6897 33 37.134 33ZM23.1669 24.8664C22.2811 24.8693 21.4329 25.2077 20.8087 25.8071C20.1845 26.4065 19.8356 27.2178 19.8387 28.0626C19.8417 28.9073 20.1966 29.7163 20.825 30.3116C21.4535 30.9069 22.3042 31.2397 23.19 31.2367H37.134C37.7111 31.2372 38.2816 31.119 38.8065 30.8903C39.3315 30.6615 39.7986 30.3276 40.176 29.9112C40.5534 29.4947 40.8322 29.0056 40.9936 28.4771C41.1549 27.9487 41.1949 27.3932 41.1109 26.8487C41.0269 26.3041 40.8207 25.7832 40.5066 25.3215C40.1925 24.8597 39.7777 24.468 39.2905 24.1729C38.8033 23.8779 38.2551 23.6864 37.6833 23.6116C37.1116 23.5368 36.5296 23.5803 35.977 23.7394C35.8389 23.7788 35.6931 23.787 35.5511 23.7631C35.4091 23.7392 35.2749 23.684 35.1592 23.6019C35.0436 23.5198 34.9497 23.413 34.885 23.2901C34.8203 23.1672 34.7867 23.0316 34.7867 22.8941C34.7867 22.8875 34.7867 22.8802 34.7867 22.8728C34.7845 22.1613 34.6267 21.4581 34.3236 20.808C34.0205 20.1578 33.5787 19.5751 33.0263 19.0969C32.4739 18.6186 31.8231 18.2555 31.1154 18.0305C30.4076 17.8055 29.6585 17.7236 28.9157 17.7901C28.1729 17.8566 27.4528 18.0699 26.8013 18.4166C26.1499 18.7633 25.5813 19.2356 25.1318 19.8035C24.6824 20.3714 24.362 21.0224 24.191 21.7149C24.02 22.4075 24.0023 23.1264 24.1388 23.8259C24.1636 23.9532 24.1587 24.0841 24.1244 24.2094C24.0901 24.3347 24.0274 24.4513 23.9406 24.5508C23.8538 24.6504 23.7451 24.7304 23.6222 24.7854C23.4993 24.8404 23.3652 24.8689 23.2294 24.8689L23.1669 24.8664Z" fill="#FAB737"/>
</svg>
