<svg xmlns="http://www.w3.org/2000/svg" width="42" height="42" viewBox="0 0 42 42">
  <g id="Group_27866" data-name="Group 27866" transform="translate(-828 -3671)">
    <rect id="Rectangle_44132" data-name="Rectangle 44132" width="42" height="42" transform="translate(828 3671)" fill="none"/>
    <g id="_24-support_linear" data-name="24-support_linear" transform="translate(833.729 3675.172)">
      <path id="Path_14675" data-name="Path 14675" d="M10.374,4.869A3.5,3.5,0,0,0,6.849,8.347V25.435a3.5,3.5,0,0,0,3.524,3.477h1.175a5.882,5.882,0,0,1,4.149,1.7l0,0,2.673,2.642h0a1.993,1.993,0,0,0,2.782,0m0,0,2.674-2.642,0,0a5.854,5.854,0,0,1,4.149-1.7h1.19a3.508,3.508,0,0,0,3.524-3.477V8.347a3.5,3.5,0,0,0-3.524-3.477h-18.8M4.5,8.347A5.847,5.847,0,0,1,10.374,2.52h18.8a5.847,5.847,0,0,1,5.874,5.827V25.435a5.858,5.858,0,0,1-5.874,5.827h-1.19a3.5,3.5,0,0,0-2.49,1.019l0,0-2.678,2.647a4.343,4.343,0,0,1-6.084,0l-2.679-2.648,0,0a3.532,3.532,0,0,0-2.49-1.019H10.374A5.847,5.847,0,0,1,4.5,25.435Z" transform="translate(-4.5 -2.52)" fill="#434343" fill-rule="evenodd"/>
      <path id="Path_14676" data-name="Path 14676" d="M16.322,15.789a1.479,1.479,0,0,0-1.472,1.472,1.175,1.175,0,0,1-2.349,0,3.822,3.822,0,1,1,7.644,0c0,2.155-1.6,3.288-2.717,4.052l-.158.108a6.4,6.4,0,0,0-2.124,1.886h3.824a1.175,1.175,0,0,1,0,2.349h-4.2a2.092,2.092,0,0,1-2.026-2.7l0-.005h0a6.94,6.94,0,0,1,3.064-3.385l.286-.194c1.208-.829,1.7-1.326,1.7-2.115A1.479,1.479,0,0,0,16.322,15.789Z" transform="translate(-6.235 -4.888)" fill="#fdc736" fill-rule="evenodd"/>
      <path id="Path_14677" data-name="Path 14677" d="M27.623,14.406a2.1,2.1,0,0,1,2.341-.892,2.082,2.082,0,0,1,1.516,2.008v5.513h.329a1.175,1.175,0,1,1,0,2.349H31.48v1.081a1.175,1.175,0,1,1-2.349,0V23.385H26.06a2.154,2.154,0,0,1-1.878-3.236l0-.005h0c1.066-1.818,2.294-3.9,3.43-5.727l.007-.011Zm1.508,6.63v-4.6c-.918,1.5-1.875,3.118-2.744,4.6Z" transform="translate(-8.706 -4.887)" fill="#fdc736" fill-rule="evenodd"/>
    </g>
  </g>
</svg>
