<svg width="98" height="98" viewBox="0 0 98 98" fill="none" xmlns="http://www.w3.org/2000/svg">
<circle cx="49" cy="49" r="49" fill="url(#paint0_linear_3299_44133)"/>
<path d="M49.0643 34.1064C50.0942 33.6533 50.9317 32.8753 51.438 31.9016C51.9443 30.9279 52.0887 29.8171 51.8475 28.7536C51.6062 27.6901 50.9936 26.7379 50.1115 26.0551C49.2294 25.3723 48.1308 25 46.9982 25C45.8656 25 44.767 25.3723 43.8849 26.0551C43.0028 26.7379 42.3902 27.6901 42.1489 28.7536C41.9077 29.8171 42.0521 30.9279 42.5584 31.9016C43.0647 32.8753 43.9023 33.6533 44.9321 34.1064C41.4487 35.6205 39.0156 40.6559 39.0156 44.1249C39.0156 44.1844 39.0278 44.2433 39.0516 44.2983C39.0753 44.3532 39.1101 44.4032 39.1539 44.4452C39.1978 44.4872 39.2498 44.5205 39.3071 44.5431C39.3643 44.5658 39.4257 44.5774 39.4876 44.5772H54.5115C54.5734 44.5774 54.6347 44.5658 54.692 44.5431C54.7492 44.5205 54.8013 44.4872 54.8451 44.4452C54.889 44.4032 54.9237 44.3532 54.9475 44.2983C54.9712 44.2433 54.9834 44.1844 54.9834 44.1249C54.9795 40.6572 52.549 35.6179 49.0643 34.1064ZM42.9777 29.7839C42.9779 29.02 43.2139 28.2732 43.6556 27.6381C44.0974 27.0029 44.7252 26.5079 45.4596 26.2156C46.1941 25.9232 47.0022 25.8466 47.7819 25.9956C48.5616 26.1445 49.2779 26.5122 49.8402 27.0522C50.4025 27.5922 50.7856 28.2803 50.9411 29.0296C51.0966 29.7788 51.0174 30.5555 50.7137 31.2615C50.41 31.9675 49.8953 32.5711 49.2347 32.9961C48.574 33.421 47.7972 33.6482 47.0022 33.649C45.9355 33.649 44.9125 33.242 44.1578 32.5176C43.4032 31.7931 42.9787 30.8103 42.9777 29.7852V29.7839ZM39.9729 43.6675C40.2056 39.8957 43.2648 34.5485 46.9995 34.5485C50.7342 34.5485 53.7935 39.8957 54.0262 43.6675H39.9729Z" fill="#F8F8F8" stroke="#F8F8F8" stroke-width="1.61526"/>
<path d="M33.0487 58.3095C34.0785 57.8564 34.9161 57.0784 35.4224 56.1047C35.9286 55.131 36.0731 54.0202 35.8318 52.9567C35.5905 51.8932 34.978 50.941 34.0959 50.2582C33.2138 49.5754 32.1152 49.2031 30.9826 49.2031C29.8499 49.2031 28.7514 49.5754 27.8693 50.2582C26.9872 50.941 26.3746 51.8932 26.1333 52.9567C25.892 54.0202 26.0365 55.131 26.5428 56.1047C27.049 57.0784 27.8866 57.8564 28.9165 58.3095C25.4317 59.8223 23 64.8591 23 68.3267C22.9998 68.3862 23.0119 68.4452 23.0354 68.5002C23.059 68.5552 23.0937 68.6053 23.1374 68.6474C23.1811 68.6895 23.2331 68.723 23.2902 68.7458C23.3474 68.7686 23.4087 68.7803 23.4707 68.7803H38.4945C38.5564 68.7803 38.6177 68.7686 38.6749 68.7458C38.7321 68.723 38.7841 68.6895 38.8278 68.6474C38.8715 68.6053 38.9061 68.5552 38.9297 68.5002C38.9533 68.4452 38.9653 68.3862 38.9652 68.3267C38.9665 64.8603 36.5334 59.8223 33.0487 58.3095ZM26.962 53.9883C26.9618 53.2239 27.1975 52.4765 27.6393 51.8409C28.0812 51.2052 28.7094 50.7098 29.4443 50.4173C30.1792 50.1248 30.988 50.0484 31.7681 50.1977C32.5482 50.3471 33.2647 50.7155 33.8269 51.2563C34.3891 51.7971 34.7718 52.4861 34.9264 53.2359C35.0811 53.9858 35.0008 54.7629 34.6957 55.4689C34.3906 56.1749 33.8744 56.7781 33.2125 57.2021C32.5506 57.6261 31.7727 57.8519 30.9773 57.8508C29.9125 57.8481 28.8923 57.4402 28.1398 56.7163C27.3873 55.9924 26.9638 55.0116 26.962 53.9883ZM23.9573 67.8757C24.1899 64.1039 27.2479 58.7567 30.9826 58.7567C34.6495 58.7567 37.7633 64.1755 38.0092 67.8757H23.9573Z" fill="#F8F8F8" stroke="#F8F8F8" stroke-width="1.61526"/>
<path d="M65.0799 58.3095C66.1098 57.8564 66.9474 57.0784 67.4536 56.1047C67.9599 55.131 68.1044 54.0202 67.8631 52.9567C67.6218 51.8932 67.0092 50.941 66.1271 50.2582C65.245 49.5754 64.1465 49.2031 63.0138 49.2031C61.8812 49.2031 60.7826 49.5754 59.9005 50.2582C59.0184 50.941 58.4059 51.8932 58.1646 52.9567C57.9233 54.0202 58.0678 55.131 58.574 56.1047C59.0803 57.0784 59.9179 57.8564 60.9477 58.3095C57.463 59.8223 55.0313 64.8591 55.0313 68.3267C55.0311 68.3862 55.0431 68.4452 55.0667 68.5002C55.0903 68.5552 55.1249 68.6053 55.1686 68.6474C55.2124 68.6895 55.2643 68.723 55.3215 68.7458C55.3787 68.7686 55.44 68.7803 55.5019 68.7803H70.5258C70.5877 68.7803 70.649 68.7686 70.7062 68.7458C70.7634 68.723 70.8153 68.6895 70.859 68.6474C70.9027 68.6053 70.9374 68.5552 70.961 68.5002C70.9845 68.4452 70.9966 68.3862 70.9964 68.3267C70.9977 64.8603 68.5647 59.8223 65.0799 58.3095ZM58.9933 53.9871C58.9933 53.2229 59.2291 52.4759 59.6709 51.8405C60.1127 51.2051 60.7406 50.7098 61.4752 50.4174C62.2099 50.125 63.0183 50.0484 63.7982 50.1975C64.5781 50.3466 65.2945 50.7146 65.8568 51.255C66.4191 51.7953 66.802 52.4838 66.9571 53.2333C67.1122 53.9828 67.0326 54.7597 66.7283 55.4657C66.424 56.1717 65.9087 56.7751 65.2475 57.1997C64.5863 57.6242 63.809 57.8508 63.0138 57.8508C61.9483 57.8495 60.9268 57.4421 60.1734 56.718C59.4199 55.994 58.996 55.0123 58.9946 53.9883L58.9933 53.9871ZM55.9885 67.8744C56.2318 64.1691 59.3469 58.7555 63.0152 58.7555C66.7498 58.7555 69.8078 64.1027 70.0405 67.8744H55.9885Z" fill="#F8F8F8" stroke="#F8F8F8" stroke-width="1.61526"/>
<path d="M54.7639 57.9406L47.47 53.4687V46.0695C47.47 45.9495 47.4204 45.8345 47.3322 45.7497C47.2439 45.6648 47.1242 45.6172 46.9994 45.6172C46.8745 45.6172 46.7548 45.6648 46.6666 45.7497C46.5783 45.8345 46.5287 45.9495 46.5287 46.0695V53.4648L39.2348 57.9368C39.1825 57.9688 39.1371 58.0103 39.1015 58.0591C39.0658 58.1079 39.0405 58.163 39.027 58.2212C39.0135 58.2794 39.012 58.3396 39.0227 58.3983C39.0334 58.457 39.056 58.5132 39.0892 58.5635C39.1225 58.6139 39.1658 58.6574 39.2165 58.6917C39.2673 58.726 39.3246 58.7503 39.3852 58.7633C39.4457 58.7763 39.5083 58.7777 39.5695 58.7674C39.6306 58.7571 39.689 58.7354 39.7414 58.7034L47.002 54.2468L54.26 58.6983C54.3353 58.7449 54.423 58.7698 54.5126 58.7699C54.6147 58.7703 54.7142 58.7388 54.7961 58.6801C54.8779 58.6214 54.9377 58.5387 54.9663 58.4446C54.995 58.3504 54.991 58.2498 54.955 58.158C54.9189 58.0661 54.8528 57.9881 54.7666 57.9355L54.7639 57.9406Z" fill="black" stroke="#FAB737" stroke-width="1.61526"/>
<defs>
<linearGradient id="paint0_linear_3299_44133" x1="28" y1="6" x2="72.5" y2="93" gradientUnits="userSpaceOnUse">
<stop stop-color="#0082FF"/>
<stop offset="1" stop-color="#001969"/>
</linearGradient>
</defs>
</svg>
