<svg width="98" height="98" viewBox="0 0 98 98" fill="none" xmlns="http://www.w3.org/2000/svg">
<circle cx="49" cy="49" r="49" fill="url(#paint0_linear_3378_873)"/>
<path d="M50.272 26.5566L69.3808 35.1134V47.8544C69.4002 53.7033 67.4748 59.3926 63.9073 64.0275C60.6207 68.6598 55.7839 71.9621 50.273 73.3365C44.762 71.9621 39.9252 68.6598 36.6386 64.0275C33.0708 59.3927 31.145 53.7034 31.1642 47.8544V35.1134L50.272 26.5566ZM65.1005 37.8026L50.272 31.2346L35.4435 37.8026V49.9447H50.272V68.9528C54.2491 67.6478 57.7253 65.1448 60.2241 61.7868C62.9074 58.3607 64.5946 54.2614 65.1005 49.939V37.8026Z" fill="white"/>
<path d="M50.2734 31.2246L65.0737 37.8274L65.0625 49.93L50.2734 49.9441V31.2246Z" fill="#FAB737"/>
<defs>
<linearGradient id="paint0_linear_3378_873" x1="28" y1="6" x2="72.5" y2="93" gradientUnits="userSpaceOnUse">
<stop stop-color="#FF8200"/>
<stop offset="1" stop-color="#FF335F"/>
</linearGradient>
</defs>
</svg>
