<svg xmlns="http://www.w3.org/2000/svg" width="42" height="42" viewBox="0 0 42 42">
  <g id="Group_27866" data-name="Group 27866" transform="translate(-828 -3671)">
    <rect id="Rectangle_44132" data-name="Rectangle 44132" width="42" height="42" transform="translate(828 3671)" fill="none"/>
    <g id="Group_6962" data-name="Group 6962" transform="translate(31 2218)">
      <rect id="Rectangle_2696" data-name="Rectangle 2696" width="38" height="38" transform="translate(799 1455)" fill="none"/>
      <g id="timer-outline" transform="translate(795.701 1451.7)">
        <path id="Path_51250" data-name="Path 51250" d="M10.152,11.433A16.3,16.3,0,1,0,22.682,6a.37.37,0,0,0-.382.371v7.1" transform="translate(0 0)" fill="none" stroke="#434343" stroke-linecap="round" stroke-linejoin="round" stroke-width="3"/>
        <path id="Path_51251" data-name="Path 51251" d="M21.167,25.008,14.46,15.415a.69.69,0,0,1,.961-.961l9.593,6.707a2.759,2.759,0,1,1-3.162,4.522,2.819,2.819,0,0,1-.685-.674Z" transform="translate(-0.787 -0.787)" fill="#fdc736"/>
      </g>
    </g>
  </g>
</svg>
