<svg xmlns="http://www.w3.org/2000/svg" width="25.459" height="31.161" viewBox="0 0 25.459 31.161">
  <g id="shield-security" transform="translate(0 -0.5)">
    <path id="Path_16192" data-name="Path 16192" d="M12.73.5l12.73,5.7v8.486a17.569,17.569,0,0,1-3.647,10.774,15.835,15.835,0,0,1-9.083,6.2,15.835,15.835,0,0,1-9.083-6.2A17.569,17.569,0,0,1,0,14.688V6.2Zm9.879,7.492L12.73,3.616,2.851,7.992v8.089H12.73V28.744a13.518,13.518,0,0,0,6.63-4.774,15.775,15.775,0,0,0,3.249-7.89Z" transform="translate(0 0)" fill="#434343"/>
    <path id="Path_54266" data-name="Path 54266" d="M.494-.322l9.859,4.4-.008,8.063-9.852.008Z" transform="translate(12.235 3.932)" fill="#fdc736"/>
  </g>
</svg>
