<svg xmlns="http://www.w3.org/2000/svg" width="54.675" height="56.733" viewBox="0 0 54.675 56.733">
  <g id="Group_7061" data-name="Group 7061" transform="translate(-1103.494 -1338.196)">
    <g id="Group_7050" data-name="Group 7050" transform="translate(1108.26 1341.39)">
      <g id="Group_7043" data-name="Group 7043" transform="translate(13.532 25.039)">
        <g id="Group_7041" data-name="Group 7041" transform="translate(4.257 12.002)">
          <path id="Path_10922" data-name="Path 10922" d="M1227.529,1550.256a5.589,5.589,0,1,0,5.164,5.573A5.38,5.38,0,0,0,1227.529,1550.256Z" transform="translate(-1222.366 -1550.256)" fill="#c7ddeb"/>
        </g>
        <g id="Group_7042" data-name="Group 7042">
          <path id="Path_10923" data-name="Path 10923" d="M1199.932,1487c.022,5.638,4.1,11.36,9.136,11.36s9.114-5.722,9.136-11.36" transform="translate(-1199.932 -1487)" fill="#c7ddeb"/>
        </g>
      </g>
      <g id="Group_7046" data-name="Group 7046" transform="translate(0 0)">
        <g id="Group_7044" data-name="Group 7044" transform="translate(4.217)">
          <path id="Path_10924" data-name="Path 10924" d="M1156.743,1367.773a6.39,6.39,0,1,0-5.9-6.372A6.151,6.151,0,0,0,1156.743,1367.773Z" transform="translate(-1150.839 -1355.03)" fill="#c7ddeb"/>
        </g>
        <g id="Group_7045" data-name="Group 7045" transform="translate(0 13.478)">
          <path id="Path_10925" data-name="Path 10925" d="M1149.5,1439.051c-.025-6.446-4.691-12.987-10.446-12.987s-10.42,6.542-10.445,12.987" transform="translate(-1128.612 -1426.064)" fill="#c7ddeb"/>
        </g>
      </g>
      <g id="Group_7049" data-name="Group 7049" transform="translate(24.909 0.472)">
        <g id="Group_7047" data-name="Group 7047" transform="translate(4.217)">
          <path id="Path_10926" data-name="Path 10926" d="M1288.026,1370.259a6.39,6.39,0,1,0-5.9-6.372A6.151,6.151,0,0,0,1288.026,1370.259Z" transform="translate(-1282.122 -1357.516)" fill="#c7ddeb"/>
        </g>
        <g id="Group_7048" data-name="Group 7048" transform="translate(0 13.477)">
          <path id="Path_10927" data-name="Path 10927" d="M1280.786,1441.536c-.025-6.446-4.691-12.988-10.446-12.988s-10.42,6.542-10.445,12.988" transform="translate(-1259.895 -1428.549)" fill="#c7ddeb"/>
        </g>
      </g>
    </g>
    <g id="Group_7060" data-name="Group 7060" transform="translate(1103.494 1338.196)">
      <g id="Group_7053" data-name="Group 7053" transform="translate(0)">
        <g id="Group_7051" data-name="Group 7051" transform="translate(4.849)">
          <path id="Path_10928" data-name="Path 10928" d="M1136.846,1353.783a7.794,7.794,0,1,1,7.793-7.794A7.8,7.8,0,0,1,1136.846,1353.783Zm0-13.577a5.784,5.784,0,1,0,5.783,5.783A5.79,5.79,0,0,0,1136.846,1340.206Z" transform="translate(-1129.052 -1338.196)" fill="#3d4451"/>
        </g>
        <g id="Group_7052" data-name="Group 7052" transform="translate(0 14.36)">
          <path id="Path_10929" data-name="Path 10929" d="M1104.5,1429.727h0a1,1,0,0,1-1-1.009,16.209,16.209,0,0,1,3.769-10.134,11.441,11.441,0,0,1,18.495,0,16.208,16.208,0,0,1,3.769,10.134,1.005,1.005,0,0,1-2.01.008c-.025-6.06-4.738-12.837-11.007-12.837-5.17,0-10.975,5.49-11.005,12.837A1,1,0,0,1,1104.5,1429.727Z" transform="translate(-1103.494 -1413.879)" fill="#3d4451"/>
        </g>
      </g>
      <g id="Group_7056" data-name="Group 7056" transform="translate(28.643 0.503)">
        <g id="Group_7054" data-name="Group 7054" transform="translate(4.849)">
          <path id="Path_10930" data-name="Path 10930" d="M1287.808,1356.432a7.794,7.794,0,1,1,7.793-7.794A7.8,7.8,0,0,1,1287.808,1356.432Zm0-13.577a5.784,5.784,0,1,0,5.783,5.783A5.79,5.79,0,0,0,1287.808,1342.855Z" transform="translate(-1280.014 -1340.845)" fill="#3d4451"/>
        </g>
        <g id="Group_7055" data-name="Group 7055" transform="translate(0 14.36)">
          <path id="Path_10931" data-name="Path 10931" d="M1255.461,1432.375h0a1,1,0,0,1-1-1.009,16.211,16.211,0,0,1,3.769-10.134,11.441,11.441,0,0,1,18.495,0,16.208,16.208,0,0,1,3.769,10.134,1,1,0,0,1-1,1.009h0a1,1,0,0,1-1.005-1c-.025-6.059-4.737-12.837-11.006-12.837-5.17,0-10.975,5.49-11.006,12.837A1,1,0,0,1,1255.461,1432.375Z" transform="translate(-1254.456 -1416.527)" fill="#3d4451"/>
        </g>
      </g>
      <g id="Group_7059" data-name="Group 7059" transform="translate(14.349 26.526)">
        <g id="Group_7057" data-name="Group 7057" transform="translate(5.596 14.62)">
          <path id="Path_10932" data-name="Path 10932" d="M1216.407,1570.643a7.794,7.794,0,1,1,7.794-7.793A7.8,7.8,0,0,1,1216.407,1570.643Zm0-13.577a5.784,5.784,0,1,0,5.784,5.784A5.79,5.79,0,0,0,1216.407,1557.066Z" transform="translate(-1208.614 -1555.056)" fill="#3d4451"/>
        </g>
        <g id="Group_7058" data-name="Group 7058">
          <path id="Path_10933" data-name="Path 10933" d="M1192.136,1493.848a12.1,12.1,0,0,1-9.248-4.7,16.207,16.207,0,0,1-3.769-10.134,1,1,0,0,1,1-1.009h0a1,1,0,0,1,1,1c.025,6.059,4.738,12.837,11.007,12.837,5.17,0,10.975-5.49,11.006-12.837a1,1,0,0,1,1-1h0a1,1,0,0,1,1,1.009,16.211,16.211,0,0,1-3.769,10.134A12.1,12.1,0,0,1,1192.136,1493.848Z" transform="translate(-1179.12 -1478)" fill="#3d4451"/>
        </g>
      </g>
    </g>
  </g>
</svg>
