<svg xmlns="http://www.w3.org/2000/svg" width="54.701" height="55.356" viewBox="0 0 54.701 55.356">
  <g id="Group_7062" data-name="Group 7062" transform="translate(-507.846 -1294.427)">
    <g id="Group_7062-2" data-name="Group 7062" transform="translate(510.266 1300.846)">
      <rect id="Rectangle_2699" data-name="Rectangle 2699" width="46.956" height="27.326" transform="translate(0 0)" fill="#c7ddeb"/>
    </g>
    <g id="Group_7075" data-name="Group 7075" transform="translate(507.846 1294.427)">
      <g id="Group_7063" data-name="Group 7063" transform="translate(39.708 44.537)">
        <path id="Path_10934" data-name="Path 10934" d="M679.922,1482.085v1.95a.8.8,0,0,1-.8.8h-3.873a.8.8,0,0,0-.8.8v2.459a.8.8,0,0,0,.8.8h9.093a.8.8,0,0,0,.8-.8v-6.018a.8.8,0,0,0-.8-.8h-3.612A.8.8,0,0,0,679.922,1482.085Z" transform="translate(-674.44 -1481.28)" fill="#c7ddeb"/>
      </g>
      <g id="Group_7074" data-name="Group 7074" transform="translate(0)">
        <g id="Group_7064" data-name="Group 7064">
          <path id="Path_10935" data-name="Path 10935" d="M562.547,1330.949h-54.7v-36.522h54.7Zm-53.227-1.474h51.753V1295.9H509.32Z" transform="translate(-507.846 -1294.427)" fill="#3d4451"/>
        </g>
        <g id="Group_7065" data-name="Group 7065" transform="translate(0 37.668)">
          <path id="Path_10936" data-name="Path 10936" d="M562.547,1470.15h-54.7v-17.688h54.7Zm-53.227-1.474h51.753v-14.74H509.32Z" transform="translate(-507.846 -1452.462)" fill="#3d4451"/>
        </g>
        <g id="Group_7066" data-name="Group 7066" transform="translate(4.667 41.845)">
          <path id="Path_10937" data-name="Path 10937" d="M572.139,1479.81H528.083a.655.655,0,0,1-.655-.655v-8.517a.655.655,0,0,1,.655-.655h44.055a.655.655,0,0,1,.655.655v8.517A.655.655,0,0,1,572.139,1479.81Zm-43.4-1.31h42.746v-7.206H528.738Z" transform="translate(-527.428 -1469.983)" fill="#3d4451"/>
        </g>
        <g id="Group_7067" data-name="Group 7067" transform="translate(5.159 42.664)">
          <path id="Path_10938" data-name="Path 10938" d="M568.141,1478H529.49v-1.31h38v-3.275h1.31v3.93A.655.655,0,0,1,568.141,1478Z" transform="translate(-529.49 -1473.419)" fill="#3d4451"/>
        </g>
        <g id="Group_7068" data-name="Group 7068" transform="translate(9.908 42.5)">
          <rect id="Rectangle_2700" data-name="Rectangle 2700" width="1.31" height="9.008" fill="#3d4451"/>
        </g>
        <g id="Group_7069" data-name="Group 7069" transform="translate(15.477 42.5)">
          <rect id="Rectangle_2701" data-name="Rectangle 2701" width="1.31" height="9.008" fill="#3d4451"/>
        </g>
        <g id="Group_7070" data-name="Group 7070" transform="translate(20.963 42.5)">
          <rect id="Rectangle_2702" data-name="Rectangle 2702" width="1.31" height="4.749" fill="#3d4451"/>
        </g>
        <g id="Group_7071" data-name="Group 7071" transform="translate(26.532 42.5)">
          <rect id="Rectangle_2703" data-name="Rectangle 2703" width="1.31" height="4.749" fill="#3d4451"/>
        </g>
        <g id="Group_7072" data-name="Group 7072" transform="translate(32.346 42.5)">
          <rect id="Rectangle_2704" data-name="Rectangle 2704" width="1.31" height="9.008" fill="#3d4451"/>
        </g>
        <g id="Group_7073" data-name="Group 7073" transform="translate(37.914 42.5)">
          <rect id="Rectangle_2705" data-name="Rectangle 2705" width="1.31" height="9.008" fill="#3d4451"/>
        </g>
      </g>
    </g>
    <g id="Group_7076" data-name="Group 7076" transform="translate(528.514 1305.317)">
      <path id="Path_10939" data-name="Path 10939" d="M594.559,1353.879a1.206,1.206,0,0,1,1.214-1.275,1.277,1.277,0,0,1,0,2.551A1.206,1.206,0,0,1,594.559,1353.879Zm.514-2.942-.288-9.874h1.975l-.288,9.874Z" transform="translate(-594.559 -1340.836)"/>
      <path id="Path_10940" data-name="Path 10940" d="M615.827,1350.275l-.041-.535a4.723,4.723,0,0,1,1.276-3.559,4.519,4.519,0,0,0,1.44-2.818c0-1.049-.658-1.748-1.954-1.769a3.659,3.659,0,0,0-2.078.638l-.494-1.3a5.4,5.4,0,0,1,2.942-.823c2.366,0,3.435,1.46,3.435,3.024,0,1.4-.782,2.406-1.769,3.579a4.063,4.063,0,0,0-1.172,3.024l.021.535Zm-.453,2.88a1.216,1.216,0,0,1,1.234-1.3,1.287,1.287,0,1,1-1.234,1.3Z" transform="translate(-609.348 -1340.113)"/>
    </g>
  </g>
</svg>
