<svg xmlns="http://www.w3.org/2000/svg" width="64.977" height="48.611" viewBox="0 0 64.977 48.611">
  <g id="Group_7090" data-name="Group 7090" transform="translate(-4236.622 -1879)">
    <g id="Group_7083" data-name="Group 7083" transform="translate(4236.622 1879)">
      <g id="Group_7078" data-name="Group 7078" transform="translate(10.691 7.553)">
        <g id="Group_7077" data-name="Group 7077">
          <path id="Path_10941" data-name="Path 10941" d="M4353.981,1945.876a6.009,6.009,0,0,0-5.939-5.87,5.805,5.805,0,0,0-2.529.578,12.892,12.892,0,0,0-25.288,3.549,13.759,13.759,0,0,0,.1,1.616h-.1c-5.339,0-9.667,3.89-9.667,8.664s4.328,8.664,9.667,8.664h32.028c5.339,0,9.667-3.9,9.667-8.669C4361.92,1950.161,4358.5,1946.6,4353.981,1945.876Z" transform="translate(-4310.559 -1931.237)" fill="#c7ddeb"/>
        </g>
      </g>
      <g id="Group_7080" data-name="Group 7080" transform="translate(0 0)">
        <g id="Group_7079" data-name="Group 7079">
          <path id="Path_10942" data-name="Path 10942" d="M4292.384,1897.153a.874.874,0,0,1-.63-.659,8.47,8.47,0,0,0-8.279-6.822,8.337,8.337,0,0,0-1.614.156.876.876,0,0,1-.975-.522,16.924,16.924,0,0,0-32.5,6.622h0a.877.877,0,0,1-.752.871c-6.228.869-11.012,5.757-11.012,11.64,0,6.494,5.831,11.777,13,11.777h3.725a.878.878,0,0,0,.874-.87q0-.363,0-.725a.874.874,0,0,0-.875-.869h-3.724c-5.808,0-10.533-4.177-10.533-9.312s4.725-9.312,10.533-9.312h.521a.874.874,0,0,0,.868-.972l-.045-.4a15.691,15.691,0,0,1-.114-1.828,14.459,14.459,0,0,1,28.36-3.981l.117.409a.874.874,0,0,0,1.22.547l.308-.148a5.965,5.965,0,0,1,8.615,5.336l.01.295a.875.875,0,0,0,.734.833l.292.047c5,.806,8.627,4.661,8.627,9.167,0,5.139-4.725,9.319-10.533,9.319h-2.622c0,.031-.007.063-.012.094-.079.452-.142.921-.193,1.4a.875.875,0,0,0,.869.97h1.958c7.167,0,13-5.286,13-11.784C4301.6,1903.178,4297.8,1898.635,4292.384,1897.153Z" transform="translate(-4236.622 -1879)" fill="#3d4451"/>
        </g>
      </g>
      <g id="Group_7082" data-name="Group 7082" transform="translate(18.917 41.047)">
        <g id="Group_7081" data-name="Group 7081">
          <path id="Path_10943" data-name="Path 10943" d="M4367.456,2162.883" transform="translate(-4367.456 -2162.883)" fill="none" stroke="#3d4451" stroke-width="6.898"/>
        </g>
      </g>
    </g>
    <g id="Group_7084" data-name="Group 7084" transform="translate(4282.174 1915.583)">
      <path id="Path_10944" data-name="Path 10944" d="M4551.664,2132.013" transform="translate(-4551.664 -2132.013)" fill="none" stroke="#3d4451" stroke-linecap="round" stroke-linejoin="round" stroke-width="19.108"/>
    </g>
    <g id="Group_7085" data-name="Group 7085" transform="translate(4262.4 1895.809)">
      <path id="Path_10945" data-name="Path 10945" d="M4414.9,1995.252" transform="translate(-4414.903 -1995.252)" fill="none" stroke="#3d4451" stroke-linecap="round" stroke-linejoin="round" stroke-width="19.108"/>
    </g>
    <g id="Group_7087" data-name="Group 7087" transform="translate(4270.022 1903.917)">
      <g id="Group_7086" data-name="Group 7086" transform="translate(0 0)">
        <path id="Path_10946" data-name="Path 10946" d="M4481.979,2061.494a.54.54,0,0,0-.764.032l-1.491,1.615a12.554,12.554,0,0,0-11.34-11.81.687.687,0,0,0-.746.623q-.012.146-.02.292a.686.686,0,0,0,.619.717,10.916,10.916,0,0,1,9.856,10.348l-1.551-1.753a.562.562,0,0,0-.763-.088.541.541,0,0,0-.067.782l2.578,2.914a.692.692,0,0,0,1.026.011l2.693-2.917A.541.541,0,0,0,4481.979,2061.494Z" transform="translate(-4467.618 -2051.328)" fill="#3d4451"/>
      </g>
    </g>
    <g id="Group_7089" data-name="Group 7089" transform="translate(4256.635 1913.542)">
      <g id="Group_7088" data-name="Group 7088" transform="translate(0 0)">
        <path id="Path_10947" data-name="Path 10947" d="M4375.207,2121.8a.541.541,0,0,0,.764-.032l1.49-1.615a12.554,12.554,0,0,0,11.34,11.809.686.686,0,0,0,.746-.622q.013-.146.02-.292a.686.686,0,0,0-.619-.717,10.916,10.916,0,0,1-9.856-10.348l1.552,1.754a.561.561,0,0,0,.762.088.54.54,0,0,0,.067-.781l-2.578-2.914a.693.693,0,0,0-1.027-.011l-2.693,2.917A.541.541,0,0,0,4375.207,2121.8Z" transform="translate(-4375.033 -2117.893)" fill="#3d4451"/>
      </g>
    </g>
  </g>
</svg>
