<svg xmlns="http://www.w3.org/2000/svg" width="35.014" height="51.443" viewBox="0 0 35.014 51.443">
  <g id="Group_7095" data-name="Group 7095" transform="translate(-3689.15 -1885.5)">
    <path id="Path_10948" data-name="Path 10948" d="M3736.366,2018.545a22.833,22.833,0,0,1-11.915-16.538c0-3.982-.319-9.341.158-15.007h27.167s3.336,17.457-5.878,26.033C3743.039,2014.717,3741.45,2017.474,3736.366,2018.545Z" transform="translate(-29.605 -84.192)" fill="#c7ddeb"/>
    <g id="Group_7094" data-name="Group 7094" transform="translate(3689.15 1885.5)">
      <g id="Group_7091" data-name="Group 7091" transform="translate(0 0)">
        <path id="Path_10949" data-name="Path 10949" d="M3697.354,1897.387c-.006-.338-.016-.675-.025-1v-.027c-.075-2.55-.14-4.754,1.411-6.414a3.045,3.045,0,0,0,.367-.373c.03-.035.081-.092.1-.114l.054-.043a6.51,6.51,0,0,1,3.1-1.419l1.118-.024c2.34-.048,4.76-.1,7.117.068a5.621,5.621,0,0,1,1,.267l.01,0c.115.056.221.1.334.143l.017.006a6.224,6.224,0,0,1,2.389,2.029,1.2,1.2,0,0,0,1.581.37l.031-.018a1.215,1.215,0,0,0,.563-.764,1.2,1.2,0,0,0-.177-.96,8.651,8.651,0,0,0-3.4-2.871l-.145-.059a1.294,1.294,0,0,1-.2-.086l-.157-.065a7.832,7.832,0,0,0-1.619-.408l-.04,0c-2.476-.176-4.961-.127-7.367-.078-.4.01-.8.018-1.2.024-.046,0-.094,0-.143.011l-.057.01a8.936,8.936,0,0,0-4.325,1.965,3.111,3.111,0,0,0-.426.421c-.029.033-.078.089-.1.111a1.084,1.084,0,0,0-.136.121c-2.309,2.4-2.218,5.492-2.137,8.218v.029c.009.321.019.629.024.931h-2.85a2.934,2.934,0,0,0-2.931,2.931v16.127a9.215,9.215,0,0,0,.421,2.764,30.916,30.916,0,0,0,4.348,8.633,24.64,24.64,0,0,0,11.6,8.9,3.256,3.256,0,0,0,1.124.2,3.3,3.3,0,0,0,1.168-.213,25.026,25.026,0,0,0,11.547-9.048,32.406,32.406,0,0,0,4.4-8.612,8.094,8.094,0,0,0,.406-2.534v-16.694a2.456,2.456,0,0,0-2.456-2.455Zm24.388,19.149a5.65,5.65,0,0,1-.284,1.776,30,30,0,0,1-4.062,7.953,22.655,22.655,0,0,1-10.438,8.2.863.863,0,0,1-.605.005,22.269,22.269,0,0,1-10.473-8.048,28.391,28.391,0,0,1-4-7.939,6.764,6.764,0,0,1-.311-2.037V1899.81h30.171Z" transform="translate(-3689.15 -1885.5)" fill="#3d4451"/>
      </g>
      <g id="Group_7092" data-name="Group 7092" transform="translate(6.627 21.368)">
        <path id="Path_10950" data-name="Path 10950" d="M3750.794,2022.057h-13.573a3.3,3.3,0,1,0,.029,2.422h13.544a1.211,1.211,0,0,0,0-2.422Zm-16.631,2.682a1.436,1.436,0,1,1,1.437-1.436A1.438,1.438,0,0,1,3734.163,2024.739Z" transform="translate(-3730.86 -2020)" fill="#3d4451"/>
      </g>
      <g id="Group_7093" data-name="Group 7093" transform="translate(13.816 30.23)">
        <path id="Path_10951" data-name="Path 10951" d="M3789.264,2077.837h-6.793a3.338,3.338,0,1,0-3.058,4.549,3.288,3.288,0,0,0,3.087-2.126h6.183a1.2,1.2,0,0,0,.856-.354A1.371,1.371,0,0,0,3789.264,2077.837Zm-9.851,2.682a1.457,1.457,0,1,1,1.436-1.436A1.438,1.438,0,0,1,3779.413,2080.519Z" transform="translate(-3776.11 -2075.78)" fill="#3d4451"/>
      </g>
    </g>
  </g>
</svg>
