<svg xmlns="http://www.w3.org/2000/svg" width="52.945" height="51.443" viewBox="0 0 52.945 51.443">
  <g id="Group_7097" data-name="Group 7097" transform="translate(-663.999 -1009.178)">
    <path id="Path_10952" data-name="Path 10952" d="M737.259,1144.035h-37.2V1128.4a2.134,2.134,0,0,1,2.134-2.134l9.411-.055,2.137,3.972a1.184,1.184,0,0,0,1.738.15l3.319-4.122,18.464.055Z" transform="translate(-26.143 -84.849)" fill="#c7ddeb"/>
    <g id="Group_7096" data-name="Group 7096" transform="translate(663.999 1009.178)">
      <path id="Path_10953" data-name="Path 10953" d="M728.626,1078.211c-.058,0-.117,0-.175,0a3.306,3.306,0,0,1-2.435-1.027c-1.448-1.584-1.334-4.758-1.027-11-3.845-1.443-7.583-5.031-5.463-13.818a1.021,1.021,0,1,1,1.985.48c-1.536,6.367.046,10.174,4.836,11.642a1.022,1.022,0,0,1,.721,1.027l-.01.213c-.271,5.462-.45,9.072.466,10.072a1.314,1.314,0,0,0,1.028.365.756.756,0,0,0,.616-.224c1.761-1.569,2.322-9.2,2.711-16.24a1.065,1.065,0,0,1,1.076-.965,1.022,1.022,0,0,1,.964,1.077c-.563,10.207-1.242,15.739-3.391,17.654A2.818,2.818,0,0,1,728.626,1078.211Z" transform="translate(-703.812 -1039.926)" fill="#3d4451"/>
      <path id="Path_10954" data-name="Path 10954" d="M755.723,1035.439h-.016a1.021,1.021,0,0,1-1.006-1.035c.151-10.079-5.538-15.408-11.562-21.05-.857-.8-1.713-1.6-2.552-2.42a1.022,1.022,0,0,1,1.425-1.466c.83.808,1.677,1.6,2.524,2.4,6.083,5.7,12.374,11.59,12.209,22.569A1.022,1.022,0,0,1,755.723,1035.439Z" transform="translate(-719.304 -1009.178)" fill="#3d4451"/>
      <path id="Path_10955" data-name="Path 10955" d="M691,1069.98a1.023,1.023,0,0,1-.963-.681,24.13,24.13,0,0,1-1.4-8.944l-.516-.414c-.53-.428-1.068-.865-1.63-1.279a1.021,1.021,0,1,1,1.211-1.644c.587.431,1.15.889,1.7,1.336l.9.727a1.021,1.021,0,0,1,.389.861,22.061,22.061,0,0,0,1.265,8.675,1.022,1.022,0,0,1-.621,1.3A1.045,1.045,0,0,1,691,1069.98Z" transform="translate(-680.005 -1043.717)" fill="#3d4451"/>
      <path id="Path_10956" data-name="Path 10956" d="M723.73,1129.627a1.02,1.02,0,0,1-1.022-1.021v-14.364a2.046,2.046,0,0,0-2.043-2.043h-11.6a1.021,1.021,0,1,1,0-2.041h11.6a4.09,4.09,0,0,1,4.087,4.085v14.364A1.02,1.02,0,0,1,723.73,1129.627Zm-41.227,0a1.02,1.02,0,0,1-1.022-1.021v-14.364a4.121,4.121,0,0,1,4.147-4.085h9.135a1.021,1.021,0,1,1,0,2.041h-9.135a2.077,2.077,0,0,0-2.1,2.043v14.364A1.02,1.02,0,0,1,682.5,1129.627Z" transform="translate(-676.675 -1082.391)" fill="#3d4451"/>
      <path id="Path_10957" data-name="Path 10957" d="M715.922,1190.883h-50.9a1.021,1.021,0,1,1,0-2.041h50.9a1.021,1.021,0,1,1,0,2.041Z" transform="translate(-663.999 -1139.441)" fill="#3d4451"/>
      <path id="Path_10958" data-name="Path 10958" d="M730.972,1166.841H698.46a1.021,1.021,0,1,1,0-2.042h32.512a1.021,1.021,0,1,1,0,2.042Z" transform="translate(-688.243 -1122.009)" fill="#3d4451"/>
      <path id="Path_10959" data-name="Path 10959" d="M801.762,1130.774h-5.169a1.021,1.021,0,1,1,0-2.042h5.169a1.021,1.021,0,1,1,0,2.042Z" transform="translate(-759.393 -1095.859)" fill="#3d4451"/>
      <path id="Path_10960" data-name="Path 10960" d="M788.135,1145.855H777.8a1.021,1.021,0,1,1,0-2.042h10.336a1.021,1.021,0,1,1,0,2.042Z" transform="translate(-745.767 -1106.794)" fill="#3d4451"/>
    </g>
  </g>
</svg>
