<svg xmlns="http://www.w3.org/2000/svg" width="498.945" height="591.979" viewBox="0 0 498.945 591.979">
  <g id="New_Symbol" data-name="New Symbol" transform="translate(2375.018 -129.064)" opacity="0.209">
    <g id="Group_6831" data-name="Group 6831" transform="translate(-2144.73 129.62)">
      <path id="Path_10865" data-name="Path 10865" d="M-1356.661,144.83a80.269,80.269,0,0,1,80.269,80.269,80.268,80.268,0,0,1-80.269,80.268A80.269,80.269,0,0,1-1436.93,225.1" transform="translate(1436.93 -144.83)" fill="none" stroke="#37a044" stroke-linecap="round" stroke-width="1.112"/>
      <line id="Line_113" data-name="Line 113" y2="167.614" transform="translate(80.261 77.497)" fill="none" stroke="#3089bb" stroke-linecap="round" stroke-width="1.559"/>
      <g id="Group_6842" data-name="Group 6842" transform="translate(-103.441 400.284)">
        <g id="Group_6836" data-name="Group 6836" transform="translate(26.319 0)">
          <line id="Line_113-2" data-name="Line 113" y2="27.61" transform="translate(0)" fill="none" stroke="#47a850" stroke-linecap="round" stroke-width="1.559"/>
        </g>
        <path id="Path_10876" data-name="Path 10876" d="M8.469,0a8.47,8.47,0,1,0,8.47,8.469" transform="translate(35.427 32.078) rotate(-135)" fill="none" stroke="#37a044" stroke-width="1.559"/>
        <path id="Path_10877" data-name="Path 10877" d="M8.469,0a8.47,8.47,0,1,0,8.47,8.469" transform="translate(11.978 2.071) rotate(45)" fill="none" stroke="#37a044" stroke-width="1.559"/>
        <line id="Line_128" data-name="Line 128" y2="27.61" transform="translate(20.267 6.808)" fill="none" stroke="#47a850" stroke-linecap="round" stroke-width="1.559"/>
      </g>
    </g>
    <g id="Group_6833" data-name="Group 6833" transform="translate(-2374.238 245.293)">
      <path id="Path_10866" data-name="Path 10866" d="M-1885.806,2307.454h0a34.816,34.816,0,0,1-34.816,34.816h-328.266a34.816,34.816,0,0,1-34.816-34.816h0a34.816,34.816,0,0,1,34.816-34.816" transform="translate(2305.872 -1867.3)" fill="none" stroke="#37a044" stroke-width="1.559"/>
      <g id="Group_6832" data-name="Group 6832" transform="translate(149.697 58.291)">
        <path id="Path_10867" data-name="Path 10867" d="M-1575.359,880.2a24.9,24.9,0,0,1,24.9-24.9h40.079a24.9,24.9,0,0,1,24.9,24.9v23.683a24.9,24.9,0,0,1-24.9,24.9h-40.079" transform="translate(1621.274 -855.302)" fill="none" stroke="#37a044" stroke-width="1.559"/>
        <path id="Path_10868" data-name="Path 10868" d="M-1500,1942.794h44.054a27.367,27.367,0,0,1,27.367,27.366v26.032a27.367,27.367,0,0,1-27.367,27.367" transform="translate(1564.364 -1676.513)" fill="none" stroke="#37a044" stroke-width="1.559"/>
        <path id="Path_10869" data-name="Path 10869" d="M-634.6,1198.351h44.053a27.367,27.367,0,0,1,27.367,27.366v26.032a27.367,27.367,0,0,1-27.367,27.366" transform="translate(910.867 -1114.353)" fill="none" stroke="#37a044" stroke-width="1.559"/>
        <path id="Path_10870" data-name="Path 10870" d="M-1691.457,1155.386h-44.054a27.367,27.367,0,0,0-27.366,27.366v26.032" transform="translate(1762.877 -1081.908)" fill="none" stroke="#37a044" stroke-width="1.559"/>
        <line id="Line_114" data-name="Line 114" y2="38.864" transform="translate(0 132.989)" fill="none" stroke="#37a044" stroke-width="1.559"/>
        <line id="Line_115" data-name="Line 115" y2="8.805" transform="translate(0 183.088)" fill="none" stroke="#37a044" stroke-width="1.559"/>
        <line id="Line_116" data-name="Line 116" y2="15.462" transform="translate(0 200.394)" fill="none" stroke="#37a044" stroke-width="1.559"/>
      </g>
      <circle id="Ellipse_13" data-name="Ellipse 13" cx="51.92" cy="51.92" r="51.92" transform="translate(236.35 223.055) rotate(-45)" fill="none" stroke="#37a044" stroke-width="1.559"/>
      <path id="Path_10871" data-name="Path 10871" d="M-920.125,942.606a20.343,20.343,0,0,1-20.343,20.343,20.343,20.343,0,0,1-20.343-20.343,20.343,20.343,0,0,1,20.343-20.343A20.343,20.343,0,0,1-920.125,942.606Z" transform="translate(1306.9 -847.576)" fill="none" stroke="#37a044" stroke-width="1.559"/>
      <path id="Path_10872" data-name="Path 10872" d="M-1181.355,1432.528a23.425,23.425,0,0,1,23.425,23.425,23.425,23.425,0,0,1-23.425,23.425,23.425,23.425,0,0,1-23.425-23.425" transform="translate(1491.131 -1232.898)" fill="none" stroke="#37a044" stroke-width="1.559"/>
      <path id="Path_10873" data-name="Path 10873" d="M-1743.267,858.955a23.425,23.425,0,0,0-23.425,23.425,23.425,23.425,0,0,0,23.425,23.425,23.425,23.425,0,0,0,23.425-23.425" transform="translate(1915.455 -799.769)" fill="none" stroke="#37a044" stroke-width="1.559"/>
      <path id="Path_10874" data-name="Path 10874" d="M-1386.014,2060.569a15.288,15.288,0,0,1-15.288,15.288,15.288,15.288,0,0,1-15.287-15.288,15.288,15.288,0,0,1,15.287-15.288A15.288,15.288,0,0,1-1386.014,2060.569Z" transform="translate(1651.078 -1695.613)" fill="none" stroke="#37a044" stroke-width="1.559"/>
      <line id="Line_117" data-name="Line 117" x1="116.188" transform="translate(193.588 223.055)" fill="none" stroke="#37a044" stroke-width="1.559"/>
      <line id="Line_118" data-name="Line 118" x1="15.789" transform="translate(165.249 223.055)" fill="none" stroke="#37a044" stroke-width="1.559"/>
      <line id="Line_119" data-name="Line 119" x1="95.946" transform="translate(35.297 223.055)" fill="none" stroke="#37a044" stroke-width="1.559"/>
      <line id="Line_120" data-name="Line 120" x1="30.565" transform="translate(221.117 405.338)" fill="none" stroke="#37a044" stroke-width="1.559"/>
      <line id="Line_121" data-name="Line 121" x1="123.88" transform="translate(85.699 405.338)" fill="none" stroke="#37a044" stroke-width="1.559"/>
      <line id="Line_122" data-name="Line 122" x1="207.305" transform="translate(125.896 440.154)" fill="none" stroke="#3089bb" stroke-width="1.559"/>
      <line id="Line_123" data-name="Line 123" x1="125.883" transform="translate(240.549 95.03)" fill="none" stroke="#3089bb" stroke-width="1.559"/>
      <line id="Line_124" data-name="Line 124" x2="88.174" transform="translate(346.089 223.055)" fill="none" stroke="#3089bb" stroke-width="0.78"/>
      <line id="Line_125" data-name="Line 125" x2="15.181" transform="translate(447.623 223.055)" fill="none" stroke="#3089bb" stroke-width="0.78"/>
      <line id="Line_126" data-name="Line 126" x2="73.36" transform="translate(249.776 364.955)" fill="none" stroke="#3089bb" stroke-width="0.78"/>
      <line id="Line_127" data-name="Line 127" y1="71.478" transform="translate(172.187 11.133)" fill="none" stroke="#3089bb" stroke-width="0.78"/>
      <circle id="Ellipse_14" data-name="Ellipse 14" cx="3.441" cy="3.441" r="3.441" transform="translate(411.188 138.849)" fill="none" stroke="#37a044" stroke-width="0.78"/>
      <circle id="Ellipse_15" data-name="Ellipse 15" cx="3.441" cy="3.441" r="3.441" transform="translate(400.257 138.849)" fill="none" stroke="#37a044" stroke-width="0.78"/>
      <circle id="Ellipse_16" data-name="Ellipse 16" cx="3.441" cy="3.441" r="3.441" transform="translate(389.327 138.849)" fill="none" stroke="#37a044" stroke-width="0.78"/>
      <circle id="Ellipse_17" data-name="Ellipse 17" cx="3.441" cy="3.441" r="3.441" transform="translate(378.396 138.849)" fill="none" stroke="#37a044" stroke-width="0.78"/>
      <circle id="Ellipse_18" data-name="Ellipse 18" cx="3.441" cy="3.441" r="3.441" transform="translate(168.746 0)" fill="none" stroke="#37a044" stroke-width="0.78"/>
      <circle id="Ellipse_19" data-name="Ellipse 19" cx="11.614" cy="11.614" r="11.614" transform="translate(0 211.441)" fill="none" stroke="#3089bb" stroke-width="1.559"/>
      <circle id="Ellipse_20" data-name="Ellipse 20" cx="7.895" cy="7.895" r="7.895" transform="translate(416.653 87.135)" fill="none" stroke="#37a044" stroke-width="0.78"/>
      <path id="Path_10875" data-name="Path 10875" d="M-2163.49,2358.017a18.421,18.421,0,0,1-18.421,18.42,18.421,18.421,0,0,1-18.421-18.42,18.421,18.421,0,0,1,18.421-18.421A18.421,18.421,0,0,1-2163.49,2358.017Z" transform="translate(2242.914 -1917.863)" fill="none" stroke="#37a044" stroke-width="1.559"/>
    </g>
  </g>
</svg>
