<svg width="45" height="45" viewBox="0 0 45 45" fill="none" xmlns="http://www.w3.org/2000/svg">
<path d="M41.3382 9.97042C42.6296 9.97042 43.6765 8.92355 43.6765 7.63218C43.6765 6.34081 42.6296 5.29395 41.3382 5.29395C40.0469 5.29395 39 6.34081 39 7.63218C39 8.92355 40.0469 9.97042 41.3382 9.97042Z" fill="#F4AC04"/>
<path d="M41.3382 23.9997C42.6296 23.9997 43.6765 22.9528 43.6765 21.6615C43.6765 20.3701 42.6296 19.3232 41.3382 19.3232C40.0469 19.3232 39 20.3701 39 21.6615C39 22.9528 40.0469 23.9997 41.3382 23.9997Z" fill="#F4AC04"/>
<path d="M41.3382 38.073C42.6296 38.073 43.6765 37.0261 43.6765 35.7347C43.6765 34.4433 42.6296 33.3965 41.3382 33.3965C40.0469 33.3965 39 34.4433 39 35.7347C39 37.0261 40.0469 38.073 41.3382 38.073Z" fill="#F4AC04"/>
<path d="M3.66172 23.9997C4.95309 23.9997 5.99996 22.9528 5.99996 21.6615C5.99996 20.3701 4.95309 19.3232 3.66172 19.3232C2.37035 19.3232 1.32349 20.3701 1.32349 21.6615C1.32349 22.9528 2.37035 23.9997 3.66172 23.9997Z" fill="#F4AC04"/>
<path d="M3.66172 38.073C4.95309 38.073 5.99996 37.0261 5.99996 35.7347C5.99996 34.4433 4.95309 33.3965 3.66172 33.3965C2.37035 33.3965 1.32349 34.4433 1.32349 35.7347C1.32349 37.0261 2.37035 38.073 3.66172 38.073Z" fill="#F4AC04"/>
<path d="M3.66172 9.97042C4.95309 9.97042 5.99996 8.92355 5.99996 7.63218C5.99996 6.34081 4.95309 5.29395 3.66172 5.29395C2.37035 5.29395 1.32349 6.34081 1.32349 7.63218C1.32349 8.92355 2.37035 9.97042 3.66172 9.97042Z" fill="#F4AC04"/>
<path fill-rule="evenodd" clip-rule="evenodd" d="M31.0531 23.1777C29.2507 23.1777 28.3456 25.3618 29.6205 26.6367C29.8551 26.8713 29.8551 27.2529 29.6205 27.4876L28.3262 28.7818C28.0915 29.0165 27.7099 29.0165 27.4753 28.7818C26.2005 27.507 24.0163 28.412 24.0163 30.2145C24.0163 30.5475 23.7471 30.8157 23.4151 30.8157H21.5846C21.2527 30.8157 20.9835 30.5475 20.9835 30.2145C20.9835 28.4098 18.8003 27.506 17.5245 28.7818C17.2898 29.0165 16.9093 29.0165 16.6747 28.7818L15.3793 27.4876C15.1447 27.2529 15.1447 26.8713 15.3793 26.6367C16.6541 25.3618 15.7501 23.1777 13.9466 23.1777C13.6147 23.1777 13.3455 22.9085 13.3455 22.5765V20.746C13.3455 20.414 13.6147 20.1448 13.9466 20.1448C15.7501 20.1448 16.6541 17.9607 15.3793 16.6858C15.1447 16.4512 15.1447 16.0707 15.3793 15.836L16.6747 14.5407C16.9093 14.306 17.2898 14.306 17.5245 14.5407C18.7993 15.8155 20.9835 14.9115 20.9835 13.108C20.9835 12.776 21.2527 12.5068 21.5846 12.5068H23.4151C23.7471 12.5068 24.0163 12.776 24.0163 13.108C24.0163 14.9115 26.2005 15.8155 27.4753 14.5407C27.7099 14.306 28.0915 14.306 28.3262 14.5407L29.6205 15.836C29.8551 16.0707 29.8551 16.4512 29.6205 16.6858C28.3456 17.9607 29.2507 20.1448 31.0531 20.1448C31.3861 20.1448 31.6543 20.414 31.6543 20.746V22.5765C31.6543 22.9085 31.3861 23.1777 31.0531 23.1777ZM22.5004 26.0603C24.9224 26.0603 26.8989 24.0837 26.8989 21.6618C26.8989 19.2387 24.9224 17.2632 22.5004 17.2632C20.0774 17.2632 18.1019 19.2387 18.1019 21.6618C18.1019 24.0837 20.0774 26.0603 22.5004 26.0603Z" fill="#F4AC04"/>
<path fill-rule="evenodd" clip-rule="evenodd" d="M4.40649 10.4936C4.16852 10.5555 3.9189 10.5884 3.66169 10.5884C2.03031 10.5884 0.705811 9.26391 0.705811 7.63252C0.705811 6.00114 2.03031 4.67664 3.66169 4.67664C5.29308 4.67664 6.61757 6.00114 6.61757 7.63252C6.61757 8.56464 6.18513 9.39661 5.51013 9.93855L6.37502 11.6031H9.66213V4.39747C9.66213 2.36691 11.3234 0.706055 13.3511 0.706055H31.6463C33.6768 0.706055 35.3377 2.36708 35.3377 4.39747V11.6031H38.6248L39.4897 9.93855C38.8147 9.39661 38.3823 8.56464 38.3823 7.63252C38.3823 6.00114 39.7068 4.67664 41.3382 4.67664C42.9695 4.67664 44.294 6.00114 44.294 7.63252C44.294 9.26391 42.9695 10.5884 41.3382 10.5884C41.081 10.5884 40.8313 10.5555 40.5934 10.4936L39.548 12.5056C39.4417 12.7101 39.2304 12.8384 38.9999 12.8384H35.3377V21.0443H38.447C38.7313 19.7089 39.9185 18.7061 41.3382 18.7061C42.9695 18.7061 44.294 20.0306 44.294 21.6619C44.294 23.2933 42.9695 24.6178 41.3382 24.6178C39.9185 24.6178 38.7313 23.6149 38.447 22.2796H35.3377V30.4855H38.9999C39.2304 30.4855 39.4417 30.6138 39.548 30.8183L40.6137 32.8691C40.8455 32.8106 41.0882 32.7796 41.3382 32.7796C42.9695 32.7796 44.294 34.1041 44.294 35.7355C44.294 37.3668 42.9695 38.6913 41.3382 38.6913C39.7068 38.6913 38.3823 37.3668 38.3823 35.7355C38.3823 34.7958 38.8216 33.958 39.506 33.4165L38.6248 31.7208H35.3377V40.6029C35.3377 42.6333 33.6768 44.2943 31.6463 44.2943H13.3511C11.3234 44.2943 9.66213 42.6334 9.66213 40.6029V31.7208H6.37502L5.4939 33.4165C6.17825 33.958 6.61757 34.7958 6.61757 35.7355C6.61757 37.3668 5.29308 38.6913 3.66169 38.6913C2.03031 38.6913 0.705811 37.3668 0.705811 35.7355C0.705811 34.1041 2.03031 32.7796 3.66169 32.7796C3.91166 32.7796 4.15431 32.8106 4.38619 32.8691L5.45181 30.8183C5.55813 30.6138 5.76946 30.4855 5.99993 30.4855H9.66213V22.2796H6.55281C6.26852 23.6149 5.08131 24.6178 3.66169 24.6178C2.03031 24.6178 0.705811 23.2933 0.705811 21.6619C0.705811 20.0306 2.03031 18.7061 3.66169 18.7061C5.08131 18.7061 6.26852 19.7089 6.55281 21.0443H9.66213V12.8384H5.99993C5.76946 12.8384 5.55813 12.7101 5.45181 12.5056L4.40649 10.4936ZM34.1024 40.6029V4.39747C34.1024 3.0465 32.9973 1.94135 31.6463 1.94135H13.3511C12.0022 1.94135 10.8974 3.04667 10.8974 4.39747V40.6029C10.8974 41.9537 12.0022 43.059 13.3511 43.059H31.6463C32.9973 43.059 34.1024 41.9538 34.1024 40.6029ZM39.6176 21.6619C39.6176 22.6115 40.3886 23.3825 41.3382 23.3825C42.2878 23.3825 43.0588 22.6115 43.0588 21.6619C43.0588 20.7123 42.2878 19.9413 41.3382 19.9413C40.3886 19.9413 39.6176 20.7123 39.6176 21.6619ZM5.38228 21.6619C5.38228 20.7123 4.61128 19.9413 3.66169 19.9413C2.7121 19.9413 1.9411 20.7123 1.9411 21.6619C1.9411 22.6115 2.7121 23.3825 3.66169 23.3825C4.61128 23.3825 5.38228 22.6115 5.38228 21.6619ZM31.0532 23.796C29.8002 23.796 29.171 25.3143 30.0573 26.2006C30.5327 26.6761 30.5327 27.4496 30.0573 27.925L28.763 29.2193C28.2875 29.6947 27.5141 29.6947 27.0386 29.2193C26.1523 28.3331 24.634 28.9622 24.634 30.2152C24.634 30.8904 24.0882 31.434 23.4152 31.434H21.5847C20.9117 31.434 20.3659 30.8904 20.3659 30.2152C20.3659 28.9607 18.8482 28.3323 17.9613 29.2193C17.4855 29.6951 16.7137 29.6951 16.2381 29.2195L14.9426 27.925C14.4672 27.4496 14.4672 26.6761 14.9426 26.2006C15.8288 25.3143 15.2004 23.796 13.9467 23.796C13.2737 23.796 12.7279 23.2502 12.7279 22.5772V20.7467C12.7279 20.0737 13.2737 19.5279 13.9467 19.5279C15.2004 19.5279 15.8288 18.0095 14.9426 17.1233C14.4668 16.6475 14.4668 15.8757 14.9426 15.4L16.238 14.1046C16.7137 13.6288 17.4855 13.6288 17.9613 14.1046C18.8475 14.9908 20.3659 14.3624 20.3659 13.1087C20.3659 12.4357 20.9117 11.8899 21.5847 11.8899H23.4152C24.0882 11.8899 24.634 12.4357 24.634 13.1087C24.634 14.3624 26.1523 14.9908 27.0386 14.1046C27.5141 13.6292 28.2875 13.6292 28.763 14.1046L30.0573 15.4C30.533 15.8757 30.533 16.6475 30.0573 17.1233C29.171 18.0095 29.8002 19.5279 31.0532 19.5279C31.7284 19.5279 32.272 20.0737 32.272 20.7467V22.5772C32.272 23.2502 31.7284 23.796 31.0532 23.796ZM13.9632 20.7631V22.5608C16.3002 22.574 17.4703 25.4017 15.8273 27.0627L17.0997 28.334C18.7622 26.6904 21.5878 27.8606 21.6011 30.1987H23.3988C23.412 27.8631 26.2397 26.6916 27.9007 28.3346L29.1725 27.0627C27.5296 25.4017 28.7011 22.574 31.0367 22.5608V20.7631C28.7013 20.7498 27.5298 17.9228 29.172 16.2617L27.9007 14.9893C26.2397 16.6323 23.412 15.4622 23.3988 13.1252H21.6011C21.5878 15.4619 18.7608 16.6321 17.0997 14.9898L15.8278 16.2617C17.4701 17.9228 16.2999 20.7498 13.9632 20.7631ZM22.5005 26.6786C19.7371 26.6786 17.4843 24.4246 17.4843 21.6625C17.4843 18.8991 19.7371 16.6463 22.5005 16.6463C25.2626 16.6463 27.5166 18.8991 27.5166 21.6625C27.5166 24.4246 25.2626 26.6786 22.5005 26.6786ZM22.5005 25.4433C24.5824 25.4433 26.2813 23.7444 26.2813 21.6625C26.2813 19.5797 24.5824 17.8816 22.5005 17.8816C20.4177 17.8816 18.7196 19.5797 18.7196 21.6625C18.7196 23.7444 20.4177 25.4433 22.5005 25.4433ZM20.8292 40.03C20.4883 40.03 20.2115 39.7533 20.2115 39.4123C20.2115 39.0715 20.4883 38.7947 20.8292 38.7947H24.1707C24.5115 38.7947 24.7883 39.0715 24.7883 39.4123C24.7883 39.7533 24.5115 40.03 24.1707 40.03H20.8292ZM3.66169 34.0149C2.7121 34.0149 1.9411 34.7859 1.9411 35.7355C1.9411 36.6851 2.7121 37.4561 3.66169 37.4561C4.61128 37.4561 5.38228 36.6851 5.38228 35.7355C5.38228 34.7859 4.61128 34.0149 3.66169 34.0149ZM41.3382 5.91194C40.3886 5.91194 39.6176 6.68294 39.6176 7.63252C39.6176 8.58211 40.3886 9.35311 41.3382 9.35311C42.2878 9.35311 43.0588 8.58211 43.0588 7.63252C43.0588 6.68294 42.2878 5.91194 41.3382 5.91194ZM41.3382 34.0149C40.3886 34.0149 39.6176 34.7859 39.6176 35.7355C39.6176 36.6851 40.3886 37.4561 41.3382 37.4561C42.2878 37.4561 43.0588 36.6851 43.0588 35.7355C43.0588 34.7859 42.2878 34.0149 41.3382 34.0149ZM3.66169 5.91194C2.7121 5.91194 1.9411 6.68294 1.9411 7.63252C1.9411 8.58211 2.7121 9.35311 3.66169 9.35311C4.61128 9.35311 5.38228 8.58211 5.38228 7.63252C5.38228 6.68294 4.61128 5.91194 3.66169 5.91194Z" fill="#1F4571"/>
</svg>
