<svg width="46" height="46" viewBox="0 0 46 46" fill="none" xmlns="http://www.w3.org/2000/svg">
<path d="M34.4109 23C34.6883 22.5759 34.8594 22.0886 34.8594 21.5625C34.8594 19.9741 33.4118 18.6875 31.625 18.6875C29.8382 18.6875 28.3906 19.9741 28.3906 21.5625C28.3906 22.0886 28.5617 22.5759 28.8391 23H23V28.8391C23.4241 28.5617 23.9114 28.3906 24.4375 28.3906C26.0259 28.3906 27.3125 29.8382 27.3125 31.625C27.3125 33.4118 26.0259 34.8594 24.4375 34.8594C23.9114 34.8594 23.4241 34.6883 23 34.4109V40.25H34.5C37.6754 40.25 40.25 37.6754 40.25 34.5V23H34.4109Z" fill="#F4AC04"/>
<path d="M11.5891 23C11.3117 23.4241 11.1406 23.9114 11.1406 24.4375C11.1406 26.0259 12.5882 27.3125 14.375 27.3125C16.1618 27.3125 17.6094 26.0259 17.6094 24.4375C17.6094 23.9114 17.4383 23.4241 17.1609 23H23V17.1609C22.5759 17.4383 22.0886 17.6094 21.5625 17.6094C19.9741 17.6094 18.6875 16.1618 18.6875 14.375C18.6875 12.5882 19.9741 11.1406 21.5625 11.1406C22.0886 11.1406 22.5759 11.3117 23 11.5891V5.75H11.5C8.32456 5.75 5.75 8.32456 5.75 11.5V23H11.5891Z" fill="#F4AC04"/>
<path d="M34.5 4.3125H11.5C7.53681 4.3125 4.3125 7.53681 4.3125 11.5V34.5C4.3125 38.4632 7.53681 41.6875 11.5 41.6875H34.5C38.4632 41.6875 41.6875 38.4632 41.6875 34.5V11.5C41.6875 7.53681 38.4632 4.3125 34.5 4.3125ZM34.5 7.1875C36.8776 7.1875 38.8125 9.12238 38.8125 11.5V21.5625H36.2969C36.2969 19.1849 34.201 17.25 31.625 17.25C29.049 17.25 26.9531 19.1849 26.9531 21.5625H24.4375V17.1781C24.4375 16.6506 24.1486 16.1647 23.6842 15.9131C23.2185 15.663 22.655 15.686 22.2137 15.9749C22.0211 16.1014 21.7896 16.1704 21.5639 16.1704C20.7848 16.1704 20.1264 15.3482 20.1264 14.3736C20.1264 13.3989 20.7848 12.5767 21.5639 12.5767C21.7896 12.5767 22.0211 12.6457 22.2137 12.7722C22.6564 13.0626 23.2199 13.0856 23.6842 12.834C24.1486 12.5824 24.4375 12.0966 24.4375 11.569V7.18463H34.5V7.1875ZM7.1875 11.5C7.1875 9.12238 9.12238 7.1875 11.5 7.1875H21.5625V9.70312C19.1849 9.70312 17.25 11.799 17.25 14.375C17.25 16.951 19.1849 19.0469 21.5625 19.0469V21.5625H17.1781C16.6506 21.5625 16.1647 21.8514 15.9131 22.3158C15.663 22.7801 15.686 23.345 15.9749 23.7863C16.1014 23.9789 16.1704 24.2104 16.1704 24.4361C16.1704 25.2152 15.3482 25.8736 14.3736 25.8736C13.3989 25.8736 12.5767 25.2152 12.5767 24.4361C12.5767 24.2104 12.6457 23.9789 12.7722 23.7863C13.0611 23.345 13.0856 22.7801 12.834 22.3158C12.5824 21.8514 12.0966 21.5625 11.569 21.5625H7.18463V11.5H7.1875ZM11.5 38.8125C9.12238 38.8125 7.1875 36.8776 7.1875 34.5V24.4375H9.70312C9.70312 26.8151 11.799 28.75 14.375 28.75C16.951 28.75 19.0469 26.8151 19.0469 24.4375H21.5625V28.8219C21.5625 29.3494 21.8514 29.8353 22.3158 30.0869C22.7801 30.337 23.3436 30.314 23.7863 30.0251C23.9804 29.8986 24.2118 29.8281 24.4375 29.8281C25.2166 29.8281 25.875 30.6504 25.875 31.625C25.875 32.5996 25.2166 33.4219 24.4375 33.4219C24.2118 33.4219 23.9804 33.3514 23.7863 33.2249C23.3436 32.936 22.7801 32.9144 22.3158 33.1631C21.8514 33.4147 21.5625 33.9006 21.5625 34.4281V38.8125H11.5ZM38.8125 34.5C38.8125 36.8776 36.8776 38.8125 34.5 38.8125H24.4375V36.2969C26.8151 36.2969 28.75 34.201 28.75 31.625C28.75 29.049 26.8151 26.9531 24.4375 26.9531V24.4375H28.8219C29.3494 24.4375 29.8353 24.1486 30.0869 23.6842C30.337 23.2199 30.314 22.655 30.0251 22.2137C29.8986 22.0211 29.8296 21.7896 29.8296 21.5639C29.8296 20.7848 30.6518 20.1264 31.6264 20.1264C32.6011 20.1264 33.4233 20.7848 33.4233 21.5639C33.4233 21.7896 33.3543 22.0211 33.2278 22.2137C32.9389 22.655 32.9144 23.2199 33.166 23.6842C33.4176 24.1486 33.9034 24.4375 34.431 24.4375H38.8154V34.5H38.8125Z" fill="#333741"/>
</svg>
