<svg width="50" height="50" viewBox="0 0 50 50" fill="none" xmlns="http://www.w3.org/2000/svg">
<path d="M38.2812 48.4375C32.6797 48.4375 28.125 43.8828 28.125 38.2812C28.125 32.6797 32.6797 28.125 38.2812 28.125C43.8828 28.125 48.4375 32.6797 48.4375 38.2812C48.4375 43.8828 43.8828 48.4375 38.2812 48.4375ZM38.2812 29.6875C33.5391 29.6875 29.6875 33.5391 29.6875 38.2812C29.6875 43.0234 33.5391 46.875 38.2812 46.875C43.0234 46.875 46.875 43.0234 46.875 38.2812C46.875 33.5391 43.0234 29.6875 38.2812 29.6875Z" fill="#F4AC04"/>
<path d="M43.0157 37.1094C42.7891 37.1094 42.5625 37.0156 42.4063 36.8281C41.2969 35.5 39.8282 34.7656 38.2813 34.7656C36.7344 34.7656 35.2657 35.5 34.1563 36.8281C33.875 37.1562 33.3829 37.2031 33.0469 36.9297C32.711 36.6563 32.6641 36.1641 32.9454 35.8281C34.3594 34.1328 36.2579 33.2031 38.2891 33.2031C40.3204 33.2031 42.211 34.1328 43.6329 35.8281C43.9141 36.1641 43.8672 36.6563 43.5313 36.9297C43.3829 37.0469 43.2032 37.1094 43.0313 37.1094H43.0157Z" fill="#F4AC04"/>
<path d="M41.4064 40.2344C41.1798 40.2344 40.961 40.1406 40.8048 39.9531C40.1173 39.125 39.2267 38.6719 38.2814 38.6719C37.336 38.6719 36.4454 39.125 35.7579 39.9531C35.4845 40.2812 34.9923 40.3359 34.6564 40.0547C34.3204 39.7813 34.2814 39.2891 34.5548 38.9531C35.5392 37.7656 36.8673 37.1094 38.2814 37.1094C39.6954 37.1094 41.0235 37.7656 42.0079 38.9531C42.2814 39.2891 42.2345 39.7813 41.9064 40.0547C41.7579 40.1719 41.586 40.2344 41.4064 40.2344Z" fill="#F4AC04"/>
<path d="M38.2812 43.3594C38.9285 43.3594 39.4531 42.8347 39.4531 42.1875C39.4531 41.5403 38.9285 41.0156 38.2812 41.0156C37.634 41.0156 37.1094 41.5403 37.1094 42.1875C37.1094 42.8347 37.634 43.3594 38.2812 43.3594Z" fill="#F4AC04"/>
<path d="M39.8437 9.375H2.34374C2.04686 9.375 1.78124 9.21094 1.64842 8.94531C1.51561 8.67969 1.54686 8.36719 1.71874 8.125L6.40624 1.875C6.55467 1.67969 6.78905 1.5625 7.03124 1.5625H35.1562C35.3984 1.5625 35.6328 1.67969 35.7812 1.875L40.4687 8.125C40.6484 8.35937 40.6719 8.67969 40.5391 8.94531C40.4062 9.21094 40.1328 9.375 39.8437 9.375ZM3.90624 7.8125H38.2812L34.7656 3.125H7.42186L3.90624 7.8125Z" fill="#5D616C"/>
<path d="M36.7188 26.6641C36.2891 26.6641 35.9375 26.3125 35.9375 25.8828V16.4062C35.9375 15.9766 36.2891 15.625 36.7188 15.625C37.1484 15.625 37.5 15.9766 37.5 16.4062V25.8828C37.5 26.3125 37.1484 26.6641 36.7188 26.6641Z" fill="#5D616C"/>
<path d="M25.7812 37.5H19.5312V23.4375C19.5312 22.5781 18.8281 21.875 17.9688 21.875H10.1562C9.29688 21.875 8.59375 22.5781 8.59375 23.4375V37.5H7.8125C6.95312 37.5 6.25 36.7969 6.25 35.9375V16.4062C6.25 15.9766 5.89844 15.625 5.46875 15.625C5.03906 15.625 4.6875 15.9766 4.6875 16.4062V35.9375C4.6875 37.6641 6.08594 39.0625 7.8125 39.0625H25.7812C26.2109 39.0625 26.5625 38.7109 26.5625 38.2812C26.5625 37.8516 26.2109 37.5 25.7812 37.5ZM10.1562 37.5V23.4375H17.9688V37.5H10.1562Z" fill="#5D616C"/>
<path d="M27.4531 32.8125H23.2891C22.5078 32.8125 21.875 32.1094 21.875 31.25V23.4375C21.875 22.5781 22.5078 21.875 23.2891 21.875H32.1797C32.9609 21.875 33.5938 22.5781 33.5938 23.4375V27.0391C33.5938 27.4688 33.2422 27.8203 32.8125 27.8203C32.3828 27.8203 32.0312 27.4688 32.0312 27.0391V23.4375H23.4531L23.4375 31.25H27.4531C27.8828 31.25 28.2344 31.6016 28.2344 32.0312C28.2344 32.4609 27.8828 32.8125 27.4531 32.8125Z" fill="#5D616C"/>
<path d="M39.8438 7.8125H2.34375C1.91406 7.8125 1.5625 8.16406 1.5625 8.59375V13.2812C1.5625 15.4375 3.3125 17.1875 5.46875 17.1875C6.75 17.1875 7.88281 16.5547 8.59375 15.6016C9.30469 16.5625 10.4375 17.1875 11.7188 17.1875C13 17.1875 14.1328 16.5547 14.8438 15.6016C15.5547 16.5625 16.6875 17.1875 17.9688 17.1875C19.25 17.1875 20.3828 16.5547 21.0938 15.6016C21.8047 16.5625 22.9375 17.1875 24.2188 17.1875C25.5 17.1875 26.6328 16.5547 27.3438 15.6016C28.0547 16.5625 29.1875 17.1875 30.4688 17.1875C31.75 17.1875 32.8828 16.5547 33.5938 15.6016C34.3047 16.5625 35.4375 17.1875 36.7188 17.1875C38.875 17.1875 40.625 15.4375 40.625 13.2812V8.59375C40.625 8.16406 40.2734 7.8125 39.8438 7.8125ZM5.46875 15.625C4.17969 15.625 3.125 14.5703 3.125 13.2812V9.375H7.8125V13.2812C7.8125 14.5703 6.75781 15.625 5.46875 15.625ZM11.7188 15.625C10.4297 15.625 9.375 14.5703 9.375 13.2812V9.375H14.0625V13.2812C14.0625 14.5703 13.0078 15.625 11.7188 15.625ZM17.9688 15.625C16.6797 15.625 15.625 14.5703 15.625 13.2812V9.375H20.3125V13.2812C20.3125 14.5703 19.2578 15.625 17.9688 15.625ZM24.2188 15.625C22.9297 15.625 21.875 14.5703 21.875 13.2812V9.375H26.5625V13.2812C26.5625 14.5703 25.5078 15.625 24.2188 15.625ZM30.4688 15.625C29.1797 15.625 28.125 14.5703 28.125 13.2812V9.375H32.8125V13.2812C32.8125 14.5703 31.7578 15.625 30.4688 15.625ZM39.0625 13.2812C39.0625 14.5703 38.0078 15.625 36.7188 15.625C35.4297 15.625 34.375 14.5703 34.375 13.2812V9.375H39.0625V13.2812Z" fill="#F4AC04"/>
</svg>
