<svg width="48" height="40" viewBox="0 0 48 40" fill="none" xmlns="http://www.w3.org/2000/svg">
<path fill-rule="evenodd" clip-rule="evenodd" d="M6.05566 20.939C6.05566 20.0854 6.74923 19.3906 7.6031 19.3906C8.45679 19.3906 9.15185 20.0851 9.15185 20.939V31.1152C9.15185 31.9691 8.4567 32.6632 7.6031 32.6632C6.74932 32.6632 6.05566 31.9689 6.05566 31.1152V20.939ZM13.8245 7.37485L12.3513 5.00429L12.6857 4.81032C16.1207 2.81776 20.029 1.7627 24.0002 1.7627C27.9712 1.7627 31.8796 2.81757 35.3143 4.81032L35.6487 5.00429L34.1755 7.37485L33.8614 7.1941C30.8643 5.46976 27.4581 4.55963 24.0003 4.55963C20.5424 4.55963 17.1359 5.46976 14.1388 7.1941L13.8245 7.37485ZM25.3989 30.823C24.3786 31.2368 23.289 31.4478 22.1881 31.4478C20.6625 31.4478 19.1597 31.0412 17.8459 30.2647C17.7486 30.2072 17.6299 30.1966 17.5239 30.2362L13.2477 31.8347L14.8468 27.5589C14.8865 27.4526 14.8757 27.3344 14.8181 27.2367C14.0427 25.9229 13.6352 24.4205 13.6352 22.8953C13.6352 20.254 14.8788 17.755 16.9562 16.1363L18.2894 15.0976L17.5206 16.6028C16.8531 17.9097 16.5108 19.3475 16.5108 20.8148C16.5108 25.7348 20.3687 29.8228 25.2793 30.1012L26.946 30.1957L25.3989 30.823ZM38.8481 20.939C38.8481 20.0851 39.5432 19.3906 40.3969 19.3906C41.2509 19.3906 41.9448 20.085 41.9448 20.939V31.1152C41.9448 31.9692 41.2509 32.6632 40.3969 32.6632C39.5432 32.6632 38.8481 31.9691 38.8481 31.1152V20.939ZM26.2894 35.3549C26.8695 35.3549 27.3412 35.8267 27.3412 36.4068V37.1844C27.3412 37.7646 26.8695 38.2363 26.2894 38.2363H21.7106C21.1305 38.2363 20.6587 37.7646 20.6587 37.1844V36.4068C20.6587 35.8267 21.1305 35.3549 21.7106 35.3549H26.2894Z" fill="#F4AC04"/>
<path fill-rule="evenodd" clip-rule="evenodd" d="M21.1115 24.2305C21.1115 23.8163 21.447 23.4803 21.8618 23.4803H29.7639C30.1782 23.4803 30.5137 23.8163 30.5137 24.2305C30.5137 24.6448 30.1782 24.9803 29.7639 24.9803H21.8618C21.447 24.9803 21.1115 24.6447 21.1115 24.2305ZM21.1115 17.3992C21.1115 16.9849 21.447 16.6489 21.8618 16.6489H29.7639C30.1782 16.6489 30.5137 16.9849 30.5137 17.3992C30.5137 17.8134 30.1782 18.149 29.7639 18.149H21.8618C21.447 18.149 21.1115 17.8134 21.1115 17.3992ZM21.1115 20.8148C21.1115 20.4006 21.447 20.065 21.8618 20.065H29.7639C30.1782 20.065 30.5137 20.4006 30.5137 20.8148C30.5137 21.2291 30.1782 21.5647 29.7639 21.5647H21.8618C21.447 21.5647 21.1115 21.2291 21.1115 20.8148ZM17.3925 29.885C17.6043 29.8054 17.8417 29.8267 18.0367 29.942C19.2892 30.682 20.7247 31.0729 22.188 31.0729C23.2539 31.0729 24.2933 30.8668 25.258 30.4756C20.18 30.1878 16.1356 25.9648 16.1356 20.8148C16.1356 19.2383 16.5141 17.7488 17.1865 16.4323C15.2346 17.9531 14.0099 20.3268 14.0099 22.8953C14.0099 24.3582 14.4013 25.7938 15.1409 27.0462C15.2558 27.2416 15.2774 27.4781 15.1979 27.6904L13.887 31.1953L17.3925 29.885ZM25.8123 12.6373C21.3038 12.6373 17.6353 16.3059 17.6353 20.8148C17.6353 25.3238 21.3039 28.9924 25.8123 28.9924C27.2757 28.9924 28.7107 28.6012 29.9637 27.861C30.0809 27.792 30.213 27.7567 30.3452 27.7567C30.4341 27.7567 30.5234 27.7726 30.6074 27.8044L34.1128 29.1147L32.8023 25.6098C32.7224 25.3976 32.744 25.161 32.8593 24.9656C33.599 23.7131 33.9898 22.2776 33.9898 20.8148C33.9899 16.3058 30.3213 12.6373 25.8123 12.6373ZM28.7024 30.0508C29.2921 29.8664 29.8642 29.6264 30.4097 29.3319L35.1291 31.0959C35.2144 31.1277 35.3033 31.1437 35.3912 31.1437C35.5867 31.1437 35.7785 31.0672 35.9213 30.9234C36.1295 30.7157 36.1967 30.4062 36.0937 30.1308L34.3293 25.4118C35.0897 24.0054 35.4899 22.4236 35.4899 20.8148C35.4899 15.4787 31.1485 11.1377 25.8122 11.1377C23.3099 11.1377 21.0269 12.0922 19.3067 13.6564C17.4048 14.2496 15.6965 15.4447 14.4834 17.0384C13.1924 18.7343 12.5099 20.7592 12.5099 22.8953C12.5099 24.5046 12.9104 26.086 13.6708 27.4924L11.9063 32.2118C11.8028 32.4867 11.8705 32.7967 12.0787 33.0045C12.2211 33.1478 12.4134 33.2243 12.6084 33.2243C12.6963 33.2243 12.7857 33.2088 12.871 33.1769L17.5904 31.4124C18.9963 32.1728 20.5782 32.573 22.1879 32.573C24.6103 32.573 26.9167 31.6781 28.7024 30.0508ZM46.4063 27.1046C46.4063 28.9658 44.9187 30.4853 43.0697 30.5384V21.516C44.9186 21.5691 46.4063 23.0886 46.4063 24.9494V27.1046ZM26.9662 37.1845C26.9662 37.5577 26.6624 37.8614 26.2893 37.8614H21.7106C21.3374 37.8614 21.0337 37.5577 21.0337 37.1845V36.4069C21.0337 36.0337 21.3374 35.73 21.7106 35.73H26.2894C26.6625 35.73 26.9663 36.0337 26.9663 36.4069L26.9662 37.1845ZM41.5697 31.1153C41.5697 31.7621 41.0441 32.2883 40.3968 32.2883C39.75 32.2883 39.2231 31.7621 39.2231 31.1153V20.9391C39.2231 20.2923 39.75 19.7657 40.3968 19.7657C41.0441 19.7657 41.5697 20.2923 41.5697 20.9391V31.1153ZM34.0483 6.86916C30.9946 5.11229 27.525 4.18473 24.0001 4.18473C20.4753 4.18473 17.0053 5.11229 13.9516 6.86916L12.8738 5.13479C16.2545 3.17363 20.0973 2.13779 24.0001 2.13779C27.903 2.13779 31.7458 3.17363 35.1261 5.13479L34.0483 6.86916ZM1.5936 27.1046V24.9494C1.5936 23.0886 3.08169 21.5691 4.93054 21.516V30.5384C3.08169 30.4853 1.5936 28.9658 1.5936 27.1046ZM6.43063 20.9391C6.43063 20.2923 6.95629 19.7657 7.60307 19.7657C8.24985 19.7657 8.77682 20.2923 8.77682 20.9391V31.1153C8.77682 31.7621 8.24985 32.2883 7.60307 32.2883C6.95629 32.2883 6.43063 31.7621 6.43063 31.1153V20.9391ZM45.7379 20.8643C44.7497 14.8761 41.323 9.57085 36.2552 6.16004L36.5072 5.75504C36.6964 5.45044 36.7517 5.10554 36.6664 4.75763C36.5824 4.40973 36.3742 4.12941 36.0657 3.94641C32.4112 1.78191 28.2396 0.637695 24.0002 0.637695C19.7609 0.637695 15.5888 1.78182 11.9344 3.94641V3.94688C11.6263 4.12951 11.418 4.40973 11.3336 4.7581C11.2483 5.10601 11.3035 5.45044 11.4928 5.75457L11.7452 6.16004C6.67691 9.57085 3.25063 14.8761 2.26204 20.8643C0.954318 21.753 0.0935059 23.2525 0.0935059 24.9494V27.1046C0.0935059 29.8267 2.30797 32.0407 5.02954 32.0407H5.09544C5.47298 33.0597 6.45491 33.7882 7.60307 33.7882C9.07794 33.7882 10.2769 32.5893 10.2769 31.1153V20.9391C10.2769 19.4651 9.07794 18.2661 7.60307 18.2661C6.45491 18.2661 5.47298 18.9942 5.09544 20.0138H5.02954C4.65022 20.0138 4.28151 20.058 3.92647 20.1393C5.03704 14.9755 8.11232 10.4299 12.5369 7.43504L12.78 7.82457C13.0245 8.21804 13.4542 8.43648 13.8919 8.43648C14.1161 8.43648 14.342 8.37947 14.5462 8.25919C17.4092 6.57479 20.6786 5.68482 24 5.68482C27.3215 5.68482 30.5905 6.57479 33.454 8.25919C34.0574 8.61422 34.8497 8.41969 35.2201 7.82466L35.4629 7.43513C39.8879 10.43 42.9627 14.9756 44.0737 20.1394C43.7183 20.058 43.3499 20.0138 42.9702 20.0138H42.9047C42.5267 18.9943 41.5453 18.2662 40.3967 18.2662C38.9223 18.2662 37.7229 19.4651 37.7229 20.9392V31.1154C37.7229 32.5894 38.9223 33.7883 40.3967 33.7883C41.5453 33.7883 42.5267 33.0597 42.9047 32.0408H42.9702C43.3172 32.0408 43.6563 32.0045 43.9839 31.9356C43.8973 34.2163 42.0165 36.0457 39.715 36.0457H28.4354C28.2629 35.017 27.3663 34.2301 26.2894 34.2301H21.7106C20.5107 34.2301 19.5337 35.2067 19.5337 36.407V37.1846C19.5337 38.3849 20.5108 39.3615 21.7106 39.3615H26.2894C27.3664 39.3615 28.2629 38.575 28.4354 37.5457H39.7152C42.8983 37.5457 45.4886 34.9559 45.4886 31.7728V31.3484C46.9351 30.4863 47.9064 28.9072 47.9064 27.1046V24.9494C47.9064 23.2525 47.0456 21.753 45.7379 20.8643Z" fill="#333741"/>
</svg>
