<svg width="42" height="42" viewBox="0 0 42 42" fill="none" xmlns="http://www.w3.org/2000/svg">
<path fill-rule="evenodd" clip-rule="evenodd" d="M27.1507 38.9683C26.8873 37.4559 26.0169 36.6636 25.0965 35.825C24.9098 35.6552 24.7169 35.4791 24.5323 35.2994L25.4475 34.3592C25.6166 34.5236 25.793 34.6846 25.9801 34.8549C26.9753 35.7609 28.1029 36.788 28.4433 38.7431L27.1506 38.9684L27.1507 38.9683ZM35.2996 17.4675L34.3595 16.552C34.5239 16.3832 34.6845 16.2068 34.8551 16.0201C35.7608 15.0245 36.7886 13.8969 38.7434 13.5562L38.969 14.8492C37.4566 15.1126 36.6639 15.9828 35.8257 16.9035C35.6552 17.0902 35.4794 17.283 35.2996 17.4675ZM16.5523 7.64001C16.3836 7.47603 16.2071 7.31541 16.0201 7.1452C15.0249 6.23884 13.8969 5.21172 13.5565 3.25651L14.8496 3.03125C15.1126 4.54366 15.983 5.336 16.9041 6.17452C17.0905 6.34474 17.2834 6.52045 17.4679 6.69977L16.5524 7.63993L16.5523 7.64001ZM3.25683 28.4431L3.03198 27.1501C4.54472 26.8871 5.33632 26.017 6.17526 25.0959C6.34506 24.9092 6.52077 24.7162 6.7005 24.532L7.64033 25.4477C7.47635 25.616 7.31574 25.7929 7.14585 25.9796C6.2394 26.9748 5.21237 28.1027 3.25683 28.4431Z" fill="#004960"/>
<path fill-rule="evenodd" clip-rule="evenodd" d="M26.9324 7.82707H21.6564V12.5297C21.6564 12.7996 21.4913 13.0421 21.2393 13.1408C20.9884 13.2391 20.7023 13.1742 20.5193 12.9761C20.2067 12.639 19.7809 12.4534 19.3224 12.4534C18.4226 12.4534 17.69 13.1856 17.69 14.0857C17.69 14.9859 18.4226 15.7177 19.3224 15.7177C19.7809 15.7177 20.2067 15.5321 20.5193 15.1954C20.7023 14.9973 20.9885 14.932 21.2393 15.0306C21.4913 15.129 21.6564 15.3714 21.6564 15.6414V20.3445H25.154C25.0344 20.0199 24.9703 19.6739 24.9703 19.3225C24.9703 17.699 26.2908 16.378 27.9151 16.378C29.5394 16.378 30.8592 17.699 30.8592 19.3225C30.8592 19.6739 30.7961 20.0199 30.6755 20.3445H34.1735V10.3156H35.486V26.933H34.1735V21.657L29.4704 21.6566C29.2005 21.6566 28.9587 21.4916 28.8604 21.2403C28.761 20.9891 28.8267 20.7029 29.0244 20.5195C29.3614 20.207 29.5467 19.7818 29.5467 19.3226C29.5467 18.4228 28.8153 17.6903 27.9151 17.6903C27.015 17.6903 26.2828 18.4228 26.2828 19.3226C26.2828 19.7818 26.4684 20.207 26.8055 20.5195C27.0029 20.7029 27.0685 20.9891 26.9702 21.2403C26.8719 21.4916 26.629 21.6566 26.3591 21.6566H21.6565V25.1546C21.9804 25.0347 22.3263 24.9709 22.6784 24.9709C24.3016 24.9709 25.6225 26.2918 25.6225 27.9154C25.6225 29.5389 24.3016 30.8598 22.6784 30.8598C22.3263 30.8598 21.9803 30.7963 21.6565 30.6761V34.174H31.6854V35.4865H15.0673V34.174H20.3436V29.471C20.3436 29.2014 20.5094 28.9589 20.7604 28.8603C21.0116 28.7616 21.2978 28.8269 21.4815 29.025C21.794 29.3621 22.2191 29.5477 22.6784 29.5477C23.5782 29.5477 24.31 28.8155 24.31 27.9154C24.31 27.0152 23.5782 26.2834 22.6784 26.2834C22.2191 26.2834 21.794 26.469 21.4815 26.8057C21.2978 27.0038 21.0116 27.0691 20.7604 26.9705C20.5094 26.8721 20.3436 26.6297 20.3436 26.3597V21.6567H16.846C16.9667 21.981 17.0297 22.3272 17.0297 22.6787C17.0297 24.3022 15.7088 25.6232 14.0856 25.6232C12.4625 25.6232 11.1405 24.3022 11.1405 22.6787C11.1405 22.3272 11.2047 21.981 11.3246 21.6567H7.82666V31.6855H6.51416V15.0682H7.82666V20.3442H12.5297C12.7992 20.3442 13.0421 20.5097 13.1408 20.7609C13.2392 21.0122 13.1735 21.2983 12.9758 21.4817C12.6387 21.7943 12.4531 22.2194 12.4531 22.6787C12.4531 23.5785 13.1849 24.3107 14.0858 24.3107C14.9868 24.3107 15.7174 23.5785 15.7174 22.6787C15.7174 22.2194 15.5318 21.7943 15.1947 21.4817C14.997 21.298 14.9313 21.0122 15.0307 20.7609C15.1291 20.5097 15.3712 20.3442 15.6411 20.3442L20.3437 20.3445V16.8466C20.0198 16.9665 19.6735 17.0303 19.3225 17.0303C17.6982 17.0303 16.3777 15.7094 16.3777 14.0858C16.3777 12.4622 17.6982 11.141 19.3225 11.141C19.6735 11.141 20.0199 11.2048 20.3437 11.3251V7.82715H10.3157V6.51465H26.9326V7.82715L26.9324 7.82707Z" fill="#E9A811"/>
<path fill-rule="evenodd" clip-rule="evenodd" d="M9.54671 38.3348C9.11859 38.3348 8.65938 38.2423 8.16375 38.0578C7.41398 37.779 6.83328 37.4317 6.27063 37.0957C5.53506 36.6562 4.83345 36.237 3.77114 36.0002C3.66015 36.4587 3.24655 36.8004 2.75469 36.8004H1.12891C0.551168 36.8004 0.0820312 36.3308 0.0820312 35.7538V27.2927C0.0820312 26.7157 0.551168 26.2461 1.12891 26.2461H2.75469C3.33137 26.2461 3.80051 26.7157 3.80051 27.2927V34.6659C5.20915 34.9328 6.08992 35.4584 6.94419 35.9687C7.47903 36.2886 7.9841 36.5905 8.62165 36.8279C9.28192 37.0736 9.78411 37.0846 10.2008 36.862C11.4909 36.1738 12.664 35.4831 13.9054 34.7521C14.3154 34.5107 14.7289 34.2671 15.1529 34.0203C15.6444 33.7338 15.8117 33.1003 15.5245 32.6084C15.2384 32.1161 14.6049 31.9492 14.113 32.2357C13.6552 32.5024 12.9956 32.8762 12.3574 33.2379C11.8185 33.5438 11.2613 33.8596 10.8325 34.1069C10.5618 34.2631 10.2181 34.2066 10.0112 33.9715C8.45365 32.1964 7.49848 32.2291 5.94423 32.4389C5.58477 32.4874 5.25427 32.2357 5.20587 31.8766C5.15747 31.5175 5.40947 31.187 5.7686 31.1386C7.48568 30.9064 8.86454 30.8884 10.6322 32.7086C10.9704 32.516 11.3443 32.3036 11.7103 32.0964C12.3453 31.7365 13.0015 31.3646 13.4523 31.1019C14.5697 30.4508 16.0076 30.8301 16.6591 31.9474C17.3098 33.0651 16.9305 34.5034 15.8132 35.1545C15.3917 35.4003 14.9791 35.6432 14.5715 35.883C13.318 36.6214 12.1336 37.3187 10.8185 38.0201C10.4253 38.2299 10.0038 38.3348 9.5468 38.3348L9.54671 38.3348ZM34.6664 38.1998C34.9333 36.7907 35.4585 35.9107 35.9691 35.0561C36.289 34.5213 36.5909 34.0158 36.8278 33.3787C37.074 32.7184 37.0846 32.2166 36.8616 31.7995C36.1741 30.5098 35.4834 29.3374 34.7524 28.0964C34.5114 27.6864 34.2678 27.2719 34.0202 26.8478C33.7337 26.3558 33.1006 26.189 32.6083 26.4754C32.1161 26.7619 31.9488 27.3954 32.236 27.8873C32.5027 28.3448 32.8757 29.0043 33.2374 29.6418C33.5434 30.1814 33.8592 30.739 34.1071 31.1678C34.2631 31.4389 34.2061 31.7822 33.9718 31.9887C32.1967 33.5467 32.2293 34.5019 32.4392 36.056C32.4877 36.4152 32.236 36.7457 31.8765 36.7945C31.5174 36.8425 31.1866 36.5909 31.1385 36.2317C30.9063 34.515 30.888 33.1358 32.7085 31.3681C32.5155 31.0299 32.3032 30.6553 32.0959 30.2893C31.7364 29.6547 31.3641 28.9989 31.1014 28.5484C30.4511 27.431 30.83 25.9923 31.9469 25.3413C33.065 24.6902 34.5032 25.0698 35.1547 26.1872C35.4005 26.6094 35.6434 27.0221 35.8836 27.4304C36.622 28.6838 37.3186 29.8679 38.0199 31.1818C38.4267 31.944 38.4389 32.8127 38.0577 33.8365C37.7786 34.5859 37.4316 35.1673 37.0963 35.7296C36.6565 36.4652 36.2368 37.1668 36.0001 38.229C36.4585 38.3399 36.8003 38.7537 36.8003 39.246V40.8717C36.8003 41.4487 36.3307 41.9182 35.7541 41.9182H27.2927C26.7161 41.9182 26.2469 41.4487 26.2469 40.8717V39.246C26.2469 38.669 26.7161 38.1998 27.2927 38.1998H34.6664ZM27.5594 40.6058H35.4875V39.5123H27.5594V40.6058ZM27.3716 11.2169C26.5635 11.2169 25.7767 10.7998 25.3413 10.0529C24.6905 8.93525 25.0698 7.49692 26.1868 6.84584C26.6093 6.60007 27.0213 6.35726 27.4288 6.11732C28.683 5.37895 29.8677 4.68161 31.1817 3.98024C31.9436 3.57377 32.8126 3.56098 33.8364 3.94242C34.5862 4.22116 35.1676 4.56857 35.7296 4.90424C36.4651 5.34376 37.1667 5.76302 38.2288 5.99993C38.3399 5.54146 38.7539 5.19988 39.2463 5.19988H40.872C41.449 5.19988 41.9178 5.66943 41.9178 6.24643V14.7075C41.9178 15.2845 41.449 15.754 40.872 15.754H39.2463C38.669 15.754 38.1994 15.2845 38.1994 14.7075V7.33409C36.7909 7.06699 35.911 6.54134 35.0561 6.0311C34.5213 5.71126 34.0158 5.40939 33.3787 5.1724C32.7184 4.92663 32.2169 4.91564 31.7995 5.13827C30.5094 5.82643 29.337 6.51714 28.095 7.2482C27.6857 7.48921 27.2715 7.73317 26.8483 7.98C26.356 8.26645 26.1887 8.89998 26.4756 9.39184C26.7621 9.88411 27.3963 10.051 27.8875 9.76451C28.3446 9.49823 29.0034 9.12516 29.6398 8.76381C30.1804 8.4575 30.7392 8.14095 31.1679 7.89338C31.4386 7.73711 31.7823 7.79363 31.9892 8.02873C33.5468 9.8038 34.5023 9.77115 36.0562 9.56132C36.4156 9.51325 36.7461 9.76451 36.7946 10.1236C36.843 10.4828 36.591 10.8133 36.2319 10.8617C34.5155 11.0938 33.1359 11.1118 31.3683 9.29135C31.0293 9.48503 30.6544 9.69782 30.2868 9.90577C29.6537 10.2649 28.9982 10.6365 28.5488 10.8983C28.178 11.114 27.7727 11.2167 27.3717 11.2167L27.3716 11.2169ZM39.5118 6.75076C39.5123 6.7652 39.5123 6.7798 39.5118 6.7944V14.4416H40.6053V6.51238H39.5118V6.75076ZM6.51271 2.48801H6.76339C6.76922 2.48801 6.77504 2.48793 6.78087 2.48801H14.4415V1.39453H6.51271V2.48801ZM8.87578 16.9771C8.06876 16.9771 7.28118 16.5601 6.84543 15.8132C6.6004 15.391 6.35685 14.9783 6.11617 14.5701C5.37887 13.3166 4.68152 12.1326 3.98016 10.8186C3.57336 10.0564 3.56089 9.18775 3.94234 8.16391C4.22108 7.41448 4.56848 6.83312 4.90457 6.2708C5.34376 5.53522 5.7631 4.83361 5.99993 3.7713C5.54154 3.66032 5.19988 3.24639 5.19988 2.75445V1.12859C5.19988 0.551578 5.66943 0.0820312 6.24602 0.0820312H14.7075C15.2841 0.0820312 15.754 0.551578 15.754 1.12859V2.75428C15.754 3.33096 15.2841 3.80043 14.7075 3.80043H7.33458C7.06773 5.20931 6.54166 6.08951 6.03102 6.94411C5.71192 7.47895 5.41004 7.98443 5.17191 8.62157C4.92688 9.28184 4.91621 9.78362 5.13852 10.2008C5.82668 11.4904 6.51632 12.6628 7.24738 13.9041C7.48839 14.3139 7.73309 14.7284 7.97992 15.1524C8.26637 15.6443 8.90023 15.8112 9.39184 15.5247C9.88411 15.2379 10.0514 14.6048 9.7641 14.1128C9.49815 13.6562 9.12589 12.9984 8.76487 12.3616C8.45824 11.8213 8.14168 11.2619 7.89296 10.8324C7.7371 10.5617 7.79395 10.2176 8.02905 10.0114C9.80339 8.45316 9.77148 7.49798 9.56164 5.94415C9.51251 5.58502 9.7641 5.25451 10.1236 5.20579C10.4828 5.15772 10.8133 5.40898 10.8617 5.76811C11.0938 7.48519 11.1119 8.86446 9.29168 10.6322C9.48536 10.9711 9.69847 11.3471 9.90683 11.7146C10.2652 12.3478 10.6361 13.0025 10.8987 13.4519C11.549 14.5692 11.1701 16.0079 10.0528 16.659C9.68231 16.8746 9.27691 16.977 8.87562 16.977L8.87578 16.9771ZM2.48801 35.2322V27.5587H1.39453V35.488H2.48801V35.2322Z" fill="#004960"/>
</svg>
