<svg width="43" height="43" viewBox="0 0 43 43" fill="none" xmlns="http://www.w3.org/2000/svg">
<g clip-path="url(#clip0_1154_1017)">
<path d="M33.4594 40.3129V27.4129L36.55 30.5035L38.4313 28.6223L32.1157 22.3066L25.8 28.6223L27.6813 30.5035L30.7719 27.4129V40.3129H33.4594Z" fill="#F4AC04"/>
<path d="M20.1562 20.9625L11.1531 29.9656L13.0343 31.8469L22.8437 22.0375V13.4375H20.1562V20.9625Z" fill="#333741"/>
<path d="M21.5 42.9996V40.3121C18.6781 40.3121 15.8562 39.6402 13.3031 38.4309L14.5125 36.4152L12.2281 35.0715L11.0188 37.0871C9.00313 35.7434 7.39062 33.9965 6.04688 32.1152L7.92812 30.9059L6.58437 28.6215L4.56875 29.8309C3.49375 27.6809 2.95625 25.3965 2.6875 22.9777H8.0625V20.2902H2.82187C2.95625 17.8715 3.62812 15.5871 4.70312 13.4371L6.71875 14.6465L8.0625 12.3621L5.9125 11.0184C7.25625 9.00273 9.00313 7.39023 10.8844 6.04648L12.0938 7.92773L14.3781 6.58398L13.3031 4.56836C15.4531 3.49336 17.7375 2.95586 20.1562 2.68711V8.06211H22.8438V2.82148C25.2625 2.95586 27.5469 3.62773 29.6969 4.70273L28.4875 6.71836L30.7719 8.06211L31.9812 6.04648C33.9969 7.39023 35.6094 9.13711 36.9531 11.0184L35.0719 12.0934L36.4156 14.3777L38.4313 13.1684C39.6406 15.7215 40.3125 18.5434 40.3125 21.3652H43C43 9.54023 33.325 -0.134766 21.5 -0.134766C9.675 -0.134766 0 9.67461 0 21.4996C0 33.3246 9.675 42.9996 21.5 42.9996Z" fill="#333741"/>
</g>
<defs>
<clipPath id="clip0_1154_1017">
<rect width="43" height="43" fill="white"/>
</clipPath>
</defs>
</svg>
